G04 #@! TF.GenerationSoftware,KiCad,Pcbnew,(5.1.4)-1*
G04 #@! TF.CreationDate,2019-11-20T19:39:55+01:00*
G04 #@! TF.ProjectId,Open_Telemetry_digitalSensorShield,4f70656e-5f54-4656-9c65-6d657472795f,P1A_02 - Prototype manuf.*
G04 #@! TF.SameCoordinates,Original*
G04 #@! TF.FileFunction,Other,ECO2*
%FSLAX46Y46*%
G04 Gerber Fmt 4.6, Leading zero omitted, Abs format (unit mm)*
G04 Created by KiCad (PCBNEW (5.1.4)-1) date 2019-11-20 19:39:55*
%MOMM*%
%LPD*%
G04 APERTURE LIST*
%ADD10C,0.150000*%
%ADD11C,0.100000*%
%ADD12C,0.254000*%
G04 APERTURE END LIST*
D10*
X200558400Y-151706580D02*
X200558400Y-150350220D01*
X134142480Y-151706580D02*
X200558400Y-151706580D01*
X134142480Y-133573520D02*
X134142480Y-151706580D01*
X200499980Y-133692900D02*
X134142480Y-133573520D01*
X182388214Y-134268571D02*
X182721547Y-134268571D01*
X182864404Y-134792380D02*
X182388214Y-134792380D01*
X182388214Y-133792380D01*
X182864404Y-133792380D01*
X183197738Y-134792380D02*
X183721547Y-134125714D01*
X183197738Y-134125714D02*
X183721547Y-134792380D01*
X183959642Y-134125714D02*
X184340595Y-134125714D01*
X184102500Y-133792380D02*
X184102500Y-134649523D01*
X184150119Y-134744761D01*
X184245357Y-134792380D01*
X184340595Y-134792380D01*
X185054880Y-134744761D02*
X184959642Y-134792380D01*
X184769166Y-134792380D01*
X184673928Y-134744761D01*
X184626309Y-134649523D01*
X184626309Y-134268571D01*
X184673928Y-134173333D01*
X184769166Y-134125714D01*
X184959642Y-134125714D01*
X185054880Y-134173333D01*
X185102500Y-134268571D01*
X185102500Y-134363809D01*
X184626309Y-134459047D01*
X185531071Y-134792380D02*
X185531071Y-134125714D01*
X185531071Y-134316190D02*
X185578690Y-134220952D01*
X185626309Y-134173333D01*
X185721547Y-134125714D01*
X185816785Y-134125714D01*
X186150119Y-134125714D02*
X186150119Y-134792380D01*
X186150119Y-134220952D02*
X186197738Y-134173333D01*
X186292976Y-134125714D01*
X186435833Y-134125714D01*
X186531071Y-134173333D01*
X186578690Y-134268571D01*
X186578690Y-134792380D01*
X187483452Y-134792380D02*
X187483452Y-134268571D01*
X187435833Y-134173333D01*
X187340595Y-134125714D01*
X187150119Y-134125714D01*
X187054880Y-134173333D01*
X187483452Y-134744761D02*
X187388214Y-134792380D01*
X187150119Y-134792380D01*
X187054880Y-134744761D01*
X187007261Y-134649523D01*
X187007261Y-134554285D01*
X187054880Y-134459047D01*
X187150119Y-134411428D01*
X187388214Y-134411428D01*
X187483452Y-134363809D01*
X188102500Y-134792380D02*
X188007261Y-134744761D01*
X187959642Y-134649523D01*
X187959642Y-133792380D01*
X189769166Y-133840000D02*
X189673928Y-133792380D01*
X189531071Y-133792380D01*
X189388214Y-133840000D01*
X189292976Y-133935238D01*
X189245357Y-134030476D01*
X189197738Y-134220952D01*
X189197738Y-134363809D01*
X189245357Y-134554285D01*
X189292976Y-134649523D01*
X189388214Y-134744761D01*
X189531071Y-134792380D01*
X189626309Y-134792380D01*
X189769166Y-134744761D01*
X189816785Y-134697142D01*
X189816785Y-134363809D01*
X189626309Y-134363809D01*
X190245357Y-134792380D02*
X190245357Y-133792380D01*
X190626309Y-133792380D01*
X190721547Y-133840000D01*
X190769166Y-133887619D01*
X190816785Y-133982857D01*
X190816785Y-134125714D01*
X190769166Y-134220952D01*
X190721547Y-134268571D01*
X190626309Y-134316190D01*
X190245357Y-134316190D01*
X191197738Y-134744761D02*
X191340595Y-134792380D01*
X191578690Y-134792380D01*
X191673928Y-134744761D01*
X191721547Y-134697142D01*
X191769166Y-134601904D01*
X191769166Y-134506666D01*
X191721547Y-134411428D01*
X191673928Y-134363809D01*
X191578690Y-134316190D01*
X191388214Y-134268571D01*
X191292976Y-134220952D01*
X191245357Y-134173333D01*
X191197738Y-134078095D01*
X191197738Y-133982857D01*
X191245357Y-133887619D01*
X191292976Y-133840000D01*
X191388214Y-133792380D01*
X191626309Y-133792380D01*
X191769166Y-133840000D01*
X192912023Y-134506666D02*
X193388214Y-134506666D01*
X192816785Y-134792380D02*
X193150119Y-133792380D01*
X193483452Y-134792380D01*
X193816785Y-134125714D02*
X193816785Y-134792380D01*
X193816785Y-134220952D02*
X193864404Y-134173333D01*
X193959642Y-134125714D01*
X194102500Y-134125714D01*
X194197738Y-134173333D01*
X194245357Y-134268571D01*
X194245357Y-134792380D01*
X194578690Y-134125714D02*
X194959642Y-134125714D01*
X194721547Y-133792380D02*
X194721547Y-134649523D01*
X194769166Y-134744761D01*
X194864404Y-134792380D01*
X194959642Y-134792380D01*
X195673928Y-134744761D02*
X195578690Y-134792380D01*
X195388214Y-134792380D01*
X195292976Y-134744761D01*
X195245357Y-134649523D01*
X195245357Y-134268571D01*
X195292976Y-134173333D01*
X195388214Y-134125714D01*
X195578690Y-134125714D01*
X195673928Y-134173333D01*
X195721547Y-134268571D01*
X195721547Y-134363809D01*
X195245357Y-134459047D01*
X196150119Y-134125714D02*
X196150119Y-134792380D01*
X196150119Y-134220952D02*
X196197738Y-134173333D01*
X196292976Y-134125714D01*
X196435833Y-134125714D01*
X196531071Y-134173333D01*
X196578690Y-134268571D01*
X196578690Y-134792380D01*
X197054880Y-134125714D02*
X197054880Y-134792380D01*
X197054880Y-134220952D02*
X197102500Y-134173333D01*
X197197738Y-134125714D01*
X197340595Y-134125714D01*
X197435833Y-134173333D01*
X197483452Y-134268571D01*
X197483452Y-134792380D01*
X198388214Y-134792380D02*
X198388214Y-134268571D01*
X198340595Y-134173333D01*
X198245357Y-134125714D01*
X198054880Y-134125714D01*
X197959642Y-134173333D01*
X198388214Y-134744761D02*
X198292976Y-134792380D01*
X198054880Y-134792380D01*
X197959642Y-134744761D01*
X197912023Y-134649523D01*
X197912023Y-134554285D01*
X197959642Y-134459047D01*
X198054880Y-134411428D01*
X198292976Y-134411428D01*
X198388214Y-134363809D01*
X198864404Y-134697142D02*
X198912023Y-134744761D01*
X198864404Y-134792380D01*
X198816785Y-134744761D01*
X198864404Y-134697142D01*
X198864404Y-134792380D01*
X198864404Y-134173333D02*
X198912023Y-134220952D01*
X198864404Y-134268571D01*
X198816785Y-134220952D01*
X198864404Y-134173333D01*
X198864404Y-134268571D01*
X174531071Y-136347142D02*
X174483452Y-136394761D01*
X174340595Y-136442380D01*
X174245357Y-136442380D01*
X174102500Y-136394761D01*
X174007261Y-136299523D01*
X173959642Y-136204285D01*
X173912023Y-136013809D01*
X173912023Y-135870952D01*
X173959642Y-135680476D01*
X174007261Y-135585238D01*
X174102500Y-135490000D01*
X174245357Y-135442380D01*
X174340595Y-135442380D01*
X174483452Y-135490000D01*
X174531071Y-135537619D01*
X175102500Y-136442380D02*
X175007261Y-136394761D01*
X174959642Y-136347142D01*
X174912023Y-136251904D01*
X174912023Y-135966190D01*
X174959642Y-135870952D01*
X175007261Y-135823333D01*
X175102500Y-135775714D01*
X175245357Y-135775714D01*
X175340595Y-135823333D01*
X175388214Y-135870952D01*
X175435833Y-135966190D01*
X175435833Y-136251904D01*
X175388214Y-136347142D01*
X175340595Y-136394761D01*
X175245357Y-136442380D01*
X175102500Y-136442380D01*
X175864404Y-135775714D02*
X175864404Y-136775714D01*
X175864404Y-135823333D02*
X175959642Y-135775714D01*
X176150119Y-135775714D01*
X176245357Y-135823333D01*
X176292976Y-135870952D01*
X176340595Y-135966190D01*
X176340595Y-136251904D01*
X176292976Y-136347142D01*
X176245357Y-136394761D01*
X176150119Y-136442380D01*
X175959642Y-136442380D01*
X175864404Y-136394761D01*
X176912023Y-136442380D02*
X176816785Y-136394761D01*
X176769166Y-136299523D01*
X176769166Y-135442380D01*
X177721547Y-136442380D02*
X177721547Y-135918571D01*
X177673928Y-135823333D01*
X177578690Y-135775714D01*
X177388214Y-135775714D01*
X177292976Y-135823333D01*
X177721547Y-136394761D02*
X177626309Y-136442380D01*
X177388214Y-136442380D01*
X177292976Y-136394761D01*
X177245357Y-136299523D01*
X177245357Y-136204285D01*
X177292976Y-136109047D01*
X177388214Y-136061428D01*
X177626309Y-136061428D01*
X177721547Y-136013809D01*
X178197738Y-135775714D02*
X178197738Y-136442380D01*
X178197738Y-135870952D02*
X178245357Y-135823333D01*
X178340595Y-135775714D01*
X178483452Y-135775714D01*
X178578690Y-135823333D01*
X178626309Y-135918571D01*
X178626309Y-136442380D01*
X179531071Y-136442380D02*
X179531071Y-135918571D01*
X179483452Y-135823333D01*
X179388214Y-135775714D01*
X179197738Y-135775714D01*
X179102500Y-135823333D01*
X179531071Y-136394761D02*
X179435833Y-136442380D01*
X179197738Y-136442380D01*
X179102500Y-136394761D01*
X179054880Y-136299523D01*
X179054880Y-136204285D01*
X179102500Y-136109047D01*
X179197738Y-136061428D01*
X179435833Y-136061428D01*
X179531071Y-136013809D01*
X180007261Y-136442380D02*
X180007261Y-135775714D01*
X180007261Y-135966190D02*
X180054880Y-135870952D01*
X180102500Y-135823333D01*
X180197738Y-135775714D01*
X180292976Y-135775714D01*
X181292976Y-135775714D02*
X181483452Y-136442380D01*
X181673928Y-135966190D01*
X181864404Y-136442380D01*
X182054880Y-135775714D01*
X182864404Y-136442380D02*
X182864404Y-135918571D01*
X182816785Y-135823333D01*
X182721547Y-135775714D01*
X182531071Y-135775714D01*
X182435833Y-135823333D01*
X182864404Y-136394761D02*
X182769166Y-136442380D01*
X182531071Y-136442380D01*
X182435833Y-136394761D01*
X182388214Y-136299523D01*
X182388214Y-136204285D01*
X182435833Y-136109047D01*
X182531071Y-136061428D01*
X182769166Y-136061428D01*
X182864404Y-136013809D01*
X183245357Y-135775714D02*
X183435833Y-136442380D01*
X183626309Y-135966190D01*
X183816785Y-136442380D01*
X184007261Y-135775714D01*
X184769166Y-136394761D02*
X184673928Y-136442380D01*
X184483452Y-136442380D01*
X184388214Y-136394761D01*
X184340595Y-136299523D01*
X184340595Y-135918571D01*
X184388214Y-135823333D01*
X184483452Y-135775714D01*
X184673928Y-135775714D01*
X184769166Y-135823333D01*
X184816785Y-135918571D01*
X184816785Y-136013809D01*
X184340595Y-136109047D01*
X186435833Y-135775714D02*
X186435833Y-136585238D01*
X186388214Y-136680476D01*
X186340595Y-136728095D01*
X186245357Y-136775714D01*
X186102500Y-136775714D01*
X186007261Y-136728095D01*
X186435833Y-136394761D02*
X186340595Y-136442380D01*
X186150119Y-136442380D01*
X186054880Y-136394761D01*
X186007261Y-136347142D01*
X185959642Y-136251904D01*
X185959642Y-135966190D01*
X186007261Y-135870952D01*
X186054880Y-135823333D01*
X186150119Y-135775714D01*
X186340595Y-135775714D01*
X186435833Y-135823333D01*
X187340595Y-135775714D02*
X187340595Y-136442380D01*
X186912023Y-135775714D02*
X186912023Y-136299523D01*
X186959642Y-136394761D01*
X187054880Y-136442380D01*
X187197738Y-136442380D01*
X187292976Y-136394761D01*
X187340595Y-136347142D01*
X187816785Y-136442380D02*
X187816785Y-135775714D01*
X187816785Y-135442380D02*
X187769166Y-135490000D01*
X187816785Y-135537619D01*
X187864404Y-135490000D01*
X187816785Y-135442380D01*
X187816785Y-135537619D01*
X188721547Y-136442380D02*
X188721547Y-135442380D01*
X188721547Y-136394761D02*
X188626309Y-136442380D01*
X188435833Y-136442380D01*
X188340595Y-136394761D01*
X188292976Y-136347142D01*
X188245357Y-136251904D01*
X188245357Y-135966190D01*
X188292976Y-135870952D01*
X188340595Y-135823333D01*
X188435833Y-135775714D01*
X188626309Y-135775714D01*
X188721547Y-135823333D01*
X189578690Y-136394761D02*
X189483452Y-136442380D01*
X189292976Y-136442380D01*
X189197738Y-136394761D01*
X189150119Y-136299523D01*
X189150119Y-135918571D01*
X189197738Y-135823333D01*
X189292976Y-135775714D01*
X189483452Y-135775714D01*
X189578690Y-135823333D01*
X189626309Y-135918571D01*
X189626309Y-136013809D01*
X189150119Y-136109047D01*
X191435833Y-135966190D02*
X191388214Y-135918571D01*
X191292976Y-135870952D01*
X191197738Y-135870952D01*
X191102500Y-135918571D01*
X191054880Y-135966190D01*
X191007261Y-136061428D01*
X191007261Y-136156666D01*
X191054880Y-136251904D01*
X191102500Y-136299523D01*
X191197738Y-136347142D01*
X191292976Y-136347142D01*
X191388214Y-136299523D01*
X191435833Y-136251904D01*
X191435833Y-135870952D02*
X191435833Y-136251904D01*
X191483452Y-136299523D01*
X191531071Y-136299523D01*
X191626309Y-136251904D01*
X191673928Y-136156666D01*
X191673928Y-135918571D01*
X191578690Y-135775714D01*
X191435833Y-135680476D01*
X191245357Y-135632857D01*
X191054880Y-135680476D01*
X190912023Y-135775714D01*
X190816785Y-135918571D01*
X190769166Y-136109047D01*
X190816785Y-136299523D01*
X190912023Y-136442380D01*
X191054880Y-136537619D01*
X191245357Y-136585238D01*
X191435833Y-136537619D01*
X191578690Y-136442380D01*
X193388214Y-136442380D02*
X192816785Y-136442380D01*
X193102500Y-136442380D02*
X193102500Y-135442380D01*
X193007261Y-135585238D01*
X192912023Y-135680476D01*
X192816785Y-135728095D01*
X193816785Y-136347142D02*
X193864404Y-136394761D01*
X193816785Y-136442380D01*
X193769166Y-136394761D01*
X193816785Y-136347142D01*
X193816785Y-136442380D01*
X194769166Y-135442380D02*
X194292976Y-135442380D01*
X194245357Y-135918571D01*
X194292976Y-135870952D01*
X194388214Y-135823333D01*
X194626309Y-135823333D01*
X194721547Y-135870952D01*
X194769166Y-135918571D01*
X194816785Y-136013809D01*
X194816785Y-136251904D01*
X194769166Y-136347142D01*
X194721547Y-136394761D01*
X194626309Y-136442380D01*
X194388214Y-136442380D01*
X194292976Y-136394761D01*
X194245357Y-136347142D01*
X196531071Y-135490000D02*
X196435833Y-135442380D01*
X196292976Y-135442380D01*
X196150119Y-135490000D01*
X196054880Y-135585238D01*
X196007261Y-135680476D01*
X195959642Y-135870952D01*
X195959642Y-136013809D01*
X196007261Y-136204285D01*
X196054880Y-136299523D01*
X196150119Y-136394761D01*
X196292976Y-136442380D01*
X196388214Y-136442380D01*
X196531071Y-136394761D01*
X196578690Y-136347142D01*
X196578690Y-136013809D01*
X196388214Y-136013809D01*
X197007261Y-136442380D02*
X197007261Y-135442380D01*
X197007261Y-135918571D02*
X197578690Y-135918571D01*
X197578690Y-136442380D02*
X197578690Y-135442380D01*
X197959642Y-135775714D02*
X198483452Y-135775714D01*
X197959642Y-136442380D01*
X198483452Y-136442380D01*
X198864404Y-136347142D02*
X198912023Y-136394761D01*
X198864404Y-136442380D01*
X198816785Y-136394761D01*
X198864404Y-136347142D01*
X198864404Y-136442380D01*
X198864404Y-135823333D02*
X198912023Y-135870952D01*
X198864404Y-135918571D01*
X198816785Y-135870952D01*
X198864404Y-135823333D01*
X198864404Y-135918571D01*
X162816785Y-137092380D02*
X163483452Y-137092380D01*
X162816785Y-138092380D01*
X163483452Y-138092380D01*
X164626309Y-137568571D02*
X165388214Y-137568571D01*
X165388214Y-137854285D02*
X164626309Y-137854285D01*
X166150119Y-138473333D02*
X166102500Y-138425714D01*
X166007261Y-138282857D01*
X165959642Y-138187619D01*
X165912023Y-138044761D01*
X165864404Y-137806666D01*
X165864404Y-137616190D01*
X165912023Y-137378095D01*
X165959642Y-137235238D01*
X166007261Y-137140000D01*
X166102500Y-136997142D01*
X166150119Y-136949523D01*
X166531071Y-138092380D02*
X166531071Y-137092380D01*
X167102500Y-138092380D01*
X167102500Y-137092380D01*
X167721547Y-138092380D02*
X167626309Y-138044761D01*
X167578690Y-137997142D01*
X167531071Y-137901904D01*
X167531071Y-137616190D01*
X167578690Y-137520952D01*
X167626309Y-137473333D01*
X167721547Y-137425714D01*
X167864404Y-137425714D01*
X167959642Y-137473333D01*
X168007261Y-137520952D01*
X168054880Y-137616190D01*
X168054880Y-137901904D01*
X168007261Y-137997142D01*
X167959642Y-138044761D01*
X167864404Y-138092380D01*
X167721547Y-138092380D01*
X168483452Y-138092380D02*
X168483452Y-137425714D01*
X168483452Y-137520952D02*
X168531071Y-137473333D01*
X168626309Y-137425714D01*
X168769166Y-137425714D01*
X168864404Y-137473333D01*
X168912023Y-137568571D01*
X168912023Y-138092380D01*
X168912023Y-137568571D02*
X168959642Y-137473333D01*
X169054880Y-137425714D01*
X169197738Y-137425714D01*
X169292976Y-137473333D01*
X169340595Y-137568571D01*
X169340595Y-138092380D01*
X169864404Y-138044761D02*
X169864404Y-138092380D01*
X169816785Y-138187619D01*
X169769166Y-138235238D01*
X171054880Y-138092380D02*
X171054880Y-137092380D01*
X171388214Y-137806666D01*
X171721547Y-137092380D01*
X171721547Y-138092380D01*
X172626309Y-138092380D02*
X172626309Y-137568571D01*
X172578690Y-137473333D01*
X172483452Y-137425714D01*
X172292976Y-137425714D01*
X172197738Y-137473333D01*
X172626309Y-138044761D02*
X172531071Y-138092380D01*
X172292976Y-138092380D01*
X172197738Y-138044761D01*
X172150119Y-137949523D01*
X172150119Y-137854285D01*
X172197738Y-137759047D01*
X172292976Y-137711428D01*
X172531071Y-137711428D01*
X172626309Y-137663809D01*
X173007261Y-138092380D02*
X173531071Y-137425714D01*
X173007261Y-137425714D02*
X173531071Y-138092380D01*
X173959642Y-138044761D02*
X173959642Y-138092380D01*
X173912023Y-138187619D01*
X173864404Y-138235238D01*
X175150119Y-138092380D02*
X175150119Y-137092380D01*
X175483452Y-137806666D01*
X175816785Y-137092380D01*
X175816785Y-138092380D01*
X176292976Y-138092380D02*
X176292976Y-137425714D01*
X176292976Y-137092380D02*
X176245357Y-137140000D01*
X176292976Y-137187619D01*
X176340595Y-137140000D01*
X176292976Y-137092380D01*
X176292976Y-137187619D01*
X176769166Y-137425714D02*
X176769166Y-138092380D01*
X176769166Y-137520952D02*
X176816785Y-137473333D01*
X176912023Y-137425714D01*
X177054880Y-137425714D01*
X177150119Y-137473333D01*
X177197738Y-137568571D01*
X177197738Y-138092380D01*
X177578690Y-138473333D02*
X177626309Y-138425714D01*
X177721547Y-138282857D01*
X177769166Y-138187619D01*
X177816785Y-138044761D01*
X177864404Y-137806666D01*
X177864404Y-137616190D01*
X177816785Y-137378095D01*
X177769166Y-137235238D01*
X177721547Y-137140000D01*
X177626309Y-136997142D01*
X177578690Y-136949523D01*
X178340595Y-137997142D02*
X178388214Y-138044761D01*
X178340595Y-138092380D01*
X178292976Y-138044761D01*
X178340595Y-137997142D01*
X178340595Y-138092380D01*
X178340595Y-137473333D02*
X178388214Y-137520952D01*
X178340595Y-137568571D01*
X178292976Y-137520952D01*
X178340595Y-137473333D01*
X178340595Y-137568571D01*
X180007261Y-137425714D02*
X180007261Y-138092380D01*
X179769166Y-137044761D02*
X179531071Y-137759047D01*
X180150119Y-137759047D01*
X180578690Y-138092380D02*
X180769166Y-138092380D01*
X180864404Y-138044761D01*
X180912023Y-137997142D01*
X181007261Y-137854285D01*
X181054880Y-137663809D01*
X181054880Y-137282857D01*
X181007261Y-137187619D01*
X180959642Y-137140000D01*
X180864404Y-137092380D01*
X180673928Y-137092380D01*
X180578690Y-137140000D01*
X180531071Y-137187619D01*
X180483452Y-137282857D01*
X180483452Y-137520952D01*
X180531071Y-137616190D01*
X180578690Y-137663809D01*
X180673928Y-137711428D01*
X180864404Y-137711428D01*
X180959642Y-137663809D01*
X181007261Y-137616190D01*
X181054880Y-137520952D01*
X181483452Y-137997142D02*
X181531071Y-138044761D01*
X181483452Y-138092380D01*
X181435833Y-138044761D01*
X181483452Y-137997142D01*
X181483452Y-138092380D01*
X182007261Y-138092380D02*
X182197738Y-138092380D01*
X182292976Y-138044761D01*
X182340595Y-137997142D01*
X182435833Y-137854285D01*
X182483452Y-137663809D01*
X182483452Y-137282857D01*
X182435833Y-137187619D01*
X182388214Y-137140000D01*
X182292976Y-137092380D01*
X182102500Y-137092380D01*
X182007261Y-137140000D01*
X181959642Y-137187619D01*
X181912023Y-137282857D01*
X181912023Y-137520952D01*
X181959642Y-137616190D01*
X182007261Y-137663809D01*
X182102500Y-137711428D01*
X182292976Y-137711428D01*
X182388214Y-137663809D01*
X182435833Y-137616190D01*
X182483452Y-137520952D01*
X182912023Y-137711428D02*
X183673928Y-137711428D01*
X184197738Y-138044761D02*
X184197738Y-138092380D01*
X184150119Y-138187619D01*
X184102500Y-138235238D01*
X185864404Y-137092380D02*
X185388214Y-137092380D01*
X185340595Y-137568571D01*
X185388214Y-137520952D01*
X185483452Y-137473333D01*
X185721547Y-137473333D01*
X185816785Y-137520952D01*
X185864404Y-137568571D01*
X185912023Y-137663809D01*
X185912023Y-137901904D01*
X185864404Y-137997142D01*
X185816785Y-138044761D01*
X185721547Y-138092380D01*
X185483452Y-138092380D01*
X185388214Y-138044761D01*
X185340595Y-137997142D01*
X186388214Y-138092380D02*
X186578690Y-138092380D01*
X186673928Y-138044761D01*
X186721547Y-137997142D01*
X186816785Y-137854285D01*
X186864404Y-137663809D01*
X186864404Y-137282857D01*
X186816785Y-137187619D01*
X186769166Y-137140000D01*
X186673928Y-137092380D01*
X186483452Y-137092380D01*
X186388214Y-137140000D01*
X186340595Y-137187619D01*
X186292976Y-137282857D01*
X186292976Y-137520952D01*
X186340595Y-137616190D01*
X186388214Y-137663809D01*
X186483452Y-137711428D01*
X186673928Y-137711428D01*
X186769166Y-137663809D01*
X186816785Y-137616190D01*
X186864404Y-137520952D01*
X187292976Y-137997142D02*
X187340595Y-138044761D01*
X187292976Y-138092380D01*
X187245357Y-138044761D01*
X187292976Y-137997142D01*
X187292976Y-138092380D01*
X188245357Y-137092380D02*
X187769166Y-137092380D01*
X187721547Y-137568571D01*
X187769166Y-137520952D01*
X187864404Y-137473333D01*
X188102500Y-137473333D01*
X188197738Y-137520952D01*
X188245357Y-137568571D01*
X188292976Y-137663809D01*
X188292976Y-137901904D01*
X188245357Y-137997142D01*
X188197738Y-138044761D01*
X188102500Y-138092380D01*
X187864404Y-138092380D01*
X187769166Y-138044761D01*
X187721547Y-137997142D01*
X188721547Y-137711428D02*
X189483452Y-137711428D01*
X190007261Y-138044761D02*
X190007261Y-138092380D01*
X189959642Y-138187619D01*
X189912023Y-138235238D01*
X192388214Y-137425714D02*
X192388214Y-138092380D01*
X192150119Y-137044761D02*
X191912023Y-137759047D01*
X192531071Y-137759047D01*
X193435833Y-138092380D02*
X192864404Y-138092380D01*
X193150119Y-138092380D02*
X193150119Y-137092380D01*
X193054880Y-137235238D01*
X192959642Y-137330476D01*
X192864404Y-137378095D01*
X193864404Y-137997142D02*
X193912023Y-138044761D01*
X193864404Y-138092380D01*
X193816785Y-138044761D01*
X193864404Y-137997142D01*
X193864404Y-138092380D01*
X194816785Y-137092380D02*
X194340595Y-137092380D01*
X194292976Y-137568571D01*
X194340595Y-137520952D01*
X194435833Y-137473333D01*
X194673928Y-137473333D01*
X194769166Y-137520952D01*
X194816785Y-137568571D01*
X194864404Y-137663809D01*
X194864404Y-137901904D01*
X194816785Y-137997142D01*
X194769166Y-138044761D01*
X194673928Y-138092380D01*
X194435833Y-138092380D01*
X194340595Y-138044761D01*
X194292976Y-137997142D01*
X196245357Y-137092380D02*
X196435833Y-137092380D01*
X196531071Y-137140000D01*
X196626309Y-137235238D01*
X196673928Y-137425714D01*
X196673928Y-137759047D01*
X196626309Y-137949523D01*
X196531071Y-138044761D01*
X196435833Y-138092380D01*
X196245357Y-138092380D01*
X196150119Y-138044761D01*
X196054880Y-137949523D01*
X196007261Y-137759047D01*
X196007261Y-137425714D01*
X196054880Y-137235238D01*
X196150119Y-137140000D01*
X196245357Y-137092380D01*
X197102500Y-138092380D02*
X197102500Y-137092380D01*
X197531071Y-138092380D02*
X197531071Y-137568571D01*
X197483452Y-137473333D01*
X197388214Y-137425714D01*
X197245357Y-137425714D01*
X197150119Y-137473333D01*
X197102500Y-137520952D01*
X198007261Y-138092380D02*
X198007261Y-137425714D01*
X198007261Y-137520952D02*
X198054880Y-137473333D01*
X198150119Y-137425714D01*
X198292976Y-137425714D01*
X198388214Y-137473333D01*
X198435833Y-137568571D01*
X198435833Y-138092380D01*
X198435833Y-137568571D02*
X198483452Y-137473333D01*
X198578690Y-137425714D01*
X198721547Y-137425714D01*
X198816785Y-137473333D01*
X198864404Y-137568571D01*
X198864404Y-138092380D01*
X182483452Y-139456666D02*
X182959642Y-139456666D01*
X182388214Y-139742380D02*
X182721547Y-138742380D01*
X183054880Y-139742380D01*
X183245357Y-139075714D02*
X183626309Y-139075714D01*
X183388214Y-138742380D02*
X183388214Y-139599523D01*
X183435833Y-139694761D01*
X183531071Y-139742380D01*
X183626309Y-139742380D01*
X183816785Y-139075714D02*
X184197738Y-139075714D01*
X183959642Y-138742380D02*
X183959642Y-139599523D01*
X184007261Y-139694761D01*
X184102500Y-139742380D01*
X184197738Y-139742380D01*
X184912023Y-139694761D02*
X184816785Y-139742380D01*
X184626309Y-139742380D01*
X184531071Y-139694761D01*
X184483452Y-139599523D01*
X184483452Y-139218571D01*
X184531071Y-139123333D01*
X184626309Y-139075714D01*
X184816785Y-139075714D01*
X184912023Y-139123333D01*
X184959642Y-139218571D01*
X184959642Y-139313809D01*
X184483452Y-139409047D01*
X185388214Y-139075714D02*
X185388214Y-139742380D01*
X185388214Y-139170952D02*
X185435833Y-139123333D01*
X185531071Y-139075714D01*
X185673928Y-139075714D01*
X185769166Y-139123333D01*
X185816785Y-139218571D01*
X185816785Y-139742380D01*
X186721547Y-139075714D02*
X186721547Y-139742380D01*
X186292976Y-139075714D02*
X186292976Y-139599523D01*
X186340595Y-139694761D01*
X186435833Y-139742380D01*
X186578690Y-139742380D01*
X186673928Y-139694761D01*
X186721547Y-139647142D01*
X187626309Y-139742380D02*
X187626309Y-139218571D01*
X187578690Y-139123333D01*
X187483452Y-139075714D01*
X187292976Y-139075714D01*
X187197738Y-139123333D01*
X187626309Y-139694761D02*
X187531071Y-139742380D01*
X187292976Y-139742380D01*
X187197738Y-139694761D01*
X187150119Y-139599523D01*
X187150119Y-139504285D01*
X187197738Y-139409047D01*
X187292976Y-139361428D01*
X187531071Y-139361428D01*
X187626309Y-139313809D01*
X187959642Y-139075714D02*
X188340595Y-139075714D01*
X188102500Y-138742380D02*
X188102500Y-139599523D01*
X188150119Y-139694761D01*
X188245357Y-139742380D01*
X188340595Y-139742380D01*
X188673928Y-139742380D02*
X188673928Y-139075714D01*
X188673928Y-138742380D02*
X188626309Y-138790000D01*
X188673928Y-138837619D01*
X188721547Y-138790000D01*
X188673928Y-138742380D01*
X188673928Y-138837619D01*
X189292976Y-139742380D02*
X189197738Y-139694761D01*
X189150119Y-139647142D01*
X189102500Y-139551904D01*
X189102500Y-139266190D01*
X189150119Y-139170952D01*
X189197738Y-139123333D01*
X189292976Y-139075714D01*
X189435833Y-139075714D01*
X189531071Y-139123333D01*
X189578690Y-139170952D01*
X189626309Y-139266190D01*
X189626309Y-139551904D01*
X189578690Y-139647142D01*
X189531071Y-139694761D01*
X189435833Y-139742380D01*
X189292976Y-139742380D01*
X190054880Y-139075714D02*
X190054880Y-139742380D01*
X190054880Y-139170952D02*
X190102500Y-139123333D01*
X190197738Y-139075714D01*
X190340595Y-139075714D01*
X190435833Y-139123333D01*
X190483452Y-139218571D01*
X190483452Y-139742380D01*
X190959642Y-139647142D02*
X191007261Y-139694761D01*
X190959642Y-139742380D01*
X190912023Y-139694761D01*
X190959642Y-139647142D01*
X190959642Y-139742380D01*
X190959642Y-139123333D02*
X191007261Y-139170952D01*
X190959642Y-139218571D01*
X190912023Y-139170952D01*
X190959642Y-139123333D01*
X190959642Y-139218571D01*
X192959642Y-139075714D02*
X192197738Y-139361428D01*
X192959642Y-139647142D01*
X193959642Y-139742380D02*
X193388214Y-139742380D01*
X193673928Y-139742380D02*
X193673928Y-138742380D01*
X193578690Y-138885238D01*
X193483452Y-138980476D01*
X193388214Y-139028095D01*
X194578690Y-138742380D02*
X194673928Y-138742380D01*
X194769166Y-138790000D01*
X194816785Y-138837619D01*
X194864404Y-138932857D01*
X194912023Y-139123333D01*
X194912023Y-139361428D01*
X194864404Y-139551904D01*
X194816785Y-139647142D01*
X194769166Y-139694761D01*
X194673928Y-139742380D01*
X194578690Y-139742380D01*
X194483452Y-139694761D01*
X194435833Y-139647142D01*
X194388214Y-139551904D01*
X194340595Y-139361428D01*
X194340595Y-139123333D01*
X194388214Y-138932857D01*
X194435833Y-138837619D01*
X194483452Y-138790000D01*
X194578690Y-138742380D01*
X196102500Y-139742380D02*
X196102500Y-139075714D01*
X196102500Y-139170952D02*
X196150119Y-139123333D01*
X196245357Y-139075714D01*
X196388214Y-139075714D01*
X196483452Y-139123333D01*
X196531071Y-139218571D01*
X196531071Y-139742380D01*
X196531071Y-139218571D02*
X196578690Y-139123333D01*
X196673928Y-139075714D01*
X196816785Y-139075714D01*
X196912023Y-139123333D01*
X196959642Y-139218571D01*
X196959642Y-139742380D01*
X197864404Y-139742380D02*
X197864404Y-138742380D01*
X197864404Y-139694761D02*
X197769166Y-139742380D01*
X197578690Y-139742380D01*
X197483452Y-139694761D01*
X197435833Y-139647142D01*
X197388214Y-139551904D01*
X197388214Y-139266190D01*
X197435833Y-139170952D01*
X197483452Y-139123333D01*
X197578690Y-139075714D01*
X197769166Y-139075714D01*
X197864404Y-139123333D01*
X198673928Y-139218571D02*
X198816785Y-139266190D01*
X198864404Y-139313809D01*
X198912023Y-139409047D01*
X198912023Y-139551904D01*
X198864404Y-139647142D01*
X198816785Y-139694761D01*
X198721547Y-139742380D01*
X198340595Y-139742380D01*
X198340595Y-138742380D01*
X198673928Y-138742380D01*
X198769166Y-138790000D01*
X198816785Y-138837619D01*
X198864404Y-138932857D01*
X198864404Y-139028095D01*
X198816785Y-139123333D01*
X198769166Y-139170952D01*
X198673928Y-139218571D01*
X198340595Y-139218571D01*
X180483452Y-140868571D02*
X180816785Y-140868571D01*
X180959642Y-141392380D02*
X180483452Y-141392380D01*
X180483452Y-140392380D01*
X180959642Y-140392380D01*
X181388214Y-141392380D02*
X181388214Y-140725714D01*
X181388214Y-140916190D02*
X181435833Y-140820952D01*
X181483452Y-140773333D01*
X181578690Y-140725714D01*
X181673928Y-140725714D01*
X183197738Y-140725714D02*
X183197738Y-141392380D01*
X182959642Y-140344761D02*
X182721547Y-141059047D01*
X183340595Y-141059047D01*
X183721547Y-141297142D02*
X183769166Y-141344761D01*
X183721547Y-141392380D01*
X183673928Y-141344761D01*
X183721547Y-141297142D01*
X183721547Y-141392380D01*
X184673928Y-140392380D02*
X184197738Y-140392380D01*
X184150119Y-140868571D01*
X184197738Y-140820952D01*
X184292976Y-140773333D01*
X184531071Y-140773333D01*
X184626309Y-140820952D01*
X184673928Y-140868571D01*
X184721547Y-140963809D01*
X184721547Y-141201904D01*
X184673928Y-141297142D01*
X184626309Y-141344761D01*
X184531071Y-141392380D01*
X184292976Y-141392380D01*
X184197738Y-141344761D01*
X184150119Y-141297142D01*
X186245357Y-140868571D02*
X185912023Y-140868571D01*
X185912023Y-141392380D02*
X185912023Y-140392380D01*
X186388214Y-140392380D01*
X187483452Y-140344761D02*
X186626309Y-141630476D01*
X187816785Y-141392380D02*
X187816785Y-140725714D01*
X187816785Y-140820952D02*
X187864404Y-140773333D01*
X187959642Y-140725714D01*
X188102500Y-140725714D01*
X188197738Y-140773333D01*
X188245357Y-140868571D01*
X188245357Y-141392380D01*
X188245357Y-140868571D02*
X188292976Y-140773333D01*
X188388214Y-140725714D01*
X188531071Y-140725714D01*
X188626309Y-140773333D01*
X188673928Y-140868571D01*
X188673928Y-141392380D01*
X190197738Y-141773333D02*
X190150119Y-141725714D01*
X190054880Y-141582857D01*
X190007261Y-141487619D01*
X189959642Y-141344761D01*
X189912023Y-141106666D01*
X189912023Y-140916190D01*
X189959642Y-140678095D01*
X190007261Y-140535238D01*
X190054880Y-140440000D01*
X190150119Y-140297142D01*
X190197738Y-140249523D01*
X190578690Y-141011428D02*
X191340595Y-141011428D01*
X190959642Y-141392380D02*
X190959642Y-140630476D01*
X192531071Y-140344761D02*
X191673928Y-141630476D01*
X192864404Y-141011428D02*
X193626309Y-141011428D01*
X195388214Y-141392380D02*
X194816785Y-141392380D01*
X195102500Y-141392380D02*
X195102500Y-140392380D01*
X195007261Y-140535238D01*
X194912023Y-140630476D01*
X194816785Y-140678095D01*
X196007261Y-140392380D02*
X196102500Y-140392380D01*
X196197738Y-140440000D01*
X196245357Y-140487619D01*
X196292976Y-140582857D01*
X196340595Y-140773333D01*
X196340595Y-141011428D01*
X196292976Y-141201904D01*
X196245357Y-141297142D01*
X196197738Y-141344761D01*
X196102500Y-141392380D01*
X196007261Y-141392380D01*
X195912023Y-141344761D01*
X195864404Y-141297142D01*
X195816785Y-141201904D01*
X195769166Y-141011428D01*
X195769166Y-140773333D01*
X195816785Y-140582857D01*
X195864404Y-140487619D01*
X195912023Y-140440000D01*
X196007261Y-140392380D01*
X196721547Y-141392380D02*
X197483452Y-140392380D01*
X196864404Y-140392380D02*
X196959642Y-140440000D01*
X197007261Y-140535238D01*
X196959642Y-140630476D01*
X196864404Y-140678095D01*
X196769166Y-140630476D01*
X196721547Y-140535238D01*
X196769166Y-140440000D01*
X196864404Y-140392380D01*
X197435833Y-141344761D02*
X197483452Y-141249523D01*
X197435833Y-141154285D01*
X197340595Y-141106666D01*
X197245357Y-141154285D01*
X197197738Y-141249523D01*
X197245357Y-141344761D01*
X197340595Y-141392380D01*
X197435833Y-141344761D01*
X197816785Y-141773333D02*
X197864404Y-141725714D01*
X197959642Y-141582857D01*
X198007261Y-141487619D01*
X198054880Y-141344761D01*
X198102500Y-141106666D01*
X198102500Y-140916190D01*
X198054880Y-140678095D01*
X198007261Y-140535238D01*
X197959642Y-140440000D01*
X197864404Y-140297142D01*
X197816785Y-140249523D01*
X180864404Y-143042380D02*
X180864404Y-142042380D01*
X180864404Y-142518571D02*
X181435833Y-142518571D01*
X181435833Y-143042380D02*
X181435833Y-142042380D01*
X181912023Y-142947142D02*
X181959642Y-142994761D01*
X181912023Y-143042380D01*
X181864404Y-142994761D01*
X181912023Y-142947142D01*
X181912023Y-143042380D01*
X181912023Y-142423333D02*
X181959642Y-142470952D01*
X181912023Y-142518571D01*
X181864404Y-142470952D01*
X181912023Y-142423333D01*
X181912023Y-142518571D01*
X183340595Y-142042380D02*
X183435833Y-142042380D01*
X183531071Y-142090000D01*
X183578690Y-142137619D01*
X183626309Y-142232857D01*
X183673928Y-142423333D01*
X183673928Y-142661428D01*
X183626309Y-142851904D01*
X183578690Y-142947142D01*
X183531071Y-142994761D01*
X183435833Y-143042380D01*
X183340595Y-143042380D01*
X183245357Y-142994761D01*
X183197738Y-142947142D01*
X183150119Y-142851904D01*
X183102500Y-142661428D01*
X183102500Y-142423333D01*
X183150119Y-142232857D01*
X183197738Y-142137619D01*
X183245357Y-142090000D01*
X183340595Y-142042380D01*
X184102500Y-142947142D02*
X184150119Y-142994761D01*
X184102500Y-143042380D01*
X184054880Y-142994761D01*
X184102500Y-142947142D01*
X184102500Y-143042380D01*
X185102500Y-143042380D02*
X184531071Y-143042380D01*
X184816785Y-143042380D02*
X184816785Y-142042380D01*
X184721547Y-142185238D01*
X184626309Y-142280476D01*
X184531071Y-142328095D01*
X186054880Y-143042380D02*
X185483452Y-143042380D01*
X185769166Y-143042380D02*
X185769166Y-142042380D01*
X185673928Y-142185238D01*
X185578690Y-142280476D01*
X185483452Y-142328095D01*
X187245357Y-143042380D02*
X187245357Y-142375714D01*
X187245357Y-142470952D02*
X187292976Y-142423333D01*
X187388214Y-142375714D01*
X187531071Y-142375714D01*
X187626309Y-142423333D01*
X187673928Y-142518571D01*
X187673928Y-143042380D01*
X187673928Y-142518571D02*
X187721547Y-142423333D01*
X187816785Y-142375714D01*
X187959642Y-142375714D01*
X188054880Y-142423333D01*
X188102500Y-142518571D01*
X188102500Y-143042380D01*
X188578690Y-143042380D02*
X188578690Y-142375714D01*
X188578690Y-142470952D02*
X188626309Y-142423333D01*
X188721547Y-142375714D01*
X188864404Y-142375714D01*
X188959642Y-142423333D01*
X189007261Y-142518571D01*
X189007261Y-143042380D01*
X189007261Y-142518571D02*
X189054880Y-142423333D01*
X189150119Y-142375714D01*
X189292976Y-142375714D01*
X189388214Y-142423333D01*
X189435833Y-142518571D01*
X189435833Y-143042380D01*
X190959642Y-143423333D02*
X190912023Y-143375714D01*
X190816785Y-143232857D01*
X190769166Y-143137619D01*
X190721547Y-142994761D01*
X190673928Y-142756666D01*
X190673928Y-142566190D01*
X190721547Y-142328095D01*
X190769166Y-142185238D01*
X190816785Y-142090000D01*
X190912023Y-141947142D01*
X190959642Y-141899523D01*
X191340595Y-142661428D02*
X192102500Y-142661428D01*
X191721547Y-143042380D02*
X191721547Y-142280476D01*
X193292976Y-141994761D02*
X192435833Y-143280476D01*
X193626309Y-142661428D02*
X194388214Y-142661428D01*
X196150119Y-143042380D02*
X195578690Y-143042380D01*
X195864404Y-143042380D02*
X195864404Y-142042380D01*
X195769166Y-142185238D01*
X195673928Y-142280476D01*
X195578690Y-142328095D01*
X196769166Y-142042380D02*
X196864404Y-142042380D01*
X196959642Y-142090000D01*
X197007261Y-142137619D01*
X197054880Y-142232857D01*
X197102500Y-142423333D01*
X197102500Y-142661428D01*
X197054880Y-142851904D01*
X197007261Y-142947142D01*
X196959642Y-142994761D01*
X196864404Y-143042380D01*
X196769166Y-143042380D01*
X196673928Y-142994761D01*
X196626309Y-142947142D01*
X196578690Y-142851904D01*
X196531071Y-142661428D01*
X196531071Y-142423333D01*
X196578690Y-142232857D01*
X196626309Y-142137619D01*
X196673928Y-142090000D01*
X196769166Y-142042380D01*
X197483452Y-143042380D02*
X198245357Y-142042380D01*
X197626309Y-142042380D02*
X197721547Y-142090000D01*
X197769166Y-142185238D01*
X197721547Y-142280476D01*
X197626309Y-142328095D01*
X197531071Y-142280476D01*
X197483452Y-142185238D01*
X197531071Y-142090000D01*
X197626309Y-142042380D01*
X198197738Y-142994761D02*
X198245357Y-142899523D01*
X198197738Y-142804285D01*
X198102500Y-142756666D01*
X198007261Y-142804285D01*
X197959642Y-142899523D01*
X198007261Y-142994761D01*
X198102500Y-143042380D01*
X198197738Y-142994761D01*
X198578690Y-143423333D02*
X198626309Y-143375714D01*
X198721547Y-143232857D01*
X198769166Y-143137619D01*
X198816785Y-142994761D01*
X198864404Y-142756666D01*
X198864404Y-142566190D01*
X198816785Y-142328095D01*
X198769166Y-142185238D01*
X198721547Y-142090000D01*
X198626309Y-141947142D01*
X198578690Y-141899523D01*
X180054880Y-143692380D02*
X180626309Y-143692380D01*
X180340595Y-144692380D02*
X180340595Y-143692380D01*
X180959642Y-144597142D02*
X181007261Y-144644761D01*
X180959642Y-144692380D01*
X180912023Y-144644761D01*
X180959642Y-144597142D01*
X180959642Y-144692380D01*
X180959642Y-144073333D02*
X181007261Y-144120952D01*
X180959642Y-144168571D01*
X180912023Y-144120952D01*
X180959642Y-144073333D01*
X180959642Y-144168571D01*
X182388214Y-143692380D02*
X182483452Y-143692380D01*
X182578690Y-143740000D01*
X182626309Y-143787619D01*
X182673928Y-143882857D01*
X182721547Y-144073333D01*
X182721547Y-144311428D01*
X182673928Y-144501904D01*
X182626309Y-144597142D01*
X182578690Y-144644761D01*
X182483452Y-144692380D01*
X182388214Y-144692380D01*
X182292976Y-144644761D01*
X182245357Y-144597142D01*
X182197738Y-144501904D01*
X182150119Y-144311428D01*
X182150119Y-144073333D01*
X182197738Y-143882857D01*
X182245357Y-143787619D01*
X182292976Y-143740000D01*
X182388214Y-143692380D01*
X183150119Y-144597142D02*
X183197738Y-144644761D01*
X183150119Y-144692380D01*
X183102500Y-144644761D01*
X183150119Y-144597142D01*
X183150119Y-144692380D01*
X183816785Y-143692380D02*
X183912023Y-143692380D01*
X184007261Y-143740000D01*
X184054880Y-143787619D01*
X184102500Y-143882857D01*
X184150119Y-144073333D01*
X184150119Y-144311428D01*
X184102500Y-144501904D01*
X184054880Y-144597142D01*
X184007261Y-144644761D01*
X183912023Y-144692380D01*
X183816785Y-144692380D01*
X183721547Y-144644761D01*
X183673928Y-144597142D01*
X183626309Y-144501904D01*
X183578690Y-144311428D01*
X183578690Y-144073333D01*
X183626309Y-143882857D01*
X183673928Y-143787619D01*
X183721547Y-143740000D01*
X183816785Y-143692380D01*
X184483452Y-143692380D02*
X185102500Y-143692380D01*
X184769166Y-144073333D01*
X184912023Y-144073333D01*
X185007261Y-144120952D01*
X185054880Y-144168571D01*
X185102500Y-144263809D01*
X185102500Y-144501904D01*
X185054880Y-144597142D01*
X185007261Y-144644761D01*
X184912023Y-144692380D01*
X184626309Y-144692380D01*
X184531071Y-144644761D01*
X184483452Y-144597142D01*
X186007261Y-143692380D02*
X185531071Y-143692380D01*
X185483452Y-144168571D01*
X185531071Y-144120952D01*
X185626309Y-144073333D01*
X185864404Y-144073333D01*
X185959642Y-144120952D01*
X186007261Y-144168571D01*
X186054880Y-144263809D01*
X186054880Y-144501904D01*
X186007261Y-144597142D01*
X185959642Y-144644761D01*
X185864404Y-144692380D01*
X185626309Y-144692380D01*
X185531071Y-144644761D01*
X185483452Y-144597142D01*
X187245357Y-144692380D02*
X187245357Y-144025714D01*
X187245357Y-144120952D02*
X187292976Y-144073333D01*
X187388214Y-144025714D01*
X187531071Y-144025714D01*
X187626309Y-144073333D01*
X187673928Y-144168571D01*
X187673928Y-144692380D01*
X187673928Y-144168571D02*
X187721547Y-144073333D01*
X187816785Y-144025714D01*
X187959642Y-144025714D01*
X188054880Y-144073333D01*
X188102500Y-144168571D01*
X188102500Y-144692380D01*
X188578690Y-144692380D02*
X188578690Y-144025714D01*
X188578690Y-144120952D02*
X188626309Y-144073333D01*
X188721547Y-144025714D01*
X188864404Y-144025714D01*
X188959642Y-144073333D01*
X189007261Y-144168571D01*
X189007261Y-144692380D01*
X189007261Y-144168571D02*
X189054880Y-144073333D01*
X189150119Y-144025714D01*
X189292976Y-144025714D01*
X189388214Y-144073333D01*
X189435833Y-144168571D01*
X189435833Y-144692380D01*
X190959642Y-145073333D02*
X190912023Y-145025714D01*
X190816785Y-144882857D01*
X190769166Y-144787619D01*
X190721547Y-144644761D01*
X190673928Y-144406666D01*
X190673928Y-144216190D01*
X190721547Y-143978095D01*
X190769166Y-143835238D01*
X190816785Y-143740000D01*
X190912023Y-143597142D01*
X190959642Y-143549523D01*
X191340595Y-144311428D02*
X192102500Y-144311428D01*
X191721547Y-144692380D02*
X191721547Y-143930476D01*
X193292976Y-143644761D02*
X192435833Y-144930476D01*
X193626309Y-144311428D02*
X194388214Y-144311428D01*
X196150119Y-144692380D02*
X195578690Y-144692380D01*
X195864404Y-144692380D02*
X195864404Y-143692380D01*
X195769166Y-143835238D01*
X195673928Y-143930476D01*
X195578690Y-143978095D01*
X196769166Y-143692380D02*
X196864404Y-143692380D01*
X196959642Y-143740000D01*
X197007261Y-143787619D01*
X197054880Y-143882857D01*
X197102500Y-144073333D01*
X197102500Y-144311428D01*
X197054880Y-144501904D01*
X197007261Y-144597142D01*
X196959642Y-144644761D01*
X196864404Y-144692380D01*
X196769166Y-144692380D01*
X196673928Y-144644761D01*
X196626309Y-144597142D01*
X196578690Y-144501904D01*
X196531071Y-144311428D01*
X196531071Y-144073333D01*
X196578690Y-143882857D01*
X196626309Y-143787619D01*
X196673928Y-143740000D01*
X196769166Y-143692380D01*
X197483452Y-144692380D02*
X198245357Y-143692380D01*
X197626309Y-143692380D02*
X197721547Y-143740000D01*
X197769166Y-143835238D01*
X197721547Y-143930476D01*
X197626309Y-143978095D01*
X197531071Y-143930476D01*
X197483452Y-143835238D01*
X197531071Y-143740000D01*
X197626309Y-143692380D01*
X198197738Y-144644761D02*
X198245357Y-144549523D01*
X198197738Y-144454285D01*
X198102500Y-144406666D01*
X198007261Y-144454285D01*
X197959642Y-144549523D01*
X198007261Y-144644761D01*
X198102500Y-144692380D01*
X198197738Y-144644761D01*
X198578690Y-145073333D02*
X198626309Y-145025714D01*
X198721547Y-144882857D01*
X198769166Y-144787619D01*
X198816785Y-144644761D01*
X198864404Y-144406666D01*
X198864404Y-144216190D01*
X198816785Y-143978095D01*
X198769166Y-143835238D01*
X198721547Y-143740000D01*
X198626309Y-143597142D01*
X198578690Y-143549523D01*
X181626309Y-145342380D02*
X181864404Y-146342380D01*
X182054880Y-145628095D01*
X182245357Y-146342380D01*
X182483452Y-145342380D01*
X182864404Y-146247142D02*
X182912023Y-146294761D01*
X182864404Y-146342380D01*
X182816785Y-146294761D01*
X182864404Y-146247142D01*
X182864404Y-146342380D01*
X182864404Y-145723333D02*
X182912023Y-145770952D01*
X182864404Y-145818571D01*
X182816785Y-145770952D01*
X182864404Y-145723333D01*
X182864404Y-145818571D01*
X184292976Y-145342380D02*
X184388214Y-145342380D01*
X184483452Y-145390000D01*
X184531071Y-145437619D01*
X184578690Y-145532857D01*
X184626309Y-145723333D01*
X184626309Y-145961428D01*
X184578690Y-146151904D01*
X184531071Y-146247142D01*
X184483452Y-146294761D01*
X184388214Y-146342380D01*
X184292976Y-146342380D01*
X184197738Y-146294761D01*
X184150119Y-146247142D01*
X184102500Y-146151904D01*
X184054880Y-145961428D01*
X184054880Y-145723333D01*
X184102500Y-145532857D01*
X184150119Y-145437619D01*
X184197738Y-145390000D01*
X184292976Y-145342380D01*
X185054880Y-146247142D02*
X185102500Y-146294761D01*
X185054880Y-146342380D01*
X185007261Y-146294761D01*
X185054880Y-146247142D01*
X185054880Y-146342380D01*
X185483452Y-145437619D02*
X185531071Y-145390000D01*
X185626309Y-145342380D01*
X185864404Y-145342380D01*
X185959642Y-145390000D01*
X186007261Y-145437619D01*
X186054880Y-145532857D01*
X186054880Y-145628095D01*
X186007261Y-145770952D01*
X185435833Y-146342380D01*
X186054880Y-146342380D01*
X187245357Y-146342380D02*
X187245357Y-145675714D01*
X187245357Y-145770952D02*
X187292976Y-145723333D01*
X187388214Y-145675714D01*
X187531071Y-145675714D01*
X187626309Y-145723333D01*
X187673928Y-145818571D01*
X187673928Y-146342380D01*
X187673928Y-145818571D02*
X187721547Y-145723333D01*
X187816785Y-145675714D01*
X187959642Y-145675714D01*
X188054880Y-145723333D01*
X188102500Y-145818571D01*
X188102500Y-146342380D01*
X188578690Y-146342380D02*
X188578690Y-145675714D01*
X188578690Y-145770952D02*
X188626309Y-145723333D01*
X188721547Y-145675714D01*
X188864404Y-145675714D01*
X188959642Y-145723333D01*
X189007261Y-145818571D01*
X189007261Y-146342380D01*
X189007261Y-145818571D02*
X189054880Y-145723333D01*
X189150119Y-145675714D01*
X189292976Y-145675714D01*
X189388214Y-145723333D01*
X189435833Y-145818571D01*
X189435833Y-146342380D01*
X190959642Y-146723333D02*
X190912023Y-146675714D01*
X190816785Y-146532857D01*
X190769166Y-146437619D01*
X190721547Y-146294761D01*
X190673928Y-146056666D01*
X190673928Y-145866190D01*
X190721547Y-145628095D01*
X190769166Y-145485238D01*
X190816785Y-145390000D01*
X190912023Y-145247142D01*
X190959642Y-145199523D01*
X191340595Y-145961428D02*
X192102500Y-145961428D01*
X191721547Y-146342380D02*
X191721547Y-145580476D01*
X193292976Y-145294761D02*
X192435833Y-146580476D01*
X193626309Y-145961428D02*
X194388214Y-145961428D01*
X196150119Y-146342380D02*
X195578690Y-146342380D01*
X195864404Y-146342380D02*
X195864404Y-145342380D01*
X195769166Y-145485238D01*
X195673928Y-145580476D01*
X195578690Y-145628095D01*
X196769166Y-145342380D02*
X196864404Y-145342380D01*
X196959642Y-145390000D01*
X197007261Y-145437619D01*
X197054880Y-145532857D01*
X197102500Y-145723333D01*
X197102500Y-145961428D01*
X197054880Y-146151904D01*
X197007261Y-146247142D01*
X196959642Y-146294761D01*
X196864404Y-146342380D01*
X196769166Y-146342380D01*
X196673928Y-146294761D01*
X196626309Y-146247142D01*
X196578690Y-146151904D01*
X196531071Y-145961428D01*
X196531071Y-145723333D01*
X196578690Y-145532857D01*
X196626309Y-145437619D01*
X196673928Y-145390000D01*
X196769166Y-145342380D01*
X197483452Y-146342380D02*
X198245357Y-145342380D01*
X197626309Y-145342380D02*
X197721547Y-145390000D01*
X197769166Y-145485238D01*
X197721547Y-145580476D01*
X197626309Y-145628095D01*
X197531071Y-145580476D01*
X197483452Y-145485238D01*
X197531071Y-145390000D01*
X197626309Y-145342380D01*
X198197738Y-146294761D02*
X198245357Y-146199523D01*
X198197738Y-146104285D01*
X198102500Y-146056666D01*
X198007261Y-146104285D01*
X197959642Y-146199523D01*
X198007261Y-146294761D01*
X198102500Y-146342380D01*
X198197738Y-146294761D01*
X198578690Y-146723333D02*
X198626309Y-146675714D01*
X198721547Y-146532857D01*
X198769166Y-146437619D01*
X198816785Y-146294761D01*
X198864404Y-146056666D01*
X198864404Y-145866190D01*
X198816785Y-145628095D01*
X198769166Y-145485238D01*
X198721547Y-145390000D01*
X198626309Y-145247142D01*
X198578690Y-145199523D01*
X180912023Y-147944761D02*
X181054880Y-147992380D01*
X181292976Y-147992380D01*
X181388214Y-147944761D01*
X181435833Y-147897142D01*
X181483452Y-147801904D01*
X181483452Y-147706666D01*
X181435833Y-147611428D01*
X181388214Y-147563809D01*
X181292976Y-147516190D01*
X181102500Y-147468571D01*
X181007261Y-147420952D01*
X180959642Y-147373333D01*
X180912023Y-147278095D01*
X180912023Y-147182857D01*
X180959642Y-147087619D01*
X181007261Y-147040000D01*
X181102500Y-146992380D01*
X181340595Y-146992380D01*
X181483452Y-147040000D01*
X181912023Y-147897142D02*
X181959642Y-147944761D01*
X181912023Y-147992380D01*
X181864404Y-147944761D01*
X181912023Y-147897142D01*
X181912023Y-147992380D01*
X181912023Y-147373333D02*
X181959642Y-147420952D01*
X181912023Y-147468571D01*
X181864404Y-147420952D01*
X181912023Y-147373333D01*
X181912023Y-147468571D01*
X183340595Y-146992380D02*
X183435833Y-146992380D01*
X183531071Y-147040000D01*
X183578690Y-147087619D01*
X183626309Y-147182857D01*
X183673928Y-147373333D01*
X183673928Y-147611428D01*
X183626309Y-147801904D01*
X183578690Y-147897142D01*
X183531071Y-147944761D01*
X183435833Y-147992380D01*
X183340595Y-147992380D01*
X183245357Y-147944761D01*
X183197738Y-147897142D01*
X183150119Y-147801904D01*
X183102500Y-147611428D01*
X183102500Y-147373333D01*
X183150119Y-147182857D01*
X183197738Y-147087619D01*
X183245357Y-147040000D01*
X183340595Y-146992380D01*
X184102500Y-147897142D02*
X184150119Y-147944761D01*
X184102500Y-147992380D01*
X184054880Y-147944761D01*
X184102500Y-147897142D01*
X184102500Y-147992380D01*
X185102500Y-147992380D02*
X184531071Y-147992380D01*
X184816785Y-147992380D02*
X184816785Y-146992380D01*
X184721547Y-147135238D01*
X184626309Y-147230476D01*
X184531071Y-147278095D01*
X185959642Y-146992380D02*
X185769166Y-146992380D01*
X185673928Y-147040000D01*
X185626309Y-147087619D01*
X185531071Y-147230476D01*
X185483452Y-147420952D01*
X185483452Y-147801904D01*
X185531071Y-147897142D01*
X185578690Y-147944761D01*
X185673928Y-147992380D01*
X185864404Y-147992380D01*
X185959642Y-147944761D01*
X186007261Y-147897142D01*
X186054880Y-147801904D01*
X186054880Y-147563809D01*
X186007261Y-147468571D01*
X185959642Y-147420952D01*
X185864404Y-147373333D01*
X185673928Y-147373333D01*
X185578690Y-147420952D01*
X185531071Y-147468571D01*
X185483452Y-147563809D01*
X187245357Y-147992380D02*
X187245357Y-147325714D01*
X187245357Y-147420952D02*
X187292976Y-147373333D01*
X187388214Y-147325714D01*
X187531071Y-147325714D01*
X187626309Y-147373333D01*
X187673928Y-147468571D01*
X187673928Y-147992380D01*
X187673928Y-147468571D02*
X187721547Y-147373333D01*
X187816785Y-147325714D01*
X187959642Y-147325714D01*
X188054880Y-147373333D01*
X188102500Y-147468571D01*
X188102500Y-147992380D01*
X188578690Y-147992380D02*
X188578690Y-147325714D01*
X188578690Y-147420952D02*
X188626309Y-147373333D01*
X188721547Y-147325714D01*
X188864404Y-147325714D01*
X188959642Y-147373333D01*
X189007261Y-147468571D01*
X189007261Y-147992380D01*
X189007261Y-147468571D02*
X189054880Y-147373333D01*
X189150119Y-147325714D01*
X189292976Y-147325714D01*
X189388214Y-147373333D01*
X189435833Y-147468571D01*
X189435833Y-147992380D01*
X190959642Y-148373333D02*
X190912023Y-148325714D01*
X190816785Y-148182857D01*
X190769166Y-148087619D01*
X190721547Y-147944761D01*
X190673928Y-147706666D01*
X190673928Y-147516190D01*
X190721547Y-147278095D01*
X190769166Y-147135238D01*
X190816785Y-147040000D01*
X190912023Y-146897142D01*
X190959642Y-146849523D01*
X191340595Y-147611428D02*
X192102500Y-147611428D01*
X191721547Y-147992380D02*
X191721547Y-147230476D01*
X193292976Y-146944761D02*
X192435833Y-148230476D01*
X193626309Y-147611428D02*
X194388214Y-147611428D01*
X196150119Y-147992380D02*
X195578690Y-147992380D01*
X195864404Y-147992380D02*
X195864404Y-146992380D01*
X195769166Y-147135238D01*
X195673928Y-147230476D01*
X195578690Y-147278095D01*
X196769166Y-146992380D02*
X196864404Y-146992380D01*
X196959642Y-147040000D01*
X197007261Y-147087619D01*
X197054880Y-147182857D01*
X197102500Y-147373333D01*
X197102500Y-147611428D01*
X197054880Y-147801904D01*
X197007261Y-147897142D01*
X196959642Y-147944761D01*
X196864404Y-147992380D01*
X196769166Y-147992380D01*
X196673928Y-147944761D01*
X196626309Y-147897142D01*
X196578690Y-147801904D01*
X196531071Y-147611428D01*
X196531071Y-147373333D01*
X196578690Y-147182857D01*
X196626309Y-147087619D01*
X196673928Y-147040000D01*
X196769166Y-146992380D01*
X197483452Y-147992380D02*
X198245357Y-146992380D01*
X197626309Y-146992380D02*
X197721547Y-147040000D01*
X197769166Y-147135238D01*
X197721547Y-147230476D01*
X197626309Y-147278095D01*
X197531071Y-147230476D01*
X197483452Y-147135238D01*
X197531071Y-147040000D01*
X197626309Y-146992380D01*
X198197738Y-147944761D02*
X198245357Y-147849523D01*
X198197738Y-147754285D01*
X198102500Y-147706666D01*
X198007261Y-147754285D01*
X197959642Y-147849523D01*
X198007261Y-147944761D01*
X198102500Y-147992380D01*
X198197738Y-147944761D01*
X198578690Y-148373333D02*
X198626309Y-148325714D01*
X198721547Y-148182857D01*
X198769166Y-148087619D01*
X198816785Y-147944761D01*
X198864404Y-147706666D01*
X198864404Y-147516190D01*
X198816785Y-147278095D01*
X198769166Y-147135238D01*
X198721547Y-147040000D01*
X198626309Y-146897142D01*
X198578690Y-146849523D01*
X193388214Y-149642380D02*
X192912023Y-149642380D01*
X192912023Y-148642380D01*
X193721547Y-149547142D02*
X193769166Y-149594761D01*
X193721547Y-149642380D01*
X193673928Y-149594761D01*
X193721547Y-149547142D01*
X193721547Y-149642380D01*
X193721547Y-149023333D02*
X193769166Y-149070952D01*
X193721547Y-149118571D01*
X193673928Y-149070952D01*
X193721547Y-149023333D01*
X193721547Y-149118571D01*
X194912023Y-148737619D02*
X194959642Y-148690000D01*
X195054880Y-148642380D01*
X195292976Y-148642380D01*
X195388214Y-148690000D01*
X195435833Y-148737619D01*
X195483452Y-148832857D01*
X195483452Y-148928095D01*
X195435833Y-149070952D01*
X194864404Y-149642380D01*
X195483452Y-149642380D01*
X196673928Y-149642380D02*
X196673928Y-148975714D01*
X196673928Y-149070952D02*
X196721547Y-149023333D01*
X196816785Y-148975714D01*
X196959642Y-148975714D01*
X197054880Y-149023333D01*
X197102500Y-149118571D01*
X197102500Y-149642380D01*
X197102500Y-149118571D02*
X197150119Y-149023333D01*
X197245357Y-148975714D01*
X197388214Y-148975714D01*
X197483452Y-149023333D01*
X197531071Y-149118571D01*
X197531071Y-149642380D01*
X198007261Y-149642380D02*
X198007261Y-148975714D01*
X198007261Y-149070952D02*
X198054880Y-149023333D01*
X198150119Y-148975714D01*
X198292976Y-148975714D01*
X198388214Y-149023333D01*
X198435833Y-149118571D01*
X198435833Y-149642380D01*
X198435833Y-149118571D02*
X198483452Y-149023333D01*
X198578690Y-148975714D01*
X198721547Y-148975714D01*
X198816785Y-149023333D01*
X198864404Y-149118571D01*
X198864404Y-149642380D01*
X135816785Y-151673333D02*
X135769166Y-151625714D01*
X135673928Y-151482857D01*
X135626309Y-151387619D01*
X135578690Y-151244761D01*
X135531071Y-151006666D01*
X135531071Y-150816190D01*
X135578690Y-150578095D01*
X135626309Y-150435238D01*
X135673928Y-150340000D01*
X135769166Y-150197142D01*
X135816785Y-150149523D01*
X136150119Y-151244761D02*
X136292976Y-151292380D01*
X136531071Y-151292380D01*
X136626309Y-151244761D01*
X136673928Y-151197142D01*
X136721547Y-151101904D01*
X136721547Y-151006666D01*
X136673928Y-150911428D01*
X136626309Y-150863809D01*
X136531071Y-150816190D01*
X136340595Y-150768571D01*
X136245357Y-150720952D01*
X136197738Y-150673333D01*
X136150119Y-150578095D01*
X136150119Y-150482857D01*
X136197738Y-150387619D01*
X136245357Y-150340000D01*
X136340595Y-150292380D01*
X136578690Y-150292380D01*
X136721547Y-150340000D01*
X137531071Y-151244761D02*
X137435833Y-151292380D01*
X137245357Y-151292380D01*
X137150119Y-151244761D01*
X137102500Y-151149523D01*
X137102500Y-150768571D01*
X137150119Y-150673333D01*
X137245357Y-150625714D01*
X137435833Y-150625714D01*
X137531071Y-150673333D01*
X137578690Y-150768571D01*
X137578690Y-150863809D01*
X137102500Y-150959047D01*
X138388214Y-151244761D02*
X138292976Y-151292380D01*
X138102500Y-151292380D01*
X138007261Y-151244761D01*
X137959642Y-151149523D01*
X137959642Y-150768571D01*
X138007261Y-150673333D01*
X138102500Y-150625714D01*
X138292976Y-150625714D01*
X138388214Y-150673333D01*
X138435833Y-150768571D01*
X138435833Y-150863809D01*
X137959642Y-150959047D01*
X139626309Y-151292380D02*
X139626309Y-150292380D01*
X140054880Y-151292380D02*
X140054880Y-150768571D01*
X140007261Y-150673333D01*
X139912023Y-150625714D01*
X139769166Y-150625714D01*
X139673928Y-150673333D01*
X139626309Y-150720952D01*
X140388214Y-150625714D02*
X140769166Y-150625714D01*
X140531071Y-150292380D02*
X140531071Y-151149523D01*
X140578690Y-151244761D01*
X140673928Y-151292380D01*
X140769166Y-151292380D01*
X140959642Y-150625714D02*
X141340595Y-150625714D01*
X141102500Y-150292380D02*
X141102500Y-151149523D01*
X141150119Y-151244761D01*
X141245357Y-151292380D01*
X141340595Y-151292380D01*
X141673928Y-150625714D02*
X141673928Y-151625714D01*
X141673928Y-150673333D02*
X141769166Y-150625714D01*
X141959642Y-150625714D01*
X142054880Y-150673333D01*
X142102500Y-150720952D01*
X142150119Y-150816190D01*
X142150119Y-151101904D01*
X142102500Y-151197142D01*
X142054880Y-151244761D01*
X141959642Y-151292380D01*
X141769166Y-151292380D01*
X141673928Y-151244761D01*
X142531071Y-151244761D02*
X142626309Y-151292380D01*
X142816785Y-151292380D01*
X142912023Y-151244761D01*
X142959642Y-151149523D01*
X142959642Y-151101904D01*
X142912023Y-151006666D01*
X142816785Y-150959047D01*
X142673928Y-150959047D01*
X142578690Y-150911428D01*
X142531071Y-150816190D01*
X142531071Y-150768571D01*
X142578690Y-150673333D01*
X142673928Y-150625714D01*
X142816785Y-150625714D01*
X142912023Y-150673333D01*
X143388214Y-151197142D02*
X143435833Y-151244761D01*
X143388214Y-151292380D01*
X143340595Y-151244761D01*
X143388214Y-151197142D01*
X143388214Y-151292380D01*
X143388214Y-150673333D02*
X143435833Y-150720952D01*
X143388214Y-150768571D01*
X143340595Y-150720952D01*
X143388214Y-150673333D01*
X143388214Y-150768571D01*
X144578690Y-150244761D02*
X143721547Y-151530476D01*
X145626309Y-150244761D02*
X144769166Y-151530476D01*
X145864404Y-150625714D02*
X146054880Y-151292380D01*
X146245357Y-150816190D01*
X146435833Y-151292380D01*
X146626309Y-150625714D01*
X146912023Y-150625714D02*
X147102500Y-151292380D01*
X147292976Y-150816190D01*
X147483452Y-151292380D01*
X147673928Y-150625714D01*
X147959642Y-150625714D02*
X148150119Y-151292380D01*
X148340595Y-150816190D01*
X148531071Y-151292380D01*
X148721547Y-150625714D01*
X149102500Y-151197142D02*
X149150119Y-151244761D01*
X149102500Y-151292380D01*
X149054880Y-151244761D01*
X149102500Y-151197142D01*
X149102500Y-151292380D01*
X149578690Y-150625714D02*
X149578690Y-151625714D01*
X149578690Y-150673333D02*
X149673928Y-150625714D01*
X149864404Y-150625714D01*
X149959642Y-150673333D01*
X150007261Y-150720952D01*
X150054880Y-150816190D01*
X150054880Y-151101904D01*
X150007261Y-151197142D01*
X149959642Y-151244761D01*
X149864404Y-151292380D01*
X149673928Y-151292380D01*
X149578690Y-151244761D01*
X150912023Y-151244761D02*
X150816785Y-151292380D01*
X150626309Y-151292380D01*
X150531071Y-151244761D01*
X150483452Y-151197142D01*
X150435833Y-151101904D01*
X150435833Y-150816190D01*
X150483452Y-150720952D01*
X150531071Y-150673333D01*
X150626309Y-150625714D01*
X150816785Y-150625714D01*
X150912023Y-150673333D01*
X151340595Y-151292380D02*
X151340595Y-150292380D01*
X151340595Y-150673333D02*
X151435833Y-150625714D01*
X151626309Y-150625714D01*
X151721547Y-150673333D01*
X151769166Y-150720952D01*
X151816785Y-150816190D01*
X151816785Y-151101904D01*
X151769166Y-151197142D01*
X151721547Y-151244761D01*
X151626309Y-151292380D01*
X151435833Y-151292380D01*
X151340595Y-151244761D01*
X152150119Y-150625714D02*
X152340595Y-151292380D01*
X152531071Y-150816190D01*
X152721547Y-151292380D01*
X152912023Y-150625714D01*
X153721547Y-151292380D02*
X153721547Y-150768571D01*
X153673928Y-150673333D01*
X153578690Y-150625714D01*
X153388214Y-150625714D01*
X153292976Y-150673333D01*
X153721547Y-151244761D02*
X153626309Y-151292380D01*
X153388214Y-151292380D01*
X153292976Y-151244761D01*
X153245357Y-151149523D01*
X153245357Y-151054285D01*
X153292976Y-150959047D01*
X153388214Y-150911428D01*
X153626309Y-150911428D01*
X153721547Y-150863809D01*
X154102500Y-150625714D02*
X154340595Y-151292380D01*
X154578690Y-150625714D02*
X154340595Y-151292380D01*
X154245357Y-151530476D01*
X154197738Y-151578095D01*
X154102500Y-151625714D01*
X154959642Y-151197142D02*
X155007261Y-151244761D01*
X154959642Y-151292380D01*
X154912023Y-151244761D01*
X154959642Y-151197142D01*
X154959642Y-151292380D01*
X155864404Y-151244761D02*
X155769166Y-151292380D01*
X155578690Y-151292380D01*
X155483452Y-151244761D01*
X155435833Y-151197142D01*
X155388214Y-151101904D01*
X155388214Y-150816190D01*
X155435833Y-150720952D01*
X155483452Y-150673333D01*
X155578690Y-150625714D01*
X155769166Y-150625714D01*
X155864404Y-150673333D01*
X156435833Y-151292380D02*
X156340595Y-151244761D01*
X156292976Y-151197142D01*
X156245357Y-151101904D01*
X156245357Y-150816190D01*
X156292976Y-150720952D01*
X156340595Y-150673333D01*
X156435833Y-150625714D01*
X156578690Y-150625714D01*
X156673928Y-150673333D01*
X156721547Y-150720952D01*
X156769166Y-150816190D01*
X156769166Y-151101904D01*
X156721547Y-151197142D01*
X156673928Y-151244761D01*
X156578690Y-151292380D01*
X156435833Y-151292380D01*
X157197738Y-151292380D02*
X157197738Y-150625714D01*
X157197738Y-150720952D02*
X157245357Y-150673333D01*
X157340595Y-150625714D01*
X157483452Y-150625714D01*
X157578690Y-150673333D01*
X157626309Y-150768571D01*
X157626309Y-151292380D01*
X157626309Y-150768571D02*
X157673928Y-150673333D01*
X157769166Y-150625714D01*
X157912023Y-150625714D01*
X158007261Y-150673333D01*
X158054880Y-150768571D01*
X158054880Y-151292380D01*
X159245357Y-150244761D02*
X158388214Y-151530476D01*
X159578690Y-151292380D02*
X159578690Y-150292380D01*
X159578690Y-150673333D02*
X159673928Y-150625714D01*
X159864404Y-150625714D01*
X159959642Y-150673333D01*
X160007261Y-150720952D01*
X160054880Y-150816190D01*
X160054880Y-151101904D01*
X160007261Y-151197142D01*
X159959642Y-151244761D01*
X159864404Y-151292380D01*
X159673928Y-151292380D01*
X159578690Y-151244761D01*
X160626309Y-151292380D02*
X160531071Y-151244761D01*
X160483452Y-151149523D01*
X160483452Y-150292380D01*
X161150119Y-151292380D02*
X161054880Y-151244761D01*
X161007261Y-151197142D01*
X160959642Y-151101904D01*
X160959642Y-150816190D01*
X161007261Y-150720952D01*
X161054880Y-150673333D01*
X161150119Y-150625714D01*
X161292976Y-150625714D01*
X161388214Y-150673333D01*
X161435833Y-150720952D01*
X161483452Y-150816190D01*
X161483452Y-151101904D01*
X161435833Y-151197142D01*
X161388214Y-151244761D01*
X161292976Y-151292380D01*
X161150119Y-151292380D01*
X162340595Y-150625714D02*
X162340595Y-151435238D01*
X162292976Y-151530476D01*
X162245357Y-151578095D01*
X162150119Y-151625714D01*
X162007261Y-151625714D01*
X161912023Y-151578095D01*
X162340595Y-151244761D02*
X162245357Y-151292380D01*
X162054880Y-151292380D01*
X161959642Y-151244761D01*
X161912023Y-151197142D01*
X161864404Y-151101904D01*
X161864404Y-150816190D01*
X161912023Y-150720952D01*
X161959642Y-150673333D01*
X162054880Y-150625714D01*
X162245357Y-150625714D01*
X162340595Y-150673333D01*
X163531071Y-150244761D02*
X162673928Y-151530476D01*
X163864404Y-150768571D02*
X164197738Y-150768571D01*
X164340595Y-151292380D02*
X163864404Y-151292380D01*
X163864404Y-150292380D01*
X164340595Y-150292380D01*
X164769166Y-150625714D02*
X164769166Y-151292380D01*
X164769166Y-150720952D02*
X164816785Y-150673333D01*
X164912023Y-150625714D01*
X165054880Y-150625714D01*
X165150119Y-150673333D01*
X165197738Y-150768571D01*
X165197738Y-151292380D01*
X166102500Y-150625714D02*
X166102500Y-151435238D01*
X166054880Y-151530476D01*
X166007261Y-151578095D01*
X165912023Y-151625714D01*
X165769166Y-151625714D01*
X165673928Y-151578095D01*
X166102500Y-151244761D02*
X166007261Y-151292380D01*
X165816785Y-151292380D01*
X165721547Y-151244761D01*
X165673928Y-151197142D01*
X165626309Y-151101904D01*
X165626309Y-150816190D01*
X165673928Y-150720952D01*
X165721547Y-150673333D01*
X165816785Y-150625714D01*
X166007261Y-150625714D01*
X166102500Y-150673333D01*
X166578690Y-151292380D02*
X166578690Y-150625714D01*
X166578690Y-150292380D02*
X166531071Y-150340000D01*
X166578690Y-150387619D01*
X166626309Y-150340000D01*
X166578690Y-150292380D01*
X166578690Y-150387619D01*
X167054880Y-150625714D02*
X167054880Y-151292380D01*
X167054880Y-150720952D02*
X167102500Y-150673333D01*
X167197738Y-150625714D01*
X167340595Y-150625714D01*
X167435833Y-150673333D01*
X167483452Y-150768571D01*
X167483452Y-151292380D01*
X168340595Y-151244761D02*
X168245357Y-151292380D01*
X168054880Y-151292380D01*
X167959642Y-151244761D01*
X167912023Y-151149523D01*
X167912023Y-150768571D01*
X167959642Y-150673333D01*
X168054880Y-150625714D01*
X168245357Y-150625714D01*
X168340595Y-150673333D01*
X168388214Y-150768571D01*
X168388214Y-150863809D01*
X167912023Y-150959047D01*
X169197738Y-151244761D02*
X169102500Y-151292380D01*
X168912023Y-151292380D01*
X168816785Y-151244761D01*
X168769166Y-151149523D01*
X168769166Y-150768571D01*
X168816785Y-150673333D01*
X168912023Y-150625714D01*
X169102500Y-150625714D01*
X169197738Y-150673333D01*
X169245357Y-150768571D01*
X169245357Y-150863809D01*
X168769166Y-150959047D01*
X169673928Y-151292380D02*
X169673928Y-150625714D01*
X169673928Y-150816190D02*
X169721547Y-150720952D01*
X169769166Y-150673333D01*
X169864404Y-150625714D01*
X169959642Y-150625714D01*
X170292976Y-151292380D02*
X170292976Y-150625714D01*
X170292976Y-150292380D02*
X170245357Y-150340000D01*
X170292976Y-150387619D01*
X170340595Y-150340000D01*
X170292976Y-150292380D01*
X170292976Y-150387619D01*
X170769166Y-150625714D02*
X170769166Y-151292380D01*
X170769166Y-150720952D02*
X170816785Y-150673333D01*
X170912023Y-150625714D01*
X171054880Y-150625714D01*
X171150119Y-150673333D01*
X171197738Y-150768571D01*
X171197738Y-151292380D01*
X172102500Y-150625714D02*
X172102500Y-151435238D01*
X172054880Y-151530476D01*
X172007261Y-151578095D01*
X171912023Y-151625714D01*
X171769166Y-151625714D01*
X171673928Y-151578095D01*
X172102500Y-151244761D02*
X172007261Y-151292380D01*
X171816785Y-151292380D01*
X171721547Y-151244761D01*
X171673928Y-151197142D01*
X171626309Y-151101904D01*
X171626309Y-150816190D01*
X171673928Y-150720952D01*
X171721547Y-150673333D01*
X171816785Y-150625714D01*
X172007261Y-150625714D01*
X172102500Y-150673333D01*
X172340595Y-151387619D02*
X173102500Y-151387619D01*
X173197738Y-150292380D02*
X173769166Y-150292380D01*
X173483452Y-151292380D02*
X173483452Y-150292380D01*
X174483452Y-151244761D02*
X174388214Y-151292380D01*
X174197738Y-151292380D01*
X174102500Y-151244761D01*
X174054880Y-151149523D01*
X174054880Y-150768571D01*
X174102500Y-150673333D01*
X174197738Y-150625714D01*
X174388214Y-150625714D01*
X174483452Y-150673333D01*
X174531071Y-150768571D01*
X174531071Y-150863809D01*
X174054880Y-150959047D01*
X175388214Y-151244761D02*
X175292976Y-151292380D01*
X175102500Y-151292380D01*
X175007261Y-151244761D01*
X174959642Y-151197142D01*
X174912023Y-151101904D01*
X174912023Y-150816190D01*
X174959642Y-150720952D01*
X175007261Y-150673333D01*
X175102500Y-150625714D01*
X175292976Y-150625714D01*
X175388214Y-150673333D01*
X175816785Y-151292380D02*
X175816785Y-150292380D01*
X176245357Y-151292380D02*
X176245357Y-150768571D01*
X176197738Y-150673333D01*
X176102500Y-150625714D01*
X175959642Y-150625714D01*
X175864404Y-150673333D01*
X175816785Y-150720952D01*
X176721547Y-150625714D02*
X176721547Y-151292380D01*
X176721547Y-150720952D02*
X176769166Y-150673333D01*
X176864404Y-150625714D01*
X177007261Y-150625714D01*
X177102500Y-150673333D01*
X177150119Y-150768571D01*
X177150119Y-151292380D01*
X177626309Y-151292380D02*
X177626309Y-150625714D01*
X177626309Y-150292380D02*
X177578690Y-150340000D01*
X177626309Y-150387619D01*
X177673928Y-150340000D01*
X177626309Y-150292380D01*
X177626309Y-150387619D01*
X178531071Y-151244761D02*
X178435833Y-151292380D01*
X178245357Y-151292380D01*
X178150119Y-151244761D01*
X178102500Y-151197142D01*
X178054880Y-151101904D01*
X178054880Y-150816190D01*
X178102500Y-150720952D01*
X178150119Y-150673333D01*
X178245357Y-150625714D01*
X178435833Y-150625714D01*
X178531071Y-150673333D01*
X179388214Y-151292380D02*
X179388214Y-150768571D01*
X179340595Y-150673333D01*
X179245357Y-150625714D01*
X179054880Y-150625714D01*
X178959642Y-150673333D01*
X179388214Y-151244761D02*
X179292976Y-151292380D01*
X179054880Y-151292380D01*
X178959642Y-151244761D01*
X178912023Y-151149523D01*
X178912023Y-151054285D01*
X178959642Y-150959047D01*
X179054880Y-150911428D01*
X179292976Y-150911428D01*
X179388214Y-150863809D01*
X180007261Y-151292380D02*
X179912023Y-151244761D01*
X179864404Y-151149523D01*
X179864404Y-150292380D01*
X181102500Y-150244761D02*
X180245357Y-151530476D01*
X181388214Y-151244761D02*
X181483452Y-151292380D01*
X181673928Y-151292380D01*
X181769166Y-151244761D01*
X181816785Y-151149523D01*
X181816785Y-151101904D01*
X181769166Y-151006666D01*
X181673928Y-150959047D01*
X181531071Y-150959047D01*
X181435833Y-150911428D01*
X181388214Y-150816190D01*
X181388214Y-150768571D01*
X181435833Y-150673333D01*
X181531071Y-150625714D01*
X181673928Y-150625714D01*
X181769166Y-150673333D01*
X182102500Y-150625714D02*
X182483452Y-150625714D01*
X182245357Y-150292380D02*
X182245357Y-151149523D01*
X182292976Y-151244761D01*
X182388214Y-151292380D01*
X182483452Y-151292380D01*
X183245357Y-151292380D02*
X183245357Y-150768571D01*
X183197738Y-150673333D01*
X183102500Y-150625714D01*
X182912023Y-150625714D01*
X182816785Y-150673333D01*
X183245357Y-151244761D02*
X183150119Y-151292380D01*
X182912023Y-151292380D01*
X182816785Y-151244761D01*
X182769166Y-151149523D01*
X182769166Y-151054285D01*
X182816785Y-150959047D01*
X182912023Y-150911428D01*
X183150119Y-150911428D01*
X183245357Y-150863809D01*
X184150119Y-151244761D02*
X184054880Y-151292380D01*
X183864404Y-151292380D01*
X183769166Y-151244761D01*
X183721547Y-151197142D01*
X183673928Y-151101904D01*
X183673928Y-150816190D01*
X183721547Y-150720952D01*
X183769166Y-150673333D01*
X183864404Y-150625714D01*
X184054880Y-150625714D01*
X184150119Y-150673333D01*
X184578690Y-151292380D02*
X184578690Y-150292380D01*
X184673928Y-150911428D02*
X184959642Y-151292380D01*
X184959642Y-150625714D02*
X184578690Y-151006666D01*
X185816785Y-150625714D02*
X185816785Y-151292380D01*
X185388214Y-150625714D02*
X185388214Y-151149523D01*
X185435833Y-151244761D01*
X185531071Y-151292380D01*
X185673928Y-151292380D01*
X185769166Y-151244761D01*
X185816785Y-151197142D01*
X186292976Y-150625714D02*
X186292976Y-151625714D01*
X186292976Y-150673333D02*
X186388214Y-150625714D01*
X186578690Y-150625714D01*
X186673928Y-150673333D01*
X186721547Y-150720952D01*
X186769166Y-150816190D01*
X186769166Y-151101904D01*
X186721547Y-151197142D01*
X186673928Y-151244761D01*
X186578690Y-151292380D01*
X186388214Y-151292380D01*
X186292976Y-151244761D01*
X186959642Y-151387619D02*
X187721547Y-151387619D01*
X187721547Y-151387619D02*
X188483452Y-151387619D01*
X188483452Y-151387619D02*
X189245357Y-151387619D01*
X189483452Y-150625714D02*
X189483452Y-151625714D01*
X189483452Y-150673333D02*
X189578690Y-150625714D01*
X189769166Y-150625714D01*
X189864404Y-150673333D01*
X189912023Y-150720952D01*
X189959642Y-150816190D01*
X189959642Y-151101904D01*
X189912023Y-151197142D01*
X189864404Y-151244761D01*
X189769166Y-151292380D01*
X189578690Y-151292380D01*
X189483452Y-151244761D01*
X190816785Y-151244761D02*
X190721547Y-151292380D01*
X190531071Y-151292380D01*
X190435833Y-151244761D01*
X190388214Y-151197142D01*
X190340595Y-151101904D01*
X190340595Y-150816190D01*
X190388214Y-150720952D01*
X190435833Y-150673333D01*
X190531071Y-150625714D01*
X190721547Y-150625714D01*
X190816785Y-150673333D01*
X191245357Y-151292380D02*
X191245357Y-150292380D01*
X191245357Y-150673333D02*
X191340595Y-150625714D01*
X191531071Y-150625714D01*
X191626309Y-150673333D01*
X191673928Y-150720952D01*
X191721547Y-150816190D01*
X191721547Y-151101904D01*
X191673928Y-151197142D01*
X191626309Y-151244761D01*
X191531071Y-151292380D01*
X191340595Y-151292380D01*
X191245357Y-151244761D01*
X192054880Y-150625714D02*
X192245357Y-151292380D01*
X192435833Y-150816190D01*
X192626309Y-151292380D01*
X192816785Y-150625714D01*
X193626309Y-151292380D02*
X193626309Y-150768571D01*
X193578690Y-150673333D01*
X193483452Y-150625714D01*
X193292976Y-150625714D01*
X193197738Y-150673333D01*
X193626309Y-151244761D02*
X193531071Y-151292380D01*
X193292976Y-151292380D01*
X193197738Y-151244761D01*
X193150119Y-151149523D01*
X193150119Y-151054285D01*
X193197738Y-150959047D01*
X193292976Y-150911428D01*
X193531071Y-150911428D01*
X193626309Y-150863809D01*
X194007261Y-150625714D02*
X194245357Y-151292380D01*
X194483452Y-150625714D02*
X194245357Y-151292380D01*
X194150119Y-151530476D01*
X194102500Y-151578095D01*
X194007261Y-151625714D01*
X194864404Y-151197142D02*
X194912023Y-151244761D01*
X194864404Y-151292380D01*
X194816785Y-151244761D01*
X194864404Y-151197142D01*
X194864404Y-151292380D01*
X195340595Y-151292380D02*
X195340595Y-150292380D01*
X195769166Y-151292380D02*
X195769166Y-150768571D01*
X195721547Y-150673333D01*
X195626309Y-150625714D01*
X195483452Y-150625714D01*
X195388214Y-150673333D01*
X195340595Y-150720952D01*
X196102500Y-150625714D02*
X196483452Y-150625714D01*
X196245357Y-150292380D02*
X196245357Y-151149523D01*
X196292976Y-151244761D01*
X196388214Y-151292380D01*
X196483452Y-151292380D01*
X196816785Y-151292380D02*
X196816785Y-150625714D01*
X196816785Y-150720952D02*
X196864404Y-150673333D01*
X196959642Y-150625714D01*
X197102500Y-150625714D01*
X197197738Y-150673333D01*
X197245357Y-150768571D01*
X197245357Y-151292380D01*
X197245357Y-150768571D02*
X197292976Y-150673333D01*
X197388214Y-150625714D01*
X197531071Y-150625714D01*
X197626309Y-150673333D01*
X197673928Y-150768571D01*
X197673928Y-151292380D01*
X198292976Y-151292380D02*
X198197738Y-151244761D01*
X198150119Y-151149523D01*
X198150119Y-150292380D01*
X198578690Y-151673333D02*
X198626309Y-151625714D01*
X198721547Y-151482857D01*
X198769166Y-151387619D01*
X198816785Y-151244761D01*
X198864404Y-151006666D01*
X198864404Y-150816190D01*
X198816785Y-150578095D01*
X198769166Y-150435238D01*
X198721547Y-150340000D01*
X198626309Y-150197142D01*
X198578690Y-150149523D01*
X226166666Y-140327380D02*
X226166666Y-139327380D01*
X226738095Y-140327380D02*
X226309523Y-139755952D01*
X226738095Y-139327380D02*
X226166666Y-139898809D01*
X227547619Y-140279761D02*
X227452380Y-140327380D01*
X227261904Y-140327380D01*
X227166666Y-140279761D01*
X227119047Y-140184523D01*
X227119047Y-139803571D01*
X227166666Y-139708333D01*
X227261904Y-139660714D01*
X227452380Y-139660714D01*
X227547619Y-139708333D01*
X227595238Y-139803571D01*
X227595238Y-139898809D01*
X227119047Y-139994047D01*
X228404761Y-140279761D02*
X228309523Y-140327380D01*
X228119047Y-140327380D01*
X228023809Y-140279761D01*
X227976190Y-140184523D01*
X227976190Y-139803571D01*
X228023809Y-139708333D01*
X228119047Y-139660714D01*
X228309523Y-139660714D01*
X228404761Y-139708333D01*
X228452380Y-139803571D01*
X228452380Y-139898809D01*
X227976190Y-139994047D01*
X228880952Y-139660714D02*
X228880952Y-140660714D01*
X228880952Y-139708333D02*
X228976190Y-139660714D01*
X229166666Y-139660714D01*
X229261904Y-139708333D01*
X229309523Y-139755952D01*
X229357142Y-139851190D01*
X229357142Y-140136904D01*
X229309523Y-140232142D01*
X229261904Y-140279761D01*
X229166666Y-140327380D01*
X228976190Y-140327380D01*
X228880952Y-140279761D01*
X229976190Y-139327380D02*
X230166666Y-139327380D01*
X230261904Y-139375000D01*
X230357142Y-139470238D01*
X230404761Y-139660714D01*
X230404761Y-139994047D01*
X230357142Y-140184523D01*
X230261904Y-140279761D01*
X230166666Y-140327380D01*
X229976190Y-140327380D01*
X229880952Y-140279761D01*
X229785714Y-140184523D01*
X229738095Y-139994047D01*
X229738095Y-139660714D01*
X229785714Y-139470238D01*
X229880952Y-139375000D01*
X229976190Y-139327380D01*
X231261904Y-139660714D02*
X231261904Y-140327380D01*
X230833333Y-139660714D02*
X230833333Y-140184523D01*
X230880952Y-140279761D01*
X230976190Y-140327380D01*
X231119047Y-140327380D01*
X231214285Y-140279761D01*
X231261904Y-140232142D01*
X231595238Y-139660714D02*
X231976190Y-139660714D01*
X231738095Y-139327380D02*
X231738095Y-140184523D01*
X231785714Y-140279761D01*
X231880952Y-140327380D01*
X231976190Y-140327380D01*
X226452380Y-141929761D02*
X226595238Y-141977380D01*
X226833333Y-141977380D01*
X226928571Y-141929761D01*
X226976190Y-141882142D01*
X227023809Y-141786904D01*
X227023809Y-141691666D01*
X226976190Y-141596428D01*
X226928571Y-141548809D01*
X226833333Y-141501190D01*
X226642857Y-141453571D01*
X226547619Y-141405952D01*
X226500000Y-141358333D01*
X226452380Y-141263095D01*
X226452380Y-141167857D01*
X226500000Y-141072619D01*
X226547619Y-141025000D01*
X226642857Y-140977380D01*
X226880952Y-140977380D01*
X227023809Y-141025000D01*
X227452380Y-141977380D02*
X227452380Y-141310714D01*
X227452380Y-140977380D02*
X227404761Y-141025000D01*
X227452380Y-141072619D01*
X227500000Y-141025000D01*
X227452380Y-140977380D01*
X227452380Y-141072619D01*
X228357142Y-141310714D02*
X228357142Y-142120238D01*
X228309523Y-142215476D01*
X228261904Y-142263095D01*
X228166666Y-142310714D01*
X228023809Y-142310714D01*
X227928571Y-142263095D01*
X228357142Y-141929761D02*
X228261904Y-141977380D01*
X228071428Y-141977380D01*
X227976190Y-141929761D01*
X227928571Y-141882142D01*
X227880952Y-141786904D01*
X227880952Y-141501190D01*
X227928571Y-141405952D01*
X227976190Y-141358333D01*
X228071428Y-141310714D01*
X228261904Y-141310714D01*
X228357142Y-141358333D01*
X228833333Y-141310714D02*
X228833333Y-141977380D01*
X228833333Y-141405952D02*
X228880952Y-141358333D01*
X228976190Y-141310714D01*
X229119047Y-141310714D01*
X229214285Y-141358333D01*
X229261904Y-141453571D01*
X229261904Y-141977380D01*
X230166666Y-141977380D02*
X230166666Y-141453571D01*
X230119047Y-141358333D01*
X230023809Y-141310714D01*
X229833333Y-141310714D01*
X229738095Y-141358333D01*
X230166666Y-141929761D02*
X230071428Y-141977380D01*
X229833333Y-141977380D01*
X229738095Y-141929761D01*
X229690476Y-141834523D01*
X229690476Y-141739285D01*
X229738095Y-141644047D01*
X229833333Y-141596428D01*
X230071428Y-141596428D01*
X230166666Y-141548809D01*
X230785714Y-141977380D02*
X230690476Y-141929761D01*
X230642857Y-141834523D01*
X230642857Y-140977380D01*
X231119047Y-141929761D02*
X231214285Y-141977380D01*
X231404761Y-141977380D01*
X231500000Y-141929761D01*
X231547619Y-141834523D01*
X231547619Y-141786904D01*
X231500000Y-141691666D01*
X231404761Y-141644047D01*
X231261904Y-141644047D01*
X231166666Y-141596428D01*
X231119047Y-141501190D01*
X231119047Y-141453571D01*
X231166666Y-141358333D01*
X231261904Y-141310714D01*
X231404761Y-141310714D01*
X231500000Y-141358333D01*
X212350000Y-147180000D02*
X213160000Y-147100000D01*
X212640000Y-146430000D02*
X212350000Y-147180000D01*
X213200000Y-147070000D02*
X212640000Y-146430000D01*
X200480000Y-142310000D02*
X213200000Y-147070000D01*
X200510000Y-150780000D02*
X200510000Y-133700000D01*
D11*
X259240150Y-149960448D02*
X259002055Y-150127115D01*
X259240150Y-150246162D02*
X258740150Y-150246162D01*
X258740150Y-150055686D01*
X258763960Y-150008067D01*
X258787769Y-149984258D01*
X258835388Y-149960448D01*
X258906817Y-149960448D01*
X258954436Y-149984258D01*
X258978245Y-150008067D01*
X259002055Y-150055686D01*
X259002055Y-150246162D01*
X258787769Y-149769972D02*
X258763960Y-149746162D01*
X258740150Y-149698543D01*
X258740150Y-149579496D01*
X258763960Y-149531877D01*
X258787769Y-149508067D01*
X258835388Y-149484258D01*
X258883007Y-149484258D01*
X258954436Y-149508067D01*
X259240150Y-149793781D01*
X259240150Y-149484258D01*
X258740150Y-149174734D02*
X258740150Y-149127115D01*
X258763960Y-149079496D01*
X258787769Y-149055686D01*
X258835388Y-149031877D01*
X258930626Y-149008067D01*
X259049674Y-149008067D01*
X259144912Y-149031877D01*
X259192531Y-149055686D01*
X259216340Y-149079496D01*
X259240150Y-149127115D01*
X259240150Y-149174734D01*
X259216340Y-149222353D01*
X259192531Y-149246162D01*
X259144912Y-149269972D01*
X259049674Y-149293781D01*
X258930626Y-149293781D01*
X258835388Y-149269972D01*
X258787769Y-149246162D01*
X258763960Y-149222353D01*
X258740150Y-149174734D01*
X259232530Y-151568268D02*
X258994435Y-151734935D01*
X259232530Y-151853982D02*
X258732530Y-151853982D01*
X258732530Y-151663506D01*
X258756340Y-151615887D01*
X258780149Y-151592078D01*
X258827768Y-151568268D01*
X258899197Y-151568268D01*
X258946816Y-151592078D01*
X258970625Y-151615887D01*
X258994435Y-151663506D01*
X258994435Y-151853982D01*
X259232530Y-151092078D02*
X259232530Y-151377792D01*
X259232530Y-151234935D02*
X258732530Y-151234935D01*
X258803959Y-151282554D01*
X258851578Y-151330173D01*
X258875387Y-151377792D01*
X259232530Y-150853982D02*
X259232530Y-150758744D01*
X259208720Y-150711125D01*
X259184911Y-150687316D01*
X259113482Y-150639697D01*
X259018244Y-150615887D01*
X258827768Y-150615887D01*
X258780149Y-150639697D01*
X258756340Y-150663506D01*
X258732530Y-150711125D01*
X258732530Y-150806363D01*
X258756340Y-150853982D01*
X258780149Y-150877792D01*
X258827768Y-150901601D01*
X258946816Y-150901601D01*
X258994435Y-150877792D01*
X259018244Y-150853982D01*
X259042054Y-150806363D01*
X259042054Y-150711125D01*
X259018244Y-150663506D01*
X258994435Y-150639697D01*
X258946816Y-150615887D01*
X255844087Y-147974500D02*
X255915516Y-147998310D01*
X256034563Y-147998310D01*
X256082182Y-147974500D01*
X256105992Y-147950691D01*
X256129801Y-147903072D01*
X256129801Y-147855453D01*
X256105992Y-147807834D01*
X256082182Y-147784024D01*
X256034563Y-147760215D01*
X255939325Y-147736405D01*
X255891706Y-147712596D01*
X255867897Y-147688786D01*
X255844087Y-147641167D01*
X255844087Y-147593548D01*
X255867897Y-147545929D01*
X255891706Y-147522120D01*
X255939325Y-147498310D01*
X256058373Y-147498310D01*
X256129801Y-147522120D01*
X256320278Y-147545929D02*
X256344087Y-147522120D01*
X256391706Y-147498310D01*
X256510754Y-147498310D01*
X256558373Y-147522120D01*
X256582182Y-147545929D01*
X256605992Y-147593548D01*
X256605992Y-147641167D01*
X256582182Y-147712596D01*
X256296468Y-147998310D01*
X256605992Y-147998310D01*
X255767887Y-139150540D02*
X255839316Y-139174350D01*
X255958363Y-139174350D01*
X256005982Y-139150540D01*
X256029792Y-139126731D01*
X256053601Y-139079112D01*
X256053601Y-139031493D01*
X256029792Y-138983874D01*
X256005982Y-138960064D01*
X255958363Y-138936255D01*
X255863125Y-138912445D01*
X255815506Y-138888636D01*
X255791697Y-138864826D01*
X255767887Y-138817207D01*
X255767887Y-138769588D01*
X255791697Y-138721969D01*
X255815506Y-138698160D01*
X255863125Y-138674350D01*
X255982173Y-138674350D01*
X256053601Y-138698160D01*
X256529792Y-139174350D02*
X256244078Y-139174350D01*
X256386935Y-139174350D02*
X256386935Y-138674350D01*
X256339316Y-138745779D01*
X256291697Y-138793398D01*
X256244078Y-138817207D01*
X245416666Y-142026190D02*
X245250000Y-141788095D01*
X245130952Y-142026190D02*
X245130952Y-141526190D01*
X245321428Y-141526190D01*
X245369047Y-141550000D01*
X245392857Y-141573809D01*
X245416666Y-141621428D01*
X245416666Y-141692857D01*
X245392857Y-141740476D01*
X245369047Y-141764285D01*
X245321428Y-141788095D01*
X245130952Y-141788095D01*
X245702380Y-141740476D02*
X245654761Y-141716666D01*
X245630952Y-141692857D01*
X245607142Y-141645238D01*
X245607142Y-141621428D01*
X245630952Y-141573809D01*
X245654761Y-141550000D01*
X245702380Y-141526190D01*
X245797619Y-141526190D01*
X245845238Y-141550000D01*
X245869047Y-141573809D01*
X245892857Y-141621428D01*
X245892857Y-141645238D01*
X245869047Y-141692857D01*
X245845238Y-141716666D01*
X245797619Y-141740476D01*
X245702380Y-141740476D01*
X245654761Y-141764285D01*
X245630952Y-141788095D01*
X245607142Y-141835714D01*
X245607142Y-141930952D01*
X245630952Y-141978571D01*
X245654761Y-142002380D01*
X245702380Y-142026190D01*
X245797619Y-142026190D01*
X245845238Y-142002380D01*
X245869047Y-141978571D01*
X245892857Y-141930952D01*
X245892857Y-141835714D01*
X245869047Y-141788095D01*
X245845238Y-141764285D01*
X245797619Y-141740476D01*
X248079047Y-148446190D02*
X248079047Y-148850952D01*
X248102857Y-148898571D01*
X248126666Y-148922380D01*
X248174285Y-148946190D01*
X248269523Y-148946190D01*
X248317142Y-148922380D01*
X248340952Y-148898571D01*
X248364761Y-148850952D01*
X248364761Y-148446190D01*
X248864761Y-148946190D02*
X248579047Y-148946190D01*
X248721904Y-148946190D02*
X248721904Y-148446190D01*
X248674285Y-148517619D01*
X248626666Y-148565238D01*
X248579047Y-148589047D01*
D12*
X227394818Y-145055223D02*
X227394818Y-143785223D01*
X228725294Y-144934271D02*
X228664818Y-144994747D01*
X228483389Y-145055223D01*
X228362437Y-145055223D01*
X228181008Y-144994747D01*
X228060056Y-144873795D01*
X227999580Y-144752842D01*
X227939103Y-144510938D01*
X227939103Y-144329509D01*
X227999580Y-144087604D01*
X228060056Y-143966652D01*
X228181008Y-143845700D01*
X228362437Y-143785223D01*
X228483389Y-143785223D01*
X228664818Y-143845700D01*
X228725294Y-143906176D01*
X229934818Y-145055223D02*
X229209103Y-145055223D01*
X229571960Y-145055223D02*
X229571960Y-143785223D01*
X229451008Y-143966652D01*
X229330056Y-144087604D01*
X229209103Y-144148080D01*
D11*
X248098571Y-135786190D02*
X247931904Y-135548095D01*
X247812857Y-135786190D02*
X247812857Y-135286190D01*
X248003333Y-135286190D01*
X248050952Y-135310000D01*
X248074761Y-135333809D01*
X248098571Y-135381428D01*
X248098571Y-135452857D01*
X248074761Y-135500476D01*
X248050952Y-135524285D01*
X248003333Y-135548095D01*
X247812857Y-135548095D01*
X248574761Y-135786190D02*
X248289047Y-135786190D01*
X248431904Y-135786190D02*
X248431904Y-135286190D01*
X248384285Y-135357619D01*
X248336666Y-135405238D01*
X248289047Y-135429047D01*
X248765238Y-135333809D02*
X248789047Y-135310000D01*
X248836666Y-135286190D01*
X248955714Y-135286190D01*
X249003333Y-135310000D01*
X249027142Y-135333809D01*
X249050952Y-135381428D01*
X249050952Y-135429047D01*
X249027142Y-135500476D01*
X248741428Y-135786190D01*
X249050952Y-135786190D01*
X248275991Y-146616550D02*
X248109324Y-146378455D01*
X247990277Y-146616550D02*
X247990277Y-146116550D01*
X248180753Y-146116550D01*
X248228372Y-146140360D01*
X248252181Y-146164169D01*
X248275991Y-146211788D01*
X248275991Y-146283217D01*
X248252181Y-146330836D01*
X248228372Y-146354645D01*
X248180753Y-146378455D01*
X247990277Y-146378455D01*
X248752181Y-146616550D02*
X248466467Y-146616550D01*
X248609324Y-146616550D02*
X248609324Y-146116550D01*
X248561705Y-146187979D01*
X248514086Y-146235598D01*
X248466467Y-146259407D01*
X249180753Y-146283217D02*
X249180753Y-146616550D01*
X249061705Y-146092740D02*
X248942658Y-146449883D01*
X249252181Y-146449883D01*
X245178571Y-151276190D02*
X245011904Y-151038095D01*
X244892857Y-151276190D02*
X244892857Y-150776190D01*
X245083333Y-150776190D01*
X245130952Y-150800000D01*
X245154761Y-150823809D01*
X245178571Y-150871428D01*
X245178571Y-150942857D01*
X245154761Y-150990476D01*
X245130952Y-151014285D01*
X245083333Y-151038095D01*
X244892857Y-151038095D01*
X245654761Y-151276190D02*
X245369047Y-151276190D01*
X245511904Y-151276190D02*
X245511904Y-150776190D01*
X245464285Y-150847619D01*
X245416666Y-150895238D01*
X245369047Y-150919047D01*
X246083333Y-150776190D02*
X245988095Y-150776190D01*
X245940476Y-150800000D01*
X245916666Y-150823809D01*
X245869047Y-150895238D01*
X245845238Y-150990476D01*
X245845238Y-151180952D01*
X245869047Y-151228571D01*
X245892857Y-151252380D01*
X245940476Y-151276190D01*
X246035714Y-151276190D01*
X246083333Y-151252380D01*
X246107142Y-151228571D01*
X246130952Y-151180952D01*
X246130952Y-151061904D01*
X246107142Y-151014285D01*
X246083333Y-150990476D01*
X246035714Y-150966666D01*
X245940476Y-150966666D01*
X245892857Y-150990476D01*
X245869047Y-151014285D01*
X245845238Y-151061904D01*
X258066190Y-143851428D02*
X257828095Y-144018095D01*
X258066190Y-144137142D02*
X257566190Y-144137142D01*
X257566190Y-143946666D01*
X257590000Y-143899047D01*
X257613809Y-143875238D01*
X257661428Y-143851428D01*
X257732857Y-143851428D01*
X257780476Y-143875238D01*
X257804285Y-143899047D01*
X257828095Y-143946666D01*
X257828095Y-144137142D01*
X258066190Y-143375238D02*
X258066190Y-143660952D01*
X258066190Y-143518095D02*
X257566190Y-143518095D01*
X257637619Y-143565714D01*
X257685238Y-143613333D01*
X257709047Y-143660952D01*
X257566190Y-142922857D02*
X257566190Y-143160952D01*
X257804285Y-143184761D01*
X257780476Y-143160952D01*
X257756666Y-143113333D01*
X257756666Y-142994285D01*
X257780476Y-142946666D01*
X257804285Y-142922857D01*
X257851904Y-142899047D01*
X257970952Y-142899047D01*
X258018571Y-142922857D01*
X258042380Y-142946666D01*
X258066190Y-142994285D01*
X258066190Y-143113333D01*
X258042380Y-143160952D01*
X258018571Y-143184761D01*
X251998571Y-151926190D02*
X251831904Y-151688095D01*
X251712857Y-151926190D02*
X251712857Y-151426190D01*
X251903333Y-151426190D01*
X251950952Y-151450000D01*
X251974761Y-151473809D01*
X251998571Y-151521428D01*
X251998571Y-151592857D01*
X251974761Y-151640476D01*
X251950952Y-151664285D01*
X251903333Y-151688095D01*
X251712857Y-151688095D01*
X252474761Y-151926190D02*
X252189047Y-151926190D01*
X252331904Y-151926190D02*
X252331904Y-151426190D01*
X252284285Y-151497619D01*
X252236666Y-151545238D01*
X252189047Y-151569047D01*
X252641428Y-151426190D02*
X252950952Y-151426190D01*
X252784285Y-151616666D01*
X252855714Y-151616666D01*
X252903333Y-151640476D01*
X252927142Y-151664285D01*
X252950952Y-151711904D01*
X252950952Y-151830952D01*
X252927142Y-151878571D01*
X252903333Y-151902380D01*
X252855714Y-151926190D01*
X252712857Y-151926190D01*
X252665238Y-151902380D01*
X252641428Y-151878571D01*
X251476190Y-144421428D02*
X251238095Y-144588095D01*
X251476190Y-144707142D02*
X250976190Y-144707142D01*
X250976190Y-144516666D01*
X251000000Y-144469047D01*
X251023809Y-144445238D01*
X251071428Y-144421428D01*
X251142857Y-144421428D01*
X251190476Y-144445238D01*
X251214285Y-144469047D01*
X251238095Y-144516666D01*
X251238095Y-144707142D01*
X251476190Y-143945238D02*
X251476190Y-144230952D01*
X251476190Y-144088095D02*
X250976190Y-144088095D01*
X251047619Y-144135714D01*
X251095238Y-144183333D01*
X251119047Y-144230952D01*
X251476190Y-143469047D02*
X251476190Y-143754761D01*
X251476190Y-143611904D02*
X250976190Y-143611904D01*
X251047619Y-143659523D01*
X251095238Y-143707142D01*
X251119047Y-143754761D01*
X250746666Y-135596190D02*
X250580000Y-135358095D01*
X250460952Y-135596190D02*
X250460952Y-135096190D01*
X250651428Y-135096190D01*
X250699047Y-135120000D01*
X250722857Y-135143809D01*
X250746666Y-135191428D01*
X250746666Y-135262857D01*
X250722857Y-135310476D01*
X250699047Y-135334285D01*
X250651428Y-135358095D01*
X250460952Y-135358095D01*
X250984761Y-135596190D02*
X251080000Y-135596190D01*
X251127619Y-135572380D01*
X251151428Y-135548571D01*
X251199047Y-135477142D01*
X251222857Y-135381904D01*
X251222857Y-135191428D01*
X251199047Y-135143809D01*
X251175238Y-135120000D01*
X251127619Y-135096190D01*
X251032380Y-135096190D01*
X250984761Y-135120000D01*
X250960952Y-135143809D01*
X250937142Y-135191428D01*
X250937142Y-135310476D01*
X250960952Y-135358095D01*
X250984761Y-135381904D01*
X251032380Y-135405714D01*
X251127619Y-135405714D01*
X251175238Y-135381904D01*
X251199047Y-135358095D01*
X251222857Y-135310476D01*
X245416666Y-146026190D02*
X245250000Y-145788095D01*
X245130952Y-146026190D02*
X245130952Y-145526190D01*
X245321428Y-145526190D01*
X245369047Y-145550000D01*
X245392857Y-145573809D01*
X245416666Y-145621428D01*
X245416666Y-145692857D01*
X245392857Y-145740476D01*
X245369047Y-145764285D01*
X245321428Y-145788095D01*
X245130952Y-145788095D01*
X245845238Y-145526190D02*
X245750000Y-145526190D01*
X245702380Y-145550000D01*
X245678571Y-145573809D01*
X245630952Y-145645238D01*
X245607142Y-145740476D01*
X245607142Y-145930952D01*
X245630952Y-145978571D01*
X245654761Y-146002380D01*
X245702380Y-146026190D01*
X245797619Y-146026190D01*
X245845238Y-146002380D01*
X245869047Y-145978571D01*
X245892857Y-145930952D01*
X245892857Y-145811904D01*
X245869047Y-145764285D01*
X245845238Y-145740476D01*
X245797619Y-145716666D01*
X245702380Y-145716666D01*
X245654761Y-145740476D01*
X245630952Y-145764285D01*
X245607142Y-145811904D01*
X245416666Y-147026190D02*
X245250000Y-146788095D01*
X245130952Y-147026190D02*
X245130952Y-146526190D01*
X245321428Y-146526190D01*
X245369047Y-146550000D01*
X245392857Y-146573809D01*
X245416666Y-146621428D01*
X245416666Y-146692857D01*
X245392857Y-146740476D01*
X245369047Y-146764285D01*
X245321428Y-146788095D01*
X245130952Y-146788095D01*
X245869047Y-146526190D02*
X245630952Y-146526190D01*
X245607142Y-146764285D01*
X245630952Y-146740476D01*
X245678571Y-146716666D01*
X245797619Y-146716666D01*
X245845238Y-146740476D01*
X245869047Y-146764285D01*
X245892857Y-146811904D01*
X245892857Y-146930952D01*
X245869047Y-146978571D01*
X245845238Y-147002380D01*
X245797619Y-147026190D01*
X245678571Y-147026190D01*
X245630952Y-147002380D01*
X245607142Y-146978571D01*
X245416666Y-145026190D02*
X245250000Y-144788095D01*
X245130952Y-145026190D02*
X245130952Y-144526190D01*
X245321428Y-144526190D01*
X245369047Y-144550000D01*
X245392857Y-144573809D01*
X245416666Y-144621428D01*
X245416666Y-144692857D01*
X245392857Y-144740476D01*
X245369047Y-144764285D01*
X245321428Y-144788095D01*
X245130952Y-144788095D01*
X245583333Y-144526190D02*
X245892857Y-144526190D01*
X245726190Y-144716666D01*
X245797619Y-144716666D01*
X245845238Y-144740476D01*
X245869047Y-144764285D01*
X245892857Y-144811904D01*
X245892857Y-144930952D01*
X245869047Y-144978571D01*
X245845238Y-145002380D01*
X245797619Y-145026190D01*
X245654761Y-145026190D01*
X245607142Y-145002380D01*
X245583333Y-144978571D01*
X245416666Y-144026190D02*
X245250000Y-143788095D01*
X245130952Y-144026190D02*
X245130952Y-143526190D01*
X245321428Y-143526190D01*
X245369047Y-143550000D01*
X245392857Y-143573809D01*
X245416666Y-143621428D01*
X245416666Y-143692857D01*
X245392857Y-143740476D01*
X245369047Y-143764285D01*
X245321428Y-143788095D01*
X245130952Y-143788095D01*
X245607142Y-143573809D02*
X245630952Y-143550000D01*
X245678571Y-143526190D01*
X245797619Y-143526190D01*
X245845238Y-143550000D01*
X245869047Y-143573809D01*
X245892857Y-143621428D01*
X245892857Y-143669047D01*
X245869047Y-143740476D01*
X245583333Y-144026190D01*
X245892857Y-144026190D01*
X245416666Y-150226190D02*
X245250000Y-149988095D01*
X245130952Y-150226190D02*
X245130952Y-149726190D01*
X245321428Y-149726190D01*
X245369047Y-149750000D01*
X245392857Y-149773809D01*
X245416666Y-149821428D01*
X245416666Y-149892857D01*
X245392857Y-149940476D01*
X245369047Y-149964285D01*
X245321428Y-149988095D01*
X245130952Y-149988095D01*
X245892857Y-150226190D02*
X245607142Y-150226190D01*
X245750000Y-150226190D02*
X245750000Y-149726190D01*
X245702380Y-149797619D01*
X245654761Y-149845238D01*
X245607142Y-149869047D01*
X245678571Y-140083333D02*
X245702380Y-140107142D01*
X245726190Y-140178571D01*
X245726190Y-140226190D01*
X245702380Y-140297619D01*
X245654761Y-140345238D01*
X245607142Y-140369047D01*
X245511904Y-140392857D01*
X245440476Y-140392857D01*
X245345238Y-140369047D01*
X245297619Y-140345238D01*
X245250000Y-140297619D01*
X245226190Y-140226190D01*
X245226190Y-140178571D01*
X245250000Y-140107142D01*
X245273809Y-140083333D01*
X245226190Y-139630952D02*
X245226190Y-139869047D01*
X245464285Y-139892857D01*
X245440476Y-139869047D01*
X245416666Y-139821428D01*
X245416666Y-139702380D01*
X245440476Y-139654761D01*
X245464285Y-139630952D01*
X245511904Y-139607142D01*
X245630952Y-139607142D01*
X245678571Y-139630952D01*
X245702380Y-139654761D01*
X245726190Y-139702380D01*
X245726190Y-139821428D01*
X245702380Y-139869047D01*
X245678571Y-139892857D01*
X241416666Y-149208571D02*
X241392857Y-149232380D01*
X241321428Y-149256190D01*
X241273809Y-149256190D01*
X241202380Y-149232380D01*
X241154761Y-149184761D01*
X241130952Y-149137142D01*
X241107142Y-149041904D01*
X241107142Y-148970476D01*
X241130952Y-148875238D01*
X241154761Y-148827619D01*
X241202380Y-148780000D01*
X241273809Y-148756190D01*
X241321428Y-148756190D01*
X241392857Y-148780000D01*
X241416666Y-148803809D01*
X241845238Y-148756190D02*
X241750000Y-148756190D01*
X241702380Y-148780000D01*
X241678571Y-148803809D01*
X241630952Y-148875238D01*
X241607142Y-148970476D01*
X241607142Y-149160952D01*
X241630952Y-149208571D01*
X241654761Y-149232380D01*
X241702380Y-149256190D01*
X241797619Y-149256190D01*
X241845238Y-149232380D01*
X241869047Y-149208571D01*
X241892857Y-149160952D01*
X241892857Y-149041904D01*
X241869047Y-148994285D01*
X241845238Y-148970476D01*
X241797619Y-148946666D01*
X241702380Y-148946666D01*
X241654761Y-148970476D01*
X241630952Y-148994285D01*
X241607142Y-149041904D01*
X242516666Y-137478571D02*
X242492857Y-137502380D01*
X242421428Y-137526190D01*
X242373809Y-137526190D01*
X242302380Y-137502380D01*
X242254761Y-137454761D01*
X242230952Y-137407142D01*
X242207142Y-137311904D01*
X242207142Y-137240476D01*
X242230952Y-137145238D01*
X242254761Y-137097619D01*
X242302380Y-137050000D01*
X242373809Y-137026190D01*
X242421428Y-137026190D01*
X242492857Y-137050000D01*
X242516666Y-137073809D01*
X242683333Y-137026190D02*
X243016666Y-137026190D01*
X242802380Y-137526190D01*
X216908866Y-140869171D02*
X216885057Y-140892980D01*
X216813628Y-140916790D01*
X216766009Y-140916790D01*
X216694580Y-140892980D01*
X216646961Y-140845361D01*
X216623152Y-140797742D01*
X216599342Y-140702504D01*
X216599342Y-140631076D01*
X216623152Y-140535838D01*
X216646961Y-140488219D01*
X216694580Y-140440600D01*
X216766009Y-140416790D01*
X216813628Y-140416790D01*
X216885057Y-140440600D01*
X216908866Y-140464409D01*
X217194580Y-140631076D02*
X217146961Y-140607266D01*
X217123152Y-140583457D01*
X217099342Y-140535838D01*
X217099342Y-140512028D01*
X217123152Y-140464409D01*
X217146961Y-140440600D01*
X217194580Y-140416790D01*
X217289819Y-140416790D01*
X217337438Y-140440600D01*
X217361247Y-140464409D01*
X217385057Y-140512028D01*
X217385057Y-140535838D01*
X217361247Y-140583457D01*
X217337438Y-140607266D01*
X217289819Y-140631076D01*
X217194580Y-140631076D01*
X217146961Y-140654885D01*
X217123152Y-140678695D01*
X217099342Y-140726314D01*
X217099342Y-140821552D01*
X217123152Y-140869171D01*
X217146961Y-140892980D01*
X217194580Y-140916790D01*
X217289819Y-140916790D01*
X217337438Y-140892980D01*
X217361247Y-140869171D01*
X217385057Y-140821552D01*
X217385057Y-140726314D01*
X217361247Y-140678695D01*
X217337438Y-140654885D01*
X217289819Y-140631076D01*
X253286190Y-140107523D02*
X253286190Y-140345619D01*
X252786190Y-140345619D01*
X253024285Y-139940857D02*
X253024285Y-139774190D01*
X253286190Y-139702761D02*
X253286190Y-139940857D01*
X252786190Y-139940857D01*
X252786190Y-139702761D01*
X253286190Y-139488476D02*
X252786190Y-139488476D01*
X252786190Y-139369428D01*
X252810000Y-139298000D01*
X252857619Y-139250380D01*
X252905238Y-139226571D01*
X253000476Y-139202761D01*
X253071904Y-139202761D01*
X253167142Y-139226571D01*
X253214761Y-139250380D01*
X253262380Y-139298000D01*
X253286190Y-139369428D01*
X253286190Y-139488476D01*
X253286190Y-138726571D02*
X253286190Y-139012285D01*
X253286190Y-138869428D02*
X252786190Y-138869428D01*
X252857619Y-138917047D01*
X252905238Y-138964666D01*
X252929047Y-139012285D01*
X253312190Y-144263523D02*
X253312190Y-144501619D01*
X252812190Y-144501619D01*
X253050285Y-144096857D02*
X253050285Y-143930190D01*
X253312190Y-143858761D02*
X253312190Y-144096857D01*
X252812190Y-144096857D01*
X252812190Y-143858761D01*
X253312190Y-143644476D02*
X252812190Y-143644476D01*
X252812190Y-143525428D01*
X252836000Y-143454000D01*
X252883619Y-143406380D01*
X252931238Y-143382571D01*
X253026476Y-143358761D01*
X253097904Y-143358761D01*
X253193142Y-143382571D01*
X253240761Y-143406380D01*
X253288380Y-143454000D01*
X253312190Y-143525428D01*
X253312190Y-143644476D01*
X252859809Y-143168285D02*
X252836000Y-143144476D01*
X252812190Y-143096857D01*
X252812190Y-142977809D01*
X252836000Y-142930190D01*
X252859809Y-142906380D01*
X252907428Y-142882571D01*
X252955047Y-142882571D01*
X253026476Y-142906380D01*
X253312190Y-143192095D01*
X253312190Y-142882571D01*
X248532980Y-144658809D02*
X248485361Y-144635000D01*
X248437742Y-144587380D01*
X248366314Y-144515952D01*
X248318695Y-144492142D01*
X248271076Y-144492142D01*
X248294885Y-144611190D02*
X248247266Y-144587380D01*
X248199647Y-144539761D01*
X248175838Y-144444523D01*
X248175838Y-144277857D01*
X248199647Y-144182619D01*
X248247266Y-144135000D01*
X248294885Y-144111190D01*
X248390123Y-144111190D01*
X248437742Y-144135000D01*
X248485361Y-144182619D01*
X248509171Y-144277857D01*
X248509171Y-144444523D01*
X248485361Y-144539761D01*
X248437742Y-144587380D01*
X248390123Y-144611190D01*
X248294885Y-144611190D01*
X248985361Y-144611190D02*
X248699647Y-144611190D01*
X248842504Y-144611190D02*
X248842504Y-144111190D01*
X248794885Y-144182619D01*
X248747266Y-144230238D01*
X248699647Y-144254047D01*
X245416666Y-149176190D02*
X245250000Y-148938095D01*
X245130952Y-149176190D02*
X245130952Y-148676190D01*
X245321428Y-148676190D01*
X245369047Y-148700000D01*
X245392857Y-148723809D01*
X245416666Y-148771428D01*
X245416666Y-148842857D01*
X245392857Y-148890476D01*
X245369047Y-148914285D01*
X245321428Y-148938095D01*
X245130952Y-148938095D01*
X245845238Y-148842857D02*
X245845238Y-149176190D01*
X245726190Y-148652380D02*
X245607142Y-149009523D01*
X245916666Y-149009523D01*
X245416666Y-143026190D02*
X245250000Y-142788095D01*
X245130952Y-143026190D02*
X245130952Y-142526190D01*
X245321428Y-142526190D01*
X245369047Y-142550000D01*
X245392857Y-142573809D01*
X245416666Y-142621428D01*
X245416666Y-142692857D01*
X245392857Y-142740476D01*
X245369047Y-142764285D01*
X245321428Y-142788095D01*
X245130952Y-142788095D01*
X245583333Y-142526190D02*
X245916666Y-142526190D01*
X245702380Y-143026190D01*
D10*
X248698571Y-139390885D02*
X248698571Y-139998028D01*
X248734285Y-140069457D01*
X248770000Y-140105171D01*
X248841428Y-140140885D01*
X248984285Y-140140885D01*
X249055714Y-140105171D01*
X249091428Y-140069457D01*
X249127142Y-139998028D01*
X249127142Y-139390885D01*
X249448571Y-139462314D02*
X249484285Y-139426600D01*
X249555714Y-139390885D01*
X249734285Y-139390885D01*
X249805714Y-139426600D01*
X249841428Y-139462314D01*
X249877142Y-139533742D01*
X249877142Y-139605171D01*
X249841428Y-139712314D01*
X249412857Y-140140885D01*
X249877142Y-140140885D01*
D11*
X248406666Y-151278571D02*
X248382857Y-151302380D01*
X248311428Y-151326190D01*
X248263809Y-151326190D01*
X248192380Y-151302380D01*
X248144761Y-151254761D01*
X248120952Y-151207142D01*
X248097142Y-151111904D01*
X248097142Y-151040476D01*
X248120952Y-150945238D01*
X248144761Y-150897619D01*
X248192380Y-150850000D01*
X248263809Y-150826190D01*
X248311428Y-150826190D01*
X248382857Y-150850000D01*
X248406666Y-150873809D01*
X248882857Y-151326190D02*
X248597142Y-151326190D01*
X248740000Y-151326190D02*
X248740000Y-150826190D01*
X248692380Y-150897619D01*
X248644761Y-150945238D01*
X248597142Y-150969047D01*
X245391666Y-137593171D02*
X245367857Y-137616980D01*
X245296428Y-137640790D01*
X245248809Y-137640790D01*
X245177380Y-137616980D01*
X245129761Y-137569361D01*
X245105952Y-137521742D01*
X245082142Y-137426504D01*
X245082142Y-137355076D01*
X245105952Y-137259838D01*
X245129761Y-137212219D01*
X245177380Y-137164600D01*
X245248809Y-137140790D01*
X245296428Y-137140790D01*
X245367857Y-137164600D01*
X245391666Y-137188409D01*
X245582142Y-137188409D02*
X245605952Y-137164600D01*
X245653571Y-137140790D01*
X245772619Y-137140790D01*
X245820238Y-137164600D01*
X245844047Y-137188409D01*
X245867857Y-137236028D01*
X245867857Y-137283647D01*
X245844047Y-137355076D01*
X245558333Y-137640790D01*
X245867857Y-137640790D01*
X239916666Y-141378571D02*
X239892857Y-141402380D01*
X239821428Y-141426190D01*
X239773809Y-141426190D01*
X239702380Y-141402380D01*
X239654761Y-141354761D01*
X239630952Y-141307142D01*
X239607142Y-141211904D01*
X239607142Y-141140476D01*
X239630952Y-141045238D01*
X239654761Y-140997619D01*
X239702380Y-140950000D01*
X239773809Y-140926190D01*
X239821428Y-140926190D01*
X239892857Y-140950000D01*
X239916666Y-140973809D01*
X240083333Y-140926190D02*
X240392857Y-140926190D01*
X240226190Y-141116666D01*
X240297619Y-141116666D01*
X240345238Y-141140476D01*
X240369047Y-141164285D01*
X240392857Y-141211904D01*
X240392857Y-141330952D01*
X240369047Y-141378571D01*
X240345238Y-141402380D01*
X240297619Y-141426190D01*
X240154761Y-141426190D01*
X240107142Y-141402380D01*
X240083333Y-141378571D01*
X239890866Y-144189371D02*
X239867057Y-144213180D01*
X239795628Y-144236990D01*
X239748009Y-144236990D01*
X239676580Y-144213180D01*
X239628961Y-144165561D01*
X239605152Y-144117942D01*
X239581342Y-144022704D01*
X239581342Y-143951276D01*
X239605152Y-143856038D01*
X239628961Y-143808419D01*
X239676580Y-143760800D01*
X239748009Y-143736990D01*
X239795628Y-143736990D01*
X239867057Y-143760800D01*
X239890866Y-143784609D01*
X240319438Y-143903657D02*
X240319438Y-144236990D01*
X240200390Y-143713180D02*
X240081342Y-144070323D01*
X240390866Y-144070323D01*
X251840476Y-148617260D02*
X251602380Y-148617260D01*
X251602380Y-148117260D01*
X252007142Y-148355355D02*
X252173809Y-148355355D01*
X252245238Y-148617260D02*
X252007142Y-148617260D01*
X252007142Y-148117260D01*
X252245238Y-148117260D01*
X252459523Y-148617260D02*
X252459523Y-148117260D01*
X252578571Y-148117260D01*
X252650000Y-148141070D01*
X252697619Y-148188689D01*
X252721428Y-148236308D01*
X252745238Y-148331546D01*
X252745238Y-148402974D01*
X252721428Y-148498212D01*
X252697619Y-148545831D01*
X252650000Y-148593450D01*
X252578571Y-148617260D01*
X252459523Y-148617260D01*
X252911904Y-148117260D02*
X253221428Y-148117260D01*
X253054761Y-148307736D01*
X253126190Y-148307736D01*
X253173809Y-148331546D01*
X253197619Y-148355355D01*
X253221428Y-148402974D01*
X253221428Y-148522022D01*
X253197619Y-148569641D01*
X253173809Y-148593450D01*
X253126190Y-148617260D01*
X252983333Y-148617260D01*
X252935714Y-148593450D01*
X252911904Y-148569641D01*
X252088571Y-137426190D02*
X251921904Y-137188095D01*
X251802857Y-137426190D02*
X251802857Y-136926190D01*
X251993333Y-136926190D01*
X252040952Y-136950000D01*
X252064761Y-136973809D01*
X252088571Y-137021428D01*
X252088571Y-137092857D01*
X252064761Y-137140476D01*
X252040952Y-137164285D01*
X251993333Y-137188095D01*
X251802857Y-137188095D01*
X252564761Y-137426190D02*
X252279047Y-137426190D01*
X252421904Y-137426190D02*
X252421904Y-136926190D01*
X252374285Y-136997619D01*
X252326666Y-137045238D01*
X252279047Y-137069047D01*
X252874285Y-136926190D02*
X252921904Y-136926190D01*
X252969523Y-136950000D01*
X252993333Y-136973809D01*
X253017142Y-137021428D01*
X253040952Y-137116666D01*
X253040952Y-137235714D01*
X253017142Y-137330952D01*
X252993333Y-137378571D01*
X252969523Y-137402380D01*
X252921904Y-137426190D01*
X252874285Y-137426190D01*
X252826666Y-137402380D01*
X252802857Y-137378571D01*
X252779047Y-137330952D01*
X252755238Y-137235714D01*
X252755238Y-137116666D01*
X252779047Y-137021428D01*
X252802857Y-136973809D01*
X252826666Y-136950000D01*
X252874285Y-136926190D01*
M02*
