M48
; DRILL file {KiCad (5.1.4)-1} date 11/13/2019 10:32:16 PM
; FORMAT={-:-/ absolute / metric / decimal}
; #@! TF.CreationDate,2019-11-13T22:32:16+01:00
; #@! TF.GenerationSoftware,Kicad,Pcbnew,(5.1.4)-1
; #@! TF.FileFunction,Plated,1,4,PTH
FMAT,2
METRIC
T1C0.300
T2C1.000
%
G90
G05
T1
X215.1Y-145.75
X215.1Y-148.7
X216.5Y-147.2
X218.604Y-141.959
X218.624Y-139.076
X219.235Y-145.296
X219.235Y-149.139
X221.539Y-150.761
X223.07Y-143.363
X223.51Y-140.828
X224.709Y-148.646
X226.919Y-133.193
X234.066Y-148.618
X238.796Y-139.83
X238.981Y-144.705
X239.065Y-142.63
X240.941Y-135.883
X240.998Y-141.959
X243.2Y-147.55
X243.2Y-150.55
X244.233Y-135.531
X244.416Y-142.556
X244.439Y-148.952
X244.439Y-144.799
X244.439Y-141.675
X244.505Y-136.733
X246.443Y-140.402
X246.5Y-147.4
X246.665Y-148.95
X246.7Y-151.05
X247.384Y-138.121
X248.197Y-148.679
X248.456Y-143.954
X248.585Y-136.748
X248.705Y-142.084
X249.343Y-148.737
X249.981Y-150.288
X250.098Y-151.1
X250.149Y-148.778
X250.31Y-144.078
X251.241Y-137.906
X251.569Y-139.723
X251.818Y-140.626
X251.939Y-138.53
X253.463Y-141.289
X253.906Y-143.916
X253.987Y-143.058
X254.086Y-151.539
X254.574Y-146.718
X256.286Y-136.796
X256.286Y-141.783
X256.286Y-145.401
X257.84Y-144.593
X257.94Y-151.643
X257.94Y-151.643
X257.957Y-141.74
T2
X230.505Y-133.223
X233.045Y-133.223
X235.585Y-133.223
X238.125Y-133.223
X240.665Y-133.223
X243.205Y-133.223
X245.745Y-133.223
X248.285Y-133.223
X250.825Y-133.223
X253.365Y-133.223
X255.905Y-133.223
X258.445Y-133.223
X220.345Y-153.543
X222.885Y-153.543
X225.425Y-153.543
X227.965Y-153.543
X230.505Y-153.543
X233.045Y-153.543
X235.585Y-153.543
X238.125Y-153.543
X240.665Y-153.543
X243.205Y-153.543
X245.745Y-153.543
X248.285Y-153.543
X250.825Y-153.543
X253.365Y-153.543
X255.905Y-153.543
X258.445Y-153.543
T0
M30
