G04 #@! TF.GenerationSoftware,KiCad,Pcbnew,(5.1.4)-1*
G04 #@! TF.CreationDate,2019-11-17T19:28:04+01:00*
G04 #@! TF.ProjectId,Open_Telemetry_digitalSensorShield,4f70656e-5f54-4656-9c65-6d657472795f,P1A - Prototype manuf.*
G04 #@! TF.SameCoordinates,Original*
G04 #@! TF.FileFunction,Copper,L4,Bot*
G04 #@! TF.FilePolarity,Positive*
%FSLAX46Y46*%
G04 Gerber Fmt 4.6, Leading zero omitted, Abs format (unit mm)*
G04 Created by KiCad (PCBNEW (5.1.4)-1) date 2019-11-17 19:28:04*
%MOMM*%
%LPD*%
G04 APERTURE LIST*
%ADD10O,1.700000X1.700000*%
%ADD11R,1.700000X1.700000*%
%ADD12C,0.600000*%
%ADD13C,0.160000*%
%ADD14C,0.254000*%
G04 APERTURE END LIST*
D10*
X258445000Y-133223000D03*
X255905000Y-133223000D03*
X253365000Y-133223000D03*
X250825000Y-133223000D03*
X248285000Y-133223000D03*
X245745000Y-133223000D03*
X243205000Y-133223000D03*
X240665000Y-133223000D03*
X238125000Y-133223000D03*
X235585000Y-133223000D03*
X233045000Y-133223000D03*
D11*
X230505000Y-133223000D03*
D10*
X220345000Y-153543000D03*
X222885000Y-153543000D03*
X225425000Y-153543000D03*
X227965000Y-153543000D03*
X230505000Y-153543000D03*
X233045000Y-153543000D03*
X235585000Y-153543000D03*
X238125000Y-153543000D03*
X240665000Y-153543000D03*
X243205000Y-153543000D03*
X245745000Y-153543000D03*
X248285000Y-153543000D03*
X250825000Y-153543000D03*
X253365000Y-153543000D03*
X255905000Y-153543000D03*
D11*
X258445000Y-153543000D03*
D12*
X246700000Y-151050000D03*
X250310300Y-144077700D03*
X248705000Y-142084500D03*
X246500000Y-147400000D03*
X218624400Y-139076200D03*
X250097900Y-151099900D03*
X251569300Y-139723000D03*
X238796300Y-139829700D03*
X244415600Y-142555900D03*
X240941000Y-135882800D03*
X257840000Y-144592800D03*
X247384000Y-138120700D03*
X239065000Y-142629700D03*
X243200000Y-147550000D03*
X219235020Y-149138640D03*
X219161360Y-145130520D03*
X248197100Y-148679300D03*
X244012720Y-144477740D03*
X244438700Y-148952500D03*
X221539000Y-150760700D03*
X244223540Y-137302240D03*
X243200000Y-150550000D03*
X244045740Y-141366240D03*
X215100000Y-148700000D03*
X251818100Y-140625700D03*
X215100000Y-145750000D03*
X253987200Y-143058500D03*
X256286000Y-136796000D03*
X256298700Y-146019520D03*
X246443300Y-140402000D03*
X216500000Y-147200000D03*
X219161360Y-142128240D03*
X241239040Y-141881860D03*
X224708720Y-148645880D03*
X257957320Y-141739620D03*
X257939540Y-151643080D03*
X257939540Y-151643080D03*
X234066080Y-148617940D03*
X223509840Y-140827760D03*
X226918520Y-133192520D03*
X254086360Y-151538940D03*
X238150400Y-135270240D03*
X239313720Y-146110960D03*
X256286000Y-141783400D03*
X223070420Y-143362680D03*
X253463500Y-141288600D03*
X251938900Y-138529900D03*
X253906200Y-143916200D03*
X254573600Y-146717800D03*
X249981400Y-150287900D03*
X244232900Y-135531200D03*
X248455500Y-143954100D03*
X251241200Y-137905900D03*
X246664900Y-148950000D03*
X249342600Y-148736700D03*
X248584900Y-136747500D03*
X250148600Y-148778400D03*
D13*
X249922100Y-152169400D02*
X250754700Y-151336800D01*
X250754700Y-151336800D02*
X250754700Y-147551700D01*
X250754700Y-147551700D02*
X247868400Y-144665400D01*
X247868400Y-144665400D02*
X247868400Y-141402400D01*
X247868400Y-141402400D02*
X249280500Y-139990300D01*
X249280500Y-139990300D02*
X249280500Y-138971300D01*
X249280500Y-138971300D02*
X250948900Y-137302900D01*
X250948900Y-137302900D02*
X251805500Y-137302900D01*
X251805500Y-137302900D02*
X256286000Y-141783400D01*
X224230600Y-152169400D02*
X249922100Y-152169400D01*
X221718600Y-152169400D02*
X220345000Y-153543000D01*
X223733900Y-143601896D02*
X223733900Y-152169400D01*
X223494684Y-143362680D02*
X223733900Y-143601896D01*
X223070420Y-143362680D02*
X223494684Y-143362680D01*
X224230600Y-152169400D02*
X223733900Y-152169400D01*
X223733900Y-152169400D02*
X221718600Y-152169400D01*
X253463500Y-141288600D02*
X252963100Y-141789000D01*
X252963100Y-141789000D02*
X252963100Y-152010800D01*
X252963100Y-152010800D02*
X253365000Y-152412700D01*
X253365000Y-153543000D02*
X253365000Y-152412700D01*
X251938900Y-138529900D02*
X254048100Y-140639100D01*
X254048100Y-140639100D02*
X254048100Y-141726400D01*
X254048100Y-141726400D02*
X253323400Y-142451100D01*
X253323400Y-142451100D02*
X253323400Y-149831100D01*
X253323400Y-149831100D02*
X255905000Y-152412700D01*
X255905000Y-153543000D02*
X255905000Y-152412700D01*
X258445000Y-153543000D02*
X253906200Y-149004200D01*
X253906200Y-149004200D02*
X253906200Y-143916200D01*
X254573600Y-146717800D02*
X254573600Y-146252600D01*
X254573600Y-146252600D02*
X257348400Y-143477800D01*
X257348400Y-143477800D02*
X257348400Y-134319600D01*
X257348400Y-134319600D02*
X258445000Y-133223000D01*
X243205000Y-134353300D02*
X243893700Y-134353300D01*
X243893700Y-134353300D02*
X245086300Y-135545900D01*
X245086300Y-135545900D02*
X245086300Y-148295100D01*
X245086300Y-148295100D02*
X247079100Y-150287900D01*
X247079100Y-150287900D02*
X249981400Y-150287900D01*
X243205000Y-133223000D02*
X243205000Y-134353300D01*
X240665000Y-133223000D02*
X241795300Y-133223000D01*
X241795300Y-133223000D02*
X241795300Y-133505600D01*
X241795300Y-133505600D02*
X243820900Y-135531200D01*
X243820900Y-135531200D02*
X244232900Y-135531200D01*
X248455500Y-143954100D02*
X249820700Y-142588900D01*
X249820700Y-142588900D02*
X249820700Y-139326400D01*
X249820700Y-139326400D02*
X251241200Y-137905900D01*
X246664900Y-149035700D02*
X246890800Y-149261600D01*
X246890800Y-149261600D02*
X248817700Y-149261600D01*
X248817700Y-149261600D02*
X249342600Y-148736700D01*
X248584900Y-136747500D02*
X248584900Y-139921700D01*
X248584900Y-139921700D02*
X247508000Y-140998600D01*
X247508000Y-140998600D02*
X247508000Y-145376500D01*
X247508000Y-145376500D02*
X250148600Y-148017100D01*
X250148600Y-148017100D02*
X250148600Y-148778400D01*
D14*
G36*
X229016928Y-134073000D02*
G01*
X229029188Y-134197482D01*
X229065498Y-134317180D01*
X229124463Y-134427494D01*
X229203815Y-134524185D01*
X229300506Y-134603537D01*
X229410820Y-134662502D01*
X229530518Y-134698812D01*
X229655000Y-134711072D01*
X231355000Y-134711072D01*
X231479482Y-134698812D01*
X231599180Y-134662502D01*
X231709494Y-134603537D01*
X231806185Y-134524185D01*
X231885537Y-134427494D01*
X231944502Y-134317180D01*
X231965393Y-134248313D01*
X231989866Y-134278134D01*
X232215986Y-134463706D01*
X232473966Y-134601599D01*
X232753889Y-134686513D01*
X232972050Y-134708000D01*
X233117950Y-134708000D01*
X233336111Y-134686513D01*
X233616034Y-134601599D01*
X233874014Y-134463706D01*
X234100134Y-134278134D01*
X234285706Y-134052014D01*
X234315000Y-133997209D01*
X234344294Y-134052014D01*
X234529866Y-134278134D01*
X234755986Y-134463706D01*
X235013966Y-134601599D01*
X235293889Y-134686513D01*
X235512050Y-134708000D01*
X235657950Y-134708000D01*
X235876111Y-134686513D01*
X236156034Y-134601599D01*
X236414014Y-134463706D01*
X236640134Y-134278134D01*
X236825706Y-134052014D01*
X236855000Y-133997209D01*
X236884294Y-134052014D01*
X237069866Y-134278134D01*
X237295986Y-134463706D01*
X237553966Y-134601599D01*
X237833889Y-134686513D01*
X238052050Y-134708000D01*
X238197950Y-134708000D01*
X238416111Y-134686513D01*
X238696034Y-134601599D01*
X238954014Y-134463706D01*
X239180134Y-134278134D01*
X239365706Y-134052014D01*
X239395000Y-133997209D01*
X239424294Y-134052014D01*
X239609866Y-134278134D01*
X239835986Y-134463706D01*
X240093966Y-134601599D01*
X240373889Y-134686513D01*
X240592050Y-134708000D01*
X240737950Y-134708000D01*
X240956111Y-134686513D01*
X241236034Y-134601599D01*
X241494014Y-134463706D01*
X241630354Y-134351815D01*
X243290484Y-136011946D01*
X243312873Y-136039227D01*
X243421746Y-136128577D01*
X243545958Y-136194970D01*
X243586756Y-136207346D01*
X243636872Y-136257462D01*
X243790011Y-136359786D01*
X243960171Y-136430268D01*
X244140811Y-136466200D01*
X244324989Y-136466200D01*
X244371300Y-136456988D01*
X244371300Y-141620900D01*
X244323511Y-141620900D01*
X244142871Y-141656832D01*
X243972711Y-141727314D01*
X243819572Y-141829638D01*
X243689338Y-141959872D01*
X243587014Y-142113011D01*
X243516532Y-142283171D01*
X243480600Y-142463811D01*
X243480600Y-142647989D01*
X243516532Y-142828629D01*
X243587014Y-142998789D01*
X243689338Y-143151928D01*
X243819572Y-143282162D01*
X243972711Y-143384486D01*
X244142871Y-143454968D01*
X244323511Y-143490900D01*
X244371301Y-143490900D01*
X244371301Y-148259980D01*
X244367842Y-148295100D01*
X244371301Y-148330220D01*
X244381647Y-148435264D01*
X244422531Y-148570042D01*
X244488924Y-148694254D01*
X244578274Y-148803127D01*
X244605555Y-148825516D01*
X246103874Y-150323836D01*
X245973738Y-150453972D01*
X245871414Y-150607111D01*
X245800932Y-150777271D01*
X245765000Y-150957911D01*
X245765000Y-151142089D01*
X245800932Y-151322729D01*
X245855471Y-151454400D01*
X224448900Y-151454400D01*
X224448900Y-147457911D01*
X242265000Y-147457911D01*
X242265000Y-147642089D01*
X242300932Y-147822729D01*
X242371414Y-147992889D01*
X242473738Y-148146028D01*
X242603972Y-148276262D01*
X242757111Y-148378586D01*
X242927271Y-148449068D01*
X243107911Y-148485000D01*
X243292089Y-148485000D01*
X243472729Y-148449068D01*
X243642889Y-148378586D01*
X243796028Y-148276262D01*
X243926262Y-148146028D01*
X244028586Y-147992889D01*
X244099068Y-147822729D01*
X244135000Y-147642089D01*
X244135000Y-147457911D01*
X244099068Y-147277271D01*
X244028586Y-147107111D01*
X243926262Y-146953972D01*
X243796028Y-146823738D01*
X243642889Y-146721414D01*
X243472729Y-146650932D01*
X243292089Y-146615000D01*
X243107911Y-146615000D01*
X242927271Y-146650932D01*
X242757111Y-146721414D01*
X242603972Y-146823738D01*
X242473738Y-146953972D01*
X242371414Y-147107111D01*
X242300932Y-147277271D01*
X242265000Y-147457911D01*
X224448900Y-147457911D01*
X224448900Y-143637016D01*
X224452359Y-143601896D01*
X224438554Y-143461731D01*
X224406469Y-143355962D01*
X224397670Y-143326954D01*
X224331277Y-143202742D01*
X224267897Y-143125514D01*
X224264315Y-143121149D01*
X224264312Y-143121146D01*
X224241926Y-143093869D01*
X224214650Y-143071484D01*
X224025104Y-142881939D01*
X224002711Y-142854653D01*
X223893838Y-142765303D01*
X223769626Y-142698910D01*
X223711224Y-142681194D01*
X223666448Y-142636418D01*
X223518573Y-142537611D01*
X238130000Y-142537611D01*
X238130000Y-142721789D01*
X238165932Y-142902429D01*
X238236414Y-143072589D01*
X238338738Y-143225728D01*
X238468972Y-143355962D01*
X238622111Y-143458286D01*
X238792271Y-143528768D01*
X238972911Y-143564700D01*
X239157089Y-143564700D01*
X239337729Y-143528768D01*
X239507889Y-143458286D01*
X239661028Y-143355962D01*
X239791262Y-143225728D01*
X239893586Y-143072589D01*
X239964068Y-142902429D01*
X240000000Y-142721789D01*
X240000000Y-142537611D01*
X239964068Y-142356971D01*
X239893586Y-142186811D01*
X239791262Y-142033672D01*
X239661028Y-141903438D01*
X239507889Y-141801114D01*
X239337729Y-141730632D01*
X239157089Y-141694700D01*
X238972911Y-141694700D01*
X238792271Y-141730632D01*
X238622111Y-141801114D01*
X238468972Y-141903438D01*
X238338738Y-142033672D01*
X238236414Y-142186811D01*
X238165932Y-142356971D01*
X238130000Y-142537611D01*
X223518573Y-142537611D01*
X223513309Y-142534094D01*
X223343149Y-142463612D01*
X223162509Y-142427680D01*
X222978331Y-142427680D01*
X222797691Y-142463612D01*
X222627531Y-142534094D01*
X222474392Y-142636418D01*
X222344158Y-142766652D01*
X222241834Y-142919791D01*
X222171352Y-143089951D01*
X222135420Y-143270591D01*
X222135420Y-143454769D01*
X222171352Y-143635409D01*
X222241834Y-143805569D01*
X222344158Y-143958708D01*
X222474392Y-144088942D01*
X222627531Y-144191266D01*
X222797691Y-144261748D01*
X222978331Y-144297680D01*
X223018900Y-144297680D01*
X223018901Y-151454400D01*
X221753712Y-151454400D01*
X221718600Y-151450942D01*
X221683488Y-151454400D01*
X221683480Y-151454400D01*
X221590548Y-151463553D01*
X221578435Y-151464746D01*
X221538161Y-151476963D01*
X221443658Y-151505630D01*
X221319446Y-151572023D01*
X221319444Y-151572024D01*
X221319445Y-151572024D01*
X221237852Y-151638985D01*
X221237848Y-151638989D01*
X221210573Y-151661373D01*
X221188188Y-151688649D01*
X220759823Y-152117015D01*
X220636111Y-152079487D01*
X220417950Y-152058000D01*
X220272050Y-152058000D01*
X220053889Y-152079487D01*
X219773966Y-152164401D01*
X219515986Y-152302294D01*
X219289866Y-152487866D01*
X219104294Y-152713986D01*
X218966401Y-152971966D01*
X218881487Y-153251889D01*
X218852815Y-153543000D01*
X218881487Y-153834111D01*
X218966401Y-154114034D01*
X218996315Y-154170000D01*
X216547279Y-154170000D01*
X216502608Y-154165620D01*
X216720656Y-154165620D01*
X217084834Y-154093181D01*
X217427882Y-153951086D01*
X217736618Y-153744795D01*
X217999175Y-153482238D01*
X218205466Y-153173502D01*
X218347561Y-152830454D01*
X218420000Y-152466276D01*
X218420000Y-152094964D01*
X218347561Y-151730786D01*
X218205466Y-151387738D01*
X217999175Y-151079002D01*
X217736618Y-150816445D01*
X217427882Y-150610154D01*
X217084834Y-150468059D01*
X216720656Y-150395620D01*
X216349344Y-150395620D01*
X215985166Y-150468059D01*
X215642118Y-150610154D01*
X215333382Y-150816445D01*
X215070825Y-151079002D01*
X214864534Y-151387738D01*
X214722439Y-151730786D01*
X214650000Y-152094964D01*
X214650000Y-152415273D01*
X214635000Y-152272557D01*
X214635000Y-138984111D01*
X217689400Y-138984111D01*
X217689400Y-139168289D01*
X217725332Y-139348929D01*
X217795814Y-139519089D01*
X217898138Y-139672228D01*
X218028372Y-139802462D01*
X218181511Y-139904786D01*
X218351671Y-139975268D01*
X218532311Y-140011200D01*
X218716489Y-140011200D01*
X218897129Y-139975268D01*
X219067289Y-139904786D01*
X219220428Y-139802462D01*
X219285279Y-139737611D01*
X237861300Y-139737611D01*
X237861300Y-139921789D01*
X237897232Y-140102429D01*
X237967714Y-140272589D01*
X238070038Y-140425728D01*
X238200272Y-140555962D01*
X238353411Y-140658286D01*
X238523571Y-140728768D01*
X238704211Y-140764700D01*
X238888389Y-140764700D01*
X239069029Y-140728768D01*
X239239189Y-140658286D01*
X239392328Y-140555962D01*
X239522562Y-140425728D01*
X239624886Y-140272589D01*
X239695368Y-140102429D01*
X239731300Y-139921789D01*
X239731300Y-139737611D01*
X239695368Y-139556971D01*
X239624886Y-139386811D01*
X239522562Y-139233672D01*
X239392328Y-139103438D01*
X239239189Y-139001114D01*
X239069029Y-138930632D01*
X238888389Y-138894700D01*
X238704211Y-138894700D01*
X238523571Y-138930632D01*
X238353411Y-139001114D01*
X238200272Y-139103438D01*
X238070038Y-139233672D01*
X237967714Y-139386811D01*
X237897232Y-139556971D01*
X237861300Y-139737611D01*
X219285279Y-139737611D01*
X219350662Y-139672228D01*
X219452986Y-139519089D01*
X219523468Y-139348929D01*
X219559400Y-139168289D01*
X219559400Y-138984111D01*
X219523468Y-138803471D01*
X219452986Y-138633311D01*
X219350662Y-138480172D01*
X219220428Y-138349938D01*
X219067289Y-138247614D01*
X218897129Y-138177132D01*
X218716489Y-138141200D01*
X218532311Y-138141200D01*
X218351671Y-138177132D01*
X218181511Y-138247614D01*
X218028372Y-138349938D01*
X217898138Y-138480172D01*
X217795814Y-138633311D01*
X217725332Y-138803471D01*
X217689400Y-138984111D01*
X214635000Y-138984111D01*
X214635000Y-134894196D01*
X214671639Y-135078394D01*
X214813734Y-135421442D01*
X215020025Y-135730178D01*
X215282582Y-135992735D01*
X215591318Y-136199026D01*
X215934366Y-136341121D01*
X216298544Y-136413560D01*
X216669856Y-136413560D01*
X217034034Y-136341121D01*
X217377082Y-136199026D01*
X217685818Y-135992735D01*
X217887842Y-135790711D01*
X240006000Y-135790711D01*
X240006000Y-135974889D01*
X240041932Y-136155529D01*
X240112414Y-136325689D01*
X240214738Y-136478828D01*
X240344972Y-136609062D01*
X240498111Y-136711386D01*
X240668271Y-136781868D01*
X240848911Y-136817800D01*
X241033089Y-136817800D01*
X241213729Y-136781868D01*
X241383889Y-136711386D01*
X241537028Y-136609062D01*
X241667262Y-136478828D01*
X241769586Y-136325689D01*
X241840068Y-136155529D01*
X241876000Y-135974889D01*
X241876000Y-135790711D01*
X241840068Y-135610071D01*
X241769586Y-135439911D01*
X241667262Y-135286772D01*
X241537028Y-135156538D01*
X241383889Y-135054214D01*
X241213729Y-134983732D01*
X241033089Y-134947800D01*
X240848911Y-134947800D01*
X240668271Y-134983732D01*
X240498111Y-135054214D01*
X240344972Y-135156538D01*
X240214738Y-135286772D01*
X240112414Y-135439911D01*
X240041932Y-135610071D01*
X240006000Y-135790711D01*
X217887842Y-135790711D01*
X217948375Y-135730178D01*
X218154666Y-135421442D01*
X218296761Y-135078394D01*
X218369200Y-134714216D01*
X218369200Y-134342904D01*
X218296761Y-133978726D01*
X218154666Y-133635678D01*
X217948375Y-133326942D01*
X217685818Y-133064385D01*
X217377082Y-132858094D01*
X217034034Y-132715999D01*
X216669856Y-132643560D01*
X216403428Y-132643560D01*
X216532443Y-132630000D01*
X229016928Y-132630000D01*
X229016928Y-134073000D01*
X229016928Y-134073000D01*
G37*
X229016928Y-134073000D02*
X229029188Y-134197482D01*
X229065498Y-134317180D01*
X229124463Y-134427494D01*
X229203815Y-134524185D01*
X229300506Y-134603537D01*
X229410820Y-134662502D01*
X229530518Y-134698812D01*
X229655000Y-134711072D01*
X231355000Y-134711072D01*
X231479482Y-134698812D01*
X231599180Y-134662502D01*
X231709494Y-134603537D01*
X231806185Y-134524185D01*
X231885537Y-134427494D01*
X231944502Y-134317180D01*
X231965393Y-134248313D01*
X231989866Y-134278134D01*
X232215986Y-134463706D01*
X232473966Y-134601599D01*
X232753889Y-134686513D01*
X232972050Y-134708000D01*
X233117950Y-134708000D01*
X233336111Y-134686513D01*
X233616034Y-134601599D01*
X233874014Y-134463706D01*
X234100134Y-134278134D01*
X234285706Y-134052014D01*
X234315000Y-133997209D01*
X234344294Y-134052014D01*
X234529866Y-134278134D01*
X234755986Y-134463706D01*
X235013966Y-134601599D01*
X235293889Y-134686513D01*
X235512050Y-134708000D01*
X235657950Y-134708000D01*
X235876111Y-134686513D01*
X236156034Y-134601599D01*
X236414014Y-134463706D01*
X236640134Y-134278134D01*
X236825706Y-134052014D01*
X236855000Y-133997209D01*
X236884294Y-134052014D01*
X237069866Y-134278134D01*
X237295986Y-134463706D01*
X237553966Y-134601599D01*
X237833889Y-134686513D01*
X238052050Y-134708000D01*
X238197950Y-134708000D01*
X238416111Y-134686513D01*
X238696034Y-134601599D01*
X238954014Y-134463706D01*
X239180134Y-134278134D01*
X239365706Y-134052014D01*
X239395000Y-133997209D01*
X239424294Y-134052014D01*
X239609866Y-134278134D01*
X239835986Y-134463706D01*
X240093966Y-134601599D01*
X240373889Y-134686513D01*
X240592050Y-134708000D01*
X240737950Y-134708000D01*
X240956111Y-134686513D01*
X241236034Y-134601599D01*
X241494014Y-134463706D01*
X241630354Y-134351815D01*
X243290484Y-136011946D01*
X243312873Y-136039227D01*
X243421746Y-136128577D01*
X243545958Y-136194970D01*
X243586756Y-136207346D01*
X243636872Y-136257462D01*
X243790011Y-136359786D01*
X243960171Y-136430268D01*
X244140811Y-136466200D01*
X244324989Y-136466200D01*
X244371300Y-136456988D01*
X244371300Y-141620900D01*
X244323511Y-141620900D01*
X244142871Y-141656832D01*
X243972711Y-141727314D01*
X243819572Y-141829638D01*
X243689338Y-141959872D01*
X243587014Y-142113011D01*
X243516532Y-142283171D01*
X243480600Y-142463811D01*
X243480600Y-142647989D01*
X243516532Y-142828629D01*
X243587014Y-142998789D01*
X243689338Y-143151928D01*
X243819572Y-143282162D01*
X243972711Y-143384486D01*
X244142871Y-143454968D01*
X244323511Y-143490900D01*
X244371301Y-143490900D01*
X244371301Y-148259980D01*
X244367842Y-148295100D01*
X244371301Y-148330220D01*
X244381647Y-148435264D01*
X244422531Y-148570042D01*
X244488924Y-148694254D01*
X244578274Y-148803127D01*
X244605555Y-148825516D01*
X246103874Y-150323836D01*
X245973738Y-150453972D01*
X245871414Y-150607111D01*
X245800932Y-150777271D01*
X245765000Y-150957911D01*
X245765000Y-151142089D01*
X245800932Y-151322729D01*
X245855471Y-151454400D01*
X224448900Y-151454400D01*
X224448900Y-147457911D01*
X242265000Y-147457911D01*
X242265000Y-147642089D01*
X242300932Y-147822729D01*
X242371414Y-147992889D01*
X242473738Y-148146028D01*
X242603972Y-148276262D01*
X242757111Y-148378586D01*
X242927271Y-148449068D01*
X243107911Y-148485000D01*
X243292089Y-148485000D01*
X243472729Y-148449068D01*
X243642889Y-148378586D01*
X243796028Y-148276262D01*
X243926262Y-148146028D01*
X244028586Y-147992889D01*
X244099068Y-147822729D01*
X244135000Y-147642089D01*
X244135000Y-147457911D01*
X244099068Y-147277271D01*
X244028586Y-147107111D01*
X243926262Y-146953972D01*
X243796028Y-146823738D01*
X243642889Y-146721414D01*
X243472729Y-146650932D01*
X243292089Y-146615000D01*
X243107911Y-146615000D01*
X242927271Y-146650932D01*
X242757111Y-146721414D01*
X242603972Y-146823738D01*
X242473738Y-146953972D01*
X242371414Y-147107111D01*
X242300932Y-147277271D01*
X242265000Y-147457911D01*
X224448900Y-147457911D01*
X224448900Y-143637016D01*
X224452359Y-143601896D01*
X224438554Y-143461731D01*
X224406469Y-143355962D01*
X224397670Y-143326954D01*
X224331277Y-143202742D01*
X224267897Y-143125514D01*
X224264315Y-143121149D01*
X224264312Y-143121146D01*
X224241926Y-143093869D01*
X224214650Y-143071484D01*
X224025104Y-142881939D01*
X224002711Y-142854653D01*
X223893838Y-142765303D01*
X223769626Y-142698910D01*
X223711224Y-142681194D01*
X223666448Y-142636418D01*
X223518573Y-142537611D01*
X238130000Y-142537611D01*
X238130000Y-142721789D01*
X238165932Y-142902429D01*
X238236414Y-143072589D01*
X238338738Y-143225728D01*
X238468972Y-143355962D01*
X238622111Y-143458286D01*
X238792271Y-143528768D01*
X238972911Y-143564700D01*
X239157089Y-143564700D01*
X239337729Y-143528768D01*
X239507889Y-143458286D01*
X239661028Y-143355962D01*
X239791262Y-143225728D01*
X239893586Y-143072589D01*
X239964068Y-142902429D01*
X240000000Y-142721789D01*
X240000000Y-142537611D01*
X239964068Y-142356971D01*
X239893586Y-142186811D01*
X239791262Y-142033672D01*
X239661028Y-141903438D01*
X239507889Y-141801114D01*
X239337729Y-141730632D01*
X239157089Y-141694700D01*
X238972911Y-141694700D01*
X238792271Y-141730632D01*
X238622111Y-141801114D01*
X238468972Y-141903438D01*
X238338738Y-142033672D01*
X238236414Y-142186811D01*
X238165932Y-142356971D01*
X238130000Y-142537611D01*
X223518573Y-142537611D01*
X223513309Y-142534094D01*
X223343149Y-142463612D01*
X223162509Y-142427680D01*
X222978331Y-142427680D01*
X222797691Y-142463612D01*
X222627531Y-142534094D01*
X222474392Y-142636418D01*
X222344158Y-142766652D01*
X222241834Y-142919791D01*
X222171352Y-143089951D01*
X222135420Y-143270591D01*
X222135420Y-143454769D01*
X222171352Y-143635409D01*
X222241834Y-143805569D01*
X222344158Y-143958708D01*
X222474392Y-144088942D01*
X222627531Y-144191266D01*
X222797691Y-144261748D01*
X222978331Y-144297680D01*
X223018900Y-144297680D01*
X223018901Y-151454400D01*
X221753712Y-151454400D01*
X221718600Y-151450942D01*
X221683488Y-151454400D01*
X221683480Y-151454400D01*
X221590548Y-151463553D01*
X221578435Y-151464746D01*
X221538161Y-151476963D01*
X221443658Y-151505630D01*
X221319446Y-151572023D01*
X221319444Y-151572024D01*
X221319445Y-151572024D01*
X221237852Y-151638985D01*
X221237848Y-151638989D01*
X221210573Y-151661373D01*
X221188188Y-151688649D01*
X220759823Y-152117015D01*
X220636111Y-152079487D01*
X220417950Y-152058000D01*
X220272050Y-152058000D01*
X220053889Y-152079487D01*
X219773966Y-152164401D01*
X219515986Y-152302294D01*
X219289866Y-152487866D01*
X219104294Y-152713986D01*
X218966401Y-152971966D01*
X218881487Y-153251889D01*
X218852815Y-153543000D01*
X218881487Y-153834111D01*
X218966401Y-154114034D01*
X218996315Y-154170000D01*
X216547279Y-154170000D01*
X216502608Y-154165620D01*
X216720656Y-154165620D01*
X217084834Y-154093181D01*
X217427882Y-153951086D01*
X217736618Y-153744795D01*
X217999175Y-153482238D01*
X218205466Y-153173502D01*
X218347561Y-152830454D01*
X218420000Y-152466276D01*
X218420000Y-152094964D01*
X218347561Y-151730786D01*
X218205466Y-151387738D01*
X217999175Y-151079002D01*
X217736618Y-150816445D01*
X217427882Y-150610154D01*
X217084834Y-150468059D01*
X216720656Y-150395620D01*
X216349344Y-150395620D01*
X215985166Y-150468059D01*
X215642118Y-150610154D01*
X215333382Y-150816445D01*
X215070825Y-151079002D01*
X214864534Y-151387738D01*
X214722439Y-151730786D01*
X214650000Y-152094964D01*
X214650000Y-152415273D01*
X214635000Y-152272557D01*
X214635000Y-138984111D01*
X217689400Y-138984111D01*
X217689400Y-139168289D01*
X217725332Y-139348929D01*
X217795814Y-139519089D01*
X217898138Y-139672228D01*
X218028372Y-139802462D01*
X218181511Y-139904786D01*
X218351671Y-139975268D01*
X218532311Y-140011200D01*
X218716489Y-140011200D01*
X218897129Y-139975268D01*
X219067289Y-139904786D01*
X219220428Y-139802462D01*
X219285279Y-139737611D01*
X237861300Y-139737611D01*
X237861300Y-139921789D01*
X237897232Y-140102429D01*
X237967714Y-140272589D01*
X238070038Y-140425728D01*
X238200272Y-140555962D01*
X238353411Y-140658286D01*
X238523571Y-140728768D01*
X238704211Y-140764700D01*
X238888389Y-140764700D01*
X239069029Y-140728768D01*
X239239189Y-140658286D01*
X239392328Y-140555962D01*
X239522562Y-140425728D01*
X239624886Y-140272589D01*
X239695368Y-140102429D01*
X239731300Y-139921789D01*
X239731300Y-139737611D01*
X239695368Y-139556971D01*
X239624886Y-139386811D01*
X239522562Y-139233672D01*
X239392328Y-139103438D01*
X239239189Y-139001114D01*
X239069029Y-138930632D01*
X238888389Y-138894700D01*
X238704211Y-138894700D01*
X238523571Y-138930632D01*
X238353411Y-139001114D01*
X238200272Y-139103438D01*
X238070038Y-139233672D01*
X237967714Y-139386811D01*
X237897232Y-139556971D01*
X237861300Y-139737611D01*
X219285279Y-139737611D01*
X219350662Y-139672228D01*
X219452986Y-139519089D01*
X219523468Y-139348929D01*
X219559400Y-139168289D01*
X219559400Y-138984111D01*
X219523468Y-138803471D01*
X219452986Y-138633311D01*
X219350662Y-138480172D01*
X219220428Y-138349938D01*
X219067289Y-138247614D01*
X218897129Y-138177132D01*
X218716489Y-138141200D01*
X218532311Y-138141200D01*
X218351671Y-138177132D01*
X218181511Y-138247614D01*
X218028372Y-138349938D01*
X217898138Y-138480172D01*
X217795814Y-138633311D01*
X217725332Y-138803471D01*
X217689400Y-138984111D01*
X214635000Y-138984111D01*
X214635000Y-134894196D01*
X214671639Y-135078394D01*
X214813734Y-135421442D01*
X215020025Y-135730178D01*
X215282582Y-135992735D01*
X215591318Y-136199026D01*
X215934366Y-136341121D01*
X216298544Y-136413560D01*
X216669856Y-136413560D01*
X217034034Y-136341121D01*
X217377082Y-136199026D01*
X217685818Y-135992735D01*
X217887842Y-135790711D01*
X240006000Y-135790711D01*
X240006000Y-135974889D01*
X240041932Y-136155529D01*
X240112414Y-136325689D01*
X240214738Y-136478828D01*
X240344972Y-136609062D01*
X240498111Y-136711386D01*
X240668271Y-136781868D01*
X240848911Y-136817800D01*
X241033089Y-136817800D01*
X241213729Y-136781868D01*
X241383889Y-136711386D01*
X241537028Y-136609062D01*
X241667262Y-136478828D01*
X241769586Y-136325689D01*
X241840068Y-136155529D01*
X241876000Y-135974889D01*
X241876000Y-135790711D01*
X241840068Y-135610071D01*
X241769586Y-135439911D01*
X241667262Y-135286772D01*
X241537028Y-135156538D01*
X241383889Y-135054214D01*
X241213729Y-134983732D01*
X241033089Y-134947800D01*
X240848911Y-134947800D01*
X240668271Y-134983732D01*
X240498111Y-135054214D01*
X240344972Y-135156538D01*
X240214738Y-135286772D01*
X240112414Y-135439911D01*
X240041932Y-135610071D01*
X240006000Y-135790711D01*
X217887842Y-135790711D01*
X217948375Y-135730178D01*
X218154666Y-135421442D01*
X218296761Y-135078394D01*
X218369200Y-134714216D01*
X218369200Y-134342904D01*
X218296761Y-133978726D01*
X218154666Y-133635678D01*
X217948375Y-133326942D01*
X217685818Y-133064385D01*
X217377082Y-132858094D01*
X217034034Y-132715999D01*
X216669856Y-132643560D01*
X216403428Y-132643560D01*
X216532443Y-132630000D01*
X229016928Y-132630000D01*
X229016928Y-134073000D01*
G36*
X228092000Y-153416000D02*
G01*
X228112000Y-153416000D01*
X228112000Y-153670000D01*
X228092000Y-153670000D01*
X228092000Y-153690000D01*
X227838000Y-153690000D01*
X227838000Y-153670000D01*
X227818000Y-153670000D01*
X227818000Y-153416000D01*
X227838000Y-153416000D01*
X227838000Y-153396000D01*
X228092000Y-153396000D01*
X228092000Y-153416000D01*
X228092000Y-153416000D01*
G37*
X228092000Y-153416000D02*
X228112000Y-153416000D01*
X228112000Y-153670000D01*
X228092000Y-153670000D01*
X228092000Y-153690000D01*
X227838000Y-153690000D01*
X227838000Y-153670000D01*
X227818000Y-153670000D01*
X227818000Y-153416000D01*
X227838000Y-153416000D01*
X227838000Y-153396000D01*
X228092000Y-153396000D01*
X228092000Y-153416000D01*
G36*
X254915302Y-152434164D02*
G01*
X254849866Y-152487866D01*
X254664294Y-152713986D01*
X254635000Y-152768791D01*
X254605706Y-152713986D01*
X254420134Y-152487866D01*
X254194014Y-152302294D01*
X254056362Y-152228718D01*
X254028770Y-152137758D01*
X254022523Y-152126071D01*
X253962376Y-152013544D01*
X253895414Y-151931952D01*
X253873027Y-151904673D01*
X253845745Y-151882284D01*
X253678100Y-151714638D01*
X253678100Y-151196962D01*
X254915302Y-152434164D01*
X254915302Y-152434164D01*
G37*
X254915302Y-152434164D02*
X254849866Y-152487866D01*
X254664294Y-152713986D01*
X254635000Y-152768791D01*
X254605706Y-152713986D01*
X254420134Y-152487866D01*
X254194014Y-152302294D01*
X254056362Y-152228718D01*
X254028770Y-152137758D01*
X254022523Y-152126071D01*
X253962376Y-152013544D01*
X253895414Y-151931952D01*
X253873027Y-151904673D01*
X253845745Y-151882284D01*
X253678100Y-151714638D01*
X253678100Y-151196962D01*
X254915302Y-152434164D01*
G36*
X250634300Y-139630911D02*
G01*
X250634300Y-139815089D01*
X250670232Y-139995729D01*
X250740714Y-140165889D01*
X250843038Y-140319028D01*
X250973272Y-140449262D01*
X251126411Y-140551586D01*
X251296571Y-140622068D01*
X251477211Y-140658000D01*
X251661389Y-140658000D01*
X251842029Y-140622068D01*
X252012189Y-140551586D01*
X252165328Y-140449262D01*
X252295562Y-140319028D01*
X252397886Y-140165889D01*
X252446460Y-140048621D01*
X252923044Y-140525206D01*
X252867472Y-140562338D01*
X252737238Y-140692572D01*
X252634914Y-140845711D01*
X252564432Y-141015871D01*
X252528500Y-141196511D01*
X252528500Y-141212439D01*
X252482354Y-141258584D01*
X252455073Y-141280974D01*
X252365723Y-141389847D01*
X252299330Y-141514059D01*
X252258446Y-141648837D01*
X252248100Y-141753881D01*
X252248100Y-141753890D01*
X252244642Y-141789000D01*
X252248100Y-141824110D01*
X252248101Y-151975680D01*
X252244642Y-152010800D01*
X252248101Y-152045920D01*
X252258447Y-152150964D01*
X252299331Y-152285742D01*
X252365724Y-152409954D01*
X252381451Y-152429118D01*
X252309866Y-152487866D01*
X252124294Y-152713986D01*
X252095000Y-152768791D01*
X252065706Y-152713986D01*
X251880134Y-152487866D01*
X251654014Y-152302294D01*
X251396034Y-152164401D01*
X251116111Y-152079487D01*
X251031507Y-152071154D01*
X251235450Y-151867212D01*
X251262726Y-151844827D01*
X251352077Y-151735954D01*
X251418470Y-151611742D01*
X251459354Y-151476964D01*
X251469700Y-151371920D01*
X251469700Y-151371911D01*
X251473158Y-151336801D01*
X251469700Y-151301691D01*
X251469700Y-147586812D01*
X251473158Y-147551700D01*
X251469700Y-147516588D01*
X251469700Y-147516580D01*
X251459354Y-147411536D01*
X251418470Y-147276758D01*
X251352077Y-147152546D01*
X251331334Y-147127271D01*
X251285115Y-147070952D01*
X251285111Y-147070948D01*
X251262727Y-147043673D01*
X251235451Y-147021288D01*
X248957411Y-144743249D01*
X249051528Y-144680362D01*
X249181762Y-144550128D01*
X249284086Y-144396989D01*
X249354568Y-144226829D01*
X249375300Y-144122604D01*
X249375300Y-144169789D01*
X249411232Y-144350429D01*
X249481714Y-144520589D01*
X249584038Y-144673728D01*
X249714272Y-144803962D01*
X249867411Y-144906286D01*
X250037571Y-144976768D01*
X250218211Y-145012700D01*
X250402389Y-145012700D01*
X250583029Y-144976768D01*
X250753189Y-144906286D01*
X250906328Y-144803962D01*
X251036562Y-144673728D01*
X251138886Y-144520589D01*
X251209368Y-144350429D01*
X251245300Y-144169789D01*
X251245300Y-143985611D01*
X251209368Y-143804971D01*
X251138886Y-143634811D01*
X251036562Y-143481672D01*
X250906328Y-143351438D01*
X250753189Y-143249114D01*
X250583029Y-143178632D01*
X250402389Y-143142700D01*
X250278063Y-143142700D01*
X250301456Y-143119307D01*
X250328726Y-143096927D01*
X250351107Y-143069656D01*
X250351114Y-143069649D01*
X250418076Y-142988055D01*
X250418078Y-142988053D01*
X250484470Y-142863842D01*
X250525354Y-142729064D01*
X250535700Y-142624020D01*
X250535700Y-142624011D01*
X250539158Y-142588901D01*
X250535700Y-142553791D01*
X250535700Y-139622561D01*
X250660856Y-139497405D01*
X250634300Y-139630911D01*
X250634300Y-139630911D01*
G37*
X250634300Y-139630911D02*
X250634300Y-139815089D01*
X250670232Y-139995729D01*
X250740714Y-140165889D01*
X250843038Y-140319028D01*
X250973272Y-140449262D01*
X251126411Y-140551586D01*
X251296571Y-140622068D01*
X251477211Y-140658000D01*
X251661389Y-140658000D01*
X251842029Y-140622068D01*
X252012189Y-140551586D01*
X252165328Y-140449262D01*
X252295562Y-140319028D01*
X252397886Y-140165889D01*
X252446460Y-140048621D01*
X252923044Y-140525206D01*
X252867472Y-140562338D01*
X252737238Y-140692572D01*
X252634914Y-140845711D01*
X252564432Y-141015871D01*
X252528500Y-141196511D01*
X252528500Y-141212439D01*
X252482354Y-141258584D01*
X252455073Y-141280974D01*
X252365723Y-141389847D01*
X252299330Y-141514059D01*
X252258446Y-141648837D01*
X252248100Y-141753881D01*
X252248100Y-141753890D01*
X252244642Y-141789000D01*
X252248100Y-141824110D01*
X252248101Y-151975680D01*
X252244642Y-152010800D01*
X252248101Y-152045920D01*
X252258447Y-152150964D01*
X252299331Y-152285742D01*
X252365724Y-152409954D01*
X252381451Y-152429118D01*
X252309866Y-152487866D01*
X252124294Y-152713986D01*
X252095000Y-152768791D01*
X252065706Y-152713986D01*
X251880134Y-152487866D01*
X251654014Y-152302294D01*
X251396034Y-152164401D01*
X251116111Y-152079487D01*
X251031507Y-152071154D01*
X251235450Y-151867212D01*
X251262726Y-151844827D01*
X251352077Y-151735954D01*
X251418470Y-151611742D01*
X251459354Y-151476964D01*
X251469700Y-151371920D01*
X251469700Y-151371911D01*
X251473158Y-151336801D01*
X251469700Y-151301691D01*
X251469700Y-147586812D01*
X251473158Y-147551700D01*
X251469700Y-147516588D01*
X251469700Y-147516580D01*
X251459354Y-147411536D01*
X251418470Y-147276758D01*
X251352077Y-147152546D01*
X251331334Y-147127271D01*
X251285115Y-147070952D01*
X251285111Y-147070948D01*
X251262727Y-147043673D01*
X251235451Y-147021288D01*
X248957411Y-144743249D01*
X249051528Y-144680362D01*
X249181762Y-144550128D01*
X249284086Y-144396989D01*
X249354568Y-144226829D01*
X249375300Y-144122604D01*
X249375300Y-144169789D01*
X249411232Y-144350429D01*
X249481714Y-144520589D01*
X249584038Y-144673728D01*
X249714272Y-144803962D01*
X249867411Y-144906286D01*
X250037571Y-144976768D01*
X250218211Y-145012700D01*
X250402389Y-145012700D01*
X250583029Y-144976768D01*
X250753189Y-144906286D01*
X250906328Y-144803962D01*
X251036562Y-144673728D01*
X251138886Y-144520589D01*
X251209368Y-144350429D01*
X251245300Y-144169789D01*
X251245300Y-143985611D01*
X251209368Y-143804971D01*
X251138886Y-143634811D01*
X251036562Y-143481672D01*
X250906328Y-143351438D01*
X250753189Y-143249114D01*
X250583029Y-143178632D01*
X250402389Y-143142700D01*
X250278063Y-143142700D01*
X250301456Y-143119307D01*
X250328726Y-143096927D01*
X250351107Y-143069656D01*
X250351114Y-143069649D01*
X250418076Y-142988055D01*
X250418078Y-142988053D01*
X250484470Y-142863842D01*
X250525354Y-142729064D01*
X250535700Y-142624020D01*
X250535700Y-142624011D01*
X250539158Y-142588901D01*
X250535700Y-142553791D01*
X250535700Y-139622561D01*
X250660856Y-139497405D01*
X250634300Y-139630911D01*
G36*
X257011414Y-145035689D02*
G01*
X257113738Y-145188828D01*
X257243972Y-145319062D01*
X257397111Y-145421386D01*
X257567271Y-145491868D01*
X257747911Y-145527800D01*
X257932089Y-145527800D01*
X258112729Y-145491868D01*
X258273000Y-145425482D01*
X258273000Y-152054928D01*
X257968091Y-152054928D01*
X254621200Y-148708039D01*
X254621200Y-147652800D01*
X254665689Y-147652800D01*
X254846329Y-147616868D01*
X255016489Y-147546386D01*
X255169628Y-147444062D01*
X255299862Y-147313828D01*
X255402186Y-147160689D01*
X255472668Y-146990529D01*
X255508600Y-146809889D01*
X255508600Y-146625711D01*
X255472668Y-146445071D01*
X255449126Y-146388235D01*
X256949983Y-144887380D01*
X257011414Y-145035689D01*
X257011414Y-145035689D01*
G37*
X257011414Y-145035689D02*
X257113738Y-145188828D01*
X257243972Y-145319062D01*
X257397111Y-145421386D01*
X257567271Y-145491868D01*
X257747911Y-145527800D01*
X257932089Y-145527800D01*
X258112729Y-145491868D01*
X258273000Y-145425482D01*
X258273000Y-152054928D01*
X257968091Y-152054928D01*
X254621200Y-148708039D01*
X254621200Y-147652800D01*
X254665689Y-147652800D01*
X254846329Y-147616868D01*
X255016489Y-147546386D01*
X255169628Y-147444062D01*
X255299862Y-147313828D01*
X255402186Y-147160689D01*
X255472668Y-146990529D01*
X255508600Y-146809889D01*
X255508600Y-146625711D01*
X255472668Y-146445071D01*
X255449126Y-146388235D01*
X256949983Y-144887380D01*
X257011414Y-145035689D01*
G36*
X254664294Y-134052014D02*
G01*
X254849866Y-134278134D01*
X255075986Y-134463706D01*
X255333966Y-134601599D01*
X255613889Y-134686513D01*
X255832050Y-134708000D01*
X255977950Y-134708000D01*
X256196111Y-134686513D01*
X256476034Y-134601599D01*
X256633401Y-134517485D01*
X256633400Y-140915262D01*
X256558729Y-140884332D01*
X256378089Y-140848400D01*
X256362163Y-140848400D01*
X252335920Y-136822159D01*
X252313527Y-136794873D01*
X252204654Y-136705523D01*
X252080442Y-136639130D01*
X251945664Y-136598246D01*
X251840620Y-136587900D01*
X251840610Y-136587900D01*
X251805500Y-136584442D01*
X251770390Y-136587900D01*
X250984010Y-136587900D01*
X250948900Y-136584442D01*
X250913790Y-136587900D01*
X250913780Y-136587900D01*
X250808736Y-136598246D01*
X250673958Y-136639130D01*
X250549746Y-136705523D01*
X250549744Y-136705524D01*
X250549745Y-136705524D01*
X250468152Y-136772485D01*
X250468148Y-136772489D01*
X250440873Y-136794873D01*
X250418488Y-136822149D01*
X249299900Y-137940738D01*
X249299900Y-137354790D01*
X249311162Y-137343528D01*
X249413486Y-137190389D01*
X249483968Y-137020229D01*
X249519900Y-136839589D01*
X249519900Y-136655411D01*
X249483968Y-136474771D01*
X249413486Y-136304611D01*
X249311162Y-136151472D01*
X249180928Y-136021238D01*
X249027789Y-135918914D01*
X248857629Y-135848432D01*
X248676989Y-135812500D01*
X248492811Y-135812500D01*
X248312171Y-135848432D01*
X248142011Y-135918914D01*
X247988872Y-136021238D01*
X247858638Y-136151472D01*
X247756314Y-136304611D01*
X247685832Y-136474771D01*
X247649900Y-136655411D01*
X247649900Y-136839589D01*
X247685832Y-137020229D01*
X247756314Y-137190389D01*
X247823288Y-137290622D01*
X247656729Y-137221632D01*
X247476089Y-137185700D01*
X247291911Y-137185700D01*
X247111271Y-137221632D01*
X246941111Y-137292114D01*
X246787972Y-137394438D01*
X246657738Y-137524672D01*
X246555414Y-137677811D01*
X246484932Y-137847971D01*
X246449000Y-138028611D01*
X246449000Y-138212789D01*
X246484932Y-138393429D01*
X246555414Y-138563589D01*
X246657738Y-138716728D01*
X246787972Y-138846962D01*
X246941111Y-138949286D01*
X247111271Y-139019768D01*
X247291911Y-139055700D01*
X247476089Y-139055700D01*
X247656729Y-139019768D01*
X247826889Y-138949286D01*
X247869901Y-138920547D01*
X247869901Y-139625537D01*
X247027255Y-140468184D01*
X246999973Y-140490574D01*
X246910623Y-140599447D01*
X246844230Y-140723659D01*
X246803346Y-140858437D01*
X246793000Y-140963481D01*
X246793000Y-140963490D01*
X246789542Y-140998600D01*
X246793000Y-141033710D01*
X246793001Y-145341380D01*
X246789542Y-145376500D01*
X246793001Y-145411620D01*
X246803347Y-145516664D01*
X246844231Y-145651442D01*
X246910624Y-145775654D01*
X246999974Y-145884527D01*
X247027255Y-145906916D01*
X248990745Y-147870407D01*
X248899711Y-147908114D01*
X248746572Y-148010438D01*
X248616338Y-148140672D01*
X248514014Y-148293811D01*
X248443532Y-148463971D01*
X248427096Y-148546600D01*
X247509843Y-148546600D01*
X247493486Y-148507111D01*
X247391162Y-148353972D01*
X247260928Y-148223738D01*
X247107789Y-148121414D01*
X247102901Y-148119389D01*
X247226262Y-147996028D01*
X247328586Y-147842889D01*
X247399068Y-147672729D01*
X247435000Y-147492089D01*
X247435000Y-147307911D01*
X247399068Y-147127271D01*
X247328586Y-146957111D01*
X247226262Y-146803972D01*
X247096028Y-146673738D01*
X246942889Y-146571414D01*
X246772729Y-146500932D01*
X246592089Y-146465000D01*
X246407911Y-146465000D01*
X246227271Y-146500932D01*
X246057111Y-146571414D01*
X245903972Y-146673738D01*
X245801300Y-146776410D01*
X245801300Y-135581009D01*
X245804758Y-135545899D01*
X245801300Y-135510789D01*
X245801300Y-135510780D01*
X245790954Y-135405736D01*
X245750070Y-135270958D01*
X245683677Y-135146746D01*
X245627581Y-135078394D01*
X245616714Y-135065152D01*
X245616712Y-135065150D01*
X245594326Y-135037873D01*
X245567050Y-135015488D01*
X245129270Y-134577709D01*
X245173966Y-134601599D01*
X245453889Y-134686513D01*
X245672050Y-134708000D01*
X245817950Y-134708000D01*
X246036111Y-134686513D01*
X246316034Y-134601599D01*
X246574014Y-134463706D01*
X246800134Y-134278134D01*
X246985706Y-134052014D01*
X247015000Y-133997209D01*
X247044294Y-134052014D01*
X247229866Y-134278134D01*
X247455986Y-134463706D01*
X247713966Y-134601599D01*
X247993889Y-134686513D01*
X248212050Y-134708000D01*
X248357950Y-134708000D01*
X248576111Y-134686513D01*
X248856034Y-134601599D01*
X249114014Y-134463706D01*
X249340134Y-134278134D01*
X249525706Y-134052014D01*
X249555000Y-133997209D01*
X249584294Y-134052014D01*
X249769866Y-134278134D01*
X249995986Y-134463706D01*
X250253966Y-134601599D01*
X250533889Y-134686513D01*
X250752050Y-134708000D01*
X250897950Y-134708000D01*
X251116111Y-134686513D01*
X251396034Y-134601599D01*
X251654014Y-134463706D01*
X251880134Y-134278134D01*
X252065706Y-134052014D01*
X252095000Y-133997209D01*
X252124294Y-134052014D01*
X252309866Y-134278134D01*
X252535986Y-134463706D01*
X252793966Y-134601599D01*
X253073889Y-134686513D01*
X253292050Y-134708000D01*
X253437950Y-134708000D01*
X253656111Y-134686513D01*
X253936034Y-134601599D01*
X254194014Y-134463706D01*
X254420134Y-134278134D01*
X254605706Y-134052014D01*
X254635000Y-133997209D01*
X254664294Y-134052014D01*
X254664294Y-134052014D01*
G37*
X254664294Y-134052014D02*
X254849866Y-134278134D01*
X255075986Y-134463706D01*
X255333966Y-134601599D01*
X255613889Y-134686513D01*
X255832050Y-134708000D01*
X255977950Y-134708000D01*
X256196111Y-134686513D01*
X256476034Y-134601599D01*
X256633401Y-134517485D01*
X256633400Y-140915262D01*
X256558729Y-140884332D01*
X256378089Y-140848400D01*
X256362163Y-140848400D01*
X252335920Y-136822159D01*
X252313527Y-136794873D01*
X252204654Y-136705523D01*
X252080442Y-136639130D01*
X251945664Y-136598246D01*
X251840620Y-136587900D01*
X251840610Y-136587900D01*
X251805500Y-136584442D01*
X251770390Y-136587900D01*
X250984010Y-136587900D01*
X250948900Y-136584442D01*
X250913790Y-136587900D01*
X250913780Y-136587900D01*
X250808736Y-136598246D01*
X250673958Y-136639130D01*
X250549746Y-136705523D01*
X250549744Y-136705524D01*
X250549745Y-136705524D01*
X250468152Y-136772485D01*
X250468148Y-136772489D01*
X250440873Y-136794873D01*
X250418488Y-136822149D01*
X249299900Y-137940738D01*
X249299900Y-137354790D01*
X249311162Y-137343528D01*
X249413486Y-137190389D01*
X249483968Y-137020229D01*
X249519900Y-136839589D01*
X249519900Y-136655411D01*
X249483968Y-136474771D01*
X249413486Y-136304611D01*
X249311162Y-136151472D01*
X249180928Y-136021238D01*
X249027789Y-135918914D01*
X248857629Y-135848432D01*
X248676989Y-135812500D01*
X248492811Y-135812500D01*
X248312171Y-135848432D01*
X248142011Y-135918914D01*
X247988872Y-136021238D01*
X247858638Y-136151472D01*
X247756314Y-136304611D01*
X247685832Y-136474771D01*
X247649900Y-136655411D01*
X247649900Y-136839589D01*
X247685832Y-137020229D01*
X247756314Y-137190389D01*
X247823288Y-137290622D01*
X247656729Y-137221632D01*
X247476089Y-137185700D01*
X247291911Y-137185700D01*
X247111271Y-137221632D01*
X246941111Y-137292114D01*
X246787972Y-137394438D01*
X246657738Y-137524672D01*
X246555414Y-137677811D01*
X246484932Y-137847971D01*
X246449000Y-138028611D01*
X246449000Y-138212789D01*
X246484932Y-138393429D01*
X246555414Y-138563589D01*
X246657738Y-138716728D01*
X246787972Y-138846962D01*
X246941111Y-138949286D01*
X247111271Y-139019768D01*
X247291911Y-139055700D01*
X247476089Y-139055700D01*
X247656729Y-139019768D01*
X247826889Y-138949286D01*
X247869901Y-138920547D01*
X247869901Y-139625537D01*
X247027255Y-140468184D01*
X246999973Y-140490574D01*
X246910623Y-140599447D01*
X246844230Y-140723659D01*
X246803346Y-140858437D01*
X246793000Y-140963481D01*
X246793000Y-140963490D01*
X246789542Y-140998600D01*
X246793000Y-141033710D01*
X246793001Y-145341380D01*
X246789542Y-145376500D01*
X246793001Y-145411620D01*
X246803347Y-145516664D01*
X246844231Y-145651442D01*
X246910624Y-145775654D01*
X246999974Y-145884527D01*
X247027255Y-145906916D01*
X248990745Y-147870407D01*
X248899711Y-147908114D01*
X248746572Y-148010438D01*
X248616338Y-148140672D01*
X248514014Y-148293811D01*
X248443532Y-148463971D01*
X248427096Y-148546600D01*
X247509843Y-148546600D01*
X247493486Y-148507111D01*
X247391162Y-148353972D01*
X247260928Y-148223738D01*
X247107789Y-148121414D01*
X247102901Y-148119389D01*
X247226262Y-147996028D01*
X247328586Y-147842889D01*
X247399068Y-147672729D01*
X247435000Y-147492089D01*
X247435000Y-147307911D01*
X247399068Y-147127271D01*
X247328586Y-146957111D01*
X247226262Y-146803972D01*
X247096028Y-146673738D01*
X246942889Y-146571414D01*
X246772729Y-146500932D01*
X246592089Y-146465000D01*
X246407911Y-146465000D01*
X246227271Y-146500932D01*
X246057111Y-146571414D01*
X245903972Y-146673738D01*
X245801300Y-146776410D01*
X245801300Y-135581009D01*
X245804758Y-135545899D01*
X245801300Y-135510789D01*
X245801300Y-135510780D01*
X245790954Y-135405736D01*
X245750070Y-135270958D01*
X245683677Y-135146746D01*
X245627581Y-135078394D01*
X245616714Y-135065152D01*
X245616712Y-135065150D01*
X245594326Y-135037873D01*
X245567050Y-135015488D01*
X245129270Y-134577709D01*
X245173966Y-134601599D01*
X245453889Y-134686513D01*
X245672050Y-134708000D01*
X245817950Y-134708000D01*
X246036111Y-134686513D01*
X246316034Y-134601599D01*
X246574014Y-134463706D01*
X246800134Y-134278134D01*
X246985706Y-134052014D01*
X247015000Y-133997209D01*
X247044294Y-134052014D01*
X247229866Y-134278134D01*
X247455986Y-134463706D01*
X247713966Y-134601599D01*
X247993889Y-134686513D01*
X248212050Y-134708000D01*
X248357950Y-134708000D01*
X248576111Y-134686513D01*
X248856034Y-134601599D01*
X249114014Y-134463706D01*
X249340134Y-134278134D01*
X249525706Y-134052014D01*
X249555000Y-133997209D01*
X249584294Y-134052014D01*
X249769866Y-134278134D01*
X249995986Y-134463706D01*
X250253966Y-134601599D01*
X250533889Y-134686513D01*
X250752050Y-134708000D01*
X250897950Y-134708000D01*
X251116111Y-134686513D01*
X251396034Y-134601599D01*
X251654014Y-134463706D01*
X251880134Y-134278134D01*
X252065706Y-134052014D01*
X252095000Y-133997209D01*
X252124294Y-134052014D01*
X252309866Y-134278134D01*
X252535986Y-134463706D01*
X252793966Y-134601599D01*
X253073889Y-134686513D01*
X253292050Y-134708000D01*
X253437950Y-134708000D01*
X253656111Y-134686513D01*
X253936034Y-134601599D01*
X254194014Y-134463706D01*
X254420134Y-134278134D01*
X254605706Y-134052014D01*
X254635000Y-133997209D01*
X254664294Y-134052014D01*
G36*
X255351000Y-141859563D02*
G01*
X255351000Y-141875489D01*
X255386932Y-142056129D01*
X255457414Y-142226289D01*
X255559738Y-142379428D01*
X255689972Y-142509662D01*
X255843111Y-142611986D01*
X256013271Y-142682468D01*
X256193911Y-142718400D01*
X256378089Y-142718400D01*
X256558729Y-142682468D01*
X256633400Y-142651538D01*
X256633400Y-143181637D01*
X254621200Y-145193839D01*
X254621200Y-144523490D01*
X254632462Y-144512228D01*
X254734786Y-144359089D01*
X254805268Y-144188929D01*
X254841200Y-144008289D01*
X254841200Y-143824111D01*
X254805268Y-143643471D01*
X254734786Y-143473311D01*
X254632462Y-143320172D01*
X254502228Y-143189938D01*
X254349089Y-143087614D01*
X254178929Y-143017132D01*
X254038400Y-142989179D01*
X254038400Y-142747262D01*
X254528851Y-142256812D01*
X254556127Y-142234427D01*
X254578511Y-142207152D01*
X254578515Y-142207148D01*
X254645476Y-142125555D01*
X254647987Y-142120858D01*
X254711870Y-142001342D01*
X254741569Y-141903438D01*
X254752754Y-141866565D01*
X254756391Y-141829638D01*
X254763100Y-141761520D01*
X254763100Y-141761512D01*
X254766558Y-141726400D01*
X254763100Y-141691288D01*
X254763100Y-141271663D01*
X255351000Y-141859563D01*
X255351000Y-141859563D01*
G37*
X255351000Y-141859563D02*
X255351000Y-141875489D01*
X255386932Y-142056129D01*
X255457414Y-142226289D01*
X255559738Y-142379428D01*
X255689972Y-142509662D01*
X255843111Y-142611986D01*
X256013271Y-142682468D01*
X256193911Y-142718400D01*
X256378089Y-142718400D01*
X256558729Y-142682468D01*
X256633400Y-142651538D01*
X256633400Y-143181637D01*
X254621200Y-145193839D01*
X254621200Y-144523490D01*
X254632462Y-144512228D01*
X254734786Y-144359089D01*
X254805268Y-144188929D01*
X254841200Y-144008289D01*
X254841200Y-143824111D01*
X254805268Y-143643471D01*
X254734786Y-143473311D01*
X254632462Y-143320172D01*
X254502228Y-143189938D01*
X254349089Y-143087614D01*
X254178929Y-143017132D01*
X254038400Y-142989179D01*
X254038400Y-142747262D01*
X254528851Y-142256812D01*
X254556127Y-142234427D01*
X254578511Y-142207152D01*
X254578515Y-142207148D01*
X254645476Y-142125555D01*
X254647987Y-142120858D01*
X254711870Y-142001342D01*
X254741569Y-141903438D01*
X254752754Y-141866565D01*
X254756391Y-141829638D01*
X254763100Y-141761520D01*
X254763100Y-141761512D01*
X254766558Y-141726400D01*
X254763100Y-141691288D01*
X254763100Y-141271663D01*
X255351000Y-141859563D01*
G36*
X258153889Y-134686513D02*
G01*
X258273000Y-134698244D01*
X258273000Y-143760118D01*
X258112729Y-143693732D01*
X258034774Y-143678226D01*
X258053054Y-143617964D01*
X258063400Y-143512920D01*
X258063400Y-143512910D01*
X258066858Y-143477800D01*
X258063400Y-143442690D01*
X258063400Y-134659063D01*
X258153889Y-134686513D01*
X258153889Y-134686513D01*
G37*
X258153889Y-134686513D02*
X258273000Y-134698244D01*
X258273000Y-143760118D01*
X258112729Y-143693732D01*
X258034774Y-143678226D01*
X258053054Y-143617964D01*
X258063400Y-143512920D01*
X258063400Y-143512910D01*
X258066858Y-143477800D01*
X258063400Y-143442690D01*
X258063400Y-134659063D01*
X258153889Y-134686513D01*
M02*
