M48
; DRILL file {KiCad (5.1.4)-1} date 11/20/2019 7:39:04 PM
; FORMAT={-:-/ absolute / inch / decimal}
; #@! TF.CreationDate,2019-11-20T19:39:04+01:00
; #@! TF.GenerationSoftware,Kicad,Pcbnew,(5.1.4)-1
; #@! TF.FileFunction,Plated,1,4,PTH
FMAT,2
INCH
T1C0.0118
T2C0.0394
%
G90
G05
T1
X8.4685Y-5.7382
X8.4685Y-5.8543
X8.5236Y-5.7953
X8.54Y-5.6724
X8.6073Y-5.4754
X8.6284Y-5.5956
X8.6284Y-5.7138
X8.6313Y-5.8716
X8.696Y-5.2451
X8.722Y-5.9355
X8.7823Y-5.6442
X8.7996Y-5.5444
X8.8048Y-5.3289
X8.8468Y-5.8522
X8.8723Y-5.6503
X8.8723Y-5.775
X8.8729Y-5.5234
X8.9338Y-5.2438
X8.9371Y-5.9337
X8.9904Y-5.3274
X9.0314Y-5.6503
X9.0314Y-5.775
X9.032Y-5.5227
X9.0336Y-5.8515
X9.1294Y-5.9337
X9.1832Y-5.326
X9.1879Y-5.5229
X9.1893Y-5.6497
X9.1899Y-5.7756
X9.2152Y-5.8511
X9.376Y-5.3256
X9.4014Y-5.5051
X9.412Y-5.6153
X9.4218Y-5.7524
X9.4859Y-5.3497
X9.4976Y-5.5859
X9.5748Y-5.8091
X9.5748Y-5.9272
X9.6068Y-5.6881
X9.6081Y-5.5656
X9.6151Y-5.4056
X9.6155Y-5.3359
X9.6227Y-5.6124
X9.6236Y-5.8643
X9.7025Y-5.5276
X9.7047Y-5.8031
X9.7112Y-5.8642
X9.7126Y-5.9469
X9.7245Y-5.3792
X9.7395Y-5.4378
X9.7715Y-5.8535
X9.7817Y-5.6675
X9.7868Y-5.3838
X9.7915Y-5.5939
X9.8166Y-5.8558
X9.8418Y-5.9168
X9.8464Y-5.9488
X9.8484Y-5.8574
X9.8547Y-5.6724
X9.8914Y-5.4294
X9.9043Y-5.5009
X9.9141Y-5.5364
X9.9189Y-5.4539
X9.9789Y-5.5625
X9.9963Y-5.666
X9.9995Y-5.6322
X10.0226Y-5.7763
X10.09Y-5.3857
X10.09Y-5.582
X10.0905Y-5.7488
X10.1229Y-5.8695
X10.1512Y-5.6926
X10.1551Y-5.9702
X10.1551Y-5.9702
X10.1558Y-5.5803
T2
X8.675Y-6.045
X8.775Y-6.045
X8.875Y-6.045
X8.975Y-6.045
X9.075Y-6.045
X9.175Y-6.045
X9.275Y-6.045
X9.375Y-6.045
X9.475Y-6.045
X9.575Y-6.045
X9.675Y-6.045
X9.775Y-6.045
X9.875Y-6.045
X9.975Y-6.045
X10.075Y-6.045
X10.175Y-6.045
X9.075Y-5.245
X9.175Y-5.245
X9.275Y-5.245
X9.375Y-5.245
X9.475Y-5.245
X9.575Y-5.245
X9.675Y-5.245
X9.775Y-5.245
X9.875Y-5.245
X9.975Y-5.245
X10.075Y-5.245
X10.175Y-5.245
T0
M30
