G04 #@! TF.GenerationSoftware,KiCad,Pcbnew,(5.1.4)-1*
G04 #@! TF.CreationDate,2019-11-20T19:39:54+01:00*
G04 #@! TF.ProjectId,Open_Telemetry_digitalSensorShield,4f70656e-5f54-4656-9c65-6d657472795f,P1A_02 - Prototype manuf.*
G04 #@! TF.SameCoordinates,Original*
G04 #@! TF.FileFunction,Copper,L1,Top*
G04 #@! TF.FilePolarity,Positive*
%FSLAX46Y46*%
G04 Gerber Fmt 4.6, Leading zero omitted, Abs format (unit mm)*
G04 Created by KiCad (PCBNEW (5.1.4)-1) date 2019-11-20 19:39:54*
%MOMM*%
%LPD*%
G04 APERTURE LIST*
%ADD10R,0.420000X0.440000*%
%ADD11R,1.400000X1.000000*%
%ADD12R,0.440000X0.420000*%
%ADD13R,0.350000X0.500000*%
%ADD14R,1.000000X1.000000*%
%ADD15R,2.200000X1.050000*%
%ADD16R,2.500000X1.000000*%
%ADD17R,0.750000X0.600000*%
%ADD18R,0.600000X0.750000*%
%ADD19R,0.620000X0.650000*%
%ADD20O,1.700000X1.700000*%
%ADD21R,1.700000X1.700000*%
%ADD22R,2.250000X1.700000*%
%ADD23R,0.950000X0.850000*%
%ADD24R,0.800000X0.800000*%
%ADD25R,0.650000X0.400000*%
%ADD26C,0.100000*%
%ADD27C,0.200000*%
%ADD28R,0.780000X0.980000*%
%ADD29R,0.980000X0.780000*%
%ADD30R,1.100000X1.500000*%
%ADD31C,0.600000*%
%ADD32C,0.160000*%
%ADD33C,0.200000*%
%ADD34C,0.300000*%
%ADD35C,1.400000*%
%ADD36C,0.254000*%
G04 APERTURE END LIST*
D10*
X259013960Y-149979020D03*
X259013960Y-149299020D03*
X259006340Y-151586840D03*
X259006340Y-150906840D03*
X259024120Y-137594340D03*
X259024120Y-136914340D03*
X259029200Y-135968380D03*
X259029200Y-135288380D03*
D11*
X256214880Y-151269580D03*
X256214880Y-144269580D03*
X256214880Y-142407520D03*
X256214880Y-135407520D03*
D12*
X245840000Y-141800000D03*
X245160000Y-141800000D03*
D13*
X247525000Y-149500000D03*
X248175000Y-147900000D03*
X248825000Y-147900000D03*
X249475000Y-147900000D03*
X248175000Y-149500000D03*
X248825000Y-149500000D03*
X249475000Y-149500000D03*
X247525000Y-147900000D03*
D14*
X218416000Y-147218000D03*
X215416000Y-147218000D03*
D15*
X216916000Y-145743000D03*
X216916000Y-148693000D03*
D16*
X237039000Y-149758000D03*
X237039000Y-147218000D03*
X237039000Y-144678000D03*
X237039000Y-142138000D03*
X237039000Y-139598000D03*
X237039000Y-137058000D03*
X221539000Y-137058000D03*
X221539000Y-139598000D03*
X221539000Y-142138000D03*
X221539000Y-144678000D03*
X221539000Y-147218000D03*
X221539000Y-149758000D03*
D17*
X247870000Y-135560000D03*
X248970000Y-135560000D03*
X248047420Y-146390360D03*
X249147420Y-146390360D03*
D12*
X245840000Y-151050000D03*
X245160000Y-151050000D03*
D10*
X257840000Y-143870000D03*
X257840000Y-143190000D03*
D17*
X251770000Y-151700000D03*
X252870000Y-151700000D03*
D18*
X251250000Y-143550000D03*
X251250000Y-144650000D03*
D12*
X250490000Y-135370000D03*
X251170000Y-135370000D03*
X245160000Y-145800000D03*
X245840000Y-145800000D03*
X245160000Y-146800000D03*
X245840000Y-146800000D03*
X245160000Y-144800000D03*
X245840000Y-144800000D03*
X245160000Y-143800000D03*
X245840000Y-143800000D03*
X245160000Y-150000000D03*
X245840000Y-150000000D03*
D19*
X245500000Y-139560000D03*
X245500000Y-140440000D03*
D20*
X258445000Y-133223000D03*
X255905000Y-133223000D03*
X253365000Y-133223000D03*
X250825000Y-133223000D03*
X248285000Y-133223000D03*
X245745000Y-133223000D03*
X243205000Y-133223000D03*
X240665000Y-133223000D03*
X238125000Y-133223000D03*
X235585000Y-133223000D03*
X233045000Y-133223000D03*
D21*
X230505000Y-133223000D03*
D20*
X220345000Y-153543000D03*
X222885000Y-153543000D03*
X225425000Y-153543000D03*
X227965000Y-153543000D03*
X230505000Y-153543000D03*
X233045000Y-153543000D03*
X235585000Y-153543000D03*
X238125000Y-153543000D03*
X240665000Y-153543000D03*
X243205000Y-153543000D03*
X245745000Y-153543000D03*
X248285000Y-153543000D03*
X250825000Y-153543000D03*
X253365000Y-153543000D03*
X255905000Y-153543000D03*
D21*
X258445000Y-153543000D03*
D22*
X241500000Y-150530000D03*
X241500000Y-147530000D03*
X242600000Y-135800000D03*
X242600000Y-138800000D03*
X216967000Y-142165000D03*
X216967000Y-139165000D03*
D23*
X253060000Y-138748000D03*
X253060000Y-140348000D03*
D24*
X253086000Y-144767000D03*
X253086000Y-143117000D03*
D25*
X247580000Y-143710000D03*
X247580000Y-145010000D03*
X249480000Y-144360000D03*
X247580000Y-144360000D03*
X249480000Y-145010000D03*
X249480000Y-143710000D03*
D12*
X245840000Y-148950000D03*
X245160000Y-148950000D03*
X245160000Y-142800000D03*
X245840000Y-142800000D03*
D26*
G36*
X251005901Y-138702241D02*
G01*
X251010755Y-138702961D01*
X251015514Y-138704153D01*
X251020134Y-138705806D01*
X251024570Y-138707904D01*
X251028779Y-138710427D01*
X251032720Y-138713349D01*
X251036355Y-138716645D01*
X251039651Y-138720280D01*
X251042573Y-138724221D01*
X251045096Y-138728430D01*
X251047194Y-138732866D01*
X251048847Y-138737486D01*
X251050039Y-138742245D01*
X251050759Y-138747099D01*
X251051000Y-138752000D01*
X251051000Y-138852000D01*
X251050759Y-138856901D01*
X251050039Y-138861755D01*
X251048847Y-138866514D01*
X251047194Y-138871134D01*
X251045096Y-138875570D01*
X251042573Y-138879779D01*
X251039651Y-138883720D01*
X251036355Y-138887355D01*
X251032720Y-138890651D01*
X251028779Y-138893573D01*
X251024570Y-138896096D01*
X251020134Y-138898194D01*
X251015514Y-138899847D01*
X251010755Y-138901039D01*
X251005901Y-138901759D01*
X251001000Y-138902000D01*
X250551000Y-138902000D01*
X250546099Y-138901759D01*
X250541245Y-138901039D01*
X250536486Y-138899847D01*
X250531866Y-138898194D01*
X250527430Y-138896096D01*
X250523221Y-138893573D01*
X250519280Y-138890651D01*
X250515645Y-138887355D01*
X250512349Y-138883720D01*
X250509427Y-138879779D01*
X250506904Y-138875570D01*
X250504806Y-138871134D01*
X250503153Y-138866514D01*
X250501961Y-138861755D01*
X250501241Y-138856901D01*
X250501000Y-138852000D01*
X250501000Y-138752000D01*
X250501241Y-138747099D01*
X250501961Y-138742245D01*
X250503153Y-138737486D01*
X250504806Y-138732866D01*
X250506904Y-138728430D01*
X250509427Y-138724221D01*
X250512349Y-138720280D01*
X250515645Y-138716645D01*
X250519280Y-138713349D01*
X250523221Y-138710427D01*
X250527430Y-138707904D01*
X250531866Y-138705806D01*
X250536486Y-138704153D01*
X250541245Y-138702961D01*
X250546099Y-138702241D01*
X250551000Y-138702000D01*
X251001000Y-138702000D01*
X251005901Y-138702241D01*
X251005901Y-138702241D01*
G37*
D27*
X250776000Y-138802000D03*
D26*
G36*
X251005901Y-139102241D02*
G01*
X251010755Y-139102961D01*
X251015514Y-139104153D01*
X251020134Y-139105806D01*
X251024570Y-139107904D01*
X251028779Y-139110427D01*
X251032720Y-139113349D01*
X251036355Y-139116645D01*
X251039651Y-139120280D01*
X251042573Y-139124221D01*
X251045096Y-139128430D01*
X251047194Y-139132866D01*
X251048847Y-139137486D01*
X251050039Y-139142245D01*
X251050759Y-139147099D01*
X251051000Y-139152000D01*
X251051000Y-139252000D01*
X251050759Y-139256901D01*
X251050039Y-139261755D01*
X251048847Y-139266514D01*
X251047194Y-139271134D01*
X251045096Y-139275570D01*
X251042573Y-139279779D01*
X251039651Y-139283720D01*
X251036355Y-139287355D01*
X251032720Y-139290651D01*
X251028779Y-139293573D01*
X251024570Y-139296096D01*
X251020134Y-139298194D01*
X251015514Y-139299847D01*
X251010755Y-139301039D01*
X251005901Y-139301759D01*
X251001000Y-139302000D01*
X250551000Y-139302000D01*
X250546099Y-139301759D01*
X250541245Y-139301039D01*
X250536486Y-139299847D01*
X250531866Y-139298194D01*
X250527430Y-139296096D01*
X250523221Y-139293573D01*
X250519280Y-139290651D01*
X250515645Y-139287355D01*
X250512349Y-139283720D01*
X250509427Y-139279779D01*
X250506904Y-139275570D01*
X250504806Y-139271134D01*
X250503153Y-139266514D01*
X250501961Y-139261755D01*
X250501241Y-139256901D01*
X250501000Y-139252000D01*
X250501000Y-139152000D01*
X250501241Y-139147099D01*
X250501961Y-139142245D01*
X250503153Y-139137486D01*
X250504806Y-139132866D01*
X250506904Y-139128430D01*
X250509427Y-139124221D01*
X250512349Y-139120280D01*
X250515645Y-139116645D01*
X250519280Y-139113349D01*
X250523221Y-139110427D01*
X250527430Y-139107904D01*
X250531866Y-139105806D01*
X250536486Y-139104153D01*
X250541245Y-139102961D01*
X250546099Y-139102241D01*
X250551000Y-139102000D01*
X251001000Y-139102000D01*
X251005901Y-139102241D01*
X251005901Y-139102241D01*
G37*
D27*
X250776000Y-139202000D03*
D26*
G36*
X251005901Y-139502241D02*
G01*
X251010755Y-139502961D01*
X251015514Y-139504153D01*
X251020134Y-139505806D01*
X251024570Y-139507904D01*
X251028779Y-139510427D01*
X251032720Y-139513349D01*
X251036355Y-139516645D01*
X251039651Y-139520280D01*
X251042573Y-139524221D01*
X251045096Y-139528430D01*
X251047194Y-139532866D01*
X251048847Y-139537486D01*
X251050039Y-139542245D01*
X251050759Y-139547099D01*
X251051000Y-139552000D01*
X251051000Y-139652000D01*
X251050759Y-139656901D01*
X251050039Y-139661755D01*
X251048847Y-139666514D01*
X251047194Y-139671134D01*
X251045096Y-139675570D01*
X251042573Y-139679779D01*
X251039651Y-139683720D01*
X251036355Y-139687355D01*
X251032720Y-139690651D01*
X251028779Y-139693573D01*
X251024570Y-139696096D01*
X251020134Y-139698194D01*
X251015514Y-139699847D01*
X251010755Y-139701039D01*
X251005901Y-139701759D01*
X251001000Y-139702000D01*
X250551000Y-139702000D01*
X250546099Y-139701759D01*
X250541245Y-139701039D01*
X250536486Y-139699847D01*
X250531866Y-139698194D01*
X250527430Y-139696096D01*
X250523221Y-139693573D01*
X250519280Y-139690651D01*
X250515645Y-139687355D01*
X250512349Y-139683720D01*
X250509427Y-139679779D01*
X250506904Y-139675570D01*
X250504806Y-139671134D01*
X250503153Y-139666514D01*
X250501961Y-139661755D01*
X250501241Y-139656901D01*
X250501000Y-139652000D01*
X250501000Y-139552000D01*
X250501241Y-139547099D01*
X250501961Y-139542245D01*
X250503153Y-139537486D01*
X250504806Y-139532866D01*
X250506904Y-139528430D01*
X250509427Y-139524221D01*
X250512349Y-139520280D01*
X250515645Y-139516645D01*
X250519280Y-139513349D01*
X250523221Y-139510427D01*
X250527430Y-139507904D01*
X250531866Y-139505806D01*
X250536486Y-139504153D01*
X250541245Y-139502961D01*
X250546099Y-139502241D01*
X250551000Y-139502000D01*
X251001000Y-139502000D01*
X251005901Y-139502241D01*
X251005901Y-139502241D01*
G37*
D27*
X250776000Y-139602000D03*
D26*
G36*
X251005901Y-139902241D02*
G01*
X251010755Y-139902961D01*
X251015514Y-139904153D01*
X251020134Y-139905806D01*
X251024570Y-139907904D01*
X251028779Y-139910427D01*
X251032720Y-139913349D01*
X251036355Y-139916645D01*
X251039651Y-139920280D01*
X251042573Y-139924221D01*
X251045096Y-139928430D01*
X251047194Y-139932866D01*
X251048847Y-139937486D01*
X251050039Y-139942245D01*
X251050759Y-139947099D01*
X251051000Y-139952000D01*
X251051000Y-140052000D01*
X251050759Y-140056901D01*
X251050039Y-140061755D01*
X251048847Y-140066514D01*
X251047194Y-140071134D01*
X251045096Y-140075570D01*
X251042573Y-140079779D01*
X251039651Y-140083720D01*
X251036355Y-140087355D01*
X251032720Y-140090651D01*
X251028779Y-140093573D01*
X251024570Y-140096096D01*
X251020134Y-140098194D01*
X251015514Y-140099847D01*
X251010755Y-140101039D01*
X251005901Y-140101759D01*
X251001000Y-140102000D01*
X250551000Y-140102000D01*
X250546099Y-140101759D01*
X250541245Y-140101039D01*
X250536486Y-140099847D01*
X250531866Y-140098194D01*
X250527430Y-140096096D01*
X250523221Y-140093573D01*
X250519280Y-140090651D01*
X250515645Y-140087355D01*
X250512349Y-140083720D01*
X250509427Y-140079779D01*
X250506904Y-140075570D01*
X250504806Y-140071134D01*
X250503153Y-140066514D01*
X250501961Y-140061755D01*
X250501241Y-140056901D01*
X250501000Y-140052000D01*
X250501000Y-139952000D01*
X250501241Y-139947099D01*
X250501961Y-139942245D01*
X250503153Y-139937486D01*
X250504806Y-139932866D01*
X250506904Y-139928430D01*
X250509427Y-139924221D01*
X250512349Y-139920280D01*
X250515645Y-139916645D01*
X250519280Y-139913349D01*
X250523221Y-139910427D01*
X250527430Y-139907904D01*
X250531866Y-139905806D01*
X250536486Y-139904153D01*
X250541245Y-139902961D01*
X250546099Y-139902241D01*
X250551000Y-139902000D01*
X251001000Y-139902000D01*
X251005901Y-139902241D01*
X251005901Y-139902241D01*
G37*
D27*
X250776000Y-140002000D03*
D26*
G36*
X251005901Y-140302241D02*
G01*
X251010755Y-140302961D01*
X251015514Y-140304153D01*
X251020134Y-140305806D01*
X251024570Y-140307904D01*
X251028779Y-140310427D01*
X251032720Y-140313349D01*
X251036355Y-140316645D01*
X251039651Y-140320280D01*
X251042573Y-140324221D01*
X251045096Y-140328430D01*
X251047194Y-140332866D01*
X251048847Y-140337486D01*
X251050039Y-140342245D01*
X251050759Y-140347099D01*
X251051000Y-140352000D01*
X251051000Y-140452000D01*
X251050759Y-140456901D01*
X251050039Y-140461755D01*
X251048847Y-140466514D01*
X251047194Y-140471134D01*
X251045096Y-140475570D01*
X251042573Y-140479779D01*
X251039651Y-140483720D01*
X251036355Y-140487355D01*
X251032720Y-140490651D01*
X251028779Y-140493573D01*
X251024570Y-140496096D01*
X251020134Y-140498194D01*
X251015514Y-140499847D01*
X251010755Y-140501039D01*
X251005901Y-140501759D01*
X251001000Y-140502000D01*
X250551000Y-140502000D01*
X250546099Y-140501759D01*
X250541245Y-140501039D01*
X250536486Y-140499847D01*
X250531866Y-140498194D01*
X250527430Y-140496096D01*
X250523221Y-140493573D01*
X250519280Y-140490651D01*
X250515645Y-140487355D01*
X250512349Y-140483720D01*
X250509427Y-140479779D01*
X250506904Y-140475570D01*
X250504806Y-140471134D01*
X250503153Y-140466514D01*
X250501961Y-140461755D01*
X250501241Y-140456901D01*
X250501000Y-140452000D01*
X250501000Y-140352000D01*
X250501241Y-140347099D01*
X250501961Y-140342245D01*
X250503153Y-140337486D01*
X250504806Y-140332866D01*
X250506904Y-140328430D01*
X250509427Y-140324221D01*
X250512349Y-140320280D01*
X250515645Y-140316645D01*
X250519280Y-140313349D01*
X250523221Y-140310427D01*
X250527430Y-140307904D01*
X250531866Y-140305806D01*
X250536486Y-140304153D01*
X250541245Y-140302961D01*
X250546099Y-140302241D01*
X250551000Y-140302000D01*
X251001000Y-140302000D01*
X251005901Y-140302241D01*
X251005901Y-140302241D01*
G37*
D27*
X250776000Y-140402000D03*
D26*
G36*
X251005901Y-140702241D02*
G01*
X251010755Y-140702961D01*
X251015514Y-140704153D01*
X251020134Y-140705806D01*
X251024570Y-140707904D01*
X251028779Y-140710427D01*
X251032720Y-140713349D01*
X251036355Y-140716645D01*
X251039651Y-140720280D01*
X251042573Y-140724221D01*
X251045096Y-140728430D01*
X251047194Y-140732866D01*
X251048847Y-140737486D01*
X251050039Y-140742245D01*
X251050759Y-140747099D01*
X251051000Y-140752000D01*
X251051000Y-140852000D01*
X251050759Y-140856901D01*
X251050039Y-140861755D01*
X251048847Y-140866514D01*
X251047194Y-140871134D01*
X251045096Y-140875570D01*
X251042573Y-140879779D01*
X251039651Y-140883720D01*
X251036355Y-140887355D01*
X251032720Y-140890651D01*
X251028779Y-140893573D01*
X251024570Y-140896096D01*
X251020134Y-140898194D01*
X251015514Y-140899847D01*
X251010755Y-140901039D01*
X251005901Y-140901759D01*
X251001000Y-140902000D01*
X250551000Y-140902000D01*
X250546099Y-140901759D01*
X250541245Y-140901039D01*
X250536486Y-140899847D01*
X250531866Y-140898194D01*
X250527430Y-140896096D01*
X250523221Y-140893573D01*
X250519280Y-140890651D01*
X250515645Y-140887355D01*
X250512349Y-140883720D01*
X250509427Y-140879779D01*
X250506904Y-140875570D01*
X250504806Y-140871134D01*
X250503153Y-140866514D01*
X250501961Y-140861755D01*
X250501241Y-140856901D01*
X250501000Y-140852000D01*
X250501000Y-140752000D01*
X250501241Y-140747099D01*
X250501961Y-140742245D01*
X250503153Y-140737486D01*
X250504806Y-140732866D01*
X250506904Y-140728430D01*
X250509427Y-140724221D01*
X250512349Y-140720280D01*
X250515645Y-140716645D01*
X250519280Y-140713349D01*
X250523221Y-140710427D01*
X250527430Y-140707904D01*
X250531866Y-140705806D01*
X250536486Y-140704153D01*
X250541245Y-140702961D01*
X250546099Y-140702241D01*
X250551000Y-140702000D01*
X251001000Y-140702000D01*
X251005901Y-140702241D01*
X251005901Y-140702241D01*
G37*
D27*
X250776000Y-140802000D03*
D26*
G36*
X250330901Y-141027241D02*
G01*
X250335755Y-141027961D01*
X250340514Y-141029153D01*
X250345134Y-141030806D01*
X250349570Y-141032904D01*
X250353779Y-141035427D01*
X250357720Y-141038349D01*
X250361355Y-141041645D01*
X250364651Y-141045280D01*
X250367573Y-141049221D01*
X250370096Y-141053430D01*
X250372194Y-141057866D01*
X250373847Y-141062486D01*
X250375039Y-141067245D01*
X250375759Y-141072099D01*
X250376000Y-141077000D01*
X250376000Y-141527000D01*
X250375759Y-141531901D01*
X250375039Y-141536755D01*
X250373847Y-141541514D01*
X250372194Y-141546134D01*
X250370096Y-141550570D01*
X250367573Y-141554779D01*
X250364651Y-141558720D01*
X250361355Y-141562355D01*
X250357720Y-141565651D01*
X250353779Y-141568573D01*
X250349570Y-141571096D01*
X250345134Y-141573194D01*
X250340514Y-141574847D01*
X250335755Y-141576039D01*
X250330901Y-141576759D01*
X250326000Y-141577000D01*
X250226000Y-141577000D01*
X250221099Y-141576759D01*
X250216245Y-141576039D01*
X250211486Y-141574847D01*
X250206866Y-141573194D01*
X250202430Y-141571096D01*
X250198221Y-141568573D01*
X250194280Y-141565651D01*
X250190645Y-141562355D01*
X250187349Y-141558720D01*
X250184427Y-141554779D01*
X250181904Y-141550570D01*
X250179806Y-141546134D01*
X250178153Y-141541514D01*
X250176961Y-141536755D01*
X250176241Y-141531901D01*
X250176000Y-141527000D01*
X250176000Y-141077000D01*
X250176241Y-141072099D01*
X250176961Y-141067245D01*
X250178153Y-141062486D01*
X250179806Y-141057866D01*
X250181904Y-141053430D01*
X250184427Y-141049221D01*
X250187349Y-141045280D01*
X250190645Y-141041645D01*
X250194280Y-141038349D01*
X250198221Y-141035427D01*
X250202430Y-141032904D01*
X250206866Y-141030806D01*
X250211486Y-141029153D01*
X250216245Y-141027961D01*
X250221099Y-141027241D01*
X250226000Y-141027000D01*
X250326000Y-141027000D01*
X250330901Y-141027241D01*
X250330901Y-141027241D01*
G37*
D27*
X250276000Y-141302000D03*
D26*
G36*
X249930901Y-141027241D02*
G01*
X249935755Y-141027961D01*
X249940514Y-141029153D01*
X249945134Y-141030806D01*
X249949570Y-141032904D01*
X249953779Y-141035427D01*
X249957720Y-141038349D01*
X249961355Y-141041645D01*
X249964651Y-141045280D01*
X249967573Y-141049221D01*
X249970096Y-141053430D01*
X249972194Y-141057866D01*
X249973847Y-141062486D01*
X249975039Y-141067245D01*
X249975759Y-141072099D01*
X249976000Y-141077000D01*
X249976000Y-141527000D01*
X249975759Y-141531901D01*
X249975039Y-141536755D01*
X249973847Y-141541514D01*
X249972194Y-141546134D01*
X249970096Y-141550570D01*
X249967573Y-141554779D01*
X249964651Y-141558720D01*
X249961355Y-141562355D01*
X249957720Y-141565651D01*
X249953779Y-141568573D01*
X249949570Y-141571096D01*
X249945134Y-141573194D01*
X249940514Y-141574847D01*
X249935755Y-141576039D01*
X249930901Y-141576759D01*
X249926000Y-141577000D01*
X249826000Y-141577000D01*
X249821099Y-141576759D01*
X249816245Y-141576039D01*
X249811486Y-141574847D01*
X249806866Y-141573194D01*
X249802430Y-141571096D01*
X249798221Y-141568573D01*
X249794280Y-141565651D01*
X249790645Y-141562355D01*
X249787349Y-141558720D01*
X249784427Y-141554779D01*
X249781904Y-141550570D01*
X249779806Y-141546134D01*
X249778153Y-141541514D01*
X249776961Y-141536755D01*
X249776241Y-141531901D01*
X249776000Y-141527000D01*
X249776000Y-141077000D01*
X249776241Y-141072099D01*
X249776961Y-141067245D01*
X249778153Y-141062486D01*
X249779806Y-141057866D01*
X249781904Y-141053430D01*
X249784427Y-141049221D01*
X249787349Y-141045280D01*
X249790645Y-141041645D01*
X249794280Y-141038349D01*
X249798221Y-141035427D01*
X249802430Y-141032904D01*
X249806866Y-141030806D01*
X249811486Y-141029153D01*
X249816245Y-141027961D01*
X249821099Y-141027241D01*
X249826000Y-141027000D01*
X249926000Y-141027000D01*
X249930901Y-141027241D01*
X249930901Y-141027241D01*
G37*
D27*
X249876000Y-141302000D03*
D26*
G36*
X249530901Y-141027241D02*
G01*
X249535755Y-141027961D01*
X249540514Y-141029153D01*
X249545134Y-141030806D01*
X249549570Y-141032904D01*
X249553779Y-141035427D01*
X249557720Y-141038349D01*
X249561355Y-141041645D01*
X249564651Y-141045280D01*
X249567573Y-141049221D01*
X249570096Y-141053430D01*
X249572194Y-141057866D01*
X249573847Y-141062486D01*
X249575039Y-141067245D01*
X249575759Y-141072099D01*
X249576000Y-141077000D01*
X249576000Y-141527000D01*
X249575759Y-141531901D01*
X249575039Y-141536755D01*
X249573847Y-141541514D01*
X249572194Y-141546134D01*
X249570096Y-141550570D01*
X249567573Y-141554779D01*
X249564651Y-141558720D01*
X249561355Y-141562355D01*
X249557720Y-141565651D01*
X249553779Y-141568573D01*
X249549570Y-141571096D01*
X249545134Y-141573194D01*
X249540514Y-141574847D01*
X249535755Y-141576039D01*
X249530901Y-141576759D01*
X249526000Y-141577000D01*
X249426000Y-141577000D01*
X249421099Y-141576759D01*
X249416245Y-141576039D01*
X249411486Y-141574847D01*
X249406866Y-141573194D01*
X249402430Y-141571096D01*
X249398221Y-141568573D01*
X249394280Y-141565651D01*
X249390645Y-141562355D01*
X249387349Y-141558720D01*
X249384427Y-141554779D01*
X249381904Y-141550570D01*
X249379806Y-141546134D01*
X249378153Y-141541514D01*
X249376961Y-141536755D01*
X249376241Y-141531901D01*
X249376000Y-141527000D01*
X249376000Y-141077000D01*
X249376241Y-141072099D01*
X249376961Y-141067245D01*
X249378153Y-141062486D01*
X249379806Y-141057866D01*
X249381904Y-141053430D01*
X249384427Y-141049221D01*
X249387349Y-141045280D01*
X249390645Y-141041645D01*
X249394280Y-141038349D01*
X249398221Y-141035427D01*
X249402430Y-141032904D01*
X249406866Y-141030806D01*
X249411486Y-141029153D01*
X249416245Y-141027961D01*
X249421099Y-141027241D01*
X249426000Y-141027000D01*
X249526000Y-141027000D01*
X249530901Y-141027241D01*
X249530901Y-141027241D01*
G37*
D27*
X249476000Y-141302000D03*
D26*
G36*
X249130901Y-141027241D02*
G01*
X249135755Y-141027961D01*
X249140514Y-141029153D01*
X249145134Y-141030806D01*
X249149570Y-141032904D01*
X249153779Y-141035427D01*
X249157720Y-141038349D01*
X249161355Y-141041645D01*
X249164651Y-141045280D01*
X249167573Y-141049221D01*
X249170096Y-141053430D01*
X249172194Y-141057866D01*
X249173847Y-141062486D01*
X249175039Y-141067245D01*
X249175759Y-141072099D01*
X249176000Y-141077000D01*
X249176000Y-141527000D01*
X249175759Y-141531901D01*
X249175039Y-141536755D01*
X249173847Y-141541514D01*
X249172194Y-141546134D01*
X249170096Y-141550570D01*
X249167573Y-141554779D01*
X249164651Y-141558720D01*
X249161355Y-141562355D01*
X249157720Y-141565651D01*
X249153779Y-141568573D01*
X249149570Y-141571096D01*
X249145134Y-141573194D01*
X249140514Y-141574847D01*
X249135755Y-141576039D01*
X249130901Y-141576759D01*
X249126000Y-141577000D01*
X249026000Y-141577000D01*
X249021099Y-141576759D01*
X249016245Y-141576039D01*
X249011486Y-141574847D01*
X249006866Y-141573194D01*
X249002430Y-141571096D01*
X248998221Y-141568573D01*
X248994280Y-141565651D01*
X248990645Y-141562355D01*
X248987349Y-141558720D01*
X248984427Y-141554779D01*
X248981904Y-141550570D01*
X248979806Y-141546134D01*
X248978153Y-141541514D01*
X248976961Y-141536755D01*
X248976241Y-141531901D01*
X248976000Y-141527000D01*
X248976000Y-141077000D01*
X248976241Y-141072099D01*
X248976961Y-141067245D01*
X248978153Y-141062486D01*
X248979806Y-141057866D01*
X248981904Y-141053430D01*
X248984427Y-141049221D01*
X248987349Y-141045280D01*
X248990645Y-141041645D01*
X248994280Y-141038349D01*
X248998221Y-141035427D01*
X249002430Y-141032904D01*
X249006866Y-141030806D01*
X249011486Y-141029153D01*
X249016245Y-141027961D01*
X249021099Y-141027241D01*
X249026000Y-141027000D01*
X249126000Y-141027000D01*
X249130901Y-141027241D01*
X249130901Y-141027241D01*
G37*
D27*
X249076000Y-141302000D03*
D26*
G36*
X248730901Y-141027241D02*
G01*
X248735755Y-141027961D01*
X248740514Y-141029153D01*
X248745134Y-141030806D01*
X248749570Y-141032904D01*
X248753779Y-141035427D01*
X248757720Y-141038349D01*
X248761355Y-141041645D01*
X248764651Y-141045280D01*
X248767573Y-141049221D01*
X248770096Y-141053430D01*
X248772194Y-141057866D01*
X248773847Y-141062486D01*
X248775039Y-141067245D01*
X248775759Y-141072099D01*
X248776000Y-141077000D01*
X248776000Y-141527000D01*
X248775759Y-141531901D01*
X248775039Y-141536755D01*
X248773847Y-141541514D01*
X248772194Y-141546134D01*
X248770096Y-141550570D01*
X248767573Y-141554779D01*
X248764651Y-141558720D01*
X248761355Y-141562355D01*
X248757720Y-141565651D01*
X248753779Y-141568573D01*
X248749570Y-141571096D01*
X248745134Y-141573194D01*
X248740514Y-141574847D01*
X248735755Y-141576039D01*
X248730901Y-141576759D01*
X248726000Y-141577000D01*
X248626000Y-141577000D01*
X248621099Y-141576759D01*
X248616245Y-141576039D01*
X248611486Y-141574847D01*
X248606866Y-141573194D01*
X248602430Y-141571096D01*
X248598221Y-141568573D01*
X248594280Y-141565651D01*
X248590645Y-141562355D01*
X248587349Y-141558720D01*
X248584427Y-141554779D01*
X248581904Y-141550570D01*
X248579806Y-141546134D01*
X248578153Y-141541514D01*
X248576961Y-141536755D01*
X248576241Y-141531901D01*
X248576000Y-141527000D01*
X248576000Y-141077000D01*
X248576241Y-141072099D01*
X248576961Y-141067245D01*
X248578153Y-141062486D01*
X248579806Y-141057866D01*
X248581904Y-141053430D01*
X248584427Y-141049221D01*
X248587349Y-141045280D01*
X248590645Y-141041645D01*
X248594280Y-141038349D01*
X248598221Y-141035427D01*
X248602430Y-141032904D01*
X248606866Y-141030806D01*
X248611486Y-141029153D01*
X248616245Y-141027961D01*
X248621099Y-141027241D01*
X248626000Y-141027000D01*
X248726000Y-141027000D01*
X248730901Y-141027241D01*
X248730901Y-141027241D01*
G37*
D27*
X248676000Y-141302000D03*
D26*
G36*
X248330901Y-141027241D02*
G01*
X248335755Y-141027961D01*
X248340514Y-141029153D01*
X248345134Y-141030806D01*
X248349570Y-141032904D01*
X248353779Y-141035427D01*
X248357720Y-141038349D01*
X248361355Y-141041645D01*
X248364651Y-141045280D01*
X248367573Y-141049221D01*
X248370096Y-141053430D01*
X248372194Y-141057866D01*
X248373847Y-141062486D01*
X248375039Y-141067245D01*
X248375759Y-141072099D01*
X248376000Y-141077000D01*
X248376000Y-141527000D01*
X248375759Y-141531901D01*
X248375039Y-141536755D01*
X248373847Y-141541514D01*
X248372194Y-141546134D01*
X248370096Y-141550570D01*
X248367573Y-141554779D01*
X248364651Y-141558720D01*
X248361355Y-141562355D01*
X248357720Y-141565651D01*
X248353779Y-141568573D01*
X248349570Y-141571096D01*
X248345134Y-141573194D01*
X248340514Y-141574847D01*
X248335755Y-141576039D01*
X248330901Y-141576759D01*
X248326000Y-141577000D01*
X248226000Y-141577000D01*
X248221099Y-141576759D01*
X248216245Y-141576039D01*
X248211486Y-141574847D01*
X248206866Y-141573194D01*
X248202430Y-141571096D01*
X248198221Y-141568573D01*
X248194280Y-141565651D01*
X248190645Y-141562355D01*
X248187349Y-141558720D01*
X248184427Y-141554779D01*
X248181904Y-141550570D01*
X248179806Y-141546134D01*
X248178153Y-141541514D01*
X248176961Y-141536755D01*
X248176241Y-141531901D01*
X248176000Y-141527000D01*
X248176000Y-141077000D01*
X248176241Y-141072099D01*
X248176961Y-141067245D01*
X248178153Y-141062486D01*
X248179806Y-141057866D01*
X248181904Y-141053430D01*
X248184427Y-141049221D01*
X248187349Y-141045280D01*
X248190645Y-141041645D01*
X248194280Y-141038349D01*
X248198221Y-141035427D01*
X248202430Y-141032904D01*
X248206866Y-141030806D01*
X248211486Y-141029153D01*
X248216245Y-141027961D01*
X248221099Y-141027241D01*
X248226000Y-141027000D01*
X248326000Y-141027000D01*
X248330901Y-141027241D01*
X248330901Y-141027241D01*
G37*
D27*
X248276000Y-141302000D03*
D26*
G36*
X248005901Y-140702241D02*
G01*
X248010755Y-140702961D01*
X248015514Y-140704153D01*
X248020134Y-140705806D01*
X248024570Y-140707904D01*
X248028779Y-140710427D01*
X248032720Y-140713349D01*
X248036355Y-140716645D01*
X248039651Y-140720280D01*
X248042573Y-140724221D01*
X248045096Y-140728430D01*
X248047194Y-140732866D01*
X248048847Y-140737486D01*
X248050039Y-140742245D01*
X248050759Y-140747099D01*
X248051000Y-140752000D01*
X248051000Y-140852000D01*
X248050759Y-140856901D01*
X248050039Y-140861755D01*
X248048847Y-140866514D01*
X248047194Y-140871134D01*
X248045096Y-140875570D01*
X248042573Y-140879779D01*
X248039651Y-140883720D01*
X248036355Y-140887355D01*
X248032720Y-140890651D01*
X248028779Y-140893573D01*
X248024570Y-140896096D01*
X248020134Y-140898194D01*
X248015514Y-140899847D01*
X248010755Y-140901039D01*
X248005901Y-140901759D01*
X248001000Y-140902000D01*
X247551000Y-140902000D01*
X247546099Y-140901759D01*
X247541245Y-140901039D01*
X247536486Y-140899847D01*
X247531866Y-140898194D01*
X247527430Y-140896096D01*
X247523221Y-140893573D01*
X247519280Y-140890651D01*
X247515645Y-140887355D01*
X247512349Y-140883720D01*
X247509427Y-140879779D01*
X247506904Y-140875570D01*
X247504806Y-140871134D01*
X247503153Y-140866514D01*
X247501961Y-140861755D01*
X247501241Y-140856901D01*
X247501000Y-140852000D01*
X247501000Y-140752000D01*
X247501241Y-140747099D01*
X247501961Y-140742245D01*
X247503153Y-140737486D01*
X247504806Y-140732866D01*
X247506904Y-140728430D01*
X247509427Y-140724221D01*
X247512349Y-140720280D01*
X247515645Y-140716645D01*
X247519280Y-140713349D01*
X247523221Y-140710427D01*
X247527430Y-140707904D01*
X247531866Y-140705806D01*
X247536486Y-140704153D01*
X247541245Y-140702961D01*
X247546099Y-140702241D01*
X247551000Y-140702000D01*
X248001000Y-140702000D01*
X248005901Y-140702241D01*
X248005901Y-140702241D01*
G37*
D27*
X247776000Y-140802000D03*
D26*
G36*
X248005901Y-140302241D02*
G01*
X248010755Y-140302961D01*
X248015514Y-140304153D01*
X248020134Y-140305806D01*
X248024570Y-140307904D01*
X248028779Y-140310427D01*
X248032720Y-140313349D01*
X248036355Y-140316645D01*
X248039651Y-140320280D01*
X248042573Y-140324221D01*
X248045096Y-140328430D01*
X248047194Y-140332866D01*
X248048847Y-140337486D01*
X248050039Y-140342245D01*
X248050759Y-140347099D01*
X248051000Y-140352000D01*
X248051000Y-140452000D01*
X248050759Y-140456901D01*
X248050039Y-140461755D01*
X248048847Y-140466514D01*
X248047194Y-140471134D01*
X248045096Y-140475570D01*
X248042573Y-140479779D01*
X248039651Y-140483720D01*
X248036355Y-140487355D01*
X248032720Y-140490651D01*
X248028779Y-140493573D01*
X248024570Y-140496096D01*
X248020134Y-140498194D01*
X248015514Y-140499847D01*
X248010755Y-140501039D01*
X248005901Y-140501759D01*
X248001000Y-140502000D01*
X247551000Y-140502000D01*
X247546099Y-140501759D01*
X247541245Y-140501039D01*
X247536486Y-140499847D01*
X247531866Y-140498194D01*
X247527430Y-140496096D01*
X247523221Y-140493573D01*
X247519280Y-140490651D01*
X247515645Y-140487355D01*
X247512349Y-140483720D01*
X247509427Y-140479779D01*
X247506904Y-140475570D01*
X247504806Y-140471134D01*
X247503153Y-140466514D01*
X247501961Y-140461755D01*
X247501241Y-140456901D01*
X247501000Y-140452000D01*
X247501000Y-140352000D01*
X247501241Y-140347099D01*
X247501961Y-140342245D01*
X247503153Y-140337486D01*
X247504806Y-140332866D01*
X247506904Y-140328430D01*
X247509427Y-140324221D01*
X247512349Y-140320280D01*
X247515645Y-140316645D01*
X247519280Y-140313349D01*
X247523221Y-140310427D01*
X247527430Y-140307904D01*
X247531866Y-140305806D01*
X247536486Y-140304153D01*
X247541245Y-140302961D01*
X247546099Y-140302241D01*
X247551000Y-140302000D01*
X248001000Y-140302000D01*
X248005901Y-140302241D01*
X248005901Y-140302241D01*
G37*
D27*
X247776000Y-140402000D03*
D26*
G36*
X248005901Y-139902241D02*
G01*
X248010755Y-139902961D01*
X248015514Y-139904153D01*
X248020134Y-139905806D01*
X248024570Y-139907904D01*
X248028779Y-139910427D01*
X248032720Y-139913349D01*
X248036355Y-139916645D01*
X248039651Y-139920280D01*
X248042573Y-139924221D01*
X248045096Y-139928430D01*
X248047194Y-139932866D01*
X248048847Y-139937486D01*
X248050039Y-139942245D01*
X248050759Y-139947099D01*
X248051000Y-139952000D01*
X248051000Y-140052000D01*
X248050759Y-140056901D01*
X248050039Y-140061755D01*
X248048847Y-140066514D01*
X248047194Y-140071134D01*
X248045096Y-140075570D01*
X248042573Y-140079779D01*
X248039651Y-140083720D01*
X248036355Y-140087355D01*
X248032720Y-140090651D01*
X248028779Y-140093573D01*
X248024570Y-140096096D01*
X248020134Y-140098194D01*
X248015514Y-140099847D01*
X248010755Y-140101039D01*
X248005901Y-140101759D01*
X248001000Y-140102000D01*
X247551000Y-140102000D01*
X247546099Y-140101759D01*
X247541245Y-140101039D01*
X247536486Y-140099847D01*
X247531866Y-140098194D01*
X247527430Y-140096096D01*
X247523221Y-140093573D01*
X247519280Y-140090651D01*
X247515645Y-140087355D01*
X247512349Y-140083720D01*
X247509427Y-140079779D01*
X247506904Y-140075570D01*
X247504806Y-140071134D01*
X247503153Y-140066514D01*
X247501961Y-140061755D01*
X247501241Y-140056901D01*
X247501000Y-140052000D01*
X247501000Y-139952000D01*
X247501241Y-139947099D01*
X247501961Y-139942245D01*
X247503153Y-139937486D01*
X247504806Y-139932866D01*
X247506904Y-139928430D01*
X247509427Y-139924221D01*
X247512349Y-139920280D01*
X247515645Y-139916645D01*
X247519280Y-139913349D01*
X247523221Y-139910427D01*
X247527430Y-139907904D01*
X247531866Y-139905806D01*
X247536486Y-139904153D01*
X247541245Y-139902961D01*
X247546099Y-139902241D01*
X247551000Y-139902000D01*
X248001000Y-139902000D01*
X248005901Y-139902241D01*
X248005901Y-139902241D01*
G37*
D27*
X247776000Y-140002000D03*
D26*
G36*
X248005901Y-139502241D02*
G01*
X248010755Y-139502961D01*
X248015514Y-139504153D01*
X248020134Y-139505806D01*
X248024570Y-139507904D01*
X248028779Y-139510427D01*
X248032720Y-139513349D01*
X248036355Y-139516645D01*
X248039651Y-139520280D01*
X248042573Y-139524221D01*
X248045096Y-139528430D01*
X248047194Y-139532866D01*
X248048847Y-139537486D01*
X248050039Y-139542245D01*
X248050759Y-139547099D01*
X248051000Y-139552000D01*
X248051000Y-139652000D01*
X248050759Y-139656901D01*
X248050039Y-139661755D01*
X248048847Y-139666514D01*
X248047194Y-139671134D01*
X248045096Y-139675570D01*
X248042573Y-139679779D01*
X248039651Y-139683720D01*
X248036355Y-139687355D01*
X248032720Y-139690651D01*
X248028779Y-139693573D01*
X248024570Y-139696096D01*
X248020134Y-139698194D01*
X248015514Y-139699847D01*
X248010755Y-139701039D01*
X248005901Y-139701759D01*
X248001000Y-139702000D01*
X247551000Y-139702000D01*
X247546099Y-139701759D01*
X247541245Y-139701039D01*
X247536486Y-139699847D01*
X247531866Y-139698194D01*
X247527430Y-139696096D01*
X247523221Y-139693573D01*
X247519280Y-139690651D01*
X247515645Y-139687355D01*
X247512349Y-139683720D01*
X247509427Y-139679779D01*
X247506904Y-139675570D01*
X247504806Y-139671134D01*
X247503153Y-139666514D01*
X247501961Y-139661755D01*
X247501241Y-139656901D01*
X247501000Y-139652000D01*
X247501000Y-139552000D01*
X247501241Y-139547099D01*
X247501961Y-139542245D01*
X247503153Y-139537486D01*
X247504806Y-139532866D01*
X247506904Y-139528430D01*
X247509427Y-139524221D01*
X247512349Y-139520280D01*
X247515645Y-139516645D01*
X247519280Y-139513349D01*
X247523221Y-139510427D01*
X247527430Y-139507904D01*
X247531866Y-139505806D01*
X247536486Y-139504153D01*
X247541245Y-139502961D01*
X247546099Y-139502241D01*
X247551000Y-139502000D01*
X248001000Y-139502000D01*
X248005901Y-139502241D01*
X248005901Y-139502241D01*
G37*
D27*
X247776000Y-139602000D03*
D26*
G36*
X248005901Y-139102241D02*
G01*
X248010755Y-139102961D01*
X248015514Y-139104153D01*
X248020134Y-139105806D01*
X248024570Y-139107904D01*
X248028779Y-139110427D01*
X248032720Y-139113349D01*
X248036355Y-139116645D01*
X248039651Y-139120280D01*
X248042573Y-139124221D01*
X248045096Y-139128430D01*
X248047194Y-139132866D01*
X248048847Y-139137486D01*
X248050039Y-139142245D01*
X248050759Y-139147099D01*
X248051000Y-139152000D01*
X248051000Y-139252000D01*
X248050759Y-139256901D01*
X248050039Y-139261755D01*
X248048847Y-139266514D01*
X248047194Y-139271134D01*
X248045096Y-139275570D01*
X248042573Y-139279779D01*
X248039651Y-139283720D01*
X248036355Y-139287355D01*
X248032720Y-139290651D01*
X248028779Y-139293573D01*
X248024570Y-139296096D01*
X248020134Y-139298194D01*
X248015514Y-139299847D01*
X248010755Y-139301039D01*
X248005901Y-139301759D01*
X248001000Y-139302000D01*
X247551000Y-139302000D01*
X247546099Y-139301759D01*
X247541245Y-139301039D01*
X247536486Y-139299847D01*
X247531866Y-139298194D01*
X247527430Y-139296096D01*
X247523221Y-139293573D01*
X247519280Y-139290651D01*
X247515645Y-139287355D01*
X247512349Y-139283720D01*
X247509427Y-139279779D01*
X247506904Y-139275570D01*
X247504806Y-139271134D01*
X247503153Y-139266514D01*
X247501961Y-139261755D01*
X247501241Y-139256901D01*
X247501000Y-139252000D01*
X247501000Y-139152000D01*
X247501241Y-139147099D01*
X247501961Y-139142245D01*
X247503153Y-139137486D01*
X247504806Y-139132866D01*
X247506904Y-139128430D01*
X247509427Y-139124221D01*
X247512349Y-139120280D01*
X247515645Y-139116645D01*
X247519280Y-139113349D01*
X247523221Y-139110427D01*
X247527430Y-139107904D01*
X247531866Y-139105806D01*
X247536486Y-139104153D01*
X247541245Y-139102961D01*
X247546099Y-139102241D01*
X247551000Y-139102000D01*
X248001000Y-139102000D01*
X248005901Y-139102241D01*
X248005901Y-139102241D01*
G37*
D27*
X247776000Y-139202000D03*
D26*
G36*
X248005901Y-138702241D02*
G01*
X248010755Y-138702961D01*
X248015514Y-138704153D01*
X248020134Y-138705806D01*
X248024570Y-138707904D01*
X248028779Y-138710427D01*
X248032720Y-138713349D01*
X248036355Y-138716645D01*
X248039651Y-138720280D01*
X248042573Y-138724221D01*
X248045096Y-138728430D01*
X248047194Y-138732866D01*
X248048847Y-138737486D01*
X248050039Y-138742245D01*
X248050759Y-138747099D01*
X248051000Y-138752000D01*
X248051000Y-138852000D01*
X248050759Y-138856901D01*
X248050039Y-138861755D01*
X248048847Y-138866514D01*
X248047194Y-138871134D01*
X248045096Y-138875570D01*
X248042573Y-138879779D01*
X248039651Y-138883720D01*
X248036355Y-138887355D01*
X248032720Y-138890651D01*
X248028779Y-138893573D01*
X248024570Y-138896096D01*
X248020134Y-138898194D01*
X248015514Y-138899847D01*
X248010755Y-138901039D01*
X248005901Y-138901759D01*
X248001000Y-138902000D01*
X247551000Y-138902000D01*
X247546099Y-138901759D01*
X247541245Y-138901039D01*
X247536486Y-138899847D01*
X247531866Y-138898194D01*
X247527430Y-138896096D01*
X247523221Y-138893573D01*
X247519280Y-138890651D01*
X247515645Y-138887355D01*
X247512349Y-138883720D01*
X247509427Y-138879779D01*
X247506904Y-138875570D01*
X247504806Y-138871134D01*
X247503153Y-138866514D01*
X247501961Y-138861755D01*
X247501241Y-138856901D01*
X247501000Y-138852000D01*
X247501000Y-138752000D01*
X247501241Y-138747099D01*
X247501961Y-138742245D01*
X247503153Y-138737486D01*
X247504806Y-138732866D01*
X247506904Y-138728430D01*
X247509427Y-138724221D01*
X247512349Y-138720280D01*
X247515645Y-138716645D01*
X247519280Y-138713349D01*
X247523221Y-138710427D01*
X247527430Y-138707904D01*
X247531866Y-138705806D01*
X247536486Y-138704153D01*
X247541245Y-138702961D01*
X247546099Y-138702241D01*
X247551000Y-138702000D01*
X248001000Y-138702000D01*
X248005901Y-138702241D01*
X248005901Y-138702241D01*
G37*
D27*
X247776000Y-138802000D03*
D26*
G36*
X248330901Y-138027241D02*
G01*
X248335755Y-138027961D01*
X248340514Y-138029153D01*
X248345134Y-138030806D01*
X248349570Y-138032904D01*
X248353779Y-138035427D01*
X248357720Y-138038349D01*
X248361355Y-138041645D01*
X248364651Y-138045280D01*
X248367573Y-138049221D01*
X248370096Y-138053430D01*
X248372194Y-138057866D01*
X248373847Y-138062486D01*
X248375039Y-138067245D01*
X248375759Y-138072099D01*
X248376000Y-138077000D01*
X248376000Y-138527000D01*
X248375759Y-138531901D01*
X248375039Y-138536755D01*
X248373847Y-138541514D01*
X248372194Y-138546134D01*
X248370096Y-138550570D01*
X248367573Y-138554779D01*
X248364651Y-138558720D01*
X248361355Y-138562355D01*
X248357720Y-138565651D01*
X248353779Y-138568573D01*
X248349570Y-138571096D01*
X248345134Y-138573194D01*
X248340514Y-138574847D01*
X248335755Y-138576039D01*
X248330901Y-138576759D01*
X248326000Y-138577000D01*
X248226000Y-138577000D01*
X248221099Y-138576759D01*
X248216245Y-138576039D01*
X248211486Y-138574847D01*
X248206866Y-138573194D01*
X248202430Y-138571096D01*
X248198221Y-138568573D01*
X248194280Y-138565651D01*
X248190645Y-138562355D01*
X248187349Y-138558720D01*
X248184427Y-138554779D01*
X248181904Y-138550570D01*
X248179806Y-138546134D01*
X248178153Y-138541514D01*
X248176961Y-138536755D01*
X248176241Y-138531901D01*
X248176000Y-138527000D01*
X248176000Y-138077000D01*
X248176241Y-138072099D01*
X248176961Y-138067245D01*
X248178153Y-138062486D01*
X248179806Y-138057866D01*
X248181904Y-138053430D01*
X248184427Y-138049221D01*
X248187349Y-138045280D01*
X248190645Y-138041645D01*
X248194280Y-138038349D01*
X248198221Y-138035427D01*
X248202430Y-138032904D01*
X248206866Y-138030806D01*
X248211486Y-138029153D01*
X248216245Y-138027961D01*
X248221099Y-138027241D01*
X248226000Y-138027000D01*
X248326000Y-138027000D01*
X248330901Y-138027241D01*
X248330901Y-138027241D01*
G37*
D27*
X248276000Y-138302000D03*
D26*
G36*
X248730901Y-138027241D02*
G01*
X248735755Y-138027961D01*
X248740514Y-138029153D01*
X248745134Y-138030806D01*
X248749570Y-138032904D01*
X248753779Y-138035427D01*
X248757720Y-138038349D01*
X248761355Y-138041645D01*
X248764651Y-138045280D01*
X248767573Y-138049221D01*
X248770096Y-138053430D01*
X248772194Y-138057866D01*
X248773847Y-138062486D01*
X248775039Y-138067245D01*
X248775759Y-138072099D01*
X248776000Y-138077000D01*
X248776000Y-138527000D01*
X248775759Y-138531901D01*
X248775039Y-138536755D01*
X248773847Y-138541514D01*
X248772194Y-138546134D01*
X248770096Y-138550570D01*
X248767573Y-138554779D01*
X248764651Y-138558720D01*
X248761355Y-138562355D01*
X248757720Y-138565651D01*
X248753779Y-138568573D01*
X248749570Y-138571096D01*
X248745134Y-138573194D01*
X248740514Y-138574847D01*
X248735755Y-138576039D01*
X248730901Y-138576759D01*
X248726000Y-138577000D01*
X248626000Y-138577000D01*
X248621099Y-138576759D01*
X248616245Y-138576039D01*
X248611486Y-138574847D01*
X248606866Y-138573194D01*
X248602430Y-138571096D01*
X248598221Y-138568573D01*
X248594280Y-138565651D01*
X248590645Y-138562355D01*
X248587349Y-138558720D01*
X248584427Y-138554779D01*
X248581904Y-138550570D01*
X248579806Y-138546134D01*
X248578153Y-138541514D01*
X248576961Y-138536755D01*
X248576241Y-138531901D01*
X248576000Y-138527000D01*
X248576000Y-138077000D01*
X248576241Y-138072099D01*
X248576961Y-138067245D01*
X248578153Y-138062486D01*
X248579806Y-138057866D01*
X248581904Y-138053430D01*
X248584427Y-138049221D01*
X248587349Y-138045280D01*
X248590645Y-138041645D01*
X248594280Y-138038349D01*
X248598221Y-138035427D01*
X248602430Y-138032904D01*
X248606866Y-138030806D01*
X248611486Y-138029153D01*
X248616245Y-138027961D01*
X248621099Y-138027241D01*
X248626000Y-138027000D01*
X248726000Y-138027000D01*
X248730901Y-138027241D01*
X248730901Y-138027241D01*
G37*
D27*
X248676000Y-138302000D03*
D26*
G36*
X249130901Y-138027241D02*
G01*
X249135755Y-138027961D01*
X249140514Y-138029153D01*
X249145134Y-138030806D01*
X249149570Y-138032904D01*
X249153779Y-138035427D01*
X249157720Y-138038349D01*
X249161355Y-138041645D01*
X249164651Y-138045280D01*
X249167573Y-138049221D01*
X249170096Y-138053430D01*
X249172194Y-138057866D01*
X249173847Y-138062486D01*
X249175039Y-138067245D01*
X249175759Y-138072099D01*
X249176000Y-138077000D01*
X249176000Y-138527000D01*
X249175759Y-138531901D01*
X249175039Y-138536755D01*
X249173847Y-138541514D01*
X249172194Y-138546134D01*
X249170096Y-138550570D01*
X249167573Y-138554779D01*
X249164651Y-138558720D01*
X249161355Y-138562355D01*
X249157720Y-138565651D01*
X249153779Y-138568573D01*
X249149570Y-138571096D01*
X249145134Y-138573194D01*
X249140514Y-138574847D01*
X249135755Y-138576039D01*
X249130901Y-138576759D01*
X249126000Y-138577000D01*
X249026000Y-138577000D01*
X249021099Y-138576759D01*
X249016245Y-138576039D01*
X249011486Y-138574847D01*
X249006866Y-138573194D01*
X249002430Y-138571096D01*
X248998221Y-138568573D01*
X248994280Y-138565651D01*
X248990645Y-138562355D01*
X248987349Y-138558720D01*
X248984427Y-138554779D01*
X248981904Y-138550570D01*
X248979806Y-138546134D01*
X248978153Y-138541514D01*
X248976961Y-138536755D01*
X248976241Y-138531901D01*
X248976000Y-138527000D01*
X248976000Y-138077000D01*
X248976241Y-138072099D01*
X248976961Y-138067245D01*
X248978153Y-138062486D01*
X248979806Y-138057866D01*
X248981904Y-138053430D01*
X248984427Y-138049221D01*
X248987349Y-138045280D01*
X248990645Y-138041645D01*
X248994280Y-138038349D01*
X248998221Y-138035427D01*
X249002430Y-138032904D01*
X249006866Y-138030806D01*
X249011486Y-138029153D01*
X249016245Y-138027961D01*
X249021099Y-138027241D01*
X249026000Y-138027000D01*
X249126000Y-138027000D01*
X249130901Y-138027241D01*
X249130901Y-138027241D01*
G37*
D27*
X249076000Y-138302000D03*
D26*
G36*
X249530901Y-138027241D02*
G01*
X249535755Y-138027961D01*
X249540514Y-138029153D01*
X249545134Y-138030806D01*
X249549570Y-138032904D01*
X249553779Y-138035427D01*
X249557720Y-138038349D01*
X249561355Y-138041645D01*
X249564651Y-138045280D01*
X249567573Y-138049221D01*
X249570096Y-138053430D01*
X249572194Y-138057866D01*
X249573847Y-138062486D01*
X249575039Y-138067245D01*
X249575759Y-138072099D01*
X249576000Y-138077000D01*
X249576000Y-138527000D01*
X249575759Y-138531901D01*
X249575039Y-138536755D01*
X249573847Y-138541514D01*
X249572194Y-138546134D01*
X249570096Y-138550570D01*
X249567573Y-138554779D01*
X249564651Y-138558720D01*
X249561355Y-138562355D01*
X249557720Y-138565651D01*
X249553779Y-138568573D01*
X249549570Y-138571096D01*
X249545134Y-138573194D01*
X249540514Y-138574847D01*
X249535755Y-138576039D01*
X249530901Y-138576759D01*
X249526000Y-138577000D01*
X249426000Y-138577000D01*
X249421099Y-138576759D01*
X249416245Y-138576039D01*
X249411486Y-138574847D01*
X249406866Y-138573194D01*
X249402430Y-138571096D01*
X249398221Y-138568573D01*
X249394280Y-138565651D01*
X249390645Y-138562355D01*
X249387349Y-138558720D01*
X249384427Y-138554779D01*
X249381904Y-138550570D01*
X249379806Y-138546134D01*
X249378153Y-138541514D01*
X249376961Y-138536755D01*
X249376241Y-138531901D01*
X249376000Y-138527000D01*
X249376000Y-138077000D01*
X249376241Y-138072099D01*
X249376961Y-138067245D01*
X249378153Y-138062486D01*
X249379806Y-138057866D01*
X249381904Y-138053430D01*
X249384427Y-138049221D01*
X249387349Y-138045280D01*
X249390645Y-138041645D01*
X249394280Y-138038349D01*
X249398221Y-138035427D01*
X249402430Y-138032904D01*
X249406866Y-138030806D01*
X249411486Y-138029153D01*
X249416245Y-138027961D01*
X249421099Y-138027241D01*
X249426000Y-138027000D01*
X249526000Y-138027000D01*
X249530901Y-138027241D01*
X249530901Y-138027241D01*
G37*
D27*
X249476000Y-138302000D03*
D26*
G36*
X249930901Y-138027241D02*
G01*
X249935755Y-138027961D01*
X249940514Y-138029153D01*
X249945134Y-138030806D01*
X249949570Y-138032904D01*
X249953779Y-138035427D01*
X249957720Y-138038349D01*
X249961355Y-138041645D01*
X249964651Y-138045280D01*
X249967573Y-138049221D01*
X249970096Y-138053430D01*
X249972194Y-138057866D01*
X249973847Y-138062486D01*
X249975039Y-138067245D01*
X249975759Y-138072099D01*
X249976000Y-138077000D01*
X249976000Y-138527000D01*
X249975759Y-138531901D01*
X249975039Y-138536755D01*
X249973847Y-138541514D01*
X249972194Y-138546134D01*
X249970096Y-138550570D01*
X249967573Y-138554779D01*
X249964651Y-138558720D01*
X249961355Y-138562355D01*
X249957720Y-138565651D01*
X249953779Y-138568573D01*
X249949570Y-138571096D01*
X249945134Y-138573194D01*
X249940514Y-138574847D01*
X249935755Y-138576039D01*
X249930901Y-138576759D01*
X249926000Y-138577000D01*
X249826000Y-138577000D01*
X249821099Y-138576759D01*
X249816245Y-138576039D01*
X249811486Y-138574847D01*
X249806866Y-138573194D01*
X249802430Y-138571096D01*
X249798221Y-138568573D01*
X249794280Y-138565651D01*
X249790645Y-138562355D01*
X249787349Y-138558720D01*
X249784427Y-138554779D01*
X249781904Y-138550570D01*
X249779806Y-138546134D01*
X249778153Y-138541514D01*
X249776961Y-138536755D01*
X249776241Y-138531901D01*
X249776000Y-138527000D01*
X249776000Y-138077000D01*
X249776241Y-138072099D01*
X249776961Y-138067245D01*
X249778153Y-138062486D01*
X249779806Y-138057866D01*
X249781904Y-138053430D01*
X249784427Y-138049221D01*
X249787349Y-138045280D01*
X249790645Y-138041645D01*
X249794280Y-138038349D01*
X249798221Y-138035427D01*
X249802430Y-138032904D01*
X249806866Y-138030806D01*
X249811486Y-138029153D01*
X249816245Y-138027961D01*
X249821099Y-138027241D01*
X249826000Y-138027000D01*
X249926000Y-138027000D01*
X249930901Y-138027241D01*
X249930901Y-138027241D01*
G37*
D27*
X249876000Y-138302000D03*
D26*
G36*
X250330901Y-138027241D02*
G01*
X250335755Y-138027961D01*
X250340514Y-138029153D01*
X250345134Y-138030806D01*
X250349570Y-138032904D01*
X250353779Y-138035427D01*
X250357720Y-138038349D01*
X250361355Y-138041645D01*
X250364651Y-138045280D01*
X250367573Y-138049221D01*
X250370096Y-138053430D01*
X250372194Y-138057866D01*
X250373847Y-138062486D01*
X250375039Y-138067245D01*
X250375759Y-138072099D01*
X250376000Y-138077000D01*
X250376000Y-138527000D01*
X250375759Y-138531901D01*
X250375039Y-138536755D01*
X250373847Y-138541514D01*
X250372194Y-138546134D01*
X250370096Y-138550570D01*
X250367573Y-138554779D01*
X250364651Y-138558720D01*
X250361355Y-138562355D01*
X250357720Y-138565651D01*
X250353779Y-138568573D01*
X250349570Y-138571096D01*
X250345134Y-138573194D01*
X250340514Y-138574847D01*
X250335755Y-138576039D01*
X250330901Y-138576759D01*
X250326000Y-138577000D01*
X250226000Y-138577000D01*
X250221099Y-138576759D01*
X250216245Y-138576039D01*
X250211486Y-138574847D01*
X250206866Y-138573194D01*
X250202430Y-138571096D01*
X250198221Y-138568573D01*
X250194280Y-138565651D01*
X250190645Y-138562355D01*
X250187349Y-138558720D01*
X250184427Y-138554779D01*
X250181904Y-138550570D01*
X250179806Y-138546134D01*
X250178153Y-138541514D01*
X250176961Y-138536755D01*
X250176241Y-138531901D01*
X250176000Y-138527000D01*
X250176000Y-138077000D01*
X250176241Y-138072099D01*
X250176961Y-138067245D01*
X250178153Y-138062486D01*
X250179806Y-138057866D01*
X250181904Y-138053430D01*
X250184427Y-138049221D01*
X250187349Y-138045280D01*
X250190645Y-138041645D01*
X250194280Y-138038349D01*
X250198221Y-138035427D01*
X250202430Y-138032904D01*
X250206866Y-138030806D01*
X250211486Y-138029153D01*
X250216245Y-138027961D01*
X250221099Y-138027241D01*
X250226000Y-138027000D01*
X250326000Y-138027000D01*
X250330901Y-138027241D01*
X250330901Y-138027241D01*
G37*
D27*
X250276000Y-138302000D03*
D28*
X247790000Y-151100000D03*
X249190000Y-151100000D03*
D29*
X245500000Y-138100000D03*
X245500000Y-136700000D03*
X240000000Y-140500000D03*
X240000000Y-141900000D03*
X240000000Y-144700000D03*
X240000000Y-143300000D03*
D30*
X251590000Y-146880000D03*
X251590000Y-149880000D03*
X253090000Y-149880000D03*
X253090000Y-146880000D03*
D17*
X253000000Y-137150000D03*
X251900000Y-137150000D03*
D31*
X246700000Y-151050000D03*
X250310300Y-144077700D03*
X248705000Y-142084500D03*
X246500000Y-147400000D03*
X218624400Y-139076200D03*
X250097900Y-151099900D03*
X251569300Y-139723000D03*
X238796300Y-139829700D03*
X244415600Y-142555900D03*
X240941000Y-135882800D03*
X257840000Y-144592800D03*
X247384000Y-138120700D03*
X239065000Y-142629700D03*
X243200000Y-147550000D03*
X219235020Y-149138640D03*
X219161360Y-145130520D03*
X248197100Y-148679300D03*
X244012720Y-144477740D03*
X244438700Y-148952500D03*
X221539000Y-150760700D03*
X244223540Y-137302240D03*
X243200000Y-150550000D03*
X244045740Y-141366240D03*
X215100000Y-148700000D03*
X251818100Y-140625700D03*
X215100000Y-145750000D03*
X253987200Y-143058500D03*
X256286000Y-136796000D03*
X256298700Y-146019520D03*
X246443300Y-140402000D03*
X216500000Y-147200000D03*
X219161360Y-142128240D03*
X241239040Y-141881860D03*
X224708720Y-148645880D03*
X257957320Y-141739620D03*
X257939540Y-151643080D03*
X257939540Y-151643080D03*
X234066080Y-148617940D03*
X223509840Y-140827760D03*
X226918520Y-133192520D03*
X238150400Y-135270240D03*
X239313720Y-146110960D03*
X220878400Y-133225540D03*
X216916000Y-144078960D03*
X229453440Y-148628100D03*
X227002340Y-150715980D03*
X231886760Y-150715980D03*
X225371660Y-140294360D03*
X229412800Y-140276580D03*
X233372660Y-140281660D03*
X225356420Y-146685000D03*
X233423460Y-146700240D03*
X233408220Y-143502380D03*
X225356420Y-143517620D03*
X229397560Y-143517620D03*
X229397560Y-146685000D03*
X233253280Y-135280400D03*
X228356160Y-135315960D03*
X223641920Y-135354060D03*
X257121660Y-149085300D03*
X247002300Y-136631680D03*
X256286000Y-141783400D03*
X223070420Y-143362680D03*
X253463500Y-141288600D03*
X251938900Y-138529900D03*
X253906200Y-143916200D03*
X254573600Y-146717800D03*
X249981400Y-150287900D03*
X244232900Y-135531200D03*
X248455500Y-143954100D03*
X251241200Y-137905900D03*
X246664900Y-148950000D03*
X249342600Y-148736700D03*
X248584900Y-136747500D03*
X250148600Y-148778400D03*
D32*
X250197800Y-144077700D02*
X250197800Y-144897500D01*
X250197800Y-144897500D02*
X250085300Y-145010000D01*
X250085300Y-143710000D02*
X250085300Y-143965200D01*
X250085300Y-143965200D02*
X250197800Y-144077700D01*
X250197800Y-144077700D02*
X250310300Y-144077700D01*
X249480000Y-145010000D02*
X250085300Y-145010000D01*
X249480000Y-143710000D02*
X250085300Y-143710000D01*
X248705000Y-142084500D02*
X248276000Y-141655500D01*
X248276000Y-141655500D02*
X248276000Y-141302000D01*
X250759700Y-146880000D02*
X250630300Y-147009400D01*
X250630300Y-147009400D02*
X248535300Y-147009400D01*
X248535300Y-147009400D02*
X248175000Y-147369700D01*
X247069700Y-147369800D02*
X247069800Y-147369700D01*
X247069800Y-147369700D02*
X248175000Y-147369700D01*
X251590000Y-146880000D02*
X250759700Y-146880000D01*
X246020700Y-147369800D02*
X245239500Y-147369800D01*
X245239500Y-147369800D02*
X245160000Y-147290300D01*
X247069700Y-147369800D02*
X246020700Y-147369800D01*
X218624400Y-139076200D02*
X218461100Y-139076200D01*
X218461100Y-139076200D02*
X218372300Y-139165000D01*
X216967000Y-139165000D02*
X218372300Y-139165000D01*
X248175000Y-147900000D02*
X248175000Y-147369700D01*
X245160000Y-150000000D02*
X245160000Y-150490300D01*
X245840000Y-150559700D02*
X245229400Y-150559700D01*
X245229400Y-150559700D02*
X245160000Y-150490300D01*
X245840000Y-151050000D02*
X245840000Y-150559700D01*
X245160000Y-146800000D02*
X245160000Y-147290300D01*
X249860300Y-151100000D02*
X249860300Y-151099900D01*
X249860300Y-151099900D02*
X250097900Y-151099900D01*
X249190000Y-151100000D02*
X249860300Y-151100000D01*
X251569300Y-139723000D02*
X251448300Y-139602000D01*
X251448300Y-139602000D02*
X250776000Y-139602000D01*
X247195500Y-138120700D02*
X246291000Y-138120700D01*
X246291000Y-138120700D02*
X246270300Y-138100000D01*
X247384000Y-138120700D02*
X247195500Y-138120700D01*
X247195500Y-138120700D02*
X247195500Y-139029800D01*
X247195500Y-139029800D02*
X247367700Y-139202000D01*
X247367700Y-139202000D02*
X247776000Y-139202000D01*
X238796300Y-139829700D02*
X238569300Y-139602700D01*
X238569300Y-139602700D02*
X238569300Y-139598000D01*
X238796300Y-139829700D02*
X240000000Y-139829700D01*
X240000000Y-140500000D02*
X240000000Y-139829700D01*
X237039000Y-139598000D02*
X238569300Y-139598000D01*
X250062100Y-137731500D02*
X250276000Y-137945400D01*
X250276000Y-137945400D02*
X250276000Y-138302000D01*
X247384000Y-138120700D02*
X247773200Y-137731500D01*
X247773200Y-137731500D02*
X250062100Y-137731500D01*
X250062100Y-137731500D02*
X250490000Y-137303600D01*
X250490000Y-137303600D02*
X250490000Y-135860300D01*
X250490000Y-135370000D02*
X250490000Y-135860300D01*
X244415600Y-142555900D02*
X244659700Y-142800000D01*
X245160000Y-142800000D02*
X244659700Y-142800000D01*
X240941000Y-135882800D02*
X241111900Y-135882800D01*
X241111900Y-135882800D02*
X241194700Y-135800000D01*
X242600000Y-135800000D02*
X241194700Y-135800000D01*
X248825000Y-149500000D02*
X248825000Y-150030300D01*
X249190000Y-151100000D02*
X249190000Y-150329700D01*
X249190000Y-150329700D02*
X248890600Y-150030300D01*
X248890600Y-150030300D02*
X248825000Y-150030300D01*
X245500000Y-138100000D02*
X246270300Y-138100000D01*
X237039000Y-142138000D02*
X238569300Y-142138000D01*
X239065000Y-142629700D02*
X239061000Y-142629700D01*
X239061000Y-142629700D02*
X238569300Y-142138000D01*
X240000000Y-142629700D02*
X239065000Y-142629700D01*
X257840000Y-144592800D02*
X257840000Y-143870000D01*
X240000000Y-143300000D02*
X240000000Y-142629700D01*
X243180000Y-147530000D02*
X243200000Y-147550000D01*
X241500000Y-147530000D02*
X243180000Y-147530000D01*
X245940000Y-150950000D02*
X245840000Y-151050000D01*
X247175500Y-149500000D02*
X247525000Y-149500000D01*
X245840000Y-150559700D02*
X246115800Y-150559700D01*
X246115800Y-150559700D02*
X247175500Y-149500000D01*
X246700000Y-151050000D02*
X245840000Y-151050000D01*
X259013960Y-148919020D02*
X259019040Y-148913940D01*
X259013960Y-149299020D02*
X259013960Y-148919020D01*
X259019040Y-145771840D02*
X257840000Y-144592800D01*
X259019040Y-148913940D02*
X259019040Y-145771840D01*
X259024120Y-137974340D02*
X259024120Y-137594340D01*
X259024120Y-143055880D02*
X259024120Y-137974340D01*
X258210000Y-143870000D02*
X259024120Y-143055880D01*
X257840000Y-143870000D02*
X258210000Y-143870000D01*
X259399200Y-135968380D02*
X259029200Y-135968380D01*
X259514121Y-136083301D02*
X259399200Y-135968380D01*
X259514121Y-137474339D02*
X259514121Y-136083301D01*
X259394120Y-137594340D02*
X259514121Y-137474339D01*
X259024120Y-137594340D02*
X259394120Y-137594340D01*
X259376340Y-150906840D02*
X259006340Y-150906840D01*
X259503961Y-150779219D02*
X259376340Y-150906840D01*
X259503961Y-149419021D02*
X259503961Y-150779219D01*
X259383960Y-149299020D02*
X259503961Y-149419021D01*
X259013960Y-149299020D02*
X259383960Y-149299020D01*
X256286000Y-145159300D02*
X256286000Y-145401400D01*
X253766300Y-143117000D02*
X253824800Y-143058500D01*
X253824800Y-143058500D02*
X253987200Y-143058500D01*
X248197100Y-148679300D02*
X248131700Y-148744700D01*
X248131700Y-148744700D02*
X247817300Y-148430300D01*
X247817300Y-148430300D02*
X247525000Y-148430300D01*
X248175000Y-148969700D02*
X248131700Y-148926400D01*
X248131700Y-148926400D02*
X248131700Y-148744700D01*
X244439000Y-144799400D02*
X244659100Y-144799400D01*
X244659100Y-144799400D02*
X244659700Y-144800000D01*
X245160000Y-144800000D02*
X244659700Y-144800000D01*
X244438700Y-148952500D02*
X244657200Y-148952500D01*
X244657200Y-148952500D02*
X244659700Y-148950000D01*
X245160000Y-148950000D02*
X244659700Y-148950000D01*
X221539000Y-150760700D02*
X221539000Y-149758000D01*
X244504700Y-136733100D02*
X243568100Y-137669700D01*
X243568100Y-137669700D02*
X242600000Y-137669700D01*
X244504700Y-136733100D02*
X244696600Y-136733100D01*
X244696600Y-136733100D02*
X244729700Y-136700000D01*
X242600000Y-138800000D02*
X242600000Y-137669700D01*
X245500000Y-136700000D02*
X244729700Y-136700000D01*
X243129900Y-150605700D02*
X242981000Y-150605700D01*
X242981000Y-150605700D02*
X242905300Y-150530000D01*
X244439200Y-141674700D02*
X244534400Y-141674700D01*
X244534400Y-141674700D02*
X244659700Y-141800000D01*
X245160000Y-141800000D02*
X244659700Y-141800000D01*
X251818100Y-140625700D02*
X252027000Y-140625700D01*
X252027000Y-140625700D02*
X252304700Y-140348000D01*
X251356900Y-140625700D02*
X251818100Y-140625700D01*
X247525000Y-147900000D02*
X247525000Y-148430300D01*
X248175000Y-149500000D02*
X248175000Y-148969700D01*
X253086000Y-143117000D02*
X253766300Y-143117000D01*
X250276000Y-141302000D02*
X251076400Y-141302000D01*
X251076400Y-141302000D02*
X251356900Y-141021500D01*
X251356900Y-141021500D02*
X251356900Y-140625700D01*
X256286000Y-135794000D02*
X256286000Y-136796000D01*
X256286000Y-144379000D02*
X256286000Y-145159300D01*
X251356900Y-140625700D02*
X251133200Y-140402000D01*
X251133200Y-140402000D02*
X250776000Y-140402000D01*
X253060000Y-140348000D02*
X252304700Y-140348000D01*
X246443300Y-140402000D02*
X247776000Y-140402000D01*
X246090300Y-140440000D02*
X246128300Y-140402000D01*
X246128300Y-140402000D02*
X246443300Y-140402000D01*
X245500000Y-140440000D02*
X246090300Y-140440000D01*
X216427000Y-147225200D02*
X216203500Y-147225200D01*
X216203500Y-147225200D02*
X216196300Y-147218000D01*
X215416000Y-147218000D02*
X216196300Y-147218000D01*
X218603900Y-141958700D02*
X218578600Y-141958700D01*
X218578600Y-141958700D02*
X218372300Y-142165000D01*
X216967000Y-142165000D02*
X218372300Y-142165000D01*
X248175000Y-149500000D02*
X248175000Y-150030300D01*
X247790000Y-151100000D02*
X247790000Y-150329700D01*
X248175000Y-150030300D02*
X248089400Y-150030300D01*
X248089400Y-150030300D02*
X247790000Y-150329700D01*
X240998100Y-141958700D02*
X240829000Y-141958700D01*
X240829000Y-141958700D02*
X240770300Y-141900000D01*
X240000000Y-141900000D02*
X240770300Y-141900000D01*
X242805000Y-150550000D02*
X243200000Y-150550000D01*
X242785000Y-150530000D02*
X242805000Y-150550000D01*
X241500000Y-150530000D02*
X242785000Y-150530000D01*
X215528700Y-148700000D02*
X215100000Y-148700000D01*
X215535700Y-148693000D02*
X215528700Y-148700000D01*
X215100000Y-146902000D02*
X215416000Y-147218000D01*
X216500000Y-147200000D02*
X216916000Y-147616000D01*
X217515077Y-145743000D02*
X218010067Y-146237990D01*
X216916000Y-145743000D02*
X217515077Y-145743000D01*
X217628340Y-148693000D02*
X216916000Y-148693000D01*
X216916000Y-145743000D02*
X217410990Y-146237990D01*
X217128530Y-148198010D02*
X216916000Y-147985480D01*
X216916000Y-147985480D02*
X216916000Y-148693000D01*
X218225810Y-148198010D02*
X218123330Y-148198010D01*
X220322110Y-146237990D02*
X223025923Y-146237990D01*
X217410990Y-146237990D02*
X220322110Y-146237990D01*
X216956610Y-146237990D02*
X216916000Y-146278600D01*
X216916000Y-146784000D02*
X216916000Y-146278600D01*
X216916000Y-146278600D02*
X216916000Y-145743000D01*
X218020870Y-146072890D02*
X218020870Y-146237990D01*
X218066650Y-146072890D02*
X218020870Y-146072890D01*
X218089480Y-146095720D02*
X218066650Y-146072890D01*
X222961200Y-145981420D02*
X223075500Y-146095720D01*
X223075500Y-146095720D02*
X223080580Y-146095720D01*
X223080580Y-146095720D02*
X223664780Y-146679920D01*
X217892008Y-148198010D02*
X217435990Y-147741992D01*
X223600000Y-147623933D02*
X223025923Y-148198010D01*
X217435990Y-146688310D02*
X217886310Y-146237990D01*
X223600000Y-146812067D02*
X223600000Y-147623933D01*
X217435990Y-147741992D02*
X217435990Y-146688310D01*
X217886310Y-146237990D02*
X216956610Y-146237990D01*
X218020870Y-146237990D02*
X217886310Y-146237990D01*
X223719990Y-147719450D02*
X223719990Y-146672300D01*
X216916000Y-148693000D02*
X217671520Y-148693000D01*
X217984070Y-148380450D02*
X218028520Y-148336000D01*
X222961200Y-145981420D02*
X223149160Y-145981420D01*
X217671520Y-148693000D02*
X217984070Y-148380450D01*
X223149160Y-145981420D02*
X223719990Y-146552250D01*
X218043760Y-148440140D02*
X217984070Y-148380450D01*
X223719990Y-147859150D02*
X223139000Y-148440140D01*
X216916000Y-145743000D02*
X217053500Y-145743000D01*
X217053500Y-145743000D02*
X217652600Y-146342100D01*
X217652600Y-146342100D02*
X217594180Y-146342100D01*
X217730510Y-148198010D02*
X217738130Y-148198010D01*
X218225810Y-148198010D02*
X217738130Y-148198010D01*
X216916000Y-148693000D02*
X216916000Y-148671280D01*
X217521790Y-148065490D02*
X217597990Y-148065490D01*
X216916000Y-148671280D02*
X217521790Y-148065490D01*
X217304620Y-147772120D02*
X217597990Y-148065490D01*
X217597990Y-148065490D02*
X217730510Y-148198010D01*
X217521790Y-148065490D02*
X217422730Y-148065490D01*
X216916000Y-147616000D02*
X216916000Y-147797520D01*
X216916000Y-147797520D02*
X216916000Y-147985480D01*
X217055700Y-147914360D02*
X217339350Y-148198010D01*
X217055700Y-147797520D02*
X217055700Y-147914360D01*
X217339350Y-148198010D02*
X217128530Y-148198010D01*
X217738130Y-148198010D02*
X217339350Y-148198010D01*
X217055700Y-147797520D02*
X216916000Y-147797520D01*
X217154760Y-147797520D02*
X217055700Y-147797520D01*
X217055700Y-146567700D02*
X217055700Y-147914360D01*
X216916000Y-146428000D02*
X217055700Y-146567700D01*
X216916000Y-145743000D02*
X216916000Y-146428000D01*
X217154760Y-147797520D02*
X217154760Y-146781520D01*
X217304620Y-146631660D02*
X217304620Y-146598640D01*
X217304620Y-146598640D02*
X217037920Y-146331940D01*
X217219530Y-146716750D02*
X217219530Y-146668490D01*
X217219530Y-146716750D02*
X217304620Y-146631660D01*
X217154760Y-146781520D02*
X217219530Y-146716750D01*
X217219530Y-146668490D02*
X217152220Y-146601180D01*
X217152220Y-146601180D02*
X217192860Y-146601180D01*
X217397330Y-146396710D02*
X217237310Y-146396710D01*
X217397330Y-146396710D02*
X217457020Y-146337020D01*
X217192860Y-146601180D02*
X217397330Y-146396710D01*
X216916000Y-145743000D02*
X216916000Y-146085560D01*
X216916000Y-146085560D02*
X217170000Y-146339560D01*
X216916000Y-147616000D02*
X216916000Y-147416520D01*
X216916000Y-147416520D02*
X216806780Y-147307300D01*
X216806780Y-146961860D02*
X216772460Y-146927540D01*
X216806780Y-147307300D02*
X216806780Y-146961860D01*
X216231000Y-148693000D02*
X216916000Y-148693000D01*
X215416000Y-147878000D02*
X216231000Y-148693000D01*
X215100000Y-146314260D02*
X215181080Y-146314260D01*
X215181080Y-146611640D02*
X215100000Y-146692720D01*
X215181080Y-146314260D02*
X215181080Y-146611640D01*
X215100000Y-146314260D02*
X215100000Y-146692720D01*
X215100000Y-146692720D02*
X215100000Y-146902000D01*
X215416000Y-147218000D02*
X215416000Y-146846560D01*
X215100000Y-146314260D02*
X215100000Y-146164400D01*
X215100000Y-145750000D02*
X215100000Y-146164400D01*
X215100000Y-146164400D02*
X215145520Y-146164400D01*
X215440260Y-145869660D02*
X215541860Y-145869660D01*
X215257180Y-146687740D02*
X215181080Y-146611640D01*
X215416000Y-146846560D02*
X215257180Y-146687740D01*
X215211560Y-146314260D02*
X215181080Y-146314260D01*
X215666320Y-145859500D02*
X215211560Y-146314260D01*
X215257180Y-146687740D02*
X215257180Y-146517560D01*
X215257180Y-146517560D02*
X215579960Y-146194780D01*
X215579960Y-146194780D02*
X215579960Y-146179540D01*
X215579960Y-146179540D02*
X215752680Y-146006820D01*
X215752680Y-146006820D02*
X215752680Y-145859500D01*
X215752680Y-145859500D02*
X215666320Y-145859500D01*
X215752680Y-146006820D02*
X215653620Y-146006820D01*
X215653620Y-146006820D02*
X215310720Y-146349720D01*
X215416000Y-146558000D02*
X215416000Y-147218000D01*
X216231000Y-145743000D02*
X215416000Y-146558000D01*
X216916000Y-145743000D02*
X216231000Y-145743000D01*
X215416000Y-147218000D02*
X215416000Y-147120740D01*
X215416000Y-147120740D02*
X215833960Y-146702780D01*
X215833960Y-146273520D02*
X215833960Y-146329400D01*
X215833960Y-146329400D02*
X215506300Y-146657060D01*
X215506300Y-146657060D02*
X215712040Y-146657060D01*
X215833960Y-146474180D02*
X215833960Y-146273520D01*
X215833960Y-146702780D02*
X215833960Y-146474180D01*
X215821260Y-146474180D02*
X215833960Y-146474180D01*
X215821260Y-146474180D02*
X215816180Y-146474180D01*
X215816180Y-146474180D02*
X215742520Y-146547840D01*
X215100000Y-145750000D02*
X215549300Y-145300700D01*
X215549300Y-145300700D02*
X215800940Y-145300700D01*
X215404520Y-145445480D02*
X215100000Y-145750000D01*
X215785700Y-145445480D02*
X215404520Y-145445480D01*
X216916000Y-145743000D02*
X216083220Y-145743000D01*
X216083220Y-145743000D02*
X215785700Y-145445480D01*
X215100000Y-145750000D02*
X215344020Y-145750000D01*
X215344020Y-145750000D02*
X215554560Y-145539460D01*
X215554560Y-145539460D02*
X215427560Y-145539460D01*
X215597181Y-145450001D02*
X215760300Y-145613120D01*
X215399999Y-145450001D02*
X215597181Y-145450001D01*
X215100000Y-145750000D02*
X215399999Y-145450001D01*
X215760300Y-145851880D02*
X215752680Y-145859500D01*
X215760300Y-145613120D02*
X215681560Y-145613120D01*
X215681560Y-145613120D02*
X215531700Y-145762980D01*
X215593124Y-145818860D02*
X215760300Y-145818860D01*
X215524264Y-145750000D02*
X215593124Y-145818860D01*
X215100000Y-145750000D02*
X215524264Y-145750000D01*
X215760300Y-145613120D02*
X215760300Y-145818860D01*
X215760300Y-145818860D02*
X215760300Y-145851880D01*
X215100000Y-148700000D02*
X215100000Y-148275736D01*
X215416000Y-147218000D02*
X215416000Y-147768440D01*
X215376500Y-147728940D02*
X215239600Y-147728940D01*
X215416000Y-147768440D02*
X215376500Y-147728940D01*
X215416000Y-147878000D02*
X215402500Y-147891500D01*
X215239600Y-147891500D02*
X215239600Y-147728940D01*
X215416000Y-147872580D02*
X215397080Y-147891500D01*
X215416000Y-147689700D02*
X215416000Y-147872580D01*
X215397080Y-147891500D02*
X215239600Y-147891500D01*
X215402500Y-147891500D02*
X215397080Y-147891500D01*
X215416000Y-147689700D02*
X215416000Y-147878000D01*
X215416000Y-147218000D02*
X215416000Y-147689700D01*
X215493600Y-148115020D02*
X215239600Y-148115020D01*
X215397080Y-148018500D02*
X215493600Y-148115020D01*
X215397080Y-147891500D02*
X215397080Y-148018500D01*
X215239600Y-148136136D02*
X215239600Y-148115020D01*
X215239600Y-148115020D02*
X215239600Y-147891500D01*
X215416000Y-147999580D02*
X215682960Y-147999580D01*
X215397080Y-148018500D02*
X215416000Y-147999580D01*
X215682960Y-147999580D02*
X215841580Y-148158200D01*
X216799160Y-147673060D02*
X216799160Y-147640040D01*
X216799160Y-147673060D02*
X216799160Y-147614640D01*
X216799160Y-147614640D02*
X216659460Y-147474940D01*
X215493600Y-148115020D02*
X215493600Y-148132800D01*
X215493600Y-148132800D02*
X215795860Y-148435060D01*
X215100000Y-148700000D02*
X215259140Y-148700000D01*
X215259140Y-148700000D02*
X215386920Y-148572220D01*
X215762840Y-148559520D02*
X215405970Y-148202650D01*
X215762840Y-148572220D02*
X215762840Y-148559520D01*
X215405970Y-148202650D02*
X215493600Y-148115020D01*
X215618060Y-148572220D02*
X215618060Y-148526500D01*
X215618060Y-148572220D02*
X215762840Y-148572220D01*
X215618060Y-148526500D02*
X215325960Y-148234400D01*
X215325960Y-148234400D02*
X215325960Y-148280120D01*
X215325960Y-148280120D02*
X215237060Y-148369020D01*
X215237060Y-148422360D02*
X215386920Y-148572220D01*
X215237060Y-148369020D02*
X215237060Y-148422360D01*
X215493600Y-148572220D02*
X215148558Y-148227178D01*
X215386920Y-148572220D02*
X215493600Y-148572220D01*
X215100000Y-148275736D02*
X215148558Y-148227178D01*
X215148558Y-148227178D02*
X215239600Y-148136136D01*
X215416000Y-147878000D02*
X215607300Y-148069300D01*
X215607300Y-148069300D02*
X215607300Y-147751200D01*
X215607300Y-147751200D02*
X215612980Y-147756880D01*
X215612980Y-147929600D02*
X215841580Y-148158200D01*
X215612980Y-147756880D02*
X215612980Y-147929600D01*
X215416000Y-147878000D02*
X215518400Y-147980400D01*
X215416000Y-147218000D02*
X215416000Y-147878000D01*
X215841580Y-148158200D02*
X215841580Y-147980400D01*
X215841580Y-147980400D02*
X215841580Y-147721320D01*
X215841580Y-147980400D02*
X215841580Y-147927060D01*
X215841580Y-147927060D02*
X215714580Y-147800060D01*
X215447620Y-147721320D02*
X215416000Y-147689700D01*
X215841580Y-147721320D02*
X215447620Y-147721320D01*
X215447620Y-147721320D02*
X215447620Y-147779480D01*
X215508840Y-147840700D02*
X215447620Y-147779480D01*
X215388660Y-147878000D02*
X215239600Y-147728940D01*
X215416000Y-147878000D02*
X215388660Y-147878000D01*
X216970270Y-147953730D02*
X217310970Y-147953730D01*
X216916000Y-148008000D02*
X216970270Y-147953730D01*
X217310970Y-147953730D02*
X217154760Y-147797520D01*
X216947410Y-147976590D02*
X217333830Y-147976590D01*
X216916000Y-148008000D02*
X216947410Y-147976590D01*
X216916000Y-148693000D02*
X216916000Y-148008000D01*
X217422730Y-148065490D02*
X217333830Y-147976590D01*
X217333830Y-147976590D02*
X217310970Y-147953730D01*
X223139000Y-148440140D02*
X218043760Y-148440140D01*
X216916000Y-146784000D02*
X216916000Y-145743000D01*
X216772460Y-146927540D02*
X216916000Y-146784000D01*
X217304620Y-147116800D02*
X217304620Y-147772120D01*
X217304620Y-146631660D02*
X217304620Y-147116800D01*
X216843580Y-146927540D02*
X216916000Y-146999960D01*
X216772460Y-146927540D02*
X216843580Y-146927540D01*
X216916000Y-146784000D02*
X216916000Y-146999960D01*
X216916000Y-146999960D02*
X216916000Y-147616000D01*
X217172540Y-147116800D02*
X216827100Y-146771360D01*
X217304620Y-147116800D02*
X217172540Y-147116800D01*
X216827100Y-146771360D02*
X216827100Y-146296380D01*
X216049860Y-148158200D02*
X216799160Y-148158200D01*
X215841580Y-148158200D02*
X216049860Y-148158200D01*
X216049860Y-146359880D02*
X216128600Y-146281140D01*
X216128600Y-146281140D02*
X216568020Y-146281140D01*
X216500000Y-146349160D02*
X216500000Y-147200000D01*
X216568020Y-146281140D02*
X216500000Y-146349160D01*
X216568020Y-146796760D02*
X216735630Y-146964370D01*
X216568020Y-146281140D02*
X216568020Y-146796760D01*
X216500000Y-147200000D02*
X216735630Y-146964370D01*
X216735630Y-146964370D02*
X216772460Y-146927540D01*
X216735630Y-146964370D02*
X216735630Y-146819590D01*
X216735630Y-146819590D02*
X216707720Y-146791680D01*
X216707720Y-146791680D02*
X216707720Y-146298920D01*
X216049860Y-146359880D02*
X216019380Y-146359880D01*
X215933020Y-146273520D02*
X215833960Y-146273520D01*
X216019380Y-146359880D02*
X215933020Y-146273520D01*
X216773760Y-148033740D02*
X216799160Y-148008340D01*
X216799160Y-148158200D02*
X216799160Y-148008340D01*
X216481660Y-147411440D02*
X216049860Y-147411440D01*
X216049860Y-147411440D02*
X216049860Y-146359880D01*
X216773760Y-148033740D02*
X216773760Y-148010880D01*
X216773760Y-148010880D02*
X216651840Y-147888960D01*
X216651840Y-147888960D02*
X216651840Y-147581620D01*
X216799160Y-148008340D02*
X216799160Y-147894040D01*
X216799160Y-147894040D02*
X216799160Y-147673060D01*
X216535000Y-147612100D02*
X216608660Y-147538440D01*
X216535000Y-147894040D02*
X216535000Y-147612100D01*
X216608660Y-147538440D02*
X216481660Y-147411440D01*
X216651840Y-147581620D02*
X216608660Y-147538440D01*
X216535000Y-147894040D02*
X216799160Y-147894040D01*
X216535000Y-147627340D02*
X216535000Y-147894040D01*
X216392760Y-147561300D02*
X216430860Y-147523200D01*
X216156540Y-147561300D02*
X216392760Y-147561300D01*
X216156540Y-147612100D02*
X216156540Y-147561300D01*
X216049860Y-147411440D02*
X216049860Y-147749260D01*
X216194640Y-147894040D02*
X216438480Y-147894040D01*
X216430860Y-147523200D02*
X216535000Y-147627340D01*
X216049860Y-147749260D02*
X216194640Y-147894040D01*
X216438480Y-147723860D02*
X216268300Y-147723860D01*
X216268300Y-147723860D02*
X216156540Y-147612100D01*
X216438480Y-147894040D02*
X216311480Y-147894040D01*
X216311480Y-147894040D02*
X216161620Y-147744180D01*
X216196300Y-147503700D02*
X216196300Y-147218000D01*
X216161620Y-147538380D02*
X216196300Y-147503700D01*
X216161620Y-147744180D02*
X216161620Y-147538380D01*
X216196300Y-147041480D02*
X216196300Y-147218000D01*
X216382600Y-146855180D02*
X216196300Y-147041480D01*
X216382600Y-146410680D02*
X216382600Y-146855180D01*
X216128600Y-146281140D02*
X216253060Y-146281140D01*
X216253060Y-146281140D02*
X216382600Y-146410680D01*
X216253060Y-146281140D02*
X216253060Y-146817080D01*
X215100000Y-148700000D02*
X215536100Y-149136100D01*
X215536100Y-149136100D02*
X215808560Y-149136100D01*
X215582500Y-148991320D02*
X215742520Y-148831300D01*
X215749000Y-148693000D02*
X215535700Y-148693000D01*
X216916000Y-148693000D02*
X215749000Y-148693000D01*
X215680160Y-148693000D02*
X215749000Y-148693000D01*
X215554560Y-148818600D02*
X215680160Y-148693000D01*
X215386920Y-148818600D02*
X215554560Y-148818600D01*
X215369140Y-148836380D02*
X215386920Y-148818600D01*
X215582500Y-148991320D02*
X215524080Y-148991320D01*
X215524080Y-148991320D02*
X215369140Y-148836380D01*
X215554560Y-148818600D02*
X215783160Y-148818600D01*
X215783160Y-148818600D02*
X215701880Y-148899880D01*
X215701880Y-149029420D02*
X215808560Y-149136100D01*
X215701880Y-148899880D02*
X215701880Y-149029420D01*
X216053540Y-148693000D02*
X215755220Y-148991320D01*
X216916000Y-148693000D02*
X216053540Y-148693000D01*
X215755220Y-148991320D02*
X215582500Y-148991320D01*
X216171780Y-148005800D02*
X216049860Y-147883880D01*
X216171780Y-148033740D02*
X216171780Y-148005800D01*
X216049860Y-147883880D02*
X216049860Y-147411440D01*
X216049860Y-148158200D02*
X216049860Y-147883880D01*
X216171780Y-148033740D02*
X216773760Y-148033740D01*
X215933020Y-148033740D02*
X216171780Y-148033740D01*
X216397840Y-147883880D02*
X216438480Y-147843240D01*
X216049860Y-147883880D02*
X216397840Y-147883880D01*
X216438480Y-147894040D02*
X216438480Y-147843240D01*
X216438480Y-147843240D02*
X216438480Y-147723860D01*
X215663780Y-147927060D02*
X215610440Y-147980400D01*
X215841580Y-147927060D02*
X215663780Y-147927060D01*
X215518400Y-147980400D02*
X215610440Y-147980400D01*
X215610440Y-147980400D02*
X215841580Y-147980400D01*
X216161620Y-147744180D02*
X216209880Y-147744180D01*
X216354660Y-147640040D02*
X216438480Y-147723860D01*
X216314020Y-147640040D02*
X216354660Y-147640040D01*
X216314020Y-147640040D02*
X216392760Y-147561300D01*
X216209880Y-147744180D02*
X216314020Y-147640040D01*
X216128600Y-146941540D02*
X216171780Y-146941540D01*
X216128600Y-146941540D02*
X216128600Y-147078700D01*
X216128600Y-146281140D02*
X216128600Y-146941540D01*
X215933020Y-146898360D02*
X215933020Y-146977100D01*
X215933020Y-146898360D02*
X215933020Y-148033740D01*
X215933020Y-146273520D02*
X215933020Y-146898360D01*
X220619320Y-145981420D02*
X220733620Y-146095720D01*
X220075760Y-145981420D02*
X220619320Y-145981420D01*
X223075500Y-146095720D02*
X220733620Y-146095720D01*
X220075760Y-145981420D02*
X222961200Y-145981420D01*
X218015820Y-145981420D02*
X220075760Y-145981420D01*
X219235020Y-146042380D02*
X219288360Y-146095720D01*
X219235020Y-145295620D02*
X219235020Y-146042380D01*
X220733620Y-146095720D02*
X219288360Y-146095720D01*
X219288360Y-146095720D02*
X218089480Y-146095720D01*
X219235020Y-148714376D02*
X219235020Y-148336000D01*
X219235020Y-149138640D02*
X219235020Y-148714376D01*
X218028520Y-148336000D02*
X219235020Y-148336000D01*
X219235020Y-148336000D02*
X223103440Y-148336000D01*
X223631760Y-148640800D02*
X223215200Y-148224240D01*
X224330260Y-148640800D02*
X223631760Y-148640800D01*
X223103440Y-148336000D02*
X223215200Y-148224240D01*
X223215200Y-148224240D02*
X223719990Y-147719450D01*
X215239600Y-147991969D02*
X214996009Y-147748378D01*
X215239600Y-148136136D02*
X215239600Y-147991969D01*
X214996009Y-147748378D02*
X214996009Y-146501503D01*
X215100000Y-146174264D02*
X215100000Y-145750000D01*
X215099999Y-146397513D02*
X215100000Y-146174264D01*
X214996009Y-146501503D02*
X215099999Y-146397513D01*
X214992940Y-145750000D02*
X215276430Y-146033490D01*
X215100000Y-145750000D02*
X214992940Y-145750000D01*
X215145520Y-146164400D02*
X215276430Y-146033490D01*
X215276430Y-146033490D02*
X215440260Y-145869660D01*
X214996009Y-147748378D02*
X214996009Y-147912069D01*
X215099800Y-148015860D02*
X215100000Y-148015860D01*
X214996009Y-147912069D02*
X215099800Y-148015860D01*
X215100000Y-148275736D02*
X215100000Y-148015860D01*
X215100000Y-148015860D02*
X215100000Y-147729040D01*
X220322110Y-146237990D02*
X219153770Y-146237990D01*
X219153770Y-146237990D02*
X218020870Y-146237990D01*
D33*
X219153770Y-146237990D02*
X217856008Y-146237990D01*
X217615999Y-146477999D02*
X217615999Y-147958001D01*
D32*
X217594180Y-146342100D02*
X217535760Y-146400520D01*
X217535760Y-146400520D02*
X217304620Y-146631660D01*
D33*
X217615999Y-147958001D02*
X217675999Y-148018001D01*
X217675999Y-148018001D02*
X219156001Y-148018001D01*
X217856008Y-146237990D02*
X217615999Y-146477999D01*
X223029001Y-146345419D02*
X223081176Y-146293244D01*
X223029001Y-146417999D02*
X223029001Y-146345419D01*
D32*
X223025923Y-146237990D02*
X223081176Y-146293244D01*
D33*
X219253710Y-146398890D02*
X219234601Y-146417999D01*
X219253710Y-146817990D02*
X219253710Y-146398890D01*
X219985950Y-146817990D02*
X219253710Y-146817990D01*
X217553239Y-146417999D02*
X217535760Y-146400520D01*
X219988999Y-146814941D02*
X219985950Y-146817990D01*
X219460779Y-146417999D02*
X219377260Y-146334480D01*
X219377260Y-146334480D02*
X219377260Y-146624040D01*
X219377260Y-146624040D02*
X219376859Y-146624441D01*
X219988999Y-146624441D02*
X219988999Y-146814941D01*
D34*
X219376859Y-146624441D02*
X219949161Y-146624441D01*
D33*
X219949161Y-146624441D02*
X219988999Y-146624441D01*
D34*
X219949161Y-146559537D02*
X220090699Y-146417999D01*
X219949161Y-146624441D02*
X219949161Y-146559537D01*
X219840001Y-147958001D02*
X220080010Y-148198010D01*
X219216001Y-147958001D02*
X219840001Y-147958001D01*
D32*
X220080010Y-148198010D02*
X217892008Y-148198010D01*
D34*
X220080010Y-148198010D02*
X219195210Y-148198010D01*
D32*
X219195210Y-148198010D02*
X218225810Y-148198010D01*
D33*
X219216001Y-147958001D02*
X219156001Y-148018001D01*
X219216001Y-147958001D02*
X219216001Y-147930839D01*
X219216001Y-147930839D02*
X219397580Y-147749260D01*
X219397580Y-147749260D02*
X219877640Y-147749260D01*
X219216001Y-147620959D02*
X219216001Y-147958001D01*
X219985150Y-147618010D02*
X219218950Y-147618010D01*
X219988999Y-147621859D02*
X219985150Y-147618010D01*
X219218950Y-147618010D02*
X219216001Y-147620959D01*
X223089001Y-147958001D02*
X223029001Y-148018001D01*
X223029001Y-146417999D02*
X223089001Y-146477999D01*
X218894660Y-146417999D02*
X218678459Y-146417999D01*
X219170417Y-146417999D02*
X218894660Y-146417999D01*
X219376859Y-146624441D02*
X219170417Y-146417999D01*
X219234601Y-146417999D02*
X218678459Y-146417999D01*
X218678459Y-146417999D02*
X217553239Y-146417999D01*
X222848992Y-148198010D02*
X223089001Y-147958001D01*
X222848610Y-148198010D02*
X222848992Y-148198010D01*
D32*
X222848610Y-148198010D02*
X219195210Y-148198010D01*
X223025923Y-148198010D02*
X222848610Y-148198010D01*
D33*
X223089001Y-147958001D02*
X223089001Y-147951659D01*
X223089001Y-147951659D02*
X223486980Y-147553680D01*
D32*
X223231036Y-146443104D02*
X223231036Y-146565024D01*
X223231036Y-146443104D02*
X223600000Y-146812067D01*
X223081176Y-146293244D02*
X223231036Y-146443104D01*
X223231036Y-146565024D02*
X223238060Y-146572048D01*
X223238060Y-147675600D02*
X223089001Y-147824659D01*
D33*
X223089001Y-146477999D02*
X223089001Y-147824659D01*
X223089001Y-147824659D02*
X223089001Y-147958001D01*
D32*
X223238060Y-147675600D02*
X223238060Y-147609560D01*
X223238060Y-147609560D02*
X223486980Y-147360640D01*
X223486980Y-147360640D02*
X223486980Y-146850100D01*
X223238060Y-147378420D02*
X223238060Y-147675600D01*
X223238060Y-146572048D02*
X223238060Y-147378420D01*
X223442530Y-146772630D02*
X223442530Y-146805650D01*
X223486980Y-146850100D02*
X223442530Y-146805650D01*
X223238060Y-147378420D02*
X223268540Y-147378420D01*
X223442530Y-146805650D02*
X223365060Y-146728180D01*
X223268540Y-147378420D02*
X223359980Y-147286980D01*
X223359980Y-147286980D02*
X223359980Y-146690080D01*
X223359980Y-146690080D02*
X223442530Y-146772630D01*
X223486980Y-147360640D02*
X223486980Y-147553680D01*
X223719990Y-148015986D02*
X223884014Y-148180010D01*
X223719990Y-146754250D02*
X223719990Y-148015986D01*
X223719990Y-146754250D02*
X223719990Y-147859150D01*
X223719990Y-146552250D02*
X223719990Y-146754250D01*
X223884014Y-148180010D02*
X224243900Y-148180010D01*
X223719990Y-148015986D02*
X223719990Y-146697700D01*
X219460779Y-146327221D02*
X219550010Y-146237990D01*
X219460779Y-146417999D02*
X219460779Y-146327221D01*
X218020870Y-146237990D02*
X219550010Y-146237990D01*
X220172641Y-146417999D02*
X220352650Y-146237990D01*
X219918581Y-146417999D02*
X220172641Y-146417999D01*
D33*
X220090699Y-146417999D02*
X219918581Y-146417999D01*
D32*
X219558232Y-146237990D02*
X219738241Y-146417999D01*
X219550010Y-146237990D02*
X219558232Y-146237990D01*
D33*
X219918581Y-146417999D02*
X219738241Y-146417999D01*
X219738241Y-146417999D02*
X219460779Y-146417999D01*
D32*
X219738241Y-146372339D02*
X219872590Y-146237990D01*
X219738241Y-146417999D02*
X219738241Y-146372339D01*
X219550010Y-146237990D02*
X219872590Y-146237990D01*
X219872590Y-146237990D02*
X220352650Y-146237990D01*
X219910690Y-146237990D02*
X220090699Y-146417999D01*
X219872590Y-146237990D02*
X219910690Y-146237990D01*
X220456730Y-146342070D02*
X220532659Y-146417999D01*
X220456730Y-146237990D02*
X220456730Y-146342070D01*
D33*
X220532659Y-146417999D02*
X220090699Y-146417999D01*
X223029001Y-146417999D02*
X220532659Y-146417999D01*
D32*
X220352650Y-146237990D02*
X220456730Y-146237990D01*
X222803810Y-146342070D02*
X222907890Y-146237990D01*
X220456730Y-146342070D02*
X222803810Y-146342070D01*
X220456730Y-146237990D02*
X222907890Y-146237990D01*
X222907890Y-146237990D02*
X223025923Y-146237990D01*
X220084999Y-148018001D02*
X219988999Y-147922001D01*
D33*
X223029001Y-148018001D02*
X220231199Y-148018001D01*
D32*
X220231199Y-148018001D02*
X220084999Y-148018001D01*
D33*
X219988999Y-147731079D02*
X219988999Y-147621859D01*
D32*
X220064999Y-147998001D02*
X220182440Y-147998001D01*
X219988999Y-147922001D02*
X219988999Y-147909681D01*
X220064999Y-147998001D02*
X219988999Y-147922001D01*
X219988999Y-147909681D02*
X219988999Y-147731079D01*
X220273050Y-148198010D02*
X220273050Y-148180230D01*
X220273050Y-148198010D02*
X220080010Y-148198010D01*
X220231199Y-148138379D02*
X220231199Y-148018001D01*
X220273050Y-148180230D02*
X220231199Y-148138379D01*
X222800350Y-148180230D02*
X222818130Y-148198010D01*
X220273050Y-148180230D02*
X222800350Y-148180230D01*
X223025923Y-148198010D02*
X222818130Y-148198010D01*
X222818130Y-148198010D02*
X220273050Y-148198010D01*
D35*
X227115001Y-152693001D02*
X227115001Y-152375501D01*
X227965000Y-153543000D02*
X227115001Y-152693001D01*
X227965000Y-153543000D02*
X227175001Y-153543000D01*
X227175001Y-152435501D02*
X227115001Y-152375501D01*
X227175001Y-153543000D02*
X227175001Y-152435501D01*
X228814999Y-152693001D02*
X227965000Y-153543000D01*
X228814999Y-152642999D02*
X228814999Y-152693001D01*
X228754999Y-152702999D02*
X228814999Y-152642999D01*
X228754999Y-153543000D02*
X228754999Y-152702999D01*
X227965000Y-153543000D02*
X228754999Y-153543000D01*
D32*
X256286000Y-141783400D02*
X256286000Y-142794000D01*
X256286000Y-142794000D02*
X257266300Y-142794000D01*
X257840000Y-143190000D02*
X257349700Y-143190000D01*
X257266300Y-142794000D02*
X257266300Y-143106600D01*
X257266300Y-143106600D02*
X257349700Y-143190000D01*
X222289000Y-144678000D02*
X221539000Y-144678000D01*
X222289000Y-144678000D02*
X223070420Y-143896580D01*
X223070420Y-143896580D02*
X223070420Y-143362680D01*
X237039000Y-147218000D02*
X235508700Y-147218000D01*
X238125000Y-153543000D02*
X238125000Y-152412700D01*
X238125000Y-152412700D02*
X237506900Y-152412700D01*
X237506900Y-152412700D02*
X235508700Y-150414500D01*
X235508700Y-150414500D02*
X235508700Y-147218000D01*
X237039000Y-149758000D02*
X238569300Y-149758000D01*
X240665000Y-153543000D02*
X240665000Y-152412700D01*
X240665000Y-152412700D02*
X238569300Y-150317000D01*
X238569300Y-150317000D02*
X238569300Y-149758000D01*
X243205000Y-153543000D02*
X243205000Y-152412700D01*
X243205000Y-152412700D02*
X244287600Y-152412700D01*
X244287600Y-152412700D02*
X245160000Y-151540300D01*
X245160000Y-151050000D02*
X245160000Y-151540300D01*
X245978400Y-152358700D02*
X245160000Y-151540300D01*
X255354880Y-151269580D02*
X255352460Y-151267160D01*
X256214880Y-151269580D02*
X255354880Y-151269580D01*
X253390302Y-152358700D02*
X245978400Y-152358700D01*
X254481842Y-151267160D02*
X253390302Y-152358700D01*
X255352460Y-151267160D02*
X254481842Y-151267160D01*
X250776000Y-139202000D02*
X251163000Y-139202000D01*
X251163000Y-139202000D02*
X251234500Y-139130500D01*
X251234500Y-139130500D02*
X251972800Y-139130500D01*
X251972800Y-139130500D02*
X252485000Y-139642700D01*
X252485000Y-139642700D02*
X253651100Y-139642700D01*
X253651100Y-139642700D02*
X253826100Y-139817700D01*
X253826100Y-139817700D02*
X253826100Y-140926000D01*
X253826100Y-140926000D02*
X253463500Y-141288600D01*
X254214999Y-152693001D02*
X253365000Y-153543000D01*
X254855011Y-152052989D02*
X254214999Y-152693001D01*
X257077511Y-152052989D02*
X254855011Y-152052989D01*
X257194881Y-151935619D02*
X257077511Y-152052989D01*
X257194881Y-151529337D02*
X257194881Y-151935619D01*
X258745198Y-149979020D02*
X257194881Y-151529337D01*
X259013960Y-149979020D02*
X258745198Y-149979020D01*
X250776000Y-138802000D02*
X251048100Y-138529900D01*
X251048100Y-138529900D02*
X251938900Y-138529900D01*
X256754999Y-152693001D02*
X255905000Y-153543000D01*
X257035001Y-152412999D02*
X256754999Y-152693001D01*
X258560181Y-152412999D02*
X257035001Y-152412999D01*
X259006340Y-151966840D02*
X258560181Y-152412999D01*
X259006340Y-151586840D02*
X259006340Y-151966840D01*
X252258000Y-142730900D02*
X252258000Y-143530800D01*
X252258000Y-143530800D02*
X252643400Y-143916200D01*
X252643400Y-143916200D02*
X253906200Y-143916200D01*
X252258000Y-142730900D02*
X248484000Y-142730900D01*
X248484000Y-142730900D02*
X247776000Y-142022900D01*
X247776000Y-142022900D02*
X247776000Y-140802000D01*
X251170000Y-135370000D02*
X252311900Y-135370000D01*
X252311900Y-135370000D02*
X254195400Y-137253500D01*
X254195400Y-137253500D02*
X254195400Y-141436100D01*
X254195400Y-141436100D02*
X253575100Y-142056400D01*
X253575100Y-142056400D02*
X252932500Y-142056400D01*
X252932500Y-142056400D02*
X252258000Y-142730900D01*
X248825000Y-147900000D02*
X248825000Y-147369700D01*
X248825000Y-147369700D02*
X250075600Y-147369700D01*
X250075600Y-147369700D02*
X250657500Y-147951600D01*
X250657500Y-147951600D02*
X253757800Y-147951600D01*
X253757800Y-147951600D02*
X253920400Y-147789000D01*
X253920400Y-147789000D02*
X253920400Y-147371000D01*
X253920400Y-147371000D02*
X254573600Y-146717800D01*
X259029200Y-133807200D02*
X258445000Y-133223000D01*
X259029200Y-135288380D02*
X259029200Y-133807200D01*
X255305700Y-146894300D02*
X255305700Y-146705700D01*
X254813900Y-147386100D02*
X255305700Y-146894300D01*
X255305700Y-146705700D02*
X255305700Y-146806400D01*
X254813900Y-147405000D02*
X254813900Y-147386100D01*
X249475000Y-147900000D02*
X250090900Y-147900000D01*
X250090900Y-147900000D02*
X250502800Y-148311900D01*
X250502800Y-148311900D02*
X253907000Y-148311900D01*
X253907000Y-148311900D02*
X254813900Y-147405000D01*
X255305700Y-145783440D02*
X255305700Y-145727280D01*
X255305700Y-145783440D02*
X255305700Y-146705700D01*
X255305700Y-145783440D02*
X255305700Y-145595480D01*
X255055001Y-134072999D02*
X255905000Y-133223000D01*
X255055001Y-145344781D02*
X255055001Y-134072999D01*
X255305700Y-145595480D02*
X255055001Y-145344781D01*
X256754999Y-134072999D02*
X255905000Y-133223000D01*
X257194881Y-134512881D02*
X256754999Y-134072999D01*
X257194881Y-135068063D02*
X257194881Y-134512881D01*
X259024120Y-136897302D02*
X257194881Y-135068063D01*
X259024120Y-136914340D02*
X259024120Y-136897302D01*
X250148000Y-150287900D02*
X249981400Y-150287900D01*
X251770000Y-151700000D02*
X251114700Y-151700000D01*
X250405664Y-150287900D02*
X250750000Y-150632236D01*
X249981400Y-150287900D02*
X250405664Y-150287900D01*
X250750000Y-151335300D02*
X251114700Y-151700000D01*
X250750000Y-150632236D02*
X250750000Y-151335300D01*
X244232900Y-135531200D02*
X247185900Y-135531200D01*
X247185900Y-135531200D02*
X247214700Y-135560000D01*
X247870000Y-135560000D02*
X247214700Y-135560000D01*
X248050000Y-146400000D02*
X248923400Y-145526600D01*
X248923400Y-145526600D02*
X250048100Y-145526600D01*
X250048100Y-145526600D02*
X250122400Y-145452300D01*
X250122400Y-145452300D02*
X253628500Y-145452300D01*
X253628500Y-145452300D02*
X254613200Y-144467600D01*
X254613200Y-144467600D02*
X254613200Y-137125700D01*
X254613200Y-137125700D02*
X252136900Y-134649400D01*
X252136900Y-134649400D02*
X240447500Y-134649400D01*
X240447500Y-134649400D02*
X239255300Y-133457200D01*
X239255300Y-133457200D02*
X239255300Y-133223000D01*
X238125000Y-133223000D02*
X239255300Y-133223000D01*
X247776000Y-140002000D02*
X247019500Y-140002000D01*
X247019500Y-140002000D02*
X246577500Y-139560000D01*
X246577500Y-139560000D02*
X245500000Y-139560000D01*
D33*
X218416000Y-147218000D02*
X221539000Y-147218000D01*
D32*
X224737000Y-137150000D02*
X222289000Y-139598000D01*
X235094500Y-138144500D02*
X234100000Y-137150000D01*
X235094500Y-142406100D02*
X235094500Y-138144500D01*
X234100000Y-137150000D02*
X224737000Y-137150000D01*
X245160000Y-145800000D02*
X243973100Y-145800000D01*
X243973100Y-145800000D02*
X242202700Y-144029600D01*
X242202700Y-144029600D02*
X239043000Y-144029600D01*
X239043000Y-144029600D02*
X238070500Y-143057100D01*
X222289000Y-139598000D02*
X221539000Y-139598000D01*
X238070500Y-143057100D02*
X235745500Y-143057100D01*
X235745500Y-143057100D02*
X235094500Y-142406100D01*
X245160000Y-143800000D02*
X244659700Y-143800000D01*
X237039000Y-137058000D02*
X238569300Y-137058000D01*
X244659700Y-143800000D02*
X238569300Y-137709600D01*
X238569300Y-137709600D02*
X238569300Y-137058000D01*
X253060000Y-138748000D02*
X253060000Y-138042700D01*
X253000000Y-137150000D02*
X253000000Y-137982700D01*
X253000000Y-137982700D02*
X253060000Y-138042700D01*
X251250000Y-144650000D02*
X251830300Y-144650000D01*
X253086000Y-144767000D02*
X251947300Y-144767000D01*
X251947300Y-144767000D02*
X251830300Y-144650000D01*
X251250000Y-143550000D02*
X250669700Y-143550000D01*
X247580000Y-143710000D02*
X248060400Y-143229600D01*
X248060400Y-143229600D02*
X250349300Y-143229600D01*
X250349300Y-143229600D02*
X250669700Y-143550000D01*
X251900000Y-137730300D02*
X251416800Y-137730300D01*
X251416800Y-137730300D02*
X251241200Y-137905900D01*
X251900000Y-137150000D02*
X251900000Y-137730300D01*
X248455500Y-143954100D02*
X248455500Y-144448800D01*
X248455500Y-144448800D02*
X247894300Y-145010000D01*
X247894300Y-145010000D02*
X247580000Y-145010000D01*
X245840000Y-145800000D02*
X246340300Y-145800000D01*
X248874700Y-144360000D02*
X248874700Y-144644100D01*
X248874700Y-144644100D02*
X247718800Y-145800000D01*
X247718800Y-145800000D02*
X246340300Y-145800000D01*
X249480000Y-144360000D02*
X248874700Y-144360000D01*
X245840000Y-146800000D02*
X245840000Y-145800000D01*
X245840000Y-144290300D02*
X246272100Y-144290300D01*
X246272100Y-144290300D02*
X246384800Y-144403000D01*
X247580000Y-144360000D02*
X246974700Y-144360000D01*
X246384800Y-144403000D02*
X246931700Y-144403000D01*
X246931700Y-144403000D02*
X246974700Y-144360000D01*
X246340300Y-144800000D02*
X246384800Y-144755500D01*
X246384800Y-144755500D02*
X246384800Y-144403000D01*
X245840000Y-143800000D02*
X245840000Y-144290300D01*
X245840000Y-144800000D02*
X246340300Y-144800000D01*
X249475000Y-149500000D02*
X249475000Y-148869100D01*
X249475000Y-148869100D02*
X249342600Y-148736700D01*
X246426000Y-149240900D02*
X246157200Y-149509700D01*
X246157200Y-149509700D02*
X245840000Y-149509700D01*
X245840000Y-150000000D02*
X245840000Y-149509700D01*
X246426000Y-149188900D02*
X246664900Y-148950000D01*
X246426000Y-149240900D02*
X246426000Y-149188900D01*
X246664900Y-148950000D02*
X245840000Y-148950000D01*
X251590000Y-149880000D02*
X250759700Y-149880000D01*
X248970000Y-135560000D02*
X248970000Y-136140300D01*
X248970000Y-136140300D02*
X248584900Y-136525400D01*
X248584900Y-136525400D02*
X248584900Y-136747500D01*
X250759700Y-149880000D02*
X250759700Y-149389500D01*
X250759700Y-149389500D02*
X250148600Y-148778400D01*
X252870000Y-151700000D02*
X252870000Y-151119700D01*
X253090000Y-149880000D02*
X253090000Y-150910300D01*
X253090000Y-150910300D02*
X252880600Y-151119700D01*
X252880600Y-151119700D02*
X252870000Y-151119700D01*
X249150000Y-146400000D02*
X249805300Y-146400000D01*
X253090000Y-146880000D02*
X253090000Y-145849700D01*
X253090000Y-145849700D02*
X250355600Y-145849700D01*
X250355600Y-145849700D02*
X249805300Y-146400000D01*
X245840000Y-141800000D02*
X245840000Y-141309700D01*
X247776000Y-139602000D02*
X247258000Y-139602000D01*
X247258000Y-139602000D02*
X246610600Y-138954600D01*
X246610600Y-138954600D02*
X245009000Y-138954600D01*
X245009000Y-138954600D02*
X244909600Y-139054000D01*
X244909600Y-139054000D02*
X244909600Y-140883600D01*
X244909600Y-140883600D02*
X245335700Y-141309700D01*
X245335700Y-141309700D02*
X245840000Y-141309700D01*
X245840000Y-141800000D02*
X245840000Y-142800000D01*
D36*
G36*
X229016928Y-134073000D02*
G01*
X229029188Y-134197482D01*
X229065498Y-134317180D01*
X229124463Y-134427494D01*
X229203815Y-134524185D01*
X229300506Y-134603537D01*
X229410820Y-134662502D01*
X229530518Y-134698812D01*
X229655000Y-134711072D01*
X231355000Y-134711072D01*
X231479482Y-134698812D01*
X231599180Y-134662502D01*
X231709494Y-134603537D01*
X231806185Y-134524185D01*
X231885537Y-134427494D01*
X231944502Y-134317180D01*
X231965393Y-134248313D01*
X231989866Y-134278134D01*
X232215986Y-134463706D01*
X232473966Y-134601599D01*
X232753889Y-134686513D01*
X232972050Y-134708000D01*
X233117950Y-134708000D01*
X233336111Y-134686513D01*
X233616034Y-134601599D01*
X233874014Y-134463706D01*
X234100134Y-134278134D01*
X234285706Y-134052014D01*
X234315000Y-133997209D01*
X234344294Y-134052014D01*
X234529866Y-134278134D01*
X234755986Y-134463706D01*
X235013966Y-134601599D01*
X235293889Y-134686513D01*
X235512050Y-134708000D01*
X235657950Y-134708000D01*
X235876111Y-134686513D01*
X236156034Y-134601599D01*
X236414014Y-134463706D01*
X236640134Y-134278134D01*
X236825706Y-134052014D01*
X236855000Y-133997209D01*
X236884294Y-134052014D01*
X237069866Y-134278134D01*
X237295986Y-134463706D01*
X237553966Y-134601599D01*
X237833889Y-134686513D01*
X238052050Y-134708000D01*
X238197950Y-134708000D01*
X238416111Y-134686513D01*
X238696034Y-134601599D01*
X238954014Y-134463706D01*
X239116937Y-134329999D01*
X239917088Y-135130151D01*
X239939473Y-135157427D01*
X239966748Y-135179811D01*
X239966751Y-135179814D01*
X240014536Y-135219030D01*
X240048346Y-135246777D01*
X240172558Y-135313170D01*
X240192964Y-135319360D01*
X240112414Y-135439911D01*
X240041932Y-135610071D01*
X240006000Y-135790711D01*
X240006000Y-135974889D01*
X240041932Y-136155529D01*
X240112414Y-136325689D01*
X240214738Y-136478828D01*
X240344972Y-136609062D01*
X240498111Y-136711386D01*
X240668271Y-136781868D01*
X240848911Y-136817800D01*
X240862328Y-136817800D01*
X240885498Y-136894180D01*
X240944463Y-137004494D01*
X241023815Y-137101185D01*
X241120506Y-137180537D01*
X241230820Y-137239502D01*
X241350518Y-137275812D01*
X241475000Y-137288072D01*
X243725000Y-137288072D01*
X243849482Y-137275812D01*
X243969180Y-137239502D01*
X244079494Y-137180537D01*
X244176185Y-137101185D01*
X244255537Y-137004494D01*
X244314502Y-136894180D01*
X244350812Y-136774482D01*
X244363072Y-136650000D01*
X244363072Y-136458625D01*
X244410033Y-136449283D01*
X244533750Y-136573000D01*
X245373000Y-136573000D01*
X245373000Y-136553000D01*
X245627000Y-136553000D01*
X245627000Y-136573000D01*
X246466250Y-136573000D01*
X246625000Y-136414250D01*
X246628072Y-136310000D01*
X246621788Y-136246200D01*
X246990483Y-136246200D01*
X247043815Y-136311185D01*
X247140506Y-136390537D01*
X247250820Y-136449502D01*
X247370518Y-136485812D01*
X247495000Y-136498072D01*
X247681197Y-136498072D01*
X247649900Y-136655411D01*
X247649900Y-136839589D01*
X247685832Y-137020229D01*
X247686396Y-137021590D01*
X247633036Y-137026846D01*
X247498258Y-137067730D01*
X247374046Y-137134123D01*
X247311199Y-137185700D01*
X247291911Y-137185700D01*
X247111271Y-137221632D01*
X246941111Y-137292114D01*
X246787972Y-137394438D01*
X246776710Y-137405700D01*
X246547367Y-137405700D01*
X246544320Y-137400000D01*
X246579502Y-137334180D01*
X246615812Y-137214482D01*
X246628072Y-137090000D01*
X246625000Y-136985750D01*
X246466250Y-136827000D01*
X245627000Y-136827000D01*
X245627000Y-136847000D01*
X245373000Y-136847000D01*
X245373000Y-136827000D01*
X244533750Y-136827000D01*
X244375000Y-136985750D01*
X244371928Y-137090000D01*
X244384188Y-137214482D01*
X244420498Y-137334180D01*
X244455680Y-137400000D01*
X244420498Y-137465820D01*
X244384188Y-137585518D01*
X244371928Y-137710000D01*
X244371928Y-138490000D01*
X244380027Y-138572228D01*
X244312223Y-138654847D01*
X244302521Y-138672998D01*
X244201252Y-138672998D01*
X244360000Y-138514250D01*
X244363072Y-137950000D01*
X244350812Y-137825518D01*
X244314502Y-137705820D01*
X244255537Y-137595506D01*
X244176185Y-137498815D01*
X244079494Y-137419463D01*
X243969180Y-137360498D01*
X243849482Y-137324188D01*
X243725000Y-137311928D01*
X242885750Y-137315000D01*
X242727000Y-137473750D01*
X242727000Y-138673000D01*
X242747000Y-138673000D01*
X242747000Y-138927000D01*
X242727000Y-138927000D01*
X242727000Y-140126250D01*
X242885750Y-140285000D01*
X243725000Y-140288072D01*
X243849482Y-140275812D01*
X243969180Y-140239502D01*
X244079494Y-140180537D01*
X244176185Y-140101185D01*
X244194601Y-140078746D01*
X244194601Y-140848481D01*
X244191142Y-140883600D01*
X244194601Y-140918720D01*
X244204947Y-141023764D01*
X244245831Y-141158542D01*
X244312224Y-141282754D01*
X244355589Y-141335594D01*
X244318136Y-141447097D01*
X244305000Y-141558250D01*
X244367650Y-141620900D01*
X244323511Y-141620900D01*
X244142871Y-141656832D01*
X243972711Y-141727314D01*
X243819572Y-141829638D01*
X243760036Y-141889174D01*
X242156439Y-140285578D01*
X242314250Y-140285000D01*
X242473000Y-140126250D01*
X242473000Y-138927000D01*
X240998750Y-138927000D01*
X240898306Y-139027444D01*
X239820862Y-137950000D01*
X240836928Y-137950000D01*
X240840000Y-138514250D01*
X240998750Y-138673000D01*
X242473000Y-138673000D01*
X242473000Y-137473750D01*
X242314250Y-137315000D01*
X241475000Y-137311928D01*
X241350518Y-137324188D01*
X241230820Y-137360498D01*
X241120506Y-137419463D01*
X241023815Y-137498815D01*
X240944463Y-137595506D01*
X240885498Y-137705820D01*
X240849188Y-137825518D01*
X240836928Y-137950000D01*
X239820862Y-137950000D01*
X239284300Y-137413439D01*
X239284300Y-137093120D01*
X239287759Y-137058000D01*
X239278729Y-136966312D01*
X239273954Y-136917836D01*
X239233070Y-136783058D01*
X239166677Y-136658846D01*
X239077327Y-136549973D01*
X238968454Y-136460623D01*
X238914245Y-136431647D01*
X238878502Y-136313820D01*
X238819537Y-136203506D01*
X238740185Y-136106815D01*
X238643494Y-136027463D01*
X238533180Y-135968498D01*
X238413482Y-135932188D01*
X238289000Y-135919928D01*
X235789000Y-135919928D01*
X235664518Y-135932188D01*
X235544820Y-135968498D01*
X235434506Y-136027463D01*
X235337815Y-136106815D01*
X235258463Y-136203506D01*
X235199498Y-136313820D01*
X235163188Y-136433518D01*
X235150928Y-136558000D01*
X235150928Y-137189766D01*
X234630420Y-136669259D01*
X234608027Y-136641973D01*
X234499154Y-136552623D01*
X234374942Y-136486230D01*
X234240164Y-136445346D01*
X234135120Y-136435000D01*
X234135110Y-136435000D01*
X234100000Y-136431542D01*
X234064890Y-136435000D01*
X224772110Y-136435000D01*
X224737000Y-136431542D01*
X224701890Y-136435000D01*
X224701880Y-136435000D01*
X224596836Y-136445346D01*
X224462058Y-136486230D01*
X224337846Y-136552623D01*
X224337844Y-136552624D01*
X224337845Y-136552624D01*
X224256252Y-136619585D01*
X224256248Y-136619589D01*
X224228973Y-136641973D01*
X224206588Y-136669249D01*
X223427072Y-137448766D01*
X223427072Y-136558000D01*
X223414812Y-136433518D01*
X223378502Y-136313820D01*
X223319537Y-136203506D01*
X223240185Y-136106815D01*
X223143494Y-136027463D01*
X223033180Y-135968498D01*
X222913482Y-135932188D01*
X222789000Y-135919928D01*
X220289000Y-135919928D01*
X220164518Y-135932188D01*
X220044820Y-135968498D01*
X219934506Y-136027463D01*
X219837815Y-136106815D01*
X219758463Y-136203506D01*
X219699498Y-136313820D01*
X219663188Y-136433518D01*
X219650928Y-136558000D01*
X219650928Y-137558000D01*
X219663188Y-137682482D01*
X219699498Y-137802180D01*
X219758463Y-137912494D01*
X219837815Y-138009185D01*
X219934506Y-138088537D01*
X220044820Y-138147502D01*
X220164518Y-138183812D01*
X220289000Y-138196072D01*
X222679766Y-138196072D01*
X222415910Y-138459928D01*
X220289000Y-138459928D01*
X220164518Y-138472188D01*
X220044820Y-138508498D01*
X219934506Y-138567463D01*
X219837815Y-138646815D01*
X219758463Y-138743506D01*
X219699498Y-138853820D01*
X219663188Y-138973518D01*
X219650928Y-139098000D01*
X219650928Y-140098000D01*
X219663188Y-140222482D01*
X219699498Y-140342180D01*
X219758463Y-140452494D01*
X219837815Y-140549185D01*
X219934506Y-140628537D01*
X220044820Y-140687502D01*
X220164518Y-140723812D01*
X220289000Y-140736072D01*
X222789000Y-140736072D01*
X222913482Y-140723812D01*
X223033180Y-140687502D01*
X223143494Y-140628537D01*
X223240185Y-140549185D01*
X223319537Y-140452494D01*
X223378502Y-140342180D01*
X223414812Y-140222482D01*
X223427072Y-140098000D01*
X223427072Y-139471090D01*
X225033163Y-137865000D01*
X233803839Y-137865000D01*
X234379501Y-138440663D01*
X234379500Y-142370990D01*
X234376042Y-142406100D01*
X234379500Y-142441210D01*
X234379500Y-142441219D01*
X234389846Y-142546263D01*
X234430730Y-142681041D01*
X234497123Y-142805253D01*
X234586473Y-142914126D01*
X234613755Y-142936516D01*
X235215084Y-143537846D01*
X235237473Y-143565127D01*
X235346346Y-143654477D01*
X235394558Y-143680247D01*
X235337815Y-143726815D01*
X235258463Y-143823506D01*
X235199498Y-143933820D01*
X235163188Y-144053518D01*
X235150928Y-144178000D01*
X235154000Y-144392250D01*
X235312750Y-144551000D01*
X236912000Y-144551000D01*
X236912000Y-144531000D01*
X237166000Y-144531000D01*
X237166000Y-144551000D01*
X237186000Y-144551000D01*
X237186000Y-144805000D01*
X237166000Y-144805000D01*
X237166000Y-145654250D01*
X237324750Y-145813000D01*
X238289000Y-145816072D01*
X238413482Y-145803812D01*
X238533180Y-145767502D01*
X238643494Y-145708537D01*
X238740185Y-145629185D01*
X238819537Y-145532494D01*
X238878502Y-145422180D01*
X238912847Y-145308959D01*
X238920498Y-145334180D01*
X238979463Y-145444494D01*
X239058815Y-145541185D01*
X239155506Y-145620537D01*
X239265820Y-145679502D01*
X239385518Y-145715812D01*
X239510000Y-145728072D01*
X239714250Y-145725000D01*
X239873000Y-145566250D01*
X239873000Y-144827000D01*
X239853000Y-144827000D01*
X239853000Y-144744600D01*
X240147000Y-144744600D01*
X240147000Y-144827000D01*
X240127000Y-144827000D01*
X240127000Y-145566250D01*
X240285750Y-145725000D01*
X240490000Y-145728072D01*
X240614482Y-145715812D01*
X240734180Y-145679502D01*
X240844494Y-145620537D01*
X240941185Y-145541185D01*
X241020537Y-145444494D01*
X241079502Y-145334180D01*
X241115812Y-145214482D01*
X241128072Y-145090000D01*
X241125000Y-144985750D01*
X240966252Y-144827002D01*
X241125000Y-144827002D01*
X241125000Y-144744600D01*
X241906539Y-144744600D01*
X243442688Y-146280751D01*
X243465073Y-146308027D01*
X243492348Y-146330411D01*
X243492352Y-146330415D01*
X243525632Y-146357727D01*
X243573946Y-146397377D01*
X243698158Y-146463770D01*
X243785610Y-146490298D01*
X243832935Y-146504654D01*
X243845048Y-146505847D01*
X243937980Y-146515000D01*
X243937988Y-146515000D01*
X243973100Y-146518458D01*
X244008212Y-146515000D01*
X244309315Y-146515000D01*
X244301928Y-146590000D01*
X244301928Y-147010000D01*
X244314188Y-147134482D01*
X244350498Y-147254180D01*
X244409463Y-147364494D01*
X244454220Y-147419031D01*
X244455346Y-147430464D01*
X244496230Y-147565242D01*
X244562623Y-147689454D01*
X244651974Y-147798327D01*
X244679255Y-147820716D01*
X244709079Y-147850540D01*
X244731473Y-147877827D01*
X244840346Y-147967177D01*
X244964558Y-148033570D01*
X245099336Y-148074454D01*
X245204380Y-148084800D01*
X245204390Y-148084800D01*
X245239500Y-148088258D01*
X245274610Y-148084800D01*
X245862510Y-148084800D01*
X245879638Y-148101928D01*
X245620000Y-148101928D01*
X245497697Y-148113973D01*
X245485952Y-148110786D01*
X245411750Y-148105000D01*
X245355265Y-148161485D01*
X245265506Y-148209463D01*
X245168815Y-148288815D01*
X245089463Y-148385506D01*
X245067000Y-148427531D01*
X245067000Y-148263750D01*
X244908250Y-148105000D01*
X244834048Y-148110786D01*
X244713330Y-148143547D01*
X244601323Y-148199228D01*
X244502332Y-148275692D01*
X244420159Y-148369998D01*
X244357964Y-148478524D01*
X244318136Y-148597097D01*
X244305000Y-148708250D01*
X244463750Y-148867000D01*
X244981928Y-148867000D01*
X244981928Y-149033000D01*
X244463750Y-149033000D01*
X244305000Y-149191750D01*
X244318136Y-149302903D01*
X244357964Y-149421476D01*
X244388490Y-149474742D01*
X244350498Y-149545820D01*
X244314188Y-149665518D01*
X244301928Y-149790000D01*
X244301928Y-150210000D01*
X244314188Y-150334482D01*
X244350498Y-150454180D01*
X244388353Y-150525000D01*
X244350498Y-150595820D01*
X244314188Y-150715518D01*
X244301928Y-150840000D01*
X244301928Y-151260000D01*
X244313333Y-151375804D01*
X243991438Y-151697700D01*
X243240120Y-151697700D01*
X243205000Y-151694241D01*
X243175500Y-151697147D01*
X243214502Y-151624180D01*
X243250812Y-151504482D01*
X243263072Y-151380000D01*
X243260000Y-150815750D01*
X243101250Y-150657000D01*
X241627000Y-150657000D01*
X241627000Y-151856250D01*
X241785750Y-152015000D01*
X242605242Y-152018000D01*
X242541230Y-152137758D01*
X242513638Y-152228718D01*
X242375986Y-152302294D01*
X242149866Y-152487866D01*
X241964294Y-152713986D01*
X241935000Y-152768791D01*
X241905706Y-152713986D01*
X241720134Y-152487866D01*
X241494014Y-152302294D01*
X241356362Y-152228718D01*
X241328770Y-152137758D01*
X241262377Y-152013546D01*
X241243720Y-151990812D01*
X241241339Y-151987911D01*
X241373000Y-151856250D01*
X241373000Y-150657000D01*
X241353000Y-150657000D01*
X241353000Y-150403000D01*
X241373000Y-150403000D01*
X241373000Y-149203750D01*
X241627000Y-149203750D01*
X241627000Y-150403000D01*
X243101250Y-150403000D01*
X243260000Y-150244250D01*
X243263072Y-149680000D01*
X243250812Y-149555518D01*
X243214502Y-149435820D01*
X243155537Y-149325506D01*
X243076185Y-149228815D01*
X242979494Y-149149463D01*
X242869180Y-149090498D01*
X242749482Y-149054188D01*
X242625000Y-149041928D01*
X241785750Y-149045000D01*
X241627000Y-149203750D01*
X241373000Y-149203750D01*
X241214250Y-149045000D01*
X240375000Y-149041928D01*
X240250518Y-149054188D01*
X240130820Y-149090498D01*
X240020506Y-149149463D01*
X239923815Y-149228815D01*
X239844463Y-149325506D01*
X239785498Y-149435820D01*
X239749188Y-149555518D01*
X239736928Y-149680000D01*
X239740000Y-150244250D01*
X239898748Y-150402998D01*
X239740000Y-150402998D01*
X239740000Y-150476538D01*
X239284300Y-150020839D01*
X239284300Y-149793120D01*
X239287759Y-149758000D01*
X239277109Y-149649864D01*
X239273954Y-149617836D01*
X239233070Y-149483058D01*
X239166677Y-149358846D01*
X239077327Y-149249973D01*
X238968454Y-149160623D01*
X238914245Y-149131647D01*
X238878502Y-149013820D01*
X238819537Y-148903506D01*
X238740185Y-148806815D01*
X238643494Y-148727463D01*
X238533180Y-148668498D01*
X238413482Y-148632188D01*
X238289000Y-148619928D01*
X236223700Y-148619928D01*
X236223700Y-148356072D01*
X238289000Y-148356072D01*
X238413482Y-148343812D01*
X238533180Y-148307502D01*
X238643494Y-148248537D01*
X238740185Y-148169185D01*
X238819537Y-148072494D01*
X238878502Y-147962180D01*
X238914812Y-147842482D01*
X238927072Y-147718000D01*
X238927072Y-146718000D01*
X238923330Y-146680000D01*
X239736928Y-146680000D01*
X239736928Y-148380000D01*
X239749188Y-148504482D01*
X239785498Y-148624180D01*
X239844463Y-148734494D01*
X239923815Y-148831185D01*
X240020506Y-148910537D01*
X240130820Y-148969502D01*
X240250518Y-149005812D01*
X240375000Y-149018072D01*
X242625000Y-149018072D01*
X242749482Y-149005812D01*
X242869180Y-148969502D01*
X242979494Y-148910537D01*
X243076185Y-148831185D01*
X243155537Y-148734494D01*
X243214502Y-148624180D01*
X243250812Y-148504482D01*
X243252731Y-148485000D01*
X243292089Y-148485000D01*
X243472729Y-148449068D01*
X243642889Y-148378586D01*
X243796028Y-148276262D01*
X243926262Y-148146028D01*
X244028586Y-147992889D01*
X244099068Y-147822729D01*
X244135000Y-147642089D01*
X244135000Y-147457911D01*
X244099068Y-147277271D01*
X244028586Y-147107111D01*
X243926262Y-146953972D01*
X243796028Y-146823738D01*
X243642889Y-146721414D01*
X243472729Y-146650932D01*
X243292089Y-146615000D01*
X243256670Y-146615000D01*
X243250812Y-146555518D01*
X243214502Y-146435820D01*
X243155537Y-146325506D01*
X243076185Y-146228815D01*
X242979494Y-146149463D01*
X242869180Y-146090498D01*
X242749482Y-146054188D01*
X242625000Y-146041928D01*
X240375000Y-146041928D01*
X240250518Y-146054188D01*
X240130820Y-146090498D01*
X240020506Y-146149463D01*
X239923815Y-146228815D01*
X239844463Y-146325506D01*
X239785498Y-146435820D01*
X239749188Y-146555518D01*
X239736928Y-146680000D01*
X238923330Y-146680000D01*
X238914812Y-146593518D01*
X238878502Y-146473820D01*
X238819537Y-146363506D01*
X238740185Y-146266815D01*
X238643494Y-146187463D01*
X238533180Y-146128498D01*
X238413482Y-146092188D01*
X238289000Y-146079928D01*
X235789000Y-146079928D01*
X235664518Y-146092188D01*
X235544820Y-146128498D01*
X235434506Y-146187463D01*
X235337815Y-146266815D01*
X235258463Y-146363506D01*
X235199498Y-146473820D01*
X235163755Y-146591647D01*
X235109546Y-146620623D01*
X235000673Y-146709973D01*
X234911323Y-146818846D01*
X234844930Y-146943058D01*
X234804046Y-147077836D01*
X234790241Y-147218000D01*
X234793701Y-147253130D01*
X234793700Y-150379390D01*
X234790242Y-150414500D01*
X234793700Y-150449610D01*
X234793700Y-150449619D01*
X234804046Y-150554663D01*
X234844930Y-150689441D01*
X234911323Y-150813653D01*
X235000673Y-150922526D01*
X235027955Y-150944916D01*
X236352396Y-152269359D01*
X236156034Y-152164401D01*
X235876111Y-152079487D01*
X235657950Y-152058000D01*
X235512050Y-152058000D01*
X235293889Y-152079487D01*
X235013966Y-152164401D01*
X234755986Y-152302294D01*
X234529866Y-152487866D01*
X234344294Y-152713986D01*
X234315000Y-152768791D01*
X234285706Y-152713986D01*
X234100134Y-152487866D01*
X233874014Y-152302294D01*
X233616034Y-152164401D01*
X233336111Y-152079487D01*
X233117950Y-152058000D01*
X232972050Y-152058000D01*
X232753889Y-152079487D01*
X232473966Y-152164401D01*
X232215986Y-152302294D01*
X231989866Y-152487866D01*
X231804294Y-152713986D01*
X231775000Y-152768791D01*
X231745706Y-152713986D01*
X231560134Y-152487866D01*
X231334014Y-152302294D01*
X231076034Y-152164401D01*
X230796111Y-152079487D01*
X230577950Y-152058000D01*
X230432050Y-152058000D01*
X230213889Y-152079487D01*
X229933966Y-152164401D01*
X229675986Y-152302294D01*
X229449866Y-152487866D01*
X229264294Y-152713986D01*
X229229799Y-152778523D01*
X229160178Y-152661645D01*
X228965269Y-152445412D01*
X228731920Y-152271359D01*
X228469099Y-152146175D01*
X228321890Y-152101524D01*
X228092000Y-152222845D01*
X228092000Y-153416000D01*
X228112000Y-153416000D01*
X228112000Y-153670000D01*
X228092000Y-153670000D01*
X228092000Y-153690000D01*
X227838000Y-153690000D01*
X227838000Y-153670000D01*
X227818000Y-153670000D01*
X227818000Y-153416000D01*
X227838000Y-153416000D01*
X227838000Y-152222845D01*
X227608110Y-152101524D01*
X227460901Y-152146175D01*
X227198080Y-152271359D01*
X226964731Y-152445412D01*
X226769822Y-152661645D01*
X226700201Y-152778523D01*
X226665706Y-152713986D01*
X226480134Y-152487866D01*
X226254014Y-152302294D01*
X225996034Y-152164401D01*
X225716111Y-152079487D01*
X225497950Y-152058000D01*
X225352050Y-152058000D01*
X225133889Y-152079487D01*
X224853966Y-152164401D01*
X224595986Y-152302294D01*
X224369866Y-152487866D01*
X224184294Y-152713986D01*
X224155000Y-152768791D01*
X224125706Y-152713986D01*
X223940134Y-152487866D01*
X223714014Y-152302294D01*
X223456034Y-152164401D01*
X223176111Y-152079487D01*
X222957950Y-152058000D01*
X222812050Y-152058000D01*
X222593889Y-152079487D01*
X222313966Y-152164401D01*
X222055986Y-152302294D01*
X221829866Y-152487866D01*
X221644294Y-152713986D01*
X221615000Y-152768791D01*
X221585706Y-152713986D01*
X221400134Y-152487866D01*
X221174014Y-152302294D01*
X220916034Y-152164401D01*
X220636111Y-152079487D01*
X220417950Y-152058000D01*
X220272050Y-152058000D01*
X220053889Y-152079487D01*
X219773966Y-152164401D01*
X219515986Y-152302294D01*
X219289866Y-152487866D01*
X219104294Y-152713986D01*
X218966401Y-152971966D01*
X218881487Y-153251889D01*
X218852815Y-153543000D01*
X218881487Y-153834111D01*
X218966401Y-154114034D01*
X218996315Y-154170000D01*
X216547279Y-154170000D01*
X216502608Y-154165620D01*
X216720656Y-154165620D01*
X217084834Y-154093181D01*
X217427882Y-153951086D01*
X217736618Y-153744795D01*
X217999175Y-153482238D01*
X218205466Y-153173502D01*
X218347561Y-152830454D01*
X218420000Y-152466276D01*
X218420000Y-152094964D01*
X218347561Y-151730786D01*
X218205466Y-151387738D01*
X217999175Y-151079002D01*
X217736618Y-150816445D01*
X217427882Y-150610154D01*
X217084834Y-150468059D01*
X216720656Y-150395620D01*
X216349344Y-150395620D01*
X215985166Y-150468059D01*
X215642118Y-150610154D01*
X215333382Y-150816445D01*
X215070825Y-151079002D01*
X214864534Y-151387738D01*
X214722439Y-151730786D01*
X214650000Y-152094964D01*
X214650000Y-152415273D01*
X214635000Y-152272557D01*
X214635000Y-150258000D01*
X219650928Y-150258000D01*
X219663188Y-150382482D01*
X219699498Y-150502180D01*
X219758463Y-150612494D01*
X219837815Y-150709185D01*
X219934506Y-150788537D01*
X220044820Y-150847502D01*
X220164518Y-150883812D01*
X220289000Y-150896072D01*
X221253250Y-150893000D01*
X221412000Y-150734250D01*
X221412000Y-149885000D01*
X221666000Y-149885000D01*
X221666000Y-150734250D01*
X221824750Y-150893000D01*
X222789000Y-150896072D01*
X222913482Y-150883812D01*
X223033180Y-150847502D01*
X223143494Y-150788537D01*
X223240185Y-150709185D01*
X223319537Y-150612494D01*
X223378502Y-150502180D01*
X223414812Y-150382482D01*
X223427072Y-150258000D01*
X223424000Y-150043750D01*
X223265250Y-149885000D01*
X221666000Y-149885000D01*
X221412000Y-149885000D01*
X219812750Y-149885000D01*
X219654000Y-150043750D01*
X219650928Y-150258000D01*
X214635000Y-150258000D01*
X214635000Y-149218000D01*
X215177928Y-149218000D01*
X215190188Y-149342482D01*
X215226498Y-149462180D01*
X215285463Y-149572494D01*
X215364815Y-149669185D01*
X215461506Y-149748537D01*
X215571820Y-149807502D01*
X215691518Y-149843812D01*
X215816000Y-149856072D01*
X216630250Y-149853000D01*
X216789000Y-149694250D01*
X216789000Y-148820000D01*
X217043000Y-148820000D01*
X217043000Y-149694250D01*
X217201750Y-149853000D01*
X218016000Y-149856072D01*
X218140482Y-149843812D01*
X218260180Y-149807502D01*
X218370494Y-149748537D01*
X218467185Y-149669185D01*
X218546537Y-149572494D01*
X218605502Y-149462180D01*
X218641812Y-149342482D01*
X218650132Y-149258000D01*
X219650928Y-149258000D01*
X219654000Y-149472250D01*
X219812750Y-149631000D01*
X221412000Y-149631000D01*
X221412000Y-148781750D01*
X221666000Y-148781750D01*
X221666000Y-149631000D01*
X223265250Y-149631000D01*
X223424000Y-149472250D01*
X223427072Y-149258000D01*
X223414812Y-149133518D01*
X223378502Y-149013820D01*
X223319537Y-148903506D01*
X223240185Y-148806815D01*
X223143494Y-148727463D01*
X223033180Y-148668498D01*
X222913482Y-148632188D01*
X222789000Y-148619928D01*
X221824750Y-148623000D01*
X221666000Y-148781750D01*
X221412000Y-148781750D01*
X221253250Y-148623000D01*
X220289000Y-148619928D01*
X220164518Y-148632188D01*
X220044820Y-148668498D01*
X219934506Y-148727463D01*
X219837815Y-148806815D01*
X219758463Y-148903506D01*
X219699498Y-149013820D01*
X219663188Y-149133518D01*
X219650928Y-149258000D01*
X218650132Y-149258000D01*
X218654072Y-149218000D01*
X218651000Y-148978750D01*
X218492250Y-148820000D01*
X217043000Y-148820000D01*
X216789000Y-148820000D01*
X215339750Y-148820000D01*
X215181000Y-148978750D01*
X215177928Y-149218000D01*
X214635000Y-149218000D01*
X214635000Y-148287821D01*
X214671820Y-148307502D01*
X214791518Y-148343812D01*
X214916000Y-148356072D01*
X215130250Y-148353000D01*
X215179669Y-148303581D01*
X215181000Y-148407250D01*
X215339750Y-148566000D01*
X216789000Y-148566000D01*
X216789000Y-147691750D01*
X216630250Y-147533000D01*
X216551415Y-147532703D01*
X216551000Y-147503750D01*
X216392250Y-147345000D01*
X215543000Y-147345000D01*
X215543000Y-147365000D01*
X215289000Y-147365000D01*
X215289000Y-147345000D01*
X215269000Y-147345000D01*
X215269000Y-147091000D01*
X215289000Y-147091000D01*
X215289000Y-147071000D01*
X215543000Y-147071000D01*
X215543000Y-147091000D01*
X216392250Y-147091000D01*
X216551000Y-146932250D01*
X216551415Y-146903297D01*
X216630250Y-146903000D01*
X216789000Y-146744250D01*
X216789000Y-145870000D01*
X217043000Y-145870000D01*
X217043000Y-146744250D01*
X217201750Y-146903000D01*
X217277928Y-146903287D01*
X217277928Y-147532713D01*
X217201750Y-147533000D01*
X217043000Y-147691750D01*
X217043000Y-148566000D01*
X218492250Y-148566000D01*
X218651000Y-148407250D01*
X218651657Y-148356072D01*
X218916000Y-148356072D01*
X219040482Y-148343812D01*
X219160180Y-148307502D01*
X219270494Y-148248537D01*
X219367185Y-148169185D01*
X219446537Y-148072494D01*
X219505502Y-147962180D01*
X219508287Y-147953000D01*
X219696713Y-147953000D01*
X219699498Y-147962180D01*
X219758463Y-148072494D01*
X219837815Y-148169185D01*
X219934506Y-148248537D01*
X220044820Y-148307502D01*
X220164518Y-148343812D01*
X220289000Y-148356072D01*
X222789000Y-148356072D01*
X222913482Y-148343812D01*
X223033180Y-148307502D01*
X223143494Y-148248537D01*
X223240185Y-148169185D01*
X223319537Y-148072494D01*
X223378502Y-147962180D01*
X223414812Y-147842482D01*
X223427072Y-147718000D01*
X223427072Y-146718000D01*
X223414812Y-146593518D01*
X223378502Y-146473820D01*
X223319537Y-146363506D01*
X223240185Y-146266815D01*
X223143494Y-146187463D01*
X223033180Y-146128498D01*
X222913482Y-146092188D01*
X222789000Y-146079928D01*
X220289000Y-146079928D01*
X220164518Y-146092188D01*
X220044820Y-146128498D01*
X219934506Y-146187463D01*
X219837815Y-146266815D01*
X219758463Y-146363506D01*
X219699498Y-146473820D01*
X219696713Y-146483000D01*
X219508287Y-146483000D01*
X219505502Y-146473820D01*
X219446537Y-146363506D01*
X219367185Y-146266815D01*
X219270494Y-146187463D01*
X219160180Y-146128498D01*
X219040482Y-146092188D01*
X218916000Y-146079928D01*
X218651657Y-146079928D01*
X218651000Y-146028750D01*
X218492250Y-145870000D01*
X217043000Y-145870000D01*
X216789000Y-145870000D01*
X215339750Y-145870000D01*
X215181000Y-146028750D01*
X215179669Y-146132419D01*
X215130250Y-146083000D01*
X214916000Y-146079928D01*
X214791518Y-146092188D01*
X214671820Y-146128498D01*
X214635000Y-146148179D01*
X214635000Y-145218000D01*
X215177928Y-145218000D01*
X215181000Y-145457250D01*
X215339750Y-145616000D01*
X216789000Y-145616000D01*
X216789000Y-144741750D01*
X217043000Y-144741750D01*
X217043000Y-145616000D01*
X218492250Y-145616000D01*
X218651000Y-145457250D01*
X218654072Y-145218000D01*
X218641812Y-145093518D01*
X218605502Y-144973820D01*
X218546537Y-144863506D01*
X218467185Y-144766815D01*
X218370494Y-144687463D01*
X218260180Y-144628498D01*
X218140482Y-144592188D01*
X218016000Y-144579928D01*
X217201750Y-144583000D01*
X217043000Y-144741750D01*
X216789000Y-144741750D01*
X216630250Y-144583000D01*
X215816000Y-144579928D01*
X215691518Y-144592188D01*
X215571820Y-144628498D01*
X215461506Y-144687463D01*
X215364815Y-144766815D01*
X215285463Y-144863506D01*
X215226498Y-144973820D01*
X215190188Y-145093518D01*
X215177928Y-145218000D01*
X214635000Y-145218000D01*
X214635000Y-143015000D01*
X215203928Y-143015000D01*
X215216188Y-143139482D01*
X215252498Y-143259180D01*
X215311463Y-143369494D01*
X215390815Y-143466185D01*
X215487506Y-143545537D01*
X215597820Y-143604502D01*
X215717518Y-143640812D01*
X215842000Y-143653072D01*
X216681250Y-143650000D01*
X216840000Y-143491250D01*
X216840000Y-142292000D01*
X217094000Y-142292000D01*
X217094000Y-143491250D01*
X217252750Y-143650000D01*
X218092000Y-143653072D01*
X218216482Y-143640812D01*
X218336180Y-143604502D01*
X218446494Y-143545537D01*
X218543185Y-143466185D01*
X218622537Y-143369494D01*
X218681502Y-143259180D01*
X218717812Y-143139482D01*
X218730072Y-143015000D01*
X218727000Y-142450750D01*
X218568250Y-142292000D01*
X217094000Y-142292000D01*
X216840000Y-142292000D01*
X215365750Y-142292000D01*
X215207000Y-142450750D01*
X215203928Y-143015000D01*
X214635000Y-143015000D01*
X214635000Y-141315000D01*
X215203928Y-141315000D01*
X215207000Y-141879250D01*
X215365750Y-142038000D01*
X216840000Y-142038000D01*
X216840000Y-140838750D01*
X217094000Y-140838750D01*
X217094000Y-142038000D01*
X218568250Y-142038000D01*
X218727000Y-141879250D01*
X218728313Y-141638000D01*
X219650928Y-141638000D01*
X219650928Y-142638000D01*
X219663188Y-142762482D01*
X219699498Y-142882180D01*
X219758463Y-142992494D01*
X219837815Y-143089185D01*
X219934506Y-143168537D01*
X220044820Y-143227502D01*
X220164518Y-143263812D01*
X220289000Y-143276072D01*
X222135420Y-143276072D01*
X222135420Y-143454769D01*
X222152359Y-143539928D01*
X220289000Y-143539928D01*
X220164518Y-143552188D01*
X220044820Y-143588498D01*
X219934506Y-143647463D01*
X219837815Y-143726815D01*
X219758463Y-143823506D01*
X219699498Y-143933820D01*
X219663188Y-144053518D01*
X219650928Y-144178000D01*
X219650928Y-145178000D01*
X219663188Y-145302482D01*
X219699498Y-145422180D01*
X219758463Y-145532494D01*
X219837815Y-145629185D01*
X219934506Y-145708537D01*
X220044820Y-145767502D01*
X220164518Y-145803812D01*
X220289000Y-145816072D01*
X222789000Y-145816072D01*
X222913482Y-145803812D01*
X223033180Y-145767502D01*
X223143494Y-145708537D01*
X223240185Y-145629185D01*
X223319537Y-145532494D01*
X223378502Y-145422180D01*
X223414812Y-145302482D01*
X223427072Y-145178000D01*
X235150928Y-145178000D01*
X235163188Y-145302482D01*
X235199498Y-145422180D01*
X235258463Y-145532494D01*
X235337815Y-145629185D01*
X235434506Y-145708537D01*
X235544820Y-145767502D01*
X235664518Y-145803812D01*
X235789000Y-145816072D01*
X236753250Y-145813000D01*
X236912000Y-145654250D01*
X236912000Y-144805000D01*
X235312750Y-144805000D01*
X235154000Y-144963750D01*
X235150928Y-145178000D01*
X223427072Y-145178000D01*
X223427072Y-144551091D01*
X223551175Y-144426987D01*
X223578446Y-144404607D01*
X223600827Y-144377336D01*
X223600835Y-144377328D01*
X223667796Y-144295735D01*
X223667797Y-144295734D01*
X223734190Y-144171522D01*
X223775074Y-144036744D01*
X223781239Y-143974151D01*
X223796682Y-143958708D01*
X223899006Y-143805569D01*
X223969488Y-143635409D01*
X224005420Y-143454769D01*
X224005420Y-143270591D01*
X223969488Y-143089951D01*
X223899006Y-142919791D01*
X223796682Y-142766652D01*
X223666448Y-142636418D01*
X223513309Y-142534094D01*
X223427072Y-142498374D01*
X223427072Y-141638000D01*
X223414812Y-141513518D01*
X223378502Y-141393820D01*
X223319537Y-141283506D01*
X223240185Y-141186815D01*
X223143494Y-141107463D01*
X223033180Y-141048498D01*
X222913482Y-141012188D01*
X222789000Y-140999928D01*
X220289000Y-140999928D01*
X220164518Y-141012188D01*
X220044820Y-141048498D01*
X219934506Y-141107463D01*
X219837815Y-141186815D01*
X219758463Y-141283506D01*
X219699498Y-141393820D01*
X219663188Y-141513518D01*
X219650928Y-141638000D01*
X218728313Y-141638000D01*
X218730072Y-141315000D01*
X218717812Y-141190518D01*
X218681502Y-141070820D01*
X218622537Y-140960506D01*
X218543185Y-140863815D01*
X218446494Y-140784463D01*
X218336180Y-140725498D01*
X218216482Y-140689188D01*
X218092000Y-140676928D01*
X217252750Y-140680000D01*
X217094000Y-140838750D01*
X216840000Y-140838750D01*
X216681250Y-140680000D01*
X215842000Y-140676928D01*
X215717518Y-140689188D01*
X215597820Y-140725498D01*
X215487506Y-140784463D01*
X215390815Y-140863815D01*
X215311463Y-140960506D01*
X215252498Y-141070820D01*
X215216188Y-141190518D01*
X215203928Y-141315000D01*
X214635000Y-141315000D01*
X214635000Y-138315000D01*
X215203928Y-138315000D01*
X215203928Y-140015000D01*
X215216188Y-140139482D01*
X215252498Y-140259180D01*
X215311463Y-140369494D01*
X215390815Y-140466185D01*
X215487506Y-140545537D01*
X215597820Y-140604502D01*
X215717518Y-140640812D01*
X215842000Y-140653072D01*
X218092000Y-140653072D01*
X218216482Y-140640812D01*
X218336180Y-140604502D01*
X218446494Y-140545537D01*
X218543185Y-140466185D01*
X218622537Y-140369494D01*
X218681502Y-140259180D01*
X218717812Y-140139482D01*
X218730072Y-140015000D01*
X218730072Y-140008498D01*
X218897129Y-139975268D01*
X219067289Y-139904786D01*
X219220428Y-139802462D01*
X219350662Y-139672228D01*
X219452986Y-139519089D01*
X219523468Y-139348929D01*
X219559400Y-139168289D01*
X219559400Y-138984111D01*
X219523468Y-138803471D01*
X219452986Y-138633311D01*
X219350662Y-138480172D01*
X219220428Y-138349938D01*
X219067289Y-138247614D01*
X218897129Y-138177132D01*
X218716489Y-138141200D01*
X218702852Y-138141200D01*
X218681502Y-138070820D01*
X218622537Y-137960506D01*
X218543185Y-137863815D01*
X218446494Y-137784463D01*
X218336180Y-137725498D01*
X218216482Y-137689188D01*
X218092000Y-137676928D01*
X215842000Y-137676928D01*
X215717518Y-137689188D01*
X215597820Y-137725498D01*
X215487506Y-137784463D01*
X215390815Y-137863815D01*
X215311463Y-137960506D01*
X215252498Y-138070820D01*
X215216188Y-138190518D01*
X215203928Y-138315000D01*
X214635000Y-138315000D01*
X214635000Y-134894196D01*
X214671639Y-135078394D01*
X214813734Y-135421442D01*
X215020025Y-135730178D01*
X215282582Y-135992735D01*
X215591318Y-136199026D01*
X215934366Y-136341121D01*
X216298544Y-136413560D01*
X216669856Y-136413560D01*
X217034034Y-136341121D01*
X217377082Y-136199026D01*
X217685818Y-135992735D01*
X217948375Y-135730178D01*
X218154666Y-135421442D01*
X218296761Y-135078394D01*
X218369200Y-134714216D01*
X218369200Y-134342904D01*
X218296761Y-133978726D01*
X218154666Y-133635678D01*
X217948375Y-133326942D01*
X217685818Y-133064385D01*
X217377082Y-132858094D01*
X217034034Y-132715999D01*
X216669856Y-132643560D01*
X216403428Y-132643560D01*
X216532443Y-132630000D01*
X229016928Y-132630000D01*
X229016928Y-134073000D01*
X229016928Y-134073000D01*
G37*
X229016928Y-134073000D02*
X229029188Y-134197482D01*
X229065498Y-134317180D01*
X229124463Y-134427494D01*
X229203815Y-134524185D01*
X229300506Y-134603537D01*
X229410820Y-134662502D01*
X229530518Y-134698812D01*
X229655000Y-134711072D01*
X231355000Y-134711072D01*
X231479482Y-134698812D01*
X231599180Y-134662502D01*
X231709494Y-134603537D01*
X231806185Y-134524185D01*
X231885537Y-134427494D01*
X231944502Y-134317180D01*
X231965393Y-134248313D01*
X231989866Y-134278134D01*
X232215986Y-134463706D01*
X232473966Y-134601599D01*
X232753889Y-134686513D01*
X232972050Y-134708000D01*
X233117950Y-134708000D01*
X233336111Y-134686513D01*
X233616034Y-134601599D01*
X233874014Y-134463706D01*
X234100134Y-134278134D01*
X234285706Y-134052014D01*
X234315000Y-133997209D01*
X234344294Y-134052014D01*
X234529866Y-134278134D01*
X234755986Y-134463706D01*
X235013966Y-134601599D01*
X235293889Y-134686513D01*
X235512050Y-134708000D01*
X235657950Y-134708000D01*
X235876111Y-134686513D01*
X236156034Y-134601599D01*
X236414014Y-134463706D01*
X236640134Y-134278134D01*
X236825706Y-134052014D01*
X236855000Y-133997209D01*
X236884294Y-134052014D01*
X237069866Y-134278134D01*
X237295986Y-134463706D01*
X237553966Y-134601599D01*
X237833889Y-134686513D01*
X238052050Y-134708000D01*
X238197950Y-134708000D01*
X238416111Y-134686513D01*
X238696034Y-134601599D01*
X238954014Y-134463706D01*
X239116937Y-134329999D01*
X239917088Y-135130151D01*
X239939473Y-135157427D01*
X239966748Y-135179811D01*
X239966751Y-135179814D01*
X240014536Y-135219030D01*
X240048346Y-135246777D01*
X240172558Y-135313170D01*
X240192964Y-135319360D01*
X240112414Y-135439911D01*
X240041932Y-135610071D01*
X240006000Y-135790711D01*
X240006000Y-135974889D01*
X240041932Y-136155529D01*
X240112414Y-136325689D01*
X240214738Y-136478828D01*
X240344972Y-136609062D01*
X240498111Y-136711386D01*
X240668271Y-136781868D01*
X240848911Y-136817800D01*
X240862328Y-136817800D01*
X240885498Y-136894180D01*
X240944463Y-137004494D01*
X241023815Y-137101185D01*
X241120506Y-137180537D01*
X241230820Y-137239502D01*
X241350518Y-137275812D01*
X241475000Y-137288072D01*
X243725000Y-137288072D01*
X243849482Y-137275812D01*
X243969180Y-137239502D01*
X244079494Y-137180537D01*
X244176185Y-137101185D01*
X244255537Y-137004494D01*
X244314502Y-136894180D01*
X244350812Y-136774482D01*
X244363072Y-136650000D01*
X244363072Y-136458625D01*
X244410033Y-136449283D01*
X244533750Y-136573000D01*
X245373000Y-136573000D01*
X245373000Y-136553000D01*
X245627000Y-136553000D01*
X245627000Y-136573000D01*
X246466250Y-136573000D01*
X246625000Y-136414250D01*
X246628072Y-136310000D01*
X246621788Y-136246200D01*
X246990483Y-136246200D01*
X247043815Y-136311185D01*
X247140506Y-136390537D01*
X247250820Y-136449502D01*
X247370518Y-136485812D01*
X247495000Y-136498072D01*
X247681197Y-136498072D01*
X247649900Y-136655411D01*
X247649900Y-136839589D01*
X247685832Y-137020229D01*
X247686396Y-137021590D01*
X247633036Y-137026846D01*
X247498258Y-137067730D01*
X247374046Y-137134123D01*
X247311199Y-137185700D01*
X247291911Y-137185700D01*
X247111271Y-137221632D01*
X246941111Y-137292114D01*
X246787972Y-137394438D01*
X246776710Y-137405700D01*
X246547367Y-137405700D01*
X246544320Y-137400000D01*
X246579502Y-137334180D01*
X246615812Y-137214482D01*
X246628072Y-137090000D01*
X246625000Y-136985750D01*
X246466250Y-136827000D01*
X245627000Y-136827000D01*
X245627000Y-136847000D01*
X245373000Y-136847000D01*
X245373000Y-136827000D01*
X244533750Y-136827000D01*
X244375000Y-136985750D01*
X244371928Y-137090000D01*
X244384188Y-137214482D01*
X244420498Y-137334180D01*
X244455680Y-137400000D01*
X244420498Y-137465820D01*
X244384188Y-137585518D01*
X244371928Y-137710000D01*
X244371928Y-138490000D01*
X244380027Y-138572228D01*
X244312223Y-138654847D01*
X244302521Y-138672998D01*
X244201252Y-138672998D01*
X244360000Y-138514250D01*
X244363072Y-137950000D01*
X244350812Y-137825518D01*
X244314502Y-137705820D01*
X244255537Y-137595506D01*
X244176185Y-137498815D01*
X244079494Y-137419463D01*
X243969180Y-137360498D01*
X243849482Y-137324188D01*
X243725000Y-137311928D01*
X242885750Y-137315000D01*
X242727000Y-137473750D01*
X242727000Y-138673000D01*
X242747000Y-138673000D01*
X242747000Y-138927000D01*
X242727000Y-138927000D01*
X242727000Y-140126250D01*
X242885750Y-140285000D01*
X243725000Y-140288072D01*
X243849482Y-140275812D01*
X243969180Y-140239502D01*
X244079494Y-140180537D01*
X244176185Y-140101185D01*
X244194601Y-140078746D01*
X244194601Y-140848481D01*
X244191142Y-140883600D01*
X244194601Y-140918720D01*
X244204947Y-141023764D01*
X244245831Y-141158542D01*
X244312224Y-141282754D01*
X244355589Y-141335594D01*
X244318136Y-141447097D01*
X244305000Y-141558250D01*
X244367650Y-141620900D01*
X244323511Y-141620900D01*
X244142871Y-141656832D01*
X243972711Y-141727314D01*
X243819572Y-141829638D01*
X243760036Y-141889174D01*
X242156439Y-140285578D01*
X242314250Y-140285000D01*
X242473000Y-140126250D01*
X242473000Y-138927000D01*
X240998750Y-138927000D01*
X240898306Y-139027444D01*
X239820862Y-137950000D01*
X240836928Y-137950000D01*
X240840000Y-138514250D01*
X240998750Y-138673000D01*
X242473000Y-138673000D01*
X242473000Y-137473750D01*
X242314250Y-137315000D01*
X241475000Y-137311928D01*
X241350518Y-137324188D01*
X241230820Y-137360498D01*
X241120506Y-137419463D01*
X241023815Y-137498815D01*
X240944463Y-137595506D01*
X240885498Y-137705820D01*
X240849188Y-137825518D01*
X240836928Y-137950000D01*
X239820862Y-137950000D01*
X239284300Y-137413439D01*
X239284300Y-137093120D01*
X239287759Y-137058000D01*
X239278729Y-136966312D01*
X239273954Y-136917836D01*
X239233070Y-136783058D01*
X239166677Y-136658846D01*
X239077327Y-136549973D01*
X238968454Y-136460623D01*
X238914245Y-136431647D01*
X238878502Y-136313820D01*
X238819537Y-136203506D01*
X238740185Y-136106815D01*
X238643494Y-136027463D01*
X238533180Y-135968498D01*
X238413482Y-135932188D01*
X238289000Y-135919928D01*
X235789000Y-135919928D01*
X235664518Y-135932188D01*
X235544820Y-135968498D01*
X235434506Y-136027463D01*
X235337815Y-136106815D01*
X235258463Y-136203506D01*
X235199498Y-136313820D01*
X235163188Y-136433518D01*
X235150928Y-136558000D01*
X235150928Y-137189766D01*
X234630420Y-136669259D01*
X234608027Y-136641973D01*
X234499154Y-136552623D01*
X234374942Y-136486230D01*
X234240164Y-136445346D01*
X234135120Y-136435000D01*
X234135110Y-136435000D01*
X234100000Y-136431542D01*
X234064890Y-136435000D01*
X224772110Y-136435000D01*
X224737000Y-136431542D01*
X224701890Y-136435000D01*
X224701880Y-136435000D01*
X224596836Y-136445346D01*
X224462058Y-136486230D01*
X224337846Y-136552623D01*
X224337844Y-136552624D01*
X224337845Y-136552624D01*
X224256252Y-136619585D01*
X224256248Y-136619589D01*
X224228973Y-136641973D01*
X224206588Y-136669249D01*
X223427072Y-137448766D01*
X223427072Y-136558000D01*
X223414812Y-136433518D01*
X223378502Y-136313820D01*
X223319537Y-136203506D01*
X223240185Y-136106815D01*
X223143494Y-136027463D01*
X223033180Y-135968498D01*
X222913482Y-135932188D01*
X222789000Y-135919928D01*
X220289000Y-135919928D01*
X220164518Y-135932188D01*
X220044820Y-135968498D01*
X219934506Y-136027463D01*
X219837815Y-136106815D01*
X219758463Y-136203506D01*
X219699498Y-136313820D01*
X219663188Y-136433518D01*
X219650928Y-136558000D01*
X219650928Y-137558000D01*
X219663188Y-137682482D01*
X219699498Y-137802180D01*
X219758463Y-137912494D01*
X219837815Y-138009185D01*
X219934506Y-138088537D01*
X220044820Y-138147502D01*
X220164518Y-138183812D01*
X220289000Y-138196072D01*
X222679766Y-138196072D01*
X222415910Y-138459928D01*
X220289000Y-138459928D01*
X220164518Y-138472188D01*
X220044820Y-138508498D01*
X219934506Y-138567463D01*
X219837815Y-138646815D01*
X219758463Y-138743506D01*
X219699498Y-138853820D01*
X219663188Y-138973518D01*
X219650928Y-139098000D01*
X219650928Y-140098000D01*
X219663188Y-140222482D01*
X219699498Y-140342180D01*
X219758463Y-140452494D01*
X219837815Y-140549185D01*
X219934506Y-140628537D01*
X220044820Y-140687502D01*
X220164518Y-140723812D01*
X220289000Y-140736072D01*
X222789000Y-140736072D01*
X222913482Y-140723812D01*
X223033180Y-140687502D01*
X223143494Y-140628537D01*
X223240185Y-140549185D01*
X223319537Y-140452494D01*
X223378502Y-140342180D01*
X223414812Y-140222482D01*
X223427072Y-140098000D01*
X223427072Y-139471090D01*
X225033163Y-137865000D01*
X233803839Y-137865000D01*
X234379501Y-138440663D01*
X234379500Y-142370990D01*
X234376042Y-142406100D01*
X234379500Y-142441210D01*
X234379500Y-142441219D01*
X234389846Y-142546263D01*
X234430730Y-142681041D01*
X234497123Y-142805253D01*
X234586473Y-142914126D01*
X234613755Y-142936516D01*
X235215084Y-143537846D01*
X235237473Y-143565127D01*
X235346346Y-143654477D01*
X235394558Y-143680247D01*
X235337815Y-143726815D01*
X235258463Y-143823506D01*
X235199498Y-143933820D01*
X235163188Y-144053518D01*
X235150928Y-144178000D01*
X235154000Y-144392250D01*
X235312750Y-144551000D01*
X236912000Y-144551000D01*
X236912000Y-144531000D01*
X237166000Y-144531000D01*
X237166000Y-144551000D01*
X237186000Y-144551000D01*
X237186000Y-144805000D01*
X237166000Y-144805000D01*
X237166000Y-145654250D01*
X237324750Y-145813000D01*
X238289000Y-145816072D01*
X238413482Y-145803812D01*
X238533180Y-145767502D01*
X238643494Y-145708537D01*
X238740185Y-145629185D01*
X238819537Y-145532494D01*
X238878502Y-145422180D01*
X238912847Y-145308959D01*
X238920498Y-145334180D01*
X238979463Y-145444494D01*
X239058815Y-145541185D01*
X239155506Y-145620537D01*
X239265820Y-145679502D01*
X239385518Y-145715812D01*
X239510000Y-145728072D01*
X239714250Y-145725000D01*
X239873000Y-145566250D01*
X239873000Y-144827000D01*
X239853000Y-144827000D01*
X239853000Y-144744600D01*
X240147000Y-144744600D01*
X240147000Y-144827000D01*
X240127000Y-144827000D01*
X240127000Y-145566250D01*
X240285750Y-145725000D01*
X240490000Y-145728072D01*
X240614482Y-145715812D01*
X240734180Y-145679502D01*
X240844494Y-145620537D01*
X240941185Y-145541185D01*
X241020537Y-145444494D01*
X241079502Y-145334180D01*
X241115812Y-145214482D01*
X241128072Y-145090000D01*
X241125000Y-144985750D01*
X240966252Y-144827002D01*
X241125000Y-144827002D01*
X241125000Y-144744600D01*
X241906539Y-144744600D01*
X243442688Y-146280751D01*
X243465073Y-146308027D01*
X243492348Y-146330411D01*
X243492352Y-146330415D01*
X243525632Y-146357727D01*
X243573946Y-146397377D01*
X243698158Y-146463770D01*
X243785610Y-146490298D01*
X243832935Y-146504654D01*
X243845048Y-146505847D01*
X243937980Y-146515000D01*
X243937988Y-146515000D01*
X243973100Y-146518458D01*
X244008212Y-146515000D01*
X244309315Y-146515000D01*
X244301928Y-146590000D01*
X244301928Y-147010000D01*
X244314188Y-147134482D01*
X244350498Y-147254180D01*
X244409463Y-147364494D01*
X244454220Y-147419031D01*
X244455346Y-147430464D01*
X244496230Y-147565242D01*
X244562623Y-147689454D01*
X244651974Y-147798327D01*
X244679255Y-147820716D01*
X244709079Y-147850540D01*
X244731473Y-147877827D01*
X244840346Y-147967177D01*
X244964558Y-148033570D01*
X245099336Y-148074454D01*
X245204380Y-148084800D01*
X245204390Y-148084800D01*
X245239500Y-148088258D01*
X245274610Y-148084800D01*
X245862510Y-148084800D01*
X245879638Y-148101928D01*
X245620000Y-148101928D01*
X245497697Y-148113973D01*
X245485952Y-148110786D01*
X245411750Y-148105000D01*
X245355265Y-148161485D01*
X245265506Y-148209463D01*
X245168815Y-148288815D01*
X245089463Y-148385506D01*
X245067000Y-148427531D01*
X245067000Y-148263750D01*
X244908250Y-148105000D01*
X244834048Y-148110786D01*
X244713330Y-148143547D01*
X244601323Y-148199228D01*
X244502332Y-148275692D01*
X244420159Y-148369998D01*
X244357964Y-148478524D01*
X244318136Y-148597097D01*
X244305000Y-148708250D01*
X244463750Y-148867000D01*
X244981928Y-148867000D01*
X244981928Y-149033000D01*
X244463750Y-149033000D01*
X244305000Y-149191750D01*
X244318136Y-149302903D01*
X244357964Y-149421476D01*
X244388490Y-149474742D01*
X244350498Y-149545820D01*
X244314188Y-149665518D01*
X244301928Y-149790000D01*
X244301928Y-150210000D01*
X244314188Y-150334482D01*
X244350498Y-150454180D01*
X244388353Y-150525000D01*
X244350498Y-150595820D01*
X244314188Y-150715518D01*
X244301928Y-150840000D01*
X244301928Y-151260000D01*
X244313333Y-151375804D01*
X243991438Y-151697700D01*
X243240120Y-151697700D01*
X243205000Y-151694241D01*
X243175500Y-151697147D01*
X243214502Y-151624180D01*
X243250812Y-151504482D01*
X243263072Y-151380000D01*
X243260000Y-150815750D01*
X243101250Y-150657000D01*
X241627000Y-150657000D01*
X241627000Y-151856250D01*
X241785750Y-152015000D01*
X242605242Y-152018000D01*
X242541230Y-152137758D01*
X242513638Y-152228718D01*
X242375986Y-152302294D01*
X242149866Y-152487866D01*
X241964294Y-152713986D01*
X241935000Y-152768791D01*
X241905706Y-152713986D01*
X241720134Y-152487866D01*
X241494014Y-152302294D01*
X241356362Y-152228718D01*
X241328770Y-152137758D01*
X241262377Y-152013546D01*
X241243720Y-151990812D01*
X241241339Y-151987911D01*
X241373000Y-151856250D01*
X241373000Y-150657000D01*
X241353000Y-150657000D01*
X241353000Y-150403000D01*
X241373000Y-150403000D01*
X241373000Y-149203750D01*
X241627000Y-149203750D01*
X241627000Y-150403000D01*
X243101250Y-150403000D01*
X243260000Y-150244250D01*
X243263072Y-149680000D01*
X243250812Y-149555518D01*
X243214502Y-149435820D01*
X243155537Y-149325506D01*
X243076185Y-149228815D01*
X242979494Y-149149463D01*
X242869180Y-149090498D01*
X242749482Y-149054188D01*
X242625000Y-149041928D01*
X241785750Y-149045000D01*
X241627000Y-149203750D01*
X241373000Y-149203750D01*
X241214250Y-149045000D01*
X240375000Y-149041928D01*
X240250518Y-149054188D01*
X240130820Y-149090498D01*
X240020506Y-149149463D01*
X239923815Y-149228815D01*
X239844463Y-149325506D01*
X239785498Y-149435820D01*
X239749188Y-149555518D01*
X239736928Y-149680000D01*
X239740000Y-150244250D01*
X239898748Y-150402998D01*
X239740000Y-150402998D01*
X239740000Y-150476538D01*
X239284300Y-150020839D01*
X239284300Y-149793120D01*
X239287759Y-149758000D01*
X239277109Y-149649864D01*
X239273954Y-149617836D01*
X239233070Y-149483058D01*
X239166677Y-149358846D01*
X239077327Y-149249973D01*
X238968454Y-149160623D01*
X238914245Y-149131647D01*
X238878502Y-149013820D01*
X238819537Y-148903506D01*
X238740185Y-148806815D01*
X238643494Y-148727463D01*
X238533180Y-148668498D01*
X238413482Y-148632188D01*
X238289000Y-148619928D01*
X236223700Y-148619928D01*
X236223700Y-148356072D01*
X238289000Y-148356072D01*
X238413482Y-148343812D01*
X238533180Y-148307502D01*
X238643494Y-148248537D01*
X238740185Y-148169185D01*
X238819537Y-148072494D01*
X238878502Y-147962180D01*
X238914812Y-147842482D01*
X238927072Y-147718000D01*
X238927072Y-146718000D01*
X238923330Y-146680000D01*
X239736928Y-146680000D01*
X239736928Y-148380000D01*
X239749188Y-148504482D01*
X239785498Y-148624180D01*
X239844463Y-148734494D01*
X239923815Y-148831185D01*
X240020506Y-148910537D01*
X240130820Y-148969502D01*
X240250518Y-149005812D01*
X240375000Y-149018072D01*
X242625000Y-149018072D01*
X242749482Y-149005812D01*
X242869180Y-148969502D01*
X242979494Y-148910537D01*
X243076185Y-148831185D01*
X243155537Y-148734494D01*
X243214502Y-148624180D01*
X243250812Y-148504482D01*
X243252731Y-148485000D01*
X243292089Y-148485000D01*
X243472729Y-148449068D01*
X243642889Y-148378586D01*
X243796028Y-148276262D01*
X243926262Y-148146028D01*
X244028586Y-147992889D01*
X244099068Y-147822729D01*
X244135000Y-147642089D01*
X244135000Y-147457911D01*
X244099068Y-147277271D01*
X244028586Y-147107111D01*
X243926262Y-146953972D01*
X243796028Y-146823738D01*
X243642889Y-146721414D01*
X243472729Y-146650932D01*
X243292089Y-146615000D01*
X243256670Y-146615000D01*
X243250812Y-146555518D01*
X243214502Y-146435820D01*
X243155537Y-146325506D01*
X243076185Y-146228815D01*
X242979494Y-146149463D01*
X242869180Y-146090498D01*
X242749482Y-146054188D01*
X242625000Y-146041928D01*
X240375000Y-146041928D01*
X240250518Y-146054188D01*
X240130820Y-146090498D01*
X240020506Y-146149463D01*
X239923815Y-146228815D01*
X239844463Y-146325506D01*
X239785498Y-146435820D01*
X239749188Y-146555518D01*
X239736928Y-146680000D01*
X238923330Y-146680000D01*
X238914812Y-146593518D01*
X238878502Y-146473820D01*
X238819537Y-146363506D01*
X238740185Y-146266815D01*
X238643494Y-146187463D01*
X238533180Y-146128498D01*
X238413482Y-146092188D01*
X238289000Y-146079928D01*
X235789000Y-146079928D01*
X235664518Y-146092188D01*
X235544820Y-146128498D01*
X235434506Y-146187463D01*
X235337815Y-146266815D01*
X235258463Y-146363506D01*
X235199498Y-146473820D01*
X235163755Y-146591647D01*
X235109546Y-146620623D01*
X235000673Y-146709973D01*
X234911323Y-146818846D01*
X234844930Y-146943058D01*
X234804046Y-147077836D01*
X234790241Y-147218000D01*
X234793701Y-147253130D01*
X234793700Y-150379390D01*
X234790242Y-150414500D01*
X234793700Y-150449610D01*
X234793700Y-150449619D01*
X234804046Y-150554663D01*
X234844930Y-150689441D01*
X234911323Y-150813653D01*
X235000673Y-150922526D01*
X235027955Y-150944916D01*
X236352396Y-152269359D01*
X236156034Y-152164401D01*
X235876111Y-152079487D01*
X235657950Y-152058000D01*
X235512050Y-152058000D01*
X235293889Y-152079487D01*
X235013966Y-152164401D01*
X234755986Y-152302294D01*
X234529866Y-152487866D01*
X234344294Y-152713986D01*
X234315000Y-152768791D01*
X234285706Y-152713986D01*
X234100134Y-152487866D01*
X233874014Y-152302294D01*
X233616034Y-152164401D01*
X233336111Y-152079487D01*
X233117950Y-152058000D01*
X232972050Y-152058000D01*
X232753889Y-152079487D01*
X232473966Y-152164401D01*
X232215986Y-152302294D01*
X231989866Y-152487866D01*
X231804294Y-152713986D01*
X231775000Y-152768791D01*
X231745706Y-152713986D01*
X231560134Y-152487866D01*
X231334014Y-152302294D01*
X231076034Y-152164401D01*
X230796111Y-152079487D01*
X230577950Y-152058000D01*
X230432050Y-152058000D01*
X230213889Y-152079487D01*
X229933966Y-152164401D01*
X229675986Y-152302294D01*
X229449866Y-152487866D01*
X229264294Y-152713986D01*
X229229799Y-152778523D01*
X229160178Y-152661645D01*
X228965269Y-152445412D01*
X228731920Y-152271359D01*
X228469099Y-152146175D01*
X228321890Y-152101524D01*
X228092000Y-152222845D01*
X228092000Y-153416000D01*
X228112000Y-153416000D01*
X228112000Y-153670000D01*
X228092000Y-153670000D01*
X228092000Y-153690000D01*
X227838000Y-153690000D01*
X227838000Y-153670000D01*
X227818000Y-153670000D01*
X227818000Y-153416000D01*
X227838000Y-153416000D01*
X227838000Y-152222845D01*
X227608110Y-152101524D01*
X227460901Y-152146175D01*
X227198080Y-152271359D01*
X226964731Y-152445412D01*
X226769822Y-152661645D01*
X226700201Y-152778523D01*
X226665706Y-152713986D01*
X226480134Y-152487866D01*
X226254014Y-152302294D01*
X225996034Y-152164401D01*
X225716111Y-152079487D01*
X225497950Y-152058000D01*
X225352050Y-152058000D01*
X225133889Y-152079487D01*
X224853966Y-152164401D01*
X224595986Y-152302294D01*
X224369866Y-152487866D01*
X224184294Y-152713986D01*
X224155000Y-152768791D01*
X224125706Y-152713986D01*
X223940134Y-152487866D01*
X223714014Y-152302294D01*
X223456034Y-152164401D01*
X223176111Y-152079487D01*
X222957950Y-152058000D01*
X222812050Y-152058000D01*
X222593889Y-152079487D01*
X222313966Y-152164401D01*
X222055986Y-152302294D01*
X221829866Y-152487866D01*
X221644294Y-152713986D01*
X221615000Y-152768791D01*
X221585706Y-152713986D01*
X221400134Y-152487866D01*
X221174014Y-152302294D01*
X220916034Y-152164401D01*
X220636111Y-152079487D01*
X220417950Y-152058000D01*
X220272050Y-152058000D01*
X220053889Y-152079487D01*
X219773966Y-152164401D01*
X219515986Y-152302294D01*
X219289866Y-152487866D01*
X219104294Y-152713986D01*
X218966401Y-152971966D01*
X218881487Y-153251889D01*
X218852815Y-153543000D01*
X218881487Y-153834111D01*
X218966401Y-154114034D01*
X218996315Y-154170000D01*
X216547279Y-154170000D01*
X216502608Y-154165620D01*
X216720656Y-154165620D01*
X217084834Y-154093181D01*
X217427882Y-153951086D01*
X217736618Y-153744795D01*
X217999175Y-153482238D01*
X218205466Y-153173502D01*
X218347561Y-152830454D01*
X218420000Y-152466276D01*
X218420000Y-152094964D01*
X218347561Y-151730786D01*
X218205466Y-151387738D01*
X217999175Y-151079002D01*
X217736618Y-150816445D01*
X217427882Y-150610154D01*
X217084834Y-150468059D01*
X216720656Y-150395620D01*
X216349344Y-150395620D01*
X215985166Y-150468059D01*
X215642118Y-150610154D01*
X215333382Y-150816445D01*
X215070825Y-151079002D01*
X214864534Y-151387738D01*
X214722439Y-151730786D01*
X214650000Y-152094964D01*
X214650000Y-152415273D01*
X214635000Y-152272557D01*
X214635000Y-150258000D01*
X219650928Y-150258000D01*
X219663188Y-150382482D01*
X219699498Y-150502180D01*
X219758463Y-150612494D01*
X219837815Y-150709185D01*
X219934506Y-150788537D01*
X220044820Y-150847502D01*
X220164518Y-150883812D01*
X220289000Y-150896072D01*
X221253250Y-150893000D01*
X221412000Y-150734250D01*
X221412000Y-149885000D01*
X221666000Y-149885000D01*
X221666000Y-150734250D01*
X221824750Y-150893000D01*
X222789000Y-150896072D01*
X222913482Y-150883812D01*
X223033180Y-150847502D01*
X223143494Y-150788537D01*
X223240185Y-150709185D01*
X223319537Y-150612494D01*
X223378502Y-150502180D01*
X223414812Y-150382482D01*
X223427072Y-150258000D01*
X223424000Y-150043750D01*
X223265250Y-149885000D01*
X221666000Y-149885000D01*
X221412000Y-149885000D01*
X219812750Y-149885000D01*
X219654000Y-150043750D01*
X219650928Y-150258000D01*
X214635000Y-150258000D01*
X214635000Y-149218000D01*
X215177928Y-149218000D01*
X215190188Y-149342482D01*
X215226498Y-149462180D01*
X215285463Y-149572494D01*
X215364815Y-149669185D01*
X215461506Y-149748537D01*
X215571820Y-149807502D01*
X215691518Y-149843812D01*
X215816000Y-149856072D01*
X216630250Y-149853000D01*
X216789000Y-149694250D01*
X216789000Y-148820000D01*
X217043000Y-148820000D01*
X217043000Y-149694250D01*
X217201750Y-149853000D01*
X218016000Y-149856072D01*
X218140482Y-149843812D01*
X218260180Y-149807502D01*
X218370494Y-149748537D01*
X218467185Y-149669185D01*
X218546537Y-149572494D01*
X218605502Y-149462180D01*
X218641812Y-149342482D01*
X218650132Y-149258000D01*
X219650928Y-149258000D01*
X219654000Y-149472250D01*
X219812750Y-149631000D01*
X221412000Y-149631000D01*
X221412000Y-148781750D01*
X221666000Y-148781750D01*
X221666000Y-149631000D01*
X223265250Y-149631000D01*
X223424000Y-149472250D01*
X223427072Y-149258000D01*
X223414812Y-149133518D01*
X223378502Y-149013820D01*
X223319537Y-148903506D01*
X223240185Y-148806815D01*
X223143494Y-148727463D01*
X223033180Y-148668498D01*
X222913482Y-148632188D01*
X222789000Y-148619928D01*
X221824750Y-148623000D01*
X221666000Y-148781750D01*
X221412000Y-148781750D01*
X221253250Y-148623000D01*
X220289000Y-148619928D01*
X220164518Y-148632188D01*
X220044820Y-148668498D01*
X219934506Y-148727463D01*
X219837815Y-148806815D01*
X219758463Y-148903506D01*
X219699498Y-149013820D01*
X219663188Y-149133518D01*
X219650928Y-149258000D01*
X218650132Y-149258000D01*
X218654072Y-149218000D01*
X218651000Y-148978750D01*
X218492250Y-148820000D01*
X217043000Y-148820000D01*
X216789000Y-148820000D01*
X215339750Y-148820000D01*
X215181000Y-148978750D01*
X215177928Y-149218000D01*
X214635000Y-149218000D01*
X214635000Y-148287821D01*
X214671820Y-148307502D01*
X214791518Y-148343812D01*
X214916000Y-148356072D01*
X215130250Y-148353000D01*
X215179669Y-148303581D01*
X215181000Y-148407250D01*
X215339750Y-148566000D01*
X216789000Y-148566000D01*
X216789000Y-147691750D01*
X216630250Y-147533000D01*
X216551415Y-147532703D01*
X216551000Y-147503750D01*
X216392250Y-147345000D01*
X215543000Y-147345000D01*
X215543000Y-147365000D01*
X215289000Y-147365000D01*
X215289000Y-147345000D01*
X215269000Y-147345000D01*
X215269000Y-147091000D01*
X215289000Y-147091000D01*
X215289000Y-147071000D01*
X215543000Y-147071000D01*
X215543000Y-147091000D01*
X216392250Y-147091000D01*
X216551000Y-146932250D01*
X216551415Y-146903297D01*
X216630250Y-146903000D01*
X216789000Y-146744250D01*
X216789000Y-145870000D01*
X217043000Y-145870000D01*
X217043000Y-146744250D01*
X217201750Y-146903000D01*
X217277928Y-146903287D01*
X217277928Y-147532713D01*
X217201750Y-147533000D01*
X217043000Y-147691750D01*
X217043000Y-148566000D01*
X218492250Y-148566000D01*
X218651000Y-148407250D01*
X218651657Y-148356072D01*
X218916000Y-148356072D01*
X219040482Y-148343812D01*
X219160180Y-148307502D01*
X219270494Y-148248537D01*
X219367185Y-148169185D01*
X219446537Y-148072494D01*
X219505502Y-147962180D01*
X219508287Y-147953000D01*
X219696713Y-147953000D01*
X219699498Y-147962180D01*
X219758463Y-148072494D01*
X219837815Y-148169185D01*
X219934506Y-148248537D01*
X220044820Y-148307502D01*
X220164518Y-148343812D01*
X220289000Y-148356072D01*
X222789000Y-148356072D01*
X222913482Y-148343812D01*
X223033180Y-148307502D01*
X223143494Y-148248537D01*
X223240185Y-148169185D01*
X223319537Y-148072494D01*
X223378502Y-147962180D01*
X223414812Y-147842482D01*
X223427072Y-147718000D01*
X223427072Y-146718000D01*
X223414812Y-146593518D01*
X223378502Y-146473820D01*
X223319537Y-146363506D01*
X223240185Y-146266815D01*
X223143494Y-146187463D01*
X223033180Y-146128498D01*
X222913482Y-146092188D01*
X222789000Y-146079928D01*
X220289000Y-146079928D01*
X220164518Y-146092188D01*
X220044820Y-146128498D01*
X219934506Y-146187463D01*
X219837815Y-146266815D01*
X219758463Y-146363506D01*
X219699498Y-146473820D01*
X219696713Y-146483000D01*
X219508287Y-146483000D01*
X219505502Y-146473820D01*
X219446537Y-146363506D01*
X219367185Y-146266815D01*
X219270494Y-146187463D01*
X219160180Y-146128498D01*
X219040482Y-146092188D01*
X218916000Y-146079928D01*
X218651657Y-146079928D01*
X218651000Y-146028750D01*
X218492250Y-145870000D01*
X217043000Y-145870000D01*
X216789000Y-145870000D01*
X215339750Y-145870000D01*
X215181000Y-146028750D01*
X215179669Y-146132419D01*
X215130250Y-146083000D01*
X214916000Y-146079928D01*
X214791518Y-146092188D01*
X214671820Y-146128498D01*
X214635000Y-146148179D01*
X214635000Y-145218000D01*
X215177928Y-145218000D01*
X215181000Y-145457250D01*
X215339750Y-145616000D01*
X216789000Y-145616000D01*
X216789000Y-144741750D01*
X217043000Y-144741750D01*
X217043000Y-145616000D01*
X218492250Y-145616000D01*
X218651000Y-145457250D01*
X218654072Y-145218000D01*
X218641812Y-145093518D01*
X218605502Y-144973820D01*
X218546537Y-144863506D01*
X218467185Y-144766815D01*
X218370494Y-144687463D01*
X218260180Y-144628498D01*
X218140482Y-144592188D01*
X218016000Y-144579928D01*
X217201750Y-144583000D01*
X217043000Y-144741750D01*
X216789000Y-144741750D01*
X216630250Y-144583000D01*
X215816000Y-144579928D01*
X215691518Y-144592188D01*
X215571820Y-144628498D01*
X215461506Y-144687463D01*
X215364815Y-144766815D01*
X215285463Y-144863506D01*
X215226498Y-144973820D01*
X215190188Y-145093518D01*
X215177928Y-145218000D01*
X214635000Y-145218000D01*
X214635000Y-143015000D01*
X215203928Y-143015000D01*
X215216188Y-143139482D01*
X215252498Y-143259180D01*
X215311463Y-143369494D01*
X215390815Y-143466185D01*
X215487506Y-143545537D01*
X215597820Y-143604502D01*
X215717518Y-143640812D01*
X215842000Y-143653072D01*
X216681250Y-143650000D01*
X216840000Y-143491250D01*
X216840000Y-142292000D01*
X217094000Y-142292000D01*
X217094000Y-143491250D01*
X217252750Y-143650000D01*
X218092000Y-143653072D01*
X218216482Y-143640812D01*
X218336180Y-143604502D01*
X218446494Y-143545537D01*
X218543185Y-143466185D01*
X218622537Y-143369494D01*
X218681502Y-143259180D01*
X218717812Y-143139482D01*
X218730072Y-143015000D01*
X218727000Y-142450750D01*
X218568250Y-142292000D01*
X217094000Y-142292000D01*
X216840000Y-142292000D01*
X215365750Y-142292000D01*
X215207000Y-142450750D01*
X215203928Y-143015000D01*
X214635000Y-143015000D01*
X214635000Y-141315000D01*
X215203928Y-141315000D01*
X215207000Y-141879250D01*
X215365750Y-142038000D01*
X216840000Y-142038000D01*
X216840000Y-140838750D01*
X217094000Y-140838750D01*
X217094000Y-142038000D01*
X218568250Y-142038000D01*
X218727000Y-141879250D01*
X218728313Y-141638000D01*
X219650928Y-141638000D01*
X219650928Y-142638000D01*
X219663188Y-142762482D01*
X219699498Y-142882180D01*
X219758463Y-142992494D01*
X219837815Y-143089185D01*
X219934506Y-143168537D01*
X220044820Y-143227502D01*
X220164518Y-143263812D01*
X220289000Y-143276072D01*
X222135420Y-143276072D01*
X222135420Y-143454769D01*
X222152359Y-143539928D01*
X220289000Y-143539928D01*
X220164518Y-143552188D01*
X220044820Y-143588498D01*
X219934506Y-143647463D01*
X219837815Y-143726815D01*
X219758463Y-143823506D01*
X219699498Y-143933820D01*
X219663188Y-144053518D01*
X219650928Y-144178000D01*
X219650928Y-145178000D01*
X219663188Y-145302482D01*
X219699498Y-145422180D01*
X219758463Y-145532494D01*
X219837815Y-145629185D01*
X219934506Y-145708537D01*
X220044820Y-145767502D01*
X220164518Y-145803812D01*
X220289000Y-145816072D01*
X222789000Y-145816072D01*
X222913482Y-145803812D01*
X223033180Y-145767502D01*
X223143494Y-145708537D01*
X223240185Y-145629185D01*
X223319537Y-145532494D01*
X223378502Y-145422180D01*
X223414812Y-145302482D01*
X223427072Y-145178000D01*
X235150928Y-145178000D01*
X235163188Y-145302482D01*
X235199498Y-145422180D01*
X235258463Y-145532494D01*
X235337815Y-145629185D01*
X235434506Y-145708537D01*
X235544820Y-145767502D01*
X235664518Y-145803812D01*
X235789000Y-145816072D01*
X236753250Y-145813000D01*
X236912000Y-145654250D01*
X236912000Y-144805000D01*
X235312750Y-144805000D01*
X235154000Y-144963750D01*
X235150928Y-145178000D01*
X223427072Y-145178000D01*
X223427072Y-144551091D01*
X223551175Y-144426987D01*
X223578446Y-144404607D01*
X223600827Y-144377336D01*
X223600835Y-144377328D01*
X223667796Y-144295735D01*
X223667797Y-144295734D01*
X223734190Y-144171522D01*
X223775074Y-144036744D01*
X223781239Y-143974151D01*
X223796682Y-143958708D01*
X223899006Y-143805569D01*
X223969488Y-143635409D01*
X224005420Y-143454769D01*
X224005420Y-143270591D01*
X223969488Y-143089951D01*
X223899006Y-142919791D01*
X223796682Y-142766652D01*
X223666448Y-142636418D01*
X223513309Y-142534094D01*
X223427072Y-142498374D01*
X223427072Y-141638000D01*
X223414812Y-141513518D01*
X223378502Y-141393820D01*
X223319537Y-141283506D01*
X223240185Y-141186815D01*
X223143494Y-141107463D01*
X223033180Y-141048498D01*
X222913482Y-141012188D01*
X222789000Y-140999928D01*
X220289000Y-140999928D01*
X220164518Y-141012188D01*
X220044820Y-141048498D01*
X219934506Y-141107463D01*
X219837815Y-141186815D01*
X219758463Y-141283506D01*
X219699498Y-141393820D01*
X219663188Y-141513518D01*
X219650928Y-141638000D01*
X218728313Y-141638000D01*
X218730072Y-141315000D01*
X218717812Y-141190518D01*
X218681502Y-141070820D01*
X218622537Y-140960506D01*
X218543185Y-140863815D01*
X218446494Y-140784463D01*
X218336180Y-140725498D01*
X218216482Y-140689188D01*
X218092000Y-140676928D01*
X217252750Y-140680000D01*
X217094000Y-140838750D01*
X216840000Y-140838750D01*
X216681250Y-140680000D01*
X215842000Y-140676928D01*
X215717518Y-140689188D01*
X215597820Y-140725498D01*
X215487506Y-140784463D01*
X215390815Y-140863815D01*
X215311463Y-140960506D01*
X215252498Y-141070820D01*
X215216188Y-141190518D01*
X215203928Y-141315000D01*
X214635000Y-141315000D01*
X214635000Y-138315000D01*
X215203928Y-138315000D01*
X215203928Y-140015000D01*
X215216188Y-140139482D01*
X215252498Y-140259180D01*
X215311463Y-140369494D01*
X215390815Y-140466185D01*
X215487506Y-140545537D01*
X215597820Y-140604502D01*
X215717518Y-140640812D01*
X215842000Y-140653072D01*
X218092000Y-140653072D01*
X218216482Y-140640812D01*
X218336180Y-140604502D01*
X218446494Y-140545537D01*
X218543185Y-140466185D01*
X218622537Y-140369494D01*
X218681502Y-140259180D01*
X218717812Y-140139482D01*
X218730072Y-140015000D01*
X218730072Y-140008498D01*
X218897129Y-139975268D01*
X219067289Y-139904786D01*
X219220428Y-139802462D01*
X219350662Y-139672228D01*
X219452986Y-139519089D01*
X219523468Y-139348929D01*
X219559400Y-139168289D01*
X219559400Y-138984111D01*
X219523468Y-138803471D01*
X219452986Y-138633311D01*
X219350662Y-138480172D01*
X219220428Y-138349938D01*
X219067289Y-138247614D01*
X218897129Y-138177132D01*
X218716489Y-138141200D01*
X218702852Y-138141200D01*
X218681502Y-138070820D01*
X218622537Y-137960506D01*
X218543185Y-137863815D01*
X218446494Y-137784463D01*
X218336180Y-137725498D01*
X218216482Y-137689188D01*
X218092000Y-137676928D01*
X215842000Y-137676928D01*
X215717518Y-137689188D01*
X215597820Y-137725498D01*
X215487506Y-137784463D01*
X215390815Y-137863815D01*
X215311463Y-137960506D01*
X215252498Y-138070820D01*
X215216188Y-138190518D01*
X215203928Y-138315000D01*
X214635000Y-138315000D01*
X214635000Y-134894196D01*
X214671639Y-135078394D01*
X214813734Y-135421442D01*
X215020025Y-135730178D01*
X215282582Y-135992735D01*
X215591318Y-136199026D01*
X215934366Y-136341121D01*
X216298544Y-136413560D01*
X216669856Y-136413560D01*
X217034034Y-136341121D01*
X217377082Y-136199026D01*
X217685818Y-135992735D01*
X217948375Y-135730178D01*
X218154666Y-135421442D01*
X218296761Y-135078394D01*
X218369200Y-134714216D01*
X218369200Y-134342904D01*
X218296761Y-133978726D01*
X218154666Y-133635678D01*
X217948375Y-133326942D01*
X217685818Y-133064385D01*
X217377082Y-132858094D01*
X217034034Y-132715999D01*
X216669856Y-132643560D01*
X216403428Y-132643560D01*
X216532443Y-132630000D01*
X229016928Y-132630000D01*
X229016928Y-134073000D01*
G36*
X258158268Y-151697999D02*
G01*
X258037380Y-151697999D01*
X258158268Y-151577111D01*
X258158268Y-151697999D01*
X258158268Y-151697999D01*
G37*
X258158268Y-151697999D02*
X258037380Y-151697999D01*
X258158268Y-151577111D01*
X258158268Y-151697999D01*
G36*
X247917000Y-150973000D02*
G01*
X247937000Y-150973000D01*
X247937000Y-151227000D01*
X247917000Y-151227000D01*
X247917000Y-151247000D01*
X247663000Y-151247000D01*
X247663000Y-151227000D01*
X247643000Y-151227000D01*
X247643000Y-150973000D01*
X247663000Y-150973000D01*
X247663000Y-150953000D01*
X247917000Y-150953000D01*
X247917000Y-150973000D01*
X247917000Y-150973000D01*
G37*
X247917000Y-150973000D02*
X247937000Y-150973000D01*
X247937000Y-151227000D01*
X247917000Y-151227000D01*
X247917000Y-151247000D01*
X247663000Y-151247000D01*
X247663000Y-151227000D01*
X247643000Y-151227000D01*
X247643000Y-150973000D01*
X247663000Y-150973000D01*
X247663000Y-150953000D01*
X247917000Y-150953000D01*
X247917000Y-150973000D01*
G36*
X256341880Y-144142580D02*
G01*
X256361880Y-144142580D01*
X256361880Y-144396580D01*
X256341880Y-144396580D01*
X256341880Y-145245830D01*
X256500630Y-145404580D01*
X256914880Y-145407652D01*
X257039362Y-145395392D01*
X257159060Y-145359082D01*
X257240474Y-145315564D01*
X257243972Y-145319062D01*
X257397111Y-145421386D01*
X257567271Y-145491868D01*
X257747911Y-145527800D01*
X257763838Y-145527800D01*
X258273000Y-146036963D01*
X258273000Y-148725317D01*
X258214458Y-148834840D01*
X258178148Y-148954538D01*
X258165888Y-149079020D01*
X258165888Y-149519020D01*
X258168412Y-149544644D01*
X257378955Y-150334102D01*
X257366065Y-150318395D01*
X257269374Y-150239043D01*
X257159060Y-150180078D01*
X257039362Y-150143768D01*
X256914880Y-150131508D01*
X255514880Y-150131508D01*
X255390398Y-150143768D01*
X255270700Y-150180078D01*
X255160386Y-150239043D01*
X255063695Y-150318395D01*
X254984343Y-150415086D01*
X254925378Y-150525400D01*
X254917260Y-150552160D01*
X254516954Y-150552160D01*
X254481842Y-150548702D01*
X254446730Y-150552160D01*
X254446722Y-150552160D01*
X254353790Y-150561313D01*
X254341677Y-150562506D01*
X254300793Y-150574908D01*
X254278072Y-150581800D01*
X254278072Y-149130000D01*
X254265812Y-149005518D01*
X254246319Y-148941259D01*
X254306154Y-148909277D01*
X254415027Y-148819927D01*
X254437420Y-148792641D01*
X255294650Y-147935412D01*
X255321926Y-147913027D01*
X255347579Y-147881770D01*
X255405301Y-147811436D01*
X255411277Y-147804154D01*
X255416180Y-147794981D01*
X255786450Y-147424712D01*
X255813726Y-147402327D01*
X255840597Y-147369586D01*
X255903076Y-147293455D01*
X255903078Y-147293453D01*
X255969470Y-147169242D01*
X256010354Y-147034464D01*
X256020700Y-146929420D01*
X256020700Y-146929411D01*
X256024158Y-146894301D01*
X256020700Y-146859191D01*
X256020700Y-145630590D01*
X256024158Y-145595480D01*
X256020700Y-145560370D01*
X256020700Y-145560361D01*
X256010354Y-145455317D01*
X255979641Y-145354069D01*
X256087880Y-145245830D01*
X256087880Y-144396580D01*
X256067880Y-144396580D01*
X256067880Y-144142580D01*
X256087880Y-144142580D01*
X256087880Y-144122580D01*
X256341880Y-144122580D01*
X256341880Y-144142580D01*
X256341880Y-144142580D01*
G37*
X256341880Y-144142580D02*
X256361880Y-144142580D01*
X256361880Y-144396580D01*
X256341880Y-144396580D01*
X256341880Y-145245830D01*
X256500630Y-145404580D01*
X256914880Y-145407652D01*
X257039362Y-145395392D01*
X257159060Y-145359082D01*
X257240474Y-145315564D01*
X257243972Y-145319062D01*
X257397111Y-145421386D01*
X257567271Y-145491868D01*
X257747911Y-145527800D01*
X257763838Y-145527800D01*
X258273000Y-146036963D01*
X258273000Y-148725317D01*
X258214458Y-148834840D01*
X258178148Y-148954538D01*
X258165888Y-149079020D01*
X258165888Y-149519020D01*
X258168412Y-149544644D01*
X257378955Y-150334102D01*
X257366065Y-150318395D01*
X257269374Y-150239043D01*
X257159060Y-150180078D01*
X257039362Y-150143768D01*
X256914880Y-150131508D01*
X255514880Y-150131508D01*
X255390398Y-150143768D01*
X255270700Y-150180078D01*
X255160386Y-150239043D01*
X255063695Y-150318395D01*
X254984343Y-150415086D01*
X254925378Y-150525400D01*
X254917260Y-150552160D01*
X254516954Y-150552160D01*
X254481842Y-150548702D01*
X254446730Y-150552160D01*
X254446722Y-150552160D01*
X254353790Y-150561313D01*
X254341677Y-150562506D01*
X254300793Y-150574908D01*
X254278072Y-150581800D01*
X254278072Y-149130000D01*
X254265812Y-149005518D01*
X254246319Y-148941259D01*
X254306154Y-148909277D01*
X254415027Y-148819927D01*
X254437420Y-148792641D01*
X255294650Y-147935412D01*
X255321926Y-147913027D01*
X255347579Y-147881770D01*
X255405301Y-147811436D01*
X255411277Y-147804154D01*
X255416180Y-147794981D01*
X255786450Y-147424712D01*
X255813726Y-147402327D01*
X255840597Y-147369586D01*
X255903076Y-147293455D01*
X255903078Y-147293453D01*
X255969470Y-147169242D01*
X256010354Y-147034464D01*
X256020700Y-146929420D01*
X256020700Y-146929411D01*
X256024158Y-146894301D01*
X256020700Y-146859191D01*
X256020700Y-145630590D01*
X256024158Y-145595480D01*
X256020700Y-145560370D01*
X256020700Y-145560361D01*
X256010354Y-145455317D01*
X255979641Y-145354069D01*
X256087880Y-145245830D01*
X256087880Y-144396580D01*
X256067880Y-144396580D01*
X256067880Y-144142580D01*
X256087880Y-144142580D01*
X256087880Y-144122580D01*
X256341880Y-144122580D01*
X256341880Y-144142580D01*
G36*
X244129284Y-144280746D02*
G01*
X244151673Y-144308027D01*
X244260546Y-144397377D01*
X244323529Y-144431042D01*
X244318136Y-144447097D01*
X244305000Y-144558250D01*
X244463750Y-144717000D01*
X244981928Y-144717000D01*
X244981928Y-144883000D01*
X244463750Y-144883000D01*
X244305000Y-145041750D01*
X244310111Y-145085000D01*
X244269263Y-145085000D01*
X242733120Y-143548859D01*
X242710727Y-143521573D01*
X242601854Y-143432223D01*
X242477642Y-143365830D01*
X242342864Y-143324946D01*
X242237820Y-143314600D01*
X242237810Y-143314600D01*
X242202700Y-143311142D01*
X242167590Y-143314600D01*
X241128072Y-143314600D01*
X241128072Y-142910000D01*
X241115812Y-142785518D01*
X241079502Y-142665820D01*
X241044320Y-142600000D01*
X241079502Y-142534180D01*
X241115812Y-142414482D01*
X241128072Y-142290000D01*
X241125000Y-142185750D01*
X240966250Y-142027000D01*
X240389195Y-142027000D01*
X240274942Y-141965930D01*
X240140164Y-141925046D01*
X240035120Y-141914700D01*
X240000000Y-141911241D01*
X239964881Y-141914700D01*
X239853000Y-141914700D01*
X239853000Y-141773000D01*
X239873000Y-141773000D01*
X239873000Y-141753000D01*
X240127000Y-141753000D01*
X240127000Y-141773000D01*
X240966250Y-141773000D01*
X241125000Y-141614250D01*
X241128072Y-141510000D01*
X241115812Y-141385518D01*
X241079502Y-141265820D01*
X241044320Y-141200000D01*
X241045789Y-141197251D01*
X244129284Y-144280746D01*
X244129284Y-144280746D01*
G37*
X244129284Y-144280746D02*
X244151673Y-144308027D01*
X244260546Y-144397377D01*
X244323529Y-144431042D01*
X244318136Y-144447097D01*
X244305000Y-144558250D01*
X244463750Y-144717000D01*
X244981928Y-144717000D01*
X244981928Y-144883000D01*
X244463750Y-144883000D01*
X244305000Y-145041750D01*
X244310111Y-145085000D01*
X244269263Y-145085000D01*
X242733120Y-143548859D01*
X242710727Y-143521573D01*
X242601854Y-143432223D01*
X242477642Y-143365830D01*
X242342864Y-143324946D01*
X242237820Y-143314600D01*
X242237810Y-143314600D01*
X242202700Y-143311142D01*
X242167590Y-143314600D01*
X241128072Y-143314600D01*
X241128072Y-142910000D01*
X241115812Y-142785518D01*
X241079502Y-142665820D01*
X241044320Y-142600000D01*
X241079502Y-142534180D01*
X241115812Y-142414482D01*
X241128072Y-142290000D01*
X241125000Y-142185750D01*
X240966250Y-142027000D01*
X240389195Y-142027000D01*
X240274942Y-141965930D01*
X240140164Y-141925046D01*
X240035120Y-141914700D01*
X240000000Y-141911241D01*
X239964881Y-141914700D01*
X239853000Y-141914700D01*
X239853000Y-141773000D01*
X239873000Y-141773000D01*
X239873000Y-141753000D01*
X240127000Y-141753000D01*
X240127000Y-141773000D01*
X240966250Y-141773000D01*
X241125000Y-141614250D01*
X241128072Y-141510000D01*
X241115812Y-141385518D01*
X241079502Y-141265820D01*
X241044320Y-141200000D01*
X241045789Y-141197251D01*
X244129284Y-144280746D01*
G36*
X246489084Y-140482745D02*
G01*
X246511473Y-140510027D01*
X246620346Y-140599377D01*
X246744558Y-140665770D01*
X246867741Y-140703137D01*
X246862928Y-140752000D01*
X246862928Y-140852000D01*
X246876149Y-140986236D01*
X246915304Y-141115314D01*
X246978889Y-141234272D01*
X247061001Y-141334325D01*
X247061000Y-141987790D01*
X247057542Y-142022900D01*
X247061000Y-142058010D01*
X247061000Y-142058019D01*
X247071346Y-142163063D01*
X247112230Y-142297841D01*
X247178623Y-142422053D01*
X247267973Y-142530926D01*
X247295255Y-142553316D01*
X247510389Y-142768450D01*
X247406911Y-142871928D01*
X247255000Y-142871928D01*
X247130518Y-142884188D01*
X247010820Y-142920498D01*
X246900506Y-142979463D01*
X246803815Y-143058815D01*
X246724463Y-143155506D01*
X246665498Y-143265820D01*
X246644225Y-143335948D01*
X246625010Y-143300000D01*
X246649502Y-143254180D01*
X246685812Y-143134482D01*
X246698072Y-143010000D01*
X246698072Y-142590000D01*
X246685812Y-142465518D01*
X246649502Y-142345820D01*
X246625010Y-142300000D01*
X246649502Y-142254180D01*
X246685812Y-142134482D01*
X246698072Y-142010000D01*
X246698072Y-141590000D01*
X246685812Y-141465518D01*
X246649502Y-141345820D01*
X246590537Y-141235506D01*
X246545780Y-141180969D01*
X246544654Y-141169536D01*
X246503770Y-141034758D01*
X246437377Y-140910546D01*
X246431569Y-140903469D01*
X246435812Y-140889482D01*
X246448072Y-140765000D01*
X246445000Y-140725750D01*
X246286250Y-140567000D01*
X245627000Y-140567000D01*
X245627000Y-140587000D01*
X245624600Y-140587000D01*
X245624600Y-140523072D01*
X245810000Y-140523072D01*
X245934482Y-140510812D01*
X246054180Y-140474502D01*
X246164494Y-140415537D01*
X246261185Y-140336185D01*
X246280212Y-140313000D01*
X246286250Y-140313000D01*
X246302794Y-140296456D01*
X246489084Y-140482745D01*
X246489084Y-140482745D01*
G37*
X246489084Y-140482745D02*
X246511473Y-140510027D01*
X246620346Y-140599377D01*
X246744558Y-140665770D01*
X246867741Y-140703137D01*
X246862928Y-140752000D01*
X246862928Y-140852000D01*
X246876149Y-140986236D01*
X246915304Y-141115314D01*
X246978889Y-141234272D01*
X247061001Y-141334325D01*
X247061000Y-141987790D01*
X247057542Y-142022900D01*
X247061000Y-142058010D01*
X247061000Y-142058019D01*
X247071346Y-142163063D01*
X247112230Y-142297841D01*
X247178623Y-142422053D01*
X247267973Y-142530926D01*
X247295255Y-142553316D01*
X247510389Y-142768450D01*
X247406911Y-142871928D01*
X247255000Y-142871928D01*
X247130518Y-142884188D01*
X247010820Y-142920498D01*
X246900506Y-142979463D01*
X246803815Y-143058815D01*
X246724463Y-143155506D01*
X246665498Y-143265820D01*
X246644225Y-143335948D01*
X246625010Y-143300000D01*
X246649502Y-143254180D01*
X246685812Y-143134482D01*
X246698072Y-143010000D01*
X246698072Y-142590000D01*
X246685812Y-142465518D01*
X246649502Y-142345820D01*
X246625010Y-142300000D01*
X246649502Y-142254180D01*
X246685812Y-142134482D01*
X246698072Y-142010000D01*
X246698072Y-141590000D01*
X246685812Y-141465518D01*
X246649502Y-141345820D01*
X246590537Y-141235506D01*
X246545780Y-141180969D01*
X246544654Y-141169536D01*
X246503770Y-141034758D01*
X246437377Y-140910546D01*
X246431569Y-140903469D01*
X246435812Y-140889482D01*
X246448072Y-140765000D01*
X246445000Y-140725750D01*
X246286250Y-140567000D01*
X245627000Y-140567000D01*
X245627000Y-140587000D01*
X245624600Y-140587000D01*
X245624600Y-140523072D01*
X245810000Y-140523072D01*
X245934482Y-140510812D01*
X246054180Y-140474502D01*
X246164494Y-140415537D01*
X246261185Y-140336185D01*
X246280212Y-140313000D01*
X246286250Y-140313000D01*
X246302794Y-140296456D01*
X246489084Y-140482745D01*
G36*
X253213000Y-142990000D02*
G01*
X253233000Y-142990000D01*
X253233000Y-143201200D01*
X252973000Y-143201200D01*
X252973000Y-143027061D01*
X253030061Y-142970000D01*
X253213000Y-142970000D01*
X253213000Y-142990000D01*
X253213000Y-142990000D01*
G37*
X253213000Y-142990000D02*
X253233000Y-142990000D01*
X253233000Y-143201200D01*
X252973000Y-143201200D01*
X252973000Y-143027061D01*
X253030061Y-142970000D01*
X253213000Y-142970000D01*
X253213000Y-142990000D01*
G36*
X256341880Y-135280520D02*
G01*
X256361880Y-135280520D01*
X256361880Y-135534520D01*
X256341880Y-135534520D01*
X256341880Y-136383770D01*
X256500630Y-136542520D01*
X256914880Y-136545592D01*
X257039362Y-136533332D01*
X257159060Y-136497022D01*
X257269374Y-136438057D01*
X257366065Y-136358705D01*
X257414880Y-136299224D01*
X258176048Y-137060393D01*
X258176048Y-137134340D01*
X258187867Y-137254340D01*
X258176048Y-137374340D01*
X258176048Y-137814340D01*
X258188308Y-137938822D01*
X258224618Y-138058520D01*
X258273000Y-138149035D01*
X258273000Y-142374073D01*
X258174482Y-142344188D01*
X258050000Y-142331928D01*
X257812041Y-142331928D01*
X257774327Y-142285973D01*
X257665454Y-142196623D01*
X257552952Y-142136489D01*
X257552952Y-141907520D01*
X257540692Y-141783038D01*
X257504382Y-141663340D01*
X257445417Y-141553026D01*
X257366065Y-141456335D01*
X257269374Y-141376983D01*
X257159060Y-141318018D01*
X257084430Y-141295379D01*
X257012262Y-141187372D01*
X256882028Y-141057138D01*
X256728889Y-140954814D01*
X256558729Y-140884332D01*
X256378089Y-140848400D01*
X256193911Y-140848400D01*
X256013271Y-140884332D01*
X255843111Y-140954814D01*
X255770001Y-141003664D01*
X255770001Y-136543700D01*
X255929130Y-136542520D01*
X256087880Y-136383770D01*
X256087880Y-135534520D01*
X256067880Y-135534520D01*
X256067880Y-135280520D01*
X256087880Y-135280520D01*
X256087880Y-135260520D01*
X256341880Y-135260520D01*
X256341880Y-135280520D01*
X256341880Y-135280520D01*
G37*
X256341880Y-135280520D02*
X256361880Y-135280520D01*
X256361880Y-135534520D01*
X256341880Y-135534520D01*
X256341880Y-136383770D01*
X256500630Y-136542520D01*
X256914880Y-136545592D01*
X257039362Y-136533332D01*
X257159060Y-136497022D01*
X257269374Y-136438057D01*
X257366065Y-136358705D01*
X257414880Y-136299224D01*
X258176048Y-137060393D01*
X258176048Y-137134340D01*
X258187867Y-137254340D01*
X258176048Y-137374340D01*
X258176048Y-137814340D01*
X258188308Y-137938822D01*
X258224618Y-138058520D01*
X258273000Y-138149035D01*
X258273000Y-142374073D01*
X258174482Y-142344188D01*
X258050000Y-142331928D01*
X257812041Y-142331928D01*
X257774327Y-142285973D01*
X257665454Y-142196623D01*
X257552952Y-142136489D01*
X257552952Y-141907520D01*
X257540692Y-141783038D01*
X257504382Y-141663340D01*
X257445417Y-141553026D01*
X257366065Y-141456335D01*
X257269374Y-141376983D01*
X257159060Y-141318018D01*
X257084430Y-141295379D01*
X257012262Y-141187372D01*
X256882028Y-141057138D01*
X256728889Y-140954814D01*
X256558729Y-140884332D01*
X256378089Y-140848400D01*
X256193911Y-140848400D01*
X256013271Y-140884332D01*
X255843111Y-140954814D01*
X255770001Y-141003664D01*
X255770001Y-136543700D01*
X255929130Y-136542520D01*
X256087880Y-136383770D01*
X256087880Y-135534520D01*
X256067880Y-135534520D01*
X256067880Y-135280520D01*
X256087880Y-135280520D01*
X256087880Y-135260520D01*
X256341880Y-135260520D01*
X256341880Y-135280520D01*
G36*
X251950000Y-140633750D02*
G01*
X251946928Y-140773000D01*
X251959188Y-140897482D01*
X251995498Y-141017180D01*
X252054463Y-141127494D01*
X252133815Y-141224185D01*
X252230506Y-141303537D01*
X252340820Y-141362502D01*
X252460518Y-141398812D01*
X252533535Y-141406003D01*
X252543050Y-141453836D01*
X252533346Y-141459023D01*
X252424473Y-141548373D01*
X252402085Y-141575653D01*
X251961839Y-142015900D01*
X250837277Y-142015900D01*
X250848973Y-142005290D01*
X250923440Y-141904788D01*
X250976870Y-141791690D01*
X251007208Y-141670341D01*
X251011000Y-141587750D01*
X250963322Y-141540072D01*
X251001000Y-141540072D01*
X251135236Y-141526851D01*
X251264314Y-141487696D01*
X251383272Y-141424111D01*
X251487540Y-141338540D01*
X251573111Y-141234272D01*
X251636696Y-141115314D01*
X251675851Y-140986236D01*
X251689072Y-140852000D01*
X251689072Y-140752000D01*
X251679460Y-140654405D01*
X251842029Y-140622068D01*
X252012189Y-140551586D01*
X252072387Y-140511363D01*
X251950000Y-140633750D01*
X251950000Y-140633750D01*
G37*
X251950000Y-140633750D02*
X251946928Y-140773000D01*
X251959188Y-140897482D01*
X251995498Y-141017180D01*
X252054463Y-141127494D01*
X252133815Y-141224185D01*
X252230506Y-141303537D01*
X252340820Y-141362502D01*
X252460518Y-141398812D01*
X252533535Y-141406003D01*
X252543050Y-141453836D01*
X252533346Y-141459023D01*
X252424473Y-141548373D01*
X252402085Y-141575653D01*
X251961839Y-142015900D01*
X250837277Y-142015900D01*
X250848973Y-142005290D01*
X250923440Y-141904788D01*
X250976870Y-141791690D01*
X251007208Y-141670341D01*
X251011000Y-141587750D01*
X250963322Y-141540072D01*
X251001000Y-141540072D01*
X251135236Y-141526851D01*
X251264314Y-141487696D01*
X251383272Y-141424111D01*
X251487540Y-141338540D01*
X251573111Y-141234272D01*
X251636696Y-141115314D01*
X251675851Y-140986236D01*
X251689072Y-140852000D01*
X251689072Y-140752000D01*
X251679460Y-140654405D01*
X251842029Y-140622068D01*
X252012189Y-140551586D01*
X252072387Y-140511363D01*
X251950000Y-140633750D01*
G36*
X253111101Y-140422532D02*
G01*
X253020611Y-140460014D01*
X252968251Y-140495000D01*
X252933000Y-140495000D01*
X252933000Y-140475000D01*
X252913000Y-140475000D01*
X252913000Y-140357700D01*
X253111100Y-140357700D01*
X253111101Y-140422532D01*
X253111101Y-140422532D01*
G37*
X253111101Y-140422532D02*
X253020611Y-140460014D01*
X252968251Y-140495000D01*
X252933000Y-140495000D01*
X252933000Y-140475000D01*
X252913000Y-140475000D01*
X252913000Y-140357700D01*
X253111100Y-140357700D01*
X253111101Y-140422532D01*
M02*
