G04 #@! TF.GenerationSoftware,KiCad,Pcbnew,(5.1.4)-1*
G04 #@! TF.CreationDate,2019-11-20T19:39:55+01:00*
G04 #@! TF.ProjectId,Open_Telemetry_digitalSensorShield,4f70656e-5f54-4656-9c65-6d657472795f,P1A_02 - Prototype manuf.*
G04 #@! TF.SameCoordinates,Original*
G04 #@! TF.FileFunction,Other,User*
%FSLAX46Y46*%
G04 Gerber Fmt 4.6, Leading zero omitted, Abs format (unit mm)*
G04 Created by KiCad (PCBNEW (5.1.4)-1) date 2019-11-20 19:39:55*
%MOMM*%
%LPD*%
G04 APERTURE LIST*
%ADD10C,0.050000*%
G04 APERTURE END LIST*
D10*
X264684680Y-152905460D02*
G75*
G03X264684680Y-152905460I-2450000J0D01*
G01*
X264722780Y-133870700D02*
G75*
G03X264722780Y-133870700I-2450000J0D01*
G01*
X219285000Y-152280620D02*
G75*
G03X219285000Y-152280620I-2750000J0D01*
G01*
X219234200Y-134528560D02*
G75*
G03X219234200Y-134528560I-2750000J0D01*
G01*
X246950000Y-150000000D02*
X246950000Y-147400000D01*
X250050000Y-150000000D02*
X246950000Y-150000000D01*
X250050000Y-147400000D02*
X250050000Y-150000000D01*
X246950000Y-147400000D02*
X250050000Y-147400000D01*
X214416000Y-144718000D02*
X214416000Y-149718000D01*
X219416000Y-144718000D02*
X214416000Y-144718000D01*
X219416000Y-149718000D02*
X219416000Y-144718000D01*
X214416000Y-149718000D02*
X219416000Y-149718000D01*
X228705000Y-131423000D02*
X228705000Y-135023000D01*
X260255000Y-131423000D02*
X228705000Y-131423000D01*
X260255000Y-135023000D02*
X260255000Y-131423000D01*
X228705000Y-135023000D02*
X260255000Y-135023000D01*
X260245000Y-155343000D02*
X260245000Y-151743000D01*
X218545000Y-155343000D02*
X260245000Y-155343000D01*
X218545000Y-151743000D02*
X218545000Y-155343000D01*
X260245000Y-151743000D02*
X218545000Y-151743000D01*
X250130000Y-145760000D02*
X250130000Y-142960000D01*
X246930000Y-142960000D02*
X246930000Y-145760000D01*
X246930000Y-142960000D02*
X250130000Y-142960000D01*
X246930000Y-145760000D02*
X250130000Y-145760000D01*
X251326000Y-137752000D02*
X251326000Y-141852000D01*
X247226000Y-137752000D02*
X251326000Y-137752000D01*
X247226000Y-141852000D02*
X247226000Y-137752000D01*
X251326000Y-141852000D02*
X247226000Y-141852000D01*
M02*
