G04 #@! TF.GenerationSoftware,KiCad,Pcbnew,(5.1.4)-1*
G04 #@! TF.CreationDate,2019-11-17T19:28:04+01:00*
G04 #@! TF.ProjectId,Open_Telemetry_digitalSensorShield,4f70656e-5f54-4656-9c65-6d657472795f,P1A - Prototype manuf.*
G04 #@! TF.SameCoordinates,Original*
G04 #@! TF.FileFunction,Copper,L3,Inr*
G04 #@! TF.FilePolarity,Positive*
%FSLAX46Y46*%
G04 Gerber Fmt 4.6, Leading zero omitted, Abs format (unit mm)*
G04 Created by KiCad (PCBNEW (5.1.4)-1) date 2019-11-17 19:28:04*
%MOMM*%
%LPD*%
G04 APERTURE LIST*
%ADD10O,1.700000X1.700000*%
%ADD11R,1.700000X1.700000*%
%ADD12C,0.600000*%
%ADD13C,0.254000*%
G04 APERTURE END LIST*
D10*
X258445000Y-133223000D03*
X255905000Y-133223000D03*
X253365000Y-133223000D03*
X250825000Y-133223000D03*
X248285000Y-133223000D03*
X245745000Y-133223000D03*
X243205000Y-133223000D03*
X240665000Y-133223000D03*
X238125000Y-133223000D03*
X235585000Y-133223000D03*
X233045000Y-133223000D03*
D11*
X230505000Y-133223000D03*
D10*
X220345000Y-153543000D03*
X222885000Y-153543000D03*
X225425000Y-153543000D03*
X227965000Y-153543000D03*
X230505000Y-153543000D03*
X233045000Y-153543000D03*
X235585000Y-153543000D03*
X238125000Y-153543000D03*
X240665000Y-153543000D03*
X243205000Y-153543000D03*
X245745000Y-153543000D03*
X248285000Y-153543000D03*
X250825000Y-153543000D03*
X253365000Y-153543000D03*
X255905000Y-153543000D03*
D11*
X258445000Y-153543000D03*
D12*
X246700000Y-151050000D03*
X250310300Y-144077700D03*
X248705000Y-142084500D03*
X246500000Y-147400000D03*
X218624400Y-139076200D03*
X250097900Y-151099900D03*
X251569300Y-139723000D03*
X238796300Y-139829700D03*
X244415600Y-142555900D03*
X240941000Y-135882800D03*
X257840000Y-144592800D03*
X247384000Y-138120700D03*
X239065000Y-142629700D03*
X243200000Y-147550000D03*
X219235020Y-149138640D03*
X219161360Y-145130520D03*
X248197100Y-148679300D03*
X244012720Y-144477740D03*
X244438700Y-148952500D03*
X221539000Y-150760700D03*
X244223540Y-137302240D03*
X243200000Y-150550000D03*
X244045740Y-141366240D03*
X215100000Y-148700000D03*
X251818100Y-140625700D03*
X215100000Y-145750000D03*
X253987200Y-143058500D03*
X256286000Y-136796000D03*
X256298700Y-146019520D03*
X246443300Y-140402000D03*
X216500000Y-147200000D03*
X219161360Y-142128240D03*
X241239040Y-141881860D03*
X224708720Y-148645880D03*
X257957320Y-141739620D03*
X257939540Y-151643080D03*
X257939540Y-151643080D03*
X234066080Y-148617940D03*
X223509840Y-140827760D03*
X226918520Y-133192520D03*
X254086360Y-151538940D03*
X238150400Y-135270240D03*
X239313720Y-146110960D03*
X256286000Y-141783400D03*
X223070420Y-143362680D03*
X253463500Y-141288600D03*
X251938900Y-138529900D03*
X253906200Y-143916200D03*
X254573600Y-146717800D03*
X249981400Y-150287900D03*
X244232900Y-135531200D03*
X248455500Y-143954100D03*
X251241200Y-137905900D03*
X246664900Y-148950000D03*
X249342600Y-148736700D03*
X248584900Y-136747500D03*
X250148600Y-148778400D03*
D13*
G36*
X226089934Y-132749631D02*
G01*
X226019452Y-132919791D01*
X225983520Y-133100431D01*
X225983520Y-133284609D01*
X226019452Y-133465249D01*
X226089934Y-133635409D01*
X226192258Y-133788548D01*
X226322492Y-133918782D01*
X226475631Y-134021106D01*
X226645791Y-134091588D01*
X226826431Y-134127520D01*
X227010609Y-134127520D01*
X227191249Y-134091588D01*
X227361409Y-134021106D01*
X227514548Y-133918782D01*
X227644782Y-133788548D01*
X227747106Y-133635409D01*
X227817588Y-133465249D01*
X227853520Y-133284609D01*
X227853520Y-133100431D01*
X227817588Y-132919791D01*
X227747106Y-132749631D01*
X227667171Y-132630000D01*
X229016928Y-132630000D01*
X229016928Y-134073000D01*
X229029188Y-134197482D01*
X229065498Y-134317180D01*
X229124463Y-134427494D01*
X229203815Y-134524185D01*
X229300506Y-134603537D01*
X229410820Y-134662502D01*
X229530518Y-134698812D01*
X229655000Y-134711072D01*
X231355000Y-134711072D01*
X231479482Y-134698812D01*
X231599180Y-134662502D01*
X231709494Y-134603537D01*
X231806185Y-134524185D01*
X231885537Y-134427494D01*
X231944502Y-134317180D01*
X231965393Y-134248313D01*
X231989866Y-134278134D01*
X232215986Y-134463706D01*
X232473966Y-134601599D01*
X232753889Y-134686513D01*
X232972050Y-134708000D01*
X233117950Y-134708000D01*
X233336111Y-134686513D01*
X233616034Y-134601599D01*
X233874014Y-134463706D01*
X234100134Y-134278134D01*
X234285706Y-134052014D01*
X234315000Y-133997209D01*
X234344294Y-134052014D01*
X234529866Y-134278134D01*
X234755986Y-134463706D01*
X235013966Y-134601599D01*
X235293889Y-134686513D01*
X235512050Y-134708000D01*
X235657950Y-134708000D01*
X235876111Y-134686513D01*
X236156034Y-134601599D01*
X236414014Y-134463706D01*
X236640134Y-134278134D01*
X236825706Y-134052014D01*
X236855000Y-133997209D01*
X236884294Y-134052014D01*
X237069866Y-134278134D01*
X237295986Y-134463706D01*
X237516680Y-134581670D01*
X237424138Y-134674212D01*
X237321814Y-134827351D01*
X237251332Y-134997511D01*
X237215400Y-135178151D01*
X237215400Y-135362329D01*
X237251332Y-135542969D01*
X237321814Y-135713129D01*
X237424138Y-135866268D01*
X237554372Y-135996502D01*
X237707511Y-136098826D01*
X237877671Y-136169308D01*
X238058311Y-136205240D01*
X238242489Y-136205240D01*
X238423129Y-136169308D01*
X238593289Y-136098826D01*
X238746428Y-135996502D01*
X238876662Y-135866268D01*
X238978986Y-135713129D01*
X239049468Y-135542969D01*
X239085400Y-135362329D01*
X239085400Y-135178151D01*
X239049468Y-134997511D01*
X238978986Y-134827351D01*
X238876662Y-134674212D01*
X238766425Y-134563975D01*
X238954014Y-134463706D01*
X239180134Y-134278134D01*
X239365706Y-134052014D01*
X239395000Y-133997209D01*
X239424294Y-134052014D01*
X239609866Y-134278134D01*
X239835986Y-134463706D01*
X240093966Y-134601599D01*
X240373889Y-134686513D01*
X240592050Y-134708000D01*
X240737950Y-134708000D01*
X240956111Y-134686513D01*
X241236034Y-134601599D01*
X241494014Y-134463706D01*
X241720134Y-134278134D01*
X241905706Y-134052014D01*
X241935000Y-133997209D01*
X241964294Y-134052014D01*
X242149866Y-134278134D01*
X242375986Y-134463706D01*
X242633966Y-134601599D01*
X242913889Y-134686513D01*
X243132050Y-134708000D01*
X243277950Y-134708000D01*
X243496111Y-134686513D01*
X243776034Y-134601599D01*
X244034014Y-134463706D01*
X244260134Y-134278134D01*
X244445706Y-134052014D01*
X244475000Y-133997209D01*
X244504294Y-134052014D01*
X244689866Y-134278134D01*
X244915986Y-134463706D01*
X245173966Y-134601599D01*
X245453889Y-134686513D01*
X245672050Y-134708000D01*
X245817950Y-134708000D01*
X246036111Y-134686513D01*
X246316034Y-134601599D01*
X246574014Y-134463706D01*
X246800134Y-134278134D01*
X246985706Y-134052014D01*
X247015000Y-133997209D01*
X247044294Y-134052014D01*
X247229866Y-134278134D01*
X247455986Y-134463706D01*
X247713966Y-134601599D01*
X247993889Y-134686513D01*
X248212050Y-134708000D01*
X248357950Y-134708000D01*
X248576111Y-134686513D01*
X248856034Y-134601599D01*
X249114014Y-134463706D01*
X249340134Y-134278134D01*
X249525706Y-134052014D01*
X249555000Y-133997209D01*
X249584294Y-134052014D01*
X249769866Y-134278134D01*
X249995986Y-134463706D01*
X250253966Y-134601599D01*
X250533889Y-134686513D01*
X250752050Y-134708000D01*
X250897950Y-134708000D01*
X251116111Y-134686513D01*
X251396034Y-134601599D01*
X251654014Y-134463706D01*
X251880134Y-134278134D01*
X252065706Y-134052014D01*
X252095000Y-133997209D01*
X252124294Y-134052014D01*
X252309866Y-134278134D01*
X252535986Y-134463706D01*
X252793966Y-134601599D01*
X253073889Y-134686513D01*
X253292050Y-134708000D01*
X253437950Y-134708000D01*
X253656111Y-134686513D01*
X253936034Y-134601599D01*
X254194014Y-134463706D01*
X254420134Y-134278134D01*
X254605706Y-134052014D01*
X254635000Y-133997209D01*
X254664294Y-134052014D01*
X254849866Y-134278134D01*
X255075986Y-134463706D01*
X255333966Y-134601599D01*
X255613889Y-134686513D01*
X255832050Y-134708000D01*
X255977950Y-134708000D01*
X256196111Y-134686513D01*
X256476034Y-134601599D01*
X256734014Y-134463706D01*
X256960134Y-134278134D01*
X257145706Y-134052014D01*
X257175000Y-133997209D01*
X257204294Y-134052014D01*
X257389866Y-134278134D01*
X257615986Y-134463706D01*
X257873966Y-134601599D01*
X258153889Y-134686513D01*
X258273000Y-134698244D01*
X258273000Y-140858343D01*
X258230049Y-140840552D01*
X258049409Y-140804620D01*
X257865231Y-140804620D01*
X257684591Y-140840552D01*
X257514431Y-140911034D01*
X257361292Y-141013358D01*
X257231058Y-141143592D01*
X257128734Y-141296731D01*
X257112125Y-141336828D01*
X257012262Y-141187372D01*
X256882028Y-141057138D01*
X256728889Y-140954814D01*
X256558729Y-140884332D01*
X256378089Y-140848400D01*
X256193911Y-140848400D01*
X256013271Y-140884332D01*
X255843111Y-140954814D01*
X255689972Y-141057138D01*
X255559738Y-141187372D01*
X255457414Y-141340511D01*
X255386932Y-141510671D01*
X255351000Y-141691311D01*
X255351000Y-141875489D01*
X255386932Y-142056129D01*
X255457414Y-142226289D01*
X255559738Y-142379428D01*
X255689972Y-142509662D01*
X255843111Y-142611986D01*
X256013271Y-142682468D01*
X256193911Y-142718400D01*
X256378089Y-142718400D01*
X256558729Y-142682468D01*
X256728889Y-142611986D01*
X256882028Y-142509662D01*
X257012262Y-142379428D01*
X257114586Y-142226289D01*
X257131195Y-142186192D01*
X257231058Y-142335648D01*
X257361292Y-142465882D01*
X257514431Y-142568206D01*
X257684591Y-142638688D01*
X257865231Y-142674620D01*
X258049409Y-142674620D01*
X258230049Y-142638688D01*
X258273000Y-142620897D01*
X258273000Y-150769167D01*
X258212269Y-150744012D01*
X258031629Y-150708080D01*
X257847451Y-150708080D01*
X257666811Y-150744012D01*
X257496651Y-150814494D01*
X257343512Y-150916818D01*
X257213278Y-151047052D01*
X257110954Y-151200191D01*
X257040472Y-151370351D01*
X257004540Y-151550991D01*
X257004540Y-151735169D01*
X257040472Y-151915809D01*
X257110954Y-152085969D01*
X257189846Y-152204039D01*
X257143815Y-152241815D01*
X257064463Y-152338506D01*
X257005498Y-152448820D01*
X256984607Y-152517687D01*
X256960134Y-152487866D01*
X256734014Y-152302294D01*
X256476034Y-152164401D01*
X256196111Y-152079487D01*
X255977950Y-152058000D01*
X255832050Y-152058000D01*
X255613889Y-152079487D01*
X255333966Y-152164401D01*
X255075986Y-152302294D01*
X254849866Y-152487866D01*
X254664294Y-152713986D01*
X254635000Y-152768791D01*
X254605706Y-152713986D01*
X254420134Y-152487866D01*
X254359284Y-152437927D01*
X254529249Y-152367526D01*
X254682388Y-152265202D01*
X254812622Y-152134968D01*
X254914946Y-151981829D01*
X254985428Y-151811669D01*
X255021360Y-151631029D01*
X255021360Y-151446851D01*
X254985428Y-151266211D01*
X254914946Y-151096051D01*
X254812622Y-150942912D01*
X254682388Y-150812678D01*
X254529249Y-150710354D01*
X254359089Y-150639872D01*
X254178449Y-150603940D01*
X253994271Y-150603940D01*
X253813631Y-150639872D01*
X253643471Y-150710354D01*
X253490332Y-150812678D01*
X253360098Y-150942912D01*
X253257774Y-151096051D01*
X253187292Y-151266211D01*
X253151360Y-151446851D01*
X253151360Y-151631029D01*
X253187292Y-151811669D01*
X253257774Y-151981829D01*
X253308670Y-152058000D01*
X253292050Y-152058000D01*
X253073889Y-152079487D01*
X252793966Y-152164401D01*
X252535986Y-152302294D01*
X252309866Y-152487866D01*
X252124294Y-152713986D01*
X252095000Y-152768791D01*
X252065706Y-152713986D01*
X251880134Y-152487866D01*
X251654014Y-152302294D01*
X251396034Y-152164401D01*
X251116111Y-152079487D01*
X250897950Y-152058000D01*
X250752050Y-152058000D01*
X250533889Y-152079487D01*
X250253966Y-152164401D01*
X249995986Y-152302294D01*
X249769866Y-152487866D01*
X249584294Y-152713986D01*
X249555000Y-152768791D01*
X249525706Y-152713986D01*
X249340134Y-152487866D01*
X249114014Y-152302294D01*
X248856034Y-152164401D01*
X248576111Y-152079487D01*
X248357950Y-152058000D01*
X248212050Y-152058000D01*
X247993889Y-152079487D01*
X247713966Y-152164401D01*
X247455986Y-152302294D01*
X247229866Y-152487866D01*
X247044294Y-152713986D01*
X247015000Y-152768791D01*
X246985706Y-152713986D01*
X246800134Y-152487866D01*
X246574014Y-152302294D01*
X246316034Y-152164401D01*
X246036111Y-152079487D01*
X245817950Y-152058000D01*
X245672050Y-152058000D01*
X245453889Y-152079487D01*
X245173966Y-152164401D01*
X244915986Y-152302294D01*
X244689866Y-152487866D01*
X244504294Y-152713986D01*
X244475000Y-152768791D01*
X244445706Y-152713986D01*
X244260134Y-152487866D01*
X244034014Y-152302294D01*
X243776034Y-152164401D01*
X243496111Y-152079487D01*
X243277950Y-152058000D01*
X243132050Y-152058000D01*
X242913889Y-152079487D01*
X242633966Y-152164401D01*
X242375986Y-152302294D01*
X242149866Y-152487866D01*
X241964294Y-152713986D01*
X241935000Y-152768791D01*
X241905706Y-152713986D01*
X241720134Y-152487866D01*
X241494014Y-152302294D01*
X241236034Y-152164401D01*
X240956111Y-152079487D01*
X240737950Y-152058000D01*
X240592050Y-152058000D01*
X240373889Y-152079487D01*
X240093966Y-152164401D01*
X239835986Y-152302294D01*
X239609866Y-152487866D01*
X239424294Y-152713986D01*
X239395000Y-152768791D01*
X239365706Y-152713986D01*
X239180134Y-152487866D01*
X238954014Y-152302294D01*
X238696034Y-152164401D01*
X238416111Y-152079487D01*
X238197950Y-152058000D01*
X238052050Y-152058000D01*
X237833889Y-152079487D01*
X237553966Y-152164401D01*
X237295986Y-152302294D01*
X237069866Y-152487866D01*
X236884294Y-152713986D01*
X236855000Y-152768791D01*
X236825706Y-152713986D01*
X236640134Y-152487866D01*
X236414014Y-152302294D01*
X236156034Y-152164401D01*
X235876111Y-152079487D01*
X235657950Y-152058000D01*
X235512050Y-152058000D01*
X235293889Y-152079487D01*
X235013966Y-152164401D01*
X234755986Y-152302294D01*
X234529866Y-152487866D01*
X234344294Y-152713986D01*
X234315000Y-152768791D01*
X234285706Y-152713986D01*
X234100134Y-152487866D01*
X233874014Y-152302294D01*
X233616034Y-152164401D01*
X233336111Y-152079487D01*
X233117950Y-152058000D01*
X232972050Y-152058000D01*
X232753889Y-152079487D01*
X232473966Y-152164401D01*
X232215986Y-152302294D01*
X231989866Y-152487866D01*
X231804294Y-152713986D01*
X231775000Y-152768791D01*
X231745706Y-152713986D01*
X231560134Y-152487866D01*
X231334014Y-152302294D01*
X231076034Y-152164401D01*
X230796111Y-152079487D01*
X230577950Y-152058000D01*
X230432050Y-152058000D01*
X230213889Y-152079487D01*
X229933966Y-152164401D01*
X229675986Y-152302294D01*
X229449866Y-152487866D01*
X229264294Y-152713986D01*
X229235000Y-152768791D01*
X229205706Y-152713986D01*
X229020134Y-152487866D01*
X228794014Y-152302294D01*
X228536034Y-152164401D01*
X228256111Y-152079487D01*
X228037950Y-152058000D01*
X227892050Y-152058000D01*
X227673889Y-152079487D01*
X227393966Y-152164401D01*
X227135986Y-152302294D01*
X226909866Y-152487866D01*
X226724294Y-152713986D01*
X226695000Y-152768791D01*
X226665706Y-152713986D01*
X226480134Y-152487866D01*
X226254014Y-152302294D01*
X225996034Y-152164401D01*
X225716111Y-152079487D01*
X225497950Y-152058000D01*
X225352050Y-152058000D01*
X225133889Y-152079487D01*
X224853966Y-152164401D01*
X224595986Y-152302294D01*
X224369866Y-152487866D01*
X224184294Y-152713986D01*
X224149799Y-152778523D01*
X224080178Y-152661645D01*
X223885269Y-152445412D01*
X223651920Y-152271359D01*
X223389099Y-152146175D01*
X223241890Y-152101524D01*
X223012000Y-152222845D01*
X223012000Y-153416000D01*
X223032000Y-153416000D01*
X223032000Y-153670000D01*
X223012000Y-153670000D01*
X223012000Y-153690000D01*
X222758000Y-153690000D01*
X222758000Y-153670000D01*
X222738000Y-153670000D01*
X222738000Y-153416000D01*
X222758000Y-153416000D01*
X222758000Y-152222845D01*
X222528110Y-152101524D01*
X222380901Y-152146175D01*
X222118080Y-152271359D01*
X221884731Y-152445412D01*
X221689822Y-152661645D01*
X221620201Y-152778523D01*
X221585706Y-152713986D01*
X221400134Y-152487866D01*
X221174014Y-152302294D01*
X220916034Y-152164401D01*
X220636111Y-152079487D01*
X220417950Y-152058000D01*
X220272050Y-152058000D01*
X220053889Y-152079487D01*
X219773966Y-152164401D01*
X219515986Y-152302294D01*
X219289866Y-152487866D01*
X219104294Y-152713986D01*
X218966401Y-152971966D01*
X218881487Y-153251889D01*
X218852815Y-153543000D01*
X218881487Y-153834111D01*
X218966401Y-154114034D01*
X218996315Y-154170000D01*
X216547279Y-154170000D01*
X216502608Y-154165620D01*
X216720656Y-154165620D01*
X217084834Y-154093181D01*
X217427882Y-153951086D01*
X217736618Y-153744795D01*
X217999175Y-153482238D01*
X218205466Y-153173502D01*
X218347561Y-152830454D01*
X218420000Y-152466276D01*
X218420000Y-152094964D01*
X218347561Y-151730786D01*
X218205466Y-151387738D01*
X217999175Y-151079002D01*
X217736618Y-150816445D01*
X217515369Y-150668611D01*
X220604000Y-150668611D01*
X220604000Y-150852789D01*
X220639932Y-151033429D01*
X220710414Y-151203589D01*
X220812738Y-151356728D01*
X220942972Y-151486962D01*
X221096111Y-151589286D01*
X221266271Y-151659768D01*
X221446911Y-151695700D01*
X221631089Y-151695700D01*
X221811729Y-151659768D01*
X221981889Y-151589286D01*
X222135028Y-151486962D01*
X222265262Y-151356728D01*
X222367586Y-151203589D01*
X222438068Y-151033429D01*
X222474000Y-150852789D01*
X222474000Y-150668611D01*
X222438068Y-150487971D01*
X222425617Y-150457911D01*
X242265000Y-150457911D01*
X242265000Y-150642089D01*
X242300932Y-150822729D01*
X242371414Y-150992889D01*
X242473738Y-151146028D01*
X242603972Y-151276262D01*
X242757111Y-151378586D01*
X242927271Y-151449068D01*
X243107911Y-151485000D01*
X243292089Y-151485000D01*
X243472729Y-151449068D01*
X243642889Y-151378586D01*
X243796028Y-151276262D01*
X243926262Y-151146028D01*
X244028586Y-150992889D01*
X244099068Y-150822729D01*
X244135000Y-150642089D01*
X244135000Y-150457911D01*
X244099068Y-150277271D01*
X244028586Y-150107111D01*
X243926262Y-149953972D01*
X243796028Y-149823738D01*
X243642889Y-149721414D01*
X243472729Y-149650932D01*
X243292089Y-149615000D01*
X243107911Y-149615000D01*
X242927271Y-149650932D01*
X242757111Y-149721414D01*
X242603972Y-149823738D01*
X242473738Y-149953972D01*
X242371414Y-150107111D01*
X242300932Y-150277271D01*
X242265000Y-150457911D01*
X222425617Y-150457911D01*
X222367586Y-150317811D01*
X222265262Y-150164672D01*
X222135028Y-150034438D01*
X221981889Y-149932114D01*
X221811729Y-149861632D01*
X221631089Y-149825700D01*
X221446911Y-149825700D01*
X221266271Y-149861632D01*
X221096111Y-149932114D01*
X220942972Y-150034438D01*
X220812738Y-150164672D01*
X220710414Y-150317811D01*
X220639932Y-150487971D01*
X220604000Y-150668611D01*
X217515369Y-150668611D01*
X217427882Y-150610154D01*
X217084834Y-150468059D01*
X216720656Y-150395620D01*
X216349344Y-150395620D01*
X215985166Y-150468059D01*
X215642118Y-150610154D01*
X215333382Y-150816445D01*
X215070825Y-151079002D01*
X214864534Y-151387738D01*
X214722439Y-151730786D01*
X214650000Y-152094964D01*
X214650000Y-152415273D01*
X214635000Y-152272557D01*
X214635000Y-149513812D01*
X214657111Y-149528586D01*
X214827271Y-149599068D01*
X215007911Y-149635000D01*
X215192089Y-149635000D01*
X215372729Y-149599068D01*
X215542889Y-149528586D01*
X215696028Y-149426262D01*
X215826262Y-149296028D01*
X215928586Y-149142889D01*
X215968490Y-149046551D01*
X218300020Y-149046551D01*
X218300020Y-149230729D01*
X218335952Y-149411369D01*
X218406434Y-149581529D01*
X218508758Y-149734668D01*
X218638992Y-149864902D01*
X218792131Y-149967226D01*
X218962291Y-150037708D01*
X219142931Y-150073640D01*
X219327109Y-150073640D01*
X219507749Y-150037708D01*
X219677909Y-149967226D01*
X219831048Y-149864902D01*
X219961282Y-149734668D01*
X220063606Y-149581529D01*
X220134088Y-149411369D01*
X220170020Y-149230729D01*
X220170020Y-149046551D01*
X220134088Y-148865911D01*
X220063606Y-148695751D01*
X219968752Y-148553791D01*
X223773720Y-148553791D01*
X223773720Y-148737969D01*
X223809652Y-148918609D01*
X223880134Y-149088769D01*
X223982458Y-149241908D01*
X224112692Y-149372142D01*
X224265831Y-149474466D01*
X224435991Y-149544948D01*
X224616631Y-149580880D01*
X224800809Y-149580880D01*
X224981449Y-149544948D01*
X225151609Y-149474466D01*
X225304748Y-149372142D01*
X225434982Y-149241908D01*
X225537306Y-149088769D01*
X225607788Y-148918609D01*
X225643720Y-148737969D01*
X225643720Y-148553791D01*
X225638163Y-148525851D01*
X233131080Y-148525851D01*
X233131080Y-148710029D01*
X233167012Y-148890669D01*
X233237494Y-149060829D01*
X233339818Y-149213968D01*
X233470052Y-149344202D01*
X233623191Y-149446526D01*
X233793351Y-149517008D01*
X233973991Y-149552940D01*
X234158169Y-149552940D01*
X234338809Y-149517008D01*
X234508969Y-149446526D01*
X234662108Y-149344202D01*
X234792342Y-149213968D01*
X234894666Y-149060829D01*
X234965148Y-148890669D01*
X234971166Y-148860411D01*
X243503700Y-148860411D01*
X243503700Y-149044589D01*
X243539632Y-149225229D01*
X243610114Y-149395389D01*
X243712438Y-149548528D01*
X243842672Y-149678762D01*
X243995811Y-149781086D01*
X244165971Y-149851568D01*
X244346611Y-149887500D01*
X244530789Y-149887500D01*
X244711429Y-149851568D01*
X244881589Y-149781086D01*
X245034728Y-149678762D01*
X245164962Y-149548528D01*
X245267286Y-149395389D01*
X245337768Y-149225229D01*
X245373700Y-149044589D01*
X245373700Y-148860411D01*
X245373203Y-148857911D01*
X245729900Y-148857911D01*
X245729900Y-149042089D01*
X245765832Y-149222729D01*
X245836314Y-149392889D01*
X245938638Y-149546028D01*
X246068872Y-149676262D01*
X246222011Y-149778586D01*
X246392171Y-149849068D01*
X246572811Y-149885000D01*
X246756989Y-149885000D01*
X246937629Y-149849068D01*
X247107789Y-149778586D01*
X247260928Y-149676262D01*
X247391162Y-149546028D01*
X247493486Y-149392889D01*
X247521285Y-149325775D01*
X247601072Y-149405562D01*
X247754211Y-149507886D01*
X247924371Y-149578368D01*
X248105011Y-149614300D01*
X248289189Y-149614300D01*
X248469829Y-149578368D01*
X248639989Y-149507886D01*
X248730811Y-149447201D01*
X248746572Y-149462962D01*
X248899711Y-149565286D01*
X249069871Y-149635768D01*
X249250511Y-149671700D01*
X249275310Y-149671700D01*
X249255138Y-149691872D01*
X249152814Y-149845011D01*
X249082332Y-150015171D01*
X249046400Y-150195811D01*
X249046400Y-150379989D01*
X249082332Y-150560629D01*
X249152814Y-150730789D01*
X249255138Y-150883928D01*
X249385372Y-151014162D01*
X249538511Y-151116486D01*
X249708671Y-151186968D01*
X249889311Y-151222900D01*
X250073489Y-151222900D01*
X250254129Y-151186968D01*
X250424289Y-151116486D01*
X250577428Y-151014162D01*
X250707662Y-150883928D01*
X250809986Y-150730789D01*
X250880468Y-150560629D01*
X250916400Y-150379989D01*
X250916400Y-150195811D01*
X250880468Y-150015171D01*
X250809986Y-149845011D01*
X250707662Y-149691872D01*
X250610244Y-149594454D01*
X250744628Y-149504662D01*
X250874862Y-149374428D01*
X250977186Y-149221289D01*
X251047668Y-149051129D01*
X251083600Y-148870489D01*
X251083600Y-148686311D01*
X251047668Y-148505671D01*
X250977186Y-148335511D01*
X250874862Y-148182372D01*
X250744628Y-148052138D01*
X250591489Y-147949814D01*
X250421329Y-147879332D01*
X250240689Y-147843400D01*
X250056511Y-147843400D01*
X249875871Y-147879332D01*
X249793485Y-147913457D01*
X249785489Y-147908114D01*
X249615329Y-147837632D01*
X249434689Y-147801700D01*
X249250511Y-147801700D01*
X249069871Y-147837632D01*
X248899711Y-147908114D01*
X248808889Y-147968799D01*
X248793128Y-147953038D01*
X248639989Y-147850714D01*
X248469829Y-147780232D01*
X248289189Y-147744300D01*
X248105011Y-147744300D01*
X247924371Y-147780232D01*
X247754211Y-147850714D01*
X247601072Y-147953038D01*
X247470838Y-148083272D01*
X247368514Y-148236411D01*
X247340715Y-148303525D01*
X247260928Y-148223738D01*
X247107789Y-148121414D01*
X246937629Y-148050932D01*
X246756989Y-148015000D01*
X246572811Y-148015000D01*
X246392171Y-148050932D01*
X246222011Y-148121414D01*
X246068872Y-148223738D01*
X245938638Y-148353972D01*
X245836314Y-148507111D01*
X245765832Y-148677271D01*
X245729900Y-148857911D01*
X245373203Y-148857911D01*
X245337768Y-148679771D01*
X245267286Y-148509611D01*
X245164962Y-148356472D01*
X245034728Y-148226238D01*
X244881589Y-148123914D01*
X244711429Y-148053432D01*
X244530789Y-148017500D01*
X244346611Y-148017500D01*
X244165971Y-148053432D01*
X243995811Y-148123914D01*
X243842672Y-148226238D01*
X243712438Y-148356472D01*
X243610114Y-148509611D01*
X243539632Y-148679771D01*
X243503700Y-148860411D01*
X234971166Y-148860411D01*
X235001080Y-148710029D01*
X235001080Y-148525851D01*
X234965148Y-148345211D01*
X234894666Y-148175051D01*
X234792342Y-148021912D01*
X234662108Y-147891678D01*
X234508969Y-147789354D01*
X234338809Y-147718872D01*
X234158169Y-147682940D01*
X233973991Y-147682940D01*
X233793351Y-147718872D01*
X233623191Y-147789354D01*
X233470052Y-147891678D01*
X233339818Y-148021912D01*
X233237494Y-148175051D01*
X233167012Y-148345211D01*
X233131080Y-148525851D01*
X225638163Y-148525851D01*
X225607788Y-148373151D01*
X225537306Y-148202991D01*
X225434982Y-148049852D01*
X225304748Y-147919618D01*
X225151609Y-147817294D01*
X224981449Y-147746812D01*
X224800809Y-147710880D01*
X224616631Y-147710880D01*
X224435991Y-147746812D01*
X224265831Y-147817294D01*
X224112692Y-147919618D01*
X223982458Y-148049852D01*
X223880134Y-148202991D01*
X223809652Y-148373151D01*
X223773720Y-148553791D01*
X219968752Y-148553791D01*
X219961282Y-148542612D01*
X219831048Y-148412378D01*
X219677909Y-148310054D01*
X219507749Y-148239572D01*
X219327109Y-148203640D01*
X219142931Y-148203640D01*
X218962291Y-148239572D01*
X218792131Y-148310054D01*
X218638992Y-148412378D01*
X218508758Y-148542612D01*
X218406434Y-148695751D01*
X218335952Y-148865911D01*
X218300020Y-149046551D01*
X215968490Y-149046551D01*
X215999068Y-148972729D01*
X216035000Y-148792089D01*
X216035000Y-148607911D01*
X215999068Y-148427271D01*
X215928586Y-148257111D01*
X215826262Y-148103972D01*
X215696028Y-147973738D01*
X215542889Y-147871414D01*
X215372729Y-147800932D01*
X215192089Y-147765000D01*
X215007911Y-147765000D01*
X214827271Y-147800932D01*
X214657111Y-147871414D01*
X214635000Y-147886188D01*
X214635000Y-147107911D01*
X215565000Y-147107911D01*
X215565000Y-147292089D01*
X215600932Y-147472729D01*
X215671414Y-147642889D01*
X215773738Y-147796028D01*
X215903972Y-147926262D01*
X216057111Y-148028586D01*
X216227271Y-148099068D01*
X216407911Y-148135000D01*
X216592089Y-148135000D01*
X216772729Y-148099068D01*
X216942889Y-148028586D01*
X217096028Y-147926262D01*
X217226262Y-147796028D01*
X217328586Y-147642889D01*
X217399068Y-147472729D01*
X217435000Y-147292089D01*
X217435000Y-147107911D01*
X217399068Y-146927271D01*
X217328586Y-146757111D01*
X217226262Y-146603972D01*
X217096028Y-146473738D01*
X216942889Y-146371414D01*
X216772729Y-146300932D01*
X216592089Y-146265000D01*
X216407911Y-146265000D01*
X216227271Y-146300932D01*
X216057111Y-146371414D01*
X215903972Y-146473738D01*
X215773738Y-146603972D01*
X215671414Y-146757111D01*
X215600932Y-146927271D01*
X215565000Y-147107911D01*
X214635000Y-147107911D01*
X214635000Y-146563812D01*
X214657111Y-146578586D01*
X214827271Y-146649068D01*
X215007911Y-146685000D01*
X215192089Y-146685000D01*
X215372729Y-146649068D01*
X215542889Y-146578586D01*
X215696028Y-146476262D01*
X215826262Y-146346028D01*
X215928586Y-146192889D01*
X215999068Y-146022729D01*
X216035000Y-145842089D01*
X216035000Y-145657911D01*
X215999068Y-145477271D01*
X215928586Y-145307111D01*
X215826262Y-145153972D01*
X215710721Y-145038431D01*
X218226360Y-145038431D01*
X218226360Y-145222609D01*
X218262292Y-145403249D01*
X218332774Y-145573409D01*
X218435098Y-145726548D01*
X218565332Y-145856782D01*
X218718471Y-145959106D01*
X218888631Y-146029588D01*
X219069271Y-146065520D01*
X219253449Y-146065520D01*
X219434089Y-146029588D01*
X219459962Y-146018871D01*
X238378720Y-146018871D01*
X238378720Y-146203049D01*
X238414652Y-146383689D01*
X238485134Y-146553849D01*
X238587458Y-146706988D01*
X238717692Y-146837222D01*
X238870831Y-146939546D01*
X239040991Y-147010028D01*
X239221631Y-147045960D01*
X239405809Y-147045960D01*
X239586449Y-147010028D01*
X239756609Y-146939546D01*
X239909748Y-146837222D01*
X240039982Y-146706988D01*
X240094289Y-146625711D01*
X253638600Y-146625711D01*
X253638600Y-146809889D01*
X253674532Y-146990529D01*
X253745014Y-147160689D01*
X253847338Y-147313828D01*
X253977572Y-147444062D01*
X254130711Y-147546386D01*
X254300871Y-147616868D01*
X254481511Y-147652800D01*
X254665689Y-147652800D01*
X254846329Y-147616868D01*
X255016489Y-147546386D01*
X255169628Y-147444062D01*
X255299862Y-147313828D01*
X255402186Y-147160689D01*
X255472668Y-146990529D01*
X255508600Y-146809889D01*
X255508600Y-146625711D01*
X255478661Y-146475201D01*
X255572438Y-146615548D01*
X255702672Y-146745782D01*
X255855811Y-146848106D01*
X256025971Y-146918588D01*
X256206611Y-146954520D01*
X256390789Y-146954520D01*
X256571429Y-146918588D01*
X256741589Y-146848106D01*
X256894728Y-146745782D01*
X257024962Y-146615548D01*
X257127286Y-146462409D01*
X257197768Y-146292249D01*
X257233700Y-146111609D01*
X257233700Y-145927431D01*
X257197768Y-145746791D01*
X257127286Y-145576631D01*
X257024962Y-145423492D01*
X256894728Y-145293258D01*
X256741589Y-145190934D01*
X256571429Y-145120452D01*
X256390789Y-145084520D01*
X256206611Y-145084520D01*
X256025971Y-145120452D01*
X255855811Y-145190934D01*
X255702672Y-145293258D01*
X255572438Y-145423492D01*
X255470114Y-145576631D01*
X255399632Y-145746791D01*
X255363700Y-145927431D01*
X255363700Y-146111609D01*
X255393639Y-146262119D01*
X255299862Y-146121772D01*
X255169628Y-145991538D01*
X255016489Y-145889214D01*
X254846329Y-145818732D01*
X254665689Y-145782800D01*
X254481511Y-145782800D01*
X254300871Y-145818732D01*
X254130711Y-145889214D01*
X253977572Y-145991538D01*
X253847338Y-146121772D01*
X253745014Y-146274911D01*
X253674532Y-146445071D01*
X253638600Y-146625711D01*
X240094289Y-146625711D01*
X240142306Y-146553849D01*
X240212788Y-146383689D01*
X240248720Y-146203049D01*
X240248720Y-146018871D01*
X240212788Y-145838231D01*
X240142306Y-145668071D01*
X240039982Y-145514932D01*
X239909748Y-145384698D01*
X239756609Y-145282374D01*
X239586449Y-145211892D01*
X239405809Y-145175960D01*
X239221631Y-145175960D01*
X239040991Y-145211892D01*
X238870831Y-145282374D01*
X238717692Y-145384698D01*
X238587458Y-145514932D01*
X238485134Y-145668071D01*
X238414652Y-145838231D01*
X238378720Y-146018871D01*
X219459962Y-146018871D01*
X219604249Y-145959106D01*
X219757388Y-145856782D01*
X219887622Y-145726548D01*
X219989946Y-145573409D01*
X220060428Y-145403249D01*
X220096360Y-145222609D01*
X220096360Y-145038431D01*
X220060428Y-144857791D01*
X219989946Y-144687631D01*
X219887622Y-144534492D01*
X219757388Y-144404258D01*
X219729541Y-144385651D01*
X243077720Y-144385651D01*
X243077720Y-144569829D01*
X243113652Y-144750469D01*
X243184134Y-144920629D01*
X243286458Y-145073768D01*
X243416692Y-145204002D01*
X243569831Y-145306326D01*
X243739991Y-145376808D01*
X243920631Y-145412740D01*
X244104809Y-145412740D01*
X244285449Y-145376808D01*
X244455609Y-145306326D01*
X244608748Y-145204002D01*
X244738982Y-145073768D01*
X244841306Y-144920629D01*
X244911788Y-144750469D01*
X244947720Y-144569829D01*
X244947720Y-144385651D01*
X244911788Y-144205011D01*
X244841306Y-144034851D01*
X244738982Y-143881712D01*
X244719281Y-143862011D01*
X247520500Y-143862011D01*
X247520500Y-144046189D01*
X247556432Y-144226829D01*
X247626914Y-144396989D01*
X247729238Y-144550128D01*
X247859472Y-144680362D01*
X248012611Y-144782686D01*
X248182771Y-144853168D01*
X248363411Y-144889100D01*
X248547589Y-144889100D01*
X248728229Y-144853168D01*
X248898389Y-144782686D01*
X249051528Y-144680362D01*
X249181762Y-144550128D01*
X249284086Y-144396989D01*
X249354568Y-144226829D01*
X249390500Y-144046189D01*
X249390500Y-143862011D01*
X249354568Y-143681371D01*
X249284086Y-143511211D01*
X249181762Y-143358072D01*
X249051528Y-143227838D01*
X248898389Y-143125514D01*
X248728229Y-143055032D01*
X248547589Y-143019100D01*
X248363411Y-143019100D01*
X248182771Y-143055032D01*
X248012611Y-143125514D01*
X247859472Y-143227838D01*
X247729238Y-143358072D01*
X247626914Y-143511211D01*
X247556432Y-143681371D01*
X247520500Y-143862011D01*
X244719281Y-143862011D01*
X244608748Y-143751478D01*
X244455609Y-143649154D01*
X244285449Y-143578672D01*
X244104809Y-143542740D01*
X243920631Y-143542740D01*
X243739991Y-143578672D01*
X243569831Y-143649154D01*
X243416692Y-143751478D01*
X243286458Y-143881712D01*
X243184134Y-144034851D01*
X243113652Y-144205011D01*
X243077720Y-144385651D01*
X219729541Y-144385651D01*
X219604249Y-144301934D01*
X219434089Y-144231452D01*
X219253449Y-144195520D01*
X219069271Y-144195520D01*
X218888631Y-144231452D01*
X218718471Y-144301934D01*
X218565332Y-144404258D01*
X218435098Y-144534492D01*
X218332774Y-144687631D01*
X218262292Y-144857791D01*
X218226360Y-145038431D01*
X215710721Y-145038431D01*
X215696028Y-145023738D01*
X215542889Y-144921414D01*
X215372729Y-144850932D01*
X215192089Y-144815000D01*
X215007911Y-144815000D01*
X214827271Y-144850932D01*
X214657111Y-144921414D01*
X214635000Y-144936188D01*
X214635000Y-143270591D01*
X222135420Y-143270591D01*
X222135420Y-143454769D01*
X222171352Y-143635409D01*
X222241834Y-143805569D01*
X222344158Y-143958708D01*
X222474392Y-144088942D01*
X222627531Y-144191266D01*
X222797691Y-144261748D01*
X222978331Y-144297680D01*
X223162509Y-144297680D01*
X223343149Y-144261748D01*
X223513309Y-144191266D01*
X223666448Y-144088942D01*
X223796682Y-143958708D01*
X223899006Y-143805569D01*
X223969488Y-143635409D01*
X224005420Y-143454769D01*
X224005420Y-143270591D01*
X223969488Y-143089951D01*
X223899006Y-142919791D01*
X223796682Y-142766652D01*
X223666448Y-142636418D01*
X223513309Y-142534094D01*
X223343149Y-142463612D01*
X223162509Y-142427680D01*
X222978331Y-142427680D01*
X222797691Y-142463612D01*
X222627531Y-142534094D01*
X222474392Y-142636418D01*
X222344158Y-142766652D01*
X222241834Y-142919791D01*
X222171352Y-143089951D01*
X222135420Y-143270591D01*
X214635000Y-143270591D01*
X214635000Y-142036151D01*
X218226360Y-142036151D01*
X218226360Y-142220329D01*
X218262292Y-142400969D01*
X218332774Y-142571129D01*
X218435098Y-142724268D01*
X218565332Y-142854502D01*
X218718471Y-142956826D01*
X218888631Y-143027308D01*
X219069271Y-143063240D01*
X219253449Y-143063240D01*
X219434089Y-143027308D01*
X219604249Y-142956826D01*
X219757388Y-142854502D01*
X219887622Y-142724268D01*
X219989946Y-142571129D01*
X220060428Y-142400969D01*
X220096360Y-142220329D01*
X220096360Y-142036151D01*
X220060428Y-141855511D01*
X220033198Y-141789771D01*
X240304040Y-141789771D01*
X240304040Y-141973949D01*
X240339972Y-142154589D01*
X240410454Y-142324749D01*
X240512778Y-142477888D01*
X240643012Y-142608122D01*
X240796151Y-142710446D01*
X240966311Y-142780928D01*
X241146951Y-142816860D01*
X241331129Y-142816860D01*
X241511769Y-142780928D01*
X241681929Y-142710446D01*
X241835068Y-142608122D01*
X241965302Y-142477888D01*
X242067626Y-142324749D01*
X242138108Y-142154589D01*
X242174040Y-141973949D01*
X242174040Y-141789771D01*
X242138108Y-141609131D01*
X242067626Y-141438971D01*
X241965302Y-141285832D01*
X241953621Y-141274151D01*
X243110740Y-141274151D01*
X243110740Y-141458329D01*
X243146672Y-141638969D01*
X243217154Y-141809129D01*
X243319478Y-141962268D01*
X243449712Y-142092502D01*
X243602851Y-142194826D01*
X243773011Y-142265308D01*
X243953651Y-142301240D01*
X244137829Y-142301240D01*
X244318469Y-142265308D01*
X244488629Y-142194826D01*
X244641768Y-142092502D01*
X244772002Y-141962268D01*
X244874326Y-141809129D01*
X244944808Y-141638969D01*
X244980740Y-141458329D01*
X244980740Y-141274151D01*
X244944808Y-141093511D01*
X244874326Y-140923351D01*
X244772002Y-140770212D01*
X244641768Y-140639978D01*
X244488629Y-140537654D01*
X244318469Y-140467172D01*
X244137829Y-140431240D01*
X243953651Y-140431240D01*
X243773011Y-140467172D01*
X243602851Y-140537654D01*
X243449712Y-140639978D01*
X243319478Y-140770212D01*
X243217154Y-140923351D01*
X243146672Y-141093511D01*
X243110740Y-141274151D01*
X241953621Y-141274151D01*
X241835068Y-141155598D01*
X241681929Y-141053274D01*
X241511769Y-140982792D01*
X241331129Y-140946860D01*
X241146951Y-140946860D01*
X240966311Y-140982792D01*
X240796151Y-141053274D01*
X240643012Y-141155598D01*
X240512778Y-141285832D01*
X240410454Y-141438971D01*
X240339972Y-141609131D01*
X240304040Y-141789771D01*
X220033198Y-141789771D01*
X219989946Y-141685351D01*
X219887622Y-141532212D01*
X219757388Y-141401978D01*
X219604249Y-141299654D01*
X219434089Y-141229172D01*
X219253449Y-141193240D01*
X219069271Y-141193240D01*
X218888631Y-141229172D01*
X218718471Y-141299654D01*
X218565332Y-141401978D01*
X218435098Y-141532212D01*
X218332774Y-141685351D01*
X218262292Y-141855511D01*
X218226360Y-142036151D01*
X214635000Y-142036151D01*
X214635000Y-140735671D01*
X222574840Y-140735671D01*
X222574840Y-140919849D01*
X222610772Y-141100489D01*
X222681254Y-141270649D01*
X222783578Y-141423788D01*
X222913812Y-141554022D01*
X223066951Y-141656346D01*
X223237111Y-141726828D01*
X223417751Y-141762760D01*
X223601929Y-141762760D01*
X223782569Y-141726828D01*
X223952729Y-141656346D01*
X224105868Y-141554022D01*
X224236102Y-141423788D01*
X224338426Y-141270649D01*
X224408908Y-141100489D01*
X224444840Y-140919849D01*
X224444840Y-140735671D01*
X224408908Y-140555031D01*
X224338426Y-140384871D01*
X224288340Y-140309911D01*
X245508300Y-140309911D01*
X245508300Y-140494089D01*
X245544232Y-140674729D01*
X245614714Y-140844889D01*
X245717038Y-140998028D01*
X245847272Y-141128262D01*
X246000411Y-141230586D01*
X246170571Y-141301068D01*
X246351211Y-141337000D01*
X246535389Y-141337000D01*
X246716029Y-141301068D01*
X246886189Y-141230586D01*
X247039328Y-141128262D01*
X247169562Y-140998028D01*
X247271886Y-140844889D01*
X247342368Y-140674729D01*
X247370438Y-140533611D01*
X250883100Y-140533611D01*
X250883100Y-140717789D01*
X250919032Y-140898429D01*
X250989514Y-141068589D01*
X251091838Y-141221728D01*
X251222072Y-141351962D01*
X251375211Y-141454286D01*
X251545371Y-141524768D01*
X251726011Y-141560700D01*
X251910189Y-141560700D01*
X252090829Y-141524768D01*
X252260989Y-141454286D01*
X252414128Y-141351962D01*
X252528500Y-141237590D01*
X252528500Y-141380689D01*
X252564432Y-141561329D01*
X252634914Y-141731489D01*
X252737238Y-141884628D01*
X252867472Y-142014862D01*
X253020611Y-142117186D01*
X253190771Y-142187668D01*
X253371411Y-142223600D01*
X253555589Y-142223600D01*
X253563218Y-142222082D01*
X253544311Y-142229914D01*
X253391172Y-142332238D01*
X253260938Y-142462472D01*
X253158614Y-142615611D01*
X253088132Y-142785771D01*
X253052200Y-142966411D01*
X253052200Y-143150589D01*
X253088132Y-143331229D01*
X253120437Y-143409221D01*
X253077614Y-143473311D01*
X253007132Y-143643471D01*
X252971200Y-143824111D01*
X252971200Y-144008289D01*
X253007132Y-144188929D01*
X253077614Y-144359089D01*
X253179938Y-144512228D01*
X253310172Y-144642462D01*
X253463311Y-144744786D01*
X253633471Y-144815268D01*
X253814111Y-144851200D01*
X253998289Y-144851200D01*
X254178929Y-144815268D01*
X254349089Y-144744786D01*
X254502228Y-144642462D01*
X254632462Y-144512228D01*
X254734786Y-144359089D01*
X254805268Y-144188929D01*
X254841200Y-144008289D01*
X254841200Y-143824111D01*
X254805268Y-143643471D01*
X254772963Y-143565479D01*
X254815786Y-143501389D01*
X254886268Y-143331229D01*
X254922200Y-143150589D01*
X254922200Y-142966411D01*
X254886268Y-142785771D01*
X254815786Y-142615611D01*
X254713462Y-142462472D01*
X254583228Y-142332238D01*
X254430089Y-142229914D01*
X254259929Y-142159432D01*
X254079289Y-142123500D01*
X253895111Y-142123500D01*
X253887482Y-142125018D01*
X253906389Y-142117186D01*
X254059528Y-142014862D01*
X254189762Y-141884628D01*
X254292086Y-141731489D01*
X254362568Y-141561329D01*
X254398500Y-141380689D01*
X254398500Y-141196511D01*
X254362568Y-141015871D01*
X254292086Y-140845711D01*
X254189762Y-140692572D01*
X254059528Y-140562338D01*
X253906389Y-140460014D01*
X253736229Y-140389532D01*
X253555589Y-140353600D01*
X253371411Y-140353600D01*
X253190771Y-140389532D01*
X253020611Y-140460014D01*
X252867472Y-140562338D01*
X252753100Y-140676710D01*
X252753100Y-140533611D01*
X252717168Y-140352971D01*
X252646686Y-140182811D01*
X252544362Y-140029672D01*
X252414128Y-139899438D01*
X252260989Y-139797114D01*
X252090829Y-139726632D01*
X251910189Y-139690700D01*
X251726011Y-139690700D01*
X251545371Y-139726632D01*
X251375211Y-139797114D01*
X251222072Y-139899438D01*
X251091838Y-140029672D01*
X250989514Y-140182811D01*
X250919032Y-140352971D01*
X250883100Y-140533611D01*
X247370438Y-140533611D01*
X247378300Y-140494089D01*
X247378300Y-140309911D01*
X247342368Y-140129271D01*
X247271886Y-139959111D01*
X247169562Y-139805972D01*
X247039328Y-139675738D01*
X246886189Y-139573414D01*
X246716029Y-139502932D01*
X246535389Y-139467000D01*
X246351211Y-139467000D01*
X246170571Y-139502932D01*
X246000411Y-139573414D01*
X245847272Y-139675738D01*
X245717038Y-139805972D01*
X245614714Y-139959111D01*
X245544232Y-140129271D01*
X245508300Y-140309911D01*
X224288340Y-140309911D01*
X224236102Y-140231732D01*
X224105868Y-140101498D01*
X223952729Y-139999174D01*
X223782569Y-139928692D01*
X223601929Y-139892760D01*
X223417751Y-139892760D01*
X223237111Y-139928692D01*
X223066951Y-139999174D01*
X222913812Y-140101498D01*
X222783578Y-140231732D01*
X222681254Y-140384871D01*
X222610772Y-140555031D01*
X222574840Y-140735671D01*
X214635000Y-140735671D01*
X214635000Y-137210151D01*
X243288540Y-137210151D01*
X243288540Y-137394329D01*
X243324472Y-137574969D01*
X243394954Y-137745129D01*
X243497278Y-137898268D01*
X243627512Y-138028502D01*
X243780651Y-138130826D01*
X243950811Y-138201308D01*
X244131451Y-138237240D01*
X244315629Y-138237240D01*
X244496269Y-138201308D01*
X244666429Y-138130826D01*
X244819568Y-138028502D01*
X244949802Y-137898268D01*
X245006234Y-137813811D01*
X250306200Y-137813811D01*
X250306200Y-137997989D01*
X250342132Y-138178629D01*
X250412614Y-138348789D01*
X250514938Y-138501928D01*
X250645172Y-138632162D01*
X250798311Y-138734486D01*
X250968471Y-138804968D01*
X251047295Y-138820647D01*
X251110314Y-138972789D01*
X251212638Y-139125928D01*
X251342872Y-139256162D01*
X251496011Y-139358486D01*
X251666171Y-139428968D01*
X251846811Y-139464900D01*
X252030989Y-139464900D01*
X252211629Y-139428968D01*
X252381789Y-139358486D01*
X252534928Y-139256162D01*
X252665162Y-139125928D01*
X252767486Y-138972789D01*
X252837968Y-138802629D01*
X252873900Y-138621989D01*
X252873900Y-138437811D01*
X252837968Y-138257171D01*
X252767486Y-138087011D01*
X252665162Y-137933872D01*
X252534928Y-137803638D01*
X252381789Y-137701314D01*
X252211629Y-137630832D01*
X252132805Y-137615153D01*
X252069786Y-137463011D01*
X251967462Y-137309872D01*
X251837228Y-137179638D01*
X251684089Y-137077314D01*
X251513929Y-137006832D01*
X251333289Y-136970900D01*
X251149111Y-136970900D01*
X250968471Y-137006832D01*
X250798311Y-137077314D01*
X250645172Y-137179638D01*
X250514938Y-137309872D01*
X250412614Y-137463011D01*
X250342132Y-137633171D01*
X250306200Y-137813811D01*
X245006234Y-137813811D01*
X245052126Y-137745129D01*
X245122608Y-137574969D01*
X245158540Y-137394329D01*
X245158540Y-137210151D01*
X245122608Y-137029511D01*
X245052126Y-136859351D01*
X244949802Y-136706212D01*
X244899001Y-136655411D01*
X247649900Y-136655411D01*
X247649900Y-136839589D01*
X247685832Y-137020229D01*
X247756314Y-137190389D01*
X247858638Y-137343528D01*
X247988872Y-137473762D01*
X248142011Y-137576086D01*
X248312171Y-137646568D01*
X248492811Y-137682500D01*
X248676989Y-137682500D01*
X248857629Y-137646568D01*
X249027789Y-137576086D01*
X249180928Y-137473762D01*
X249311162Y-137343528D01*
X249413486Y-137190389D01*
X249483968Y-137020229D01*
X249519900Y-136839589D01*
X249519900Y-136703911D01*
X255351000Y-136703911D01*
X255351000Y-136888089D01*
X255386932Y-137068729D01*
X255457414Y-137238889D01*
X255559738Y-137392028D01*
X255689972Y-137522262D01*
X255843111Y-137624586D01*
X256013271Y-137695068D01*
X256193911Y-137731000D01*
X256378089Y-137731000D01*
X256558729Y-137695068D01*
X256728889Y-137624586D01*
X256882028Y-137522262D01*
X257012262Y-137392028D01*
X257114586Y-137238889D01*
X257185068Y-137068729D01*
X257221000Y-136888089D01*
X257221000Y-136703911D01*
X257185068Y-136523271D01*
X257114586Y-136353111D01*
X257012262Y-136199972D01*
X256882028Y-136069738D01*
X256728889Y-135967414D01*
X256558729Y-135896932D01*
X256378089Y-135861000D01*
X256193911Y-135861000D01*
X256013271Y-135896932D01*
X255843111Y-135967414D01*
X255689972Y-136069738D01*
X255559738Y-136199972D01*
X255457414Y-136353111D01*
X255386932Y-136523271D01*
X255351000Y-136703911D01*
X249519900Y-136703911D01*
X249519900Y-136655411D01*
X249483968Y-136474771D01*
X249413486Y-136304611D01*
X249311162Y-136151472D01*
X249180928Y-136021238D01*
X249027789Y-135918914D01*
X248857629Y-135848432D01*
X248676989Y-135812500D01*
X248492811Y-135812500D01*
X248312171Y-135848432D01*
X248142011Y-135918914D01*
X247988872Y-136021238D01*
X247858638Y-136151472D01*
X247756314Y-136304611D01*
X247685832Y-136474771D01*
X247649900Y-136655411D01*
X244899001Y-136655411D01*
X244819568Y-136575978D01*
X244666429Y-136473654D01*
X244533657Y-136418659D01*
X244675789Y-136359786D01*
X244828928Y-136257462D01*
X244959162Y-136127228D01*
X245061486Y-135974089D01*
X245131968Y-135803929D01*
X245167900Y-135623289D01*
X245167900Y-135439111D01*
X245131968Y-135258471D01*
X245061486Y-135088311D01*
X244959162Y-134935172D01*
X244828928Y-134804938D01*
X244675789Y-134702614D01*
X244505629Y-134632132D01*
X244324989Y-134596200D01*
X244140811Y-134596200D01*
X243960171Y-134632132D01*
X243790011Y-134702614D01*
X243636872Y-134804938D01*
X243506638Y-134935172D01*
X243404314Y-135088311D01*
X243333832Y-135258471D01*
X243297900Y-135439111D01*
X243297900Y-135623289D01*
X243333832Y-135803929D01*
X243404314Y-135974089D01*
X243506638Y-136127228D01*
X243636872Y-136257462D01*
X243790011Y-136359786D01*
X243922783Y-136414781D01*
X243780651Y-136473654D01*
X243627512Y-136575978D01*
X243497278Y-136706212D01*
X243394954Y-136859351D01*
X243324472Y-137029511D01*
X243288540Y-137210151D01*
X214635000Y-137210151D01*
X214635000Y-134894196D01*
X214671639Y-135078394D01*
X214813734Y-135421442D01*
X215020025Y-135730178D01*
X215282582Y-135992735D01*
X215591318Y-136199026D01*
X215934366Y-136341121D01*
X216298544Y-136413560D01*
X216669856Y-136413560D01*
X217034034Y-136341121D01*
X217377082Y-136199026D01*
X217685818Y-135992735D01*
X217948375Y-135730178D01*
X218154666Y-135421442D01*
X218296761Y-135078394D01*
X218369200Y-134714216D01*
X218369200Y-134342904D01*
X218296761Y-133978726D01*
X218154666Y-133635678D01*
X217948375Y-133326942D01*
X217685818Y-133064385D01*
X217377082Y-132858094D01*
X217034034Y-132715999D01*
X216669856Y-132643560D01*
X216403428Y-132643560D01*
X216532443Y-132630000D01*
X226169869Y-132630000D01*
X226089934Y-132749631D01*
X226089934Y-132749631D01*
G37*
X226089934Y-132749631D02*
X226019452Y-132919791D01*
X225983520Y-133100431D01*
X225983520Y-133284609D01*
X226019452Y-133465249D01*
X226089934Y-133635409D01*
X226192258Y-133788548D01*
X226322492Y-133918782D01*
X226475631Y-134021106D01*
X226645791Y-134091588D01*
X226826431Y-134127520D01*
X227010609Y-134127520D01*
X227191249Y-134091588D01*
X227361409Y-134021106D01*
X227514548Y-133918782D01*
X227644782Y-133788548D01*
X227747106Y-133635409D01*
X227817588Y-133465249D01*
X227853520Y-133284609D01*
X227853520Y-133100431D01*
X227817588Y-132919791D01*
X227747106Y-132749631D01*
X227667171Y-132630000D01*
X229016928Y-132630000D01*
X229016928Y-134073000D01*
X229029188Y-134197482D01*
X229065498Y-134317180D01*
X229124463Y-134427494D01*
X229203815Y-134524185D01*
X229300506Y-134603537D01*
X229410820Y-134662502D01*
X229530518Y-134698812D01*
X229655000Y-134711072D01*
X231355000Y-134711072D01*
X231479482Y-134698812D01*
X231599180Y-134662502D01*
X231709494Y-134603537D01*
X231806185Y-134524185D01*
X231885537Y-134427494D01*
X231944502Y-134317180D01*
X231965393Y-134248313D01*
X231989866Y-134278134D01*
X232215986Y-134463706D01*
X232473966Y-134601599D01*
X232753889Y-134686513D01*
X232972050Y-134708000D01*
X233117950Y-134708000D01*
X233336111Y-134686513D01*
X233616034Y-134601599D01*
X233874014Y-134463706D01*
X234100134Y-134278134D01*
X234285706Y-134052014D01*
X234315000Y-133997209D01*
X234344294Y-134052014D01*
X234529866Y-134278134D01*
X234755986Y-134463706D01*
X235013966Y-134601599D01*
X235293889Y-134686513D01*
X235512050Y-134708000D01*
X235657950Y-134708000D01*
X235876111Y-134686513D01*
X236156034Y-134601599D01*
X236414014Y-134463706D01*
X236640134Y-134278134D01*
X236825706Y-134052014D01*
X236855000Y-133997209D01*
X236884294Y-134052014D01*
X237069866Y-134278134D01*
X237295986Y-134463706D01*
X237516680Y-134581670D01*
X237424138Y-134674212D01*
X237321814Y-134827351D01*
X237251332Y-134997511D01*
X237215400Y-135178151D01*
X237215400Y-135362329D01*
X237251332Y-135542969D01*
X237321814Y-135713129D01*
X237424138Y-135866268D01*
X237554372Y-135996502D01*
X237707511Y-136098826D01*
X237877671Y-136169308D01*
X238058311Y-136205240D01*
X238242489Y-136205240D01*
X238423129Y-136169308D01*
X238593289Y-136098826D01*
X238746428Y-135996502D01*
X238876662Y-135866268D01*
X238978986Y-135713129D01*
X239049468Y-135542969D01*
X239085400Y-135362329D01*
X239085400Y-135178151D01*
X239049468Y-134997511D01*
X238978986Y-134827351D01*
X238876662Y-134674212D01*
X238766425Y-134563975D01*
X238954014Y-134463706D01*
X239180134Y-134278134D01*
X239365706Y-134052014D01*
X239395000Y-133997209D01*
X239424294Y-134052014D01*
X239609866Y-134278134D01*
X239835986Y-134463706D01*
X240093966Y-134601599D01*
X240373889Y-134686513D01*
X240592050Y-134708000D01*
X240737950Y-134708000D01*
X240956111Y-134686513D01*
X241236034Y-134601599D01*
X241494014Y-134463706D01*
X241720134Y-134278134D01*
X241905706Y-134052014D01*
X241935000Y-133997209D01*
X241964294Y-134052014D01*
X242149866Y-134278134D01*
X242375986Y-134463706D01*
X242633966Y-134601599D01*
X242913889Y-134686513D01*
X243132050Y-134708000D01*
X243277950Y-134708000D01*
X243496111Y-134686513D01*
X243776034Y-134601599D01*
X244034014Y-134463706D01*
X244260134Y-134278134D01*
X244445706Y-134052014D01*
X244475000Y-133997209D01*
X244504294Y-134052014D01*
X244689866Y-134278134D01*
X244915986Y-134463706D01*
X245173966Y-134601599D01*
X245453889Y-134686513D01*
X245672050Y-134708000D01*
X245817950Y-134708000D01*
X246036111Y-134686513D01*
X246316034Y-134601599D01*
X246574014Y-134463706D01*
X246800134Y-134278134D01*
X246985706Y-134052014D01*
X247015000Y-133997209D01*
X247044294Y-134052014D01*
X247229866Y-134278134D01*
X247455986Y-134463706D01*
X247713966Y-134601599D01*
X247993889Y-134686513D01*
X248212050Y-134708000D01*
X248357950Y-134708000D01*
X248576111Y-134686513D01*
X248856034Y-134601599D01*
X249114014Y-134463706D01*
X249340134Y-134278134D01*
X249525706Y-134052014D01*
X249555000Y-133997209D01*
X249584294Y-134052014D01*
X249769866Y-134278134D01*
X249995986Y-134463706D01*
X250253966Y-134601599D01*
X250533889Y-134686513D01*
X250752050Y-134708000D01*
X250897950Y-134708000D01*
X251116111Y-134686513D01*
X251396034Y-134601599D01*
X251654014Y-134463706D01*
X251880134Y-134278134D01*
X252065706Y-134052014D01*
X252095000Y-133997209D01*
X252124294Y-134052014D01*
X252309866Y-134278134D01*
X252535986Y-134463706D01*
X252793966Y-134601599D01*
X253073889Y-134686513D01*
X253292050Y-134708000D01*
X253437950Y-134708000D01*
X253656111Y-134686513D01*
X253936034Y-134601599D01*
X254194014Y-134463706D01*
X254420134Y-134278134D01*
X254605706Y-134052014D01*
X254635000Y-133997209D01*
X254664294Y-134052014D01*
X254849866Y-134278134D01*
X255075986Y-134463706D01*
X255333966Y-134601599D01*
X255613889Y-134686513D01*
X255832050Y-134708000D01*
X255977950Y-134708000D01*
X256196111Y-134686513D01*
X256476034Y-134601599D01*
X256734014Y-134463706D01*
X256960134Y-134278134D01*
X257145706Y-134052014D01*
X257175000Y-133997209D01*
X257204294Y-134052014D01*
X257389866Y-134278134D01*
X257615986Y-134463706D01*
X257873966Y-134601599D01*
X258153889Y-134686513D01*
X258273000Y-134698244D01*
X258273000Y-140858343D01*
X258230049Y-140840552D01*
X258049409Y-140804620D01*
X257865231Y-140804620D01*
X257684591Y-140840552D01*
X257514431Y-140911034D01*
X257361292Y-141013358D01*
X257231058Y-141143592D01*
X257128734Y-141296731D01*
X257112125Y-141336828D01*
X257012262Y-141187372D01*
X256882028Y-141057138D01*
X256728889Y-140954814D01*
X256558729Y-140884332D01*
X256378089Y-140848400D01*
X256193911Y-140848400D01*
X256013271Y-140884332D01*
X255843111Y-140954814D01*
X255689972Y-141057138D01*
X255559738Y-141187372D01*
X255457414Y-141340511D01*
X255386932Y-141510671D01*
X255351000Y-141691311D01*
X255351000Y-141875489D01*
X255386932Y-142056129D01*
X255457414Y-142226289D01*
X255559738Y-142379428D01*
X255689972Y-142509662D01*
X255843111Y-142611986D01*
X256013271Y-142682468D01*
X256193911Y-142718400D01*
X256378089Y-142718400D01*
X256558729Y-142682468D01*
X256728889Y-142611986D01*
X256882028Y-142509662D01*
X257012262Y-142379428D01*
X257114586Y-142226289D01*
X257131195Y-142186192D01*
X257231058Y-142335648D01*
X257361292Y-142465882D01*
X257514431Y-142568206D01*
X257684591Y-142638688D01*
X257865231Y-142674620D01*
X258049409Y-142674620D01*
X258230049Y-142638688D01*
X258273000Y-142620897D01*
X258273000Y-150769167D01*
X258212269Y-150744012D01*
X258031629Y-150708080D01*
X257847451Y-150708080D01*
X257666811Y-150744012D01*
X257496651Y-150814494D01*
X257343512Y-150916818D01*
X257213278Y-151047052D01*
X257110954Y-151200191D01*
X257040472Y-151370351D01*
X257004540Y-151550991D01*
X257004540Y-151735169D01*
X257040472Y-151915809D01*
X257110954Y-152085969D01*
X257189846Y-152204039D01*
X257143815Y-152241815D01*
X257064463Y-152338506D01*
X257005498Y-152448820D01*
X256984607Y-152517687D01*
X256960134Y-152487866D01*
X256734014Y-152302294D01*
X256476034Y-152164401D01*
X256196111Y-152079487D01*
X255977950Y-152058000D01*
X255832050Y-152058000D01*
X255613889Y-152079487D01*
X255333966Y-152164401D01*
X255075986Y-152302294D01*
X254849866Y-152487866D01*
X254664294Y-152713986D01*
X254635000Y-152768791D01*
X254605706Y-152713986D01*
X254420134Y-152487866D01*
X254359284Y-152437927D01*
X254529249Y-152367526D01*
X254682388Y-152265202D01*
X254812622Y-152134968D01*
X254914946Y-151981829D01*
X254985428Y-151811669D01*
X255021360Y-151631029D01*
X255021360Y-151446851D01*
X254985428Y-151266211D01*
X254914946Y-151096051D01*
X254812622Y-150942912D01*
X254682388Y-150812678D01*
X254529249Y-150710354D01*
X254359089Y-150639872D01*
X254178449Y-150603940D01*
X253994271Y-150603940D01*
X253813631Y-150639872D01*
X253643471Y-150710354D01*
X253490332Y-150812678D01*
X253360098Y-150942912D01*
X253257774Y-151096051D01*
X253187292Y-151266211D01*
X253151360Y-151446851D01*
X253151360Y-151631029D01*
X253187292Y-151811669D01*
X253257774Y-151981829D01*
X253308670Y-152058000D01*
X253292050Y-152058000D01*
X253073889Y-152079487D01*
X252793966Y-152164401D01*
X252535986Y-152302294D01*
X252309866Y-152487866D01*
X252124294Y-152713986D01*
X252095000Y-152768791D01*
X252065706Y-152713986D01*
X251880134Y-152487866D01*
X251654014Y-152302294D01*
X251396034Y-152164401D01*
X251116111Y-152079487D01*
X250897950Y-152058000D01*
X250752050Y-152058000D01*
X250533889Y-152079487D01*
X250253966Y-152164401D01*
X249995986Y-152302294D01*
X249769866Y-152487866D01*
X249584294Y-152713986D01*
X249555000Y-152768791D01*
X249525706Y-152713986D01*
X249340134Y-152487866D01*
X249114014Y-152302294D01*
X248856034Y-152164401D01*
X248576111Y-152079487D01*
X248357950Y-152058000D01*
X248212050Y-152058000D01*
X247993889Y-152079487D01*
X247713966Y-152164401D01*
X247455986Y-152302294D01*
X247229866Y-152487866D01*
X247044294Y-152713986D01*
X247015000Y-152768791D01*
X246985706Y-152713986D01*
X246800134Y-152487866D01*
X246574014Y-152302294D01*
X246316034Y-152164401D01*
X246036111Y-152079487D01*
X245817950Y-152058000D01*
X245672050Y-152058000D01*
X245453889Y-152079487D01*
X245173966Y-152164401D01*
X244915986Y-152302294D01*
X244689866Y-152487866D01*
X244504294Y-152713986D01*
X244475000Y-152768791D01*
X244445706Y-152713986D01*
X244260134Y-152487866D01*
X244034014Y-152302294D01*
X243776034Y-152164401D01*
X243496111Y-152079487D01*
X243277950Y-152058000D01*
X243132050Y-152058000D01*
X242913889Y-152079487D01*
X242633966Y-152164401D01*
X242375986Y-152302294D01*
X242149866Y-152487866D01*
X241964294Y-152713986D01*
X241935000Y-152768791D01*
X241905706Y-152713986D01*
X241720134Y-152487866D01*
X241494014Y-152302294D01*
X241236034Y-152164401D01*
X240956111Y-152079487D01*
X240737950Y-152058000D01*
X240592050Y-152058000D01*
X240373889Y-152079487D01*
X240093966Y-152164401D01*
X239835986Y-152302294D01*
X239609866Y-152487866D01*
X239424294Y-152713986D01*
X239395000Y-152768791D01*
X239365706Y-152713986D01*
X239180134Y-152487866D01*
X238954014Y-152302294D01*
X238696034Y-152164401D01*
X238416111Y-152079487D01*
X238197950Y-152058000D01*
X238052050Y-152058000D01*
X237833889Y-152079487D01*
X237553966Y-152164401D01*
X237295986Y-152302294D01*
X237069866Y-152487866D01*
X236884294Y-152713986D01*
X236855000Y-152768791D01*
X236825706Y-152713986D01*
X236640134Y-152487866D01*
X236414014Y-152302294D01*
X236156034Y-152164401D01*
X235876111Y-152079487D01*
X235657950Y-152058000D01*
X235512050Y-152058000D01*
X235293889Y-152079487D01*
X235013966Y-152164401D01*
X234755986Y-152302294D01*
X234529866Y-152487866D01*
X234344294Y-152713986D01*
X234315000Y-152768791D01*
X234285706Y-152713986D01*
X234100134Y-152487866D01*
X233874014Y-152302294D01*
X233616034Y-152164401D01*
X233336111Y-152079487D01*
X233117950Y-152058000D01*
X232972050Y-152058000D01*
X232753889Y-152079487D01*
X232473966Y-152164401D01*
X232215986Y-152302294D01*
X231989866Y-152487866D01*
X231804294Y-152713986D01*
X231775000Y-152768791D01*
X231745706Y-152713986D01*
X231560134Y-152487866D01*
X231334014Y-152302294D01*
X231076034Y-152164401D01*
X230796111Y-152079487D01*
X230577950Y-152058000D01*
X230432050Y-152058000D01*
X230213889Y-152079487D01*
X229933966Y-152164401D01*
X229675986Y-152302294D01*
X229449866Y-152487866D01*
X229264294Y-152713986D01*
X229235000Y-152768791D01*
X229205706Y-152713986D01*
X229020134Y-152487866D01*
X228794014Y-152302294D01*
X228536034Y-152164401D01*
X228256111Y-152079487D01*
X228037950Y-152058000D01*
X227892050Y-152058000D01*
X227673889Y-152079487D01*
X227393966Y-152164401D01*
X227135986Y-152302294D01*
X226909866Y-152487866D01*
X226724294Y-152713986D01*
X226695000Y-152768791D01*
X226665706Y-152713986D01*
X226480134Y-152487866D01*
X226254014Y-152302294D01*
X225996034Y-152164401D01*
X225716111Y-152079487D01*
X225497950Y-152058000D01*
X225352050Y-152058000D01*
X225133889Y-152079487D01*
X224853966Y-152164401D01*
X224595986Y-152302294D01*
X224369866Y-152487866D01*
X224184294Y-152713986D01*
X224149799Y-152778523D01*
X224080178Y-152661645D01*
X223885269Y-152445412D01*
X223651920Y-152271359D01*
X223389099Y-152146175D01*
X223241890Y-152101524D01*
X223012000Y-152222845D01*
X223012000Y-153416000D01*
X223032000Y-153416000D01*
X223032000Y-153670000D01*
X223012000Y-153670000D01*
X223012000Y-153690000D01*
X222758000Y-153690000D01*
X222758000Y-153670000D01*
X222738000Y-153670000D01*
X222738000Y-153416000D01*
X222758000Y-153416000D01*
X222758000Y-152222845D01*
X222528110Y-152101524D01*
X222380901Y-152146175D01*
X222118080Y-152271359D01*
X221884731Y-152445412D01*
X221689822Y-152661645D01*
X221620201Y-152778523D01*
X221585706Y-152713986D01*
X221400134Y-152487866D01*
X221174014Y-152302294D01*
X220916034Y-152164401D01*
X220636111Y-152079487D01*
X220417950Y-152058000D01*
X220272050Y-152058000D01*
X220053889Y-152079487D01*
X219773966Y-152164401D01*
X219515986Y-152302294D01*
X219289866Y-152487866D01*
X219104294Y-152713986D01*
X218966401Y-152971966D01*
X218881487Y-153251889D01*
X218852815Y-153543000D01*
X218881487Y-153834111D01*
X218966401Y-154114034D01*
X218996315Y-154170000D01*
X216547279Y-154170000D01*
X216502608Y-154165620D01*
X216720656Y-154165620D01*
X217084834Y-154093181D01*
X217427882Y-153951086D01*
X217736618Y-153744795D01*
X217999175Y-153482238D01*
X218205466Y-153173502D01*
X218347561Y-152830454D01*
X218420000Y-152466276D01*
X218420000Y-152094964D01*
X218347561Y-151730786D01*
X218205466Y-151387738D01*
X217999175Y-151079002D01*
X217736618Y-150816445D01*
X217515369Y-150668611D01*
X220604000Y-150668611D01*
X220604000Y-150852789D01*
X220639932Y-151033429D01*
X220710414Y-151203589D01*
X220812738Y-151356728D01*
X220942972Y-151486962D01*
X221096111Y-151589286D01*
X221266271Y-151659768D01*
X221446911Y-151695700D01*
X221631089Y-151695700D01*
X221811729Y-151659768D01*
X221981889Y-151589286D01*
X222135028Y-151486962D01*
X222265262Y-151356728D01*
X222367586Y-151203589D01*
X222438068Y-151033429D01*
X222474000Y-150852789D01*
X222474000Y-150668611D01*
X222438068Y-150487971D01*
X222425617Y-150457911D01*
X242265000Y-150457911D01*
X242265000Y-150642089D01*
X242300932Y-150822729D01*
X242371414Y-150992889D01*
X242473738Y-151146028D01*
X242603972Y-151276262D01*
X242757111Y-151378586D01*
X242927271Y-151449068D01*
X243107911Y-151485000D01*
X243292089Y-151485000D01*
X243472729Y-151449068D01*
X243642889Y-151378586D01*
X243796028Y-151276262D01*
X243926262Y-151146028D01*
X244028586Y-150992889D01*
X244099068Y-150822729D01*
X244135000Y-150642089D01*
X244135000Y-150457911D01*
X244099068Y-150277271D01*
X244028586Y-150107111D01*
X243926262Y-149953972D01*
X243796028Y-149823738D01*
X243642889Y-149721414D01*
X243472729Y-149650932D01*
X243292089Y-149615000D01*
X243107911Y-149615000D01*
X242927271Y-149650932D01*
X242757111Y-149721414D01*
X242603972Y-149823738D01*
X242473738Y-149953972D01*
X242371414Y-150107111D01*
X242300932Y-150277271D01*
X242265000Y-150457911D01*
X222425617Y-150457911D01*
X222367586Y-150317811D01*
X222265262Y-150164672D01*
X222135028Y-150034438D01*
X221981889Y-149932114D01*
X221811729Y-149861632D01*
X221631089Y-149825700D01*
X221446911Y-149825700D01*
X221266271Y-149861632D01*
X221096111Y-149932114D01*
X220942972Y-150034438D01*
X220812738Y-150164672D01*
X220710414Y-150317811D01*
X220639932Y-150487971D01*
X220604000Y-150668611D01*
X217515369Y-150668611D01*
X217427882Y-150610154D01*
X217084834Y-150468059D01*
X216720656Y-150395620D01*
X216349344Y-150395620D01*
X215985166Y-150468059D01*
X215642118Y-150610154D01*
X215333382Y-150816445D01*
X215070825Y-151079002D01*
X214864534Y-151387738D01*
X214722439Y-151730786D01*
X214650000Y-152094964D01*
X214650000Y-152415273D01*
X214635000Y-152272557D01*
X214635000Y-149513812D01*
X214657111Y-149528586D01*
X214827271Y-149599068D01*
X215007911Y-149635000D01*
X215192089Y-149635000D01*
X215372729Y-149599068D01*
X215542889Y-149528586D01*
X215696028Y-149426262D01*
X215826262Y-149296028D01*
X215928586Y-149142889D01*
X215968490Y-149046551D01*
X218300020Y-149046551D01*
X218300020Y-149230729D01*
X218335952Y-149411369D01*
X218406434Y-149581529D01*
X218508758Y-149734668D01*
X218638992Y-149864902D01*
X218792131Y-149967226D01*
X218962291Y-150037708D01*
X219142931Y-150073640D01*
X219327109Y-150073640D01*
X219507749Y-150037708D01*
X219677909Y-149967226D01*
X219831048Y-149864902D01*
X219961282Y-149734668D01*
X220063606Y-149581529D01*
X220134088Y-149411369D01*
X220170020Y-149230729D01*
X220170020Y-149046551D01*
X220134088Y-148865911D01*
X220063606Y-148695751D01*
X219968752Y-148553791D01*
X223773720Y-148553791D01*
X223773720Y-148737969D01*
X223809652Y-148918609D01*
X223880134Y-149088769D01*
X223982458Y-149241908D01*
X224112692Y-149372142D01*
X224265831Y-149474466D01*
X224435991Y-149544948D01*
X224616631Y-149580880D01*
X224800809Y-149580880D01*
X224981449Y-149544948D01*
X225151609Y-149474466D01*
X225304748Y-149372142D01*
X225434982Y-149241908D01*
X225537306Y-149088769D01*
X225607788Y-148918609D01*
X225643720Y-148737969D01*
X225643720Y-148553791D01*
X225638163Y-148525851D01*
X233131080Y-148525851D01*
X233131080Y-148710029D01*
X233167012Y-148890669D01*
X233237494Y-149060829D01*
X233339818Y-149213968D01*
X233470052Y-149344202D01*
X233623191Y-149446526D01*
X233793351Y-149517008D01*
X233973991Y-149552940D01*
X234158169Y-149552940D01*
X234338809Y-149517008D01*
X234508969Y-149446526D01*
X234662108Y-149344202D01*
X234792342Y-149213968D01*
X234894666Y-149060829D01*
X234965148Y-148890669D01*
X234971166Y-148860411D01*
X243503700Y-148860411D01*
X243503700Y-149044589D01*
X243539632Y-149225229D01*
X243610114Y-149395389D01*
X243712438Y-149548528D01*
X243842672Y-149678762D01*
X243995811Y-149781086D01*
X244165971Y-149851568D01*
X244346611Y-149887500D01*
X244530789Y-149887500D01*
X244711429Y-149851568D01*
X244881589Y-149781086D01*
X245034728Y-149678762D01*
X245164962Y-149548528D01*
X245267286Y-149395389D01*
X245337768Y-149225229D01*
X245373700Y-149044589D01*
X245373700Y-148860411D01*
X245373203Y-148857911D01*
X245729900Y-148857911D01*
X245729900Y-149042089D01*
X245765832Y-149222729D01*
X245836314Y-149392889D01*
X245938638Y-149546028D01*
X246068872Y-149676262D01*
X246222011Y-149778586D01*
X246392171Y-149849068D01*
X246572811Y-149885000D01*
X246756989Y-149885000D01*
X246937629Y-149849068D01*
X247107789Y-149778586D01*
X247260928Y-149676262D01*
X247391162Y-149546028D01*
X247493486Y-149392889D01*
X247521285Y-149325775D01*
X247601072Y-149405562D01*
X247754211Y-149507886D01*
X247924371Y-149578368D01*
X248105011Y-149614300D01*
X248289189Y-149614300D01*
X248469829Y-149578368D01*
X248639989Y-149507886D01*
X248730811Y-149447201D01*
X248746572Y-149462962D01*
X248899711Y-149565286D01*
X249069871Y-149635768D01*
X249250511Y-149671700D01*
X249275310Y-149671700D01*
X249255138Y-149691872D01*
X249152814Y-149845011D01*
X249082332Y-150015171D01*
X249046400Y-150195811D01*
X249046400Y-150379989D01*
X249082332Y-150560629D01*
X249152814Y-150730789D01*
X249255138Y-150883928D01*
X249385372Y-151014162D01*
X249538511Y-151116486D01*
X249708671Y-151186968D01*
X249889311Y-151222900D01*
X250073489Y-151222900D01*
X250254129Y-151186968D01*
X250424289Y-151116486D01*
X250577428Y-151014162D01*
X250707662Y-150883928D01*
X250809986Y-150730789D01*
X250880468Y-150560629D01*
X250916400Y-150379989D01*
X250916400Y-150195811D01*
X250880468Y-150015171D01*
X250809986Y-149845011D01*
X250707662Y-149691872D01*
X250610244Y-149594454D01*
X250744628Y-149504662D01*
X250874862Y-149374428D01*
X250977186Y-149221289D01*
X251047668Y-149051129D01*
X251083600Y-148870489D01*
X251083600Y-148686311D01*
X251047668Y-148505671D01*
X250977186Y-148335511D01*
X250874862Y-148182372D01*
X250744628Y-148052138D01*
X250591489Y-147949814D01*
X250421329Y-147879332D01*
X250240689Y-147843400D01*
X250056511Y-147843400D01*
X249875871Y-147879332D01*
X249793485Y-147913457D01*
X249785489Y-147908114D01*
X249615329Y-147837632D01*
X249434689Y-147801700D01*
X249250511Y-147801700D01*
X249069871Y-147837632D01*
X248899711Y-147908114D01*
X248808889Y-147968799D01*
X248793128Y-147953038D01*
X248639989Y-147850714D01*
X248469829Y-147780232D01*
X248289189Y-147744300D01*
X248105011Y-147744300D01*
X247924371Y-147780232D01*
X247754211Y-147850714D01*
X247601072Y-147953038D01*
X247470838Y-148083272D01*
X247368514Y-148236411D01*
X247340715Y-148303525D01*
X247260928Y-148223738D01*
X247107789Y-148121414D01*
X246937629Y-148050932D01*
X246756989Y-148015000D01*
X246572811Y-148015000D01*
X246392171Y-148050932D01*
X246222011Y-148121414D01*
X246068872Y-148223738D01*
X245938638Y-148353972D01*
X245836314Y-148507111D01*
X245765832Y-148677271D01*
X245729900Y-148857911D01*
X245373203Y-148857911D01*
X245337768Y-148679771D01*
X245267286Y-148509611D01*
X245164962Y-148356472D01*
X245034728Y-148226238D01*
X244881589Y-148123914D01*
X244711429Y-148053432D01*
X244530789Y-148017500D01*
X244346611Y-148017500D01*
X244165971Y-148053432D01*
X243995811Y-148123914D01*
X243842672Y-148226238D01*
X243712438Y-148356472D01*
X243610114Y-148509611D01*
X243539632Y-148679771D01*
X243503700Y-148860411D01*
X234971166Y-148860411D01*
X235001080Y-148710029D01*
X235001080Y-148525851D01*
X234965148Y-148345211D01*
X234894666Y-148175051D01*
X234792342Y-148021912D01*
X234662108Y-147891678D01*
X234508969Y-147789354D01*
X234338809Y-147718872D01*
X234158169Y-147682940D01*
X233973991Y-147682940D01*
X233793351Y-147718872D01*
X233623191Y-147789354D01*
X233470052Y-147891678D01*
X233339818Y-148021912D01*
X233237494Y-148175051D01*
X233167012Y-148345211D01*
X233131080Y-148525851D01*
X225638163Y-148525851D01*
X225607788Y-148373151D01*
X225537306Y-148202991D01*
X225434982Y-148049852D01*
X225304748Y-147919618D01*
X225151609Y-147817294D01*
X224981449Y-147746812D01*
X224800809Y-147710880D01*
X224616631Y-147710880D01*
X224435991Y-147746812D01*
X224265831Y-147817294D01*
X224112692Y-147919618D01*
X223982458Y-148049852D01*
X223880134Y-148202991D01*
X223809652Y-148373151D01*
X223773720Y-148553791D01*
X219968752Y-148553791D01*
X219961282Y-148542612D01*
X219831048Y-148412378D01*
X219677909Y-148310054D01*
X219507749Y-148239572D01*
X219327109Y-148203640D01*
X219142931Y-148203640D01*
X218962291Y-148239572D01*
X218792131Y-148310054D01*
X218638992Y-148412378D01*
X218508758Y-148542612D01*
X218406434Y-148695751D01*
X218335952Y-148865911D01*
X218300020Y-149046551D01*
X215968490Y-149046551D01*
X215999068Y-148972729D01*
X216035000Y-148792089D01*
X216035000Y-148607911D01*
X215999068Y-148427271D01*
X215928586Y-148257111D01*
X215826262Y-148103972D01*
X215696028Y-147973738D01*
X215542889Y-147871414D01*
X215372729Y-147800932D01*
X215192089Y-147765000D01*
X215007911Y-147765000D01*
X214827271Y-147800932D01*
X214657111Y-147871414D01*
X214635000Y-147886188D01*
X214635000Y-147107911D01*
X215565000Y-147107911D01*
X215565000Y-147292089D01*
X215600932Y-147472729D01*
X215671414Y-147642889D01*
X215773738Y-147796028D01*
X215903972Y-147926262D01*
X216057111Y-148028586D01*
X216227271Y-148099068D01*
X216407911Y-148135000D01*
X216592089Y-148135000D01*
X216772729Y-148099068D01*
X216942889Y-148028586D01*
X217096028Y-147926262D01*
X217226262Y-147796028D01*
X217328586Y-147642889D01*
X217399068Y-147472729D01*
X217435000Y-147292089D01*
X217435000Y-147107911D01*
X217399068Y-146927271D01*
X217328586Y-146757111D01*
X217226262Y-146603972D01*
X217096028Y-146473738D01*
X216942889Y-146371414D01*
X216772729Y-146300932D01*
X216592089Y-146265000D01*
X216407911Y-146265000D01*
X216227271Y-146300932D01*
X216057111Y-146371414D01*
X215903972Y-146473738D01*
X215773738Y-146603972D01*
X215671414Y-146757111D01*
X215600932Y-146927271D01*
X215565000Y-147107911D01*
X214635000Y-147107911D01*
X214635000Y-146563812D01*
X214657111Y-146578586D01*
X214827271Y-146649068D01*
X215007911Y-146685000D01*
X215192089Y-146685000D01*
X215372729Y-146649068D01*
X215542889Y-146578586D01*
X215696028Y-146476262D01*
X215826262Y-146346028D01*
X215928586Y-146192889D01*
X215999068Y-146022729D01*
X216035000Y-145842089D01*
X216035000Y-145657911D01*
X215999068Y-145477271D01*
X215928586Y-145307111D01*
X215826262Y-145153972D01*
X215710721Y-145038431D01*
X218226360Y-145038431D01*
X218226360Y-145222609D01*
X218262292Y-145403249D01*
X218332774Y-145573409D01*
X218435098Y-145726548D01*
X218565332Y-145856782D01*
X218718471Y-145959106D01*
X218888631Y-146029588D01*
X219069271Y-146065520D01*
X219253449Y-146065520D01*
X219434089Y-146029588D01*
X219459962Y-146018871D01*
X238378720Y-146018871D01*
X238378720Y-146203049D01*
X238414652Y-146383689D01*
X238485134Y-146553849D01*
X238587458Y-146706988D01*
X238717692Y-146837222D01*
X238870831Y-146939546D01*
X239040991Y-147010028D01*
X239221631Y-147045960D01*
X239405809Y-147045960D01*
X239586449Y-147010028D01*
X239756609Y-146939546D01*
X239909748Y-146837222D01*
X240039982Y-146706988D01*
X240094289Y-146625711D01*
X253638600Y-146625711D01*
X253638600Y-146809889D01*
X253674532Y-146990529D01*
X253745014Y-147160689D01*
X253847338Y-147313828D01*
X253977572Y-147444062D01*
X254130711Y-147546386D01*
X254300871Y-147616868D01*
X254481511Y-147652800D01*
X254665689Y-147652800D01*
X254846329Y-147616868D01*
X255016489Y-147546386D01*
X255169628Y-147444062D01*
X255299862Y-147313828D01*
X255402186Y-147160689D01*
X255472668Y-146990529D01*
X255508600Y-146809889D01*
X255508600Y-146625711D01*
X255478661Y-146475201D01*
X255572438Y-146615548D01*
X255702672Y-146745782D01*
X255855811Y-146848106D01*
X256025971Y-146918588D01*
X256206611Y-146954520D01*
X256390789Y-146954520D01*
X256571429Y-146918588D01*
X256741589Y-146848106D01*
X256894728Y-146745782D01*
X257024962Y-146615548D01*
X257127286Y-146462409D01*
X257197768Y-146292249D01*
X257233700Y-146111609D01*
X257233700Y-145927431D01*
X257197768Y-145746791D01*
X257127286Y-145576631D01*
X257024962Y-145423492D01*
X256894728Y-145293258D01*
X256741589Y-145190934D01*
X256571429Y-145120452D01*
X256390789Y-145084520D01*
X256206611Y-145084520D01*
X256025971Y-145120452D01*
X255855811Y-145190934D01*
X255702672Y-145293258D01*
X255572438Y-145423492D01*
X255470114Y-145576631D01*
X255399632Y-145746791D01*
X255363700Y-145927431D01*
X255363700Y-146111609D01*
X255393639Y-146262119D01*
X255299862Y-146121772D01*
X255169628Y-145991538D01*
X255016489Y-145889214D01*
X254846329Y-145818732D01*
X254665689Y-145782800D01*
X254481511Y-145782800D01*
X254300871Y-145818732D01*
X254130711Y-145889214D01*
X253977572Y-145991538D01*
X253847338Y-146121772D01*
X253745014Y-146274911D01*
X253674532Y-146445071D01*
X253638600Y-146625711D01*
X240094289Y-146625711D01*
X240142306Y-146553849D01*
X240212788Y-146383689D01*
X240248720Y-146203049D01*
X240248720Y-146018871D01*
X240212788Y-145838231D01*
X240142306Y-145668071D01*
X240039982Y-145514932D01*
X239909748Y-145384698D01*
X239756609Y-145282374D01*
X239586449Y-145211892D01*
X239405809Y-145175960D01*
X239221631Y-145175960D01*
X239040991Y-145211892D01*
X238870831Y-145282374D01*
X238717692Y-145384698D01*
X238587458Y-145514932D01*
X238485134Y-145668071D01*
X238414652Y-145838231D01*
X238378720Y-146018871D01*
X219459962Y-146018871D01*
X219604249Y-145959106D01*
X219757388Y-145856782D01*
X219887622Y-145726548D01*
X219989946Y-145573409D01*
X220060428Y-145403249D01*
X220096360Y-145222609D01*
X220096360Y-145038431D01*
X220060428Y-144857791D01*
X219989946Y-144687631D01*
X219887622Y-144534492D01*
X219757388Y-144404258D01*
X219729541Y-144385651D01*
X243077720Y-144385651D01*
X243077720Y-144569829D01*
X243113652Y-144750469D01*
X243184134Y-144920629D01*
X243286458Y-145073768D01*
X243416692Y-145204002D01*
X243569831Y-145306326D01*
X243739991Y-145376808D01*
X243920631Y-145412740D01*
X244104809Y-145412740D01*
X244285449Y-145376808D01*
X244455609Y-145306326D01*
X244608748Y-145204002D01*
X244738982Y-145073768D01*
X244841306Y-144920629D01*
X244911788Y-144750469D01*
X244947720Y-144569829D01*
X244947720Y-144385651D01*
X244911788Y-144205011D01*
X244841306Y-144034851D01*
X244738982Y-143881712D01*
X244719281Y-143862011D01*
X247520500Y-143862011D01*
X247520500Y-144046189D01*
X247556432Y-144226829D01*
X247626914Y-144396989D01*
X247729238Y-144550128D01*
X247859472Y-144680362D01*
X248012611Y-144782686D01*
X248182771Y-144853168D01*
X248363411Y-144889100D01*
X248547589Y-144889100D01*
X248728229Y-144853168D01*
X248898389Y-144782686D01*
X249051528Y-144680362D01*
X249181762Y-144550128D01*
X249284086Y-144396989D01*
X249354568Y-144226829D01*
X249390500Y-144046189D01*
X249390500Y-143862011D01*
X249354568Y-143681371D01*
X249284086Y-143511211D01*
X249181762Y-143358072D01*
X249051528Y-143227838D01*
X248898389Y-143125514D01*
X248728229Y-143055032D01*
X248547589Y-143019100D01*
X248363411Y-143019100D01*
X248182771Y-143055032D01*
X248012611Y-143125514D01*
X247859472Y-143227838D01*
X247729238Y-143358072D01*
X247626914Y-143511211D01*
X247556432Y-143681371D01*
X247520500Y-143862011D01*
X244719281Y-143862011D01*
X244608748Y-143751478D01*
X244455609Y-143649154D01*
X244285449Y-143578672D01*
X244104809Y-143542740D01*
X243920631Y-143542740D01*
X243739991Y-143578672D01*
X243569831Y-143649154D01*
X243416692Y-143751478D01*
X243286458Y-143881712D01*
X243184134Y-144034851D01*
X243113652Y-144205011D01*
X243077720Y-144385651D01*
X219729541Y-144385651D01*
X219604249Y-144301934D01*
X219434089Y-144231452D01*
X219253449Y-144195520D01*
X219069271Y-144195520D01*
X218888631Y-144231452D01*
X218718471Y-144301934D01*
X218565332Y-144404258D01*
X218435098Y-144534492D01*
X218332774Y-144687631D01*
X218262292Y-144857791D01*
X218226360Y-145038431D01*
X215710721Y-145038431D01*
X215696028Y-145023738D01*
X215542889Y-144921414D01*
X215372729Y-144850932D01*
X215192089Y-144815000D01*
X215007911Y-144815000D01*
X214827271Y-144850932D01*
X214657111Y-144921414D01*
X214635000Y-144936188D01*
X214635000Y-143270591D01*
X222135420Y-143270591D01*
X222135420Y-143454769D01*
X222171352Y-143635409D01*
X222241834Y-143805569D01*
X222344158Y-143958708D01*
X222474392Y-144088942D01*
X222627531Y-144191266D01*
X222797691Y-144261748D01*
X222978331Y-144297680D01*
X223162509Y-144297680D01*
X223343149Y-144261748D01*
X223513309Y-144191266D01*
X223666448Y-144088942D01*
X223796682Y-143958708D01*
X223899006Y-143805569D01*
X223969488Y-143635409D01*
X224005420Y-143454769D01*
X224005420Y-143270591D01*
X223969488Y-143089951D01*
X223899006Y-142919791D01*
X223796682Y-142766652D01*
X223666448Y-142636418D01*
X223513309Y-142534094D01*
X223343149Y-142463612D01*
X223162509Y-142427680D01*
X222978331Y-142427680D01*
X222797691Y-142463612D01*
X222627531Y-142534094D01*
X222474392Y-142636418D01*
X222344158Y-142766652D01*
X222241834Y-142919791D01*
X222171352Y-143089951D01*
X222135420Y-143270591D01*
X214635000Y-143270591D01*
X214635000Y-142036151D01*
X218226360Y-142036151D01*
X218226360Y-142220329D01*
X218262292Y-142400969D01*
X218332774Y-142571129D01*
X218435098Y-142724268D01*
X218565332Y-142854502D01*
X218718471Y-142956826D01*
X218888631Y-143027308D01*
X219069271Y-143063240D01*
X219253449Y-143063240D01*
X219434089Y-143027308D01*
X219604249Y-142956826D01*
X219757388Y-142854502D01*
X219887622Y-142724268D01*
X219989946Y-142571129D01*
X220060428Y-142400969D01*
X220096360Y-142220329D01*
X220096360Y-142036151D01*
X220060428Y-141855511D01*
X220033198Y-141789771D01*
X240304040Y-141789771D01*
X240304040Y-141973949D01*
X240339972Y-142154589D01*
X240410454Y-142324749D01*
X240512778Y-142477888D01*
X240643012Y-142608122D01*
X240796151Y-142710446D01*
X240966311Y-142780928D01*
X241146951Y-142816860D01*
X241331129Y-142816860D01*
X241511769Y-142780928D01*
X241681929Y-142710446D01*
X241835068Y-142608122D01*
X241965302Y-142477888D01*
X242067626Y-142324749D01*
X242138108Y-142154589D01*
X242174040Y-141973949D01*
X242174040Y-141789771D01*
X242138108Y-141609131D01*
X242067626Y-141438971D01*
X241965302Y-141285832D01*
X241953621Y-141274151D01*
X243110740Y-141274151D01*
X243110740Y-141458329D01*
X243146672Y-141638969D01*
X243217154Y-141809129D01*
X243319478Y-141962268D01*
X243449712Y-142092502D01*
X243602851Y-142194826D01*
X243773011Y-142265308D01*
X243953651Y-142301240D01*
X244137829Y-142301240D01*
X244318469Y-142265308D01*
X244488629Y-142194826D01*
X244641768Y-142092502D01*
X244772002Y-141962268D01*
X244874326Y-141809129D01*
X244944808Y-141638969D01*
X244980740Y-141458329D01*
X244980740Y-141274151D01*
X244944808Y-141093511D01*
X244874326Y-140923351D01*
X244772002Y-140770212D01*
X244641768Y-140639978D01*
X244488629Y-140537654D01*
X244318469Y-140467172D01*
X244137829Y-140431240D01*
X243953651Y-140431240D01*
X243773011Y-140467172D01*
X243602851Y-140537654D01*
X243449712Y-140639978D01*
X243319478Y-140770212D01*
X243217154Y-140923351D01*
X243146672Y-141093511D01*
X243110740Y-141274151D01*
X241953621Y-141274151D01*
X241835068Y-141155598D01*
X241681929Y-141053274D01*
X241511769Y-140982792D01*
X241331129Y-140946860D01*
X241146951Y-140946860D01*
X240966311Y-140982792D01*
X240796151Y-141053274D01*
X240643012Y-141155598D01*
X240512778Y-141285832D01*
X240410454Y-141438971D01*
X240339972Y-141609131D01*
X240304040Y-141789771D01*
X220033198Y-141789771D01*
X219989946Y-141685351D01*
X219887622Y-141532212D01*
X219757388Y-141401978D01*
X219604249Y-141299654D01*
X219434089Y-141229172D01*
X219253449Y-141193240D01*
X219069271Y-141193240D01*
X218888631Y-141229172D01*
X218718471Y-141299654D01*
X218565332Y-141401978D01*
X218435098Y-141532212D01*
X218332774Y-141685351D01*
X218262292Y-141855511D01*
X218226360Y-142036151D01*
X214635000Y-142036151D01*
X214635000Y-140735671D01*
X222574840Y-140735671D01*
X222574840Y-140919849D01*
X222610772Y-141100489D01*
X222681254Y-141270649D01*
X222783578Y-141423788D01*
X222913812Y-141554022D01*
X223066951Y-141656346D01*
X223237111Y-141726828D01*
X223417751Y-141762760D01*
X223601929Y-141762760D01*
X223782569Y-141726828D01*
X223952729Y-141656346D01*
X224105868Y-141554022D01*
X224236102Y-141423788D01*
X224338426Y-141270649D01*
X224408908Y-141100489D01*
X224444840Y-140919849D01*
X224444840Y-140735671D01*
X224408908Y-140555031D01*
X224338426Y-140384871D01*
X224288340Y-140309911D01*
X245508300Y-140309911D01*
X245508300Y-140494089D01*
X245544232Y-140674729D01*
X245614714Y-140844889D01*
X245717038Y-140998028D01*
X245847272Y-141128262D01*
X246000411Y-141230586D01*
X246170571Y-141301068D01*
X246351211Y-141337000D01*
X246535389Y-141337000D01*
X246716029Y-141301068D01*
X246886189Y-141230586D01*
X247039328Y-141128262D01*
X247169562Y-140998028D01*
X247271886Y-140844889D01*
X247342368Y-140674729D01*
X247370438Y-140533611D01*
X250883100Y-140533611D01*
X250883100Y-140717789D01*
X250919032Y-140898429D01*
X250989514Y-141068589D01*
X251091838Y-141221728D01*
X251222072Y-141351962D01*
X251375211Y-141454286D01*
X251545371Y-141524768D01*
X251726011Y-141560700D01*
X251910189Y-141560700D01*
X252090829Y-141524768D01*
X252260989Y-141454286D01*
X252414128Y-141351962D01*
X252528500Y-141237590D01*
X252528500Y-141380689D01*
X252564432Y-141561329D01*
X252634914Y-141731489D01*
X252737238Y-141884628D01*
X252867472Y-142014862D01*
X253020611Y-142117186D01*
X253190771Y-142187668D01*
X253371411Y-142223600D01*
X253555589Y-142223600D01*
X253563218Y-142222082D01*
X253544311Y-142229914D01*
X253391172Y-142332238D01*
X253260938Y-142462472D01*
X253158614Y-142615611D01*
X253088132Y-142785771D01*
X253052200Y-142966411D01*
X253052200Y-143150589D01*
X253088132Y-143331229D01*
X253120437Y-143409221D01*
X253077614Y-143473311D01*
X253007132Y-143643471D01*
X252971200Y-143824111D01*
X252971200Y-144008289D01*
X253007132Y-144188929D01*
X253077614Y-144359089D01*
X253179938Y-144512228D01*
X253310172Y-144642462D01*
X253463311Y-144744786D01*
X253633471Y-144815268D01*
X253814111Y-144851200D01*
X253998289Y-144851200D01*
X254178929Y-144815268D01*
X254349089Y-144744786D01*
X254502228Y-144642462D01*
X254632462Y-144512228D01*
X254734786Y-144359089D01*
X254805268Y-144188929D01*
X254841200Y-144008289D01*
X254841200Y-143824111D01*
X254805268Y-143643471D01*
X254772963Y-143565479D01*
X254815786Y-143501389D01*
X254886268Y-143331229D01*
X254922200Y-143150589D01*
X254922200Y-142966411D01*
X254886268Y-142785771D01*
X254815786Y-142615611D01*
X254713462Y-142462472D01*
X254583228Y-142332238D01*
X254430089Y-142229914D01*
X254259929Y-142159432D01*
X254079289Y-142123500D01*
X253895111Y-142123500D01*
X253887482Y-142125018D01*
X253906389Y-142117186D01*
X254059528Y-142014862D01*
X254189762Y-141884628D01*
X254292086Y-141731489D01*
X254362568Y-141561329D01*
X254398500Y-141380689D01*
X254398500Y-141196511D01*
X254362568Y-141015871D01*
X254292086Y-140845711D01*
X254189762Y-140692572D01*
X254059528Y-140562338D01*
X253906389Y-140460014D01*
X253736229Y-140389532D01*
X253555589Y-140353600D01*
X253371411Y-140353600D01*
X253190771Y-140389532D01*
X253020611Y-140460014D01*
X252867472Y-140562338D01*
X252753100Y-140676710D01*
X252753100Y-140533611D01*
X252717168Y-140352971D01*
X252646686Y-140182811D01*
X252544362Y-140029672D01*
X252414128Y-139899438D01*
X252260989Y-139797114D01*
X252090829Y-139726632D01*
X251910189Y-139690700D01*
X251726011Y-139690700D01*
X251545371Y-139726632D01*
X251375211Y-139797114D01*
X251222072Y-139899438D01*
X251091838Y-140029672D01*
X250989514Y-140182811D01*
X250919032Y-140352971D01*
X250883100Y-140533611D01*
X247370438Y-140533611D01*
X247378300Y-140494089D01*
X247378300Y-140309911D01*
X247342368Y-140129271D01*
X247271886Y-139959111D01*
X247169562Y-139805972D01*
X247039328Y-139675738D01*
X246886189Y-139573414D01*
X246716029Y-139502932D01*
X246535389Y-139467000D01*
X246351211Y-139467000D01*
X246170571Y-139502932D01*
X246000411Y-139573414D01*
X245847272Y-139675738D01*
X245717038Y-139805972D01*
X245614714Y-139959111D01*
X245544232Y-140129271D01*
X245508300Y-140309911D01*
X224288340Y-140309911D01*
X224236102Y-140231732D01*
X224105868Y-140101498D01*
X223952729Y-139999174D01*
X223782569Y-139928692D01*
X223601929Y-139892760D01*
X223417751Y-139892760D01*
X223237111Y-139928692D01*
X223066951Y-139999174D01*
X222913812Y-140101498D01*
X222783578Y-140231732D01*
X222681254Y-140384871D01*
X222610772Y-140555031D01*
X222574840Y-140735671D01*
X214635000Y-140735671D01*
X214635000Y-137210151D01*
X243288540Y-137210151D01*
X243288540Y-137394329D01*
X243324472Y-137574969D01*
X243394954Y-137745129D01*
X243497278Y-137898268D01*
X243627512Y-138028502D01*
X243780651Y-138130826D01*
X243950811Y-138201308D01*
X244131451Y-138237240D01*
X244315629Y-138237240D01*
X244496269Y-138201308D01*
X244666429Y-138130826D01*
X244819568Y-138028502D01*
X244949802Y-137898268D01*
X245006234Y-137813811D01*
X250306200Y-137813811D01*
X250306200Y-137997989D01*
X250342132Y-138178629D01*
X250412614Y-138348789D01*
X250514938Y-138501928D01*
X250645172Y-138632162D01*
X250798311Y-138734486D01*
X250968471Y-138804968D01*
X251047295Y-138820647D01*
X251110314Y-138972789D01*
X251212638Y-139125928D01*
X251342872Y-139256162D01*
X251496011Y-139358486D01*
X251666171Y-139428968D01*
X251846811Y-139464900D01*
X252030989Y-139464900D01*
X252211629Y-139428968D01*
X252381789Y-139358486D01*
X252534928Y-139256162D01*
X252665162Y-139125928D01*
X252767486Y-138972789D01*
X252837968Y-138802629D01*
X252873900Y-138621989D01*
X252873900Y-138437811D01*
X252837968Y-138257171D01*
X252767486Y-138087011D01*
X252665162Y-137933872D01*
X252534928Y-137803638D01*
X252381789Y-137701314D01*
X252211629Y-137630832D01*
X252132805Y-137615153D01*
X252069786Y-137463011D01*
X251967462Y-137309872D01*
X251837228Y-137179638D01*
X251684089Y-137077314D01*
X251513929Y-137006832D01*
X251333289Y-136970900D01*
X251149111Y-136970900D01*
X250968471Y-137006832D01*
X250798311Y-137077314D01*
X250645172Y-137179638D01*
X250514938Y-137309872D01*
X250412614Y-137463011D01*
X250342132Y-137633171D01*
X250306200Y-137813811D01*
X245006234Y-137813811D01*
X245052126Y-137745129D01*
X245122608Y-137574969D01*
X245158540Y-137394329D01*
X245158540Y-137210151D01*
X245122608Y-137029511D01*
X245052126Y-136859351D01*
X244949802Y-136706212D01*
X244899001Y-136655411D01*
X247649900Y-136655411D01*
X247649900Y-136839589D01*
X247685832Y-137020229D01*
X247756314Y-137190389D01*
X247858638Y-137343528D01*
X247988872Y-137473762D01*
X248142011Y-137576086D01*
X248312171Y-137646568D01*
X248492811Y-137682500D01*
X248676989Y-137682500D01*
X248857629Y-137646568D01*
X249027789Y-137576086D01*
X249180928Y-137473762D01*
X249311162Y-137343528D01*
X249413486Y-137190389D01*
X249483968Y-137020229D01*
X249519900Y-136839589D01*
X249519900Y-136703911D01*
X255351000Y-136703911D01*
X255351000Y-136888089D01*
X255386932Y-137068729D01*
X255457414Y-137238889D01*
X255559738Y-137392028D01*
X255689972Y-137522262D01*
X255843111Y-137624586D01*
X256013271Y-137695068D01*
X256193911Y-137731000D01*
X256378089Y-137731000D01*
X256558729Y-137695068D01*
X256728889Y-137624586D01*
X256882028Y-137522262D01*
X257012262Y-137392028D01*
X257114586Y-137238889D01*
X257185068Y-137068729D01*
X257221000Y-136888089D01*
X257221000Y-136703911D01*
X257185068Y-136523271D01*
X257114586Y-136353111D01*
X257012262Y-136199972D01*
X256882028Y-136069738D01*
X256728889Y-135967414D01*
X256558729Y-135896932D01*
X256378089Y-135861000D01*
X256193911Y-135861000D01*
X256013271Y-135896932D01*
X255843111Y-135967414D01*
X255689972Y-136069738D01*
X255559738Y-136199972D01*
X255457414Y-136353111D01*
X255386932Y-136523271D01*
X255351000Y-136703911D01*
X249519900Y-136703911D01*
X249519900Y-136655411D01*
X249483968Y-136474771D01*
X249413486Y-136304611D01*
X249311162Y-136151472D01*
X249180928Y-136021238D01*
X249027789Y-135918914D01*
X248857629Y-135848432D01*
X248676989Y-135812500D01*
X248492811Y-135812500D01*
X248312171Y-135848432D01*
X248142011Y-135918914D01*
X247988872Y-136021238D01*
X247858638Y-136151472D01*
X247756314Y-136304611D01*
X247685832Y-136474771D01*
X247649900Y-136655411D01*
X244899001Y-136655411D01*
X244819568Y-136575978D01*
X244666429Y-136473654D01*
X244533657Y-136418659D01*
X244675789Y-136359786D01*
X244828928Y-136257462D01*
X244959162Y-136127228D01*
X245061486Y-135974089D01*
X245131968Y-135803929D01*
X245167900Y-135623289D01*
X245167900Y-135439111D01*
X245131968Y-135258471D01*
X245061486Y-135088311D01*
X244959162Y-134935172D01*
X244828928Y-134804938D01*
X244675789Y-134702614D01*
X244505629Y-134632132D01*
X244324989Y-134596200D01*
X244140811Y-134596200D01*
X243960171Y-134632132D01*
X243790011Y-134702614D01*
X243636872Y-134804938D01*
X243506638Y-134935172D01*
X243404314Y-135088311D01*
X243333832Y-135258471D01*
X243297900Y-135439111D01*
X243297900Y-135623289D01*
X243333832Y-135803929D01*
X243404314Y-135974089D01*
X243506638Y-136127228D01*
X243636872Y-136257462D01*
X243790011Y-136359786D01*
X243922783Y-136414781D01*
X243780651Y-136473654D01*
X243627512Y-136575978D01*
X243497278Y-136706212D01*
X243394954Y-136859351D01*
X243324472Y-137029511D01*
X243288540Y-137210151D01*
X214635000Y-137210151D01*
X214635000Y-134894196D01*
X214671639Y-135078394D01*
X214813734Y-135421442D01*
X215020025Y-135730178D01*
X215282582Y-135992735D01*
X215591318Y-136199026D01*
X215934366Y-136341121D01*
X216298544Y-136413560D01*
X216669856Y-136413560D01*
X217034034Y-136341121D01*
X217377082Y-136199026D01*
X217685818Y-135992735D01*
X217948375Y-135730178D01*
X218154666Y-135421442D01*
X218296761Y-135078394D01*
X218369200Y-134714216D01*
X218369200Y-134342904D01*
X218296761Y-133978726D01*
X218154666Y-133635678D01*
X217948375Y-133326942D01*
X217685818Y-133064385D01*
X217377082Y-132858094D01*
X217034034Y-132715999D01*
X216669856Y-132643560D01*
X216403428Y-132643560D01*
X216532443Y-132630000D01*
X226169869Y-132630000D01*
X226089934Y-132749631D01*
M02*
