G04 #@! TF.GenerationSoftware,KiCad,Pcbnew,(5.1.4)-1*
G04 #@! TF.CreationDate,2019-11-17T19:28:04+01:00*
G04 #@! TF.ProjectId,Open_Telemetry_digitalSensorShield,4f70656e-5f54-4656-9c65-6d657472795f,P1A - Prototype manuf.*
G04 #@! TF.SameCoordinates,Original*
G04 #@! TF.FileFunction,Other,Fab,Top*
%FSLAX46Y46*%
G04 Gerber Fmt 4.6, Leading zero omitted, Abs format (unit mm)*
G04 Created by KiCad (PCBNEW (5.1.4)-1) date 2019-11-17 19:28:04*
%MOMM*%
%LPD*%
G04 APERTURE LIST*
%ADD10C,0.100000*%
%ADD11C,0.150000*%
%ADD12C,0.075000*%
%ADD13C,0.105000*%
G04 APERTURE END LIST*
D10*
X247250000Y-149700000D02*
X247250000Y-147950000D01*
X247500000Y-147700000D02*
X247250000Y-147950000D01*
X249750000Y-147700000D02*
X247500000Y-147700000D01*
X249750000Y-147700000D02*
X249750000Y-149700000D01*
X247250000Y-149700000D02*
X249750000Y-149700000D01*
X217116000Y-147218000D02*
G75*
G03X217116000Y-147218000I-200000J0D01*
G01*
X218216000Y-148218000D02*
X218216000Y-145918000D01*
X215616000Y-145918000D02*
X218216000Y-145918000D01*
X217916000Y-148518000D02*
X218216000Y-148218000D01*
X215616000Y-148518000D02*
X217916000Y-148518000D01*
X215616000Y-148518000D02*
X215616000Y-145918000D01*
X217816000Y-147218000D02*
G75*
G03X217816000Y-147218000I-900000J0D01*
G01*
X217041000Y-147218000D02*
G75*
G03X217041000Y-147218000I-125000J0D01*
G01*
X216966000Y-147218000D02*
G75*
G03X216966000Y-147218000I-50000J0D01*
G01*
X218216000Y-147518000D02*
X217916000Y-147218000D01*
X217916000Y-147218000D02*
X218216000Y-146918000D01*
X229870000Y-134493000D02*
X229235000Y-133858000D01*
X259715000Y-134493000D02*
X229870000Y-134493000D01*
X259715000Y-131953000D02*
X259715000Y-134493000D01*
X229235000Y-131953000D02*
X259715000Y-131953000D01*
X229235000Y-133858000D02*
X229235000Y-131953000D01*
X259080000Y-152273000D02*
X259715000Y-152908000D01*
X219075000Y-152273000D02*
X259080000Y-152273000D01*
X219075000Y-154813000D02*
X219075000Y-152273000D01*
X259715000Y-154813000D02*
X219075000Y-154813000D01*
X259715000Y-152908000D02*
X259715000Y-154813000D01*
X249205000Y-143260000D02*
X248355000Y-143260000D01*
X247855000Y-143760000D02*
X247855000Y-145460000D01*
X249205000Y-143260000D02*
X249205000Y-145460000D01*
X249205000Y-145460000D02*
X247855000Y-145460000D01*
X248355000Y-143260000D02*
X247855000Y-143760000D01*
D11*
X249776000Y-138302000D02*
X250776000Y-139302000D01*
X247776000Y-138302000D02*
X249776000Y-138302000D01*
X247776000Y-141302000D02*
X247776000Y-138302000D01*
X250776000Y-141302000D02*
X247776000Y-141302000D01*
X250776000Y-139302000D02*
X250776000Y-141302000D01*
X265653072Y-159171900D02*
X265653072Y-158171900D01*
X265986405Y-158886186D01*
X266319739Y-158171900D01*
X266319739Y-159171900D01*
X266938786Y-159171900D02*
X266843548Y-159124281D01*
X266795929Y-159076662D01*
X266748310Y-158981424D01*
X266748310Y-158695710D01*
X266795929Y-158600472D01*
X266843548Y-158552853D01*
X266938786Y-158505234D01*
X267081643Y-158505234D01*
X267176881Y-158552853D01*
X267224500Y-158600472D01*
X267272120Y-158695710D01*
X267272120Y-158981424D01*
X267224500Y-159076662D01*
X267176881Y-159124281D01*
X267081643Y-159171900D01*
X266938786Y-159171900D01*
X268129262Y-158505234D02*
X268129262Y-159171900D01*
X267700691Y-158505234D02*
X267700691Y-159029043D01*
X267748310Y-159124281D01*
X267843548Y-159171900D01*
X267986405Y-159171900D01*
X268081643Y-159124281D01*
X268129262Y-159076662D01*
X268605453Y-158505234D02*
X268605453Y-159171900D01*
X268605453Y-158600472D02*
X268653072Y-158552853D01*
X268748310Y-158505234D01*
X268891167Y-158505234D01*
X268986405Y-158552853D01*
X269034024Y-158648091D01*
X269034024Y-159171900D01*
X269367358Y-158505234D02*
X269748310Y-158505234D01*
X269510215Y-158171900D02*
X269510215Y-159029043D01*
X269557834Y-159124281D01*
X269653072Y-159171900D01*
X269748310Y-159171900D01*
X270081643Y-159171900D02*
X270081643Y-158505234D01*
X270081643Y-158171900D02*
X270034024Y-158219520D01*
X270081643Y-158267139D01*
X270129262Y-158219520D01*
X270081643Y-158171900D01*
X270081643Y-158267139D01*
X270557834Y-158505234D02*
X270557834Y-159171900D01*
X270557834Y-158600472D02*
X270605453Y-158552853D01*
X270700691Y-158505234D01*
X270843548Y-158505234D01*
X270938786Y-158552853D01*
X270986405Y-158648091D01*
X270986405Y-159171900D01*
X271891167Y-158505234D02*
X271891167Y-159314758D01*
X271843548Y-159409996D01*
X271795929Y-159457615D01*
X271700691Y-159505234D01*
X271557834Y-159505234D01*
X271462596Y-159457615D01*
X271891167Y-159124281D02*
X271795929Y-159171900D01*
X271605453Y-159171900D01*
X271510215Y-159124281D01*
X271462596Y-159076662D01*
X271414977Y-158981424D01*
X271414977Y-158695710D01*
X271462596Y-158600472D01*
X271510215Y-158552853D01*
X271605453Y-158505234D01*
X271795929Y-158505234D01*
X271891167Y-158552853D01*
X272367358Y-159171900D02*
X272367358Y-158171900D01*
X272367358Y-158648091D02*
X272938786Y-158648091D01*
X272938786Y-159171900D02*
X272938786Y-158171900D01*
X273557834Y-159171900D02*
X273462596Y-159124281D01*
X273414977Y-159076662D01*
X273367358Y-158981424D01*
X273367358Y-158695710D01*
X273414977Y-158600472D01*
X273462596Y-158552853D01*
X273557834Y-158505234D01*
X273700691Y-158505234D01*
X273795929Y-158552853D01*
X273843548Y-158600472D01*
X273891167Y-158695710D01*
X273891167Y-158981424D01*
X273843548Y-159076662D01*
X273795929Y-159124281D01*
X273700691Y-159171900D01*
X273557834Y-159171900D01*
X274462596Y-159171900D02*
X274367358Y-159124281D01*
X274319739Y-159029043D01*
X274319739Y-158171900D01*
X275224500Y-159124281D02*
X275129262Y-159171900D01*
X274938786Y-159171900D01*
X274843548Y-159124281D01*
X274795929Y-159029043D01*
X274795929Y-158648091D01*
X274843548Y-158552853D01*
X274938786Y-158505234D01*
X275129262Y-158505234D01*
X275224500Y-158552853D01*
X275272120Y-158648091D01*
X275272120Y-158743329D01*
X274795929Y-158838567D01*
X275462596Y-159267139D02*
X276224500Y-159267139D01*
X276414977Y-158267139D02*
X276462596Y-158219520D01*
X276557834Y-158171900D01*
X276795929Y-158171900D01*
X276891167Y-158219520D01*
X276938786Y-158267139D01*
X276986405Y-158362377D01*
X276986405Y-158457615D01*
X276938786Y-158600472D01*
X276367358Y-159171900D01*
X276986405Y-159171900D01*
X277414977Y-159076662D02*
X277462596Y-159124281D01*
X277414977Y-159171900D01*
X277367358Y-159124281D01*
X277414977Y-159076662D01*
X277414977Y-159171900D01*
X277843548Y-158267139D02*
X277891167Y-158219520D01*
X277986405Y-158171900D01*
X278224500Y-158171900D01*
X278319739Y-158219520D01*
X278367358Y-158267139D01*
X278414977Y-158362377D01*
X278414977Y-158457615D01*
X278367358Y-158600472D01*
X277795929Y-159171900D01*
X278414977Y-159171900D01*
X278843548Y-159171900D02*
X278843548Y-158505234D01*
X278843548Y-158600472D02*
X278891167Y-158552853D01*
X278986405Y-158505234D01*
X279129262Y-158505234D01*
X279224500Y-158552853D01*
X279272120Y-158648091D01*
X279272120Y-159171900D01*
X279272120Y-158648091D02*
X279319739Y-158552853D01*
X279414977Y-158505234D01*
X279557834Y-158505234D01*
X279653072Y-158552853D01*
X279700691Y-158648091D01*
X279700691Y-159171900D01*
X280176881Y-159171900D02*
X280176881Y-158505234D01*
X280176881Y-158600472D02*
X280224500Y-158552853D01*
X280319739Y-158505234D01*
X280462596Y-158505234D01*
X280557834Y-158552853D01*
X280605453Y-158648091D01*
X280605453Y-159171900D01*
X280605453Y-158648091D02*
X280653072Y-158552853D01*
X280748310Y-158505234D01*
X280891167Y-158505234D01*
X280986405Y-158552853D01*
X281034024Y-158648091D01*
X281034024Y-159171900D01*
X281272120Y-159267139D02*
X282034024Y-159267139D01*
X282272120Y-159171900D02*
X282272120Y-158171900D01*
X282605453Y-158886186D01*
X282938786Y-158171900D01*
X282938786Y-159171900D01*
X283367358Y-158267139D02*
X283414977Y-158219520D01*
X283510215Y-158171900D01*
X283748310Y-158171900D01*
X283843548Y-158219520D01*
X283891167Y-158267139D01*
X283938786Y-158362377D01*
X283938786Y-158457615D01*
X283891167Y-158600472D01*
X283319739Y-159171900D01*
X283938786Y-159171900D01*
X261796584Y-153357840D02*
X261796584Y-152357840D01*
X262177537Y-152357840D01*
X262272775Y-152405460D01*
X262320394Y-152453079D01*
X262368013Y-152548317D01*
X262368013Y-152691174D01*
X262320394Y-152786412D01*
X262272775Y-152834031D01*
X262177537Y-152881650D01*
X261796584Y-152881650D01*
X263225156Y-152691174D02*
X263225156Y-153357840D01*
X262987060Y-152310221D02*
X262748965Y-153024507D01*
X263368013Y-153024507D01*
X265858812Y-128415040D02*
X265858812Y-127415040D01*
X266192145Y-128129326D01*
X266525479Y-127415040D01*
X266525479Y-128415040D01*
X267144526Y-128415040D02*
X267049288Y-128367421D01*
X267001669Y-128319802D01*
X266954050Y-128224564D01*
X266954050Y-127938850D01*
X267001669Y-127843612D01*
X267049288Y-127795993D01*
X267144526Y-127748374D01*
X267287383Y-127748374D01*
X267382621Y-127795993D01*
X267430240Y-127843612D01*
X267477860Y-127938850D01*
X267477860Y-128224564D01*
X267430240Y-128319802D01*
X267382621Y-128367421D01*
X267287383Y-128415040D01*
X267144526Y-128415040D01*
X268335002Y-127748374D02*
X268335002Y-128415040D01*
X267906431Y-127748374D02*
X267906431Y-128272183D01*
X267954050Y-128367421D01*
X268049288Y-128415040D01*
X268192145Y-128415040D01*
X268287383Y-128367421D01*
X268335002Y-128319802D01*
X268811193Y-127748374D02*
X268811193Y-128415040D01*
X268811193Y-127843612D02*
X268858812Y-127795993D01*
X268954050Y-127748374D01*
X269096907Y-127748374D01*
X269192145Y-127795993D01*
X269239764Y-127891231D01*
X269239764Y-128415040D01*
X269573098Y-127748374D02*
X269954050Y-127748374D01*
X269715955Y-127415040D02*
X269715955Y-128272183D01*
X269763574Y-128367421D01*
X269858812Y-128415040D01*
X269954050Y-128415040D01*
X270287383Y-128415040D02*
X270287383Y-127748374D01*
X270287383Y-127415040D02*
X270239764Y-127462660D01*
X270287383Y-127510279D01*
X270335002Y-127462660D01*
X270287383Y-127415040D01*
X270287383Y-127510279D01*
X270763574Y-127748374D02*
X270763574Y-128415040D01*
X270763574Y-127843612D02*
X270811193Y-127795993D01*
X270906431Y-127748374D01*
X271049288Y-127748374D01*
X271144526Y-127795993D01*
X271192145Y-127891231D01*
X271192145Y-128415040D01*
X272096907Y-127748374D02*
X272096907Y-128557898D01*
X272049288Y-128653136D01*
X272001669Y-128700755D01*
X271906431Y-128748374D01*
X271763574Y-128748374D01*
X271668336Y-128700755D01*
X272096907Y-128367421D02*
X272001669Y-128415040D01*
X271811193Y-128415040D01*
X271715955Y-128367421D01*
X271668336Y-128319802D01*
X271620717Y-128224564D01*
X271620717Y-127938850D01*
X271668336Y-127843612D01*
X271715955Y-127795993D01*
X271811193Y-127748374D01*
X272001669Y-127748374D01*
X272096907Y-127795993D01*
X272573098Y-128415040D02*
X272573098Y-127415040D01*
X272573098Y-127891231D02*
X273144526Y-127891231D01*
X273144526Y-128415040D02*
X273144526Y-127415040D01*
X273763574Y-128415040D02*
X273668336Y-128367421D01*
X273620717Y-128319802D01*
X273573098Y-128224564D01*
X273573098Y-127938850D01*
X273620717Y-127843612D01*
X273668336Y-127795993D01*
X273763574Y-127748374D01*
X273906431Y-127748374D01*
X274001669Y-127795993D01*
X274049288Y-127843612D01*
X274096907Y-127938850D01*
X274096907Y-128224564D01*
X274049288Y-128319802D01*
X274001669Y-128367421D01*
X273906431Y-128415040D01*
X273763574Y-128415040D01*
X274668336Y-128415040D02*
X274573098Y-128367421D01*
X274525479Y-128272183D01*
X274525479Y-127415040D01*
X275430240Y-128367421D02*
X275335002Y-128415040D01*
X275144526Y-128415040D01*
X275049288Y-128367421D01*
X275001669Y-128272183D01*
X275001669Y-127891231D01*
X275049288Y-127795993D01*
X275144526Y-127748374D01*
X275335002Y-127748374D01*
X275430240Y-127795993D01*
X275477860Y-127891231D01*
X275477860Y-127986469D01*
X275001669Y-128081707D01*
X275668336Y-128510279D02*
X276430240Y-128510279D01*
X276620717Y-127510279D02*
X276668336Y-127462660D01*
X276763574Y-127415040D01*
X277001669Y-127415040D01*
X277096907Y-127462660D01*
X277144526Y-127510279D01*
X277192145Y-127605517D01*
X277192145Y-127700755D01*
X277144526Y-127843612D01*
X276573098Y-128415040D01*
X277192145Y-128415040D01*
X277620717Y-128319802D02*
X277668336Y-128367421D01*
X277620717Y-128415040D01*
X277573098Y-128367421D01*
X277620717Y-128319802D01*
X277620717Y-128415040D01*
X278049288Y-127510279D02*
X278096907Y-127462660D01*
X278192145Y-127415040D01*
X278430240Y-127415040D01*
X278525479Y-127462660D01*
X278573098Y-127510279D01*
X278620717Y-127605517D01*
X278620717Y-127700755D01*
X278573098Y-127843612D01*
X278001669Y-128415040D01*
X278620717Y-128415040D01*
X279049288Y-128415040D02*
X279049288Y-127748374D01*
X279049288Y-127843612D02*
X279096907Y-127795993D01*
X279192145Y-127748374D01*
X279335002Y-127748374D01*
X279430240Y-127795993D01*
X279477860Y-127891231D01*
X279477860Y-128415040D01*
X279477860Y-127891231D02*
X279525479Y-127795993D01*
X279620717Y-127748374D01*
X279763574Y-127748374D01*
X279858812Y-127795993D01*
X279906431Y-127891231D01*
X279906431Y-128415040D01*
X280382621Y-128415040D02*
X280382621Y-127748374D01*
X280382621Y-127843612D02*
X280430240Y-127795993D01*
X280525479Y-127748374D01*
X280668336Y-127748374D01*
X280763574Y-127795993D01*
X280811193Y-127891231D01*
X280811193Y-128415040D01*
X280811193Y-127891231D02*
X280858812Y-127795993D01*
X280954050Y-127748374D01*
X281096907Y-127748374D01*
X281192145Y-127795993D01*
X281239764Y-127891231D01*
X281239764Y-128415040D01*
X281477860Y-128510279D02*
X282239764Y-128510279D01*
X282477860Y-128415040D02*
X282477860Y-127415040D01*
X282811193Y-128129326D01*
X283144526Y-127415040D01*
X283144526Y-128415040D01*
X283573098Y-127510279D02*
X283620717Y-127462660D01*
X283715955Y-127415040D01*
X283954050Y-127415040D01*
X284049288Y-127462660D01*
X284096907Y-127510279D01*
X284144526Y-127605517D01*
X284144526Y-127700755D01*
X284096907Y-127843612D01*
X283525479Y-128415040D01*
X284144526Y-128415040D01*
X261834684Y-134323080D02*
X261834684Y-133323080D01*
X262215637Y-133323080D01*
X262310875Y-133370700D01*
X262358494Y-133418319D01*
X262406113Y-133513557D01*
X262406113Y-133656414D01*
X262358494Y-133751652D01*
X262310875Y-133799271D01*
X262215637Y-133846890D01*
X261834684Y-133846890D01*
X262739446Y-133323080D02*
X263358494Y-133323080D01*
X263025160Y-133704033D01*
X263168018Y-133704033D01*
X263263256Y-133751652D01*
X263310875Y-133799271D01*
X263358494Y-133894509D01*
X263358494Y-134132604D01*
X263310875Y-134227842D01*
X263263256Y-134275461D01*
X263168018Y-134323080D01*
X262882303Y-134323080D01*
X262787065Y-134275461D01*
X262739446Y-134227842D01*
X197716783Y-157404060D02*
X197716783Y-156404060D01*
X198050117Y-157118346D01*
X198383450Y-156404060D01*
X198383450Y-157404060D01*
X199002498Y-157404060D02*
X198907260Y-157356441D01*
X198859640Y-157308822D01*
X198812021Y-157213584D01*
X198812021Y-156927870D01*
X198859640Y-156832632D01*
X198907260Y-156785013D01*
X199002498Y-156737394D01*
X199145355Y-156737394D01*
X199240593Y-156785013D01*
X199288212Y-156832632D01*
X199335831Y-156927870D01*
X199335831Y-157213584D01*
X199288212Y-157308822D01*
X199240593Y-157356441D01*
X199145355Y-157404060D01*
X199002498Y-157404060D01*
X200192974Y-156737394D02*
X200192974Y-157404060D01*
X199764402Y-156737394D02*
X199764402Y-157261203D01*
X199812021Y-157356441D01*
X199907260Y-157404060D01*
X200050117Y-157404060D01*
X200145355Y-157356441D01*
X200192974Y-157308822D01*
X200669164Y-156737394D02*
X200669164Y-157404060D01*
X200669164Y-156832632D02*
X200716783Y-156785013D01*
X200812021Y-156737394D01*
X200954879Y-156737394D01*
X201050117Y-156785013D01*
X201097736Y-156880251D01*
X201097736Y-157404060D01*
X201431069Y-156737394D02*
X201812021Y-156737394D01*
X201573926Y-156404060D02*
X201573926Y-157261203D01*
X201621545Y-157356441D01*
X201716783Y-157404060D01*
X201812021Y-157404060D01*
X202145355Y-157404060D02*
X202145355Y-156737394D01*
X202145355Y-156404060D02*
X202097736Y-156451680D01*
X202145355Y-156499299D01*
X202192974Y-156451680D01*
X202145355Y-156404060D01*
X202145355Y-156499299D01*
X202621545Y-156737394D02*
X202621545Y-157404060D01*
X202621545Y-156832632D02*
X202669164Y-156785013D01*
X202764402Y-156737394D01*
X202907260Y-156737394D01*
X203002498Y-156785013D01*
X203050117Y-156880251D01*
X203050117Y-157404060D01*
X203954879Y-156737394D02*
X203954879Y-157546918D01*
X203907260Y-157642156D01*
X203859640Y-157689775D01*
X203764402Y-157737394D01*
X203621545Y-157737394D01*
X203526307Y-157689775D01*
X203954879Y-157356441D02*
X203859640Y-157404060D01*
X203669164Y-157404060D01*
X203573926Y-157356441D01*
X203526307Y-157308822D01*
X203478688Y-157213584D01*
X203478688Y-156927870D01*
X203526307Y-156832632D01*
X203573926Y-156785013D01*
X203669164Y-156737394D01*
X203859640Y-156737394D01*
X203954879Y-156785013D01*
X204431069Y-157404060D02*
X204431069Y-156404060D01*
X204431069Y-156880251D02*
X205002498Y-156880251D01*
X205002498Y-157404060D02*
X205002498Y-156404060D01*
X205621545Y-157404060D02*
X205526307Y-157356441D01*
X205478688Y-157308822D01*
X205431069Y-157213584D01*
X205431069Y-156927870D01*
X205478688Y-156832632D01*
X205526307Y-156785013D01*
X205621545Y-156737394D01*
X205764402Y-156737394D01*
X205859640Y-156785013D01*
X205907260Y-156832632D01*
X205954879Y-156927870D01*
X205954879Y-157213584D01*
X205907260Y-157308822D01*
X205859640Y-157356441D01*
X205764402Y-157404060D01*
X205621545Y-157404060D01*
X206526307Y-157404060D02*
X206431069Y-157356441D01*
X206383450Y-157261203D01*
X206383450Y-156404060D01*
X207288212Y-157356441D02*
X207192974Y-157404060D01*
X207002498Y-157404060D01*
X206907260Y-157356441D01*
X206859640Y-157261203D01*
X206859640Y-156880251D01*
X206907260Y-156785013D01*
X207002498Y-156737394D01*
X207192974Y-156737394D01*
X207288212Y-156785013D01*
X207335831Y-156880251D01*
X207335831Y-156975489D01*
X206859640Y-157070727D01*
X207526307Y-157499299D02*
X208288212Y-157499299D01*
X208478688Y-156499299D02*
X208526307Y-156451680D01*
X208621545Y-156404060D01*
X208859640Y-156404060D01*
X208954879Y-156451680D01*
X209002498Y-156499299D01*
X209050117Y-156594537D01*
X209050117Y-156689775D01*
X209002498Y-156832632D01*
X208431069Y-157404060D01*
X209050117Y-157404060D01*
X209478688Y-157308822D02*
X209526307Y-157356441D01*
X209478688Y-157404060D01*
X209431069Y-157356441D01*
X209478688Y-157308822D01*
X209478688Y-157404060D01*
X210431069Y-156404060D02*
X209954879Y-156404060D01*
X209907260Y-156880251D01*
X209954879Y-156832632D01*
X210050117Y-156785013D01*
X210288212Y-156785013D01*
X210383450Y-156832632D01*
X210431069Y-156880251D01*
X210478688Y-156975489D01*
X210478688Y-157213584D01*
X210431069Y-157308822D01*
X210383450Y-157356441D01*
X210288212Y-157404060D01*
X210050117Y-157404060D01*
X209954879Y-157356441D01*
X209907260Y-157308822D01*
X210907260Y-157404060D02*
X210907260Y-156737394D01*
X210907260Y-156832632D02*
X210954879Y-156785013D01*
X211050117Y-156737394D01*
X211192974Y-156737394D01*
X211288212Y-156785013D01*
X211335831Y-156880251D01*
X211335831Y-157404060D01*
X211335831Y-156880251D02*
X211383450Y-156785013D01*
X211478688Y-156737394D01*
X211621545Y-156737394D01*
X211716783Y-156785013D01*
X211764402Y-156880251D01*
X211764402Y-157404060D01*
X212240593Y-157404060D02*
X212240593Y-156737394D01*
X212240593Y-156832632D02*
X212288212Y-156785013D01*
X212383450Y-156737394D01*
X212526307Y-156737394D01*
X212621545Y-156785013D01*
X212669164Y-156880251D01*
X212669164Y-157404060D01*
X212669164Y-156880251D02*
X212716783Y-156785013D01*
X212812021Y-156737394D01*
X212954879Y-156737394D01*
X213050117Y-156785013D01*
X213097736Y-156880251D01*
X213097736Y-157404060D01*
X216096904Y-152733000D02*
X216096904Y-151733000D01*
X216477857Y-151733000D01*
X216573095Y-151780620D01*
X216620714Y-151828239D01*
X216668333Y-151923477D01*
X216668333Y-152066334D01*
X216620714Y-152161572D01*
X216573095Y-152209191D01*
X216477857Y-152256810D01*
X216096904Y-152256810D01*
X217049285Y-151828239D02*
X217096904Y-151780620D01*
X217192142Y-151733000D01*
X217430238Y-151733000D01*
X217525476Y-151780620D01*
X217573095Y-151828239D01*
X217620714Y-151923477D01*
X217620714Y-152018715D01*
X217573095Y-152161572D01*
X217001666Y-152733000D01*
X217620714Y-152733000D01*
X198097783Y-130027940D02*
X198097783Y-129027940D01*
X198431117Y-129742226D01*
X198764450Y-129027940D01*
X198764450Y-130027940D01*
X199383498Y-130027940D02*
X199288260Y-129980321D01*
X199240640Y-129932702D01*
X199193021Y-129837464D01*
X199193021Y-129551750D01*
X199240640Y-129456512D01*
X199288260Y-129408893D01*
X199383498Y-129361274D01*
X199526355Y-129361274D01*
X199621593Y-129408893D01*
X199669212Y-129456512D01*
X199716831Y-129551750D01*
X199716831Y-129837464D01*
X199669212Y-129932702D01*
X199621593Y-129980321D01*
X199526355Y-130027940D01*
X199383498Y-130027940D01*
X200573974Y-129361274D02*
X200573974Y-130027940D01*
X200145402Y-129361274D02*
X200145402Y-129885083D01*
X200193021Y-129980321D01*
X200288260Y-130027940D01*
X200431117Y-130027940D01*
X200526355Y-129980321D01*
X200573974Y-129932702D01*
X201050164Y-129361274D02*
X201050164Y-130027940D01*
X201050164Y-129456512D02*
X201097783Y-129408893D01*
X201193021Y-129361274D01*
X201335879Y-129361274D01*
X201431117Y-129408893D01*
X201478736Y-129504131D01*
X201478736Y-130027940D01*
X201812069Y-129361274D02*
X202193021Y-129361274D01*
X201954926Y-129027940D02*
X201954926Y-129885083D01*
X202002545Y-129980321D01*
X202097783Y-130027940D01*
X202193021Y-130027940D01*
X202526355Y-130027940D02*
X202526355Y-129361274D01*
X202526355Y-129027940D02*
X202478736Y-129075560D01*
X202526355Y-129123179D01*
X202573974Y-129075560D01*
X202526355Y-129027940D01*
X202526355Y-129123179D01*
X203002545Y-129361274D02*
X203002545Y-130027940D01*
X203002545Y-129456512D02*
X203050164Y-129408893D01*
X203145402Y-129361274D01*
X203288260Y-129361274D01*
X203383498Y-129408893D01*
X203431117Y-129504131D01*
X203431117Y-130027940D01*
X204335879Y-129361274D02*
X204335879Y-130170798D01*
X204288260Y-130266036D01*
X204240640Y-130313655D01*
X204145402Y-130361274D01*
X204002545Y-130361274D01*
X203907307Y-130313655D01*
X204335879Y-129980321D02*
X204240640Y-130027940D01*
X204050164Y-130027940D01*
X203954926Y-129980321D01*
X203907307Y-129932702D01*
X203859688Y-129837464D01*
X203859688Y-129551750D01*
X203907307Y-129456512D01*
X203954926Y-129408893D01*
X204050164Y-129361274D01*
X204240640Y-129361274D01*
X204335879Y-129408893D01*
X204812069Y-130027940D02*
X204812069Y-129027940D01*
X204812069Y-129504131D02*
X205383498Y-129504131D01*
X205383498Y-130027940D02*
X205383498Y-129027940D01*
X206002545Y-130027940D02*
X205907307Y-129980321D01*
X205859688Y-129932702D01*
X205812069Y-129837464D01*
X205812069Y-129551750D01*
X205859688Y-129456512D01*
X205907307Y-129408893D01*
X206002545Y-129361274D01*
X206145402Y-129361274D01*
X206240640Y-129408893D01*
X206288260Y-129456512D01*
X206335879Y-129551750D01*
X206335879Y-129837464D01*
X206288260Y-129932702D01*
X206240640Y-129980321D01*
X206145402Y-130027940D01*
X206002545Y-130027940D01*
X206907307Y-130027940D02*
X206812069Y-129980321D01*
X206764450Y-129885083D01*
X206764450Y-129027940D01*
X207669212Y-129980321D02*
X207573974Y-130027940D01*
X207383498Y-130027940D01*
X207288260Y-129980321D01*
X207240640Y-129885083D01*
X207240640Y-129504131D01*
X207288260Y-129408893D01*
X207383498Y-129361274D01*
X207573974Y-129361274D01*
X207669212Y-129408893D01*
X207716831Y-129504131D01*
X207716831Y-129599369D01*
X207240640Y-129694607D01*
X207907307Y-130123179D02*
X208669212Y-130123179D01*
X208859688Y-129123179D02*
X208907307Y-129075560D01*
X209002545Y-129027940D01*
X209240640Y-129027940D01*
X209335879Y-129075560D01*
X209383498Y-129123179D01*
X209431117Y-129218417D01*
X209431117Y-129313655D01*
X209383498Y-129456512D01*
X208812069Y-130027940D01*
X209431117Y-130027940D01*
X209859688Y-129932702D02*
X209907307Y-129980321D01*
X209859688Y-130027940D01*
X209812069Y-129980321D01*
X209859688Y-129932702D01*
X209859688Y-130027940D01*
X210812069Y-129027940D02*
X210335879Y-129027940D01*
X210288260Y-129504131D01*
X210335879Y-129456512D01*
X210431117Y-129408893D01*
X210669212Y-129408893D01*
X210764450Y-129456512D01*
X210812069Y-129504131D01*
X210859688Y-129599369D01*
X210859688Y-129837464D01*
X210812069Y-129932702D01*
X210764450Y-129980321D01*
X210669212Y-130027940D01*
X210431117Y-130027940D01*
X210335879Y-129980321D01*
X210288260Y-129932702D01*
X211288260Y-130027940D02*
X211288260Y-129361274D01*
X211288260Y-129456512D02*
X211335879Y-129408893D01*
X211431117Y-129361274D01*
X211573974Y-129361274D01*
X211669212Y-129408893D01*
X211716831Y-129504131D01*
X211716831Y-130027940D01*
X211716831Y-129504131D02*
X211764450Y-129408893D01*
X211859688Y-129361274D01*
X212002545Y-129361274D01*
X212097783Y-129408893D01*
X212145402Y-129504131D01*
X212145402Y-130027940D01*
X212621593Y-130027940D02*
X212621593Y-129361274D01*
X212621593Y-129456512D02*
X212669212Y-129408893D01*
X212764450Y-129361274D01*
X212907307Y-129361274D01*
X213002545Y-129408893D01*
X213050164Y-129504131D01*
X213050164Y-130027940D01*
X213050164Y-129504131D02*
X213097783Y-129408893D01*
X213193021Y-129361274D01*
X213335879Y-129361274D01*
X213431117Y-129408893D01*
X213478736Y-129504131D01*
X213478736Y-130027940D01*
X216046104Y-134980940D02*
X216046104Y-133980940D01*
X216427057Y-133980940D01*
X216522295Y-134028560D01*
X216569914Y-134076179D01*
X216617533Y-134171417D01*
X216617533Y-134314274D01*
X216569914Y-134409512D01*
X216522295Y-134457131D01*
X216427057Y-134504750D01*
X216046104Y-134504750D01*
X217569914Y-134980940D02*
X216998485Y-134980940D01*
X217284200Y-134980940D02*
X217284200Y-133980940D01*
X217188961Y-134123798D01*
X217093723Y-134219036D01*
X216998485Y-134266655D01*
D12*
X247748514Y-149447411D02*
X247791371Y-149461697D01*
X247805657Y-149475982D01*
X247819942Y-149504554D01*
X247819942Y-149547411D01*
X247805657Y-149575982D01*
X247791371Y-149590268D01*
X247762800Y-149604554D01*
X247648514Y-149604554D01*
X247648514Y-149304554D01*
X247748514Y-149304554D01*
X247777085Y-149318840D01*
X247791371Y-149333125D01*
X247805657Y-149361697D01*
X247805657Y-149390268D01*
X247791371Y-149418840D01*
X247777085Y-149433125D01*
X247748514Y-149447411D01*
X247648514Y-149447411D01*
X247948514Y-149604554D02*
X247948514Y-149304554D01*
X248048514Y-149518840D01*
X248148514Y-149304554D01*
X248148514Y-149604554D01*
X248291371Y-149447411D02*
X248391371Y-149447411D01*
X248434228Y-149604554D02*
X248291371Y-149604554D01*
X248291371Y-149304554D01*
X248434228Y-149304554D01*
X248548514Y-149333125D02*
X248562800Y-149318840D01*
X248591371Y-149304554D01*
X248662800Y-149304554D01*
X248691371Y-149318840D01*
X248705657Y-149333125D01*
X248719942Y-149361697D01*
X248719942Y-149390268D01*
X248705657Y-149433125D01*
X248534228Y-149604554D01*
X248719942Y-149604554D01*
X248891371Y-149433125D02*
X248862800Y-149418840D01*
X248848514Y-149404554D01*
X248834228Y-149375982D01*
X248834228Y-149361697D01*
X248848514Y-149333125D01*
X248862800Y-149318840D01*
X248891371Y-149304554D01*
X248948514Y-149304554D01*
X248977085Y-149318840D01*
X248991371Y-149333125D01*
X249005657Y-149361697D01*
X249005657Y-149375982D01*
X248991371Y-149404554D01*
X248977085Y-149418840D01*
X248948514Y-149433125D01*
X248891371Y-149433125D01*
X248862800Y-149447411D01*
X248848514Y-149461697D01*
X248834228Y-149490268D01*
X248834228Y-149547411D01*
X248848514Y-149575982D01*
X248862800Y-149590268D01*
X248891371Y-149604554D01*
X248948514Y-149604554D01*
X248977085Y-149590268D01*
X248991371Y-149575982D01*
X249005657Y-149547411D01*
X249005657Y-149490268D01*
X248991371Y-149461697D01*
X248977085Y-149447411D01*
X248948514Y-149433125D01*
X249191371Y-149304554D02*
X249219942Y-149304554D01*
X249248514Y-149318840D01*
X249262800Y-149333125D01*
X249277085Y-149361697D01*
X249291371Y-149418840D01*
X249291371Y-149490268D01*
X249277085Y-149547411D01*
X249262800Y-149575982D01*
X249248514Y-149590268D01*
X249219942Y-149604554D01*
X249191371Y-149604554D01*
X249162800Y-149590268D01*
X249148514Y-149575982D01*
X249134228Y-149547411D01*
X249119942Y-149490268D01*
X249119942Y-149418840D01*
X249134228Y-149361697D01*
X249148514Y-149333125D01*
X249162800Y-149318840D01*
X249191371Y-149304554D01*
X248119047Y-148426190D02*
X248119047Y-148830952D01*
X248142857Y-148878571D01*
X248166666Y-148902380D01*
X248214285Y-148926190D01*
X248309523Y-148926190D01*
X248357142Y-148902380D01*
X248380952Y-148878571D01*
X248404761Y-148830952D01*
X248404761Y-148426190D01*
X248904761Y-148926190D02*
X248619047Y-148926190D01*
X248761904Y-148926190D02*
X248761904Y-148426190D01*
X248714285Y-148497619D01*
X248666666Y-148545238D01*
X248619047Y-148569047D01*
D11*
X178427383Y-132458151D02*
X178760717Y-132458151D01*
X178903574Y-132981960D02*
X178427383Y-132981960D01*
X178427383Y-131981960D01*
X178903574Y-131981960D01*
X179236907Y-132981960D02*
X179760717Y-132315294D01*
X179236907Y-132315294D02*
X179760717Y-132981960D01*
X179998812Y-132315294D02*
X180379764Y-132315294D01*
X180141669Y-131981960D02*
X180141669Y-132839103D01*
X180189288Y-132934341D01*
X180284526Y-132981960D01*
X180379764Y-132981960D01*
X181998812Y-132029580D02*
X181903574Y-131981960D01*
X181760717Y-131981960D01*
X181617860Y-132029580D01*
X181522621Y-132124818D01*
X181475002Y-132220056D01*
X181427383Y-132410532D01*
X181427383Y-132553389D01*
X181475002Y-132743865D01*
X181522621Y-132839103D01*
X181617860Y-132934341D01*
X181760717Y-132981960D01*
X181855955Y-132981960D01*
X181998812Y-132934341D01*
X182046431Y-132886722D01*
X182046431Y-132553389D01*
X181855955Y-132553389D01*
X182475002Y-132981960D02*
X182475002Y-131981960D01*
X182855955Y-131981960D01*
X182951193Y-132029580D01*
X182998812Y-132077199D01*
X183046431Y-132172437D01*
X183046431Y-132315294D01*
X182998812Y-132410532D01*
X182951193Y-132458151D01*
X182855955Y-132505770D01*
X182475002Y-132505770D01*
X183427383Y-132934341D02*
X183570240Y-132981960D01*
X183808336Y-132981960D01*
X183903574Y-132934341D01*
X183951193Y-132886722D01*
X183998812Y-132791484D01*
X183998812Y-132696246D01*
X183951193Y-132601008D01*
X183903574Y-132553389D01*
X183808336Y-132505770D01*
X183617860Y-132458151D01*
X183522621Y-132410532D01*
X183475002Y-132362913D01*
X183427383Y-132267675D01*
X183427383Y-132172437D01*
X183475002Y-132077199D01*
X183522621Y-132029580D01*
X183617860Y-131981960D01*
X183855955Y-131981960D01*
X183998812Y-132029580D01*
X185617860Y-132981960D02*
X185617860Y-132458151D01*
X185570240Y-132362913D01*
X185475002Y-132315294D01*
X185284526Y-132315294D01*
X185189288Y-132362913D01*
X185617860Y-132934341D02*
X185522621Y-132981960D01*
X185284526Y-132981960D01*
X185189288Y-132934341D01*
X185141669Y-132839103D01*
X185141669Y-132743865D01*
X185189288Y-132648627D01*
X185284526Y-132601008D01*
X185522621Y-132601008D01*
X185617860Y-132553389D01*
X186094050Y-132315294D02*
X186094050Y-132981960D01*
X186094050Y-132410532D02*
X186141669Y-132362913D01*
X186236907Y-132315294D01*
X186379764Y-132315294D01*
X186475002Y-132362913D01*
X186522621Y-132458151D01*
X186522621Y-132981960D01*
X186855955Y-132315294D02*
X187236907Y-132315294D01*
X186998812Y-131981960D02*
X186998812Y-132839103D01*
X187046431Y-132934341D01*
X187141669Y-132981960D01*
X187236907Y-132981960D01*
X187951193Y-132934341D02*
X187855955Y-132981960D01*
X187665479Y-132981960D01*
X187570240Y-132934341D01*
X187522621Y-132839103D01*
X187522621Y-132458151D01*
X187570240Y-132362913D01*
X187665479Y-132315294D01*
X187855955Y-132315294D01*
X187951193Y-132362913D01*
X187998812Y-132458151D01*
X187998812Y-132553389D01*
X187522621Y-132648627D01*
X188427383Y-132315294D02*
X188427383Y-132981960D01*
X188427383Y-132410532D02*
X188475002Y-132362913D01*
X188570240Y-132315294D01*
X188713098Y-132315294D01*
X188808336Y-132362913D01*
X188855955Y-132458151D01*
X188855955Y-132981960D01*
X189332145Y-132315294D02*
X189332145Y-132981960D01*
X189332145Y-132410532D02*
X189379764Y-132362913D01*
X189475002Y-132315294D01*
X189617860Y-132315294D01*
X189713098Y-132362913D01*
X189760717Y-132458151D01*
X189760717Y-132981960D01*
X190665479Y-132981960D02*
X190665479Y-132458151D01*
X190617860Y-132362913D01*
X190522621Y-132315294D01*
X190332145Y-132315294D01*
X190236907Y-132362913D01*
X190665479Y-132934341D02*
X190570240Y-132981960D01*
X190332145Y-132981960D01*
X190236907Y-132934341D01*
X190189288Y-132839103D01*
X190189288Y-132743865D01*
X190236907Y-132648627D01*
X190332145Y-132601008D01*
X190570240Y-132601008D01*
X190665479Y-132553389D01*
X192332145Y-132934341D02*
X192236907Y-132981960D01*
X192046431Y-132981960D01*
X191951193Y-132934341D01*
X191903574Y-132886722D01*
X191855955Y-132791484D01*
X191855955Y-132505770D01*
X191903574Y-132410532D01*
X191951193Y-132362913D01*
X192046431Y-132315294D01*
X192236907Y-132315294D01*
X192332145Y-132362913D01*
X192903574Y-132981960D02*
X192808336Y-132934341D01*
X192760717Y-132886722D01*
X192713098Y-132791484D01*
X192713098Y-132505770D01*
X192760717Y-132410532D01*
X192808336Y-132362913D01*
X192903574Y-132315294D01*
X193046431Y-132315294D01*
X193141669Y-132362913D01*
X193189288Y-132410532D01*
X193236907Y-132505770D01*
X193236907Y-132791484D01*
X193189288Y-132886722D01*
X193141669Y-132934341D01*
X193046431Y-132981960D01*
X192903574Y-132981960D01*
X193665479Y-132315294D02*
X193665479Y-132981960D01*
X193665479Y-132410532D02*
X193713098Y-132362913D01*
X193808336Y-132315294D01*
X193951193Y-132315294D01*
X194046431Y-132362913D01*
X194094050Y-132458151D01*
X194094050Y-132981960D01*
X194570240Y-132315294D02*
X194570240Y-132981960D01*
X194570240Y-132410532D02*
X194617860Y-132362913D01*
X194713098Y-132315294D01*
X194855955Y-132315294D01*
X194951193Y-132362913D01*
X194998812Y-132458151D01*
X194998812Y-132981960D01*
X195855955Y-132934341D02*
X195760717Y-132981960D01*
X195570240Y-132981960D01*
X195475002Y-132934341D01*
X195427383Y-132839103D01*
X195427383Y-132458151D01*
X195475002Y-132362913D01*
X195570240Y-132315294D01*
X195760717Y-132315294D01*
X195855955Y-132362913D01*
X195903574Y-132458151D01*
X195903574Y-132553389D01*
X195427383Y-132648627D01*
X196760717Y-132934341D02*
X196665479Y-132981960D01*
X196475002Y-132981960D01*
X196379764Y-132934341D01*
X196332145Y-132886722D01*
X196284526Y-132791484D01*
X196284526Y-132505770D01*
X196332145Y-132410532D01*
X196379764Y-132362913D01*
X196475002Y-132315294D01*
X196665479Y-132315294D01*
X196760717Y-132362913D01*
X197046431Y-132315294D02*
X197427383Y-132315294D01*
X197189288Y-131981960D02*
X197189288Y-132839103D01*
X197236907Y-132934341D01*
X197332145Y-132981960D01*
X197427383Y-132981960D01*
X197903574Y-132981960D02*
X197808336Y-132934341D01*
X197760717Y-132886722D01*
X197713098Y-132791484D01*
X197713098Y-132505770D01*
X197760717Y-132410532D01*
X197808336Y-132362913D01*
X197903574Y-132315294D01*
X198046431Y-132315294D01*
X198141669Y-132362913D01*
X198189288Y-132410532D01*
X198236907Y-132505770D01*
X198236907Y-132791484D01*
X198189288Y-132886722D01*
X198141669Y-132934341D01*
X198046431Y-132981960D01*
X197903574Y-132981960D01*
X198665479Y-132981960D02*
X198665479Y-132315294D01*
X198665479Y-132505770D02*
X198713098Y-132410532D01*
X198760717Y-132362913D01*
X198855955Y-132315294D01*
X198951193Y-132315294D01*
X219868380Y-147551333D02*
X220582666Y-147551333D01*
X220725523Y-147598952D01*
X220820761Y-147694190D01*
X220868380Y-147837047D01*
X220868380Y-147932285D01*
X220868380Y-146551333D02*
X220868380Y-147122761D01*
X220868380Y-146837047D02*
X219868380Y-146837047D01*
X220011238Y-146932285D01*
X220106476Y-147027523D01*
X220154095Y-147122761D01*
X230347664Y-133698240D02*
X230347664Y-132698240D01*
X230728617Y-132698240D01*
X230823855Y-132745860D01*
X230871474Y-132793479D01*
X230919093Y-132888717D01*
X230919093Y-133031574D01*
X230871474Y-133126812D01*
X230823855Y-133174431D01*
X230728617Y-133222050D01*
X230347664Y-133222050D01*
X231347664Y-133698240D02*
X231347664Y-133031574D01*
X231347664Y-132698240D02*
X231300045Y-132745860D01*
X231347664Y-132793479D01*
X231395283Y-132745860D01*
X231347664Y-132698240D01*
X231347664Y-132793479D01*
X231823855Y-133031574D02*
X231823855Y-133698240D01*
X231823855Y-133126812D02*
X231871474Y-133079193D01*
X231966712Y-133031574D01*
X232109569Y-133031574D01*
X232204807Y-133079193D01*
X232252426Y-133174431D01*
X232252426Y-133698240D01*
X232728617Y-133698240D02*
X232728617Y-132698240D01*
X232728617Y-133174431D02*
X233300045Y-133174431D01*
X233300045Y-133698240D02*
X233300045Y-132698240D01*
X234157188Y-133650621D02*
X234061950Y-133698240D01*
X233871474Y-133698240D01*
X233776236Y-133650621D01*
X233728617Y-133555383D01*
X233728617Y-133174431D01*
X233776236Y-133079193D01*
X233871474Y-133031574D01*
X234061950Y-133031574D01*
X234157188Y-133079193D01*
X234204807Y-133174431D01*
X234204807Y-133269669D01*
X233728617Y-133364907D01*
X235061950Y-133698240D02*
X235061950Y-133174431D01*
X235014331Y-133079193D01*
X234919093Y-133031574D01*
X234728617Y-133031574D01*
X234633379Y-133079193D01*
X235061950Y-133650621D02*
X234966712Y-133698240D01*
X234728617Y-133698240D01*
X234633379Y-133650621D01*
X234585760Y-133555383D01*
X234585760Y-133460145D01*
X234633379Y-133364907D01*
X234728617Y-133317288D01*
X234966712Y-133317288D01*
X235061950Y-133269669D01*
X235966712Y-133698240D02*
X235966712Y-132698240D01*
X235966712Y-133650621D02*
X235871474Y-133698240D01*
X235680998Y-133698240D01*
X235585760Y-133650621D01*
X235538140Y-133603002D01*
X235490521Y-133507764D01*
X235490521Y-133222050D01*
X235538140Y-133126812D01*
X235585760Y-133079193D01*
X235680998Y-133031574D01*
X235871474Y-133031574D01*
X235966712Y-133079193D01*
X236823855Y-133650621D02*
X236728617Y-133698240D01*
X236538140Y-133698240D01*
X236442902Y-133650621D01*
X236395283Y-133555383D01*
X236395283Y-133174431D01*
X236442902Y-133079193D01*
X236538140Y-133031574D01*
X236728617Y-133031574D01*
X236823855Y-133079193D01*
X236871474Y-133174431D01*
X236871474Y-133269669D01*
X236395283Y-133364907D01*
X237300045Y-133698240D02*
X237300045Y-133031574D01*
X237300045Y-133222050D02*
X237347664Y-133126812D01*
X237395283Y-133079193D01*
X237490521Y-133031574D01*
X237585760Y-133031574D01*
X237680998Y-133793479D02*
X238442902Y-133793479D01*
X238871474Y-132698240D02*
X238966712Y-132698240D01*
X239061950Y-132745860D01*
X239109569Y-132793479D01*
X239157188Y-132888717D01*
X239204807Y-133079193D01*
X239204807Y-133317288D01*
X239157188Y-133507764D01*
X239109569Y-133603002D01*
X239061950Y-133650621D01*
X238966712Y-133698240D01*
X238871474Y-133698240D01*
X238776236Y-133650621D01*
X238728617Y-133603002D01*
X238680998Y-133507764D01*
X238633379Y-133317288D01*
X238633379Y-133079193D01*
X238680998Y-132888717D01*
X238728617Y-132793479D01*
X238776236Y-132745860D01*
X238871474Y-132698240D01*
X240157188Y-133698240D02*
X239585760Y-133698240D01*
X239871474Y-133698240D02*
X239871474Y-132698240D01*
X239776236Y-132841098D01*
X239680998Y-132936336D01*
X239585760Y-132983955D01*
X240490521Y-133698240D02*
X241014331Y-133031574D01*
X240490521Y-133031574D02*
X241014331Y-133698240D01*
X241919093Y-133698240D02*
X241347664Y-133698240D01*
X241633379Y-133698240D02*
X241633379Y-132698240D01*
X241538140Y-132841098D01*
X241442902Y-132936336D01*
X241347664Y-132983955D01*
X242300045Y-132793479D02*
X242347664Y-132745860D01*
X242442902Y-132698240D01*
X242680998Y-132698240D01*
X242776236Y-132745860D01*
X242823855Y-132793479D01*
X242871474Y-132888717D01*
X242871474Y-132983955D01*
X242823855Y-133126812D01*
X242252426Y-133698240D01*
X242871474Y-133698240D01*
X244141666Y-132675380D02*
X244141666Y-133389666D01*
X244094047Y-133532523D01*
X243998809Y-133627761D01*
X243855952Y-133675380D01*
X243760714Y-133675380D01*
X244570238Y-132770619D02*
X244617857Y-132723000D01*
X244713095Y-132675380D01*
X244951190Y-132675380D01*
X245046428Y-132723000D01*
X245094047Y-132770619D01*
X245141666Y-132865857D01*
X245141666Y-132961095D01*
X245094047Y-133103952D01*
X244522619Y-133675380D01*
X245141666Y-133675380D01*
X222008844Y-153992840D02*
X222008844Y-152992840D01*
X222389797Y-152992840D01*
X222485035Y-153040460D01*
X222532654Y-153088079D01*
X222580273Y-153183317D01*
X222580273Y-153326174D01*
X222532654Y-153421412D01*
X222485035Y-153469031D01*
X222389797Y-153516650D01*
X222008844Y-153516650D01*
X223008844Y-153992840D02*
X223008844Y-153326174D01*
X223008844Y-152992840D02*
X222961225Y-153040460D01*
X223008844Y-153088079D01*
X223056463Y-153040460D01*
X223008844Y-152992840D01*
X223008844Y-153088079D01*
X223485035Y-153326174D02*
X223485035Y-153992840D01*
X223485035Y-153421412D02*
X223532654Y-153373793D01*
X223627892Y-153326174D01*
X223770749Y-153326174D01*
X223865987Y-153373793D01*
X223913606Y-153469031D01*
X223913606Y-153992840D01*
X224389797Y-153992840D02*
X224389797Y-152992840D01*
X224389797Y-153469031D02*
X224961225Y-153469031D01*
X224961225Y-153992840D02*
X224961225Y-152992840D01*
X225818368Y-153945221D02*
X225723130Y-153992840D01*
X225532654Y-153992840D01*
X225437416Y-153945221D01*
X225389797Y-153849983D01*
X225389797Y-153469031D01*
X225437416Y-153373793D01*
X225532654Y-153326174D01*
X225723130Y-153326174D01*
X225818368Y-153373793D01*
X225865987Y-153469031D01*
X225865987Y-153564269D01*
X225389797Y-153659507D01*
X226723130Y-153992840D02*
X226723130Y-153469031D01*
X226675511Y-153373793D01*
X226580273Y-153326174D01*
X226389797Y-153326174D01*
X226294559Y-153373793D01*
X226723130Y-153945221D02*
X226627892Y-153992840D01*
X226389797Y-153992840D01*
X226294559Y-153945221D01*
X226246940Y-153849983D01*
X226246940Y-153754745D01*
X226294559Y-153659507D01*
X226389797Y-153611888D01*
X226627892Y-153611888D01*
X226723130Y-153564269D01*
X227627892Y-153992840D02*
X227627892Y-152992840D01*
X227627892Y-153945221D02*
X227532654Y-153992840D01*
X227342178Y-153992840D01*
X227246940Y-153945221D01*
X227199320Y-153897602D01*
X227151701Y-153802364D01*
X227151701Y-153516650D01*
X227199320Y-153421412D01*
X227246940Y-153373793D01*
X227342178Y-153326174D01*
X227532654Y-153326174D01*
X227627892Y-153373793D01*
X228485035Y-153945221D02*
X228389797Y-153992840D01*
X228199320Y-153992840D01*
X228104082Y-153945221D01*
X228056463Y-153849983D01*
X228056463Y-153469031D01*
X228104082Y-153373793D01*
X228199320Y-153326174D01*
X228389797Y-153326174D01*
X228485035Y-153373793D01*
X228532654Y-153469031D01*
X228532654Y-153564269D01*
X228056463Y-153659507D01*
X228961225Y-153992840D02*
X228961225Y-153326174D01*
X228961225Y-153516650D02*
X229008844Y-153421412D01*
X229056463Y-153373793D01*
X229151701Y-153326174D01*
X229246940Y-153326174D01*
X229342178Y-154088079D02*
X230104082Y-154088079D01*
X230532654Y-152992840D02*
X230627892Y-152992840D01*
X230723130Y-153040460D01*
X230770749Y-153088079D01*
X230818368Y-153183317D01*
X230865987Y-153373793D01*
X230865987Y-153611888D01*
X230818368Y-153802364D01*
X230770749Y-153897602D01*
X230723130Y-153945221D01*
X230627892Y-153992840D01*
X230532654Y-153992840D01*
X230437416Y-153945221D01*
X230389797Y-153897602D01*
X230342178Y-153802364D01*
X230294559Y-153611888D01*
X230294559Y-153373793D01*
X230342178Y-153183317D01*
X230389797Y-153088079D01*
X230437416Y-153040460D01*
X230532654Y-152992840D01*
X231818368Y-153992840D02*
X231246940Y-153992840D01*
X231532654Y-153992840D02*
X231532654Y-152992840D01*
X231437416Y-153135698D01*
X231342178Y-153230936D01*
X231246940Y-153278555D01*
X232151701Y-153992840D02*
X232675511Y-153326174D01*
X232151701Y-153326174D02*
X232675511Y-153992840D01*
X233580273Y-153992840D02*
X233008844Y-153992840D01*
X233294559Y-153992840D02*
X233294559Y-152992840D01*
X233199320Y-153135698D01*
X233104082Y-153230936D01*
X233008844Y-153278555D01*
X234437416Y-152992840D02*
X234246940Y-152992840D01*
X234151701Y-153040460D01*
X234104082Y-153088079D01*
X234008844Y-153230936D01*
X233961225Y-153421412D01*
X233961225Y-153802364D01*
X234008844Y-153897602D01*
X234056463Y-153945221D01*
X234151701Y-153992840D01*
X234342178Y-153992840D01*
X234437416Y-153945221D01*
X234485035Y-153897602D01*
X234532654Y-153802364D01*
X234532654Y-153564269D01*
X234485035Y-153469031D01*
X234437416Y-153421412D01*
X234342178Y-153373793D01*
X234151701Y-153373793D01*
X234056463Y-153421412D01*
X234008844Y-153469031D01*
X233961225Y-153564269D01*
X239061666Y-152995380D02*
X239061666Y-153709666D01*
X239014047Y-153852523D01*
X238918809Y-153947761D01*
X238775952Y-153995380D01*
X238680714Y-153995380D01*
X239442619Y-152995380D02*
X240061666Y-152995380D01*
X239728333Y-153376333D01*
X239871190Y-153376333D01*
X239966428Y-153423952D01*
X240014047Y-153471571D01*
X240061666Y-153566809D01*
X240061666Y-153804904D01*
X240014047Y-153900142D01*
X239966428Y-153947761D01*
X239871190Y-153995380D01*
X239585476Y-153995380D01*
X239490238Y-153947761D01*
X239442619Y-153900142D01*
D12*
X247293291Y-145395505D02*
X247307577Y-145352648D01*
X247321862Y-145338362D01*
X247350434Y-145324077D01*
X247393291Y-145324077D01*
X247421862Y-145338362D01*
X247436148Y-145352648D01*
X247450434Y-145381220D01*
X247450434Y-145495505D01*
X247150434Y-145495505D01*
X247150434Y-145395505D01*
X247164720Y-145366934D01*
X247179005Y-145352648D01*
X247207577Y-145338362D01*
X247236148Y-145338362D01*
X247264720Y-145352648D01*
X247279005Y-145366934D01*
X247293291Y-145395505D01*
X247293291Y-145495505D01*
X247421862Y-145024077D02*
X247436148Y-145038362D01*
X247450434Y-145081220D01*
X247450434Y-145109791D01*
X247436148Y-145152648D01*
X247407577Y-145181220D01*
X247379005Y-145195505D01*
X247321862Y-145209791D01*
X247279005Y-145209791D01*
X247221862Y-145195505D01*
X247193291Y-145181220D01*
X247164720Y-145152648D01*
X247150434Y-145109791D01*
X247150434Y-145081220D01*
X247164720Y-145038362D01*
X247179005Y-145024077D01*
X247279005Y-144852648D02*
X247264720Y-144881220D01*
X247250434Y-144895505D01*
X247221862Y-144909791D01*
X247207577Y-144909791D01*
X247179005Y-144895505D01*
X247164720Y-144881220D01*
X247150434Y-144852648D01*
X247150434Y-144795505D01*
X247164720Y-144766934D01*
X247179005Y-144752648D01*
X247207577Y-144738362D01*
X247221862Y-144738362D01*
X247250434Y-144752648D01*
X247264720Y-144766934D01*
X247279005Y-144795505D01*
X247279005Y-144852648D01*
X247293291Y-144881220D01*
X247307577Y-144895505D01*
X247336148Y-144909791D01*
X247393291Y-144909791D01*
X247421862Y-144895505D01*
X247436148Y-144881220D01*
X247450434Y-144852648D01*
X247450434Y-144795505D01*
X247436148Y-144766934D01*
X247421862Y-144752648D01*
X247393291Y-144738362D01*
X247336148Y-144738362D01*
X247307577Y-144752648D01*
X247293291Y-144766934D01*
X247279005Y-144795505D01*
X247250434Y-144481220D02*
X247450434Y-144481220D01*
X247136148Y-144552648D02*
X247350434Y-144624077D01*
X247350434Y-144438362D01*
X247150434Y-144195505D02*
X247150434Y-144252648D01*
X247164720Y-144281220D01*
X247179005Y-144295505D01*
X247221862Y-144324077D01*
X247279005Y-144338362D01*
X247393291Y-144338362D01*
X247421862Y-144324077D01*
X247436148Y-144309791D01*
X247450434Y-144281220D01*
X247450434Y-144224077D01*
X247436148Y-144195505D01*
X247421862Y-144181220D01*
X247393291Y-144166934D01*
X247321862Y-144166934D01*
X247293291Y-144181220D01*
X247279005Y-144195505D01*
X247264720Y-144224077D01*
X247264720Y-144281220D01*
X247279005Y-144309791D01*
X247293291Y-144324077D01*
X247321862Y-144338362D01*
X247293291Y-143938362D02*
X247307577Y-143895505D01*
X247321862Y-143881220D01*
X247350434Y-143866934D01*
X247393291Y-143866934D01*
X247421862Y-143881220D01*
X247436148Y-143895505D01*
X247450434Y-143924077D01*
X247450434Y-144038362D01*
X247150434Y-144038362D01*
X247150434Y-143938362D01*
X247164720Y-143909791D01*
X247179005Y-143895505D01*
X247207577Y-143881220D01*
X247236148Y-143881220D01*
X247264720Y-143895505D01*
X247279005Y-143909791D01*
X247293291Y-143938362D01*
X247293291Y-144038362D01*
X247450434Y-143738362D02*
X247150434Y-143738362D01*
X247150434Y-143624077D01*
X247164720Y-143595505D01*
X247179005Y-143581220D01*
X247207577Y-143566934D01*
X247250434Y-143566934D01*
X247279005Y-143581220D01*
X247293291Y-143595505D01*
X247307577Y-143624077D01*
X247307577Y-143738362D01*
X247450434Y-143438362D02*
X247150434Y-143438362D01*
X247450434Y-143266934D01*
X247150434Y-143266934D01*
X248803809Y-144407619D02*
X248780000Y-144455238D01*
X248732380Y-144502857D01*
X248660952Y-144574285D01*
X248637142Y-144621904D01*
X248637142Y-144669523D01*
X248756190Y-144645714D02*
X248732380Y-144693333D01*
X248684761Y-144740952D01*
X248589523Y-144764761D01*
X248422857Y-144764761D01*
X248327619Y-144740952D01*
X248280000Y-144693333D01*
X248256190Y-144645714D01*
X248256190Y-144550476D01*
X248280000Y-144502857D01*
X248327619Y-144455238D01*
X248422857Y-144431428D01*
X248589523Y-144431428D01*
X248684761Y-144455238D01*
X248732380Y-144502857D01*
X248756190Y-144550476D01*
X248756190Y-144645714D01*
X248756190Y-143955238D02*
X248756190Y-144240952D01*
X248756190Y-144098095D02*
X248256190Y-144098095D01*
X248327619Y-144145714D01*
X248375238Y-144193333D01*
X248399047Y-144240952D01*
X248154494Y-141697534D02*
X248154494Y-141397534D01*
X248254494Y-141611820D01*
X248354494Y-141397534D01*
X248354494Y-141697534D01*
X248497351Y-141697534D02*
X248497351Y-141397534D01*
X248611637Y-141397534D01*
X248640208Y-141411820D01*
X248654494Y-141426105D01*
X248668780Y-141454677D01*
X248668780Y-141497534D01*
X248654494Y-141526105D01*
X248640208Y-141540391D01*
X248611637Y-141554677D01*
X248497351Y-141554677D01*
X248797351Y-141397534D02*
X248797351Y-141640391D01*
X248811637Y-141668962D01*
X248825922Y-141683248D01*
X248854494Y-141697534D01*
X248911637Y-141697534D01*
X248940208Y-141683248D01*
X248954494Y-141668962D01*
X248968780Y-141640391D01*
X248968780Y-141397534D01*
X249111637Y-141583248D02*
X249340208Y-141583248D01*
X249497351Y-141697534D02*
X249554494Y-141697534D01*
X249583065Y-141683248D01*
X249597351Y-141668962D01*
X249625922Y-141626105D01*
X249640208Y-141568962D01*
X249640208Y-141454677D01*
X249625922Y-141426105D01*
X249611637Y-141411820D01*
X249583065Y-141397534D01*
X249525922Y-141397534D01*
X249497351Y-141411820D01*
X249483065Y-141426105D01*
X249468780Y-141454677D01*
X249468780Y-141526105D01*
X249483065Y-141554677D01*
X249497351Y-141568962D01*
X249525922Y-141583248D01*
X249583065Y-141583248D01*
X249611637Y-141568962D01*
X249625922Y-141554677D01*
X249640208Y-141526105D01*
X249754494Y-141426105D02*
X249768780Y-141411820D01*
X249797351Y-141397534D01*
X249868780Y-141397534D01*
X249897351Y-141411820D01*
X249911637Y-141426105D01*
X249925922Y-141454677D01*
X249925922Y-141483248D01*
X249911637Y-141526105D01*
X249740208Y-141697534D01*
X249925922Y-141697534D01*
X250197351Y-141397534D02*
X250054494Y-141397534D01*
X250040208Y-141540391D01*
X250054494Y-141526105D01*
X250083065Y-141511820D01*
X250154494Y-141511820D01*
X250183065Y-141526105D01*
X250197351Y-141540391D01*
X250211637Y-141568962D01*
X250211637Y-141640391D01*
X250197351Y-141668962D01*
X250183065Y-141683248D01*
X250154494Y-141697534D01*
X250083065Y-141697534D01*
X250054494Y-141683248D01*
X250040208Y-141668962D01*
X250397351Y-141397534D02*
X250425922Y-141397534D01*
X250454494Y-141411820D01*
X250468780Y-141426105D01*
X250483065Y-141454677D01*
X250497351Y-141511820D01*
X250497351Y-141583248D01*
X250483065Y-141640391D01*
X250468780Y-141668962D01*
X250454494Y-141683248D01*
X250425922Y-141697534D01*
X250397351Y-141697534D01*
X250368780Y-141683248D01*
X250354494Y-141668962D01*
X250340208Y-141640391D01*
X250325922Y-141583248D01*
X250325922Y-141511820D01*
X250340208Y-141454677D01*
X250354494Y-141426105D01*
X250368780Y-141411820D01*
X250397351Y-141397534D01*
D13*
X248892666Y-140335333D02*
X249459333Y-140335333D01*
X249526000Y-140302000D01*
X249559333Y-140268666D01*
X249592666Y-140202000D01*
X249592666Y-140068666D01*
X249559333Y-140002000D01*
X249526000Y-139968666D01*
X249459333Y-139935333D01*
X248892666Y-139935333D01*
X248959333Y-139635333D02*
X248926000Y-139602000D01*
X248892666Y-139535333D01*
X248892666Y-139368666D01*
X248926000Y-139302000D01*
X248959333Y-139268666D01*
X249026000Y-139235333D01*
X249092666Y-139235333D01*
X249192666Y-139268666D01*
X249592666Y-139668666D01*
X249592666Y-139235333D01*
M02*
