G04 #@! TF.GenerationSoftware,KiCad,Pcbnew,(5.1.4)-1*
G04 #@! TF.CreationDate,2019-11-20T19:39:55+01:00*
G04 #@! TF.ProjectId,Open_Telemetry_digitalSensorShield,4f70656e-5f54-4656-9c65-6d657472795f,P1A_02 - Prototype manuf.*
G04 #@! TF.SameCoordinates,Original*
G04 #@! TF.FileFunction,Legend,Bot*
G04 #@! TF.FilePolarity,Positive*
%FSLAX46Y46*%
G04 Gerber Fmt 4.6, Leading zero omitted, Abs format (unit mm)*
G04 Created by KiCad (PCBNEW (5.1.4)-1) date 2019-11-20 19:39:55*
%MOMM*%
%LPD*%
G04 APERTURE LIST*
%ADD10C,0.120000*%
%ADD11C,0.150000*%
%ADD12C,0.100000*%
%ADD13C,0.125000*%
G04 APERTURE END LIST*
D10*
X215181180Y-151734520D02*
X220400880Y-151734520D01*
X215181180Y-151726900D02*
X215181180Y-151734520D01*
X215198960Y-147551140D02*
X215181180Y-151726900D01*
X220322140Y-147551140D02*
X215198960Y-147551140D01*
D11*
X239285133Y-142687000D02*
X239318466Y-142720333D01*
X239418466Y-142753666D01*
X239485133Y-142753666D01*
X239585133Y-142720333D01*
X239651800Y-142653666D01*
X239685133Y-142587000D01*
X239718466Y-142453666D01*
X239718466Y-142353666D01*
X239685133Y-142220333D01*
X239651800Y-142153666D01*
X239585133Y-142087000D01*
X239485133Y-142053666D01*
X239418466Y-142053666D01*
X239318466Y-142087000D01*
X239285133Y-142120333D01*
X238885133Y-142753666D02*
X238951800Y-142720333D01*
X238985133Y-142687000D01*
X239018466Y-142620333D01*
X239018466Y-142420333D01*
X238985133Y-142353666D01*
X238951800Y-142320333D01*
X238885133Y-142287000D01*
X238785133Y-142287000D01*
X238718466Y-142320333D01*
X238685133Y-142353666D01*
X238651800Y-142420333D01*
X238651800Y-142620333D01*
X238685133Y-142687000D01*
X238718466Y-142720333D01*
X238785133Y-142753666D01*
X238885133Y-142753666D01*
X238351800Y-142753666D02*
X238351800Y-142287000D01*
X238351800Y-142353666D02*
X238318466Y-142320333D01*
X238251800Y-142287000D01*
X238151800Y-142287000D01*
X238085133Y-142320333D01*
X238051800Y-142387000D01*
X238051800Y-142753666D01*
X238051800Y-142387000D02*
X238018466Y-142320333D01*
X237951800Y-142287000D01*
X237851800Y-142287000D01*
X237785133Y-142320333D01*
X237751800Y-142387000D01*
X237751800Y-142753666D01*
X237418466Y-142287000D02*
X237418466Y-142987000D01*
X237418466Y-142320333D02*
X237351800Y-142287000D01*
X237218466Y-142287000D01*
X237151800Y-142320333D01*
X237118466Y-142353666D01*
X237085133Y-142420333D01*
X237085133Y-142620333D01*
X237118466Y-142687000D01*
X237151800Y-142720333D01*
X237218466Y-142753666D01*
X237351800Y-142753666D01*
X237418466Y-142720333D01*
X236485133Y-142753666D02*
X236485133Y-142387000D01*
X236518466Y-142320333D01*
X236585133Y-142287000D01*
X236718466Y-142287000D01*
X236785133Y-142320333D01*
X236485133Y-142720333D02*
X236551800Y-142753666D01*
X236718466Y-142753666D01*
X236785133Y-142720333D01*
X236818466Y-142653666D01*
X236818466Y-142587000D01*
X236785133Y-142520333D01*
X236718466Y-142487000D01*
X236551800Y-142487000D01*
X236485133Y-142453666D01*
X236251800Y-142287000D02*
X235985133Y-142287000D01*
X236151800Y-142053666D02*
X236151800Y-142653666D01*
X236118466Y-142720333D01*
X236051800Y-142753666D01*
X235985133Y-142753666D01*
X235751800Y-142753666D02*
X235751800Y-142287000D01*
X235751800Y-142053666D02*
X235785133Y-142087000D01*
X235751800Y-142120333D01*
X235718466Y-142087000D01*
X235751800Y-142053666D01*
X235751800Y-142120333D01*
X235418466Y-142753666D02*
X235418466Y-142053666D01*
X235418466Y-142320333D02*
X235351800Y-142287000D01*
X235218466Y-142287000D01*
X235151800Y-142320333D01*
X235118466Y-142353666D01*
X235085133Y-142420333D01*
X235085133Y-142620333D01*
X235118466Y-142687000D01*
X235151800Y-142720333D01*
X235218466Y-142753666D01*
X235351800Y-142753666D01*
X235418466Y-142720333D01*
X234685133Y-142753666D02*
X234751800Y-142720333D01*
X234785133Y-142653666D01*
X234785133Y-142053666D01*
X234151800Y-142720333D02*
X234218466Y-142753666D01*
X234351800Y-142753666D01*
X234418466Y-142720333D01*
X234451800Y-142653666D01*
X234451800Y-142387000D01*
X234418466Y-142320333D01*
X234351800Y-142287000D01*
X234218466Y-142287000D01*
X234151800Y-142320333D01*
X234118466Y-142387000D01*
X234118466Y-142453666D01*
X234451800Y-142520333D01*
X233351800Y-142287000D02*
X233218466Y-142753666D01*
X233085133Y-142420333D01*
X232951800Y-142753666D01*
X232818466Y-142287000D01*
X232551800Y-142753666D02*
X232551800Y-142287000D01*
X232551800Y-142053666D02*
X232585133Y-142087000D01*
X232551800Y-142120333D01*
X232518466Y-142087000D01*
X232551800Y-142053666D01*
X232551800Y-142120333D01*
X232318466Y-142287000D02*
X232051800Y-142287000D01*
X232218466Y-142053666D02*
X232218466Y-142653666D01*
X232185133Y-142720333D01*
X232118466Y-142753666D01*
X232051800Y-142753666D01*
X231818466Y-142753666D02*
X231818466Y-142053666D01*
X231518466Y-142753666D02*
X231518466Y-142387000D01*
X231551800Y-142320333D01*
X231618466Y-142287000D01*
X231718466Y-142287000D01*
X231785133Y-142320333D01*
X231818466Y-142353666D01*
X230685133Y-142553666D02*
X230351800Y-142553666D01*
X230751800Y-142753666D02*
X230518466Y-142053666D01*
X230285133Y-142753666D01*
X229751800Y-142753666D02*
X229751800Y-142053666D01*
X229751800Y-142720333D02*
X229818466Y-142753666D01*
X229951800Y-142753666D01*
X230018466Y-142720333D01*
X230051800Y-142687000D01*
X230085133Y-142620333D01*
X230085133Y-142420333D01*
X230051800Y-142353666D01*
X230018466Y-142320333D01*
X229951800Y-142287000D01*
X229818466Y-142287000D01*
X229751800Y-142320333D01*
X229118466Y-142753666D02*
X229118466Y-142387000D01*
X229151800Y-142320333D01*
X229218466Y-142287000D01*
X229351800Y-142287000D01*
X229418466Y-142320333D01*
X229118466Y-142720333D02*
X229185133Y-142753666D01*
X229351800Y-142753666D01*
X229418466Y-142720333D01*
X229451800Y-142653666D01*
X229451800Y-142587000D01*
X229418466Y-142520333D01*
X229351800Y-142487000D01*
X229185133Y-142487000D01*
X229118466Y-142453666D01*
X228885133Y-142287000D02*
X228618466Y-142287000D01*
X228785133Y-142753666D02*
X228785133Y-142153666D01*
X228751800Y-142087000D01*
X228685133Y-142053666D01*
X228618466Y-142053666D01*
X228385133Y-142753666D02*
X228385133Y-142287000D01*
X228385133Y-142420333D02*
X228351800Y-142353666D01*
X228318466Y-142320333D01*
X228251800Y-142287000D01*
X228185133Y-142287000D01*
X227651800Y-142287000D02*
X227651800Y-142753666D01*
X227951800Y-142287000D02*
X227951800Y-142653666D01*
X227918466Y-142720333D01*
X227851800Y-142753666D01*
X227751800Y-142753666D01*
X227685133Y-142720333D01*
X227651800Y-142687000D01*
X227318466Y-142753666D02*
X227318466Y-142287000D01*
X227318466Y-142053666D02*
X227351800Y-142087000D01*
X227318466Y-142120333D01*
X227285133Y-142087000D01*
X227318466Y-142053666D01*
X227318466Y-142120333D01*
X227085133Y-142287000D02*
X226818466Y-142287000D01*
X226985133Y-142053666D02*
X226985133Y-142653666D01*
X226951800Y-142720333D01*
X226885133Y-142753666D01*
X226818466Y-142753666D01*
X226051800Y-142753666D02*
X226051800Y-142053666D01*
X226051800Y-142387000D02*
X225651800Y-142387000D01*
X225651800Y-142753666D02*
X225651800Y-142053666D01*
X225318466Y-142053666D02*
X225318466Y-142620333D01*
X225285133Y-142687000D01*
X225251800Y-142720333D01*
X225185133Y-142753666D01*
X225051800Y-142753666D01*
X224985133Y-142720333D01*
X224951800Y-142687000D01*
X224918466Y-142620333D01*
X224918466Y-142053666D01*
X224651800Y-142053666D02*
X224185133Y-142053666D01*
X224651800Y-142753666D01*
X224185133Y-142753666D01*
X223985133Y-142053666D02*
X223518466Y-142053666D01*
X223985133Y-142753666D01*
X223518466Y-142753666D01*
X223285133Y-142553666D02*
X222951800Y-142553666D01*
X223351800Y-142753666D02*
X223118466Y-142053666D01*
X222885133Y-142753666D01*
X222651800Y-142753666D02*
X222651800Y-142053666D01*
X222651800Y-142387000D02*
X222251800Y-142387000D01*
X222251800Y-142753666D02*
X222251800Y-142053666D01*
X221985133Y-142053666D02*
X221551800Y-142053666D01*
X221785133Y-142320333D01*
X221685133Y-142320333D01*
X221618466Y-142353666D01*
X221585133Y-142387000D01*
X221551800Y-142453666D01*
X221551800Y-142620333D01*
X221585133Y-142687000D01*
X221618466Y-142720333D01*
X221685133Y-142753666D01*
X221885133Y-142753666D01*
X221951800Y-142720333D01*
X221985133Y-142687000D01*
X221285133Y-142120333D02*
X221251800Y-142087000D01*
X221185133Y-142053666D01*
X221018466Y-142053666D01*
X220951800Y-142087000D01*
X220918466Y-142120333D01*
X220885133Y-142187000D01*
X220885133Y-142253666D01*
X220918466Y-142353666D01*
X221318466Y-142753666D01*
X220885133Y-142753666D01*
X235801800Y-143587000D02*
X235568466Y-143587000D01*
X235468466Y-143953666D02*
X235801800Y-143953666D01*
X235801800Y-143253666D01*
X235468466Y-143253666D01*
X235201800Y-143920333D02*
X235101800Y-143953666D01*
X234935133Y-143953666D01*
X234868466Y-143920333D01*
X234835133Y-143887000D01*
X234801800Y-143820333D01*
X234801800Y-143753666D01*
X234835133Y-143687000D01*
X234868466Y-143653666D01*
X234935133Y-143620333D01*
X235068466Y-143587000D01*
X235135133Y-143553666D01*
X235168466Y-143520333D01*
X235201800Y-143453666D01*
X235201800Y-143387000D01*
X235168466Y-143320333D01*
X235135133Y-143287000D01*
X235068466Y-143253666D01*
X234901800Y-143253666D01*
X234801800Y-143287000D01*
X234501800Y-143953666D02*
X234501800Y-143253666D01*
X234235133Y-143253666D01*
X234168466Y-143287000D01*
X234135133Y-143320333D01*
X234101800Y-143387000D01*
X234101800Y-143487000D01*
X234135133Y-143553666D01*
X234168466Y-143587000D01*
X234235133Y-143620333D01*
X234501800Y-143620333D01*
X233868466Y-143253666D02*
X233435133Y-143253666D01*
X233668466Y-143520333D01*
X233568466Y-143520333D01*
X233501800Y-143553666D01*
X233468466Y-143587000D01*
X233435133Y-143653666D01*
X233435133Y-143820333D01*
X233468466Y-143887000D01*
X233501800Y-143920333D01*
X233568466Y-143953666D01*
X233768466Y-143953666D01*
X233835133Y-143920333D01*
X233868466Y-143887000D01*
X233168466Y-143320333D02*
X233135133Y-143287000D01*
X233068466Y-143253666D01*
X232901800Y-143253666D01*
X232835133Y-143287000D01*
X232801800Y-143320333D01*
X232768466Y-143387000D01*
X232768466Y-143453666D01*
X232801800Y-143553666D01*
X233201800Y-143953666D01*
X232768466Y-143953666D01*
X231701800Y-143587000D02*
X231935133Y-143587000D01*
X231935133Y-143953666D02*
X231935133Y-143253666D01*
X231601800Y-143253666D01*
X231068466Y-143920333D02*
X231135133Y-143953666D01*
X231268466Y-143953666D01*
X231335133Y-143920333D01*
X231368466Y-143853666D01*
X231368466Y-143587000D01*
X231335133Y-143520333D01*
X231268466Y-143487000D01*
X231135133Y-143487000D01*
X231068466Y-143520333D01*
X231035133Y-143587000D01*
X231035133Y-143653666D01*
X231368466Y-143720333D01*
X230435133Y-143953666D02*
X230435133Y-143587000D01*
X230468466Y-143520333D01*
X230535133Y-143487000D01*
X230668466Y-143487000D01*
X230735133Y-143520333D01*
X230435133Y-143920333D02*
X230501800Y-143953666D01*
X230668466Y-143953666D01*
X230735133Y-143920333D01*
X230768466Y-143853666D01*
X230768466Y-143787000D01*
X230735133Y-143720333D01*
X230668466Y-143687000D01*
X230501800Y-143687000D01*
X230435133Y-143653666D01*
X230201800Y-143487000D02*
X229935133Y-143487000D01*
X230101800Y-143253666D02*
X230101800Y-143853666D01*
X230068466Y-143920333D01*
X230001800Y-143953666D01*
X229935133Y-143953666D01*
X229701800Y-143953666D02*
X229701800Y-143253666D01*
X229401800Y-143953666D02*
X229401800Y-143587000D01*
X229435133Y-143520333D01*
X229501800Y-143487000D01*
X229601800Y-143487000D01*
X229668466Y-143520333D01*
X229701800Y-143553666D01*
X228801800Y-143920333D02*
X228868466Y-143953666D01*
X229001800Y-143953666D01*
X229068466Y-143920333D01*
X229101800Y-143853666D01*
X229101800Y-143587000D01*
X229068466Y-143520333D01*
X229001800Y-143487000D01*
X228868466Y-143487000D01*
X228801800Y-143520333D01*
X228768466Y-143587000D01*
X228768466Y-143653666D01*
X229101800Y-143720333D01*
X228468466Y-143953666D02*
X228468466Y-143487000D01*
X228468466Y-143620333D02*
X228435133Y-143553666D01*
X228401800Y-143520333D01*
X228335133Y-143487000D01*
X228268466Y-143487000D01*
X227268466Y-143587000D02*
X227168466Y-143620333D01*
X227135133Y-143653666D01*
X227101800Y-143720333D01*
X227101800Y-143820333D01*
X227135133Y-143887000D01*
X227168466Y-143920333D01*
X227235133Y-143953666D01*
X227501800Y-143953666D01*
X227501800Y-143253666D01*
X227268466Y-143253666D01*
X227201800Y-143287000D01*
X227168466Y-143320333D01*
X227135133Y-143387000D01*
X227135133Y-143453666D01*
X227168466Y-143520333D01*
X227201800Y-143553666D01*
X227268466Y-143587000D01*
X227501800Y-143587000D01*
X226701800Y-143953666D02*
X226768466Y-143920333D01*
X226801800Y-143887000D01*
X226835133Y-143820333D01*
X226835133Y-143620333D01*
X226801800Y-143553666D01*
X226768466Y-143520333D01*
X226701800Y-143487000D01*
X226601800Y-143487000D01*
X226535133Y-143520333D01*
X226501800Y-143553666D01*
X226468466Y-143620333D01*
X226468466Y-143820333D01*
X226501800Y-143887000D01*
X226535133Y-143920333D01*
X226601800Y-143953666D01*
X226701800Y-143953666D01*
X225868466Y-143953666D02*
X225868466Y-143587000D01*
X225901800Y-143520333D01*
X225968466Y-143487000D01*
X226101800Y-143487000D01*
X226168466Y-143520333D01*
X225868466Y-143920333D02*
X225935133Y-143953666D01*
X226101800Y-143953666D01*
X226168466Y-143920333D01*
X226201800Y-143853666D01*
X226201800Y-143787000D01*
X226168466Y-143720333D01*
X226101800Y-143687000D01*
X225935133Y-143687000D01*
X225868466Y-143653666D01*
X225535133Y-143953666D02*
X225535133Y-143487000D01*
X225535133Y-143620333D02*
X225501800Y-143553666D01*
X225468466Y-143520333D01*
X225401800Y-143487000D01*
X225335133Y-143487000D01*
X224801800Y-143953666D02*
X224801800Y-143253666D01*
X224801800Y-143920333D02*
X224868466Y-143953666D01*
X225001800Y-143953666D01*
X225068466Y-143920333D01*
X225101800Y-143887000D01*
X225135133Y-143820333D01*
X225135133Y-143620333D01*
X225101800Y-143553666D01*
X225068466Y-143520333D01*
X225001800Y-143487000D01*
X224868466Y-143487000D01*
X224801800Y-143520333D01*
X240968466Y-145153666D02*
X240968466Y-144453666D01*
X240668466Y-145153666D02*
X240668466Y-144787000D01*
X240701800Y-144720333D01*
X240768466Y-144687000D01*
X240868466Y-144687000D01*
X240935133Y-144720333D01*
X240968466Y-144753666D01*
X240435133Y-144687000D02*
X240168466Y-144687000D01*
X240335133Y-144453666D02*
X240335133Y-145053666D01*
X240301800Y-145120333D01*
X240235133Y-145153666D01*
X240168466Y-145153666D01*
X240035133Y-144687000D02*
X239768466Y-144687000D01*
X239935133Y-144453666D02*
X239935133Y-145053666D01*
X239901800Y-145120333D01*
X239835133Y-145153666D01*
X239768466Y-145153666D01*
X239535133Y-144687000D02*
X239535133Y-145387000D01*
X239535133Y-144720333D02*
X239468466Y-144687000D01*
X239335133Y-144687000D01*
X239268466Y-144720333D01*
X239235133Y-144753666D01*
X239201800Y-144820333D01*
X239201800Y-145020333D01*
X239235133Y-145087000D01*
X239268466Y-145120333D01*
X239335133Y-145153666D01*
X239468466Y-145153666D01*
X239535133Y-145120333D01*
X238935133Y-145120333D02*
X238868466Y-145153666D01*
X238735133Y-145153666D01*
X238668466Y-145120333D01*
X238635133Y-145053666D01*
X238635133Y-145020333D01*
X238668466Y-144953666D01*
X238735133Y-144920333D01*
X238835133Y-144920333D01*
X238901800Y-144887000D01*
X238935133Y-144820333D01*
X238935133Y-144787000D01*
X238901800Y-144720333D01*
X238835133Y-144687000D01*
X238735133Y-144687000D01*
X238668466Y-144720333D01*
X238335133Y-145087000D02*
X238301800Y-145120333D01*
X238335133Y-145153666D01*
X238368466Y-145120333D01*
X238335133Y-145087000D01*
X238335133Y-145153666D01*
X238335133Y-144720333D02*
X238301800Y-144753666D01*
X238335133Y-144787000D01*
X238368466Y-144753666D01*
X238335133Y-144720333D01*
X238335133Y-144787000D01*
X237501800Y-144420333D02*
X238101800Y-145320333D01*
X236768466Y-144420333D02*
X237368466Y-145320333D01*
X236601800Y-144687000D02*
X236468466Y-145153666D01*
X236335133Y-144820333D01*
X236201800Y-145153666D01*
X236068466Y-144687000D01*
X235868466Y-144687000D02*
X235735133Y-145153666D01*
X235601800Y-144820333D01*
X235468466Y-145153666D01*
X235335133Y-144687000D01*
X235135133Y-144687000D02*
X235001800Y-145153666D01*
X234868466Y-144820333D01*
X234735133Y-145153666D01*
X234601800Y-144687000D01*
X234335133Y-145087000D02*
X234301800Y-145120333D01*
X234335133Y-145153666D01*
X234368466Y-145120333D01*
X234335133Y-145087000D01*
X234335133Y-145153666D01*
X233701800Y-145153666D02*
X233701800Y-144787000D01*
X233735133Y-144720333D01*
X233801800Y-144687000D01*
X233935133Y-144687000D01*
X234001800Y-144720333D01*
X233701800Y-145120333D02*
X233768466Y-145153666D01*
X233935133Y-145153666D01*
X234001800Y-145120333D01*
X234035133Y-145053666D01*
X234035133Y-144987000D01*
X234001800Y-144920333D01*
X233935133Y-144887000D01*
X233768466Y-144887000D01*
X233701800Y-144853666D01*
X233068466Y-145153666D02*
X233068466Y-144453666D01*
X233068466Y-145120333D02*
X233135133Y-145153666D01*
X233268466Y-145153666D01*
X233335133Y-145120333D01*
X233368466Y-145087000D01*
X233401800Y-145020333D01*
X233401800Y-144820333D01*
X233368466Y-144753666D01*
X233335133Y-144720333D01*
X233268466Y-144687000D01*
X233135133Y-144687000D01*
X233068466Y-144720333D01*
X232435133Y-145153666D02*
X232435133Y-144787000D01*
X232468466Y-144720333D01*
X232535133Y-144687000D01*
X232668466Y-144687000D01*
X232735133Y-144720333D01*
X232435133Y-145120333D02*
X232501800Y-145153666D01*
X232668466Y-145153666D01*
X232735133Y-145120333D01*
X232768466Y-145053666D01*
X232768466Y-144987000D01*
X232735133Y-144920333D01*
X232668466Y-144887000D01*
X232501800Y-144887000D01*
X232435133Y-144853666D01*
X232201800Y-144687000D02*
X231935133Y-144687000D01*
X232101800Y-145153666D02*
X232101800Y-144553666D01*
X232068466Y-144487000D01*
X232001800Y-144453666D01*
X231935133Y-144453666D01*
X231701800Y-145153666D02*
X231701800Y-144687000D01*
X231701800Y-144820333D02*
X231668466Y-144753666D01*
X231635133Y-144720333D01*
X231568466Y-144687000D01*
X231501800Y-144687000D01*
X230968466Y-144687000D02*
X230968466Y-145153666D01*
X231268466Y-144687000D02*
X231268466Y-145053666D01*
X231235133Y-145120333D01*
X231168466Y-145153666D01*
X231068466Y-145153666D01*
X231001800Y-145120333D01*
X230968466Y-145087000D01*
X230635133Y-145153666D02*
X230635133Y-144687000D01*
X230635133Y-144453666D02*
X230668466Y-144487000D01*
X230635133Y-144520333D01*
X230601800Y-144487000D01*
X230635133Y-144453666D01*
X230635133Y-144520333D01*
X230401800Y-144687000D02*
X230135133Y-144687000D01*
X230301800Y-144453666D02*
X230301800Y-145053666D01*
X230268466Y-145120333D01*
X230201800Y-145153666D01*
X230135133Y-145153666D01*
X229901800Y-145087000D02*
X229868466Y-145120333D01*
X229901800Y-145153666D01*
X229935133Y-145120333D01*
X229901800Y-145087000D01*
X229901800Y-145153666D01*
X229268466Y-145120333D02*
X229335133Y-145153666D01*
X229468466Y-145153666D01*
X229535133Y-145120333D01*
X229568466Y-145087000D01*
X229601800Y-145020333D01*
X229601800Y-144820333D01*
X229568466Y-144753666D01*
X229535133Y-144720333D01*
X229468466Y-144687000D01*
X229335133Y-144687000D01*
X229268466Y-144720333D01*
X228868466Y-145153666D02*
X228935133Y-145120333D01*
X228968466Y-145087000D01*
X229001800Y-145020333D01*
X229001800Y-144820333D01*
X228968466Y-144753666D01*
X228935133Y-144720333D01*
X228868466Y-144687000D01*
X228768466Y-144687000D01*
X228701800Y-144720333D01*
X228668466Y-144753666D01*
X228635133Y-144820333D01*
X228635133Y-145020333D01*
X228668466Y-145087000D01*
X228701800Y-145120333D01*
X228768466Y-145153666D01*
X228868466Y-145153666D01*
X228335133Y-145153666D02*
X228335133Y-144687000D01*
X228335133Y-144753666D02*
X228301800Y-144720333D01*
X228235133Y-144687000D01*
X228135133Y-144687000D01*
X228068466Y-144720333D01*
X228035133Y-144787000D01*
X228035133Y-145153666D01*
X228035133Y-144787000D02*
X228001800Y-144720333D01*
X227935133Y-144687000D01*
X227835133Y-144687000D01*
X227768466Y-144720333D01*
X227735133Y-144787000D01*
X227735133Y-145153666D01*
X226901800Y-144420333D02*
X227501800Y-145320333D01*
X226668466Y-144687000D02*
X226668466Y-145387000D01*
X226668466Y-144720333D02*
X226601800Y-144687000D01*
X226468466Y-144687000D01*
X226401800Y-144720333D01*
X226368466Y-144753666D01*
X226335133Y-144820333D01*
X226335133Y-145020333D01*
X226368466Y-145087000D01*
X226401800Y-145120333D01*
X226468466Y-145153666D01*
X226601800Y-145153666D01*
X226668466Y-145120333D01*
X226035133Y-145153666D02*
X226035133Y-144687000D01*
X226035133Y-144820333D02*
X226001800Y-144753666D01*
X225968466Y-144720333D01*
X225901800Y-144687000D01*
X225835133Y-144687000D01*
X225501800Y-145153666D02*
X225568466Y-145120333D01*
X225601800Y-145087000D01*
X225635133Y-145020333D01*
X225635133Y-144820333D01*
X225601800Y-144753666D01*
X225568466Y-144720333D01*
X225501800Y-144687000D01*
X225401800Y-144687000D01*
X225335133Y-144720333D01*
X225301800Y-144753666D01*
X225268466Y-144820333D01*
X225268466Y-145020333D01*
X225301800Y-145087000D01*
X225335133Y-145120333D01*
X225401800Y-145153666D01*
X225501800Y-145153666D01*
X224668466Y-145153666D02*
X224668466Y-144453666D01*
X224668466Y-145120333D02*
X224735133Y-145153666D01*
X224868466Y-145153666D01*
X224935133Y-145120333D01*
X224968466Y-145087000D01*
X225001800Y-145020333D01*
X225001800Y-144820333D01*
X224968466Y-144753666D01*
X224935133Y-144720333D01*
X224868466Y-144687000D01*
X224735133Y-144687000D01*
X224668466Y-144720333D01*
X224035133Y-144687000D02*
X224035133Y-145153666D01*
X224335133Y-144687000D02*
X224335133Y-145053666D01*
X224301800Y-145120333D01*
X224235133Y-145153666D01*
X224135133Y-145153666D01*
X224068466Y-145120333D01*
X224035133Y-145087000D01*
X223401800Y-145120333D02*
X223468466Y-145153666D01*
X223601800Y-145153666D01*
X223668466Y-145120333D01*
X223701800Y-145087000D01*
X223735133Y-145020333D01*
X223735133Y-144820333D01*
X223701800Y-144753666D01*
X223668466Y-144720333D01*
X223601800Y-144687000D01*
X223468466Y-144687000D01*
X223401800Y-144720333D01*
X223201800Y-144687000D02*
X222935133Y-144687000D01*
X223101800Y-144453666D02*
X223101800Y-145053666D01*
X223068466Y-145120333D01*
X223001800Y-145153666D01*
X222935133Y-145153666D01*
X222201800Y-144420333D02*
X222801800Y-145320333D01*
X222035133Y-144453666D02*
X221601800Y-144453666D01*
X221835133Y-144720333D01*
X221735133Y-144720333D01*
X221668466Y-144753666D01*
X221635133Y-144787000D01*
X221601800Y-144853666D01*
X221601800Y-145020333D01*
X221635133Y-145087000D01*
X221668466Y-145120333D01*
X221735133Y-145153666D01*
X221935133Y-145153666D01*
X222001800Y-145120333D01*
X222035133Y-145087000D01*
X221001800Y-144687000D02*
X221001800Y-145153666D01*
X221168466Y-144420333D02*
X221335133Y-144920333D01*
X220901800Y-144920333D01*
X220501800Y-144453666D02*
X220435133Y-144453666D01*
X220368466Y-144487000D01*
X220335133Y-144520333D01*
X220301800Y-144587000D01*
X220268466Y-144720333D01*
X220268466Y-144887000D01*
X220301800Y-145020333D01*
X220335133Y-145087000D01*
X220368466Y-145120333D01*
X220435133Y-145153666D01*
X220501800Y-145153666D01*
X220568466Y-145120333D01*
X220601800Y-145087000D01*
X220635133Y-145020333D01*
X220668466Y-144887000D01*
X220668466Y-144720333D01*
X220635133Y-144587000D01*
X220601800Y-144520333D01*
X220568466Y-144487000D01*
X220501800Y-144453666D01*
X219635133Y-144453666D02*
X219968466Y-144453666D01*
X220001800Y-144787000D01*
X219968466Y-144753666D01*
X219901800Y-144720333D01*
X219735133Y-144720333D01*
X219668466Y-144753666D01*
X219635133Y-144787000D01*
X219601800Y-144853666D01*
X219601800Y-145020333D01*
X219635133Y-145087000D01*
X219668466Y-145120333D01*
X219735133Y-145153666D01*
X219901800Y-145153666D01*
X219968466Y-145120333D01*
X220001800Y-145087000D01*
D12*
X240522371Y-139166628D02*
X240522371Y-138566628D01*
X240265228Y-139166628D02*
X240265228Y-138852342D01*
X240293800Y-138795200D01*
X240350942Y-138766628D01*
X240436657Y-138766628D01*
X240493800Y-138795200D01*
X240522371Y-138823771D01*
X240065228Y-138766628D02*
X239836657Y-138766628D01*
X239979514Y-138566628D02*
X239979514Y-139080914D01*
X239950942Y-139138057D01*
X239893800Y-139166628D01*
X239836657Y-139166628D01*
X239722371Y-138766628D02*
X239493800Y-138766628D01*
X239636657Y-138566628D02*
X239636657Y-139080914D01*
X239608085Y-139138057D01*
X239550942Y-139166628D01*
X239493800Y-139166628D01*
X239293800Y-138766628D02*
X239293800Y-139366628D01*
X239293800Y-138795200D02*
X239236657Y-138766628D01*
X239122371Y-138766628D01*
X239065228Y-138795200D01*
X239036657Y-138823771D01*
X239008085Y-138880914D01*
X239008085Y-139052342D01*
X239036657Y-139109485D01*
X239065228Y-139138057D01*
X239122371Y-139166628D01*
X239236657Y-139166628D01*
X239293800Y-139138057D01*
X238779514Y-139138057D02*
X238722371Y-139166628D01*
X238608085Y-139166628D01*
X238550942Y-139138057D01*
X238522371Y-139080914D01*
X238522371Y-139052342D01*
X238550942Y-138995200D01*
X238608085Y-138966628D01*
X238693800Y-138966628D01*
X238750942Y-138938057D01*
X238779514Y-138880914D01*
X238779514Y-138852342D01*
X238750942Y-138795200D01*
X238693800Y-138766628D01*
X238608085Y-138766628D01*
X238550942Y-138795200D01*
X238265228Y-139109485D02*
X238236657Y-139138057D01*
X238265228Y-139166628D01*
X238293800Y-139138057D01*
X238265228Y-139109485D01*
X238265228Y-139166628D01*
X238265228Y-138795200D02*
X238236657Y-138823771D01*
X238265228Y-138852342D01*
X238293800Y-138823771D01*
X238265228Y-138795200D01*
X238265228Y-138852342D01*
X237550942Y-138538057D02*
X238065228Y-139309485D01*
X236922371Y-138538057D02*
X237436657Y-139309485D01*
X236465228Y-138766628D02*
X236465228Y-139252342D01*
X236493800Y-139309485D01*
X236522371Y-139338057D01*
X236579514Y-139366628D01*
X236665228Y-139366628D01*
X236722371Y-139338057D01*
X236465228Y-139138057D02*
X236522371Y-139166628D01*
X236636657Y-139166628D01*
X236693800Y-139138057D01*
X236722371Y-139109485D01*
X236750942Y-139052342D01*
X236750942Y-138880914D01*
X236722371Y-138823771D01*
X236693800Y-138795200D01*
X236636657Y-138766628D01*
X236522371Y-138766628D01*
X236465228Y-138795200D01*
X236179514Y-139166628D02*
X236179514Y-138766628D01*
X236179514Y-138566628D02*
X236208085Y-138595200D01*
X236179514Y-138623771D01*
X236150942Y-138595200D01*
X236179514Y-138566628D01*
X236179514Y-138623771D01*
X235979514Y-138766628D02*
X235750942Y-138766628D01*
X235893800Y-138566628D02*
X235893800Y-139080914D01*
X235865228Y-139138057D01*
X235808085Y-139166628D01*
X235750942Y-139166628D01*
X235550942Y-139166628D02*
X235550942Y-138566628D01*
X235293800Y-139166628D02*
X235293800Y-138852342D01*
X235322371Y-138795200D01*
X235379514Y-138766628D01*
X235465228Y-138766628D01*
X235522371Y-138795200D01*
X235550942Y-138823771D01*
X234750942Y-138766628D02*
X234750942Y-139166628D01*
X235008085Y-138766628D02*
X235008085Y-139080914D01*
X234979514Y-139138057D01*
X234922371Y-139166628D01*
X234836657Y-139166628D01*
X234779514Y-139138057D01*
X234750942Y-139109485D01*
X234465228Y-139166628D02*
X234465228Y-138566628D01*
X234465228Y-138795200D02*
X234408085Y-138766628D01*
X234293800Y-138766628D01*
X234236657Y-138795200D01*
X234208085Y-138823771D01*
X234179514Y-138880914D01*
X234179514Y-139052342D01*
X234208085Y-139109485D01*
X234236657Y-139138057D01*
X234293800Y-139166628D01*
X234408085Y-139166628D01*
X234465228Y-139138057D01*
X233922371Y-139109485D02*
X233893800Y-139138057D01*
X233922371Y-139166628D01*
X233950942Y-139138057D01*
X233922371Y-139109485D01*
X233922371Y-139166628D01*
X233379514Y-139138057D02*
X233436657Y-139166628D01*
X233550942Y-139166628D01*
X233608085Y-139138057D01*
X233636657Y-139109485D01*
X233665228Y-139052342D01*
X233665228Y-138880914D01*
X233636657Y-138823771D01*
X233608085Y-138795200D01*
X233550942Y-138766628D01*
X233436657Y-138766628D01*
X233379514Y-138795200D01*
X233036657Y-139166628D02*
X233093800Y-139138057D01*
X233122371Y-139109485D01*
X233150942Y-139052342D01*
X233150942Y-138880914D01*
X233122371Y-138823771D01*
X233093800Y-138795200D01*
X233036657Y-138766628D01*
X232950942Y-138766628D01*
X232893800Y-138795200D01*
X232865228Y-138823771D01*
X232836657Y-138880914D01*
X232836657Y-139052342D01*
X232865228Y-139109485D01*
X232893800Y-139138057D01*
X232950942Y-139166628D01*
X233036657Y-139166628D01*
X232579514Y-139166628D02*
X232579514Y-138766628D01*
X232579514Y-138823771D02*
X232550942Y-138795200D01*
X232493800Y-138766628D01*
X232408085Y-138766628D01*
X232350942Y-138795200D01*
X232322371Y-138852342D01*
X232322371Y-139166628D01*
X232322371Y-138852342D02*
X232293800Y-138795200D01*
X232236657Y-138766628D01*
X232150942Y-138766628D01*
X232093800Y-138795200D01*
X232065228Y-138852342D01*
X232065228Y-139166628D01*
X231350942Y-138538057D02*
X231865228Y-139309485D01*
X231150942Y-138766628D02*
X231150942Y-139280914D01*
X231179514Y-139338057D01*
X231236657Y-139366628D01*
X231265228Y-139366628D01*
X231150942Y-138566628D02*
X231179514Y-138595200D01*
X231150942Y-138623771D01*
X231122371Y-138595200D01*
X231150942Y-138566628D01*
X231150942Y-138623771D01*
X230779514Y-139166628D02*
X230836657Y-139138057D01*
X230865228Y-139109485D01*
X230893800Y-139052342D01*
X230893800Y-138880914D01*
X230865228Y-138823771D01*
X230836657Y-138795200D01*
X230779514Y-138766628D01*
X230693800Y-138766628D01*
X230636657Y-138795200D01*
X230608085Y-138823771D01*
X230579514Y-138880914D01*
X230579514Y-139052342D01*
X230608085Y-139109485D01*
X230636657Y-139138057D01*
X230693800Y-139166628D01*
X230779514Y-139166628D01*
X230322371Y-138766628D02*
X230322371Y-139166628D01*
X230322371Y-138823771D02*
X230293800Y-138795200D01*
X230236657Y-138766628D01*
X230150942Y-138766628D01*
X230093800Y-138795200D01*
X230065228Y-138852342D01*
X230065228Y-139166628D01*
X229522371Y-139166628D02*
X229522371Y-138852342D01*
X229550942Y-138795200D01*
X229608085Y-138766628D01*
X229722371Y-138766628D01*
X229779514Y-138795200D01*
X229522371Y-139138057D02*
X229579514Y-139166628D01*
X229722371Y-139166628D01*
X229779514Y-139138057D01*
X229808085Y-139080914D01*
X229808085Y-139023771D01*
X229779514Y-138966628D01*
X229722371Y-138938057D01*
X229579514Y-138938057D01*
X229522371Y-138909485D01*
X229265228Y-139138057D02*
X229208085Y-139166628D01*
X229093800Y-139166628D01*
X229036657Y-139138057D01*
X229008085Y-139080914D01*
X229008085Y-139052342D01*
X229036657Y-138995200D01*
X229093800Y-138966628D01*
X229179514Y-138966628D01*
X229236657Y-138938057D01*
X229265228Y-138880914D01*
X229265228Y-138852342D01*
X229236657Y-138795200D01*
X229179514Y-138766628D01*
X229093800Y-138766628D01*
X229036657Y-138795200D01*
X228750942Y-139166628D02*
X228750942Y-138566628D01*
X228750942Y-138795200D02*
X228693800Y-138766628D01*
X228579514Y-138766628D01*
X228522371Y-138795200D01*
X228493800Y-138823771D01*
X228465228Y-138880914D01*
X228465228Y-139052342D01*
X228493800Y-139109485D01*
X228522371Y-139138057D01*
X228579514Y-139166628D01*
X228693800Y-139166628D01*
X228750942Y-139138057D01*
X228208085Y-138766628D02*
X228208085Y-139280914D01*
X228236657Y-139338057D01*
X228293800Y-139366628D01*
X228322371Y-139366628D01*
X228208085Y-138566628D02*
X228236657Y-138595200D01*
X228208085Y-138623771D01*
X228179514Y-138595200D01*
X228208085Y-138566628D01*
X228208085Y-138623771D01*
X227665228Y-138766628D02*
X227665228Y-139166628D01*
X227922371Y-138766628D02*
X227922371Y-139080914D01*
X227893800Y-139138057D01*
X227836657Y-139166628D01*
X227750942Y-139166628D01*
X227693800Y-139138057D01*
X227665228Y-139109485D01*
X227379514Y-139166628D02*
X227379514Y-138766628D01*
X227379514Y-138880914D02*
X227350942Y-138823771D01*
X227322371Y-138795200D01*
X227265228Y-138766628D01*
X227208085Y-138766628D01*
X226779514Y-139138057D02*
X226836657Y-139166628D01*
X226950942Y-139166628D01*
X227008085Y-139138057D01*
X227036657Y-139080914D01*
X227036657Y-138852342D01*
X227008085Y-138795200D01*
X226950942Y-138766628D01*
X226836657Y-138766628D01*
X226779514Y-138795200D01*
X226750942Y-138852342D01*
X226750942Y-138909485D01*
X227036657Y-138966628D01*
X226408085Y-139166628D02*
X226465228Y-139138057D01*
X226493800Y-139080914D01*
X226493800Y-138566628D01*
X225750942Y-138538057D02*
X226265228Y-139309485D01*
X225465228Y-139166628D02*
X225522371Y-139138057D01*
X225550942Y-139109485D01*
X225579514Y-139052342D01*
X225579514Y-138880914D01*
X225550942Y-138823771D01*
X225522371Y-138795200D01*
X225465228Y-138766628D01*
X225379514Y-138766628D01*
X225322371Y-138795200D01*
X225293800Y-138823771D01*
X225265228Y-138880914D01*
X225265228Y-139052342D01*
X225293800Y-139109485D01*
X225322371Y-139138057D01*
X225379514Y-139166628D01*
X225465228Y-139166628D01*
X225008085Y-138766628D02*
X225008085Y-139366628D01*
X225008085Y-138795200D02*
X224950942Y-138766628D01*
X224836657Y-138766628D01*
X224779514Y-138795200D01*
X224750942Y-138823771D01*
X224722371Y-138880914D01*
X224722371Y-139052342D01*
X224750942Y-139109485D01*
X224779514Y-139138057D01*
X224836657Y-139166628D01*
X224950942Y-139166628D01*
X225008085Y-139138057D01*
X224236657Y-139138057D02*
X224293800Y-139166628D01*
X224408085Y-139166628D01*
X224465228Y-139138057D01*
X224493800Y-139080914D01*
X224493800Y-138852342D01*
X224465228Y-138795200D01*
X224408085Y-138766628D01*
X224293800Y-138766628D01*
X224236657Y-138795200D01*
X224208085Y-138852342D01*
X224208085Y-138909485D01*
X224493800Y-138966628D01*
X223950942Y-138766628D02*
X223950942Y-139166628D01*
X223950942Y-138823771D02*
X223922371Y-138795200D01*
X223865228Y-138766628D01*
X223779514Y-138766628D01*
X223722371Y-138795200D01*
X223693800Y-138852342D01*
X223693800Y-139166628D01*
X223550942Y-139223771D02*
X223093800Y-139223771D01*
X223036657Y-138766628D02*
X222808085Y-138766628D01*
X222950942Y-138566628D02*
X222950942Y-139080914D01*
X222922371Y-139138057D01*
X222865228Y-139166628D01*
X222808085Y-139166628D01*
X222379514Y-139138057D02*
X222436657Y-139166628D01*
X222550942Y-139166628D01*
X222608085Y-139138057D01*
X222636657Y-139080914D01*
X222636657Y-138852342D01*
X222608085Y-138795200D01*
X222550942Y-138766628D01*
X222436657Y-138766628D01*
X222379514Y-138795200D01*
X222350942Y-138852342D01*
X222350942Y-138909485D01*
X222636657Y-138966628D01*
X222008085Y-139166628D02*
X222065228Y-139138057D01*
X222093800Y-139080914D01*
X222093800Y-138566628D01*
X221550942Y-139138057D02*
X221608085Y-139166628D01*
X221722371Y-139166628D01*
X221779514Y-139138057D01*
X221808085Y-139080914D01*
X221808085Y-138852342D01*
X221779514Y-138795200D01*
X221722371Y-138766628D01*
X221608085Y-138766628D01*
X221550942Y-138795200D01*
X221522371Y-138852342D01*
X221522371Y-138909485D01*
X221808085Y-138966628D01*
X221265228Y-139166628D02*
X221265228Y-138766628D01*
X221265228Y-138823771D02*
X221236657Y-138795200D01*
X221179514Y-138766628D01*
X221093800Y-138766628D01*
X221036657Y-138795200D01*
X221008085Y-138852342D01*
X221008085Y-139166628D01*
X221008085Y-138852342D02*
X220979514Y-138795200D01*
X220922371Y-138766628D01*
X220836657Y-138766628D01*
X220779514Y-138795200D01*
X220750942Y-138852342D01*
X220750942Y-139166628D01*
X220236657Y-139138057D02*
X220293800Y-139166628D01*
X220408085Y-139166628D01*
X220465228Y-139138057D01*
X220493800Y-139080914D01*
X220493800Y-138852342D01*
X220465228Y-138795200D01*
X220408085Y-138766628D01*
X220293800Y-138766628D01*
X220236657Y-138795200D01*
X220208085Y-138852342D01*
X220208085Y-138909485D01*
X220493800Y-138966628D01*
X220036657Y-138766628D02*
X219808085Y-138766628D01*
X219950942Y-138566628D02*
X219950942Y-139080914D01*
X219922371Y-139138057D01*
X219865228Y-139166628D01*
X219808085Y-139166628D01*
X219608085Y-139166628D02*
X219608085Y-138766628D01*
X219608085Y-138880914D02*
X219579514Y-138823771D01*
X219550942Y-138795200D01*
X219493800Y-138766628D01*
X219436657Y-138766628D01*
X219293800Y-138766628D02*
X219150942Y-139166628D01*
X219008085Y-138766628D02*
X219150942Y-139166628D01*
X219208085Y-139309485D01*
X219236657Y-139338057D01*
X219293800Y-139366628D01*
X241408085Y-140166628D02*
X241408085Y-139566628D01*
X241150942Y-140166628D02*
X241150942Y-139852342D01*
X241179514Y-139795200D01*
X241236657Y-139766628D01*
X241322371Y-139766628D01*
X241379514Y-139795200D01*
X241408085Y-139823771D01*
X240950942Y-139766628D02*
X240722371Y-139766628D01*
X240865228Y-139566628D02*
X240865228Y-140080914D01*
X240836657Y-140138057D01*
X240779514Y-140166628D01*
X240722371Y-140166628D01*
X240608085Y-139766628D02*
X240379514Y-139766628D01*
X240522371Y-139566628D02*
X240522371Y-140080914D01*
X240493800Y-140138057D01*
X240436657Y-140166628D01*
X240379514Y-140166628D01*
X240179514Y-139766628D02*
X240179514Y-140366628D01*
X240179514Y-139795200D02*
X240122371Y-139766628D01*
X240008085Y-139766628D01*
X239950942Y-139795200D01*
X239922371Y-139823771D01*
X239893800Y-139880914D01*
X239893800Y-140052342D01*
X239922371Y-140109485D01*
X239950942Y-140138057D01*
X240008085Y-140166628D01*
X240122371Y-140166628D01*
X240179514Y-140138057D01*
X239665228Y-140138057D02*
X239608085Y-140166628D01*
X239493800Y-140166628D01*
X239436657Y-140138057D01*
X239408085Y-140080914D01*
X239408085Y-140052342D01*
X239436657Y-139995200D01*
X239493800Y-139966628D01*
X239579514Y-139966628D01*
X239636657Y-139938057D01*
X239665228Y-139880914D01*
X239665228Y-139852342D01*
X239636657Y-139795200D01*
X239579514Y-139766628D01*
X239493800Y-139766628D01*
X239436657Y-139795200D01*
X239150942Y-140109485D02*
X239122371Y-140138057D01*
X239150942Y-140166628D01*
X239179514Y-140138057D01*
X239150942Y-140109485D01*
X239150942Y-140166628D01*
X239150942Y-139795200D02*
X239122371Y-139823771D01*
X239150942Y-139852342D01*
X239179514Y-139823771D01*
X239150942Y-139795200D01*
X239150942Y-139852342D01*
X238436657Y-139538057D02*
X238950942Y-140309485D01*
X237808085Y-139538057D02*
X238322371Y-140309485D01*
X237350942Y-139766628D02*
X237350942Y-140252342D01*
X237379514Y-140309485D01*
X237408085Y-140338057D01*
X237465228Y-140366628D01*
X237550942Y-140366628D01*
X237608085Y-140338057D01*
X237350942Y-140138057D02*
X237408085Y-140166628D01*
X237522371Y-140166628D01*
X237579514Y-140138057D01*
X237608085Y-140109485D01*
X237636657Y-140052342D01*
X237636657Y-139880914D01*
X237608085Y-139823771D01*
X237579514Y-139795200D01*
X237522371Y-139766628D01*
X237408085Y-139766628D01*
X237350942Y-139795200D01*
X237065228Y-140166628D02*
X237065228Y-139766628D01*
X237065228Y-139566628D02*
X237093800Y-139595200D01*
X237065228Y-139623771D01*
X237036657Y-139595200D01*
X237065228Y-139566628D01*
X237065228Y-139623771D01*
X236865228Y-139766628D02*
X236636657Y-139766628D01*
X236779514Y-139566628D02*
X236779514Y-140080914D01*
X236750942Y-140138057D01*
X236693800Y-140166628D01*
X236636657Y-140166628D01*
X236436657Y-140166628D02*
X236436657Y-139566628D01*
X236179514Y-140166628D02*
X236179514Y-139852342D01*
X236208085Y-139795200D01*
X236265228Y-139766628D01*
X236350942Y-139766628D01*
X236408085Y-139795200D01*
X236436657Y-139823771D01*
X235636657Y-139766628D02*
X235636657Y-140166628D01*
X235893800Y-139766628D02*
X235893800Y-140080914D01*
X235865228Y-140138057D01*
X235808085Y-140166628D01*
X235722371Y-140166628D01*
X235665228Y-140138057D01*
X235636657Y-140109485D01*
X235350942Y-140166628D02*
X235350942Y-139566628D01*
X235350942Y-139795200D02*
X235293800Y-139766628D01*
X235179514Y-139766628D01*
X235122371Y-139795200D01*
X235093800Y-139823771D01*
X235065228Y-139880914D01*
X235065228Y-140052342D01*
X235093800Y-140109485D01*
X235122371Y-140138057D01*
X235179514Y-140166628D01*
X235293800Y-140166628D01*
X235350942Y-140138057D01*
X234808085Y-140109485D02*
X234779514Y-140138057D01*
X234808085Y-140166628D01*
X234836657Y-140138057D01*
X234808085Y-140109485D01*
X234808085Y-140166628D01*
X234265228Y-140138057D02*
X234322371Y-140166628D01*
X234436657Y-140166628D01*
X234493800Y-140138057D01*
X234522371Y-140109485D01*
X234550942Y-140052342D01*
X234550942Y-139880914D01*
X234522371Y-139823771D01*
X234493800Y-139795200D01*
X234436657Y-139766628D01*
X234322371Y-139766628D01*
X234265228Y-139795200D01*
X233922371Y-140166628D02*
X233979514Y-140138057D01*
X234008085Y-140109485D01*
X234036657Y-140052342D01*
X234036657Y-139880914D01*
X234008085Y-139823771D01*
X233979514Y-139795200D01*
X233922371Y-139766628D01*
X233836657Y-139766628D01*
X233779514Y-139795200D01*
X233750942Y-139823771D01*
X233722371Y-139880914D01*
X233722371Y-140052342D01*
X233750942Y-140109485D01*
X233779514Y-140138057D01*
X233836657Y-140166628D01*
X233922371Y-140166628D01*
X233465228Y-140166628D02*
X233465228Y-139766628D01*
X233465228Y-139823771D02*
X233436657Y-139795200D01*
X233379514Y-139766628D01*
X233293800Y-139766628D01*
X233236657Y-139795200D01*
X233208085Y-139852342D01*
X233208085Y-140166628D01*
X233208085Y-139852342D02*
X233179514Y-139795200D01*
X233122371Y-139766628D01*
X233036657Y-139766628D01*
X232979514Y-139795200D01*
X232950942Y-139852342D01*
X232950942Y-140166628D01*
X232236657Y-139538057D02*
X232750942Y-140309485D01*
X232036657Y-139766628D02*
X232036657Y-140280914D01*
X232065228Y-140338057D01*
X232122371Y-140366628D01*
X232150942Y-140366628D01*
X232036657Y-139566628D02*
X232065228Y-139595200D01*
X232036657Y-139623771D01*
X232008085Y-139595200D01*
X232036657Y-139566628D01*
X232036657Y-139623771D01*
X231665228Y-140166628D02*
X231722371Y-140138057D01*
X231750942Y-140109485D01*
X231779514Y-140052342D01*
X231779514Y-139880914D01*
X231750942Y-139823771D01*
X231722371Y-139795200D01*
X231665228Y-139766628D01*
X231579514Y-139766628D01*
X231522371Y-139795200D01*
X231493800Y-139823771D01*
X231465228Y-139880914D01*
X231465228Y-140052342D01*
X231493800Y-140109485D01*
X231522371Y-140138057D01*
X231579514Y-140166628D01*
X231665228Y-140166628D01*
X231208085Y-139766628D02*
X231208085Y-140166628D01*
X231208085Y-139823771D02*
X231179514Y-139795200D01*
X231122371Y-139766628D01*
X231036657Y-139766628D01*
X230979514Y-139795200D01*
X230950942Y-139852342D01*
X230950942Y-140166628D01*
X230408085Y-140166628D02*
X230408085Y-139852342D01*
X230436657Y-139795200D01*
X230493800Y-139766628D01*
X230608085Y-139766628D01*
X230665228Y-139795200D01*
X230408085Y-140138057D02*
X230465228Y-140166628D01*
X230608085Y-140166628D01*
X230665228Y-140138057D01*
X230693800Y-140080914D01*
X230693800Y-140023771D01*
X230665228Y-139966628D01*
X230608085Y-139938057D01*
X230465228Y-139938057D01*
X230408085Y-139909485D01*
X230150942Y-140138057D02*
X230093800Y-140166628D01*
X229979514Y-140166628D01*
X229922371Y-140138057D01*
X229893800Y-140080914D01*
X229893800Y-140052342D01*
X229922371Y-139995200D01*
X229979514Y-139966628D01*
X230065228Y-139966628D01*
X230122371Y-139938057D01*
X230150942Y-139880914D01*
X230150942Y-139852342D01*
X230122371Y-139795200D01*
X230065228Y-139766628D01*
X229979514Y-139766628D01*
X229922371Y-139795200D01*
X229636657Y-140166628D02*
X229636657Y-139566628D01*
X229636657Y-139795200D02*
X229579514Y-139766628D01*
X229465228Y-139766628D01*
X229408085Y-139795200D01*
X229379514Y-139823771D01*
X229350942Y-139880914D01*
X229350942Y-140052342D01*
X229379514Y-140109485D01*
X229408085Y-140138057D01*
X229465228Y-140166628D01*
X229579514Y-140166628D01*
X229636657Y-140138057D01*
X229093800Y-139766628D02*
X229093800Y-140280914D01*
X229122371Y-140338057D01*
X229179514Y-140366628D01*
X229208085Y-140366628D01*
X229093800Y-139566628D02*
X229122371Y-139595200D01*
X229093800Y-139623771D01*
X229065228Y-139595200D01*
X229093800Y-139566628D01*
X229093800Y-139623771D01*
X228550942Y-139766628D02*
X228550942Y-140166628D01*
X228808085Y-139766628D02*
X228808085Y-140080914D01*
X228779514Y-140138057D01*
X228722371Y-140166628D01*
X228636657Y-140166628D01*
X228579514Y-140138057D01*
X228550942Y-140109485D01*
X228265228Y-140166628D02*
X228265228Y-139766628D01*
X228265228Y-139880914D02*
X228236657Y-139823771D01*
X228208085Y-139795200D01*
X228150942Y-139766628D01*
X228093800Y-139766628D01*
X227665228Y-140138057D02*
X227722371Y-140166628D01*
X227836657Y-140166628D01*
X227893800Y-140138057D01*
X227922371Y-140080914D01*
X227922371Y-139852342D01*
X227893800Y-139795200D01*
X227836657Y-139766628D01*
X227722371Y-139766628D01*
X227665228Y-139795200D01*
X227636657Y-139852342D01*
X227636657Y-139909485D01*
X227922371Y-139966628D01*
X227293800Y-140166628D02*
X227350942Y-140138057D01*
X227379514Y-140080914D01*
X227379514Y-139566628D01*
X226636657Y-139538057D02*
X227150942Y-140309485D01*
X226350942Y-140166628D02*
X226408085Y-140138057D01*
X226436657Y-140109485D01*
X226465228Y-140052342D01*
X226465228Y-139880914D01*
X226436657Y-139823771D01*
X226408085Y-139795200D01*
X226350942Y-139766628D01*
X226265228Y-139766628D01*
X226208085Y-139795200D01*
X226179514Y-139823771D01*
X226150942Y-139880914D01*
X226150942Y-140052342D01*
X226179514Y-140109485D01*
X226208085Y-140138057D01*
X226265228Y-140166628D01*
X226350942Y-140166628D01*
X225893800Y-139766628D02*
X225893800Y-140366628D01*
X225893800Y-139795200D02*
X225836657Y-139766628D01*
X225722371Y-139766628D01*
X225665228Y-139795200D01*
X225636657Y-139823771D01*
X225608085Y-139880914D01*
X225608085Y-140052342D01*
X225636657Y-140109485D01*
X225665228Y-140138057D01*
X225722371Y-140166628D01*
X225836657Y-140166628D01*
X225893800Y-140138057D01*
X225122371Y-140138057D02*
X225179514Y-140166628D01*
X225293800Y-140166628D01*
X225350942Y-140138057D01*
X225379514Y-140080914D01*
X225379514Y-139852342D01*
X225350942Y-139795200D01*
X225293800Y-139766628D01*
X225179514Y-139766628D01*
X225122371Y-139795200D01*
X225093800Y-139852342D01*
X225093800Y-139909485D01*
X225379514Y-139966628D01*
X224836657Y-139766628D02*
X224836657Y-140166628D01*
X224836657Y-139823771D02*
X224808085Y-139795200D01*
X224750942Y-139766628D01*
X224665228Y-139766628D01*
X224608085Y-139795200D01*
X224579514Y-139852342D01*
X224579514Y-140166628D01*
X224436657Y-140223771D02*
X223979514Y-140223771D01*
X223922371Y-139766628D02*
X223693800Y-139766628D01*
X223836657Y-139566628D02*
X223836657Y-140080914D01*
X223808085Y-140138057D01*
X223750942Y-140166628D01*
X223693800Y-140166628D01*
X223265228Y-140138057D02*
X223322371Y-140166628D01*
X223436657Y-140166628D01*
X223493800Y-140138057D01*
X223522371Y-140080914D01*
X223522371Y-139852342D01*
X223493800Y-139795200D01*
X223436657Y-139766628D01*
X223322371Y-139766628D01*
X223265228Y-139795200D01*
X223236657Y-139852342D01*
X223236657Y-139909485D01*
X223522371Y-139966628D01*
X222893800Y-140166628D02*
X222950942Y-140138057D01*
X222979514Y-140080914D01*
X222979514Y-139566628D01*
X222436657Y-140138057D02*
X222493799Y-140166628D01*
X222608085Y-140166628D01*
X222665228Y-140138057D01*
X222693799Y-140080914D01*
X222693799Y-139852342D01*
X222665228Y-139795200D01*
X222608085Y-139766628D01*
X222493799Y-139766628D01*
X222436657Y-139795200D01*
X222408085Y-139852342D01*
X222408085Y-139909485D01*
X222693799Y-139966628D01*
X222150942Y-140166628D02*
X222150942Y-139766628D01*
X222150942Y-139823771D02*
X222122371Y-139795200D01*
X222065228Y-139766628D01*
X221979514Y-139766628D01*
X221922371Y-139795200D01*
X221893799Y-139852342D01*
X221893799Y-140166628D01*
X221893799Y-139852342D02*
X221865228Y-139795200D01*
X221808085Y-139766628D01*
X221722371Y-139766628D01*
X221665228Y-139795200D01*
X221636657Y-139852342D01*
X221636657Y-140166628D01*
X221122371Y-140138057D02*
X221179514Y-140166628D01*
X221293799Y-140166628D01*
X221350942Y-140138057D01*
X221379514Y-140080914D01*
X221379514Y-139852342D01*
X221350942Y-139795200D01*
X221293799Y-139766628D01*
X221179514Y-139766628D01*
X221122371Y-139795200D01*
X221093799Y-139852342D01*
X221093799Y-139909485D01*
X221379514Y-139966628D01*
X220922371Y-139766628D02*
X220693799Y-139766628D01*
X220836657Y-139566628D02*
X220836657Y-140080914D01*
X220808085Y-140138057D01*
X220750942Y-140166628D01*
X220693799Y-140166628D01*
X220493799Y-140166628D02*
X220493799Y-139766628D01*
X220493799Y-139880914D02*
X220465228Y-139823771D01*
X220436657Y-139795200D01*
X220379514Y-139766628D01*
X220322371Y-139766628D01*
X220179514Y-139766628D02*
X220036657Y-140166628D01*
X219893799Y-139766628D02*
X220036657Y-140166628D01*
X220093799Y-140309485D01*
X220122371Y-140338057D01*
X220179514Y-140366628D01*
X219808085Y-140223771D02*
X219350942Y-140223771D01*
X219208085Y-140166628D02*
X219208085Y-139566628D01*
X219208085Y-139852342D02*
X218865228Y-139852342D01*
X218865228Y-140166628D02*
X218865228Y-139566628D01*
X218636657Y-139566628D02*
X218493799Y-140166628D01*
X218379514Y-139738057D01*
X218265228Y-140166628D01*
X218122371Y-139566628D01*
D10*
X220319600Y-147548600D02*
X240969800Y-147548600D01*
X240969800Y-151739600D02*
X220345000Y-151739600D01*
X240969800Y-147548600D02*
X240969800Y-151739600D01*
D11*
X240243700Y-148406800D02*
X240143700Y-148440133D01*
X240110366Y-148473466D01*
X240077033Y-148540133D01*
X240077033Y-148640133D01*
X240110366Y-148706800D01*
X240143700Y-148740133D01*
X240210366Y-148773466D01*
X240477033Y-148773466D01*
X240477033Y-148073466D01*
X240243700Y-148073466D01*
X240177033Y-148106800D01*
X240143700Y-148140133D01*
X240110366Y-148206800D01*
X240110366Y-148273466D01*
X240143700Y-148340133D01*
X240177033Y-148373466D01*
X240243700Y-148406800D01*
X240477033Y-148406800D01*
X239677033Y-148773466D02*
X239743700Y-148740133D01*
X239777033Y-148706800D01*
X239810366Y-148640133D01*
X239810366Y-148440133D01*
X239777033Y-148373466D01*
X239743700Y-148340133D01*
X239677033Y-148306800D01*
X239577033Y-148306800D01*
X239510366Y-148340133D01*
X239477033Y-148373466D01*
X239443700Y-148440133D01*
X239443700Y-148640133D01*
X239477033Y-148706800D01*
X239510366Y-148740133D01*
X239577033Y-148773466D01*
X239677033Y-148773466D01*
X238843700Y-148773466D02*
X238843700Y-148406800D01*
X238877033Y-148340133D01*
X238943700Y-148306800D01*
X239077033Y-148306800D01*
X239143700Y-148340133D01*
X238843700Y-148740133D02*
X238910366Y-148773466D01*
X239077033Y-148773466D01*
X239143700Y-148740133D01*
X239177033Y-148673466D01*
X239177033Y-148606800D01*
X239143700Y-148540133D01*
X239077033Y-148506800D01*
X238910366Y-148506800D01*
X238843700Y-148473466D01*
X238510366Y-148773466D02*
X238510366Y-148306800D01*
X238510366Y-148440133D02*
X238477033Y-148373466D01*
X238443700Y-148340133D01*
X238377033Y-148306800D01*
X238310366Y-148306800D01*
X237777033Y-148773466D02*
X237777033Y-148073466D01*
X237777033Y-148740133D02*
X237843700Y-148773466D01*
X237977033Y-148773466D01*
X238043700Y-148740133D01*
X238077033Y-148706800D01*
X238110366Y-148640133D01*
X238110366Y-148440133D01*
X238077033Y-148373466D01*
X238043700Y-148340133D01*
X237977033Y-148306800D01*
X237843700Y-148306800D01*
X237777033Y-148340133D01*
X236943700Y-148740133D02*
X236843700Y-148773466D01*
X236677033Y-148773466D01*
X236610366Y-148740133D01*
X236577033Y-148706800D01*
X236543700Y-148640133D01*
X236543700Y-148573466D01*
X236577033Y-148506800D01*
X236610366Y-148473466D01*
X236677033Y-148440133D01*
X236810366Y-148406800D01*
X236877033Y-148373466D01*
X236910366Y-148340133D01*
X236943700Y-148273466D01*
X236943700Y-148206800D01*
X236910366Y-148140133D01*
X236877033Y-148106800D01*
X236810366Y-148073466D01*
X236643700Y-148073466D01*
X236543700Y-148106800D01*
X236243700Y-148773466D02*
X236243700Y-148073466D01*
X235843700Y-148773466D02*
X236143700Y-148373466D01*
X235843700Y-148073466D02*
X236243700Y-148473466D01*
X235543700Y-148073466D02*
X235543700Y-148640133D01*
X235510366Y-148706800D01*
X235477033Y-148740133D01*
X235410366Y-148773466D01*
X235277033Y-148773466D01*
X235210366Y-148740133D01*
X235177033Y-148706800D01*
X235143700Y-148640133D01*
X235143700Y-148073466D01*
X234810366Y-148706800D02*
X234777033Y-148740133D01*
X234810366Y-148773466D01*
X234843700Y-148740133D01*
X234810366Y-148706800D01*
X234810366Y-148773466D01*
X234810366Y-148340133D02*
X234777033Y-148373466D01*
X234810366Y-148406800D01*
X234843700Y-148373466D01*
X234810366Y-148340133D01*
X234810366Y-148406800D01*
X233810366Y-148073466D02*
X233677033Y-148073466D01*
X233610366Y-148106800D01*
X233543700Y-148173466D01*
X233510366Y-148306800D01*
X233510366Y-148540133D01*
X233543700Y-148673466D01*
X233610366Y-148740133D01*
X233677033Y-148773466D01*
X233810366Y-148773466D01*
X233877033Y-148740133D01*
X233943700Y-148673466D01*
X233977033Y-148540133D01*
X233977033Y-148306800D01*
X233943700Y-148173466D01*
X233877033Y-148106800D01*
X233810366Y-148073466D01*
X232977033Y-148406800D02*
X233210366Y-148406800D01*
X233210366Y-148773466D02*
X233210366Y-148073466D01*
X232877033Y-148073466D01*
X232710366Y-148073466D02*
X232310366Y-148073466D01*
X232510366Y-148773466D02*
X232510366Y-148073466D01*
X231943700Y-148073466D02*
X231877033Y-148073466D01*
X231810366Y-148106800D01*
X231777033Y-148140133D01*
X231743700Y-148206800D01*
X231710366Y-148340133D01*
X231710366Y-148506800D01*
X231743700Y-148640133D01*
X231777033Y-148706800D01*
X231810366Y-148740133D01*
X231877033Y-148773466D01*
X231943700Y-148773466D01*
X232010366Y-148740133D01*
X232043700Y-148706800D01*
X232077033Y-148640133D01*
X232110366Y-148506800D01*
X232110366Y-148340133D01*
X232077033Y-148206800D01*
X232043700Y-148140133D01*
X232010366Y-148106800D01*
X231943700Y-148073466D01*
X231277033Y-148073466D02*
X231210366Y-148073466D01*
X231143700Y-148106800D01*
X231110366Y-148140133D01*
X231077033Y-148206800D01*
X231043700Y-148340133D01*
X231043700Y-148506800D01*
X231077033Y-148640133D01*
X231110366Y-148706800D01*
X231143700Y-148740133D01*
X231210366Y-148773466D01*
X231277033Y-148773466D01*
X231343700Y-148740133D01*
X231377033Y-148706800D01*
X231410366Y-148640133D01*
X231443700Y-148506800D01*
X231443700Y-148340133D01*
X231410366Y-148206800D01*
X231377033Y-148140133D01*
X231343700Y-148106800D01*
X231277033Y-148073466D01*
X230377033Y-148773466D02*
X230777033Y-148773466D01*
X230577033Y-148773466D02*
X230577033Y-148073466D01*
X230643700Y-148173466D01*
X230710366Y-148240133D01*
X230777033Y-148273466D01*
X230143700Y-148306800D02*
X229977033Y-148773466D01*
X229810366Y-148306800D01*
X229177033Y-148773466D02*
X229577033Y-148773466D01*
X229377033Y-148773466D02*
X229377033Y-148073466D01*
X229443700Y-148173466D01*
X229510366Y-148240133D01*
X229577033Y-148273466D01*
X240477033Y-149973466D02*
X240477033Y-149273466D01*
X240310366Y-149273466D01*
X240210366Y-149306800D01*
X240143700Y-149373466D01*
X240110366Y-149440133D01*
X240077033Y-149573466D01*
X240077033Y-149673466D01*
X240110366Y-149806800D01*
X240143700Y-149873466D01*
X240210366Y-149940133D01*
X240310366Y-149973466D01*
X240477033Y-149973466D01*
X239510366Y-149940133D02*
X239577033Y-149973466D01*
X239710366Y-149973466D01*
X239777033Y-149940133D01*
X239810366Y-149873466D01*
X239810366Y-149606800D01*
X239777033Y-149540133D01*
X239710366Y-149506800D01*
X239577033Y-149506800D01*
X239510366Y-149540133D01*
X239477033Y-149606800D01*
X239477033Y-149673466D01*
X239810366Y-149740133D01*
X239210366Y-149940133D02*
X239143700Y-149973466D01*
X239010366Y-149973466D01*
X238943700Y-149940133D01*
X238910366Y-149873466D01*
X238910366Y-149840133D01*
X238943700Y-149773466D01*
X239010366Y-149740133D01*
X239110366Y-149740133D01*
X239177033Y-149706800D01*
X239210366Y-149640133D01*
X239210366Y-149606800D01*
X239177033Y-149540133D01*
X239110366Y-149506800D01*
X239010366Y-149506800D01*
X238943700Y-149540133D01*
X238610366Y-149973466D02*
X238610366Y-149506800D01*
X238610366Y-149273466D02*
X238643700Y-149306800D01*
X238610366Y-149340133D01*
X238577033Y-149306800D01*
X238610366Y-149273466D01*
X238610366Y-149340133D01*
X237977033Y-149506800D02*
X237977033Y-150073466D01*
X238010366Y-150140133D01*
X238043700Y-150173466D01*
X238110366Y-150206800D01*
X238210366Y-150206800D01*
X238277033Y-150173466D01*
X237977033Y-149940133D02*
X238043700Y-149973466D01*
X238177033Y-149973466D01*
X238243700Y-149940133D01*
X238277033Y-149906800D01*
X238310366Y-149840133D01*
X238310366Y-149640133D01*
X238277033Y-149573466D01*
X238243700Y-149540133D01*
X238177033Y-149506800D01*
X238043700Y-149506800D01*
X237977033Y-149540133D01*
X237643700Y-149506800D02*
X237643700Y-149973466D01*
X237643700Y-149573466D02*
X237610366Y-149540133D01*
X237543700Y-149506800D01*
X237443700Y-149506800D01*
X237377033Y-149540133D01*
X237343700Y-149606800D01*
X237343700Y-149973466D01*
X236710366Y-149973466D02*
X236710366Y-149606800D01*
X236743700Y-149540133D01*
X236810366Y-149506800D01*
X236943700Y-149506800D01*
X237010366Y-149540133D01*
X236710366Y-149940133D02*
X236777033Y-149973466D01*
X236943700Y-149973466D01*
X237010366Y-149940133D01*
X237043700Y-149873466D01*
X237043700Y-149806800D01*
X237010366Y-149740133D01*
X236943700Y-149706800D01*
X236777033Y-149706800D01*
X236710366Y-149673466D01*
X236477033Y-149506800D02*
X236210366Y-149506800D01*
X236377033Y-149273466D02*
X236377033Y-149873466D01*
X236343700Y-149940133D01*
X236277033Y-149973466D01*
X236210366Y-149973466D01*
X235977033Y-149973466D02*
X235977033Y-149506800D01*
X235977033Y-149273466D02*
X236010366Y-149306800D01*
X235977033Y-149340133D01*
X235943700Y-149306800D01*
X235977033Y-149273466D01*
X235977033Y-149340133D01*
X235543700Y-149973466D02*
X235610366Y-149940133D01*
X235643700Y-149906800D01*
X235677033Y-149840133D01*
X235677033Y-149640133D01*
X235643700Y-149573466D01*
X235610366Y-149540133D01*
X235543700Y-149506800D01*
X235443700Y-149506800D01*
X235377033Y-149540133D01*
X235343700Y-149573466D01*
X235310366Y-149640133D01*
X235310366Y-149840133D01*
X235343700Y-149906800D01*
X235377033Y-149940133D01*
X235443700Y-149973466D01*
X235543700Y-149973466D01*
X235010366Y-149506800D02*
X235010366Y-149973466D01*
X235010366Y-149573466D02*
X234977033Y-149540133D01*
X234910366Y-149506800D01*
X234810366Y-149506800D01*
X234743700Y-149540133D01*
X234710366Y-149606800D01*
X234710366Y-149973466D01*
X233843700Y-149506800D02*
X233843700Y-149973466D01*
X233843700Y-149573466D02*
X233810366Y-149540133D01*
X233743700Y-149506800D01*
X233643700Y-149506800D01*
X233577033Y-149540133D01*
X233543700Y-149606800D01*
X233543700Y-149973466D01*
X232910366Y-149973466D02*
X232910366Y-149606800D01*
X232943700Y-149540133D01*
X233010366Y-149506800D01*
X233143700Y-149506800D01*
X233210366Y-149540133D01*
X232910366Y-149940133D02*
X232977033Y-149973466D01*
X233143700Y-149973466D01*
X233210366Y-149940133D01*
X233243700Y-149873466D01*
X233243700Y-149806800D01*
X233210366Y-149740133D01*
X233143700Y-149706800D01*
X232977033Y-149706800D01*
X232910366Y-149673466D01*
X232577033Y-149973466D02*
X232577033Y-149506800D01*
X232577033Y-149573466D02*
X232543700Y-149540133D01*
X232477033Y-149506800D01*
X232377033Y-149506800D01*
X232310366Y-149540133D01*
X232277033Y-149606800D01*
X232277033Y-149973466D01*
X232277033Y-149606800D02*
X232243700Y-149540133D01*
X232177033Y-149506800D01*
X232077033Y-149506800D01*
X232010366Y-149540133D01*
X231977033Y-149606800D01*
X231977033Y-149973466D01*
X231377033Y-149940133D02*
X231443700Y-149973466D01*
X231577033Y-149973466D01*
X231643700Y-149940133D01*
X231677033Y-149873466D01*
X231677033Y-149606800D01*
X231643700Y-149540133D01*
X231577033Y-149506800D01*
X231443700Y-149506800D01*
X231377033Y-149540133D01*
X231343700Y-149606800D01*
X231343700Y-149673466D01*
X231677033Y-149740133D01*
X231043700Y-149906800D02*
X231010366Y-149940133D01*
X231043700Y-149973466D01*
X231077033Y-149940133D01*
X231043700Y-149906800D01*
X231043700Y-149973466D01*
X231043700Y-149540133D02*
X231010366Y-149573466D01*
X231043700Y-149606800D01*
X231077033Y-149573466D01*
X231043700Y-149540133D01*
X231043700Y-149606800D01*
X230177033Y-149973466D02*
X230177033Y-149273466D01*
X229843700Y-149506800D02*
X229843700Y-149973466D01*
X229843700Y-149573466D02*
X229810366Y-149540133D01*
X229743700Y-149506800D01*
X229643700Y-149506800D01*
X229577033Y-149540133D01*
X229543700Y-149606800D01*
X229543700Y-149973466D01*
X228943700Y-149940133D02*
X229010366Y-149973466D01*
X229143700Y-149973466D01*
X229210366Y-149940133D01*
X229243700Y-149873466D01*
X229243700Y-149606800D01*
X229210366Y-149540133D01*
X229143700Y-149506800D01*
X229010366Y-149506800D01*
X228943700Y-149540133D01*
X228910366Y-149606800D01*
X228910366Y-149673466D01*
X229243700Y-149740133D01*
X228610366Y-149973466D02*
X228610366Y-149506800D01*
X228610366Y-149640133D02*
X228577033Y-149573466D01*
X228543700Y-149540133D01*
X228477033Y-149506800D01*
X228410366Y-149506800D01*
X228277033Y-149506800D02*
X228010366Y-149506800D01*
X228177033Y-149273466D02*
X228177033Y-149873466D01*
X228143700Y-149940133D01*
X228077033Y-149973466D01*
X228010366Y-149973466D01*
X227777033Y-149973466D02*
X227777033Y-149506800D01*
X227777033Y-149273466D02*
X227810366Y-149306800D01*
X227777033Y-149340133D01*
X227743700Y-149306800D01*
X227777033Y-149273466D01*
X227777033Y-149340133D01*
X227143700Y-149973466D02*
X227143700Y-149606800D01*
X227177033Y-149540133D01*
X227243700Y-149506800D01*
X227377033Y-149506800D01*
X227443700Y-149540133D01*
X227143700Y-149940133D02*
X227210366Y-149973466D01*
X227377033Y-149973466D01*
X227443700Y-149940133D01*
X227477033Y-149873466D01*
X227477033Y-149806800D01*
X227443700Y-149740133D01*
X227377033Y-149706800D01*
X227210366Y-149706800D01*
X227143700Y-149673466D01*
X226710366Y-149973466D02*
X226777033Y-149940133D01*
X226810366Y-149873466D01*
X226810366Y-149273466D01*
X225910366Y-149506800D02*
X225910366Y-149973466D01*
X225910366Y-149573466D02*
X225877033Y-149540133D01*
X225810366Y-149506800D01*
X225710366Y-149506800D01*
X225643700Y-149540133D01*
X225610366Y-149606800D01*
X225610366Y-149973466D01*
X224977033Y-149973466D02*
X224977033Y-149606800D01*
X225010366Y-149540133D01*
X225077033Y-149506800D01*
X225210366Y-149506800D01*
X225277033Y-149540133D01*
X224977033Y-149940133D02*
X225043700Y-149973466D01*
X225210366Y-149973466D01*
X225277033Y-149940133D01*
X225310366Y-149873466D01*
X225310366Y-149806800D01*
X225277033Y-149740133D01*
X225210366Y-149706800D01*
X225043700Y-149706800D01*
X224977033Y-149673466D01*
X224710366Y-149506800D02*
X224543700Y-149973466D01*
X224377033Y-149506800D01*
X224110366Y-149973466D02*
X224110366Y-149506800D01*
X224110366Y-149273466D02*
X224143700Y-149306800D01*
X224110366Y-149340133D01*
X224077033Y-149306800D01*
X224110366Y-149273466D01*
X224110366Y-149340133D01*
X223477033Y-149506800D02*
X223477033Y-150073466D01*
X223510366Y-150140133D01*
X223543700Y-150173466D01*
X223610366Y-150206800D01*
X223710366Y-150206800D01*
X223777033Y-150173466D01*
X223477033Y-149940133D02*
X223543700Y-149973466D01*
X223677033Y-149973466D01*
X223743700Y-149940133D01*
X223777033Y-149906800D01*
X223810366Y-149840133D01*
X223810366Y-149640133D01*
X223777033Y-149573466D01*
X223743700Y-149540133D01*
X223677033Y-149506800D01*
X223543700Y-149506800D01*
X223477033Y-149540133D01*
X222843700Y-149973466D02*
X222843700Y-149606800D01*
X222877033Y-149540133D01*
X222943700Y-149506800D01*
X223077033Y-149506800D01*
X223143700Y-149540133D01*
X222843700Y-149940133D02*
X222910366Y-149973466D01*
X223077033Y-149973466D01*
X223143700Y-149940133D01*
X223177033Y-149873466D01*
X223177033Y-149806800D01*
X223143700Y-149740133D01*
X223077033Y-149706800D01*
X222910366Y-149706800D01*
X222843700Y-149673466D01*
X222610366Y-149506800D02*
X222343700Y-149506800D01*
X222510366Y-149273466D02*
X222510366Y-149873466D01*
X222477033Y-149940133D01*
X222410366Y-149973466D01*
X222343700Y-149973466D01*
X222110366Y-149973466D02*
X222110366Y-149506800D01*
X222110366Y-149273466D02*
X222143700Y-149306800D01*
X222110366Y-149340133D01*
X222077033Y-149306800D01*
X222110366Y-149273466D01*
X222110366Y-149340133D01*
X221677033Y-149973466D02*
X221743700Y-149940133D01*
X221777033Y-149906800D01*
X221810366Y-149840133D01*
X221810366Y-149640133D01*
X221777033Y-149573466D01*
X221743700Y-149540133D01*
X221677033Y-149506800D01*
X221577033Y-149506800D01*
X221510366Y-149540133D01*
X221477033Y-149573466D01*
X221443700Y-149640133D01*
X221443700Y-149840133D01*
X221477033Y-149906800D01*
X221510366Y-149940133D01*
X221577033Y-149973466D01*
X221677033Y-149973466D01*
X221143700Y-149506800D02*
X221143700Y-149973466D01*
X221143700Y-149573466D02*
X221110366Y-149540133D01*
X221043700Y-149506800D01*
X220943700Y-149506800D01*
X220877033Y-149540133D01*
X220843700Y-149606800D01*
X220843700Y-149973466D01*
X219977033Y-149973466D02*
X219977033Y-149273466D01*
X219977033Y-149540133D02*
X219910366Y-149506800D01*
X219777033Y-149506800D01*
X219710366Y-149540133D01*
X219677033Y-149573466D01*
X219643700Y-149640133D01*
X219643700Y-149840133D01*
X219677033Y-149906800D01*
X219710366Y-149940133D01*
X219777033Y-149973466D01*
X219910366Y-149973466D01*
X219977033Y-149940133D01*
X219243700Y-149973466D02*
X219310366Y-149940133D01*
X219343700Y-149906800D01*
X219377033Y-149840133D01*
X219377033Y-149640133D01*
X219343700Y-149573466D01*
X219310366Y-149540133D01*
X219243700Y-149506800D01*
X219143700Y-149506800D01*
X219077033Y-149540133D01*
X219043700Y-149573466D01*
X219010366Y-149640133D01*
X219010366Y-149840133D01*
X219043700Y-149906800D01*
X219077033Y-149940133D01*
X219143700Y-149973466D01*
X219243700Y-149973466D01*
X218410366Y-149973466D02*
X218410366Y-149606800D01*
X218443700Y-149540133D01*
X218510366Y-149506800D01*
X218643700Y-149506800D01*
X218710366Y-149540133D01*
X218410366Y-149940133D02*
X218477033Y-149973466D01*
X218643700Y-149973466D01*
X218710366Y-149940133D01*
X218743700Y-149873466D01*
X218743700Y-149806800D01*
X218710366Y-149740133D01*
X218643700Y-149706800D01*
X218477033Y-149706800D01*
X218410366Y-149673466D01*
X218077033Y-149973466D02*
X218077033Y-149506800D01*
X218077033Y-149640133D02*
X218043700Y-149573466D01*
X218010366Y-149540133D01*
X217943700Y-149506800D01*
X217877033Y-149506800D01*
X217343700Y-149973466D02*
X217343700Y-149273466D01*
X217343700Y-149940133D02*
X217410366Y-149973466D01*
X217543700Y-149973466D01*
X217610366Y-149940133D01*
X217643700Y-149906800D01*
X217677033Y-149840133D01*
X217677033Y-149640133D01*
X217643700Y-149573466D01*
X217610366Y-149540133D01*
X217543700Y-149506800D01*
X217410366Y-149506800D01*
X217343700Y-149540133D01*
X216543700Y-149506800D02*
X216377033Y-149973466D01*
X216210366Y-149506800D01*
X215577033Y-149973466D02*
X215977033Y-149973466D01*
X215777033Y-149973466D02*
X215777033Y-149273466D01*
X215843700Y-149373466D01*
X215910366Y-149440133D01*
X215977033Y-149473466D01*
X240577033Y-150473466D02*
X240343700Y-151173466D01*
X240110366Y-150473466D01*
X239610366Y-151140133D02*
X239677033Y-151173466D01*
X239810366Y-151173466D01*
X239877033Y-151140133D01*
X239910366Y-151073466D01*
X239910366Y-150806800D01*
X239877033Y-150740133D01*
X239810366Y-150706800D01*
X239677033Y-150706800D01*
X239610366Y-150740133D01*
X239577033Y-150806800D01*
X239577033Y-150873466D01*
X239910366Y-150940133D01*
X239277033Y-151173466D02*
X239277033Y-150706800D01*
X239277033Y-150840133D02*
X239243700Y-150773466D01*
X239210366Y-150740133D01*
X239143700Y-150706800D01*
X239077033Y-150706800D01*
X238877033Y-151140133D02*
X238810366Y-151173466D01*
X238677033Y-151173466D01*
X238610366Y-151140133D01*
X238577033Y-151073466D01*
X238577033Y-151040133D01*
X238610366Y-150973466D01*
X238677033Y-150940133D01*
X238777033Y-150940133D01*
X238843700Y-150906800D01*
X238877033Y-150840133D01*
X238877033Y-150806800D01*
X238843700Y-150740133D01*
X238777033Y-150706800D01*
X238677033Y-150706800D01*
X238610366Y-150740133D01*
X238277033Y-151173466D02*
X238277033Y-150706800D01*
X238277033Y-150473466D02*
X238310366Y-150506800D01*
X238277033Y-150540133D01*
X238243700Y-150506800D01*
X238277033Y-150473466D01*
X238277033Y-150540133D01*
X237843700Y-151173466D02*
X237910366Y-151140133D01*
X237943700Y-151106800D01*
X237977033Y-151040133D01*
X237977033Y-150840133D01*
X237943700Y-150773466D01*
X237910366Y-150740133D01*
X237843700Y-150706800D01*
X237743700Y-150706800D01*
X237677033Y-150740133D01*
X237643700Y-150773466D01*
X237610366Y-150840133D01*
X237610366Y-151040133D01*
X237643700Y-151106800D01*
X237677033Y-151140133D01*
X237743700Y-151173466D01*
X237843700Y-151173466D01*
X237310366Y-150706800D02*
X237310366Y-151173466D01*
X237310366Y-150773466D02*
X237277033Y-150740133D01*
X237210366Y-150706800D01*
X237110366Y-150706800D01*
X237043700Y-150740133D01*
X237010366Y-150806800D01*
X237010366Y-151173466D01*
X236677033Y-151106800D02*
X236643700Y-151140133D01*
X236677033Y-151173466D01*
X236710366Y-151140133D01*
X236677033Y-151106800D01*
X236677033Y-151173466D01*
X236677033Y-150740133D02*
X236643700Y-150773466D01*
X236677033Y-150806800D01*
X236710366Y-150773466D01*
X236677033Y-150740133D01*
X236677033Y-150806800D01*
X235810366Y-151173466D02*
X235810366Y-150473466D01*
X235543700Y-150473466D01*
X235477033Y-150506800D01*
X235443700Y-150540133D01*
X235410366Y-150606800D01*
X235410366Y-150706800D01*
X235443700Y-150773466D01*
X235477033Y-150806800D01*
X235543700Y-150840133D01*
X235810366Y-150840133D01*
X234743700Y-151173466D02*
X235143700Y-151173466D01*
X234943700Y-151173466D02*
X234943700Y-150473466D01*
X235010366Y-150573466D01*
X235077033Y-150640133D01*
X235143700Y-150673466D01*
X234477033Y-150973466D02*
X234143700Y-150973466D01*
X234543700Y-151173466D02*
X234310366Y-150473466D01*
X234077033Y-151173466D01*
D13*
X235425533Y-135285733D02*
X235492200Y-135252400D01*
X235625533Y-135252400D01*
X235692200Y-135285733D01*
X235758866Y-135352400D01*
X235792200Y-135419066D01*
X235792200Y-135552400D01*
X235758866Y-135619066D01*
X235692200Y-135685733D01*
X235625533Y-135719066D01*
X235492200Y-135719066D01*
X235425533Y-135685733D01*
X235558866Y-135019066D02*
X235725533Y-135052400D01*
X235892200Y-135152400D01*
X235992200Y-135319066D01*
X236025533Y-135485733D01*
X235992200Y-135652400D01*
X235892200Y-135819066D01*
X235725533Y-135919066D01*
X235558866Y-135952400D01*
X235392200Y-135919066D01*
X235225533Y-135819066D01*
X235125533Y-135652400D01*
X235092200Y-135485733D01*
X235125533Y-135319066D01*
X235225533Y-135152400D01*
X235392200Y-135052400D01*
X235558866Y-135019066D01*
X234292200Y-135185733D02*
X234258866Y-135152400D01*
X234192200Y-135119066D01*
X234025533Y-135119066D01*
X233958866Y-135152400D01*
X233925533Y-135185733D01*
X233892200Y-135252400D01*
X233892200Y-135319066D01*
X233925533Y-135419066D01*
X234325533Y-135819066D01*
X233892200Y-135819066D01*
X233458866Y-135119066D02*
X233392200Y-135119066D01*
X233325533Y-135152400D01*
X233292200Y-135185733D01*
X233258866Y-135252400D01*
X233225533Y-135385733D01*
X233225533Y-135552400D01*
X233258866Y-135685733D01*
X233292200Y-135752400D01*
X233325533Y-135785733D01*
X233392200Y-135819066D01*
X233458866Y-135819066D01*
X233525533Y-135785733D01*
X233558866Y-135752400D01*
X233592200Y-135685733D01*
X233625533Y-135552400D01*
X233625533Y-135385733D01*
X233592200Y-135252400D01*
X233558866Y-135185733D01*
X233525533Y-135152400D01*
X233458866Y-135119066D01*
X232558866Y-135819066D02*
X232958866Y-135819066D01*
X232758866Y-135819066D02*
X232758866Y-135119066D01*
X232825533Y-135219066D01*
X232892200Y-135285733D01*
X232958866Y-135319066D01*
X232225533Y-135819066D02*
X232092200Y-135819066D01*
X232025533Y-135785733D01*
X231992200Y-135752400D01*
X231925533Y-135652400D01*
X231892200Y-135519066D01*
X231892200Y-135252400D01*
X231925533Y-135185733D01*
X231958866Y-135152400D01*
X232025533Y-135119066D01*
X232158866Y-135119066D01*
X232225533Y-135152400D01*
X232258866Y-135185733D01*
X232292200Y-135252400D01*
X232292200Y-135419066D01*
X232258866Y-135485733D01*
X232225533Y-135519066D01*
X232158866Y-135552400D01*
X232025533Y-135552400D01*
X231958866Y-135519066D01*
X231925533Y-135485733D01*
X231892200Y-135419066D01*
X231058866Y-135552400D02*
X230525533Y-135552400D01*
X229458866Y-135119066D02*
X229458866Y-135619066D01*
X229492200Y-135719066D01*
X229558866Y-135785733D01*
X229658866Y-135819066D01*
X229725533Y-135819066D01*
X229025533Y-135819066D02*
X229092200Y-135785733D01*
X229125533Y-135752400D01*
X229158866Y-135685733D01*
X229158866Y-135485733D01*
X229125533Y-135419066D01*
X229092200Y-135385733D01*
X229025533Y-135352400D01*
X228925533Y-135352400D01*
X228858866Y-135385733D01*
X228825533Y-135419066D01*
X228792200Y-135485733D01*
X228792200Y-135685733D01*
X228825533Y-135752400D01*
X228858866Y-135785733D01*
X228925533Y-135819066D01*
X229025533Y-135819066D01*
X228492200Y-135352400D02*
X228492200Y-135819066D01*
X228492200Y-135419066D02*
X228458866Y-135385733D01*
X228392200Y-135352400D01*
X228292200Y-135352400D01*
X228225533Y-135385733D01*
X228192200Y-135452400D01*
X228192200Y-135819066D01*
X227558866Y-135819066D02*
X227558866Y-135452400D01*
X227592200Y-135385733D01*
X227658866Y-135352400D01*
X227792200Y-135352400D01*
X227858866Y-135385733D01*
X227558866Y-135785733D02*
X227625533Y-135819066D01*
X227792200Y-135819066D01*
X227858866Y-135785733D01*
X227892200Y-135719066D01*
X227892200Y-135652400D01*
X227858866Y-135585733D01*
X227792200Y-135552400D01*
X227625533Y-135552400D01*
X227558866Y-135519066D01*
X227258866Y-135785733D02*
X227192200Y-135819066D01*
X227058866Y-135819066D01*
X226992200Y-135785733D01*
X226958866Y-135719066D01*
X226958866Y-135685733D01*
X226992200Y-135619066D01*
X227058866Y-135585733D01*
X227158866Y-135585733D01*
X227225533Y-135552400D01*
X227258866Y-135485733D01*
X227258866Y-135452400D01*
X227225533Y-135385733D01*
X227158866Y-135352400D01*
X227058866Y-135352400D01*
X226992200Y-135385733D01*
X225892200Y-135452400D02*
X225792200Y-135485733D01*
X225758866Y-135519066D01*
X225725533Y-135585733D01*
X225725533Y-135685733D01*
X225758866Y-135752400D01*
X225792200Y-135785733D01*
X225858866Y-135819066D01*
X226125533Y-135819066D01*
X226125533Y-135119066D01*
X225892200Y-135119066D01*
X225825533Y-135152400D01*
X225792200Y-135185733D01*
X225758866Y-135252400D01*
X225758866Y-135319066D01*
X225792200Y-135385733D01*
X225825533Y-135419066D01*
X225892200Y-135452400D01*
X226125533Y-135452400D01*
X225425533Y-135352400D02*
X225425533Y-135952400D01*
X225458866Y-136019066D01*
X225525533Y-136052400D01*
X225558866Y-136052400D01*
X225425533Y-135119066D02*
X225458866Y-135152400D01*
X225425533Y-135185733D01*
X225392200Y-135152400D01*
X225425533Y-135119066D01*
X225425533Y-135185733D01*
X224792200Y-135352400D02*
X224792200Y-135819066D01*
X225092200Y-135352400D02*
X225092200Y-135719066D01*
X225058866Y-135785733D01*
X224992200Y-135819066D01*
X224892200Y-135819066D01*
X224825533Y-135785733D01*
X224792200Y-135752400D01*
X224458866Y-135819066D02*
X224458866Y-135352400D01*
X224458866Y-135485733D02*
X224425533Y-135419066D01*
X224392200Y-135385733D01*
X224325533Y-135352400D01*
X224258866Y-135352400D01*
X223758866Y-135785733D02*
X223825533Y-135819066D01*
X223958866Y-135819066D01*
X224025533Y-135785733D01*
X224058866Y-135719066D01*
X224058866Y-135452400D01*
X224025533Y-135385733D01*
X223958866Y-135352400D01*
X223825533Y-135352400D01*
X223758866Y-135385733D01*
X223725533Y-135452400D01*
X223725533Y-135519066D01*
X224058866Y-135585733D01*
X223325533Y-135819066D02*
X223392200Y-135785733D01*
X223425533Y-135719066D01*
X223425533Y-135119066D01*
X240108866Y-136994066D02*
X240442200Y-136994066D01*
X240442200Y-136294066D01*
X239875533Y-136994066D02*
X239875533Y-136527400D01*
X239875533Y-136294066D02*
X239908866Y-136327400D01*
X239875533Y-136360733D01*
X239842200Y-136327400D01*
X239875533Y-136294066D01*
X239875533Y-136360733D01*
X239242200Y-136960733D02*
X239308866Y-136994066D01*
X239442200Y-136994066D01*
X239508866Y-136960733D01*
X239542200Y-136927400D01*
X239575533Y-136860733D01*
X239575533Y-136660733D01*
X239542200Y-136594066D01*
X239508866Y-136560733D01*
X239442200Y-136527400D01*
X239308866Y-136527400D01*
X239242200Y-136560733D01*
X238675533Y-136960733D02*
X238742200Y-136994066D01*
X238875533Y-136994066D01*
X238942200Y-136960733D01*
X238975533Y-136894066D01*
X238975533Y-136627400D01*
X238942200Y-136560733D01*
X238875533Y-136527400D01*
X238742200Y-136527400D01*
X238675533Y-136560733D01*
X238642200Y-136627400D01*
X238642200Y-136694066D01*
X238975533Y-136760733D01*
X238342200Y-136527400D02*
X238342200Y-136994066D01*
X238342200Y-136594066D02*
X238308866Y-136560733D01*
X238242200Y-136527400D01*
X238142200Y-136527400D01*
X238075533Y-136560733D01*
X238042200Y-136627400D01*
X238042200Y-136994066D01*
X237742200Y-136960733D02*
X237675533Y-136994066D01*
X237542200Y-136994066D01*
X237475533Y-136960733D01*
X237442200Y-136894066D01*
X237442200Y-136860733D01*
X237475533Y-136794066D01*
X237542200Y-136760733D01*
X237642200Y-136760733D01*
X237708866Y-136727400D01*
X237742200Y-136660733D01*
X237742200Y-136627400D01*
X237708866Y-136560733D01*
X237642200Y-136527400D01*
X237542200Y-136527400D01*
X237475533Y-136560733D01*
X236875533Y-136960733D02*
X236942200Y-136994066D01*
X237075533Y-136994066D01*
X237142200Y-136960733D01*
X237175533Y-136894066D01*
X237175533Y-136627400D01*
X237142200Y-136560733D01*
X237075533Y-136527400D01*
X236942200Y-136527400D01*
X236875533Y-136560733D01*
X236842200Y-136627400D01*
X236842200Y-136694066D01*
X237175533Y-136760733D01*
X236542200Y-136927400D02*
X236508866Y-136960733D01*
X236542200Y-136994066D01*
X236575533Y-136960733D01*
X236542200Y-136927400D01*
X236542200Y-136994066D01*
X236542200Y-136560733D02*
X236508866Y-136594066D01*
X236542200Y-136627400D01*
X236575533Y-136594066D01*
X236542200Y-136560733D01*
X236542200Y-136627400D01*
X235275533Y-136927400D02*
X235308866Y-136960733D01*
X235408866Y-136994066D01*
X235475533Y-136994066D01*
X235575533Y-136960733D01*
X235642200Y-136894066D01*
X235675533Y-136827400D01*
X235708866Y-136694066D01*
X235708866Y-136594066D01*
X235675533Y-136460733D01*
X235642200Y-136394066D01*
X235575533Y-136327400D01*
X235475533Y-136294066D01*
X235408866Y-136294066D01*
X235308866Y-136327400D01*
X235275533Y-136360733D01*
X234975533Y-136994066D02*
X234975533Y-136527400D01*
X234975533Y-136660733D02*
X234942200Y-136594066D01*
X234908866Y-136560733D01*
X234842200Y-136527400D01*
X234775533Y-136527400D01*
X234275533Y-136960733D02*
X234342200Y-136994066D01*
X234475533Y-136994066D01*
X234542200Y-136960733D01*
X234575533Y-136894066D01*
X234575533Y-136627400D01*
X234542200Y-136560733D01*
X234475533Y-136527400D01*
X234342200Y-136527400D01*
X234275533Y-136560733D01*
X234242200Y-136627400D01*
X234242200Y-136694066D01*
X234575533Y-136760733D01*
X233642200Y-136994066D02*
X233642200Y-136627400D01*
X233675533Y-136560733D01*
X233742200Y-136527400D01*
X233875533Y-136527400D01*
X233942200Y-136560733D01*
X233642200Y-136960733D02*
X233708866Y-136994066D01*
X233875533Y-136994066D01*
X233942200Y-136960733D01*
X233975533Y-136894066D01*
X233975533Y-136827400D01*
X233942200Y-136760733D01*
X233875533Y-136727400D01*
X233708866Y-136727400D01*
X233642200Y-136694066D01*
X233408866Y-136527400D02*
X233142200Y-136527400D01*
X233308866Y-136294066D02*
X233308866Y-136894066D01*
X233275533Y-136960733D01*
X233208866Y-136994066D01*
X233142200Y-136994066D01*
X232908866Y-136994066D02*
X232908866Y-136527400D01*
X232908866Y-136294066D02*
X232942200Y-136327400D01*
X232908866Y-136360733D01*
X232875533Y-136327400D01*
X232908866Y-136294066D01*
X232908866Y-136360733D01*
X232642200Y-136527400D02*
X232475533Y-136994066D01*
X232308866Y-136527400D01*
X231775533Y-136960733D02*
X231842200Y-136994066D01*
X231975533Y-136994066D01*
X232042200Y-136960733D01*
X232075533Y-136894066D01*
X232075533Y-136627400D01*
X232042200Y-136560733D01*
X231975533Y-136527400D01*
X231842200Y-136527400D01*
X231775533Y-136560733D01*
X231742200Y-136627400D01*
X231742200Y-136694066D01*
X232075533Y-136760733D01*
X230608866Y-136960733D02*
X230675533Y-136994066D01*
X230808866Y-136994066D01*
X230875533Y-136960733D01*
X230908866Y-136927400D01*
X230942200Y-136860733D01*
X230942200Y-136660733D01*
X230908866Y-136594066D01*
X230875533Y-136560733D01*
X230808866Y-136527400D01*
X230675533Y-136527400D01*
X230608866Y-136560733D01*
X230208866Y-136994066D02*
X230275533Y-136960733D01*
X230308866Y-136927400D01*
X230342200Y-136860733D01*
X230342200Y-136660733D01*
X230308866Y-136594066D01*
X230275533Y-136560733D01*
X230208866Y-136527400D01*
X230108866Y-136527400D01*
X230042200Y-136560733D01*
X230008866Y-136594066D01*
X229975533Y-136660733D01*
X229975533Y-136860733D01*
X230008866Y-136927400D01*
X230042200Y-136960733D01*
X230108866Y-136994066D01*
X230208866Y-136994066D01*
X229675533Y-136994066D02*
X229675533Y-136527400D01*
X229675533Y-136594066D02*
X229642200Y-136560733D01*
X229575533Y-136527400D01*
X229475533Y-136527400D01*
X229408866Y-136560733D01*
X229375533Y-136627400D01*
X229375533Y-136994066D01*
X229375533Y-136627400D02*
X229342200Y-136560733D01*
X229275533Y-136527400D01*
X229175533Y-136527400D01*
X229108866Y-136560733D01*
X229075533Y-136627400D01*
X229075533Y-136994066D01*
X228742200Y-136994066D02*
X228742200Y-136527400D01*
X228742200Y-136594066D02*
X228708866Y-136560733D01*
X228642200Y-136527400D01*
X228542200Y-136527400D01*
X228475533Y-136560733D01*
X228442200Y-136627400D01*
X228442200Y-136994066D01*
X228442200Y-136627400D02*
X228408866Y-136560733D01*
X228342200Y-136527400D01*
X228242200Y-136527400D01*
X228175533Y-136560733D01*
X228142200Y-136627400D01*
X228142200Y-136994066D01*
X227708866Y-136994066D02*
X227775533Y-136960733D01*
X227808866Y-136927400D01*
X227842200Y-136860733D01*
X227842200Y-136660733D01*
X227808866Y-136594066D01*
X227775533Y-136560733D01*
X227708866Y-136527400D01*
X227608866Y-136527400D01*
X227542200Y-136560733D01*
X227508866Y-136594066D01*
X227475533Y-136660733D01*
X227475533Y-136860733D01*
X227508866Y-136927400D01*
X227542200Y-136960733D01*
X227608866Y-136994066D01*
X227708866Y-136994066D01*
X227175533Y-136527400D02*
X227175533Y-136994066D01*
X227175533Y-136594066D02*
X227142200Y-136560733D01*
X227075533Y-136527400D01*
X226975533Y-136527400D01*
X226908866Y-136560733D01*
X226875533Y-136627400D01*
X226875533Y-136994066D01*
X226575533Y-136960733D02*
X226508866Y-136994066D01*
X226375533Y-136994066D01*
X226308866Y-136960733D01*
X226275533Y-136894066D01*
X226275533Y-136860733D01*
X226308866Y-136794066D01*
X226375533Y-136760733D01*
X226475533Y-136760733D01*
X226542200Y-136727400D01*
X226575533Y-136660733D01*
X226575533Y-136627400D01*
X226542200Y-136560733D01*
X226475533Y-136527400D01*
X226375533Y-136527400D01*
X226308866Y-136560733D01*
X225442200Y-136727400D02*
X224908866Y-136727400D01*
X223642200Y-136927400D02*
X223675533Y-136960733D01*
X223775533Y-136994066D01*
X223842200Y-136994066D01*
X223942200Y-136960733D01*
X224008866Y-136894066D01*
X224042200Y-136827400D01*
X224075533Y-136694066D01*
X224075533Y-136594066D01*
X224042200Y-136460733D01*
X224008866Y-136394066D01*
X223942200Y-136327400D01*
X223842200Y-136294066D01*
X223775533Y-136294066D01*
X223675533Y-136327400D01*
X223642200Y-136360733D01*
X222942200Y-136927400D02*
X222975533Y-136960733D01*
X223075533Y-136994066D01*
X223142200Y-136994066D01*
X223242200Y-136960733D01*
X223308866Y-136894066D01*
X223342200Y-136827400D01*
X223375533Y-136694066D01*
X223375533Y-136594066D01*
X223342200Y-136460733D01*
X223308866Y-136394066D01*
X223242200Y-136327400D01*
X223142200Y-136294066D01*
X223075533Y-136294066D01*
X222975533Y-136327400D01*
X222942200Y-136360733D01*
X221875533Y-136627400D02*
X221775533Y-136660733D01*
X221742200Y-136694066D01*
X221708866Y-136760733D01*
X221708866Y-136860733D01*
X221742200Y-136927400D01*
X221775533Y-136960733D01*
X221842200Y-136994066D01*
X222108866Y-136994066D01*
X222108866Y-136294066D01*
X221875533Y-136294066D01*
X221808866Y-136327400D01*
X221775533Y-136360733D01*
X221742200Y-136427400D01*
X221742200Y-136494066D01*
X221775533Y-136560733D01*
X221808866Y-136594066D01*
X221875533Y-136627400D01*
X222108866Y-136627400D01*
X221275533Y-136660733D02*
X221275533Y-136994066D01*
X221508866Y-136294066D02*
X221275533Y-136660733D01*
X221042200Y-136294066D01*
X220308866Y-136360733D02*
X220275533Y-136327400D01*
X220208866Y-136294066D01*
X220042200Y-136294066D01*
X219975533Y-136327400D01*
X219942200Y-136360733D01*
X219908866Y-136427400D01*
X219908866Y-136494066D01*
X219942200Y-136594066D01*
X220342200Y-136994066D01*
X219908866Y-136994066D01*
X219608866Y-136927400D02*
X219575533Y-136960733D01*
X219608866Y-136994066D01*
X219642200Y-136960733D01*
X219608866Y-136927400D01*
X219608866Y-136994066D01*
X219142200Y-136294066D02*
X219075533Y-136294066D01*
X219008866Y-136327400D01*
X218975533Y-136360733D01*
X218942200Y-136427400D01*
X218908866Y-136560733D01*
X218908866Y-136727400D01*
X218942200Y-136860733D01*
X218975533Y-136927400D01*
X219008866Y-136960733D01*
X219075533Y-136994066D01*
X219142200Y-136994066D01*
X219208866Y-136960733D01*
X219242200Y-136927400D01*
X219275533Y-136860733D01*
X219308866Y-136727400D01*
X219308866Y-136560733D01*
X219275533Y-136427400D01*
X219242200Y-136360733D01*
X219208866Y-136327400D01*
X219142200Y-136294066D01*
X236625533Y-138169066D02*
X236625533Y-137469066D01*
X236358866Y-137469066D01*
X236292200Y-137502400D01*
X236258866Y-137535733D01*
X236225533Y-137602400D01*
X236225533Y-137702400D01*
X236258866Y-137769066D01*
X236292200Y-137802400D01*
X236358866Y-137835733D01*
X236625533Y-137835733D01*
X235925533Y-138169066D02*
X235925533Y-137702400D01*
X235925533Y-137835733D02*
X235892200Y-137769066D01*
X235858866Y-137735733D01*
X235792200Y-137702400D01*
X235725533Y-137702400D01*
X235392200Y-138169066D02*
X235458866Y-138135733D01*
X235492200Y-138102400D01*
X235525533Y-138035733D01*
X235525533Y-137835733D01*
X235492200Y-137769066D01*
X235458866Y-137735733D01*
X235392200Y-137702400D01*
X235292200Y-137702400D01*
X235225533Y-137735733D01*
X235192200Y-137769066D01*
X235158866Y-137835733D01*
X235158866Y-138035733D01*
X235192200Y-138102400D01*
X235225533Y-138135733D01*
X235292200Y-138169066D01*
X235392200Y-138169066D01*
X234858866Y-137702400D02*
X234858866Y-138302400D01*
X234892200Y-138369066D01*
X234958866Y-138402400D01*
X234992200Y-138402400D01*
X234858866Y-137469066D02*
X234892200Y-137502400D01*
X234858866Y-137535733D01*
X234825533Y-137502400D01*
X234858866Y-137469066D01*
X234858866Y-137535733D01*
X234258866Y-138135733D02*
X234325533Y-138169066D01*
X234458866Y-138169066D01*
X234525533Y-138135733D01*
X234558866Y-138069066D01*
X234558866Y-137802400D01*
X234525533Y-137735733D01*
X234458866Y-137702400D01*
X234325533Y-137702400D01*
X234258866Y-137735733D01*
X234225533Y-137802400D01*
X234225533Y-137869066D01*
X234558866Y-137935733D01*
X233625533Y-138135733D02*
X233692200Y-138169066D01*
X233825533Y-138169066D01*
X233892200Y-138135733D01*
X233925533Y-138102400D01*
X233958866Y-138035733D01*
X233958866Y-137835733D01*
X233925533Y-137769066D01*
X233892200Y-137735733D01*
X233825533Y-137702400D01*
X233692200Y-137702400D01*
X233625533Y-137735733D01*
X233425533Y-137702400D02*
X233158866Y-137702400D01*
X233325533Y-137469066D02*
X233325533Y-138069066D01*
X233292200Y-138135733D01*
X233225533Y-138169066D01*
X233158866Y-138169066D01*
X232925533Y-138102400D02*
X232892200Y-138135733D01*
X232925533Y-138169066D01*
X232958866Y-138135733D01*
X232925533Y-138102400D01*
X232925533Y-138169066D01*
X232925533Y-137735733D02*
X232892200Y-137769066D01*
X232925533Y-137802400D01*
X232958866Y-137769066D01*
X232925533Y-137735733D01*
X232925533Y-137802400D01*
X231925533Y-137469066D02*
X231792200Y-137469066D01*
X231725533Y-137502400D01*
X231658866Y-137569066D01*
X231625533Y-137702400D01*
X231625533Y-137935733D01*
X231658866Y-138069066D01*
X231725533Y-138135733D01*
X231792200Y-138169066D01*
X231925533Y-138169066D01*
X231992200Y-138135733D01*
X232058866Y-138069066D01*
X232092200Y-137935733D01*
X232092200Y-137702400D01*
X232058866Y-137569066D01*
X231992200Y-137502400D01*
X231925533Y-137469066D01*
X231325533Y-137702400D02*
X231325533Y-138402400D01*
X231325533Y-137735733D02*
X231258866Y-137702400D01*
X231125533Y-137702400D01*
X231058866Y-137735733D01*
X231025533Y-137769066D01*
X230992200Y-137835733D01*
X230992200Y-138035733D01*
X231025533Y-138102400D01*
X231058866Y-138135733D01*
X231125533Y-138169066D01*
X231258866Y-138169066D01*
X231325533Y-138135733D01*
X230425533Y-138135733D02*
X230492200Y-138169066D01*
X230625533Y-138169066D01*
X230692200Y-138135733D01*
X230725533Y-138069066D01*
X230725533Y-137802400D01*
X230692200Y-137735733D01*
X230625533Y-137702400D01*
X230492200Y-137702400D01*
X230425533Y-137735733D01*
X230392200Y-137802400D01*
X230392200Y-137869066D01*
X230725533Y-137935733D01*
X230092200Y-137702400D02*
X230092200Y-138169066D01*
X230092200Y-137769066D02*
X230058866Y-137735733D01*
X229992200Y-137702400D01*
X229892200Y-137702400D01*
X229825533Y-137735733D01*
X229792200Y-137802400D01*
X229792200Y-138169066D01*
X229225533Y-137802400D02*
X229458866Y-137802400D01*
X229458866Y-138169066D02*
X229458866Y-137469066D01*
X229125533Y-137469066D01*
X228758866Y-138169066D02*
X228825533Y-138135733D01*
X228858866Y-138069066D01*
X228858866Y-137469066D01*
X228558866Y-137702400D02*
X228392200Y-138169066D01*
X228225533Y-137702400D02*
X228392200Y-138169066D01*
X228458866Y-138335733D01*
X228492200Y-138369066D01*
X228558866Y-138402400D01*
X227525533Y-137469066D02*
X227125533Y-137469066D01*
X227325533Y-138169066D02*
X227325533Y-137469066D01*
X226625533Y-138135733D02*
X226692200Y-138169066D01*
X226825533Y-138169066D01*
X226892200Y-138135733D01*
X226925533Y-138069066D01*
X226925533Y-137802400D01*
X226892200Y-137735733D01*
X226825533Y-137702400D01*
X226692200Y-137702400D01*
X226625533Y-137735733D01*
X226592200Y-137802400D01*
X226592200Y-137869066D01*
X226925533Y-137935733D01*
X226192200Y-138169066D02*
X226258866Y-138135733D01*
X226292200Y-138069066D01*
X226292200Y-137469066D01*
X225658866Y-138135733D02*
X225725533Y-138169066D01*
X225858866Y-138169066D01*
X225925533Y-138135733D01*
X225958866Y-138069066D01*
X225958866Y-137802400D01*
X225925533Y-137735733D01*
X225858866Y-137702400D01*
X225725533Y-137702400D01*
X225658866Y-137735733D01*
X225625533Y-137802400D01*
X225625533Y-137869066D01*
X225958866Y-137935733D01*
X225325533Y-138169066D02*
X225325533Y-137702400D01*
X225325533Y-137769066D02*
X225292200Y-137735733D01*
X225225533Y-137702400D01*
X225125533Y-137702400D01*
X225058866Y-137735733D01*
X225025533Y-137802400D01*
X225025533Y-138169066D01*
X225025533Y-137802400D02*
X224992200Y-137735733D01*
X224925533Y-137702400D01*
X224825533Y-137702400D01*
X224758866Y-137735733D01*
X224725533Y-137802400D01*
X224725533Y-138169066D01*
X224125533Y-138135733D02*
X224192200Y-138169066D01*
X224325533Y-138169066D01*
X224392200Y-138135733D01*
X224425533Y-138069066D01*
X224425533Y-137802400D01*
X224392200Y-137735733D01*
X224325533Y-137702400D01*
X224192200Y-137702400D01*
X224125533Y-137735733D01*
X224092200Y-137802400D01*
X224092200Y-137869066D01*
X224425533Y-137935733D01*
X223892200Y-137702400D02*
X223625533Y-137702400D01*
X223792200Y-137469066D02*
X223792200Y-138069066D01*
X223758866Y-138135733D01*
X223692200Y-138169066D01*
X223625533Y-138169066D01*
X223392200Y-138169066D02*
X223392200Y-137702400D01*
X223392200Y-137835733D02*
X223358866Y-137769066D01*
X223325533Y-137735733D01*
X223258866Y-137702400D01*
X223192200Y-137702400D01*
X223025533Y-137702400D02*
X222858866Y-138169066D01*
X222692200Y-137702400D02*
X222858866Y-138169066D01*
X222925533Y-138335733D01*
X222958866Y-138369066D01*
X223025533Y-138402400D01*
M02*
