G04 #@! TF.GenerationSoftware,KiCad,Pcbnew,(5.1.4)-1*
G04 #@! TF.CreationDate,2019-11-17T19:28:04+01:00*
G04 #@! TF.ProjectId,Open_Telemetry_digitalSensorShield,4f70656e-5f54-4656-9c65-6d657472795f,P1A - Prototype manuf.*
G04 #@! TF.SameCoordinates,Original*
G04 #@! TF.FileFunction,Other,ECO1*
%FSLAX46Y46*%
G04 Gerber Fmt 4.6, Leading zero omitted, Abs format (unit mm)*
G04 Created by KiCad (PCBNEW (5.1.4)-1) date 2019-11-17 19:28:04*
%MOMM*%
%LPD*%
G04 APERTURE LIST*
%ADD10C,0.150000*%
%ADD11C,0.120000*%
G04 APERTURE END LIST*
D10*
X274634699Y-129825501D02*
X274634699Y-129254073D01*
X274634699Y-129539787D02*
X275634699Y-129539787D01*
X275491841Y-129444549D01*
X275396603Y-129349311D01*
X275348984Y-129254073D01*
X274729937Y-130254073D02*
X274682318Y-130301692D01*
X274634699Y-130254073D01*
X274682318Y-130206454D01*
X274729937Y-130254073D01*
X274634699Y-130254073D01*
X274634699Y-130777882D02*
X274634699Y-130968359D01*
X274682318Y-131063597D01*
X274729937Y-131111216D01*
X274872794Y-131206454D01*
X275063270Y-131254073D01*
X275444222Y-131254073D01*
X275539460Y-131206454D01*
X275587080Y-131158835D01*
X275634699Y-131063597D01*
X275634699Y-130873120D01*
X275587080Y-130777882D01*
X275539460Y-130730263D01*
X275444222Y-130682644D01*
X275206127Y-130682644D01*
X275110889Y-130730263D01*
X275063270Y-130777882D01*
X275015651Y-130873120D01*
X275015651Y-131063597D01*
X275063270Y-131158835D01*
X275110889Y-131206454D01*
X275206127Y-131254073D01*
X275634699Y-131873120D02*
X275634699Y-131968359D01*
X275587080Y-132063597D01*
X275539460Y-132111216D01*
X275444222Y-132158835D01*
X275253746Y-132206454D01*
X275015651Y-132206454D01*
X274825175Y-132158835D01*
X274729937Y-132111216D01*
X274682318Y-132063597D01*
X274634699Y-131968359D01*
X274634699Y-131873120D01*
X274682318Y-131777882D01*
X274729937Y-131730263D01*
X274825175Y-131682644D01*
X275015651Y-131635025D01*
X275253746Y-131635025D01*
X275444222Y-131682644D01*
X275539460Y-131730263D01*
X275587080Y-131777882D01*
X275634699Y-131873120D01*
X275634699Y-132825501D02*
X275634699Y-132920740D01*
X275587080Y-133015978D01*
X275539460Y-133063597D01*
X275444222Y-133111216D01*
X275253746Y-133158835D01*
X275015651Y-133158835D01*
X274825175Y-133111216D01*
X274729937Y-133063597D01*
X274682318Y-133015978D01*
X274634699Y-132920740D01*
X274634699Y-132825501D01*
X274682318Y-132730263D01*
X274729937Y-132682644D01*
X274825175Y-132635025D01*
X275015651Y-132587406D01*
X275253746Y-132587406D01*
X275444222Y-132635025D01*
X275539460Y-132682644D01*
X275587080Y-132730263D01*
X275634699Y-132825501D01*
X274634699Y-134349311D02*
X275301365Y-134349311D01*
X275206127Y-134349311D02*
X275253746Y-134396930D01*
X275301365Y-134492168D01*
X275301365Y-134635025D01*
X275253746Y-134730263D01*
X275158508Y-134777882D01*
X274634699Y-134777882D01*
X275158508Y-134777882D02*
X275253746Y-134825501D01*
X275301365Y-134920740D01*
X275301365Y-135063597D01*
X275253746Y-135158835D01*
X275158508Y-135206454D01*
X274634699Y-135206454D01*
X274634699Y-135682644D02*
X275301365Y-135682644D01*
X275206127Y-135682644D02*
X275253746Y-135730263D01*
X275301365Y-135825501D01*
X275301365Y-135968359D01*
X275253746Y-136063597D01*
X275158508Y-136111216D01*
X274634699Y-136111216D01*
X275158508Y-136111216D02*
X275253746Y-136158835D01*
X275301365Y-136254073D01*
X275301365Y-136396930D01*
X275253746Y-136492168D01*
X275158508Y-136539787D01*
X274634699Y-136539787D01*
D11*
X273817080Y-131970780D02*
X273817080Y-133870700D01*
X261868920Y-131970780D02*
X274403501Y-131970780D01*
X261868920Y-133870700D02*
X274403501Y-133870700D01*
X273817080Y-133870700D02*
X273230659Y-132744196D01*
X273817080Y-133870700D02*
X274403501Y-132744196D01*
X273817080Y-131970780D02*
X273230659Y-133097284D01*
X273817080Y-131970780D02*
X274403501Y-133097284D01*
D10*
X238617571Y-128976380D02*
X238046142Y-128976380D01*
X238331857Y-128976380D02*
X238331857Y-127976380D01*
X238236619Y-128119238D01*
X238141380Y-128214476D01*
X238046142Y-128262095D01*
X239236619Y-127976380D02*
X239331857Y-127976380D01*
X239427095Y-128024000D01*
X239474714Y-128071619D01*
X239522333Y-128166857D01*
X239569952Y-128357333D01*
X239569952Y-128595428D01*
X239522333Y-128785904D01*
X239474714Y-128881142D01*
X239427095Y-128928761D01*
X239331857Y-128976380D01*
X239236619Y-128976380D01*
X239141380Y-128928761D01*
X239093761Y-128881142D01*
X239046142Y-128785904D01*
X238998523Y-128595428D01*
X238998523Y-128357333D01*
X239046142Y-128166857D01*
X239093761Y-128071619D01*
X239141380Y-128024000D01*
X239236619Y-127976380D01*
X239998523Y-128881142D02*
X240046142Y-128928761D01*
X239998523Y-128976380D01*
X239950904Y-128928761D01*
X239998523Y-128881142D01*
X239998523Y-128976380D01*
X240665190Y-127976380D02*
X240760428Y-127976380D01*
X240855666Y-128024000D01*
X240903285Y-128071619D01*
X240950904Y-128166857D01*
X240998523Y-128357333D01*
X240998523Y-128595428D01*
X240950904Y-128785904D01*
X240903285Y-128881142D01*
X240855666Y-128928761D01*
X240760428Y-128976380D01*
X240665190Y-128976380D01*
X240569952Y-128928761D01*
X240522333Y-128881142D01*
X240474714Y-128785904D01*
X240427095Y-128595428D01*
X240427095Y-128357333D01*
X240474714Y-128166857D01*
X240522333Y-128071619D01*
X240569952Y-128024000D01*
X240665190Y-127976380D01*
X241617571Y-127976380D02*
X241712809Y-127976380D01*
X241808047Y-128024000D01*
X241855666Y-128071619D01*
X241903285Y-128166857D01*
X241950904Y-128357333D01*
X241950904Y-128595428D01*
X241903285Y-128785904D01*
X241855666Y-128881142D01*
X241808047Y-128928761D01*
X241712809Y-128976380D01*
X241617571Y-128976380D01*
X241522333Y-128928761D01*
X241474714Y-128881142D01*
X241427095Y-128785904D01*
X241379476Y-128595428D01*
X241379476Y-128357333D01*
X241427095Y-128166857D01*
X241474714Y-128071619D01*
X241522333Y-128024000D01*
X241617571Y-127976380D01*
X242522333Y-128404952D02*
X242427095Y-128357333D01*
X242379476Y-128309714D01*
X242331857Y-128214476D01*
X242331857Y-128166857D01*
X242379476Y-128071619D01*
X242427095Y-128024000D01*
X242522333Y-127976380D01*
X242712809Y-127976380D01*
X242808047Y-128024000D01*
X242855666Y-128071619D01*
X242903285Y-128166857D01*
X242903285Y-128214476D01*
X242855666Y-128309714D01*
X242808047Y-128357333D01*
X242712809Y-128404952D01*
X242522333Y-128404952D01*
X242427095Y-128452571D01*
X242379476Y-128500190D01*
X242331857Y-128595428D01*
X242331857Y-128785904D01*
X242379476Y-128881142D01*
X242427095Y-128928761D01*
X242522333Y-128976380D01*
X242712809Y-128976380D01*
X242808047Y-128928761D01*
X242855666Y-128881142D01*
X242903285Y-128785904D01*
X242903285Y-128595428D01*
X242855666Y-128500190D01*
X242808047Y-128452571D01*
X242712809Y-128404952D01*
X244093761Y-128976380D02*
X244093761Y-128309714D01*
X244093761Y-128404952D02*
X244141380Y-128357333D01*
X244236619Y-128309714D01*
X244379476Y-128309714D01*
X244474714Y-128357333D01*
X244522333Y-128452571D01*
X244522333Y-128976380D01*
X244522333Y-128452571D02*
X244569952Y-128357333D01*
X244665190Y-128309714D01*
X244808047Y-128309714D01*
X244903285Y-128357333D01*
X244950904Y-128452571D01*
X244950904Y-128976380D01*
X245427095Y-128976380D02*
X245427095Y-128309714D01*
X245427095Y-128404952D02*
X245474714Y-128357333D01*
X245569952Y-128309714D01*
X245712809Y-128309714D01*
X245808047Y-128357333D01*
X245855666Y-128452571D01*
X245855666Y-128976380D01*
X245855666Y-128452571D02*
X245903285Y-128357333D01*
X245998523Y-128309714D01*
X246141380Y-128309714D01*
X246236619Y-128357333D01*
X246284238Y-128452571D01*
X246284238Y-128976380D01*
D11*
X237185200Y-129794000D02*
X247192800Y-129794000D01*
X237185200Y-138226800D02*
X237185200Y-129207579D01*
X247192800Y-138226800D02*
X247192800Y-129207579D01*
X247192800Y-129794000D02*
X246066296Y-130380421D01*
X247192800Y-129794000D02*
X246066296Y-129207579D01*
X237185200Y-129794000D02*
X238311704Y-130380421D01*
X237185200Y-129794000D02*
X238311704Y-129207579D01*
D10*
X211534833Y-120578619D02*
X211582452Y-120531000D01*
X211677690Y-120483380D01*
X211915785Y-120483380D01*
X212011023Y-120531000D01*
X212058642Y-120578619D01*
X212106261Y-120673857D01*
X212106261Y-120769095D01*
X212058642Y-120911952D01*
X211487214Y-121483380D01*
X212106261Y-121483380D01*
X212534833Y-121388142D02*
X212582452Y-121435761D01*
X212534833Y-121483380D01*
X212487214Y-121435761D01*
X212534833Y-121388142D01*
X212534833Y-121483380D01*
X213487214Y-120483380D02*
X213011023Y-120483380D01*
X212963404Y-120959571D01*
X213011023Y-120911952D01*
X213106261Y-120864333D01*
X213344357Y-120864333D01*
X213439595Y-120911952D01*
X213487214Y-120959571D01*
X213534833Y-121054809D01*
X213534833Y-121292904D01*
X213487214Y-121388142D01*
X213439595Y-121435761D01*
X213344357Y-121483380D01*
X213106261Y-121483380D01*
X213011023Y-121435761D01*
X212963404Y-121388142D01*
X214391976Y-120816714D02*
X214391976Y-121483380D01*
X214153880Y-120435761D02*
X213915785Y-121150047D01*
X214534833Y-121150047D01*
X215106261Y-120483380D02*
X215201500Y-120483380D01*
X215296738Y-120531000D01*
X215344357Y-120578619D01*
X215391976Y-120673857D01*
X215439595Y-120864333D01*
X215439595Y-121102428D01*
X215391976Y-121292904D01*
X215344357Y-121388142D01*
X215296738Y-121435761D01*
X215201500Y-121483380D01*
X215106261Y-121483380D01*
X215011023Y-121435761D01*
X214963404Y-121388142D01*
X214915785Y-121292904D01*
X214868166Y-121102428D01*
X214868166Y-120864333D01*
X214915785Y-120673857D01*
X214963404Y-120578619D01*
X215011023Y-120531000D01*
X215106261Y-120483380D01*
X216630071Y-121483380D02*
X216630071Y-120816714D01*
X216630071Y-120911952D02*
X216677690Y-120864333D01*
X216772928Y-120816714D01*
X216915785Y-120816714D01*
X217011023Y-120864333D01*
X217058642Y-120959571D01*
X217058642Y-121483380D01*
X217058642Y-120959571D02*
X217106261Y-120864333D01*
X217201500Y-120816714D01*
X217344357Y-120816714D01*
X217439595Y-120864333D01*
X217487214Y-120959571D01*
X217487214Y-121483380D01*
X217963404Y-121483380D02*
X217963404Y-120816714D01*
X217963404Y-120911952D02*
X218011023Y-120864333D01*
X218106261Y-120816714D01*
X218249119Y-120816714D01*
X218344357Y-120864333D01*
X218391976Y-120959571D01*
X218391976Y-121483380D01*
X218391976Y-120959571D02*
X218439595Y-120864333D01*
X218534833Y-120816714D01*
X218677690Y-120816714D01*
X218772928Y-120864333D01*
X218820547Y-120959571D01*
X218820547Y-121483380D01*
D11*
X216471500Y-122301000D02*
X213931500Y-122301000D01*
X216471500Y-134556500D02*
X216471500Y-121714579D01*
X213931500Y-134556500D02*
X213931500Y-121714579D01*
X213931500Y-122301000D02*
X215058004Y-121714579D01*
X213931500Y-122301000D02*
X215058004Y-122887421D01*
X216471500Y-122301000D02*
X215344996Y-121714579D01*
X216471500Y-122301000D02*
X215344996Y-122887421D01*
D10*
X259858333Y-122674119D02*
X259905952Y-122626500D01*
X260001190Y-122578880D01*
X260239285Y-122578880D01*
X260334523Y-122626500D01*
X260382142Y-122674119D01*
X260429761Y-122769357D01*
X260429761Y-122864595D01*
X260382142Y-123007452D01*
X259810714Y-123578880D01*
X260429761Y-123578880D01*
X260858333Y-123483642D02*
X260905952Y-123531261D01*
X260858333Y-123578880D01*
X260810714Y-123531261D01*
X260858333Y-123483642D01*
X260858333Y-123578880D01*
X261810714Y-122578880D02*
X261334523Y-122578880D01*
X261286904Y-123055071D01*
X261334523Y-123007452D01*
X261429761Y-122959833D01*
X261667857Y-122959833D01*
X261763095Y-123007452D01*
X261810714Y-123055071D01*
X261858333Y-123150309D01*
X261858333Y-123388404D01*
X261810714Y-123483642D01*
X261763095Y-123531261D01*
X261667857Y-123578880D01*
X261429761Y-123578880D01*
X261334523Y-123531261D01*
X261286904Y-123483642D01*
X262715476Y-122912214D02*
X262715476Y-123578880D01*
X262477380Y-122531261D02*
X262239285Y-123245547D01*
X262858333Y-123245547D01*
X263429761Y-122578880D02*
X263525000Y-122578880D01*
X263620238Y-122626500D01*
X263667857Y-122674119D01*
X263715476Y-122769357D01*
X263763095Y-122959833D01*
X263763095Y-123197928D01*
X263715476Y-123388404D01*
X263667857Y-123483642D01*
X263620238Y-123531261D01*
X263525000Y-123578880D01*
X263429761Y-123578880D01*
X263334523Y-123531261D01*
X263286904Y-123483642D01*
X263239285Y-123388404D01*
X263191666Y-123197928D01*
X263191666Y-122959833D01*
X263239285Y-122769357D01*
X263286904Y-122674119D01*
X263334523Y-122626500D01*
X263429761Y-122578880D01*
X264953571Y-123578880D02*
X264953571Y-122912214D01*
X264953571Y-123007452D02*
X265001190Y-122959833D01*
X265096428Y-122912214D01*
X265239285Y-122912214D01*
X265334523Y-122959833D01*
X265382142Y-123055071D01*
X265382142Y-123578880D01*
X265382142Y-123055071D02*
X265429761Y-122959833D01*
X265525000Y-122912214D01*
X265667857Y-122912214D01*
X265763095Y-122959833D01*
X265810714Y-123055071D01*
X265810714Y-123578880D01*
X266286904Y-123578880D02*
X266286904Y-122912214D01*
X266286904Y-123007452D02*
X266334523Y-122959833D01*
X266429761Y-122912214D01*
X266572619Y-122912214D01*
X266667857Y-122959833D01*
X266715476Y-123055071D01*
X266715476Y-123578880D01*
X266715476Y-123055071D02*
X266763095Y-122959833D01*
X266858333Y-122912214D01*
X267001190Y-122912214D01*
X267096428Y-122959833D01*
X267144047Y-123055071D01*
X267144047Y-123578880D01*
D11*
X262255000Y-124396500D02*
X264795000Y-124396500D01*
X262255000Y-133858000D02*
X262255000Y-123810079D01*
X264795000Y-133858000D02*
X264795000Y-123810079D01*
X264795000Y-124396500D02*
X263668496Y-124982921D01*
X264795000Y-124396500D02*
X263668496Y-123810079D01*
X262255000Y-124396500D02*
X263381504Y-124982921D01*
X262255000Y-124396500D02*
X263381504Y-123810079D01*
D10*
X258534437Y-164044394D02*
X258343971Y-164046389D01*
X258249237Y-164095003D01*
X258202119Y-164143118D01*
X258108382Y-164286965D01*
X258062760Y-164477929D01*
X258066749Y-164858860D01*
X258115363Y-164953595D01*
X258163478Y-165000712D01*
X258259210Y-165047332D01*
X258449676Y-165045337D01*
X258544410Y-164996723D01*
X258591528Y-164948608D01*
X258638147Y-164852877D01*
X258635653Y-164614794D01*
X258587040Y-164520060D01*
X258538925Y-164472942D01*
X258443193Y-164426323D01*
X258252727Y-164428318D01*
X258157993Y-164476932D01*
X258110875Y-164525047D01*
X258064256Y-164620778D01*
X259067692Y-164943622D02*
X259115807Y-164990739D01*
X259068689Y-165038854D01*
X259020574Y-164991737D01*
X259067692Y-164943622D01*
X259068689Y-165038854D01*
X259439149Y-164034920D02*
X260058163Y-164028437D01*
X259728837Y-164412860D01*
X259871686Y-164411364D01*
X259967418Y-164457983D01*
X260015533Y-164505100D01*
X260064147Y-164599835D01*
X260066640Y-164837917D01*
X260020021Y-164933648D01*
X259972903Y-164981763D01*
X259878169Y-165030377D01*
X259592470Y-165033369D01*
X259496739Y-164986750D01*
X259448623Y-164939632D01*
X260962875Y-164018963D02*
X260486711Y-164023950D01*
X260444081Y-164500613D01*
X260491199Y-164452497D01*
X260585933Y-164403884D01*
X260824015Y-164401390D01*
X260919746Y-164448010D01*
X260967862Y-164495127D01*
X261016475Y-164589862D01*
X261018969Y-164827944D01*
X260972349Y-164923675D01*
X260925232Y-164971790D01*
X260830497Y-165020404D01*
X260592415Y-165022897D01*
X260496684Y-164976278D01*
X260448569Y-164929160D01*
X261629505Y-164011982D02*
X261724738Y-164010984D01*
X261820469Y-164057604D01*
X261868585Y-164104721D01*
X261917198Y-164199456D01*
X261966809Y-164389423D01*
X261969303Y-164627505D01*
X261923681Y-164818469D01*
X261877062Y-164914201D01*
X261829944Y-164962316D01*
X261735210Y-165010930D01*
X261639977Y-165011927D01*
X261544245Y-164965308D01*
X261496130Y-164918190D01*
X261447516Y-164823456D01*
X261397905Y-164633489D01*
X261395412Y-164395407D01*
X261441034Y-164204442D01*
X261487653Y-164108711D01*
X261534771Y-164060596D01*
X261629505Y-164011982D01*
X263163703Y-164995970D02*
X263156722Y-164329340D01*
X263157719Y-164424573D02*
X263204837Y-164376458D01*
X263299571Y-164327844D01*
X263442420Y-164326348D01*
X263538152Y-164372967D01*
X263586766Y-164467701D01*
X263592251Y-164991482D01*
X263586766Y-164467701D02*
X263633385Y-164371970D01*
X263728119Y-164323356D01*
X263870968Y-164321860D01*
X263966700Y-164368479D01*
X264015313Y-164463213D01*
X264020799Y-164986994D01*
X264496963Y-164982008D02*
X264489982Y-164315377D01*
X264490979Y-164410610D02*
X264538097Y-164362495D01*
X264632831Y-164313881D01*
X264775680Y-164312386D01*
X264871412Y-164359005D01*
X264920026Y-164453739D01*
X264925511Y-164977520D01*
X264920026Y-164453739D02*
X264966645Y-164358007D01*
X265061379Y-164309394D01*
X265204228Y-164307898D01*
X265299960Y-164354517D01*
X265348574Y-164449251D01*
X265354059Y-164973032D01*
D11*
X258542774Y-163320387D02*
X264892774Y-163256887D01*
X258445000Y-153543000D02*
X258548638Y-163906779D01*
X264795000Y-153479500D02*
X264898638Y-163843279D01*
X264892774Y-163256887D02*
X263772190Y-163854543D01*
X264892774Y-163256887D02*
X263760463Y-162681760D01*
X258542774Y-163320387D02*
X259675085Y-163895514D01*
X258542774Y-163320387D02*
X259663358Y-162722731D01*
D10*
X274248619Y-151082761D02*
X274248619Y-150511333D01*
X274248619Y-150797047D02*
X275248619Y-150797047D01*
X275105761Y-150701809D01*
X275010523Y-150606571D01*
X274962904Y-150511333D01*
X274343857Y-151511333D02*
X274296238Y-151558952D01*
X274248619Y-151511333D01*
X274296238Y-151463714D01*
X274343857Y-151511333D01*
X274248619Y-151511333D01*
X275153380Y-151939904D02*
X275201000Y-151987523D01*
X275248619Y-152082761D01*
X275248619Y-152320857D01*
X275201000Y-152416095D01*
X275153380Y-152463714D01*
X275058142Y-152511333D01*
X274962904Y-152511333D01*
X274820047Y-152463714D01*
X274248619Y-151892285D01*
X274248619Y-152511333D01*
X275248619Y-152844666D02*
X275248619Y-153511333D01*
X274248619Y-153082761D01*
X275248619Y-154082761D02*
X275248619Y-154178000D01*
X275201000Y-154273238D01*
X275153380Y-154320857D01*
X275058142Y-154368476D01*
X274867666Y-154416095D01*
X274629571Y-154416095D01*
X274439095Y-154368476D01*
X274343857Y-154320857D01*
X274296238Y-154273238D01*
X274248619Y-154178000D01*
X274248619Y-154082761D01*
X274296238Y-153987523D01*
X274343857Y-153939904D01*
X274439095Y-153892285D01*
X274629571Y-153844666D01*
X274867666Y-153844666D01*
X275058142Y-153892285D01*
X275153380Y-153939904D01*
X275201000Y-153987523D01*
X275248619Y-154082761D01*
X274248619Y-155606571D02*
X274915285Y-155606571D01*
X274820047Y-155606571D02*
X274867666Y-155654190D01*
X274915285Y-155749428D01*
X274915285Y-155892285D01*
X274867666Y-155987523D01*
X274772428Y-156035142D01*
X274248619Y-156035142D01*
X274772428Y-156035142D02*
X274867666Y-156082761D01*
X274915285Y-156178000D01*
X274915285Y-156320857D01*
X274867666Y-156416095D01*
X274772428Y-156463714D01*
X274248619Y-156463714D01*
X274248619Y-156939904D02*
X274915285Y-156939904D01*
X274820047Y-156939904D02*
X274867666Y-156987523D01*
X274915285Y-157082761D01*
X274915285Y-157225619D01*
X274867666Y-157320857D01*
X274772428Y-157368476D01*
X274248619Y-157368476D01*
X274772428Y-157368476D02*
X274867666Y-157416095D01*
X274915285Y-157511333D01*
X274915285Y-157654190D01*
X274867666Y-157749428D01*
X274772428Y-157797047D01*
X274248619Y-157797047D01*
D11*
X273431000Y-153543000D02*
X273431000Y-154813000D01*
X258508500Y-153543000D02*
X274017421Y-153543000D01*
X258508500Y-154813000D02*
X274017421Y-154813000D01*
X273431000Y-154813000D02*
X272844579Y-153686496D01*
X273431000Y-154813000D02*
X274017421Y-153686496D01*
X273431000Y-153543000D02*
X272844579Y-154669504D01*
X273431000Y-153543000D02*
X274017421Y-154669504D01*
D10*
X253571833Y-160456619D02*
X253619452Y-160409000D01*
X253714690Y-160361380D01*
X253952785Y-160361380D01*
X254048023Y-160409000D01*
X254095642Y-160456619D01*
X254143261Y-160551857D01*
X254143261Y-160647095D01*
X254095642Y-160789952D01*
X253524214Y-161361380D01*
X254143261Y-161361380D01*
X254571833Y-161266142D02*
X254619452Y-161313761D01*
X254571833Y-161361380D01*
X254524214Y-161313761D01*
X254571833Y-161266142D01*
X254571833Y-161361380D01*
X255524214Y-160361380D02*
X255048023Y-160361380D01*
X255000404Y-160837571D01*
X255048023Y-160789952D01*
X255143261Y-160742333D01*
X255381357Y-160742333D01*
X255476595Y-160789952D01*
X255524214Y-160837571D01*
X255571833Y-160932809D01*
X255571833Y-161170904D01*
X255524214Y-161266142D01*
X255476595Y-161313761D01*
X255381357Y-161361380D01*
X255143261Y-161361380D01*
X255048023Y-161313761D01*
X255000404Y-161266142D01*
X256428976Y-160694714D02*
X256428976Y-161361380D01*
X256190880Y-160313761D02*
X255952785Y-161028047D01*
X256571833Y-161028047D01*
X257143261Y-160361380D02*
X257238500Y-160361380D01*
X257333738Y-160409000D01*
X257381357Y-160456619D01*
X257428976Y-160551857D01*
X257476595Y-160742333D01*
X257476595Y-160980428D01*
X257428976Y-161170904D01*
X257381357Y-161266142D01*
X257333738Y-161313761D01*
X257238500Y-161361380D01*
X257143261Y-161361380D01*
X257048023Y-161313761D01*
X257000404Y-161266142D01*
X256952785Y-161170904D01*
X256905166Y-160980428D01*
X256905166Y-160742333D01*
X256952785Y-160551857D01*
X257000404Y-160456619D01*
X257048023Y-160409000D01*
X257143261Y-160361380D01*
X258667071Y-161361380D02*
X258667071Y-160694714D01*
X258667071Y-160789952D02*
X258714690Y-160742333D01*
X258809928Y-160694714D01*
X258952785Y-160694714D01*
X259048023Y-160742333D01*
X259095642Y-160837571D01*
X259095642Y-161361380D01*
X259095642Y-160837571D02*
X259143261Y-160742333D01*
X259238500Y-160694714D01*
X259381357Y-160694714D01*
X259476595Y-160742333D01*
X259524214Y-160837571D01*
X259524214Y-161361380D01*
X260000404Y-161361380D02*
X260000404Y-160694714D01*
X260000404Y-160789952D02*
X260048023Y-160742333D01*
X260143261Y-160694714D01*
X260286119Y-160694714D01*
X260381357Y-160742333D01*
X260428976Y-160837571D01*
X260428976Y-161361380D01*
X260428976Y-160837571D02*
X260476595Y-160742333D01*
X260571833Y-160694714D01*
X260714690Y-160694714D01*
X260809928Y-160742333D01*
X260857547Y-160837571D01*
X260857547Y-161361380D01*
D11*
X258508500Y-159639000D02*
X255968500Y-159639000D01*
X258508500Y-153479500D02*
X258508500Y-160225421D01*
X255968500Y-153479500D02*
X255968500Y-160225421D01*
X255968500Y-159639000D02*
X257095004Y-159052579D01*
X255968500Y-159639000D02*
X257095004Y-160225421D01*
X258508500Y-159639000D02*
X257381996Y-159052579D01*
X258508500Y-159639000D02*
X257381996Y-160225421D01*
D10*
X204802380Y-130863333D02*
X204850000Y-130910952D01*
X204897619Y-131006190D01*
X204897619Y-131244285D01*
X204850000Y-131339523D01*
X204802380Y-131387142D01*
X204707142Y-131434761D01*
X204611904Y-131434761D01*
X204469047Y-131387142D01*
X203897619Y-130815714D01*
X203897619Y-131434761D01*
X203992857Y-131863333D02*
X203945238Y-131910952D01*
X203897619Y-131863333D01*
X203945238Y-131815714D01*
X203992857Y-131863333D01*
X203897619Y-131863333D01*
X204897619Y-132815714D02*
X204897619Y-132339523D01*
X204421428Y-132291904D01*
X204469047Y-132339523D01*
X204516666Y-132434761D01*
X204516666Y-132672857D01*
X204469047Y-132768095D01*
X204421428Y-132815714D01*
X204326190Y-132863333D01*
X204088095Y-132863333D01*
X203992857Y-132815714D01*
X203945238Y-132768095D01*
X203897619Y-132672857D01*
X203897619Y-132434761D01*
X203945238Y-132339523D01*
X203992857Y-132291904D01*
X204564285Y-133720476D02*
X203897619Y-133720476D01*
X204945238Y-133482380D02*
X204230952Y-133244285D01*
X204230952Y-133863333D01*
X204897619Y-134434761D02*
X204897619Y-134530000D01*
X204850000Y-134625238D01*
X204802380Y-134672857D01*
X204707142Y-134720476D01*
X204516666Y-134768095D01*
X204278571Y-134768095D01*
X204088095Y-134720476D01*
X203992857Y-134672857D01*
X203945238Y-134625238D01*
X203897619Y-134530000D01*
X203897619Y-134434761D01*
X203945238Y-134339523D01*
X203992857Y-134291904D01*
X204088095Y-134244285D01*
X204278571Y-134196666D01*
X204516666Y-134196666D01*
X204707142Y-134244285D01*
X204802380Y-134291904D01*
X204850000Y-134339523D01*
X204897619Y-134434761D01*
X203897619Y-135958571D02*
X204564285Y-135958571D01*
X204469047Y-135958571D02*
X204516666Y-136006190D01*
X204564285Y-136101428D01*
X204564285Y-136244285D01*
X204516666Y-136339523D01*
X204421428Y-136387142D01*
X203897619Y-136387142D01*
X204421428Y-136387142D02*
X204516666Y-136434761D01*
X204564285Y-136530000D01*
X204564285Y-136672857D01*
X204516666Y-136768095D01*
X204421428Y-136815714D01*
X203897619Y-136815714D01*
X203897619Y-137291904D02*
X204564285Y-137291904D01*
X204469047Y-137291904D02*
X204516666Y-137339523D01*
X204564285Y-137434761D01*
X204564285Y-137577619D01*
X204516666Y-137672857D01*
X204421428Y-137720476D01*
X203897619Y-137720476D01*
X204421428Y-137720476D02*
X204516666Y-137768095D01*
X204564285Y-137863333D01*
X204564285Y-138006190D01*
X204516666Y-138101428D01*
X204421428Y-138149047D01*
X203897619Y-138149047D01*
D11*
X205620000Y-133260000D02*
X205620000Y-135800000D01*
X216460000Y-133260000D02*
X205033579Y-133260000D01*
X216460000Y-135800000D02*
X205033579Y-135800000D01*
X205620000Y-135800000D02*
X205033579Y-134673496D01*
X205620000Y-135800000D02*
X206206421Y-134673496D01*
X205620000Y-133260000D02*
X205033579Y-134386504D01*
X205620000Y-133260000D02*
X206206421Y-134386504D01*
D10*
X235775952Y-124737880D02*
X235299761Y-124737880D01*
X235252142Y-125214071D01*
X235299761Y-125166452D01*
X235395000Y-125118833D01*
X235633095Y-125118833D01*
X235728333Y-125166452D01*
X235775952Y-125214071D01*
X235823571Y-125309309D01*
X235823571Y-125547404D01*
X235775952Y-125642642D01*
X235728333Y-125690261D01*
X235633095Y-125737880D01*
X235395000Y-125737880D01*
X235299761Y-125690261D01*
X235252142Y-125642642D01*
X236442619Y-124737880D02*
X236537857Y-124737880D01*
X236633095Y-124785500D01*
X236680714Y-124833119D01*
X236728333Y-124928357D01*
X236775952Y-125118833D01*
X236775952Y-125356928D01*
X236728333Y-125547404D01*
X236680714Y-125642642D01*
X236633095Y-125690261D01*
X236537857Y-125737880D01*
X236442619Y-125737880D01*
X236347380Y-125690261D01*
X236299761Y-125642642D01*
X236252142Y-125547404D01*
X236204523Y-125356928D01*
X236204523Y-125118833D01*
X236252142Y-124928357D01*
X236299761Y-124833119D01*
X236347380Y-124785500D01*
X236442619Y-124737880D01*
X237204523Y-125642642D02*
X237252142Y-125690261D01*
X237204523Y-125737880D01*
X237156904Y-125690261D01*
X237204523Y-125642642D01*
X237204523Y-125737880D01*
X237823571Y-125166452D02*
X237728333Y-125118833D01*
X237680714Y-125071214D01*
X237633095Y-124975976D01*
X237633095Y-124928357D01*
X237680714Y-124833119D01*
X237728333Y-124785500D01*
X237823571Y-124737880D01*
X238014047Y-124737880D01*
X238109285Y-124785500D01*
X238156904Y-124833119D01*
X238204523Y-124928357D01*
X238204523Y-124975976D01*
X238156904Y-125071214D01*
X238109285Y-125118833D01*
X238014047Y-125166452D01*
X237823571Y-125166452D01*
X237728333Y-125214071D01*
X237680714Y-125261690D01*
X237633095Y-125356928D01*
X237633095Y-125547404D01*
X237680714Y-125642642D01*
X237728333Y-125690261D01*
X237823571Y-125737880D01*
X238014047Y-125737880D01*
X238109285Y-125690261D01*
X238156904Y-125642642D01*
X238204523Y-125547404D01*
X238204523Y-125356928D01*
X238156904Y-125261690D01*
X238109285Y-125214071D01*
X238014047Y-125166452D01*
X238823571Y-124737880D02*
X238918809Y-124737880D01*
X239014047Y-124785500D01*
X239061666Y-124833119D01*
X239109285Y-124928357D01*
X239156904Y-125118833D01*
X239156904Y-125356928D01*
X239109285Y-125547404D01*
X239061666Y-125642642D01*
X239014047Y-125690261D01*
X238918809Y-125737880D01*
X238823571Y-125737880D01*
X238728333Y-125690261D01*
X238680714Y-125642642D01*
X238633095Y-125547404D01*
X238585476Y-125356928D01*
X238585476Y-125118833D01*
X238633095Y-124928357D01*
X238680714Y-124833119D01*
X238728333Y-124785500D01*
X238823571Y-124737880D01*
X239775952Y-124737880D02*
X239871190Y-124737880D01*
X239966428Y-124785500D01*
X240014047Y-124833119D01*
X240061666Y-124928357D01*
X240109285Y-125118833D01*
X240109285Y-125356928D01*
X240061666Y-125547404D01*
X240014047Y-125642642D01*
X239966428Y-125690261D01*
X239871190Y-125737880D01*
X239775952Y-125737880D01*
X239680714Y-125690261D01*
X239633095Y-125642642D01*
X239585476Y-125547404D01*
X239537857Y-125356928D01*
X239537857Y-125118833D01*
X239585476Y-124928357D01*
X239633095Y-124833119D01*
X239680714Y-124785500D01*
X239775952Y-124737880D01*
X241299761Y-125737880D02*
X241299761Y-125071214D01*
X241299761Y-125166452D02*
X241347380Y-125118833D01*
X241442619Y-125071214D01*
X241585476Y-125071214D01*
X241680714Y-125118833D01*
X241728333Y-125214071D01*
X241728333Y-125737880D01*
X241728333Y-125214071D02*
X241775952Y-125118833D01*
X241871190Y-125071214D01*
X242014047Y-125071214D01*
X242109285Y-125118833D01*
X242156904Y-125214071D01*
X242156904Y-125737880D01*
X242633095Y-125737880D02*
X242633095Y-125071214D01*
X242633095Y-125166452D02*
X242680714Y-125118833D01*
X242775952Y-125071214D01*
X242918809Y-125071214D01*
X243014047Y-125118833D01*
X243061666Y-125214071D01*
X243061666Y-125737880D01*
X243061666Y-125214071D02*
X243109285Y-125118833D01*
X243204523Y-125071214D01*
X243347380Y-125071214D01*
X243442619Y-125118833D01*
X243490238Y-125214071D01*
X243490238Y-125737880D01*
D11*
X213995000Y-126555500D02*
X264795000Y-126555500D01*
X213995000Y-134239000D02*
X213995000Y-125969079D01*
X264795000Y-134239000D02*
X264795000Y-125969079D01*
X264795000Y-126555500D02*
X263668496Y-127141921D01*
X264795000Y-126555500D02*
X263668496Y-125969079D01*
X213995000Y-126555500D02*
X215121504Y-127141921D01*
X213995000Y-126555500D02*
X215121504Y-125969079D01*
D10*
X271683122Y-147577737D02*
X271635753Y-147529869D01*
X271588633Y-147434383D01*
X271589880Y-147196291D01*
X271637997Y-147101304D01*
X271685865Y-147053935D01*
X271781351Y-147006815D01*
X271876587Y-147007314D01*
X272019193Y-147055680D01*
X272587622Y-147630093D01*
X272590863Y-147011054D01*
X271688109Y-146625369D02*
X271640739Y-146577502D01*
X271593620Y-146482015D01*
X271594866Y-146243923D01*
X271642983Y-146148936D01*
X271690851Y-146101567D01*
X271786337Y-146054447D01*
X271881574Y-146054946D01*
X272024180Y-146103312D01*
X272592609Y-146677725D01*
X272595850Y-146058686D01*
X272502857Y-145629622D02*
X272550725Y-145582253D01*
X272598094Y-145630120D01*
X272550226Y-145677489D01*
X272502857Y-145629622D01*
X272598094Y-145630120D01*
X272029915Y-145008089D02*
X271981798Y-145103077D01*
X271933930Y-145150446D01*
X271838444Y-145197565D01*
X271790825Y-145197316D01*
X271695838Y-145149199D01*
X271648469Y-145101331D01*
X271601349Y-145005845D01*
X271602346Y-144815372D01*
X271650463Y-144720384D01*
X271698331Y-144673015D01*
X271793817Y-144625895D01*
X271841436Y-144626145D01*
X271936423Y-144674262D01*
X271983792Y-144722130D01*
X272030912Y-144817616D01*
X272029915Y-145008089D01*
X272077034Y-145103575D01*
X272124403Y-145151443D01*
X272219391Y-145199560D01*
X272409864Y-145200557D01*
X272505351Y-145153438D01*
X272553218Y-145106069D01*
X272601335Y-145011081D01*
X272602333Y-144820608D01*
X272555213Y-144725121D01*
X272507844Y-144677254D01*
X272412856Y-144629137D01*
X272222383Y-144628139D01*
X272126897Y-144675259D01*
X272079029Y-144722628D01*
X272030912Y-144817616D01*
X271607832Y-143767767D02*
X271606834Y-143958241D01*
X271653954Y-144053727D01*
X271701323Y-144101594D01*
X271843680Y-144197579D01*
X272033904Y-144246195D01*
X272414851Y-144248190D01*
X272510337Y-144201070D01*
X272558205Y-144153701D01*
X272606322Y-144058713D01*
X272607319Y-143868240D01*
X272560200Y-143772754D01*
X272512830Y-143724886D01*
X272417843Y-143676769D01*
X272179751Y-143675522D01*
X272084265Y-143722642D01*
X272036397Y-143770011D01*
X271988280Y-143864998D01*
X271987283Y-144055472D01*
X272034403Y-144150958D01*
X272081772Y-144198826D01*
X272176759Y-144246943D01*
X271611572Y-143053491D02*
X271612070Y-142958254D01*
X271660187Y-142863267D01*
X271708055Y-142815898D01*
X271803541Y-142768778D01*
X271994264Y-142722157D01*
X272232356Y-142723404D01*
X272422580Y-142772019D01*
X272517568Y-142820136D01*
X272564937Y-142868004D01*
X272612057Y-142963490D01*
X272611558Y-143058727D01*
X272563441Y-143153714D01*
X272515573Y-143201084D01*
X272420087Y-143248203D01*
X272229364Y-143294824D01*
X271991272Y-143293578D01*
X271801048Y-143244962D01*
X271706060Y-143196845D01*
X271658691Y-143148977D01*
X271611572Y-143053491D01*
X272619537Y-141534938D02*
X271952879Y-141531448D01*
X272048116Y-141531946D02*
X272000747Y-141484079D01*
X271953627Y-141388593D01*
X271954375Y-141245737D01*
X272002492Y-141150750D01*
X272097978Y-141103630D01*
X272621781Y-141106373D01*
X272097978Y-141103630D02*
X272002991Y-141055513D01*
X271955871Y-140960027D01*
X271956619Y-140817172D01*
X272004736Y-140722184D01*
X272100222Y-140675065D01*
X272624024Y-140677807D01*
X272626518Y-140201623D02*
X271959860Y-140198133D01*
X272055097Y-140198631D02*
X272007728Y-140150764D01*
X271960608Y-140055277D01*
X271961356Y-139912422D01*
X272009473Y-139817435D01*
X272104959Y-139770315D01*
X272628762Y-139773058D01*
X272104959Y-139770315D02*
X272009972Y-139722198D01*
X271962852Y-139626712D01*
X271963600Y-139483857D01*
X272011717Y-139388869D01*
X272107203Y-139341750D01*
X272631006Y-139344492D01*
D11*
X270823709Y-154860251D02*
X270950709Y-132000251D01*
X262318500Y-154813000D02*
X271410120Y-154863509D01*
X262445500Y-131953000D02*
X271537120Y-132003509D01*
X270950709Y-132000251D02*
X271530862Y-133129995D01*
X270950709Y-132000251D02*
X270358039Y-133123480D01*
X270823709Y-154860251D02*
X271416379Y-153737022D01*
X270823709Y-154860251D02*
X270243556Y-153730507D01*
M02*
