G04 #@! TF.GenerationSoftware,KiCad,Pcbnew,(5.1.4)-1*
G04 #@! TF.CreationDate,2019-11-17T19:28:04+01:00*
G04 #@! TF.ProjectId,Open_Telemetry_digitalSensorShield,4f70656e-5f54-4656-9c65-6d657472795f,P1A - Prototype manuf.*
G04 #@! TF.SameCoordinates,Original*
G04 #@! TF.FileFunction,Soldermask,Top*
G04 #@! TF.FilePolarity,Negative*
%FSLAX46Y46*%
G04 Gerber Fmt 4.6, Leading zero omitted, Abs format (unit mm)*
G04 Created by KiCad (PCBNEW (5.1.4)-1) date 2019-11-17 19:28:04*
%MOMM*%
%LPD*%
G04 APERTURE LIST*
%ADD10C,0.100000*%
G04 APERTURE END LIST*
D10*
G36*
X220455443Y-152648519D02*
G01*
X220521627Y-152655037D01*
X220691466Y-152706557D01*
X220847991Y-152790222D01*
X220850273Y-152792095D01*
X220985186Y-152902814D01*
X221068448Y-153004271D01*
X221097778Y-153040009D01*
X221181443Y-153196534D01*
X221232963Y-153366373D01*
X221250359Y-153543000D01*
X221232963Y-153719627D01*
X221181443Y-153889466D01*
X221097778Y-154045991D01*
X221089186Y-154056460D01*
X220985186Y-154183186D01*
X220883729Y-154266448D01*
X220847991Y-154295778D01*
X220691466Y-154379443D01*
X220521627Y-154430963D01*
X220455443Y-154437481D01*
X220389260Y-154444000D01*
X220300740Y-154444000D01*
X220234557Y-154437481D01*
X220168373Y-154430963D01*
X219998534Y-154379443D01*
X219842009Y-154295778D01*
X219806271Y-154266448D01*
X219704814Y-154183186D01*
X219600814Y-154056460D01*
X219592222Y-154045991D01*
X219508557Y-153889466D01*
X219457037Y-153719627D01*
X219439641Y-153543000D01*
X219457037Y-153366373D01*
X219508557Y-153196534D01*
X219592222Y-153040009D01*
X219621552Y-153004271D01*
X219704814Y-152902814D01*
X219839727Y-152792095D01*
X219842009Y-152790222D01*
X219998534Y-152706557D01*
X220168373Y-152655037D01*
X220234557Y-152648519D01*
X220300740Y-152642000D01*
X220389260Y-152642000D01*
X220455443Y-152648519D01*
X220455443Y-152648519D01*
G37*
G36*
X240775443Y-152648519D02*
G01*
X240841627Y-152655037D01*
X241011466Y-152706557D01*
X241167991Y-152790222D01*
X241170273Y-152792095D01*
X241305186Y-152902814D01*
X241388448Y-153004271D01*
X241417778Y-153040009D01*
X241501443Y-153196534D01*
X241552963Y-153366373D01*
X241570359Y-153543000D01*
X241552963Y-153719627D01*
X241501443Y-153889466D01*
X241417778Y-154045991D01*
X241409186Y-154056460D01*
X241305186Y-154183186D01*
X241203729Y-154266448D01*
X241167991Y-154295778D01*
X241011466Y-154379443D01*
X240841627Y-154430963D01*
X240775443Y-154437481D01*
X240709260Y-154444000D01*
X240620740Y-154444000D01*
X240554557Y-154437481D01*
X240488373Y-154430963D01*
X240318534Y-154379443D01*
X240162009Y-154295778D01*
X240126271Y-154266448D01*
X240024814Y-154183186D01*
X239920814Y-154056460D01*
X239912222Y-154045991D01*
X239828557Y-153889466D01*
X239777037Y-153719627D01*
X239759641Y-153543000D01*
X239777037Y-153366373D01*
X239828557Y-153196534D01*
X239912222Y-153040009D01*
X239941552Y-153004271D01*
X240024814Y-152902814D01*
X240159727Y-152792095D01*
X240162009Y-152790222D01*
X240318534Y-152706557D01*
X240488373Y-152655037D01*
X240554557Y-152648519D01*
X240620740Y-152642000D01*
X240709260Y-152642000D01*
X240775443Y-152648519D01*
X240775443Y-152648519D01*
G37*
G36*
X256015443Y-152648519D02*
G01*
X256081627Y-152655037D01*
X256251466Y-152706557D01*
X256407991Y-152790222D01*
X256410273Y-152792095D01*
X256545186Y-152902814D01*
X256628448Y-153004271D01*
X256657778Y-153040009D01*
X256741443Y-153196534D01*
X256792963Y-153366373D01*
X256810359Y-153543000D01*
X256792963Y-153719627D01*
X256741443Y-153889466D01*
X256657778Y-154045991D01*
X256649186Y-154056460D01*
X256545186Y-154183186D01*
X256443729Y-154266448D01*
X256407991Y-154295778D01*
X256251466Y-154379443D01*
X256081627Y-154430963D01*
X256015443Y-154437481D01*
X255949260Y-154444000D01*
X255860740Y-154444000D01*
X255794557Y-154437481D01*
X255728373Y-154430963D01*
X255558534Y-154379443D01*
X255402009Y-154295778D01*
X255366271Y-154266448D01*
X255264814Y-154183186D01*
X255160814Y-154056460D01*
X255152222Y-154045991D01*
X255068557Y-153889466D01*
X255017037Y-153719627D01*
X254999641Y-153543000D01*
X255017037Y-153366373D01*
X255068557Y-153196534D01*
X255152222Y-153040009D01*
X255181552Y-153004271D01*
X255264814Y-152902814D01*
X255399727Y-152792095D01*
X255402009Y-152790222D01*
X255558534Y-152706557D01*
X255728373Y-152655037D01*
X255794557Y-152648519D01*
X255860740Y-152642000D01*
X255949260Y-152642000D01*
X256015443Y-152648519D01*
X256015443Y-152648519D01*
G37*
G36*
X253475443Y-152648519D02*
G01*
X253541627Y-152655037D01*
X253711466Y-152706557D01*
X253867991Y-152790222D01*
X253870273Y-152792095D01*
X254005186Y-152902814D01*
X254088448Y-153004271D01*
X254117778Y-153040009D01*
X254201443Y-153196534D01*
X254252963Y-153366373D01*
X254270359Y-153543000D01*
X254252963Y-153719627D01*
X254201443Y-153889466D01*
X254117778Y-154045991D01*
X254109186Y-154056460D01*
X254005186Y-154183186D01*
X253903729Y-154266448D01*
X253867991Y-154295778D01*
X253711466Y-154379443D01*
X253541627Y-154430963D01*
X253475443Y-154437481D01*
X253409260Y-154444000D01*
X253320740Y-154444000D01*
X253254557Y-154437481D01*
X253188373Y-154430963D01*
X253018534Y-154379443D01*
X252862009Y-154295778D01*
X252826271Y-154266448D01*
X252724814Y-154183186D01*
X252620814Y-154056460D01*
X252612222Y-154045991D01*
X252528557Y-153889466D01*
X252477037Y-153719627D01*
X252459641Y-153543000D01*
X252477037Y-153366373D01*
X252528557Y-153196534D01*
X252612222Y-153040009D01*
X252641552Y-153004271D01*
X252724814Y-152902814D01*
X252859727Y-152792095D01*
X252862009Y-152790222D01*
X253018534Y-152706557D01*
X253188373Y-152655037D01*
X253254557Y-152648519D01*
X253320740Y-152642000D01*
X253409260Y-152642000D01*
X253475443Y-152648519D01*
X253475443Y-152648519D01*
G37*
G36*
X250935443Y-152648519D02*
G01*
X251001627Y-152655037D01*
X251171466Y-152706557D01*
X251327991Y-152790222D01*
X251330273Y-152792095D01*
X251465186Y-152902814D01*
X251548448Y-153004271D01*
X251577778Y-153040009D01*
X251661443Y-153196534D01*
X251712963Y-153366373D01*
X251730359Y-153543000D01*
X251712963Y-153719627D01*
X251661443Y-153889466D01*
X251577778Y-154045991D01*
X251569186Y-154056460D01*
X251465186Y-154183186D01*
X251363729Y-154266448D01*
X251327991Y-154295778D01*
X251171466Y-154379443D01*
X251001627Y-154430963D01*
X250935443Y-154437481D01*
X250869260Y-154444000D01*
X250780740Y-154444000D01*
X250714557Y-154437481D01*
X250648373Y-154430963D01*
X250478534Y-154379443D01*
X250322009Y-154295778D01*
X250286271Y-154266448D01*
X250184814Y-154183186D01*
X250080814Y-154056460D01*
X250072222Y-154045991D01*
X249988557Y-153889466D01*
X249937037Y-153719627D01*
X249919641Y-153543000D01*
X249937037Y-153366373D01*
X249988557Y-153196534D01*
X250072222Y-153040009D01*
X250101552Y-153004271D01*
X250184814Y-152902814D01*
X250319727Y-152792095D01*
X250322009Y-152790222D01*
X250478534Y-152706557D01*
X250648373Y-152655037D01*
X250714557Y-152648519D01*
X250780740Y-152642000D01*
X250869260Y-152642000D01*
X250935443Y-152648519D01*
X250935443Y-152648519D01*
G37*
G36*
X248395443Y-152648519D02*
G01*
X248461627Y-152655037D01*
X248631466Y-152706557D01*
X248787991Y-152790222D01*
X248790273Y-152792095D01*
X248925186Y-152902814D01*
X249008448Y-153004271D01*
X249037778Y-153040009D01*
X249121443Y-153196534D01*
X249172963Y-153366373D01*
X249190359Y-153543000D01*
X249172963Y-153719627D01*
X249121443Y-153889466D01*
X249037778Y-154045991D01*
X249029186Y-154056460D01*
X248925186Y-154183186D01*
X248823729Y-154266448D01*
X248787991Y-154295778D01*
X248631466Y-154379443D01*
X248461627Y-154430963D01*
X248395443Y-154437481D01*
X248329260Y-154444000D01*
X248240740Y-154444000D01*
X248174557Y-154437481D01*
X248108373Y-154430963D01*
X247938534Y-154379443D01*
X247782009Y-154295778D01*
X247746271Y-154266448D01*
X247644814Y-154183186D01*
X247540814Y-154056460D01*
X247532222Y-154045991D01*
X247448557Y-153889466D01*
X247397037Y-153719627D01*
X247379641Y-153543000D01*
X247397037Y-153366373D01*
X247448557Y-153196534D01*
X247532222Y-153040009D01*
X247561552Y-153004271D01*
X247644814Y-152902814D01*
X247779727Y-152792095D01*
X247782009Y-152790222D01*
X247938534Y-152706557D01*
X248108373Y-152655037D01*
X248174557Y-152648519D01*
X248240740Y-152642000D01*
X248329260Y-152642000D01*
X248395443Y-152648519D01*
X248395443Y-152648519D01*
G37*
G36*
X245855443Y-152648519D02*
G01*
X245921627Y-152655037D01*
X246091466Y-152706557D01*
X246247991Y-152790222D01*
X246250273Y-152792095D01*
X246385186Y-152902814D01*
X246468448Y-153004271D01*
X246497778Y-153040009D01*
X246581443Y-153196534D01*
X246632963Y-153366373D01*
X246650359Y-153543000D01*
X246632963Y-153719627D01*
X246581443Y-153889466D01*
X246497778Y-154045991D01*
X246489186Y-154056460D01*
X246385186Y-154183186D01*
X246283729Y-154266448D01*
X246247991Y-154295778D01*
X246091466Y-154379443D01*
X245921627Y-154430963D01*
X245855443Y-154437481D01*
X245789260Y-154444000D01*
X245700740Y-154444000D01*
X245634557Y-154437481D01*
X245568373Y-154430963D01*
X245398534Y-154379443D01*
X245242009Y-154295778D01*
X245206271Y-154266448D01*
X245104814Y-154183186D01*
X245000814Y-154056460D01*
X244992222Y-154045991D01*
X244908557Y-153889466D01*
X244857037Y-153719627D01*
X244839641Y-153543000D01*
X244857037Y-153366373D01*
X244908557Y-153196534D01*
X244992222Y-153040009D01*
X245021552Y-153004271D01*
X245104814Y-152902814D01*
X245239727Y-152792095D01*
X245242009Y-152790222D01*
X245398534Y-152706557D01*
X245568373Y-152655037D01*
X245634557Y-152648519D01*
X245700740Y-152642000D01*
X245789260Y-152642000D01*
X245855443Y-152648519D01*
X245855443Y-152648519D01*
G37*
G36*
X243315443Y-152648519D02*
G01*
X243381627Y-152655037D01*
X243551466Y-152706557D01*
X243707991Y-152790222D01*
X243710273Y-152792095D01*
X243845186Y-152902814D01*
X243928448Y-153004271D01*
X243957778Y-153040009D01*
X244041443Y-153196534D01*
X244092963Y-153366373D01*
X244110359Y-153543000D01*
X244092963Y-153719627D01*
X244041443Y-153889466D01*
X243957778Y-154045991D01*
X243949186Y-154056460D01*
X243845186Y-154183186D01*
X243743729Y-154266448D01*
X243707991Y-154295778D01*
X243551466Y-154379443D01*
X243381627Y-154430963D01*
X243315443Y-154437481D01*
X243249260Y-154444000D01*
X243160740Y-154444000D01*
X243094557Y-154437481D01*
X243028373Y-154430963D01*
X242858534Y-154379443D01*
X242702009Y-154295778D01*
X242666271Y-154266448D01*
X242564814Y-154183186D01*
X242460814Y-154056460D01*
X242452222Y-154045991D01*
X242368557Y-153889466D01*
X242317037Y-153719627D01*
X242299641Y-153543000D01*
X242317037Y-153366373D01*
X242368557Y-153196534D01*
X242452222Y-153040009D01*
X242481552Y-153004271D01*
X242564814Y-152902814D01*
X242699727Y-152792095D01*
X242702009Y-152790222D01*
X242858534Y-152706557D01*
X243028373Y-152655037D01*
X243094557Y-152648519D01*
X243160740Y-152642000D01*
X243249260Y-152642000D01*
X243315443Y-152648519D01*
X243315443Y-152648519D01*
G37*
G36*
X259346000Y-154444000D02*
G01*
X257544000Y-154444000D01*
X257544000Y-152642000D01*
X259346000Y-152642000D01*
X259346000Y-154444000D01*
X259346000Y-154444000D01*
G37*
G36*
X235695443Y-152648519D02*
G01*
X235761627Y-152655037D01*
X235931466Y-152706557D01*
X236087991Y-152790222D01*
X236090273Y-152792095D01*
X236225186Y-152902814D01*
X236308448Y-153004271D01*
X236337778Y-153040009D01*
X236421443Y-153196534D01*
X236472963Y-153366373D01*
X236490359Y-153543000D01*
X236472963Y-153719627D01*
X236421443Y-153889466D01*
X236337778Y-154045991D01*
X236329186Y-154056460D01*
X236225186Y-154183186D01*
X236123729Y-154266448D01*
X236087991Y-154295778D01*
X235931466Y-154379443D01*
X235761627Y-154430963D01*
X235695443Y-154437481D01*
X235629260Y-154444000D01*
X235540740Y-154444000D01*
X235474557Y-154437481D01*
X235408373Y-154430963D01*
X235238534Y-154379443D01*
X235082009Y-154295778D01*
X235046271Y-154266448D01*
X234944814Y-154183186D01*
X234840814Y-154056460D01*
X234832222Y-154045991D01*
X234748557Y-153889466D01*
X234697037Y-153719627D01*
X234679641Y-153543000D01*
X234697037Y-153366373D01*
X234748557Y-153196534D01*
X234832222Y-153040009D01*
X234861552Y-153004271D01*
X234944814Y-152902814D01*
X235079727Y-152792095D01*
X235082009Y-152790222D01*
X235238534Y-152706557D01*
X235408373Y-152655037D01*
X235474557Y-152648519D01*
X235540740Y-152642000D01*
X235629260Y-152642000D01*
X235695443Y-152648519D01*
X235695443Y-152648519D01*
G37*
G36*
X238235443Y-152648519D02*
G01*
X238301627Y-152655037D01*
X238471466Y-152706557D01*
X238627991Y-152790222D01*
X238630273Y-152792095D01*
X238765186Y-152902814D01*
X238848448Y-153004271D01*
X238877778Y-153040009D01*
X238961443Y-153196534D01*
X239012963Y-153366373D01*
X239030359Y-153543000D01*
X239012963Y-153719627D01*
X238961443Y-153889466D01*
X238877778Y-154045991D01*
X238869186Y-154056460D01*
X238765186Y-154183186D01*
X238663729Y-154266448D01*
X238627991Y-154295778D01*
X238471466Y-154379443D01*
X238301627Y-154430963D01*
X238235443Y-154437481D01*
X238169260Y-154444000D01*
X238080740Y-154444000D01*
X238014557Y-154437481D01*
X237948373Y-154430963D01*
X237778534Y-154379443D01*
X237622009Y-154295778D01*
X237586271Y-154266448D01*
X237484814Y-154183186D01*
X237380814Y-154056460D01*
X237372222Y-154045991D01*
X237288557Y-153889466D01*
X237237037Y-153719627D01*
X237219641Y-153543000D01*
X237237037Y-153366373D01*
X237288557Y-153196534D01*
X237372222Y-153040009D01*
X237401552Y-153004271D01*
X237484814Y-152902814D01*
X237619727Y-152792095D01*
X237622009Y-152790222D01*
X237778534Y-152706557D01*
X237948373Y-152655037D01*
X238014557Y-152648519D01*
X238080740Y-152642000D01*
X238169260Y-152642000D01*
X238235443Y-152648519D01*
X238235443Y-152648519D01*
G37*
G36*
X222995443Y-152648519D02*
G01*
X223061627Y-152655037D01*
X223231466Y-152706557D01*
X223387991Y-152790222D01*
X223390273Y-152792095D01*
X223525186Y-152902814D01*
X223608448Y-153004271D01*
X223637778Y-153040009D01*
X223721443Y-153196534D01*
X223772963Y-153366373D01*
X223790359Y-153543000D01*
X223772963Y-153719627D01*
X223721443Y-153889466D01*
X223637778Y-154045991D01*
X223629186Y-154056460D01*
X223525186Y-154183186D01*
X223423729Y-154266448D01*
X223387991Y-154295778D01*
X223231466Y-154379443D01*
X223061627Y-154430963D01*
X222995443Y-154437481D01*
X222929260Y-154444000D01*
X222840740Y-154444000D01*
X222774557Y-154437481D01*
X222708373Y-154430963D01*
X222538534Y-154379443D01*
X222382009Y-154295778D01*
X222346271Y-154266448D01*
X222244814Y-154183186D01*
X222140814Y-154056460D01*
X222132222Y-154045991D01*
X222048557Y-153889466D01*
X221997037Y-153719627D01*
X221979641Y-153543000D01*
X221997037Y-153366373D01*
X222048557Y-153196534D01*
X222132222Y-153040009D01*
X222161552Y-153004271D01*
X222244814Y-152902814D01*
X222379727Y-152792095D01*
X222382009Y-152790222D01*
X222538534Y-152706557D01*
X222708373Y-152655037D01*
X222774557Y-152648519D01*
X222840740Y-152642000D01*
X222929260Y-152642000D01*
X222995443Y-152648519D01*
X222995443Y-152648519D01*
G37*
G36*
X225535443Y-152648519D02*
G01*
X225601627Y-152655037D01*
X225771466Y-152706557D01*
X225927991Y-152790222D01*
X225930273Y-152792095D01*
X226065186Y-152902814D01*
X226148448Y-153004271D01*
X226177778Y-153040009D01*
X226261443Y-153196534D01*
X226312963Y-153366373D01*
X226330359Y-153543000D01*
X226312963Y-153719627D01*
X226261443Y-153889466D01*
X226177778Y-154045991D01*
X226169186Y-154056460D01*
X226065186Y-154183186D01*
X225963729Y-154266448D01*
X225927991Y-154295778D01*
X225771466Y-154379443D01*
X225601627Y-154430963D01*
X225535443Y-154437481D01*
X225469260Y-154444000D01*
X225380740Y-154444000D01*
X225314557Y-154437481D01*
X225248373Y-154430963D01*
X225078534Y-154379443D01*
X224922009Y-154295778D01*
X224886271Y-154266448D01*
X224784814Y-154183186D01*
X224680814Y-154056460D01*
X224672222Y-154045991D01*
X224588557Y-153889466D01*
X224537037Y-153719627D01*
X224519641Y-153543000D01*
X224537037Y-153366373D01*
X224588557Y-153196534D01*
X224672222Y-153040009D01*
X224701552Y-153004271D01*
X224784814Y-152902814D01*
X224919727Y-152792095D01*
X224922009Y-152790222D01*
X225078534Y-152706557D01*
X225248373Y-152655037D01*
X225314557Y-152648519D01*
X225380740Y-152642000D01*
X225469260Y-152642000D01*
X225535443Y-152648519D01*
X225535443Y-152648519D01*
G37*
G36*
X230615443Y-152648519D02*
G01*
X230681627Y-152655037D01*
X230851466Y-152706557D01*
X231007991Y-152790222D01*
X231010273Y-152792095D01*
X231145186Y-152902814D01*
X231228448Y-153004271D01*
X231257778Y-153040009D01*
X231341443Y-153196534D01*
X231392963Y-153366373D01*
X231410359Y-153543000D01*
X231392963Y-153719627D01*
X231341443Y-153889466D01*
X231257778Y-154045991D01*
X231249186Y-154056460D01*
X231145186Y-154183186D01*
X231043729Y-154266448D01*
X231007991Y-154295778D01*
X230851466Y-154379443D01*
X230681627Y-154430963D01*
X230615443Y-154437481D01*
X230549260Y-154444000D01*
X230460740Y-154444000D01*
X230394557Y-154437481D01*
X230328373Y-154430963D01*
X230158534Y-154379443D01*
X230002009Y-154295778D01*
X229966271Y-154266448D01*
X229864814Y-154183186D01*
X229760814Y-154056460D01*
X229752222Y-154045991D01*
X229668557Y-153889466D01*
X229617037Y-153719627D01*
X229599641Y-153543000D01*
X229617037Y-153366373D01*
X229668557Y-153196534D01*
X229752222Y-153040009D01*
X229781552Y-153004271D01*
X229864814Y-152902814D01*
X229999727Y-152792095D01*
X230002009Y-152790222D01*
X230158534Y-152706557D01*
X230328373Y-152655037D01*
X230394557Y-152648519D01*
X230460740Y-152642000D01*
X230549260Y-152642000D01*
X230615443Y-152648519D01*
X230615443Y-152648519D01*
G37*
G36*
X233155443Y-152648519D02*
G01*
X233221627Y-152655037D01*
X233391466Y-152706557D01*
X233547991Y-152790222D01*
X233550273Y-152792095D01*
X233685186Y-152902814D01*
X233768448Y-153004271D01*
X233797778Y-153040009D01*
X233881443Y-153196534D01*
X233932963Y-153366373D01*
X233950359Y-153543000D01*
X233932963Y-153719627D01*
X233881443Y-153889466D01*
X233797778Y-154045991D01*
X233789186Y-154056460D01*
X233685186Y-154183186D01*
X233583729Y-154266448D01*
X233547991Y-154295778D01*
X233391466Y-154379443D01*
X233221627Y-154430963D01*
X233155443Y-154437481D01*
X233089260Y-154444000D01*
X233000740Y-154444000D01*
X232934557Y-154437481D01*
X232868373Y-154430963D01*
X232698534Y-154379443D01*
X232542009Y-154295778D01*
X232506271Y-154266448D01*
X232404814Y-154183186D01*
X232300814Y-154056460D01*
X232292222Y-154045991D01*
X232208557Y-153889466D01*
X232157037Y-153719627D01*
X232139641Y-153543000D01*
X232157037Y-153366373D01*
X232208557Y-153196534D01*
X232292222Y-153040009D01*
X232321552Y-153004271D01*
X232404814Y-152902814D01*
X232539727Y-152792095D01*
X232542009Y-152790222D01*
X232698534Y-152706557D01*
X232868373Y-152655037D01*
X232934557Y-152648519D01*
X233000740Y-152642000D01*
X233089260Y-152642000D01*
X233155443Y-152648519D01*
X233155443Y-152648519D01*
G37*
G36*
X228075443Y-152648519D02*
G01*
X228141627Y-152655037D01*
X228311466Y-152706557D01*
X228467991Y-152790222D01*
X228470273Y-152792095D01*
X228605186Y-152902814D01*
X228688448Y-153004271D01*
X228717778Y-153040009D01*
X228801443Y-153196534D01*
X228852963Y-153366373D01*
X228870359Y-153543000D01*
X228852963Y-153719627D01*
X228801443Y-153889466D01*
X228717778Y-154045991D01*
X228709186Y-154056460D01*
X228605186Y-154183186D01*
X228503729Y-154266448D01*
X228467991Y-154295778D01*
X228311466Y-154379443D01*
X228141627Y-154430963D01*
X228075443Y-154437481D01*
X228009260Y-154444000D01*
X227920740Y-154444000D01*
X227854557Y-154437481D01*
X227788373Y-154430963D01*
X227618534Y-154379443D01*
X227462009Y-154295778D01*
X227426271Y-154266448D01*
X227324814Y-154183186D01*
X227220814Y-154056460D01*
X227212222Y-154045991D01*
X227128557Y-153889466D01*
X227077037Y-153719627D01*
X227059641Y-153543000D01*
X227077037Y-153366373D01*
X227128557Y-153196534D01*
X227212222Y-153040009D01*
X227241552Y-153004271D01*
X227324814Y-152902814D01*
X227459727Y-152792095D01*
X227462009Y-152790222D01*
X227618534Y-152706557D01*
X227788373Y-152655037D01*
X227854557Y-152648519D01*
X227920740Y-152642000D01*
X228009260Y-152642000D01*
X228075443Y-152648519D01*
X228075443Y-152648519D01*
G37*
G36*
X262459229Y-151776576D02*
G01*
X262570414Y-151798692D01*
X262779883Y-151885457D01*
X262968400Y-152011420D01*
X263128720Y-152171740D01*
X263254683Y-152360257D01*
X263254684Y-152360259D01*
X263341448Y-152569727D01*
X263368666Y-152706558D01*
X263385680Y-152792096D01*
X263385680Y-153018824D01*
X263341448Y-153241194D01*
X263254683Y-153450663D01*
X263128720Y-153639180D01*
X262968400Y-153799500D01*
X262779883Y-153925463D01*
X262570414Y-154012228D01*
X262459229Y-154034344D01*
X262348045Y-154056460D01*
X262121315Y-154056460D01*
X262010131Y-154034344D01*
X261898946Y-154012228D01*
X261689477Y-153925463D01*
X261500960Y-153799500D01*
X261340640Y-153639180D01*
X261214677Y-153450663D01*
X261127912Y-153241194D01*
X261083680Y-153018824D01*
X261083680Y-152792096D01*
X261100695Y-152706558D01*
X261127912Y-152569727D01*
X261214676Y-152360259D01*
X261214677Y-152360257D01*
X261340640Y-152171740D01*
X261500960Y-152011420D01*
X261689477Y-151885457D01*
X261898946Y-151798692D01*
X262010131Y-151776576D01*
X262121315Y-151754460D01*
X262348045Y-151754460D01*
X262459229Y-151776576D01*
X262459229Y-151776576D01*
G37*
G36*
X216914487Y-151029616D02*
G01*
X217151253Y-151127688D01*
X217151255Y-151127689D01*
X217364339Y-151270067D01*
X217545553Y-151451281D01*
X217687932Y-151664367D01*
X217786004Y-151901133D01*
X217836000Y-152152481D01*
X217836000Y-152408759D01*
X217786004Y-152660107D01*
X217731332Y-152792096D01*
X217687931Y-152896875D01*
X217545553Y-153109959D01*
X217364339Y-153291173D01*
X217151255Y-153433551D01*
X217151254Y-153433552D01*
X217151253Y-153433552D01*
X216914487Y-153531624D01*
X216663139Y-153581620D01*
X216406861Y-153581620D01*
X216155513Y-153531624D01*
X215918747Y-153433552D01*
X215918746Y-153433552D01*
X215918745Y-153433551D01*
X215705661Y-153291173D01*
X215524447Y-153109959D01*
X215382069Y-152896875D01*
X215338668Y-152792096D01*
X215283996Y-152660107D01*
X215234000Y-152408759D01*
X215234000Y-152152481D01*
X215283996Y-151901133D01*
X215382068Y-151664367D01*
X215524447Y-151451281D01*
X215705661Y-151270067D01*
X215918745Y-151127689D01*
X215918747Y-151127688D01*
X216155513Y-151029616D01*
X216406861Y-150979620D01*
X216663139Y-150979620D01*
X216914487Y-151029616D01*
X216914487Y-151029616D01*
G37*
G36*
X253296000Y-152051000D02*
G01*
X251344000Y-152051000D01*
X251344000Y-151349000D01*
X253296000Y-151349000D01*
X253296000Y-152051000D01*
X253296000Y-152051000D01*
G37*
G36*
X256965880Y-151820580D02*
G01*
X255463880Y-151820580D01*
X255463880Y-150718580D01*
X256965880Y-150718580D01*
X256965880Y-151820580D01*
X256965880Y-151820580D01*
G37*
G36*
X248231000Y-151641000D02*
G01*
X247349000Y-151641000D01*
X247349000Y-150559000D01*
X248231000Y-150559000D01*
X248231000Y-151641000D01*
X248231000Y-151641000D01*
G37*
G36*
X249631000Y-151641000D02*
G01*
X248749000Y-151641000D01*
X248749000Y-150559000D01*
X249631000Y-150559000D01*
X249631000Y-151641000D01*
X249631000Y-151641000D01*
G37*
G36*
X242676000Y-151431000D02*
G01*
X240324000Y-151431000D01*
X240324000Y-149629000D01*
X242676000Y-149629000D01*
X242676000Y-151431000D01*
X242676000Y-151431000D01*
G37*
G36*
X246111000Y-151311000D02*
G01*
X244889000Y-151311000D01*
X244889000Y-150789000D01*
X246111000Y-150789000D01*
X246111000Y-151311000D01*
X246111000Y-151311000D01*
G37*
G36*
X253691000Y-150681000D02*
G01*
X252489000Y-150681000D01*
X252489000Y-149079000D01*
X253691000Y-149079000D01*
X253691000Y-150681000D01*
X253691000Y-150681000D01*
G37*
G36*
X252191000Y-150681000D02*
G01*
X250989000Y-150681000D01*
X250989000Y-149079000D01*
X252191000Y-149079000D01*
X252191000Y-150681000D01*
X252191000Y-150681000D01*
G37*
G36*
X222840000Y-150309000D02*
G01*
X220238000Y-150309000D01*
X220238000Y-149207000D01*
X222840000Y-149207000D01*
X222840000Y-150309000D01*
X222840000Y-150309000D01*
G37*
G36*
X238340000Y-150309000D02*
G01*
X235738000Y-150309000D01*
X235738000Y-149207000D01*
X238340000Y-149207000D01*
X238340000Y-150309000D01*
X238340000Y-150309000D01*
G37*
G36*
X246111000Y-150261000D02*
G01*
X244889000Y-150261000D01*
X244889000Y-149739000D01*
X246111000Y-149739000D01*
X246111000Y-150261000D01*
X246111000Y-150261000D01*
G37*
G36*
X249701000Y-149801000D02*
G01*
X247299000Y-149801000D01*
X247299000Y-149199000D01*
X249701000Y-149199000D01*
X249701000Y-149801000D01*
X249701000Y-149801000D01*
G37*
G36*
X218067000Y-149269000D02*
G01*
X215765000Y-149269000D01*
X215765000Y-148117000D01*
X218067000Y-148117000D01*
X218067000Y-149269000D01*
X218067000Y-149269000D01*
G37*
G36*
X246111000Y-149211000D02*
G01*
X244889000Y-149211000D01*
X244889000Y-148689000D01*
X246111000Y-148689000D01*
X246111000Y-149211000D01*
X246111000Y-149211000D01*
G37*
G36*
X242676000Y-148431000D02*
G01*
X240324000Y-148431000D01*
X240324000Y-146629000D01*
X242676000Y-146629000D01*
X242676000Y-148431000D01*
X242676000Y-148431000D01*
G37*
G36*
X249701000Y-148201000D02*
G01*
X247299000Y-148201000D01*
X247299000Y-147599000D01*
X249701000Y-147599000D01*
X249701000Y-148201000D01*
X249701000Y-148201000D01*
G37*
G36*
X222840000Y-147769000D02*
G01*
X220238000Y-147769000D01*
X220238000Y-146667000D01*
X222840000Y-146667000D01*
X222840000Y-147769000D01*
X222840000Y-147769000D01*
G37*
G36*
X238340000Y-147769000D02*
G01*
X235738000Y-147769000D01*
X235738000Y-146667000D01*
X238340000Y-146667000D01*
X238340000Y-147769000D01*
X238340000Y-147769000D01*
G37*
G36*
X215967000Y-147769000D02*
G01*
X214865000Y-147769000D01*
X214865000Y-146667000D01*
X215967000Y-146667000D01*
X215967000Y-147769000D01*
X215967000Y-147769000D01*
G37*
G36*
X218967000Y-147769000D02*
G01*
X217865000Y-147769000D01*
X217865000Y-146667000D01*
X218967000Y-146667000D01*
X218967000Y-147769000D01*
X218967000Y-147769000D01*
G37*
G36*
X253691000Y-147681000D02*
G01*
X252489000Y-147681000D01*
X252489000Y-146079000D01*
X253691000Y-146079000D01*
X253691000Y-147681000D01*
X253691000Y-147681000D01*
G37*
G36*
X252191000Y-147681000D02*
G01*
X250989000Y-147681000D01*
X250989000Y-146079000D01*
X252191000Y-146079000D01*
X252191000Y-147681000D01*
X252191000Y-147681000D01*
G37*
G36*
X246111000Y-147061000D02*
G01*
X244889000Y-147061000D01*
X244889000Y-146539000D01*
X246111000Y-146539000D01*
X246111000Y-147061000D01*
X246111000Y-147061000D01*
G37*
G36*
X249573420Y-146741360D02*
G01*
X247621420Y-146741360D01*
X247621420Y-146039360D01*
X249573420Y-146039360D01*
X249573420Y-146741360D01*
X249573420Y-146741360D01*
G37*
G36*
X218067000Y-146319000D02*
G01*
X215765000Y-146319000D01*
X215765000Y-145167000D01*
X218067000Y-145167000D01*
X218067000Y-146319000D01*
X218067000Y-146319000D01*
G37*
G36*
X246111000Y-146061000D02*
G01*
X244889000Y-146061000D01*
X244889000Y-145539000D01*
X246111000Y-145539000D01*
X246111000Y-146061000D01*
X246111000Y-146061000D01*
G37*
G36*
X249856000Y-145261000D02*
G01*
X249104000Y-145261000D01*
X249104000Y-143459000D01*
X249856000Y-143459000D01*
X249856000Y-145261000D01*
X249856000Y-145261000D01*
G37*
G36*
X247956000Y-145261000D02*
G01*
X247204000Y-145261000D01*
X247204000Y-143459000D01*
X247956000Y-143459000D01*
X247956000Y-145261000D01*
X247956000Y-145261000D01*
G37*
G36*
X238340000Y-145229000D02*
G01*
X235738000Y-145229000D01*
X235738000Y-144127000D01*
X238340000Y-144127000D01*
X238340000Y-145229000D01*
X238340000Y-145229000D01*
G37*
G36*
X222840000Y-145229000D02*
G01*
X220238000Y-145229000D01*
X220238000Y-144127000D01*
X222840000Y-144127000D01*
X222840000Y-145229000D01*
X222840000Y-145229000D01*
G37*
G36*
X253537000Y-145218000D02*
G01*
X252635000Y-145218000D01*
X252635000Y-144316000D01*
X253537000Y-144316000D01*
X253537000Y-145218000D01*
X253537000Y-145218000D01*
G37*
G36*
X240541000Y-145141000D02*
G01*
X239459000Y-145141000D01*
X239459000Y-144259000D01*
X240541000Y-144259000D01*
X240541000Y-145141000D01*
X240541000Y-145141000D01*
G37*
G36*
X251601000Y-145076000D02*
G01*
X250899000Y-145076000D01*
X250899000Y-143124000D01*
X251601000Y-143124000D01*
X251601000Y-145076000D01*
X251601000Y-145076000D01*
G37*
G36*
X246111000Y-145061000D02*
G01*
X244889000Y-145061000D01*
X244889000Y-144539000D01*
X246111000Y-144539000D01*
X246111000Y-145061000D01*
X246111000Y-145061000D01*
G37*
G36*
X256965880Y-144820580D02*
G01*
X255463880Y-144820580D01*
X255463880Y-143718580D01*
X256965880Y-143718580D01*
X256965880Y-144820580D01*
X256965880Y-144820580D01*
G37*
G36*
X258101000Y-144141000D02*
G01*
X257579000Y-144141000D01*
X257579000Y-142919000D01*
X258101000Y-142919000D01*
X258101000Y-144141000D01*
X258101000Y-144141000D01*
G37*
G36*
X246111000Y-144061000D02*
G01*
X244889000Y-144061000D01*
X244889000Y-143539000D01*
X246111000Y-143539000D01*
X246111000Y-144061000D01*
X246111000Y-144061000D01*
G37*
G36*
X240541000Y-143741000D02*
G01*
X239459000Y-143741000D01*
X239459000Y-142859000D01*
X240541000Y-142859000D01*
X240541000Y-143741000D01*
X240541000Y-143741000D01*
G37*
G36*
X253537000Y-143568000D02*
G01*
X252635000Y-143568000D01*
X252635000Y-142666000D01*
X253537000Y-142666000D01*
X253537000Y-143568000D01*
X253537000Y-143568000D01*
G37*
G36*
X218143000Y-143066000D02*
G01*
X215791000Y-143066000D01*
X215791000Y-141264000D01*
X218143000Y-141264000D01*
X218143000Y-143066000D01*
X218143000Y-143066000D01*
G37*
G36*
X246111000Y-143061000D02*
G01*
X244889000Y-143061000D01*
X244889000Y-142539000D01*
X246111000Y-142539000D01*
X246111000Y-143061000D01*
X246111000Y-143061000D01*
G37*
G36*
X256965880Y-142958520D02*
G01*
X255463880Y-142958520D01*
X255463880Y-141856520D01*
X256965880Y-141856520D01*
X256965880Y-142958520D01*
X256965880Y-142958520D01*
G37*
G36*
X238340000Y-142689000D02*
G01*
X235738000Y-142689000D01*
X235738000Y-141587000D01*
X238340000Y-141587000D01*
X238340000Y-142689000D01*
X238340000Y-142689000D01*
G37*
G36*
X222840000Y-142689000D02*
G01*
X220238000Y-142689000D01*
X220238000Y-141587000D01*
X222840000Y-141587000D01*
X222840000Y-142689000D01*
X222840000Y-142689000D01*
G37*
G36*
X240541000Y-142341000D02*
G01*
X239459000Y-142341000D01*
X239459000Y-141459000D01*
X240541000Y-141459000D01*
X240541000Y-142341000D01*
X240541000Y-142341000D01*
G37*
G36*
X246111000Y-142061000D02*
G01*
X244889000Y-142061000D01*
X244889000Y-141539000D01*
X246111000Y-141539000D01*
X246111000Y-142061000D01*
X246111000Y-142061000D01*
G37*
G36*
X248416416Y-137976843D02*
G01*
X248420556Y-137978099D01*
X248439716Y-137986035D01*
X248463750Y-137990815D01*
X248488254Y-137990815D01*
X248512287Y-137986034D01*
X248531445Y-137978099D01*
X248535584Y-137976843D01*
X248544143Y-137976000D01*
X248807857Y-137976000D01*
X248816416Y-137976843D01*
X248820556Y-137978099D01*
X248839716Y-137986035D01*
X248863750Y-137990815D01*
X248888254Y-137990815D01*
X248912287Y-137986034D01*
X248931445Y-137978099D01*
X248935584Y-137976843D01*
X248944143Y-137976000D01*
X249207857Y-137976000D01*
X249216416Y-137976843D01*
X249220556Y-137978099D01*
X249239716Y-137986035D01*
X249263750Y-137990815D01*
X249288254Y-137990815D01*
X249312287Y-137986034D01*
X249331445Y-137978099D01*
X249335584Y-137976843D01*
X249344143Y-137976000D01*
X249607857Y-137976000D01*
X249616416Y-137976843D01*
X249620556Y-137978099D01*
X249639716Y-137986035D01*
X249663750Y-137990815D01*
X249688254Y-137990815D01*
X249712287Y-137986034D01*
X249731445Y-137978099D01*
X249735584Y-137976843D01*
X249744143Y-137976000D01*
X250007857Y-137976000D01*
X250016416Y-137976843D01*
X250020556Y-137978099D01*
X250039716Y-137986035D01*
X250063750Y-137990815D01*
X250088254Y-137990815D01*
X250112287Y-137986034D01*
X250131445Y-137978099D01*
X250135584Y-137976843D01*
X250144143Y-137976000D01*
X250407857Y-137976000D01*
X250416416Y-137976843D01*
X250418745Y-137977550D01*
X250420887Y-137978695D01*
X250422765Y-137980235D01*
X250424305Y-137982113D01*
X250425450Y-137984255D01*
X250426157Y-137986584D01*
X250427000Y-137995143D01*
X250427000Y-138526001D01*
X250429402Y-138550387D01*
X250436515Y-138573836D01*
X250448066Y-138595447D01*
X250463611Y-138614389D01*
X250482553Y-138629934D01*
X250504164Y-138641485D01*
X250527613Y-138648598D01*
X250551999Y-138651000D01*
X251082857Y-138651000D01*
X251091416Y-138651843D01*
X251093745Y-138652550D01*
X251095887Y-138653695D01*
X251097765Y-138655235D01*
X251099305Y-138657113D01*
X251100450Y-138659255D01*
X251101157Y-138661584D01*
X251102000Y-138670143D01*
X251102000Y-138933857D01*
X251101157Y-138942416D01*
X251099901Y-138946556D01*
X251091965Y-138965716D01*
X251087185Y-138989750D01*
X251087185Y-139014254D01*
X251091966Y-139038287D01*
X251099901Y-139057445D01*
X251101157Y-139061584D01*
X251102000Y-139070143D01*
X251102000Y-139333857D01*
X251101157Y-139342416D01*
X251099901Y-139346556D01*
X251091965Y-139365716D01*
X251087185Y-139389750D01*
X251087185Y-139414254D01*
X251091966Y-139438287D01*
X251099901Y-139457445D01*
X251101157Y-139461584D01*
X251102000Y-139470143D01*
X251102000Y-139733857D01*
X251101157Y-139742416D01*
X251099901Y-139746556D01*
X251091965Y-139765716D01*
X251087185Y-139789750D01*
X251087185Y-139814254D01*
X251091966Y-139838287D01*
X251099901Y-139857445D01*
X251101157Y-139861584D01*
X251102000Y-139870143D01*
X251102000Y-140133857D01*
X251101157Y-140142416D01*
X251099901Y-140146556D01*
X251091965Y-140165716D01*
X251087185Y-140189750D01*
X251087185Y-140214254D01*
X251091966Y-140238287D01*
X251099901Y-140257445D01*
X251101157Y-140261584D01*
X251102000Y-140270143D01*
X251102000Y-140533857D01*
X251101157Y-140542416D01*
X251099901Y-140546556D01*
X251091965Y-140565716D01*
X251087185Y-140589750D01*
X251087185Y-140614254D01*
X251091966Y-140638287D01*
X251099901Y-140657445D01*
X251101157Y-140661584D01*
X251102000Y-140670143D01*
X251102000Y-140933857D01*
X251101157Y-140942416D01*
X251100450Y-140944745D01*
X251099305Y-140946887D01*
X251097765Y-140948765D01*
X251095887Y-140950305D01*
X251093745Y-140951450D01*
X251091416Y-140952157D01*
X251082857Y-140953000D01*
X250551999Y-140953000D01*
X250527613Y-140955402D01*
X250504164Y-140962515D01*
X250482553Y-140974066D01*
X250463611Y-140989611D01*
X250448066Y-141008553D01*
X250436515Y-141030164D01*
X250429402Y-141053613D01*
X250427000Y-141077999D01*
X250427000Y-141608857D01*
X250426157Y-141617416D01*
X250425450Y-141619745D01*
X250424305Y-141621887D01*
X250422765Y-141623765D01*
X250420887Y-141625305D01*
X250418745Y-141626450D01*
X250416416Y-141627157D01*
X250407857Y-141628000D01*
X250144143Y-141628000D01*
X250135584Y-141627157D01*
X250131444Y-141625901D01*
X250112284Y-141617965D01*
X250088250Y-141613185D01*
X250063746Y-141613185D01*
X250039713Y-141617966D01*
X250020555Y-141625901D01*
X250016416Y-141627157D01*
X250007857Y-141628000D01*
X249744143Y-141628000D01*
X249735584Y-141627157D01*
X249731444Y-141625901D01*
X249712284Y-141617965D01*
X249688250Y-141613185D01*
X249663746Y-141613185D01*
X249639713Y-141617966D01*
X249620555Y-141625901D01*
X249616416Y-141627157D01*
X249607857Y-141628000D01*
X249344143Y-141628000D01*
X249335584Y-141627157D01*
X249331444Y-141625901D01*
X249312284Y-141617965D01*
X249288250Y-141613185D01*
X249263746Y-141613185D01*
X249239713Y-141617966D01*
X249220555Y-141625901D01*
X249216416Y-141627157D01*
X249207857Y-141628000D01*
X248944143Y-141628000D01*
X248935584Y-141627157D01*
X248931444Y-141625901D01*
X248912284Y-141617965D01*
X248888250Y-141613185D01*
X248863746Y-141613185D01*
X248839713Y-141617966D01*
X248820555Y-141625901D01*
X248816416Y-141627157D01*
X248807857Y-141628000D01*
X248544143Y-141628000D01*
X248535584Y-141627157D01*
X248531444Y-141625901D01*
X248512284Y-141617965D01*
X248488250Y-141613185D01*
X248463746Y-141613185D01*
X248439713Y-141617966D01*
X248420555Y-141625901D01*
X248416416Y-141627157D01*
X248407857Y-141628000D01*
X248144143Y-141628000D01*
X248135584Y-141627157D01*
X248133255Y-141626450D01*
X248131113Y-141625305D01*
X248129235Y-141623765D01*
X248127695Y-141621887D01*
X248126550Y-141619745D01*
X248125843Y-141617416D01*
X248125000Y-141608857D01*
X248125000Y-141077999D01*
X248122598Y-141053613D01*
X248115485Y-141030164D01*
X248103934Y-141008553D01*
X248088389Y-140989611D01*
X248069447Y-140974066D01*
X248047836Y-140962515D01*
X248024387Y-140955402D01*
X248000001Y-140953000D01*
X247469143Y-140953000D01*
X247460584Y-140952157D01*
X247458255Y-140951450D01*
X247456113Y-140950305D01*
X247454235Y-140948765D01*
X247452695Y-140946887D01*
X247451550Y-140944745D01*
X247450843Y-140942416D01*
X247450000Y-140933857D01*
X247450000Y-140670143D01*
X247450843Y-140661584D01*
X247452099Y-140657444D01*
X247460035Y-140638284D01*
X247464815Y-140614250D01*
X247464815Y-140589746D01*
X247460034Y-140565713D01*
X247452099Y-140546555D01*
X247450843Y-140542416D01*
X247450000Y-140533857D01*
X247450000Y-140270143D01*
X247450843Y-140261584D01*
X247452099Y-140257444D01*
X247460035Y-140238284D01*
X247464815Y-140214250D01*
X247464815Y-140189746D01*
X247460034Y-140165713D01*
X247452099Y-140146555D01*
X247450843Y-140142416D01*
X247450000Y-140133857D01*
X247450000Y-139870143D01*
X247450843Y-139861584D01*
X247452099Y-139857444D01*
X247460035Y-139838284D01*
X247464815Y-139814250D01*
X247464815Y-139789746D01*
X247460034Y-139765713D01*
X247452099Y-139746555D01*
X247450843Y-139742416D01*
X247450000Y-139733857D01*
X247450000Y-139470143D01*
X247450843Y-139461584D01*
X247452099Y-139457444D01*
X247460035Y-139438284D01*
X247464815Y-139414250D01*
X247464815Y-139389746D01*
X247460034Y-139365713D01*
X247452099Y-139346555D01*
X247450843Y-139342416D01*
X247450000Y-139333857D01*
X247450000Y-139070143D01*
X247450843Y-139061584D01*
X247452099Y-139057444D01*
X247460035Y-139038284D01*
X247464815Y-139014250D01*
X247464815Y-138989750D01*
X248087185Y-138989750D01*
X248087185Y-139014254D01*
X248091966Y-139038287D01*
X248099901Y-139057445D01*
X248101157Y-139061584D01*
X248102000Y-139070143D01*
X248102000Y-139333857D01*
X248101157Y-139342416D01*
X248099901Y-139346556D01*
X248091965Y-139365716D01*
X248087185Y-139389750D01*
X248087185Y-139414254D01*
X248091966Y-139438287D01*
X248099901Y-139457445D01*
X248101157Y-139461584D01*
X248102000Y-139470143D01*
X248102000Y-139733857D01*
X248101157Y-139742416D01*
X248099901Y-139746556D01*
X248091965Y-139765716D01*
X248087185Y-139789750D01*
X248087185Y-139814254D01*
X248091966Y-139838287D01*
X248099901Y-139857445D01*
X248101157Y-139861584D01*
X248102000Y-139870143D01*
X248102000Y-140133857D01*
X248101157Y-140142416D01*
X248099901Y-140146556D01*
X248091965Y-140165716D01*
X248087185Y-140189750D01*
X248087185Y-140214254D01*
X248091966Y-140238287D01*
X248099901Y-140257445D01*
X248101157Y-140261584D01*
X248102000Y-140270143D01*
X248102000Y-140533857D01*
X248101157Y-140542416D01*
X248099901Y-140546556D01*
X248091965Y-140565716D01*
X248087185Y-140589750D01*
X248087185Y-140614254D01*
X248091966Y-140638287D01*
X248099901Y-140657445D01*
X248101157Y-140661584D01*
X248102000Y-140670143D01*
X248102000Y-140851001D01*
X248104402Y-140875387D01*
X248111515Y-140898836D01*
X248123066Y-140920447D01*
X248138611Y-140939389D01*
X248157553Y-140954934D01*
X248179164Y-140966485D01*
X248202613Y-140973598D01*
X248226999Y-140976000D01*
X248407857Y-140976000D01*
X248416416Y-140976843D01*
X248420556Y-140978099D01*
X248439716Y-140986035D01*
X248463750Y-140990815D01*
X248488254Y-140990815D01*
X248512287Y-140986034D01*
X248531445Y-140978099D01*
X248535584Y-140976843D01*
X248544143Y-140976000D01*
X248807857Y-140976000D01*
X248816416Y-140976843D01*
X248820556Y-140978099D01*
X248839716Y-140986035D01*
X248863750Y-140990815D01*
X248888254Y-140990815D01*
X248912287Y-140986034D01*
X248931445Y-140978099D01*
X248935584Y-140976843D01*
X248944143Y-140976000D01*
X249207857Y-140976000D01*
X249216416Y-140976843D01*
X249220556Y-140978099D01*
X249239716Y-140986035D01*
X249263750Y-140990815D01*
X249288254Y-140990815D01*
X249312287Y-140986034D01*
X249331445Y-140978099D01*
X249335584Y-140976843D01*
X249344143Y-140976000D01*
X249607857Y-140976000D01*
X249616416Y-140976843D01*
X249620556Y-140978099D01*
X249639716Y-140986035D01*
X249663750Y-140990815D01*
X249688254Y-140990815D01*
X249712287Y-140986034D01*
X249731445Y-140978099D01*
X249735584Y-140976843D01*
X249744143Y-140976000D01*
X250007857Y-140976000D01*
X250016416Y-140976843D01*
X250020556Y-140978099D01*
X250039716Y-140986035D01*
X250063750Y-140990815D01*
X250088254Y-140990815D01*
X250112287Y-140986034D01*
X250131445Y-140978099D01*
X250135584Y-140976843D01*
X250144143Y-140976000D01*
X250325001Y-140976000D01*
X250349387Y-140973598D01*
X250372836Y-140966485D01*
X250394447Y-140954934D01*
X250413389Y-140939389D01*
X250428934Y-140920447D01*
X250440485Y-140898836D01*
X250447598Y-140875387D01*
X250450000Y-140851001D01*
X250450000Y-140670143D01*
X250450843Y-140661584D01*
X250452099Y-140657444D01*
X250460035Y-140638284D01*
X250464815Y-140614250D01*
X250464815Y-140589746D01*
X250460034Y-140565713D01*
X250452099Y-140546555D01*
X250450843Y-140542416D01*
X250450000Y-140533857D01*
X250450000Y-140270143D01*
X250450843Y-140261584D01*
X250452099Y-140257444D01*
X250460035Y-140238284D01*
X250464815Y-140214250D01*
X250464815Y-140189746D01*
X250460034Y-140165713D01*
X250452099Y-140146555D01*
X250450843Y-140142416D01*
X250450000Y-140133857D01*
X250450000Y-139870143D01*
X250450843Y-139861584D01*
X250452099Y-139857444D01*
X250460035Y-139838284D01*
X250464815Y-139814250D01*
X250464815Y-139789746D01*
X250460034Y-139765713D01*
X250452099Y-139746555D01*
X250450843Y-139742416D01*
X250450000Y-139733857D01*
X250450000Y-139470143D01*
X250450843Y-139461584D01*
X250452099Y-139457444D01*
X250460035Y-139438284D01*
X250464815Y-139414250D01*
X250464815Y-139389746D01*
X250460034Y-139365713D01*
X250452099Y-139346555D01*
X250450843Y-139342416D01*
X250450000Y-139333857D01*
X250450000Y-139070143D01*
X250450843Y-139061584D01*
X250452099Y-139057444D01*
X250460035Y-139038284D01*
X250464815Y-139014250D01*
X250464815Y-138989746D01*
X250460034Y-138965713D01*
X250452099Y-138946555D01*
X250450843Y-138942416D01*
X250450000Y-138933857D01*
X250450000Y-138752999D01*
X250447598Y-138728613D01*
X250440485Y-138705164D01*
X250428934Y-138683553D01*
X250413389Y-138664611D01*
X250394447Y-138649066D01*
X250372836Y-138637515D01*
X250349387Y-138630402D01*
X250325001Y-138628000D01*
X250144143Y-138628000D01*
X250135584Y-138627157D01*
X250131444Y-138625901D01*
X250112284Y-138617965D01*
X250088250Y-138613185D01*
X250063746Y-138613185D01*
X250039713Y-138617966D01*
X250020555Y-138625901D01*
X250016416Y-138627157D01*
X250007857Y-138628000D01*
X249744143Y-138628000D01*
X249735584Y-138627157D01*
X249731444Y-138625901D01*
X249712284Y-138617965D01*
X249688250Y-138613185D01*
X249663746Y-138613185D01*
X249639713Y-138617966D01*
X249620555Y-138625901D01*
X249616416Y-138627157D01*
X249607857Y-138628000D01*
X249344143Y-138628000D01*
X249335584Y-138627157D01*
X249331444Y-138625901D01*
X249312284Y-138617965D01*
X249288250Y-138613185D01*
X249263746Y-138613185D01*
X249239713Y-138617966D01*
X249220555Y-138625901D01*
X249216416Y-138627157D01*
X249207857Y-138628000D01*
X248944143Y-138628000D01*
X248935584Y-138627157D01*
X248931444Y-138625901D01*
X248912284Y-138617965D01*
X248888250Y-138613185D01*
X248863746Y-138613185D01*
X248839713Y-138617966D01*
X248820555Y-138625901D01*
X248816416Y-138627157D01*
X248807857Y-138628000D01*
X248544143Y-138628000D01*
X248535584Y-138627157D01*
X248531444Y-138625901D01*
X248512284Y-138617965D01*
X248488250Y-138613185D01*
X248463746Y-138613185D01*
X248439713Y-138617966D01*
X248420555Y-138625901D01*
X248416416Y-138627157D01*
X248407857Y-138628000D01*
X248226999Y-138628000D01*
X248202613Y-138630402D01*
X248179164Y-138637515D01*
X248157553Y-138649066D01*
X248138611Y-138664611D01*
X248123066Y-138683553D01*
X248111515Y-138705164D01*
X248104402Y-138728613D01*
X248102000Y-138752999D01*
X248102000Y-138933857D01*
X248101157Y-138942416D01*
X248099901Y-138946556D01*
X248091965Y-138965716D01*
X248087185Y-138989750D01*
X247464815Y-138989750D01*
X247464815Y-138989746D01*
X247460034Y-138965713D01*
X247452099Y-138946555D01*
X247450843Y-138942416D01*
X247450000Y-138933857D01*
X247450000Y-138670143D01*
X247450843Y-138661584D01*
X247451550Y-138659255D01*
X247452695Y-138657113D01*
X247454235Y-138655235D01*
X247456113Y-138653695D01*
X247458255Y-138652550D01*
X247460584Y-138651843D01*
X247469143Y-138651000D01*
X248000001Y-138651000D01*
X248024387Y-138648598D01*
X248047836Y-138641485D01*
X248069447Y-138629934D01*
X248088389Y-138614389D01*
X248103934Y-138595447D01*
X248115485Y-138573836D01*
X248122598Y-138550387D01*
X248125000Y-138526001D01*
X248125000Y-137995143D01*
X248125843Y-137986584D01*
X248126550Y-137984255D01*
X248127695Y-137982113D01*
X248129235Y-137980235D01*
X248131113Y-137978695D01*
X248133255Y-137977550D01*
X248135584Y-137976843D01*
X248144143Y-137976000D01*
X248407857Y-137976000D01*
X248416416Y-137976843D01*
X248416416Y-137976843D01*
G37*
G36*
X240541000Y-140941000D02*
G01*
X239459000Y-140941000D01*
X239459000Y-140059000D01*
X240541000Y-140059000D01*
X240541000Y-140941000D01*
X240541000Y-140941000D01*
G37*
G36*
X253586000Y-140824000D02*
G01*
X252534000Y-140824000D01*
X252534000Y-139872000D01*
X253586000Y-139872000D01*
X253586000Y-140824000D01*
X253586000Y-140824000D01*
G37*
G36*
X245861000Y-140816000D02*
G01*
X245139000Y-140816000D01*
X245139000Y-139184000D01*
X245861000Y-139184000D01*
X245861000Y-140816000D01*
X245861000Y-140816000D01*
G37*
G36*
X222840000Y-140149000D02*
G01*
X220238000Y-140149000D01*
X220238000Y-139047000D01*
X222840000Y-139047000D01*
X222840000Y-140149000D01*
X222840000Y-140149000D01*
G37*
G36*
X238340000Y-140149000D02*
G01*
X235738000Y-140149000D01*
X235738000Y-139047000D01*
X238340000Y-139047000D01*
X238340000Y-140149000D01*
X238340000Y-140149000D01*
G37*
G36*
X218143000Y-140066000D02*
G01*
X215791000Y-140066000D01*
X215791000Y-138264000D01*
X218143000Y-138264000D01*
X218143000Y-140066000D01*
X218143000Y-140066000D01*
G37*
G36*
X243776000Y-139701000D02*
G01*
X241424000Y-139701000D01*
X241424000Y-137899000D01*
X243776000Y-137899000D01*
X243776000Y-139701000D01*
X243776000Y-139701000D01*
G37*
G36*
X253586000Y-139224000D02*
G01*
X252534000Y-139224000D01*
X252534000Y-138272000D01*
X253586000Y-138272000D01*
X253586000Y-139224000D01*
X253586000Y-139224000D01*
G37*
G36*
X246041000Y-138541000D02*
G01*
X244959000Y-138541000D01*
X244959000Y-137659000D01*
X246041000Y-137659000D01*
X246041000Y-138541000D01*
X246041000Y-138541000D01*
G37*
G36*
X238340000Y-137609000D02*
G01*
X235738000Y-137609000D01*
X235738000Y-136507000D01*
X238340000Y-136507000D01*
X238340000Y-137609000D01*
X238340000Y-137609000D01*
G37*
G36*
X222840000Y-137609000D02*
G01*
X220238000Y-137609000D01*
X220238000Y-136507000D01*
X222840000Y-136507000D01*
X222840000Y-137609000D01*
X222840000Y-137609000D01*
G37*
G36*
X253426000Y-137501000D02*
G01*
X251474000Y-137501000D01*
X251474000Y-136799000D01*
X253426000Y-136799000D01*
X253426000Y-137501000D01*
X253426000Y-137501000D01*
G37*
G36*
X246041000Y-137141000D02*
G01*
X244959000Y-137141000D01*
X244959000Y-136259000D01*
X246041000Y-136259000D01*
X246041000Y-137141000D01*
X246041000Y-137141000D01*
G37*
G36*
X243776000Y-136701000D02*
G01*
X241424000Y-136701000D01*
X241424000Y-134899000D01*
X243776000Y-134899000D01*
X243776000Y-136701000D01*
X243776000Y-136701000D01*
G37*
G36*
X256965880Y-135958520D02*
G01*
X255463880Y-135958520D01*
X255463880Y-134856520D01*
X256965880Y-134856520D01*
X256965880Y-135958520D01*
X256965880Y-135958520D01*
G37*
G36*
X249396000Y-135911000D02*
G01*
X247444000Y-135911000D01*
X247444000Y-135209000D01*
X249396000Y-135209000D01*
X249396000Y-135911000D01*
X249396000Y-135911000D01*
G37*
G36*
X216863687Y-133277556D02*
G01*
X217100453Y-133375628D01*
X217100455Y-133375629D01*
X217313539Y-133518007D01*
X217494753Y-133699221D01*
X217637132Y-133912307D01*
X217735204Y-134149073D01*
X217785200Y-134400421D01*
X217785200Y-134656699D01*
X217735204Y-134908047D01*
X217688127Y-135021700D01*
X217637131Y-135144815D01*
X217494753Y-135357899D01*
X217313539Y-135539113D01*
X217100455Y-135681491D01*
X217100454Y-135681492D01*
X217100453Y-135681492D01*
X216863687Y-135779564D01*
X216612339Y-135829560D01*
X216356061Y-135829560D01*
X216104713Y-135779564D01*
X215867947Y-135681492D01*
X215867946Y-135681492D01*
X215867945Y-135681491D01*
X215654861Y-135539113D01*
X215473647Y-135357899D01*
X215331269Y-135144815D01*
X215280273Y-135021700D01*
X215233196Y-134908047D01*
X215183200Y-134656699D01*
X215183200Y-134400421D01*
X215233196Y-134149073D01*
X215331268Y-133912307D01*
X215473647Y-133699221D01*
X215654861Y-133518007D01*
X215867945Y-133375629D01*
X215867947Y-133375628D01*
X216104713Y-133277556D01*
X216356061Y-133227560D01*
X216612339Y-133227560D01*
X216863687Y-133277556D01*
X216863687Y-133277556D01*
G37*
G36*
X251441000Y-135631000D02*
G01*
X250219000Y-135631000D01*
X250219000Y-135109000D01*
X251441000Y-135109000D01*
X251441000Y-135631000D01*
X251441000Y-135631000D01*
G37*
G36*
X262387708Y-132720011D02*
G01*
X262608514Y-132763932D01*
X262817983Y-132850697D01*
X263006500Y-132976660D01*
X263166820Y-133136980D01*
X263292783Y-133325497D01*
X263379548Y-133534966D01*
X263423780Y-133757336D01*
X263423780Y-133984064D01*
X263379548Y-134206434D01*
X263292783Y-134415903D01*
X263166820Y-134604420D01*
X263006500Y-134764740D01*
X262817983Y-134890703D01*
X262817982Y-134890704D01*
X262817981Y-134890704D01*
X262776111Y-134908047D01*
X262608514Y-134977468D01*
X262497329Y-134999584D01*
X262386145Y-135021700D01*
X262159415Y-135021700D01*
X262048231Y-134999584D01*
X261937046Y-134977468D01*
X261769449Y-134908047D01*
X261727579Y-134890704D01*
X261727578Y-134890704D01*
X261727577Y-134890703D01*
X261539060Y-134764740D01*
X261378740Y-134604420D01*
X261252777Y-134415903D01*
X261166012Y-134206434D01*
X261121780Y-133984064D01*
X261121780Y-133757336D01*
X261166012Y-133534966D01*
X261252777Y-133325497D01*
X261378740Y-133136980D01*
X261539060Y-132976660D01*
X261727577Y-132850697D01*
X261937046Y-132763932D01*
X262157852Y-132720011D01*
X262159415Y-132719700D01*
X262386145Y-132719700D01*
X262387708Y-132720011D01*
X262387708Y-132720011D01*
G37*
G36*
X250935442Y-132328518D02*
G01*
X251001627Y-132335037D01*
X251171466Y-132386557D01*
X251327991Y-132470222D01*
X251363729Y-132499552D01*
X251465186Y-132582814D01*
X251548448Y-132684271D01*
X251577778Y-132720009D01*
X251661443Y-132876534D01*
X251712963Y-133046373D01*
X251730359Y-133223000D01*
X251712963Y-133399627D01*
X251661443Y-133569466D01*
X251577778Y-133725991D01*
X251552054Y-133757335D01*
X251465186Y-133863186D01*
X251363729Y-133946448D01*
X251327991Y-133975778D01*
X251171466Y-134059443D01*
X251001627Y-134110963D01*
X250935443Y-134117481D01*
X250869260Y-134124000D01*
X250780740Y-134124000D01*
X250714557Y-134117481D01*
X250648373Y-134110963D01*
X250478534Y-134059443D01*
X250322009Y-133975778D01*
X250286271Y-133946448D01*
X250184814Y-133863186D01*
X250097946Y-133757335D01*
X250072222Y-133725991D01*
X249988557Y-133569466D01*
X249937037Y-133399627D01*
X249919641Y-133223000D01*
X249937037Y-133046373D01*
X249988557Y-132876534D01*
X250072222Y-132720009D01*
X250101552Y-132684271D01*
X250184814Y-132582814D01*
X250286271Y-132499552D01*
X250322009Y-132470222D01*
X250478534Y-132386557D01*
X250648373Y-132335037D01*
X250714558Y-132328518D01*
X250780740Y-132322000D01*
X250869260Y-132322000D01*
X250935442Y-132328518D01*
X250935442Y-132328518D01*
G37*
G36*
X248395442Y-132328518D02*
G01*
X248461627Y-132335037D01*
X248631466Y-132386557D01*
X248787991Y-132470222D01*
X248823729Y-132499552D01*
X248925186Y-132582814D01*
X249008448Y-132684271D01*
X249037778Y-132720009D01*
X249121443Y-132876534D01*
X249172963Y-133046373D01*
X249190359Y-133223000D01*
X249172963Y-133399627D01*
X249121443Y-133569466D01*
X249037778Y-133725991D01*
X249012054Y-133757335D01*
X248925186Y-133863186D01*
X248823729Y-133946448D01*
X248787991Y-133975778D01*
X248631466Y-134059443D01*
X248461627Y-134110963D01*
X248395443Y-134117481D01*
X248329260Y-134124000D01*
X248240740Y-134124000D01*
X248174557Y-134117481D01*
X248108373Y-134110963D01*
X247938534Y-134059443D01*
X247782009Y-133975778D01*
X247746271Y-133946448D01*
X247644814Y-133863186D01*
X247557946Y-133757335D01*
X247532222Y-133725991D01*
X247448557Y-133569466D01*
X247397037Y-133399627D01*
X247379641Y-133223000D01*
X247397037Y-133046373D01*
X247448557Y-132876534D01*
X247532222Y-132720009D01*
X247561552Y-132684271D01*
X247644814Y-132582814D01*
X247746271Y-132499552D01*
X247782009Y-132470222D01*
X247938534Y-132386557D01*
X248108373Y-132335037D01*
X248174558Y-132328518D01*
X248240740Y-132322000D01*
X248329260Y-132322000D01*
X248395442Y-132328518D01*
X248395442Y-132328518D01*
G37*
G36*
X245855442Y-132328518D02*
G01*
X245921627Y-132335037D01*
X246091466Y-132386557D01*
X246247991Y-132470222D01*
X246283729Y-132499552D01*
X246385186Y-132582814D01*
X246468448Y-132684271D01*
X246497778Y-132720009D01*
X246581443Y-132876534D01*
X246632963Y-133046373D01*
X246650359Y-133223000D01*
X246632963Y-133399627D01*
X246581443Y-133569466D01*
X246497778Y-133725991D01*
X246472054Y-133757335D01*
X246385186Y-133863186D01*
X246283729Y-133946448D01*
X246247991Y-133975778D01*
X246091466Y-134059443D01*
X245921627Y-134110963D01*
X245855443Y-134117481D01*
X245789260Y-134124000D01*
X245700740Y-134124000D01*
X245634557Y-134117481D01*
X245568373Y-134110963D01*
X245398534Y-134059443D01*
X245242009Y-133975778D01*
X245206271Y-133946448D01*
X245104814Y-133863186D01*
X245017946Y-133757335D01*
X244992222Y-133725991D01*
X244908557Y-133569466D01*
X244857037Y-133399627D01*
X244839641Y-133223000D01*
X244857037Y-133046373D01*
X244908557Y-132876534D01*
X244992222Y-132720009D01*
X245021552Y-132684271D01*
X245104814Y-132582814D01*
X245206271Y-132499552D01*
X245242009Y-132470222D01*
X245398534Y-132386557D01*
X245568373Y-132335037D01*
X245634558Y-132328518D01*
X245700740Y-132322000D01*
X245789260Y-132322000D01*
X245855442Y-132328518D01*
X245855442Y-132328518D01*
G37*
G36*
X243315442Y-132328518D02*
G01*
X243381627Y-132335037D01*
X243551466Y-132386557D01*
X243707991Y-132470222D01*
X243743729Y-132499552D01*
X243845186Y-132582814D01*
X243928448Y-132684271D01*
X243957778Y-132720009D01*
X244041443Y-132876534D01*
X244092963Y-133046373D01*
X244110359Y-133223000D01*
X244092963Y-133399627D01*
X244041443Y-133569466D01*
X243957778Y-133725991D01*
X243932054Y-133757335D01*
X243845186Y-133863186D01*
X243743729Y-133946448D01*
X243707991Y-133975778D01*
X243551466Y-134059443D01*
X243381627Y-134110963D01*
X243315443Y-134117481D01*
X243249260Y-134124000D01*
X243160740Y-134124000D01*
X243094557Y-134117481D01*
X243028373Y-134110963D01*
X242858534Y-134059443D01*
X242702009Y-133975778D01*
X242666271Y-133946448D01*
X242564814Y-133863186D01*
X242477946Y-133757335D01*
X242452222Y-133725991D01*
X242368557Y-133569466D01*
X242317037Y-133399627D01*
X242299641Y-133223000D01*
X242317037Y-133046373D01*
X242368557Y-132876534D01*
X242452222Y-132720009D01*
X242481552Y-132684271D01*
X242564814Y-132582814D01*
X242666271Y-132499552D01*
X242702009Y-132470222D01*
X242858534Y-132386557D01*
X243028373Y-132335037D01*
X243094558Y-132328518D01*
X243160740Y-132322000D01*
X243249260Y-132322000D01*
X243315442Y-132328518D01*
X243315442Y-132328518D01*
G37*
G36*
X240775442Y-132328518D02*
G01*
X240841627Y-132335037D01*
X241011466Y-132386557D01*
X241167991Y-132470222D01*
X241203729Y-132499552D01*
X241305186Y-132582814D01*
X241388448Y-132684271D01*
X241417778Y-132720009D01*
X241501443Y-132876534D01*
X241552963Y-133046373D01*
X241570359Y-133223000D01*
X241552963Y-133399627D01*
X241501443Y-133569466D01*
X241417778Y-133725991D01*
X241392054Y-133757335D01*
X241305186Y-133863186D01*
X241203729Y-133946448D01*
X241167991Y-133975778D01*
X241011466Y-134059443D01*
X240841627Y-134110963D01*
X240775443Y-134117481D01*
X240709260Y-134124000D01*
X240620740Y-134124000D01*
X240554557Y-134117481D01*
X240488373Y-134110963D01*
X240318534Y-134059443D01*
X240162009Y-133975778D01*
X240126271Y-133946448D01*
X240024814Y-133863186D01*
X239937946Y-133757335D01*
X239912222Y-133725991D01*
X239828557Y-133569466D01*
X239777037Y-133399627D01*
X239759641Y-133223000D01*
X239777037Y-133046373D01*
X239828557Y-132876534D01*
X239912222Y-132720009D01*
X239941552Y-132684271D01*
X240024814Y-132582814D01*
X240126271Y-132499552D01*
X240162009Y-132470222D01*
X240318534Y-132386557D01*
X240488373Y-132335037D01*
X240554558Y-132328518D01*
X240620740Y-132322000D01*
X240709260Y-132322000D01*
X240775442Y-132328518D01*
X240775442Y-132328518D01*
G37*
G36*
X238235442Y-132328518D02*
G01*
X238301627Y-132335037D01*
X238471466Y-132386557D01*
X238627991Y-132470222D01*
X238663729Y-132499552D01*
X238765186Y-132582814D01*
X238848448Y-132684271D01*
X238877778Y-132720009D01*
X238961443Y-132876534D01*
X239012963Y-133046373D01*
X239030359Y-133223000D01*
X239012963Y-133399627D01*
X238961443Y-133569466D01*
X238877778Y-133725991D01*
X238852054Y-133757335D01*
X238765186Y-133863186D01*
X238663729Y-133946448D01*
X238627991Y-133975778D01*
X238471466Y-134059443D01*
X238301627Y-134110963D01*
X238235443Y-134117481D01*
X238169260Y-134124000D01*
X238080740Y-134124000D01*
X238014557Y-134117481D01*
X237948373Y-134110963D01*
X237778534Y-134059443D01*
X237622009Y-133975778D01*
X237586271Y-133946448D01*
X237484814Y-133863186D01*
X237397946Y-133757335D01*
X237372222Y-133725991D01*
X237288557Y-133569466D01*
X237237037Y-133399627D01*
X237219641Y-133223000D01*
X237237037Y-133046373D01*
X237288557Y-132876534D01*
X237372222Y-132720009D01*
X237401552Y-132684271D01*
X237484814Y-132582814D01*
X237586271Y-132499552D01*
X237622009Y-132470222D01*
X237778534Y-132386557D01*
X237948373Y-132335037D01*
X238014558Y-132328518D01*
X238080740Y-132322000D01*
X238169260Y-132322000D01*
X238235442Y-132328518D01*
X238235442Y-132328518D01*
G37*
G36*
X233155442Y-132328518D02*
G01*
X233221627Y-132335037D01*
X233391466Y-132386557D01*
X233547991Y-132470222D01*
X233583729Y-132499552D01*
X233685186Y-132582814D01*
X233768448Y-132684271D01*
X233797778Y-132720009D01*
X233881443Y-132876534D01*
X233932963Y-133046373D01*
X233950359Y-133223000D01*
X233932963Y-133399627D01*
X233881443Y-133569466D01*
X233797778Y-133725991D01*
X233772054Y-133757335D01*
X233685186Y-133863186D01*
X233583729Y-133946448D01*
X233547991Y-133975778D01*
X233391466Y-134059443D01*
X233221627Y-134110963D01*
X233155443Y-134117481D01*
X233089260Y-134124000D01*
X233000740Y-134124000D01*
X232934557Y-134117481D01*
X232868373Y-134110963D01*
X232698534Y-134059443D01*
X232542009Y-133975778D01*
X232506271Y-133946448D01*
X232404814Y-133863186D01*
X232317946Y-133757335D01*
X232292222Y-133725991D01*
X232208557Y-133569466D01*
X232157037Y-133399627D01*
X232139641Y-133223000D01*
X232157037Y-133046373D01*
X232208557Y-132876534D01*
X232292222Y-132720009D01*
X232321552Y-132684271D01*
X232404814Y-132582814D01*
X232506271Y-132499552D01*
X232542009Y-132470222D01*
X232698534Y-132386557D01*
X232868373Y-132335037D01*
X232934558Y-132328518D01*
X233000740Y-132322000D01*
X233089260Y-132322000D01*
X233155442Y-132328518D01*
X233155442Y-132328518D01*
G37*
G36*
X231406000Y-134124000D02*
G01*
X229604000Y-134124000D01*
X229604000Y-132322000D01*
X231406000Y-132322000D01*
X231406000Y-134124000D01*
X231406000Y-134124000D01*
G37*
G36*
X253475442Y-132328518D02*
G01*
X253541627Y-132335037D01*
X253711466Y-132386557D01*
X253867991Y-132470222D01*
X253903729Y-132499552D01*
X254005186Y-132582814D01*
X254088448Y-132684271D01*
X254117778Y-132720009D01*
X254201443Y-132876534D01*
X254252963Y-133046373D01*
X254270359Y-133223000D01*
X254252963Y-133399627D01*
X254201443Y-133569466D01*
X254117778Y-133725991D01*
X254092054Y-133757335D01*
X254005186Y-133863186D01*
X253903729Y-133946448D01*
X253867991Y-133975778D01*
X253711466Y-134059443D01*
X253541627Y-134110963D01*
X253475443Y-134117481D01*
X253409260Y-134124000D01*
X253320740Y-134124000D01*
X253254557Y-134117481D01*
X253188373Y-134110963D01*
X253018534Y-134059443D01*
X252862009Y-133975778D01*
X252826271Y-133946448D01*
X252724814Y-133863186D01*
X252637946Y-133757335D01*
X252612222Y-133725991D01*
X252528557Y-133569466D01*
X252477037Y-133399627D01*
X252459641Y-133223000D01*
X252477037Y-133046373D01*
X252528557Y-132876534D01*
X252612222Y-132720009D01*
X252641552Y-132684271D01*
X252724814Y-132582814D01*
X252826271Y-132499552D01*
X252862009Y-132470222D01*
X253018534Y-132386557D01*
X253188373Y-132335037D01*
X253254558Y-132328518D01*
X253320740Y-132322000D01*
X253409260Y-132322000D01*
X253475442Y-132328518D01*
X253475442Y-132328518D01*
G37*
G36*
X256015442Y-132328518D02*
G01*
X256081627Y-132335037D01*
X256251466Y-132386557D01*
X256407991Y-132470222D01*
X256443729Y-132499552D01*
X256545186Y-132582814D01*
X256628448Y-132684271D01*
X256657778Y-132720009D01*
X256741443Y-132876534D01*
X256792963Y-133046373D01*
X256810359Y-133223000D01*
X256792963Y-133399627D01*
X256741443Y-133569466D01*
X256657778Y-133725991D01*
X256632054Y-133757335D01*
X256545186Y-133863186D01*
X256443729Y-133946448D01*
X256407991Y-133975778D01*
X256251466Y-134059443D01*
X256081627Y-134110963D01*
X256015443Y-134117481D01*
X255949260Y-134124000D01*
X255860740Y-134124000D01*
X255794557Y-134117481D01*
X255728373Y-134110963D01*
X255558534Y-134059443D01*
X255402009Y-133975778D01*
X255366271Y-133946448D01*
X255264814Y-133863186D01*
X255177946Y-133757335D01*
X255152222Y-133725991D01*
X255068557Y-133569466D01*
X255017037Y-133399627D01*
X254999641Y-133223000D01*
X255017037Y-133046373D01*
X255068557Y-132876534D01*
X255152222Y-132720009D01*
X255181552Y-132684271D01*
X255264814Y-132582814D01*
X255366271Y-132499552D01*
X255402009Y-132470222D01*
X255558534Y-132386557D01*
X255728373Y-132335037D01*
X255794558Y-132328518D01*
X255860740Y-132322000D01*
X255949260Y-132322000D01*
X256015442Y-132328518D01*
X256015442Y-132328518D01*
G37*
G36*
X258555442Y-132328518D02*
G01*
X258621627Y-132335037D01*
X258791466Y-132386557D01*
X258947991Y-132470222D01*
X258983729Y-132499552D01*
X259085186Y-132582814D01*
X259168448Y-132684271D01*
X259197778Y-132720009D01*
X259281443Y-132876534D01*
X259332963Y-133046373D01*
X259350359Y-133223000D01*
X259332963Y-133399627D01*
X259281443Y-133569466D01*
X259197778Y-133725991D01*
X259172054Y-133757335D01*
X259085186Y-133863186D01*
X258983729Y-133946448D01*
X258947991Y-133975778D01*
X258791466Y-134059443D01*
X258621627Y-134110963D01*
X258555443Y-134117481D01*
X258489260Y-134124000D01*
X258400740Y-134124000D01*
X258334557Y-134117481D01*
X258268373Y-134110963D01*
X258098534Y-134059443D01*
X257942009Y-133975778D01*
X257906271Y-133946448D01*
X257804814Y-133863186D01*
X257717946Y-133757335D01*
X257692222Y-133725991D01*
X257608557Y-133569466D01*
X257557037Y-133399627D01*
X257539641Y-133223000D01*
X257557037Y-133046373D01*
X257608557Y-132876534D01*
X257692222Y-132720009D01*
X257721552Y-132684271D01*
X257804814Y-132582814D01*
X257906271Y-132499552D01*
X257942009Y-132470222D01*
X258098534Y-132386557D01*
X258268373Y-132335037D01*
X258334558Y-132328518D01*
X258400740Y-132322000D01*
X258489260Y-132322000D01*
X258555442Y-132328518D01*
X258555442Y-132328518D01*
G37*
G36*
X235695442Y-132328518D02*
G01*
X235761627Y-132335037D01*
X235931466Y-132386557D01*
X236087991Y-132470222D01*
X236123729Y-132499552D01*
X236225186Y-132582814D01*
X236308448Y-132684271D01*
X236337778Y-132720009D01*
X236421443Y-132876534D01*
X236472963Y-133046373D01*
X236490359Y-133223000D01*
X236472963Y-133399627D01*
X236421443Y-133569466D01*
X236337778Y-133725991D01*
X236312054Y-133757335D01*
X236225186Y-133863186D01*
X236123729Y-133946448D01*
X236087991Y-133975778D01*
X235931466Y-134059443D01*
X235761627Y-134110963D01*
X235695443Y-134117481D01*
X235629260Y-134124000D01*
X235540740Y-134124000D01*
X235474557Y-134117481D01*
X235408373Y-134110963D01*
X235238534Y-134059443D01*
X235082009Y-133975778D01*
X235046271Y-133946448D01*
X234944814Y-133863186D01*
X234857946Y-133757335D01*
X234832222Y-133725991D01*
X234748557Y-133569466D01*
X234697037Y-133399627D01*
X234679641Y-133223000D01*
X234697037Y-133046373D01*
X234748557Y-132876534D01*
X234832222Y-132720009D01*
X234861552Y-132684271D01*
X234944814Y-132582814D01*
X235046271Y-132499552D01*
X235082009Y-132470222D01*
X235238534Y-132386557D01*
X235408373Y-132335037D01*
X235474558Y-132328518D01*
X235540740Y-132322000D01*
X235629260Y-132322000D01*
X235695442Y-132328518D01*
X235695442Y-132328518D01*
G37*
M02*
