G04 #@! TF.GenerationSoftware,KiCad,Pcbnew,(5.1.4)-1*
G04 #@! TF.CreationDate,2019-11-20T19:39:55+01:00*
G04 #@! TF.ProjectId,Open_Telemetry_digitalSensorShield,4f70656e-5f54-4656-9c65-6d657472795f,P1A_02 - Prototype manuf.*
G04 #@! TF.SameCoordinates,Original*
G04 #@! TF.FileFunction,Legend,Top*
G04 #@! TF.FilePolarity,Positive*
%FSLAX46Y46*%
G04 Gerber Fmt 4.6, Leading zero omitted, Abs format (unit mm)*
G04 Created by KiCad (PCBNEW (5.1.4)-1) date 2019-11-20 19:39:55*
%MOMM*%
%LPD*%
G04 APERTURE LIST*
%ADD10C,0.120000*%
%ADD11C,0.150000*%
%ADD12C,0.200000*%
%ADD13C,0.254000*%
%ADD14C,0.100000*%
G04 APERTURE END LIST*
D10*
X242732560Y-143746220D02*
X242719860Y-143753840D01*
X241975640Y-144343120D02*
X242732560Y-143746220D01*
X242059460Y-143677640D02*
X242727480Y-144426940D01*
X242878219Y-144063720D02*
G75*
G03X242878219Y-144063720I-497010J0D01*
G01*
D11*
X243422051Y-145429165D02*
X243422051Y-144929165D01*
X243422051Y-145000594D02*
X243457765Y-144964880D01*
X243529194Y-144929165D01*
X243636337Y-144929165D01*
X243707765Y-144964880D01*
X243743480Y-145036308D01*
X243743480Y-145429165D01*
X243743480Y-145036308D02*
X243779194Y-144964880D01*
X243850622Y-144929165D01*
X243957765Y-144929165D01*
X244029194Y-144964880D01*
X244064908Y-145036308D01*
X244064908Y-145429165D01*
X241037608Y-145564165D02*
X241216180Y-146064165D01*
X241394751Y-145564165D02*
X241216180Y-146064165D01*
X241144751Y-146242737D01*
X241109037Y-146278451D01*
X241037608Y-146314165D01*
X241052771Y-143862365D02*
X241445628Y-143862365D01*
X241052771Y-144362365D01*
X241445628Y-144362365D01*
X244055051Y-143356525D02*
X244447908Y-142856525D01*
X244055051Y-142856525D02*
X244447908Y-143356525D01*
D10*
X242445540Y-145923000D02*
X242387120Y-146047460D01*
X244279420Y-143997680D02*
X244403880Y-144056100D01*
X244276880Y-144134840D02*
X244279420Y-143997680D01*
X242384580Y-146060160D02*
X242308380Y-145920460D01*
X242308380Y-145920460D02*
X242445540Y-145923000D01*
X244416580Y-144058640D02*
X244276880Y-144134840D01*
X242382040Y-144058640D02*
X242384580Y-146060160D01*
X242366800Y-144061180D02*
X244368320Y-144058640D01*
D11*
X243101857Y-142099225D02*
X243101857Y-141706368D01*
X243066142Y-141634940D01*
X242994714Y-141599225D01*
X242851857Y-141599225D01*
X242780428Y-141634940D01*
X243101857Y-142063511D02*
X243030428Y-142099225D01*
X242851857Y-142099225D01*
X242780428Y-142063511D01*
X242744714Y-141992082D01*
X242744714Y-141920654D01*
X242780428Y-141849225D01*
X242851857Y-141813511D01*
X243030428Y-141813511D01*
X243101857Y-141777797D01*
X243494714Y-142063511D02*
X243494714Y-142099225D01*
X243459000Y-142170654D01*
X243423285Y-142206368D01*
X244137571Y-141599225D02*
X244137571Y-142206368D01*
X244101857Y-142277797D01*
X244066142Y-142313511D01*
X243994714Y-142349225D01*
X243887571Y-142349225D01*
X243816142Y-142313511D01*
X244137571Y-142063511D02*
X244066142Y-142099225D01*
X243923285Y-142099225D01*
X243851857Y-142063511D01*
X243816142Y-142027797D01*
X243780428Y-141956368D01*
X243780428Y-141742082D01*
X243816142Y-141670654D01*
X243851857Y-141634940D01*
X243923285Y-141599225D01*
X244066142Y-141599225D01*
X244137571Y-141634940D01*
X241504891Y-140888025D02*
X241897748Y-140888025D01*
X241504891Y-141388025D01*
X241897748Y-141388025D01*
X241532831Y-143054265D02*
X241925688Y-142554265D01*
X241532831Y-142554265D02*
X241925688Y-143054265D01*
X244057668Y-139849165D02*
X244236240Y-140349165D01*
X244414811Y-139849165D02*
X244236240Y-140349165D01*
X244164811Y-140527737D01*
X244129097Y-140563451D01*
X244057668Y-140599165D01*
D10*
X242493913Y-141048740D02*
G75*
G03X242493913Y-141048740I-114413J0D01*
G01*
X242592042Y-141066520D02*
G75*
G03X242592042Y-141066520I-212542J0D01*
G01*
X242430300Y-142915640D02*
X242371880Y-143040100D01*
X242293140Y-142913100D02*
X242430300Y-142915640D01*
X242366800Y-141051280D02*
X242369340Y-143052800D01*
X242369340Y-143052800D02*
X242293140Y-142913100D01*
X244215920Y-140990320D02*
X244340380Y-141048740D01*
X244213380Y-141127480D02*
X244215920Y-140990320D01*
X244353080Y-141051280D02*
X244213380Y-141127480D01*
X242351560Y-141053820D02*
X244353080Y-141051280D01*
X263271000Y-135991600D02*
X263271000Y-135636000D01*
X262763000Y-136144000D02*
X262813800Y-136245600D01*
X262940800Y-136042400D02*
X262737600Y-136118600D01*
X262813800Y-136245600D02*
X262940800Y-136042400D01*
X263271000Y-137033000D02*
X262813800Y-136245600D01*
X263271000Y-137287000D02*
X263271000Y-137033000D01*
D11*
X260236220Y-141509253D02*
X260202886Y-141575920D01*
X260202886Y-141675920D01*
X260236220Y-141775920D01*
X260302886Y-141842586D01*
X260369553Y-141875920D01*
X260502886Y-141909253D01*
X260602886Y-141909253D01*
X260736220Y-141875920D01*
X260802886Y-141842586D01*
X260869553Y-141775920D01*
X260902886Y-141675920D01*
X260902886Y-141609253D01*
X260869553Y-141509253D01*
X260836220Y-141475920D01*
X260602886Y-141475920D01*
X260602886Y-141609253D01*
X260902886Y-141175920D02*
X260202886Y-141175920D01*
X260202886Y-140909253D01*
X260236220Y-140842586D01*
X260269553Y-140809253D01*
X260336220Y-140775920D01*
X260436220Y-140775920D01*
X260502886Y-140809253D01*
X260536220Y-140842586D01*
X260569553Y-140909253D01*
X260569553Y-141175920D01*
X260869553Y-140509253D02*
X260902886Y-140409253D01*
X260902886Y-140242586D01*
X260869553Y-140175920D01*
X260836220Y-140142586D01*
X260769553Y-140109253D01*
X260702886Y-140109253D01*
X260636220Y-140142586D01*
X260602886Y-140175920D01*
X260569553Y-140242586D01*
X260536220Y-140375920D01*
X260502886Y-140442586D01*
X260469553Y-140475920D01*
X260402886Y-140509253D01*
X260336220Y-140509253D01*
X260269553Y-140475920D01*
X260236220Y-140442586D01*
X260202886Y-140375920D01*
X260202886Y-140209253D01*
X260236220Y-140109253D01*
X260702886Y-139842586D02*
X260702886Y-139509253D01*
X260902886Y-139909253D02*
X260202886Y-139675920D01*
X260902886Y-139442586D01*
X260902886Y-139209253D02*
X260202886Y-139209253D01*
X260902886Y-138809253D01*
X260202886Y-138809253D01*
X260202886Y-138575920D02*
X260202886Y-138175920D01*
X260902886Y-138375920D02*
X260202886Y-138375920D01*
X260210820Y-146080453D02*
X260177486Y-146147120D01*
X260177486Y-146247120D01*
X260210820Y-146347120D01*
X260277486Y-146413786D01*
X260344153Y-146447120D01*
X260477486Y-146480453D01*
X260577486Y-146480453D01*
X260710820Y-146447120D01*
X260777486Y-146413786D01*
X260844153Y-146347120D01*
X260877486Y-146247120D01*
X260877486Y-146180453D01*
X260844153Y-146080453D01*
X260810820Y-146047120D01*
X260577486Y-146047120D01*
X260577486Y-146180453D01*
X260877486Y-145747120D02*
X260177486Y-145747120D01*
X260177486Y-145480453D01*
X260210820Y-145413786D01*
X260244153Y-145380453D01*
X260310820Y-145347120D01*
X260410820Y-145347120D01*
X260477486Y-145380453D01*
X260510820Y-145413786D01*
X260544153Y-145480453D01*
X260544153Y-145747120D01*
X260844153Y-145080453D02*
X260877486Y-144980453D01*
X260877486Y-144813786D01*
X260844153Y-144747120D01*
X260810820Y-144713786D01*
X260744153Y-144680453D01*
X260677486Y-144680453D01*
X260610820Y-144713786D01*
X260577486Y-144747120D01*
X260544153Y-144813786D01*
X260510820Y-144947120D01*
X260477486Y-145013786D01*
X260444153Y-145047120D01*
X260377486Y-145080453D01*
X260310820Y-145080453D01*
X260244153Y-145047120D01*
X260210820Y-145013786D01*
X260177486Y-144947120D01*
X260177486Y-144780453D01*
X260210820Y-144680453D01*
X260877486Y-144047120D02*
X260877486Y-144380453D01*
X260177486Y-144380453D01*
X260810820Y-143413786D02*
X260844153Y-143447120D01*
X260877486Y-143547120D01*
X260877486Y-143613786D01*
X260844153Y-143713786D01*
X260777486Y-143780453D01*
X260710820Y-143813786D01*
X260577486Y-143847120D01*
X260477486Y-143847120D01*
X260344153Y-143813786D01*
X260277486Y-143780453D01*
X260210820Y-143713786D01*
X260177486Y-143613786D01*
X260177486Y-143547120D01*
X260210820Y-143447120D01*
X260244153Y-143413786D01*
X260877486Y-143113786D02*
X260177486Y-143113786D01*
X260877486Y-142713786D02*
X260477486Y-143013786D01*
X260177486Y-142713786D02*
X260577486Y-143113786D01*
D10*
X259290820Y-137891520D02*
X259443220Y-138069320D01*
X259189220Y-138196320D02*
X259290820Y-137891520D01*
X259468620Y-138069320D02*
X259189220Y-138196320D01*
X259773420Y-137586720D02*
X259265420Y-138094720D01*
X259748020Y-137866120D02*
X259773420Y-137586720D01*
X260459220Y-137231120D02*
X259748020Y-137866120D01*
X259875020Y-137281920D02*
X259875020Y-135707120D01*
X259900420Y-136494520D02*
X261195820Y-137256520D01*
X261170420Y-135732520D02*
X259900420Y-136494520D01*
X261195820Y-137281920D02*
X261195820Y-135757920D01*
D11*
X260691753Y-150634986D02*
X260725086Y-150534986D01*
X260725086Y-150368320D01*
X260691753Y-150301653D01*
X260658420Y-150268320D01*
X260591753Y-150234986D01*
X260525086Y-150234986D01*
X260458420Y-150268320D01*
X260425086Y-150301653D01*
X260391753Y-150368320D01*
X260358420Y-150501653D01*
X260325086Y-150568320D01*
X260291753Y-150601653D01*
X260225086Y-150634986D01*
X260158420Y-150634986D01*
X260091753Y-150601653D01*
X260058420Y-150568320D01*
X260025086Y-150501653D01*
X260025086Y-150334986D01*
X260058420Y-150234986D01*
X260258420Y-150034986D02*
X260258420Y-149768320D01*
X260025086Y-149934986D02*
X260625086Y-149934986D01*
X260691753Y-149901653D01*
X260725086Y-149834986D01*
X260725086Y-149768320D01*
X260725086Y-149234986D02*
X260358420Y-149234986D01*
X260291753Y-149268320D01*
X260258420Y-149334986D01*
X260258420Y-149468320D01*
X260291753Y-149534986D01*
X260691753Y-149234986D02*
X260725086Y-149301653D01*
X260725086Y-149468320D01*
X260691753Y-149534986D01*
X260625086Y-149568320D01*
X260558420Y-149568320D01*
X260491753Y-149534986D01*
X260458420Y-149468320D01*
X260458420Y-149301653D01*
X260425086Y-149234986D01*
X260258420Y-149001653D02*
X260258420Y-148734986D01*
X260025086Y-148901653D02*
X260625086Y-148901653D01*
X260691753Y-148868320D01*
X260725086Y-148801653D01*
X260725086Y-148734986D01*
X260258420Y-148201653D02*
X260725086Y-148201653D01*
X260258420Y-148501653D02*
X260625086Y-148501653D01*
X260691753Y-148468320D01*
X260725086Y-148401653D01*
X260725086Y-148301653D01*
X260691753Y-148234986D01*
X260658420Y-148201653D01*
X260691753Y-147901653D02*
X260725086Y-147834986D01*
X260725086Y-147701653D01*
X260691753Y-147634986D01*
X260625086Y-147601653D01*
X260591753Y-147601653D01*
X260525086Y-147634986D01*
X260491753Y-147701653D01*
X260491753Y-147801653D01*
X260458420Y-147868320D01*
X260391753Y-147901653D01*
X260358420Y-147901653D01*
X260291753Y-147868320D01*
X260258420Y-147801653D01*
X260258420Y-147701653D01*
X260291753Y-147634986D01*
X263333666Y-140541266D02*
X263000333Y-140774600D01*
X263333666Y-140941266D02*
X262633666Y-140941266D01*
X262633666Y-140674600D01*
X262667000Y-140607933D01*
X262700333Y-140574600D01*
X262767000Y-140541266D01*
X262867000Y-140541266D01*
X262933666Y-140574600D01*
X262967000Y-140607933D01*
X263000333Y-140674600D01*
X263000333Y-140941266D01*
X263300333Y-139974600D02*
X263333666Y-140041266D01*
X263333666Y-140174600D01*
X263300333Y-140241266D01*
X263233666Y-140274600D01*
X262967000Y-140274600D01*
X262900333Y-140241266D01*
X262867000Y-140174600D01*
X262867000Y-140041266D01*
X262900333Y-139974600D01*
X262967000Y-139941266D01*
X263033666Y-139941266D01*
X263100333Y-140274600D01*
X263300333Y-139674600D02*
X263333666Y-139607933D01*
X263333666Y-139474600D01*
X263300333Y-139407933D01*
X263233666Y-139374600D01*
X263200333Y-139374600D01*
X263133666Y-139407933D01*
X263100333Y-139474600D01*
X263100333Y-139574600D01*
X263067000Y-139641266D01*
X263000333Y-139674600D01*
X262967000Y-139674600D01*
X262900333Y-139641266D01*
X262867000Y-139574600D01*
X262867000Y-139474600D01*
X262900333Y-139407933D01*
X263300333Y-138807933D02*
X263333666Y-138874600D01*
X263333666Y-139007933D01*
X263300333Y-139074600D01*
X263233666Y-139107933D01*
X262967000Y-139107933D01*
X262900333Y-139074600D01*
X262867000Y-139007933D01*
X262867000Y-138874600D01*
X262900333Y-138807933D01*
X262967000Y-138774600D01*
X263033666Y-138774600D01*
X263100333Y-139107933D01*
X262867000Y-138574600D02*
X262867000Y-138307933D01*
X262633666Y-138474600D02*
X263233666Y-138474600D01*
X263300333Y-138441266D01*
X263333666Y-138374600D01*
X263333666Y-138307933D01*
X263292400Y-149882000D02*
X263325733Y-149915333D01*
X263359066Y-150015333D01*
X263359066Y-150082000D01*
X263325733Y-150182000D01*
X263259066Y-150248666D01*
X263192400Y-150282000D01*
X263059066Y-150315333D01*
X262959066Y-150315333D01*
X262825733Y-150282000D01*
X262759066Y-150248666D01*
X262692400Y-150182000D01*
X262659066Y-150082000D01*
X262659066Y-150015333D01*
X262692400Y-149915333D01*
X262725733Y-149882000D01*
X263359066Y-149282000D02*
X262992400Y-149282000D01*
X262925733Y-149315333D01*
X262892400Y-149382000D01*
X262892400Y-149515333D01*
X262925733Y-149582000D01*
X263325733Y-149282000D02*
X263359066Y-149348666D01*
X263359066Y-149515333D01*
X263325733Y-149582000D01*
X263259066Y-149615333D01*
X263192400Y-149615333D01*
X263125733Y-149582000D01*
X263092400Y-149515333D01*
X263092400Y-149348666D01*
X263059066Y-149282000D01*
X263359066Y-148848666D02*
X263325733Y-148915333D01*
X263259066Y-148948666D01*
X262659066Y-148948666D01*
X263359066Y-148582000D02*
X262892400Y-148582000D01*
X262659066Y-148582000D02*
X262692400Y-148615333D01*
X262725733Y-148582000D01*
X262692400Y-148548666D01*
X262659066Y-148582000D01*
X262725733Y-148582000D01*
X263359066Y-148248666D02*
X262659066Y-148248666D01*
X262925733Y-148248666D02*
X262892400Y-148182000D01*
X262892400Y-148048666D01*
X262925733Y-147982000D01*
X262959066Y-147948666D01*
X263025733Y-147915333D01*
X263225733Y-147915333D01*
X263292400Y-147948666D01*
X263325733Y-147982000D01*
X263359066Y-148048666D01*
X263359066Y-148182000D01*
X263325733Y-148248666D01*
X263359066Y-147615333D02*
X262892400Y-147615333D01*
X263025733Y-147615333D02*
X262959066Y-147582000D01*
X262925733Y-147548666D01*
X262892400Y-147482000D01*
X262892400Y-147415333D01*
X263359066Y-146882000D02*
X262992400Y-146882000D01*
X262925733Y-146915333D01*
X262892400Y-146982000D01*
X262892400Y-147115333D01*
X262925733Y-147182000D01*
X263325733Y-146882000D02*
X263359066Y-146948666D01*
X263359066Y-147115333D01*
X263325733Y-147182000D01*
X263259066Y-147215333D01*
X263192400Y-147215333D01*
X263125733Y-147182000D01*
X263092400Y-147115333D01*
X263092400Y-146948666D01*
X263059066Y-146882000D01*
X262892400Y-146648666D02*
X262892400Y-146382000D01*
X262659066Y-146548666D02*
X263259066Y-146548666D01*
X263325733Y-146515333D01*
X263359066Y-146448666D01*
X263359066Y-146382000D01*
X263325733Y-145882000D02*
X263359066Y-145948666D01*
X263359066Y-146082000D01*
X263325733Y-146148666D01*
X263259066Y-146182000D01*
X262992400Y-146182000D01*
X262925733Y-146148666D01*
X262892400Y-146082000D01*
X262892400Y-145948666D01*
X262925733Y-145882000D01*
X262992400Y-145848666D01*
X263059066Y-145848666D01*
X263125733Y-146182000D01*
D10*
X258508500Y-153543000D02*
X258508500Y-133159500D01*
D12*
X254314880Y-150769580D02*
X254314880Y-144769580D01*
X258114880Y-144769580D02*
X258114880Y-150769580D01*
X254314880Y-150769580D02*
X255229880Y-150769580D01*
X258114880Y-150769580D02*
X257199880Y-150769580D01*
X254314880Y-144769580D02*
X255229880Y-144769580D01*
X258114880Y-144769580D02*
X257199880Y-144769580D01*
D13*
X256225880Y-152198580D02*
G75*
G03X256225880Y-152198580I-72000J0D01*
G01*
D12*
X254314880Y-141907520D02*
X254314880Y-135907520D01*
X258114880Y-135907520D02*
X258114880Y-141907520D01*
X254314880Y-141907520D02*
X255229880Y-141907520D01*
X258114880Y-141907520D02*
X257199880Y-141907520D01*
X254314880Y-135907520D02*
X255229880Y-135907520D01*
X258114880Y-135907520D02*
X257199880Y-135907520D01*
D13*
X256225880Y-143336520D02*
G75*
G03X256225880Y-143336520I-72000J0D01*
G01*
D14*
X247150000Y-148240000D02*
X247150000Y-147600000D01*
X249370000Y-147600000D02*
X249850000Y-147600000D01*
X249850000Y-148240000D02*
X249850000Y-147600000D01*
X247150000Y-149800000D02*
X247150000Y-149160000D01*
X249850000Y-149800000D02*
X249850000Y-149160000D01*
X249370000Y-149800000D02*
X249850000Y-149800000D01*
X247150000Y-149800000D02*
X247630000Y-149800000D01*
D10*
X215416000Y-148718000D02*
X215416000Y-147918000D01*
X215616000Y-148718000D02*
X215416000Y-148718000D01*
X215416000Y-145718000D02*
X215616000Y-145718000D01*
X215416000Y-146518000D02*
X215416000Y-145718000D01*
X218416000Y-145718000D02*
X218416000Y-146518000D01*
X218216000Y-145718000D02*
X218416000Y-145718000D01*
X218416000Y-148518000D02*
X218216000Y-148718000D01*
X218416000Y-147918000D02*
X218416000Y-148518000D01*
X218416000Y-147918000D02*
X218916000Y-147918000D01*
X218416000Y-146518000D02*
X218916000Y-146518000D01*
D12*
X221289000Y-135408000D02*
X237289000Y-135408000D01*
X221289000Y-151408000D02*
X237289000Y-151408000D01*
X221289000Y-137898000D02*
X221289000Y-138758000D01*
X221289000Y-140438000D02*
X221289000Y-141298000D01*
X221289000Y-142978000D02*
X221289000Y-143838000D01*
X221289000Y-145518000D02*
X221289000Y-146378000D01*
X221289000Y-148058000D02*
X221289000Y-148918000D01*
X237289000Y-137898000D02*
X237289000Y-138758000D01*
X237289000Y-140438000D02*
X237289000Y-141298000D01*
X237289000Y-142978000D02*
X237289000Y-143838000D01*
X237289000Y-145518000D02*
X237289000Y-146378000D01*
X237289000Y-148058000D02*
X237289000Y-148918000D01*
D13*
X239192300Y-150793000D02*
G75*
G03X239192300Y-150793000I-142300J0D01*
G01*
D10*
X229175000Y-134553000D02*
X229175000Y-133223000D01*
X230505000Y-134553000D02*
X229175000Y-134553000D01*
X231775000Y-134553000D02*
X231775000Y-131893000D01*
X231775000Y-131893000D02*
X259775000Y-131893000D01*
X231775000Y-134553000D02*
X259775000Y-134553000D01*
X259775000Y-134553000D02*
X259775000Y-131893000D01*
X259775000Y-152213000D02*
X259775000Y-153543000D01*
X258445000Y-152213000D02*
X259775000Y-152213000D01*
X257175000Y-152213000D02*
X257175000Y-154873000D01*
X257175000Y-154873000D02*
X219015000Y-154873000D01*
X257175000Y-152213000D02*
X219015000Y-152213000D01*
X219015000Y-152213000D02*
X219015000Y-154873000D01*
D12*
X240100000Y-147280000D02*
X240100000Y-150780000D01*
X242900000Y-150780000D02*
X242900000Y-146680000D01*
X244000000Y-139050000D02*
X244000000Y-134950000D01*
X241200000Y-135550000D02*
X241200000Y-139050000D01*
X215567000Y-138915000D02*
X215567000Y-142415000D01*
X218367000Y-142415000D02*
X218367000Y-138315000D01*
X253885000Y-141123000D02*
X253885000Y-138748000D01*
X252235000Y-141123000D02*
X253885000Y-141123000D01*
X252235000Y-138748000D02*
X252235000Y-141123000D01*
X252986000Y-142342000D02*
G75*
G03X253186000Y-142342000I100000J0D01*
G01*
X253186000Y-142342000D02*
G75*
G03X252986000Y-142342000I-100000J0D01*
G01*
D14*
X253486000Y-143642000D02*
X253486000Y-144242000D01*
X252686000Y-143642000D02*
X252686000Y-144242000D01*
D12*
X253186000Y-142342000D02*
X253186000Y-142342000D01*
X252986000Y-142342000D02*
X252986000Y-142342000D01*
D10*
X249230000Y-143200000D02*
X247330000Y-143200000D01*
X247830000Y-145520000D02*
X249230000Y-145520000D01*
D11*
X250876000Y-138202000D02*
X250876000Y-138602000D01*
X250876000Y-141402000D02*
X250876000Y-141002000D01*
X250876000Y-141402000D02*
X250476000Y-141402000D01*
X247676000Y-141402000D02*
X247676000Y-141002000D01*
X247676000Y-141402000D02*
X248076000Y-141402000D01*
X247676000Y-138202000D02*
X247676000Y-138602000D01*
X247676000Y-138202000D02*
X248076000Y-138202000D01*
D13*
X253162000Y-145742000D02*
G75*
G03X253162000Y-145742000I-34000J0D01*
G01*
D12*
X250890000Y-146780000D02*
X250890000Y-149980000D01*
X253790000Y-149980000D02*
X253790000Y-146780000D01*
D11*
X216557266Y-143724380D02*
X216557266Y-144438666D01*
X216509647Y-144581523D01*
X216414409Y-144676761D01*
X216271552Y-144724380D01*
X216176314Y-144724380D01*
X217557266Y-144724380D02*
X216985838Y-144724380D01*
X217271552Y-144724380D02*
X217271552Y-143724380D01*
X217176314Y-143867238D01*
X217081076Y-143962476D01*
X216985838Y-144010095D01*
X227530066Y-132573780D02*
X227530066Y-133288066D01*
X227482447Y-133430923D01*
X227387209Y-133526161D01*
X227244352Y-133573780D01*
X227149114Y-133573780D01*
X227958638Y-132669019D02*
X228006257Y-132621400D01*
X228101495Y-132573780D01*
X228339590Y-132573780D01*
X228434828Y-132621400D01*
X228482447Y-132669019D01*
X228530066Y-132764257D01*
X228530066Y-132859495D01*
X228482447Y-133002352D01*
X227911019Y-133573780D01*
X228530066Y-133573780D01*
X218851373Y-150841716D02*
X218851373Y-151734573D01*
X218791849Y-151913144D01*
X218672801Y-152032192D01*
X218494230Y-152091716D01*
X218375182Y-152091716D01*
X219327563Y-150841716D02*
X220101373Y-150841716D01*
X219684706Y-151317906D01*
X219863278Y-151317906D01*
X219982325Y-151377430D01*
X220041849Y-151436954D01*
X220101373Y-151556001D01*
X220101373Y-151853620D01*
X220041849Y-151972668D01*
X219982325Y-152032192D01*
X219863278Y-152091716D01*
X219506135Y-152091716D01*
X219387087Y-152032192D01*
X219327563Y-151972668D01*
M02*
