G04 #@! TF.GenerationSoftware,KiCad,Pcbnew,(5.1.4)-1*
G04 #@! TF.CreationDate,2019-11-17T19:28:04+01:00*
G04 #@! TF.ProjectId,Open_Telemetry_digitalSensorShield,4f70656e-5f54-4656-9c65-6d657472795f,P1A - Prototype manuf.*
G04 #@! TF.SameCoordinates,Original*
G04 #@! TF.FileFunction,Other,Comment*
%FSLAX46Y46*%
G04 Gerber Fmt 4.6, Leading zero omitted, Abs format (unit mm)*
G04 Created by KiCad (PCBNEW (5.1.4)-1) date 2019-11-17 19:28:04*
%MOMM*%
%LPD*%
G04 APERTURE LIST*
%ADD10C,0.150000*%
%ADD11C,0.040000*%
G04 APERTURE END LIST*
D10*
X264434680Y-152905460D02*
G75*
G03X264434680Y-152905460I-2200000J0D01*
G01*
X264472780Y-133870700D02*
G75*
G03X264472780Y-133870700I-2200000J0D01*
G01*
X219035000Y-152280620D02*
G75*
G03X219035000Y-152280620I-2500000J0D01*
G01*
X218984200Y-134528560D02*
G75*
G03X218984200Y-134528560I-2500000J0D01*
G01*
D11*
X248797428Y-140468666D02*
X248806952Y-140478190D01*
X248816476Y-140506761D01*
X248816476Y-140525809D01*
X248806952Y-140554380D01*
X248787904Y-140573428D01*
X248768857Y-140582952D01*
X248730761Y-140592476D01*
X248702190Y-140592476D01*
X248664095Y-140582952D01*
X248645047Y-140573428D01*
X248626000Y-140554380D01*
X248616476Y-140525809D01*
X248616476Y-140506761D01*
X248626000Y-140478190D01*
X248635523Y-140468666D01*
X248816476Y-140354380D02*
X248806952Y-140373428D01*
X248797428Y-140382952D01*
X248778380Y-140392476D01*
X248721238Y-140392476D01*
X248702190Y-140382952D01*
X248692666Y-140373428D01*
X248683142Y-140354380D01*
X248683142Y-140325809D01*
X248692666Y-140306761D01*
X248702190Y-140297238D01*
X248721238Y-140287714D01*
X248778380Y-140287714D01*
X248797428Y-140297238D01*
X248806952Y-140306761D01*
X248816476Y-140325809D01*
X248816476Y-140354380D01*
X248816476Y-140202000D02*
X248683142Y-140202000D01*
X248702190Y-140202000D02*
X248692666Y-140192476D01*
X248683142Y-140173428D01*
X248683142Y-140144857D01*
X248692666Y-140125809D01*
X248711714Y-140116285D01*
X248816476Y-140116285D01*
X248711714Y-140116285D02*
X248692666Y-140106761D01*
X248683142Y-140087714D01*
X248683142Y-140059142D01*
X248692666Y-140040095D01*
X248711714Y-140030571D01*
X248816476Y-140030571D01*
X248683142Y-139935333D02*
X248883142Y-139935333D01*
X248692666Y-139935333D02*
X248683142Y-139916285D01*
X248683142Y-139878190D01*
X248692666Y-139859142D01*
X248702190Y-139849619D01*
X248721238Y-139840095D01*
X248778380Y-139840095D01*
X248797428Y-139849619D01*
X248806952Y-139859142D01*
X248816476Y-139878190D01*
X248816476Y-139916285D01*
X248806952Y-139935333D01*
X248816476Y-139725809D02*
X248806952Y-139744857D01*
X248797428Y-139754380D01*
X248778380Y-139763904D01*
X248721238Y-139763904D01*
X248702190Y-139754380D01*
X248692666Y-139744857D01*
X248683142Y-139725809D01*
X248683142Y-139697238D01*
X248692666Y-139678190D01*
X248702190Y-139668666D01*
X248721238Y-139659142D01*
X248778380Y-139659142D01*
X248797428Y-139668666D01*
X248806952Y-139678190D01*
X248816476Y-139697238D01*
X248816476Y-139725809D01*
X248683142Y-139573428D02*
X248816476Y-139573428D01*
X248702190Y-139573428D02*
X248692666Y-139563904D01*
X248683142Y-139544857D01*
X248683142Y-139516285D01*
X248692666Y-139497238D01*
X248711714Y-139487714D01*
X248816476Y-139487714D01*
X248806952Y-139316285D02*
X248816476Y-139335333D01*
X248816476Y-139373428D01*
X248806952Y-139392476D01*
X248787904Y-139402000D01*
X248711714Y-139402000D01*
X248692666Y-139392476D01*
X248683142Y-139373428D01*
X248683142Y-139335333D01*
X248692666Y-139316285D01*
X248711714Y-139306761D01*
X248730761Y-139306761D01*
X248749809Y-139402000D01*
X248683142Y-139221047D02*
X248816476Y-139221047D01*
X248702190Y-139221047D02*
X248692666Y-139211523D01*
X248683142Y-139192476D01*
X248683142Y-139163904D01*
X248692666Y-139144857D01*
X248711714Y-139135333D01*
X248816476Y-139135333D01*
X248683142Y-139068666D02*
X248683142Y-138992476D01*
X248616476Y-139040095D02*
X248787904Y-139040095D01*
X248806952Y-139030571D01*
X248816476Y-139011523D01*
X248816476Y-138992476D01*
X249116476Y-140830571D02*
X248916476Y-140830571D01*
X248916476Y-140782952D01*
X248926000Y-140754380D01*
X248945047Y-140735333D01*
X248964095Y-140725809D01*
X249002190Y-140716285D01*
X249030761Y-140716285D01*
X249068857Y-140725809D01*
X249087904Y-140735333D01*
X249106952Y-140754380D01*
X249116476Y-140782952D01*
X249116476Y-140830571D01*
X249116476Y-140630571D02*
X248983142Y-140630571D01*
X248916476Y-140630571D02*
X248926000Y-140640095D01*
X248935523Y-140630571D01*
X248926000Y-140621047D01*
X248916476Y-140630571D01*
X248935523Y-140630571D01*
X249116476Y-140535333D02*
X248983142Y-140535333D01*
X249021238Y-140535333D02*
X249002190Y-140525809D01*
X248992666Y-140516285D01*
X248983142Y-140497238D01*
X248983142Y-140478190D01*
X249106952Y-140335333D02*
X249116476Y-140354380D01*
X249116476Y-140392476D01*
X249106952Y-140411523D01*
X249087904Y-140421047D01*
X249011714Y-140421047D01*
X248992666Y-140411523D01*
X248983142Y-140392476D01*
X248983142Y-140354380D01*
X248992666Y-140335333D01*
X249011714Y-140325809D01*
X249030761Y-140325809D01*
X249049809Y-140421047D01*
X249106952Y-140154380D02*
X249116476Y-140173428D01*
X249116476Y-140211523D01*
X249106952Y-140230571D01*
X249097428Y-140240095D01*
X249078380Y-140249619D01*
X249021238Y-140249619D01*
X249002190Y-140240095D01*
X248992666Y-140230571D01*
X248983142Y-140211523D01*
X248983142Y-140173428D01*
X248992666Y-140154380D01*
X248983142Y-140097238D02*
X248983142Y-140021047D01*
X248916476Y-140068666D02*
X249087904Y-140068666D01*
X249106952Y-140059142D01*
X249116476Y-140040095D01*
X249116476Y-140021047D01*
X249116476Y-139925809D02*
X249106952Y-139944857D01*
X249087904Y-139954380D01*
X248916476Y-139954380D01*
X248983142Y-139868666D02*
X249116476Y-139821047D01*
X248983142Y-139773428D02*
X249116476Y-139821047D01*
X249164095Y-139840095D01*
X249173619Y-139849619D01*
X249183142Y-139868666D01*
X249011714Y-139478190D02*
X249021238Y-139449619D01*
X249030761Y-139440095D01*
X249049809Y-139430571D01*
X249078380Y-139430571D01*
X249097428Y-139440095D01*
X249106952Y-139449619D01*
X249116476Y-139468666D01*
X249116476Y-139544857D01*
X248916476Y-139544857D01*
X248916476Y-139478190D01*
X248926000Y-139459142D01*
X248935523Y-139449619D01*
X248954571Y-139440095D01*
X248973619Y-139440095D01*
X248992666Y-139449619D01*
X249002190Y-139459142D01*
X249011714Y-139478190D01*
X249011714Y-139544857D01*
X249106952Y-139268666D02*
X249116476Y-139287714D01*
X249116476Y-139325809D01*
X249106952Y-139344857D01*
X249087904Y-139354380D01*
X249011714Y-139354380D01*
X248992666Y-139344857D01*
X248983142Y-139325809D01*
X248983142Y-139287714D01*
X248992666Y-139268666D01*
X249011714Y-139259142D01*
X249030761Y-139259142D01*
X249049809Y-139354380D01*
X249116476Y-139144857D02*
X249106952Y-139163904D01*
X249087904Y-139173428D01*
X248916476Y-139173428D01*
X249116476Y-139040095D02*
X249106952Y-139059142D01*
X249097428Y-139068666D01*
X249078380Y-139078190D01*
X249021238Y-139078190D01*
X249002190Y-139068666D01*
X248992666Y-139059142D01*
X248983142Y-139040095D01*
X248983142Y-139011523D01*
X248992666Y-138992476D01*
X249002190Y-138982952D01*
X249021238Y-138973428D01*
X249078380Y-138973428D01*
X249097428Y-138982952D01*
X249106952Y-138992476D01*
X249116476Y-139011523D01*
X249116476Y-139040095D01*
X248983142Y-138906761D02*
X249116476Y-138868666D01*
X249021238Y-138830571D01*
X249116476Y-138792476D01*
X248983142Y-138754380D01*
X249466476Y-140544857D02*
X249266476Y-140544857D01*
X249466476Y-140430571D01*
X249266476Y-140430571D01*
X249466476Y-140306761D02*
X249456952Y-140325809D01*
X249447428Y-140335333D01*
X249428380Y-140344857D01*
X249371238Y-140344857D01*
X249352190Y-140335333D01*
X249342666Y-140325809D01*
X249333142Y-140306761D01*
X249333142Y-140278190D01*
X249342666Y-140259142D01*
X249352190Y-140249619D01*
X249371238Y-140240095D01*
X249428380Y-140240095D01*
X249447428Y-140249619D01*
X249456952Y-140259142D01*
X249466476Y-140278190D01*
X249466476Y-140306761D01*
X249447428Y-139887714D02*
X249456952Y-139897238D01*
X249466476Y-139925809D01*
X249466476Y-139944857D01*
X249456952Y-139973428D01*
X249437904Y-139992476D01*
X249418857Y-140002000D01*
X249380761Y-140011523D01*
X249352190Y-140011523D01*
X249314095Y-140002000D01*
X249295047Y-139992476D01*
X249276000Y-139973428D01*
X249266476Y-139944857D01*
X249266476Y-139925809D01*
X249276000Y-139897238D01*
X249285523Y-139887714D01*
X249466476Y-139773428D02*
X249456952Y-139792476D01*
X249447428Y-139802000D01*
X249428380Y-139811523D01*
X249371238Y-139811523D01*
X249352190Y-139802000D01*
X249342666Y-139792476D01*
X249333142Y-139773428D01*
X249333142Y-139744857D01*
X249342666Y-139725809D01*
X249352190Y-139716285D01*
X249371238Y-139706761D01*
X249428380Y-139706761D01*
X249447428Y-139716285D01*
X249456952Y-139725809D01*
X249466476Y-139744857D01*
X249466476Y-139773428D01*
X249333142Y-139621047D02*
X249533142Y-139621047D01*
X249342666Y-139621047D02*
X249333142Y-139602000D01*
X249333142Y-139563904D01*
X249342666Y-139544857D01*
X249352190Y-139535333D01*
X249371238Y-139525809D01*
X249428380Y-139525809D01*
X249447428Y-139535333D01*
X249456952Y-139544857D01*
X249466476Y-139563904D01*
X249466476Y-139602000D01*
X249456952Y-139621047D01*
X249333142Y-139440095D02*
X249533142Y-139440095D01*
X249342666Y-139440095D02*
X249333142Y-139421047D01*
X249333142Y-139382952D01*
X249342666Y-139363904D01*
X249352190Y-139354380D01*
X249371238Y-139344857D01*
X249428380Y-139344857D01*
X249447428Y-139354380D01*
X249456952Y-139363904D01*
X249466476Y-139382952D01*
X249466476Y-139421047D01*
X249456952Y-139440095D01*
X249456952Y-139182952D02*
X249466476Y-139202000D01*
X249466476Y-139240095D01*
X249456952Y-139259142D01*
X249437904Y-139268666D01*
X249361714Y-139268666D01*
X249342666Y-139259142D01*
X249333142Y-139240095D01*
X249333142Y-139202000D01*
X249342666Y-139182952D01*
X249361714Y-139173428D01*
X249380761Y-139173428D01*
X249399809Y-139268666D01*
X249466476Y-139087714D02*
X249333142Y-139087714D01*
X249371238Y-139087714D02*
X249352190Y-139078190D01*
X249342666Y-139068666D01*
X249333142Y-139049619D01*
X249333142Y-139030571D01*
X249866476Y-140421047D02*
X249666476Y-140421047D01*
X249866476Y-140306761D02*
X249752190Y-140392476D01*
X249666476Y-140306761D02*
X249780761Y-140421047D01*
X249761714Y-140221047D02*
X249761714Y-140154380D01*
X249866476Y-140125809D02*
X249866476Y-140221047D01*
X249666476Y-140221047D01*
X249666476Y-140125809D01*
X249761714Y-140040095D02*
X249761714Y-139973428D01*
X249866476Y-139944857D02*
X249866476Y-140040095D01*
X249666476Y-140040095D01*
X249666476Y-139944857D01*
X249866476Y-139859142D02*
X249666476Y-139859142D01*
X249666476Y-139782952D01*
X249676000Y-139763904D01*
X249685523Y-139754380D01*
X249704571Y-139744857D01*
X249733142Y-139744857D01*
X249752190Y-139754380D01*
X249761714Y-139763904D01*
X249771238Y-139782952D01*
X249771238Y-139859142D01*
X249666476Y-139621047D02*
X249666476Y-139582952D01*
X249676000Y-139563904D01*
X249695047Y-139544857D01*
X249733142Y-139535333D01*
X249799809Y-139535333D01*
X249837904Y-139544857D01*
X249856952Y-139563904D01*
X249866476Y-139582952D01*
X249866476Y-139621047D01*
X249856952Y-139640095D01*
X249837904Y-139659142D01*
X249799809Y-139668666D01*
X249733142Y-139668666D01*
X249695047Y-139659142D01*
X249676000Y-139640095D01*
X249666476Y-139621047D01*
X249666476Y-139449619D02*
X249828380Y-139449619D01*
X249847428Y-139440095D01*
X249856952Y-139430571D01*
X249866476Y-139411523D01*
X249866476Y-139373428D01*
X249856952Y-139354380D01*
X249847428Y-139344857D01*
X249828380Y-139335333D01*
X249666476Y-139335333D01*
X249666476Y-139268666D02*
X249666476Y-139154380D01*
X249866476Y-139211523D02*
X249666476Y-139211523D01*
M02*
