G04 #@! TF.GenerationSoftware,KiCad,Pcbnew,(5.1.4)-1*
G04 #@! TF.CreationDate,2019-11-17T19:28:04+01:00*
G04 #@! TF.ProjectId,Open_Telemetry_digitalSensorShield,4f70656e-5f54-4656-9c65-6d657472795f,P1A - Prototype manuf.*
G04 #@! TF.SameCoordinates,Original*
G04 #@! TF.FileFunction,Legend,Top*
G04 #@! TF.FilePolarity,Positive*
%FSLAX46Y46*%
G04 Gerber Fmt 4.6, Leading zero omitted, Abs format (unit mm)*
G04 Created by KiCad (PCBNEW (5.1.4)-1) date 2019-11-17 19:28:04*
%MOMM*%
%LPD*%
G04 APERTURE LIST*
%ADD10C,0.120000*%
%ADD11C,0.150000*%
%ADD12C,0.200000*%
%ADD13C,0.254000*%
%ADD14C,0.100000*%
G04 APERTURE END LIST*
D10*
X242732560Y-143746220D02*
X242719860Y-143753840D01*
X241975640Y-144343120D02*
X242732560Y-143746220D01*
X242059460Y-143677640D02*
X242727480Y-144426940D01*
X242878219Y-144063720D02*
G75*
G03X242878219Y-144063720I-497010J0D01*
G01*
D11*
X243422051Y-145429165D02*
X243422051Y-144929165D01*
X243422051Y-145000594D02*
X243457765Y-144964880D01*
X243529194Y-144929165D01*
X243636337Y-144929165D01*
X243707765Y-144964880D01*
X243743480Y-145036308D01*
X243743480Y-145429165D01*
X243743480Y-145036308D02*
X243779194Y-144964880D01*
X243850622Y-144929165D01*
X243957765Y-144929165D01*
X244029194Y-144964880D01*
X244064908Y-145036308D01*
X244064908Y-145429165D01*
X241037608Y-145564165D02*
X241216180Y-146064165D01*
X241394751Y-145564165D02*
X241216180Y-146064165D01*
X241144751Y-146242737D01*
X241109037Y-146278451D01*
X241037608Y-146314165D01*
X241052771Y-143862365D02*
X241445628Y-143862365D01*
X241052771Y-144362365D01*
X241445628Y-144362365D01*
X244055051Y-143356525D02*
X244447908Y-142856525D01*
X244055051Y-142856525D02*
X244447908Y-143356525D01*
D10*
X242445540Y-145923000D02*
X242387120Y-146047460D01*
X244279420Y-143997680D02*
X244403880Y-144056100D01*
X244276880Y-144134840D02*
X244279420Y-143997680D01*
X242384580Y-146060160D02*
X242308380Y-145920460D01*
X242308380Y-145920460D02*
X242445540Y-145923000D01*
X244416580Y-144058640D02*
X244276880Y-144134840D01*
X242382040Y-144058640D02*
X242384580Y-146060160D01*
X242366800Y-144061180D02*
X244368320Y-144058640D01*
D11*
X263017997Y-143696885D02*
X263017997Y-143304028D01*
X262982282Y-143232600D01*
X262910854Y-143196885D01*
X262767997Y-143196885D01*
X262696568Y-143232600D01*
X263017997Y-143661171D02*
X262946568Y-143696885D01*
X262767997Y-143696885D01*
X262696568Y-143661171D01*
X262660854Y-143589742D01*
X262660854Y-143518314D01*
X262696568Y-143446885D01*
X262767997Y-143411171D01*
X262946568Y-143411171D01*
X263017997Y-143375457D01*
X263410854Y-143661171D02*
X263410854Y-143696885D01*
X263375140Y-143768314D01*
X263339425Y-143804028D01*
X264053711Y-143196885D02*
X264053711Y-143804028D01*
X264017997Y-143875457D01*
X263982282Y-143911171D01*
X263910854Y-143946885D01*
X263803711Y-143946885D01*
X263732282Y-143911171D01*
X264053711Y-143661171D02*
X263982282Y-143696885D01*
X263839425Y-143696885D01*
X263767997Y-143661171D01*
X263732282Y-143625457D01*
X263696568Y-143554028D01*
X263696568Y-143339742D01*
X263732282Y-143268314D01*
X263767997Y-143232600D01*
X263839425Y-143196885D01*
X263982282Y-143196885D01*
X264053711Y-143232600D01*
X261418491Y-142569505D02*
X261811348Y-142569505D01*
X261418491Y-143069505D01*
X261811348Y-143069505D01*
X261446431Y-144735745D02*
X261839288Y-144235745D01*
X261446431Y-144235745D02*
X261839288Y-144735745D01*
X263971268Y-141530645D02*
X264149840Y-142030645D01*
X264328411Y-141530645D02*
X264149840Y-142030645D01*
X264078411Y-142209217D01*
X264042697Y-142244931D01*
X263971268Y-142280645D01*
D10*
X262407513Y-142730220D02*
G75*
G03X262407513Y-142730220I-114413J0D01*
G01*
X262505642Y-142748000D02*
G75*
G03X262505642Y-142748000I-212542J0D01*
G01*
X262343900Y-144597120D02*
X262285480Y-144721580D01*
X262206740Y-144594580D02*
X262343900Y-144597120D01*
X262280400Y-142732760D02*
X262282940Y-144734280D01*
X262282940Y-144734280D02*
X262206740Y-144594580D01*
X264129520Y-142671800D02*
X264253980Y-142730220D01*
X264126980Y-142808960D02*
X264129520Y-142671800D01*
X264266680Y-142732760D02*
X264126980Y-142808960D01*
X262265160Y-142735300D02*
X264266680Y-142732760D01*
X263271000Y-135991600D02*
X263271000Y-135636000D01*
X262763000Y-136144000D02*
X262813800Y-136245600D01*
X262940800Y-136042400D02*
X262737600Y-136118600D01*
X262813800Y-136245600D02*
X262940800Y-136042400D01*
X263271000Y-137033000D02*
X262813800Y-136245600D01*
X263271000Y-137287000D02*
X263271000Y-137033000D01*
D11*
X259753620Y-141529573D02*
X259720286Y-141596240D01*
X259720286Y-141696240D01*
X259753620Y-141796240D01*
X259820286Y-141862906D01*
X259886953Y-141896240D01*
X260020286Y-141929573D01*
X260120286Y-141929573D01*
X260253620Y-141896240D01*
X260320286Y-141862906D01*
X260386953Y-141796240D01*
X260420286Y-141696240D01*
X260420286Y-141629573D01*
X260386953Y-141529573D01*
X260353620Y-141496240D01*
X260120286Y-141496240D01*
X260120286Y-141629573D01*
X260420286Y-141196240D02*
X259720286Y-141196240D01*
X259720286Y-140929573D01*
X259753620Y-140862906D01*
X259786953Y-140829573D01*
X259853620Y-140796240D01*
X259953620Y-140796240D01*
X260020286Y-140829573D01*
X260053620Y-140862906D01*
X260086953Y-140929573D01*
X260086953Y-141196240D01*
X260386953Y-140529573D02*
X260420286Y-140429573D01*
X260420286Y-140262906D01*
X260386953Y-140196240D01*
X260353620Y-140162906D01*
X260286953Y-140129573D01*
X260220286Y-140129573D01*
X260153620Y-140162906D01*
X260120286Y-140196240D01*
X260086953Y-140262906D01*
X260053620Y-140396240D01*
X260020286Y-140462906D01*
X259986953Y-140496240D01*
X259920286Y-140529573D01*
X259853620Y-140529573D01*
X259786953Y-140496240D01*
X259753620Y-140462906D01*
X259720286Y-140396240D01*
X259720286Y-140229573D01*
X259753620Y-140129573D01*
X260220286Y-139862906D02*
X260220286Y-139529573D01*
X260420286Y-139929573D02*
X259720286Y-139696240D01*
X260420286Y-139462906D01*
X260420286Y-139229573D02*
X259720286Y-139229573D01*
X260420286Y-138829573D01*
X259720286Y-138829573D01*
X259720286Y-138596240D02*
X259720286Y-138196240D01*
X260420286Y-138396240D02*
X259720286Y-138396240D01*
X259728220Y-146100773D02*
X259694886Y-146167440D01*
X259694886Y-146267440D01*
X259728220Y-146367440D01*
X259794886Y-146434106D01*
X259861553Y-146467440D01*
X259994886Y-146500773D01*
X260094886Y-146500773D01*
X260228220Y-146467440D01*
X260294886Y-146434106D01*
X260361553Y-146367440D01*
X260394886Y-146267440D01*
X260394886Y-146200773D01*
X260361553Y-146100773D01*
X260328220Y-146067440D01*
X260094886Y-146067440D01*
X260094886Y-146200773D01*
X260394886Y-145767440D02*
X259694886Y-145767440D01*
X259694886Y-145500773D01*
X259728220Y-145434106D01*
X259761553Y-145400773D01*
X259828220Y-145367440D01*
X259928220Y-145367440D01*
X259994886Y-145400773D01*
X260028220Y-145434106D01*
X260061553Y-145500773D01*
X260061553Y-145767440D01*
X260361553Y-145100773D02*
X260394886Y-145000773D01*
X260394886Y-144834106D01*
X260361553Y-144767440D01*
X260328220Y-144734106D01*
X260261553Y-144700773D01*
X260194886Y-144700773D01*
X260128220Y-144734106D01*
X260094886Y-144767440D01*
X260061553Y-144834106D01*
X260028220Y-144967440D01*
X259994886Y-145034106D01*
X259961553Y-145067440D01*
X259894886Y-145100773D01*
X259828220Y-145100773D01*
X259761553Y-145067440D01*
X259728220Y-145034106D01*
X259694886Y-144967440D01*
X259694886Y-144800773D01*
X259728220Y-144700773D01*
X260394886Y-144067440D02*
X260394886Y-144400773D01*
X259694886Y-144400773D01*
X260328220Y-143434106D02*
X260361553Y-143467440D01*
X260394886Y-143567440D01*
X260394886Y-143634106D01*
X260361553Y-143734106D01*
X260294886Y-143800773D01*
X260228220Y-143834106D01*
X260094886Y-143867440D01*
X259994886Y-143867440D01*
X259861553Y-143834106D01*
X259794886Y-143800773D01*
X259728220Y-143734106D01*
X259694886Y-143634106D01*
X259694886Y-143567440D01*
X259728220Y-143467440D01*
X259761553Y-143434106D01*
X260394886Y-143134106D02*
X259694886Y-143134106D01*
X260394886Y-142734106D02*
X259994886Y-143034106D01*
X259694886Y-142734106D02*
X260094886Y-143134106D01*
D10*
X258808220Y-137911840D02*
X258960620Y-138089640D01*
X258706620Y-138216640D02*
X258808220Y-137911840D01*
X258986020Y-138089640D02*
X258706620Y-138216640D01*
X259290820Y-137607040D02*
X258782820Y-138115040D01*
X259265420Y-137886440D02*
X259290820Y-137607040D01*
X259976620Y-137251440D02*
X259265420Y-137886440D01*
X259392420Y-137302240D02*
X259392420Y-135727440D01*
X259417820Y-136514840D02*
X260713220Y-137276840D01*
X260687820Y-135752840D02*
X259417820Y-136514840D01*
X260713220Y-137302240D02*
X260713220Y-135778240D01*
D11*
X260209153Y-150655306D02*
X260242486Y-150555306D01*
X260242486Y-150388640D01*
X260209153Y-150321973D01*
X260175820Y-150288640D01*
X260109153Y-150255306D01*
X260042486Y-150255306D01*
X259975820Y-150288640D01*
X259942486Y-150321973D01*
X259909153Y-150388640D01*
X259875820Y-150521973D01*
X259842486Y-150588640D01*
X259809153Y-150621973D01*
X259742486Y-150655306D01*
X259675820Y-150655306D01*
X259609153Y-150621973D01*
X259575820Y-150588640D01*
X259542486Y-150521973D01*
X259542486Y-150355306D01*
X259575820Y-150255306D01*
X259775820Y-150055306D02*
X259775820Y-149788640D01*
X259542486Y-149955306D02*
X260142486Y-149955306D01*
X260209153Y-149921973D01*
X260242486Y-149855306D01*
X260242486Y-149788640D01*
X260242486Y-149255306D02*
X259875820Y-149255306D01*
X259809153Y-149288640D01*
X259775820Y-149355306D01*
X259775820Y-149488640D01*
X259809153Y-149555306D01*
X260209153Y-149255306D02*
X260242486Y-149321973D01*
X260242486Y-149488640D01*
X260209153Y-149555306D01*
X260142486Y-149588640D01*
X260075820Y-149588640D01*
X260009153Y-149555306D01*
X259975820Y-149488640D01*
X259975820Y-149321973D01*
X259942486Y-149255306D01*
X259775820Y-149021973D02*
X259775820Y-148755306D01*
X259542486Y-148921973D02*
X260142486Y-148921973D01*
X260209153Y-148888640D01*
X260242486Y-148821973D01*
X260242486Y-148755306D01*
X259775820Y-148221973D02*
X260242486Y-148221973D01*
X259775820Y-148521973D02*
X260142486Y-148521973D01*
X260209153Y-148488640D01*
X260242486Y-148421973D01*
X260242486Y-148321973D01*
X260209153Y-148255306D01*
X260175820Y-148221973D01*
X260209153Y-147921973D02*
X260242486Y-147855306D01*
X260242486Y-147721973D01*
X260209153Y-147655306D01*
X260142486Y-147621973D01*
X260109153Y-147621973D01*
X260042486Y-147655306D01*
X260009153Y-147721973D01*
X260009153Y-147821973D01*
X259975820Y-147888640D01*
X259909153Y-147921973D01*
X259875820Y-147921973D01*
X259809153Y-147888640D01*
X259775820Y-147821973D01*
X259775820Y-147721973D01*
X259809153Y-147655306D01*
X263333666Y-140541266D02*
X263000333Y-140774600D01*
X263333666Y-140941266D02*
X262633666Y-140941266D01*
X262633666Y-140674600D01*
X262667000Y-140607933D01*
X262700333Y-140574600D01*
X262767000Y-140541266D01*
X262867000Y-140541266D01*
X262933666Y-140574600D01*
X262967000Y-140607933D01*
X263000333Y-140674600D01*
X263000333Y-140941266D01*
X263300333Y-139974600D02*
X263333666Y-140041266D01*
X263333666Y-140174600D01*
X263300333Y-140241266D01*
X263233666Y-140274600D01*
X262967000Y-140274600D01*
X262900333Y-140241266D01*
X262867000Y-140174600D01*
X262867000Y-140041266D01*
X262900333Y-139974600D01*
X262967000Y-139941266D01*
X263033666Y-139941266D01*
X263100333Y-140274600D01*
X263300333Y-139674600D02*
X263333666Y-139607933D01*
X263333666Y-139474600D01*
X263300333Y-139407933D01*
X263233666Y-139374600D01*
X263200333Y-139374600D01*
X263133666Y-139407933D01*
X263100333Y-139474600D01*
X263100333Y-139574600D01*
X263067000Y-139641266D01*
X263000333Y-139674600D01*
X262967000Y-139674600D01*
X262900333Y-139641266D01*
X262867000Y-139574600D01*
X262867000Y-139474600D01*
X262900333Y-139407933D01*
X263300333Y-138807933D02*
X263333666Y-138874600D01*
X263333666Y-139007933D01*
X263300333Y-139074600D01*
X263233666Y-139107933D01*
X262967000Y-139107933D01*
X262900333Y-139074600D01*
X262867000Y-139007933D01*
X262867000Y-138874600D01*
X262900333Y-138807933D01*
X262967000Y-138774600D01*
X263033666Y-138774600D01*
X263100333Y-139107933D01*
X262867000Y-138574600D02*
X262867000Y-138307933D01*
X262633666Y-138474600D02*
X263233666Y-138474600D01*
X263300333Y-138441266D01*
X263333666Y-138374600D01*
X263333666Y-138307933D01*
X263292400Y-149882000D02*
X263325733Y-149915333D01*
X263359066Y-150015333D01*
X263359066Y-150082000D01*
X263325733Y-150182000D01*
X263259066Y-150248666D01*
X263192400Y-150282000D01*
X263059066Y-150315333D01*
X262959066Y-150315333D01*
X262825733Y-150282000D01*
X262759066Y-150248666D01*
X262692400Y-150182000D01*
X262659066Y-150082000D01*
X262659066Y-150015333D01*
X262692400Y-149915333D01*
X262725733Y-149882000D01*
X263359066Y-149282000D02*
X262992400Y-149282000D01*
X262925733Y-149315333D01*
X262892400Y-149382000D01*
X262892400Y-149515333D01*
X262925733Y-149582000D01*
X263325733Y-149282000D02*
X263359066Y-149348666D01*
X263359066Y-149515333D01*
X263325733Y-149582000D01*
X263259066Y-149615333D01*
X263192400Y-149615333D01*
X263125733Y-149582000D01*
X263092400Y-149515333D01*
X263092400Y-149348666D01*
X263059066Y-149282000D01*
X263359066Y-148848666D02*
X263325733Y-148915333D01*
X263259066Y-148948666D01*
X262659066Y-148948666D01*
X263359066Y-148582000D02*
X262892400Y-148582000D01*
X262659066Y-148582000D02*
X262692400Y-148615333D01*
X262725733Y-148582000D01*
X262692400Y-148548666D01*
X262659066Y-148582000D01*
X262725733Y-148582000D01*
X263359066Y-148248666D02*
X262659066Y-148248666D01*
X262925733Y-148248666D02*
X262892400Y-148182000D01*
X262892400Y-148048666D01*
X262925733Y-147982000D01*
X262959066Y-147948666D01*
X263025733Y-147915333D01*
X263225733Y-147915333D01*
X263292400Y-147948666D01*
X263325733Y-147982000D01*
X263359066Y-148048666D01*
X263359066Y-148182000D01*
X263325733Y-148248666D01*
X263359066Y-147615333D02*
X262892400Y-147615333D01*
X263025733Y-147615333D02*
X262959066Y-147582000D01*
X262925733Y-147548666D01*
X262892400Y-147482000D01*
X262892400Y-147415333D01*
X263359066Y-146882000D02*
X262992400Y-146882000D01*
X262925733Y-146915333D01*
X262892400Y-146982000D01*
X262892400Y-147115333D01*
X262925733Y-147182000D01*
X263325733Y-146882000D02*
X263359066Y-146948666D01*
X263359066Y-147115333D01*
X263325733Y-147182000D01*
X263259066Y-147215333D01*
X263192400Y-147215333D01*
X263125733Y-147182000D01*
X263092400Y-147115333D01*
X263092400Y-146948666D01*
X263059066Y-146882000D01*
X262892400Y-146648666D02*
X262892400Y-146382000D01*
X262659066Y-146548666D02*
X263259066Y-146548666D01*
X263325733Y-146515333D01*
X263359066Y-146448666D01*
X263359066Y-146382000D01*
X263325733Y-145882000D02*
X263359066Y-145948666D01*
X263359066Y-146082000D01*
X263325733Y-146148666D01*
X263259066Y-146182000D01*
X262992400Y-146182000D01*
X262925733Y-146148666D01*
X262892400Y-146082000D01*
X262892400Y-145948666D01*
X262925733Y-145882000D01*
X262992400Y-145848666D01*
X263059066Y-145848666D01*
X263125733Y-146182000D01*
D10*
X258508500Y-153543000D02*
X258508500Y-133159500D01*
D12*
X254314880Y-150769580D02*
X254314880Y-144769580D01*
X258114880Y-144769580D02*
X258114880Y-150769580D01*
X254314880Y-150769580D02*
X255229880Y-150769580D01*
X258114880Y-150769580D02*
X257199880Y-150769580D01*
X254314880Y-144769580D02*
X255229880Y-144769580D01*
X258114880Y-144769580D02*
X257199880Y-144769580D01*
D13*
X256225880Y-152198580D02*
G75*
G03X256225880Y-152198580I-72000J0D01*
G01*
D12*
X254314880Y-141907520D02*
X254314880Y-135907520D01*
X258114880Y-135907520D02*
X258114880Y-141907520D01*
X254314880Y-141907520D02*
X255229880Y-141907520D01*
X258114880Y-141907520D02*
X257199880Y-141907520D01*
X254314880Y-135907520D02*
X255229880Y-135907520D01*
X258114880Y-135907520D02*
X257199880Y-135907520D01*
D13*
X256225880Y-143336520D02*
G75*
G03X256225880Y-143336520I-72000J0D01*
G01*
D14*
X247150000Y-148240000D02*
X247150000Y-147600000D01*
X249370000Y-147600000D02*
X249850000Y-147600000D01*
X249850000Y-148240000D02*
X249850000Y-147600000D01*
X247150000Y-149800000D02*
X247150000Y-149160000D01*
X249850000Y-149800000D02*
X249850000Y-149160000D01*
X249370000Y-149800000D02*
X249850000Y-149800000D01*
X247150000Y-149800000D02*
X247630000Y-149800000D01*
D10*
X215416000Y-148718000D02*
X215416000Y-147918000D01*
X215616000Y-148718000D02*
X215416000Y-148718000D01*
X215416000Y-145718000D02*
X215616000Y-145718000D01*
X215416000Y-146518000D02*
X215416000Y-145718000D01*
X218416000Y-145718000D02*
X218416000Y-146518000D01*
X218216000Y-145718000D02*
X218416000Y-145718000D01*
X218416000Y-148518000D02*
X218216000Y-148718000D01*
X218416000Y-147918000D02*
X218416000Y-148518000D01*
X218416000Y-147918000D02*
X218916000Y-147918000D01*
X218416000Y-146518000D02*
X218916000Y-146518000D01*
D12*
X221289000Y-135408000D02*
X237289000Y-135408000D01*
X221289000Y-151408000D02*
X237289000Y-151408000D01*
X221289000Y-137898000D02*
X221289000Y-138758000D01*
X221289000Y-140438000D02*
X221289000Y-141298000D01*
X221289000Y-142978000D02*
X221289000Y-143838000D01*
X221289000Y-145518000D02*
X221289000Y-146378000D01*
X221289000Y-148058000D02*
X221289000Y-148918000D01*
X237289000Y-137898000D02*
X237289000Y-138758000D01*
X237289000Y-140438000D02*
X237289000Y-141298000D01*
X237289000Y-142978000D02*
X237289000Y-143838000D01*
X237289000Y-145518000D02*
X237289000Y-146378000D01*
X237289000Y-148058000D02*
X237289000Y-148918000D01*
D13*
X239192300Y-150793000D02*
G75*
G03X239192300Y-150793000I-142300J0D01*
G01*
D10*
X229175000Y-134553000D02*
X229175000Y-133223000D01*
X230505000Y-134553000D02*
X229175000Y-134553000D01*
X231775000Y-134553000D02*
X231775000Y-131893000D01*
X231775000Y-131893000D02*
X259775000Y-131893000D01*
X231775000Y-134553000D02*
X259775000Y-134553000D01*
X259775000Y-134553000D02*
X259775000Y-131893000D01*
X259775000Y-152213000D02*
X259775000Y-153543000D01*
X258445000Y-152213000D02*
X259775000Y-152213000D01*
X257175000Y-152213000D02*
X257175000Y-154873000D01*
X257175000Y-154873000D02*
X219015000Y-154873000D01*
X257175000Y-152213000D02*
X219015000Y-152213000D01*
X219015000Y-152213000D02*
X219015000Y-154873000D01*
D12*
X240100000Y-147280000D02*
X240100000Y-150780000D01*
X242900000Y-150780000D02*
X242900000Y-146680000D01*
X244000000Y-139050000D02*
X244000000Y-134950000D01*
X241200000Y-135550000D02*
X241200000Y-139050000D01*
X215567000Y-138915000D02*
X215567000Y-142415000D01*
X218367000Y-142415000D02*
X218367000Y-138315000D01*
X253885000Y-141123000D02*
X253885000Y-138748000D01*
X252235000Y-141123000D02*
X253885000Y-141123000D01*
X252235000Y-138748000D02*
X252235000Y-141123000D01*
X252986000Y-142342000D02*
G75*
G03X253186000Y-142342000I100000J0D01*
G01*
X253186000Y-142342000D02*
G75*
G03X252986000Y-142342000I-100000J0D01*
G01*
D14*
X253486000Y-143642000D02*
X253486000Y-144242000D01*
X252686000Y-143642000D02*
X252686000Y-144242000D01*
D12*
X253186000Y-142342000D02*
X253186000Y-142342000D01*
X252986000Y-142342000D02*
X252986000Y-142342000D01*
D10*
X249230000Y-143200000D02*
X247330000Y-143200000D01*
X247830000Y-145520000D02*
X249230000Y-145520000D01*
D11*
X250876000Y-138202000D02*
X250876000Y-138602000D01*
X250876000Y-141402000D02*
X250876000Y-141002000D01*
X250876000Y-141402000D02*
X250476000Y-141402000D01*
X247676000Y-141402000D02*
X247676000Y-141002000D01*
X247676000Y-141402000D02*
X248076000Y-141402000D01*
X247676000Y-138202000D02*
X247676000Y-138602000D01*
X247676000Y-138202000D02*
X248076000Y-138202000D01*
D13*
X253162000Y-145742000D02*
G75*
G03X253162000Y-145742000I-34000J0D01*
G01*
D12*
X250890000Y-146780000D02*
X250890000Y-149980000D01*
X253790000Y-149980000D02*
X253790000Y-146780000D01*
D11*
X216557266Y-143724380D02*
X216557266Y-144438666D01*
X216509647Y-144581523D01*
X216414409Y-144676761D01*
X216271552Y-144724380D01*
X216176314Y-144724380D01*
X217557266Y-144724380D02*
X216985838Y-144724380D01*
X217271552Y-144724380D02*
X217271552Y-143724380D01*
X217176314Y-143867238D01*
X217081076Y-143962476D01*
X216985838Y-144010095D01*
X227530066Y-132573780D02*
X227530066Y-133288066D01*
X227482447Y-133430923D01*
X227387209Y-133526161D01*
X227244352Y-133573780D01*
X227149114Y-133573780D01*
X227958638Y-132669019D02*
X228006257Y-132621400D01*
X228101495Y-132573780D01*
X228339590Y-132573780D01*
X228434828Y-132621400D01*
X228482447Y-132669019D01*
X228530066Y-132764257D01*
X228530066Y-132859495D01*
X228482447Y-133002352D01*
X227911019Y-133573780D01*
X228530066Y-133573780D01*
X257952133Y-150851876D02*
X257952133Y-151744733D01*
X257892609Y-151923304D01*
X257773561Y-152042352D01*
X257594990Y-152101876D01*
X257475942Y-152101876D01*
X258428323Y-150851876D02*
X259202133Y-150851876D01*
X258785466Y-151328066D01*
X258964038Y-151328066D01*
X259083085Y-151387590D01*
X259142609Y-151447114D01*
X259202133Y-151566161D01*
X259202133Y-151863780D01*
X259142609Y-151982828D01*
X259083085Y-152042352D01*
X258964038Y-152101876D01*
X258606895Y-152101876D01*
X258487847Y-152042352D01*
X258428323Y-151982828D01*
M02*
