solid
 facet normal -1.000000e+00 -0.000000e+00 -0.000000e+00
   outer loop
     vertex -3.000000e-01  1.500000e-01  2.600000e-01
     vertex -3.000000e-01  1.500000e-01  0.000000e+00
     vertex -3.000000e-01 -1.500000e-01  0.000000e+00
   endloop
 endfacet
 facet normal -1.000000e+00 -0.000000e+00  0.000000e+00
   outer loop
     vertex -3.000000e-01  1.500000e-01  2.600000e-01
     vertex -3.000000e-01 -1.500000e-01  0.000000e+00
     vertex -3.000000e-01 -1.500000e-01  2.600000e-01
   endloop
 endfacet
 facet normal  1.000000e+00  0.000000e+00  0.000000e+00
   outer loop
     vertex -2.000000e-01 -1.500000e-01  0.000000e+00
     vertex -2.000000e-01  1.500000e-01  0.000000e+00
     vertex -2.000000e-01  1.500000e-01  2.600000e-01
   endloop
 endfacet
 facet normal  1.000000e+00 -0.000000e+00  0.000000e+00
   outer loop
     vertex -2.000000e-01 -1.500000e-01  2.600000e-01
     vertex -2.000000e-01 -1.500000e-01  0.000000e+00
     vertex -2.000000e-01  1.500000e-01  2.600000e-01
   endloop
 endfacet
 facet normal  0.000000e+00 -1.000000e+00  0.000000e+00
   outer loop
     vertex -3.000000e-01 -1.500000e-01  0.000000e+00
     vertex -2.000000e-01 -1.500000e-01  0.000000e+00
     vertex -2.000000e-01 -1.500000e-01  2.600000e-01
   endloop
 endfacet
 facet normal  0.000000e+00 -1.000000e+00  0.000000e+00
   outer loop
     vertex -3.000000e-01 -1.500000e-01  2.600000e-01
     vertex -3.000000e-01 -1.500000e-01  0.000000e+00
     vertex -2.000000e-01 -1.500000e-01  2.600000e-01
   endloop
 endfacet
 facet normal  0.000000e+00  1.000000e+00  0.000000e+00
   outer loop
     vertex -2.000000e-01  1.500000e-01  2.600000e-01
     vertex -2.000000e-01  1.500000e-01  0.000000e+00
     vertex -3.000000e-01  1.500000e-01  0.000000e+00
   endloop
 endfacet
 facet normal  0.000000e+00  1.000000e+00 -0.000000e+00
   outer loop
     vertex -2.000000e-01  1.500000e-01  2.600000e-01
     vertex -3.000000e-01  1.500000e-01  0.000000e+00
     vertex -3.000000e-01  1.500000e-01  2.600000e-01
   endloop
 endfacet
 facet normal  0.000000e+00  0.000000e+00 -1.000000e+00
   outer loop
     vertex -3.000000e-01 -1.500000e-01  0.000000e+00
     vertex -3.000000e-01  1.500000e-01  0.000000e+00
     vertex -2.000000e-01  1.500000e-01  0.000000e+00
   endloop
 endfacet
 facet normal  0.000000e+00  0.000000e+00 -1.000000e+00
   outer loop
     vertex -2.000000e-01 -1.500000e-01  0.000000e+00
     vertex -3.000000e-01 -1.500000e-01  0.000000e+00
     vertex -2.000000e-01  1.500000e-01  0.000000e+00
   endloop
 endfacet
 facet normal  0.000000e+00  0.000000e+00  1.000000e+00
   outer loop
     vertex -2.000000e-01  1.500000e-01  2.600000e-01
     vertex -3.000000e-01  1.500000e-01  2.600000e-01
     vertex -3.000000e-01 -1.500000e-01  2.600000e-01
   endloop
 endfacet
 facet normal -0.000000e+00  0.000000e+00  1.000000e+00
   outer loop
     vertex -2.000000e-01  1.500000e-01  2.600000e-01
     vertex -3.000000e-01 -1.500000e-01  2.600000e-01
     vertex -2.000000e-01 -1.500000e-01  2.600000e-01
   endloop
 endfacet
 facet normal -1.000000e+00 -0.000000e+00 -0.000000e+00
   outer loop
     vertex  2.000000e-01  1.500000e-01  2.600000e-01
     vertex  2.000000e-01  1.500000e-01  0.000000e+00
     vertex  2.000000e-01 -1.500000e-01  0.000000e+00
   endloop
 endfacet
 facet normal -1.000000e+00 -0.000000e+00  0.000000e+00
   outer loop
     vertex  2.000000e-01  1.500000e-01  2.600000e-01
     vertex  2.000000e-01 -1.500000e-01  0.000000e+00
     vertex  2.000000e-01 -1.500000e-01  2.600000e-01
   endloop
 endfacet
 facet normal  1.000000e+00  0.000000e+00  0.000000e+00
   outer loop
     vertex  3.000000e-01 -1.500000e-01  0.000000e+00
     vertex  3.000000e-01  1.500000e-01  0.000000e+00
     vertex  3.000000e-01  1.500000e-01  2.600000e-01
   endloop
 endfacet
 facet normal  1.000000e+00 -0.000000e+00  0.000000e+00
   outer loop
     vertex  3.000000e-01 -1.500000e-01  2.600000e-01
     vertex  3.000000e-01 -1.500000e-01  0.000000e+00
     vertex  3.000000e-01  1.500000e-01  2.600000e-01
   endloop
 endfacet
 facet normal  0.000000e+00 -1.000000e+00  0.000000e+00
   outer loop
     vertex  2.000000e-01 -1.500000e-01  0.000000e+00
     vertex  3.000000e-01 -1.500000e-01  0.000000e+00
     vertex  3.000000e-01 -1.500000e-01  2.600000e-01
   endloop
 endfacet
 facet normal  0.000000e+00 -1.000000e+00  0.000000e+00
   outer loop
     vertex  2.000000e-01 -1.500000e-01  2.600000e-01
     vertex  2.000000e-01 -1.500000e-01  0.000000e+00
     vertex  3.000000e-01 -1.500000e-01  2.600000e-01
   endloop
 endfacet
 facet normal  0.000000e+00  1.000000e+00  0.000000e+00
   outer loop
     vertex  3.000000e-01  1.500000e-01  2.600000e-01
     vertex  3.000000e-01  1.500000e-01  0.000000e+00
     vertex  2.000000e-01  1.500000e-01  0.000000e+00
   endloop
 endfacet
 facet normal  0.000000e+00  1.000000e+00 -0.000000e+00
   outer loop
     vertex  3.000000e-01  1.500000e-01  2.600000e-01
     vertex  2.000000e-01  1.500000e-01  0.000000e+00
     vertex  2.000000e-01  1.500000e-01  2.600000e-01
   endloop
 endfacet
 facet normal  0.000000e+00  0.000000e+00 -1.000000e+00
   outer loop
     vertex  2.000000e-01 -1.500000e-01  0.000000e+00
     vertex  2.000000e-01  1.500000e-01  0.000000e+00
     vertex  3.000000e-01  1.500000e-01  0.000000e+00
   endloop
 endfacet
 facet normal  0.000000e+00  0.000000e+00 -1.000000e+00
   outer loop
     vertex  3.000000e-01 -1.500000e-01  0.000000e+00
     vertex  2.000000e-01 -1.500000e-01  0.000000e+00
     vertex  3.000000e-01  1.500000e-01  0.000000e+00
   endloop
 endfacet
 facet normal  0.000000e+00  0.000000e+00  1.000000e+00
   outer loop
     vertex  3.000000e-01  1.500000e-01  2.600000e-01
     vertex  2.000000e-01  1.500000e-01  2.600000e-01
     vertex  2.000000e-01 -1.500000e-01  2.600000e-01
   endloop
 endfacet
 facet normal -0.000000e+00  0.000000e+00  1.000000e+00
   outer loop
     vertex  3.000000e-01  1.500000e-01  2.600000e-01
     vertex  2.000000e-01 -1.500000e-01  2.600000e-01
     vertex  3.000000e-01 -1.500000e-01  2.600000e-01
   endloop
 endfacet
 facet normal -1.000000e+00 -0.000000e+00 -0.000000e+00
   outer loop
     vertex -2.000000e-01  1.470000e-01  2.574000e-01
     vertex -2.000000e-01  1.470000e-01  2.600000e-03
     vertex -2.000000e-01 -1.470000e-01  2.574000e-01
   endloop
 endfacet
 facet normal -1.000000e+00  0.000000e+00  0.000000e+00
   outer loop
     vertex -2.000000e-01  1.470000e-01  2.600000e-03
     vertex -2.000000e-01 -1.470000e-01  2.600000e-03
     vertex -2.000000e-01 -1.470000e-01  2.574000e-01
   endloop
 endfacet
 facet normal  1.000000e+00 -0.000000e+00  0.000000e+00
   outer loop
     vertex  2.000000e-01 -1.470000e-01  2.574000e-01
     vertex  2.000000e-01  1.470000e-01  2.600000e-03
     vertex  2.000000e-01  1.470000e-01  2.574000e-01
   endloop
 endfacet
 facet normal  1.000000e+00 -0.000000e+00  0.000000e+00
   outer loop
     vertex  2.000000e-01 -1.470000e-01  2.574000e-01
     vertex  2.000000e-01 -1.470000e-01  2.600000e-03
     vertex  2.000000e-01  1.470000e-01  2.600000e-03
   endloop
 endfacet
 facet normal  0.000000e+00 -1.000000e+00  0.000000e+00
   outer loop
     vertex -2.000000e-01 -1.470000e-01  2.600000e-03
     vertex  2.000000e-01 -1.470000e-01  2.600000e-03
     vertex  2.000000e-01 -1.470000e-01  2.574000e-01
   endloop
 endfacet
 facet normal  0.000000e+00 -1.000000e+00  0.000000e+00
   outer loop
     vertex -2.000000e-01 -1.470000e-01  2.574000e-01
     vertex -2.000000e-01 -1.470000e-01  2.600000e-03
     vertex  2.000000e-01 -1.470000e-01  2.574000e-01
   endloop
 endfacet
 facet normal  0.000000e+00  1.000000e+00  0.000000e+00
   outer loop
     vertex  2.000000e-01  1.470000e-01  2.574000e-01
     vertex  2.000000e-01  1.470000e-01  2.600000e-03
     vertex -2.000000e-01  1.470000e-01  2.600000e-03
   endloop
 endfacet
 facet normal  0.000000e+00  1.000000e+00 -0.000000e+00
   outer loop
     vertex  2.000000e-01  1.470000e-01  2.574000e-01
     vertex -2.000000e-01  1.470000e-01  2.600000e-03
     vertex -2.000000e-01  1.470000e-01  2.574000e-01
   endloop
 endfacet
 facet normal  0.000000e+00  0.000000e+00 -1.000000e+00
   outer loop
     vertex -2.000000e-01 -1.470000e-01  2.600000e-03
     vertex -2.000000e-01  1.470000e-01  2.600000e-03
     vertex  2.000000e-01  1.470000e-01  2.600000e-03
   endloop
 endfacet
 facet normal  0.000000e+00  0.000000e+00 -1.000000e+00
   outer loop
     vertex  2.000000e-01 -1.470000e-01  2.600000e-03
     vertex -2.000000e-01 -1.470000e-01  2.600000e-03
     vertex  2.000000e-01  1.470000e-01  2.600000e-03
   endloop
 endfacet
 facet normal  0.000000e+00  0.000000e+00  1.000000e+00
   outer loop
     vertex  2.000000e-01  1.470000e-01  2.574000e-01
     vertex -2.000000e-01  1.470000e-01  2.574000e-01
     vertex -2.000000e-01 -1.470000e-01  2.574000e-01
   endloop
 endfacet
 facet normal -0.000000e+00  0.000000e+00  1.000000e+00
   outer loop
     vertex  2.000000e-01  1.470000e-01  2.574000e-01
     vertex -2.000000e-01 -1.470000e-01  2.574000e-01
     vertex  2.000000e-01 -1.470000e-01  2.574000e-01
   endloop
 endfacet
endsolid
